<svg width="81" height="80" viewBox="0 0 81 80" fill="none" xmlns="http://www.w3.org/2000/svg">
	<g opacity="0.4">
		<g clip-path="url(#clip0_6271_306059)">
			<rect x="0.5" width="80" height="80" rx="12" fill="#FFC34D"/>
			<g clip-path="url(#clip1_6271_306059)">
				<path fill-rule="evenodd" clip-rule="evenodd" d="M428.79 -489.064L-448.21 548.936L-452.793 545.064L424.207 -492.936L428.79 -489.064ZM440.79 -489.064L-436.21 548.936L-440.793 545.064L436.207 -492.936L440.79 -489.064ZM-424.21 548.936L452.79 -489.064L448.207 -492.936L-428.793 545.064L-424.21 548.936ZM464.79 -489.064L-412.21 548.936L-416.793 545.064L460.207 -492.936L464.79 -489.064ZM-400.21 548.936L476.79 -489.064L472.207 -492.936L-404.793 545.064L-400.21 548.936ZM488.79 -489.064L-388.21 548.936L-392.793 545.064L484.207 -492.936L488.79 -489.064ZM-376.21 548.936L500.79 -489.064L496.207 -492.936L-380.793 545.064L-376.21 548.936ZM512.79 -489.064L-364.21 548.936L-368.793 545.064L508.207 -492.936L512.79 -489.064ZM-352.21 548.936L524.79 -489.064L520.207 -492.936L-356.793 545.064L-352.21 548.936ZM536.79 -489.064L-340.21 548.936L-344.793 545.064L532.207 -492.936L536.79 -489.064ZM-328.21 548.936L548.79 -489.064L544.207 -492.936L-332.793 545.064L-328.21 548.936ZM560.79 -489.064L-316.21 548.936L-320.793 545.064L556.207 -492.936L560.79 -489.064ZM-304.21 548.936L572.79 -489.064L568.207 -492.936L-308.793 545.064L-304.21 548.936ZM584.79 -489.064L-292.21 548.936L-296.793 545.064L580.207 -492.936L584.79 -489.064ZM-280.21 548.936L596.79 -489.064L592.207 -492.936L-284.793 545.064L-280.21 548.936ZM608.79 -489.064L-268.21 548.936L-272.793 545.064L604.207 -492.936L608.79 -489.064ZM-256.21 548.936L620.79 -489.064L616.207 -492.936L-260.793 545.064L-256.21 548.936ZM632.79 -489.064L-244.21 548.936L-248.793 545.064L628.207 -492.936L632.79 -489.064ZM-232.21 548.936L644.79 -489.064L640.207 -492.936L-236.793 545.064L-232.21 548.936ZM656.79 -489.064L-220.21 548.936L-224.793 545.064L652.207 -492.936L656.79 -489.064ZM-208.21 548.936L668.79 -489.064L664.207 -492.936L-212.793 545.064L-208.21 548.936ZM680.79 -489.064L-196.21 548.936L-200.793 545.064L676.207 -492.936L680.79 -489.064ZM-184.21 548.936L692.79 -489.064L688.207 -492.936L-188.793 545.064L-184.21 548.936ZM704.79 -489.064L-172.21 548.936L-176.793 545.064L700.207 -492.936L704.79 -489.064ZM-160.21 548.936L716.79 -489.064L712.207 -492.936L-164.793 545.064L-160.21 548.936ZM728.79 -489.064L-148.21 548.936L-152.793 545.064L724.207 -492.936L728.79 -489.064ZM-136.21 548.936L740.79 -489.064L736.207 -492.936L-140.793 545.064L-136.21 548.936ZM752.79 -489.064L-124.21 548.936L-128.793 545.064L748.207 -492.936L752.79 -489.064ZM-112.21 548.936L764.79 -489.064L760.207 -492.936L-116.793 545.064L-112.21 548.936ZM776.79 -489.064L-100.21 548.936L-104.793 545.064L772.207 -492.936L776.79 -489.064ZM-88.2098 548.936L788.79 -489.064L784.207 -492.936L-92.793 545.064L-88.2098 548.936ZM800.79 -489.064L-76.2098 548.936L-80.793 545.064L796.207 -492.936L800.79 -489.064ZM-64.2098 548.936L812.79 -489.064L808.207 -492.936L-68.793 545.064L-64.2098 548.936ZM824.79 -489.064L-52.2098 548.936L-56.793 545.064L820.207 -492.936L824.79 -489.064ZM-40.2098 548.936L836.79 -489.064L832.207 -492.936L-44.793 545.064L-40.2098 548.936ZM848.79 -489.064L-28.2098 548.936L-32.793 545.064L844.207 -492.936L848.79 -489.064ZM-16.2098 548.936L860.79 -489.064L856.207 -492.936L-20.793 545.064L-16.2098 548.936ZM872.79 -489.064L-4.20978 548.936L-8.79297 545.064L868.207 -492.936L872.79 -489.064ZM7.79022 548.936L884.79 -489.064L880.207 -492.936L3.20703 545.064L7.79022 548.936ZM896.79 -489.064L19.7902 548.936L15.207 545.064L892.207 -492.936L896.79 -489.064ZM31.7902 548.936L908.79 -489.064L904.207 -492.936L27.207 545.064L31.7902 548.936ZM920.79 -489.064L43.7902 548.936L39.207 545.064L916.207 -492.936L920.79 -489.064ZM55.7902 548.936L932.79 -489.064L928.207 -492.936L51.207 545.064L55.7902 548.936ZM944.79 -489.064L67.7902 548.936L63.2071 545.064L940.207 -492.936L944.79 -489.064ZM79.7902 548.936L956.79 -489.064L952.207 -492.936L75.2071 545.064L79.7902 548.936ZM968.79 -489.064L91.7902 548.936L87.2071 545.064L964.207 -492.936L968.79 -489.064ZM103.79 548.936L980.79 -489.064L976.207 -492.936L99.2071 545.064L103.79 548.936ZM992.79 -489.064L115.79 548.936L111.207 545.064L988.207 -492.936L992.79 -489.064ZM127.79 548.936L1004.79 -489.064L1000.21 -492.936L123.207 545.064L127.79 548.936ZM1016.79 -489.064L139.79 548.936L135.207 545.064L1012.21 -492.936L1016.79 -489.064ZM151.79 548.936L1028.79 -489.064L1024.21 -492.936L147.207 545.064L151.79 548.936ZM1040.79 -489.064L163.79 548.936L159.207 545.064L1036.21 -492.936L1040.79 -489.064ZM175.79 548.936L1052.79 -489.064L1048.21 -492.936L171.207 545.064L175.79 548.936ZM1064.79 -489.064L187.79 548.936L183.207 545.064L1060.21 -492.936L1064.79 -489.064ZM199.79 548.936L1076.79 -489.064L1072.21 -492.936L195.207 545.064L199.79 548.936ZM1088.79 -489.064L211.79 548.936L207.207 545.064L1084.21 -492.936L1088.79 -489.064ZM223.79 548.936L1100.79 -489.064L1096.21 -492.936L219.207 545.064L223.79 548.936ZM1112.79 -489.064L235.79 548.936L231.207 545.064L1108.21 -492.936L1112.79 -489.064ZM247.79 548.936L1124.79 -489.064L1120.21 -492.936L243.207 545.064L247.79 548.936ZM1136.79 -489.064L259.79 548.936L255.207 545.064L1132.21 -492.936L1136.79 -489.064ZM271.79 548.936L1148.79 -489.064L1144.21 -492.936L267.207 545.064L271.79 548.936ZM1160.79 -489.064L283.79 548.936L279.207 545.064L1156.21 -492.936L1160.79 -489.064ZM295.79 548.936L1172.79 -489.064L1168.21 -492.936L291.207 545.064L295.79 548.936Z" fill="#FFA900"/>
			</g>
		</g>
	</g>

	<defs>
		<clipPath id="clip0_6271_306059">
			<rect x="0.5" width="80" height="80" rx="12" fill="white"/>
		</clipPath>
		<clipPath id="clip1_6271_306059">
			<rect width="392" height="1085" fill="white" transform="translate(0.5)"/>
		</clipPath>
	</defs>
</svg>
