<svg width="178" height="122" viewBox="0 0 178 122" fill="none" xmlns="http://www.w3.org/2000/svg">
	<path d="M34.1167 20.7661C34.1167 8.85484 44.1158 -0.61514 56.0101 0.031229L127.209 3.90041C138.224 4.49899 146.849 13.6047 146.849 24.6352V95.7024C146.849 106.567 138.473 115.596 127.638 116.409L56.4387 121.757C44.3907 122.662 34.1167 113.132 34.1167 101.05V20.7661Z" fill="#224A7D" fill-opacity="0.8"/>
	<path d="M34.8167 20.7661C34.8167 9.2564 44.4787 0.105614 55.9721 0.730198L127.171 4.59938C137.815 5.17778 146.149 13.9765 146.149 24.6352V95.7024C146.149 106.201 138.055 114.925 127.586 115.711L56.3862 121.059C44.7444 121.934 34.8167 112.724 34.8167 101.05V20.7661Z" stroke="#1587FA" stroke-opacity="0.16" stroke-width="1.4"/>
	<g filter="url(#filter0_d_497_46428)">
		<path fill-rule="evenodd" clip-rule="evenodd" d="M98.3139 30.9263C104.222 24.1242 113.16 22.8554 119.294 30.3643C122.262 33.9987 123.434 38.3718 123.043 42.7358C122.662 47.0182 120.799 51.1012 118.033 54.4456L109.872 64.4968C106.584 68.4665 103.051 70.7732 99.2923 70.8638C95.5009 70.959 92.0669 68.7838 89.0234 65.3034C88.3083 64.4878 87.6733 63.6086 87.1182 62.6796C86.3326 61.37 86.6243 59.5528 87.7627 58.6329C88.9011 57.7129 90.4534 58.0347 91.2343 59.3398C91.6153 59.9788 92.0481 60.586 92.542 61.1525C95.0352 64.021 97.2696 65.163 99.2923 65.1267C101.301 65.0905 103.686 63.8805 106.48 60.5407L114.708 50.4849C116.928 47.8294 118.179 44.8566 118.429 42.0877C118.668 39.405 117.996 36.6905 115.987 34.2525C112.083 29.5079 106.212 29.8704 101.771 35.0138L95.5996 42.3914C94.6494 43.5243 93.0877 43.5424 92.1045 42.4231C91.1214 41.3038 91.0979 39.473 92.0528 38.3355L98.3139 30.9127V30.9263ZM89.1315 47.5167C93.0406 47.1496 96.5781 49.0257 99.6781 52.4381L99.7063 52.4653L101.489 54.5498C102.435 55.6601 102.435 57.4637 101.489 58.5921C100.539 59.7204 98.996 59.7386 98.0411 58.6283L96.3006 56.6027C93.9062 53.9924 91.6765 53.0725 89.5502 53.2855C87.3299 53.5075 84.6909 55.0211 81.6427 58.5603L72.959 68.6659C68.1655 74.2308 67.7092 81.5857 72.037 86.3349C74.2573 88.7684 76.741 89.5071 79.1966 89.0901C81.7132 88.6642 84.404 86.9784 86.7842 84.128L92.9654 76.7051C93.9297 75.545 95.4915 75.4952 96.4558 76.5873C97.4154 77.6749 97.4201 79.4921 96.4605 80.6522L90.3264 88.075C87.3487 91.6732 83.6607 94.2019 79.7516 94.8907C75.7297 95.6021 71.6889 94.3151 68.349 90.6853C61.4528 83.1854 62.864 71.9378 69.271 64.5603L78.0252 54.4547C81.558 50.3898 85.2695 47.8747 89.1315 47.5121V47.5167Z" fill="#3DADFF" fill-opacity="0.78" shape-rendering="crispEdges"/>
	</g>
	<path d="M0 72.9611C0 64.7815 6.60215 58.1408 14.7693 58.1055L38.5024 58.0031C46.7194 57.9676 53.3995 64.6291 53.3995 72.8587V99.6782C53.3995 107.468 47.392 113.934 39.6346 114.495L15.9015 116.212C7.31097 116.833 0 110.021 0 101.395V72.9611Z" fill="#1BCE7B" fill-opacity="0.78"/>
	<path d="M0.5 72.9611C0.5 65.0561 6.88031 58.6396 14.7714 58.6055L38.5045 58.5031C46.4439 58.4688 52.8995 64.9053 52.8995 72.8587V99.6782C52.8995 107.206 47.0939 113.455 39.5985 113.997L15.8654 115.713C7.56528 116.313 0.5 109.731 0.5 101.395V72.9611Z" stroke="black" stroke-opacity="0.16"/>
	<g filter="url(#filter1_d_497_46428)">
		<path d="M29.9105 71.4716C29.5366 71.0946 28.9376 71.41 28.9376 71.987V79.4573C28.8689 79.4304 28.7964 79.4188 28.7239 79.4227C15.6453 80.2728 11.5095 94.6748 10.3993 100.26C10.2696 100.922 10.983 101.28 11.418 100.795C14.2413 97.6291 21.0286 91.0128 28.7087 90.6473C28.7888 90.6435 28.8689 90.6204 28.9376 90.5858V99.2716C28.9376 99.8486 29.5366 100.114 29.9105 99.7063L42.7679 85.712C43.0998 85.3543 43.0998 84.7504 42.7679 84.4195L29.9105 71.4716Z" fill="white" fill-opacity="0.9" shape-rendering="crispEdges"/>
	</g>
	<path d="M133.5 22.8243C133.5 16.0539 139.138 10.6514 145.892 10.9514L166.658 11.8738C173.001 12.1556 177.999 17.3878 177.999 23.7467V48.478C177.999 54.9643 172.806 60.2526 166.331 60.3609L145.564 60.7085C138.934 60.8194 133.5 55.4669 133.5 48.8256V22.8243Z" fill="#25427A" fill-opacity="0.8"/>
	<path d="M134 22.8243C134 16.338 139.402 11.1636 145.87 11.4509L166.636 12.3733C172.711 12.6432 177.499 17.6547 177.499 23.7467V48.478C177.499 54.6921 172.524 59.7572 166.322 59.861L145.556 60.2085C139.206 60.3148 134 55.1882 134 48.8256V22.8243Z" stroke="black" stroke-opacity="0.16"/>
	<g filter="url(#filter2_d_497_46428)">
		<path d="M167.616 49.4733C167.215 42.5082 162.077 40.6919 157.393 40.6543C152.709 40.6168 147.274 42.4031 146.849 49.5671V49.8899C146.849 50.2314 147.088 50.5091 147.381 50.5091L167.108 50.3927C167.389 50.3927 167.611 50.1188 167.611 49.7848V49.4733H167.616Z" fill="white" fill-opacity="0.9" shape-rendering="crispEdges"/>
		<path d="M154.459 23.2754C154.744 23.0427 155.202 22.7763 155.771 22.5736C156.324 22.371 156.894 22.2696 157.364 22.2847C159.201 22.3447 160.463 23.2866 161.293 24.6076C162.135 25.9661 162.564 27.8275 162.531 29.7339C162.498 31.6403 162.003 33.5016 161.111 34.8376C160.249 36.1586 159.002 36.9992 157.364 36.9805C154.677 36.9467 152.915 34.5862 152.342 31.4714C151.764 28.3341 152.527 24.9266 154.475 23.2754H154.459Z" fill="white" fill-opacity="0.9" shape-rendering="crispEdges"/>
	</g>
	<defs>
		<filter id="filter0_d_497_46428" x="53.7832" y="19.2568" width="79.3325" height="89.8223" filterUnits="userSpaceOnUse" color-interpolation-filters="sRGB">
			<feFlood flood-opacity="0" result="BackgroundImageFix"/>
			<feColorMatrix in="SourceAlpha" type="matrix" values="0 0 0 0 0 0 0 0 0 0 0 0 0 0 0 0 0 0 127 0" result="hardAlpha"/>
			<feOffset dy="4"/>
			<feGaussianBlur stdDeviation="5"/>
			<feComposite in2="hardAlpha" operator="out"/>
			<feColorMatrix type="matrix" values="0 0 0 0 0 0 0 0 0 0 0 0 0 0 0 0 0 0 0.05 0"/>
			<feBlend mode="normal" in2="BackgroundImageFix" result="effect1_dropShadow_497_46428"/>
			<feBlend mode="normal" in="SourceGraphic" in2="effect1_dropShadow_497_46428" result="shape"/>
		</filter>
		<filter id="filter1_d_497_46428" x="0.383789" y="65.3076" width="52.6328" height="49.7119" filterUnits="userSpaceOnUse" color-interpolation-filters="sRGB">
			<feFlood flood-opacity="0" result="BackgroundImageFix"/>
			<feColorMatrix in="SourceAlpha" type="matrix" values="0 0 0 0 0 0 0 0 0 0 0 0 0 0 0 0 0 0 127 0" result="hardAlpha"/>
			<feOffset dy="4"/>
			<feGaussianBlur stdDeviation="5"/>
			<feComposite in2="hardAlpha" operator="out"/>
			<feColorMatrix type="matrix" values="0 0 0 0 0 0 0 0 0 0 0 0 0 0 0 0 0 0 0.05 0"/>
			<feBlend mode="normal" in2="BackgroundImageFix" result="effect1_dropShadow_497_46428"/>
			<feBlend mode="normal" in="SourceGraphic" in2="effect1_dropShadow_497_46428" result="shape"/>
		</filter>
		<filter id="filter2_d_497_46428" x="136.849" y="16.2832" width="40.7666" height="48.2256" filterUnits="userSpaceOnUse" color-interpolation-filters="sRGB">
			<feFlood flood-opacity="0" result="BackgroundImageFix"/>
			<feColorMatrix in="SourceAlpha" type="matrix" values="0 0 0 0 0 0 0 0 0 0 0 0 0 0 0 0 0 0 127 0" result="hardAlpha"/>
			<feOffset dy="4"/>
			<feGaussianBlur stdDeviation="5"/>
			<feComposite in2="hardAlpha" operator="out"/>
			<feColorMatrix type="matrix" values="0 0 0 0 0 0 0 0 0 0 0 0 0 0 0 0 0 0 0.05 0"/>
			<feBlend mode="normal" in2="BackgroundImageFix" result="effect1_dropShadow_497_46428"/>
			<feBlend mode="normal" in="SourceGraphic" in2="effect1_dropShadow_497_46428" result="shape"/>
		</filter>
	</defs>
</svg>
