<svg width="178" height="122" viewBox="0 0 178 122" fill="none" xmlns="http://www.w3.org/2000/svg">
	<path d="M34.1172 20.7661C34.1172 8.85484 44.1163 -0.61514 56.0106 0.031229L127.21 3.90041C138.225 4.49899 146.849 13.6047 146.849 24.6352V95.7024C146.849 106.567 138.474 115.596 127.638 116.409L56.4392 121.757C44.3912 122.662 34.1172 113.132 34.1172 101.05V20.7661Z" fill="#224A7D" fill-opacity="0.8"/>
	<path d="M34.8172 20.7661C34.8172 9.2564 44.4792 0.105614 55.9726 0.730198L127.172 4.59938C137.815 5.17778 146.149 13.9765 146.149 24.6352V95.7024C146.149 106.201 138.056 114.925 127.586 115.711L56.3867 121.059C44.7449 121.934 34.8172 112.724 34.8172 101.05V20.7661Z" stroke="#1587FA" stroke-opacity="0.16" stroke-width="1.4"/>
	<g clip-path="url(#clip0_496_138491)">
		<path fill-rule="evenodd" clip-rule="evenodd" d="M72.73 32.9101C68.4865 32.7495 65 36.6039 65 41.5135V76.8449C65 81.7776 68.4865 85.609 72.73 85.4025L79.0837 85.1042V94.2812C79.0837 95.8642 80.7352 96.5066 81.6527 95.2907L89.7726 84.5765L115.532 83.3147C119.133 83.1312 122 79.3915 122 74.9407V42.9819C122 38.531 119.11 34.7914 115.532 34.6537L72.73 32.9101ZM82.662 65.8096C83.1666 64.869 83.4419 63.8136 83.4419 62.6435C83.4419 61.4735 83.1666 60.2805 82.6161 59.4316C82.0656 58.5827 81.0793 57.7797 79.6801 57.0456C78.1891 56.2426 77.2716 55.7149 76.9505 55.3937C76.6064 55.0955 76.4459 54.7513 76.4459 54.3613C76.4459 53.9713 76.5835 53.7189 76.8358 53.4666C77.1111 53.2371 77.5239 53.1224 78.1203 53.1224C79.2443 53.1224 80.5746 53.5583 82.1115 54.3843L83.4648 50.3923C81.6986 49.4516 79.9783 48.9698 78.2579 48.9469C76.5376 48.924 74.7714 49.4057 73.6475 50.3923C72.5235 51.3788 71.9501 52.7783 71.9501 54.5907C71.9501 56.4032 72.0877 56.3803 72.34 57.0915C72.6153 57.8027 73.0052 58.4221 73.5557 58.9498C74.1062 59.5004 74.932 60.051 76.0101 60.6017C77.2028 61.2211 77.9368 61.6341 78.235 61.8406C78.5103 62.047 78.7167 62.2306 78.8314 62.4371C78.9461 62.6435 79.0149 62.873 79.0149 63.1253C79.0149 63.5383 78.8543 63.9054 78.5561 64.1577C78.235 64.4331 77.7533 64.5707 77.0881 64.5707C76.4229 64.5707 75.4596 64.456 74.5191 64.1807C73.5787 63.9054 72.6841 63.5154 71.8125 63.0106V67.7138C72.6382 68.1497 73.441 68.448 74.198 68.6315C74.9549 68.7921 75.8954 68.861 76.9964 68.838C78.3268 68.8151 79.4736 68.5398 80.46 67.9891C81.4233 67.4615 82.1803 66.7273 82.6849 65.7867L82.662 65.8096ZM89.6579 54.6825L92.8922 68.2645L96.9062 68.1727L100.026 54.7513H100.118C100.026 56.7703 99.9799 58.0321 99.9799 58.5598C99.9799 59.0875 99.9799 59.5463 99.9799 59.9822V68.1268L103.765 68.058V49.5893L98.2366 49.5205L95.0483 62.8041H94.9565L91.6765 49.4287L85.9191 49.3599V68.425L89.7497 68.3562V60.1428C89.7497 58.858 89.6809 57.0456 89.5203 54.7284H89.6121L89.6579 54.6825ZM116.633 62.2994C116.633 63.4236 116.403 64.4101 115.944 65.2819C115.486 66.1537 114.821 66.842 113.972 67.3468C113.1 67.8515 112.091 68.1039 110.898 68.1268C109.705 68.1497 109.086 68.0809 108.421 67.9203C107.756 67.7597 107.045 67.4844 106.311 67.0714V62.6435C107.091 63.1253 107.893 63.4924 108.719 63.7448C109.545 63.9972 110.302 64.1348 110.99 64.1119C111.678 64.0889 112.022 63.9742 112.297 63.7218C112.573 63.4695 112.71 63.1483 112.71 62.7353C112.71 62.3224 112.664 62.2765 112.55 62.0929C112.435 61.9094 112.252 61.7258 112.022 61.5423C111.77 61.3588 111.128 60.9687 110.049 60.3952C109.086 59.8675 108.352 59.3398 107.87 58.8351C107.389 58.3304 107.022 57.7339 106.792 57.0685C106.563 56.4032 106.448 55.6232 106.448 54.7284C106.448 53.0307 106.953 51.7229 107.962 50.7823C108.971 49.8417 110.325 49.4057 112.068 49.4287C113.811 49.4516 115.119 49.9105 116.678 50.7823L115.486 54.5449C114.132 53.7648 112.94 53.3748 111.953 53.3518C111.426 53.3518 111.059 53.4666 110.829 53.673C110.6 53.9025 110.485 54.1778 110.485 54.499C110.485 54.8202 110.646 55.1872 110.944 55.4626C111.242 55.7379 112.045 56.2655 113.375 56.9997C114.637 57.7109 115.509 58.4451 115.99 59.2481C116.472 60.051 116.724 61.0605 116.724 62.2765L116.633 62.2994Z" fill="#3DADFF" fill-opacity="0.78"/>
		<path d="M72.7065 84.903L72.7057 84.9031C68.8164 85.0923 65.5 81.5658 65.5 76.8449V41.5135C65.5 36.8169 68.8166 33.2628 72.7104 33.4097C72.7106 33.4097 72.7108 33.4097 72.7111 33.4098L115.511 35.1533L115.512 35.1534C118.729 35.2771 121.5 38.6958 121.5 42.9819V74.9407C121.5 79.2251 118.752 82.6495 115.507 82.8153C115.507 82.8153 115.506 82.8153 115.506 82.8154L89.7482 84.0771L89.5151 84.0886L89.3741 84.2745L81.2542 94.9887L81.2536 94.9895C80.9204 95.4311 80.5109 95.4891 80.2064 95.3699C79.8916 95.2467 79.5837 94.8906 79.5837 94.2812V85.1042V84.5802L79.0603 84.6048L72.7065 84.903ZM83.1178 66.0173C83.6521 65.0105 83.9419 63.8835 83.9419 62.6435C83.9419 61.4088 83.6536 60.1125 83.0356 59.1595C82.4198 58.21 81.3505 57.3577 79.9148 56.6041C79.1712 56.2036 78.5782 55.8758 78.1331 55.6098C77.6735 55.3351 77.4151 55.1512 77.3041 55.0402L77.2915 55.0276L77.278 55.0159C77.0311 54.8019 76.9459 54.5907 76.9459 54.3613C76.9459 54.2286 76.9685 54.1407 77.0005 54.0712C77.0319 54.0028 77.083 53.9293 77.172 53.8377C77.3211 53.7221 77.5945 53.6224 78.1203 53.6224C79.1242 53.6224 80.3684 54.0151 81.8748 54.8247L82.3953 55.1044L82.585 54.5448L83.9383 50.5528L84.0747 50.1506L83.6998 49.951C81.8759 48.9796 80.0778 48.4711 78.2646 48.4469C76.4668 48.423 74.5642 48.9223 73.3177 50.0165C72.0646 51.1163 71.4501 52.6648 71.4501 54.5907C71.4501 55.499 71.4836 55.9925 71.5614 56.3582C71.6138 56.6043 71.6957 56.8118 71.7742 57.0106C71.8072 57.0941 71.8395 57.176 71.8688 57.2586L71.8712 57.2653L71.8737 57.2719C72.1715 58.0413 72.5984 58.7237 73.2059 59.3071C73.8088 59.9089 74.6848 60.4861 75.7813 61.0463C76.9679 61.6626 77.67 62.0591 77.9428 62.2464C78.2102 62.4477 78.3363 62.5755 78.3943 62.6798C78.4728 62.8212 78.5149 62.9678 78.5149 63.1253C78.5149 63.4044 78.4094 63.6269 78.2331 63.7761L78.2307 63.7782C78.0383 63.9431 77.6961 64.0707 77.0881 64.0707C76.4702 64.0707 75.5541 63.9627 74.6596 63.7008C73.7601 63.4375 72.9023 63.0639 72.063 62.5779L71.3125 62.1433V63.0106V67.7138V68.0153L71.5791 68.156C72.4399 68.6104 73.2814 68.9238 74.0802 69.1174L74.0872 69.1191L74.0942 69.1206C74.9008 69.2918 75.882 69.3613 77.0059 69.3379C78.4002 69.3138 79.6306 69.0244 80.702 68.4267C81.742 67.8566 82.5715 67.0557 83.1255 66.023L83.1178 66.0173ZM94.9977 60.8726L92.1621 49.3096L92.0698 48.9334L91.6824 48.9287L85.9251 48.8599L85.4191 48.8538V49.3599V68.425V68.9341L85.9281 68.925L89.7587 68.8561L90.2497 68.8473V68.3562V60.1428C90.2497 59.8797 90.2469 59.5952 90.241 59.2894L92.4058 68.3803L92.4994 68.7736L92.9036 68.7643L96.9177 68.6726L97.3054 68.6637L97.3933 68.2859L99.4799 59.3084V59.3109V59.3137V59.3164V59.3192V59.3219V59.3247V59.3274V59.3302V59.3329V59.3357V59.3384V59.3412V59.3439V59.3466V59.3494V59.3521V59.3549V59.3576V59.3603V59.3631V59.3658V59.3685V59.3713V59.374V59.3767V59.3794V59.3822V59.3849V59.3876V59.3904V59.3931V59.3958V59.3985V59.4012V59.404V59.4067V59.4094V59.4121V59.4148V59.4175V59.4203V59.423V59.4257V59.4284V59.4311V59.4338V59.4365V59.4392V59.4419V59.4446V59.4473V59.4501V59.4528V59.4555V59.4582V59.4609V59.4636V59.4663V59.4689V59.4716V59.4743V59.477V59.4797V59.4824V59.4851V59.4878V59.4905V59.4932V59.4959V59.4986V59.5012V59.5039V59.5066V59.5093V59.512V59.5147V59.5173V59.52V59.5227V59.5254V59.5281V59.5307V59.5334V59.5361V59.5387V59.5414V59.5441V59.5468V59.5494V59.5521V59.5548V59.5574V59.5601V59.5628V59.5654V59.5681V59.5708V59.5734V59.5761V59.5787V59.5814V59.5841V59.5867V59.5894V59.592V59.5947V59.5973V59.6V59.6027V59.6053V59.608V59.6106V59.6133V59.6159V59.6186V59.6212V59.6239V59.6265V59.6291V59.6318V59.6344V59.6371V59.6397V59.6424V59.645V59.6476V59.6503V59.6529V59.6555V59.6582V59.6608V59.6635V59.6661V59.6687V59.6714V59.674V59.6766V59.6792V59.6819V59.6845V59.6871V59.6898V59.6924V59.695V59.6976V59.7003V59.7029V59.7055V59.7081V59.7107V59.7134V59.716V59.7186V59.7212V59.7238V59.7265V59.7291V59.7317V59.7343V59.7369V59.7395V59.7421V59.7448V59.7474V59.75V59.7526V59.7552V59.7578V59.7604V59.763V59.7656V59.7682V59.7708V59.7734V59.776V59.7786V59.7812V59.7838V59.7864V59.789V59.7916V59.7942V59.7968V59.7994V59.802V59.8046V59.8072V59.8098V59.8124V59.815V59.8176V59.8202V59.8228V59.8254V59.828V59.8305V59.8331V59.8357V59.8383V59.8409V59.8435V59.8461V59.8486V59.8512V59.8538V59.8564V59.859V59.8616V59.8641V59.8667V59.8693V59.8719V59.8745V59.877V59.8796V59.8822V59.8848V59.8873V59.8899V59.8925V59.8951V59.8976V59.9002V59.9028V59.9054V59.9079V59.9105V59.9131V59.9156V59.9182V59.9208V59.9233V59.9259V59.9285V59.931V59.9336V59.9362V59.9387V59.9413V59.9438V59.9464V59.949V59.9515V59.9541V59.9567V59.9592V59.9618V59.9643V59.9669V59.9694V59.972V59.9746V59.9771V59.9797V59.9822V68.1268V68.636L99.989 68.6267L103.774 68.5579L104.265 68.549V68.058V49.5893V49.0955L103.771 49.0893L98.2428 49.0205L97.8436 49.0155L97.7504 49.4038L94.9977 60.8726ZM114.222 67.7794L114.222 67.7795L114.227 67.7765C115.153 67.2263 115.884 66.471 116.387 65.5148C116.833 64.6679 117.075 63.7295 117.124 62.692L117.224 62.6668V62.2765C117.224 60.9922 116.958 59.8887 116.419 58.9909C115.873 58.0802 114.915 57.2935 113.621 56.5641L113.617 56.5619C112.281 55.8245 111.53 55.3234 111.283 55.0952C111.075 54.9029 110.985 54.6644 110.985 54.499C110.985 54.3165 111.043 54.1707 111.173 54.0368C111.275 53.9502 111.496 53.8527 111.948 53.8519C112.818 53.8735 113.925 54.2226 115.236 54.978L115.775 55.2884L115.962 54.6959L117.155 50.9334L117.278 50.5448L116.922 50.3458C115.313 49.4463 113.924 48.9531 112.075 48.9287C110.242 48.9046 108.75 49.3644 107.621 50.4165C106.489 51.4722 105.948 52.9251 105.948 54.7284C105.948 55.6643 106.068 56.5017 106.32 57.2315C106.573 57.966 106.978 58.6244 107.509 59.1803C108.04 59.7366 108.823 60.2932 109.809 60.8337L109.809 60.8337L109.815 60.8366C110.877 61.4019 111.49 61.7755 111.719 61.9401C111.924 62.1052 112.055 62.245 112.126 62.3579C112.192 62.4647 112.193 62.4664 112.194 62.4704C112.194 62.4708 112.194 62.4712 112.194 62.4717C112.198 62.4833 112.21 62.5357 112.21 62.7353C112.21 63.02 112.123 63.2033 111.959 63.3533C111.814 63.4867 111.615 63.5908 110.973 63.6121C110.361 63.6326 109.662 63.5102 108.865 63.2666C108.083 63.0275 107.319 62.6788 106.573 62.2182L105.811 61.7469V62.6435V67.0714V67.3638L106.065 67.5072C106.837 67.9412 107.591 68.2343 108.304 68.4063C109.022 68.5799 109.687 68.6502 110.908 68.6267C112.168 68.6025 113.264 68.3347 114.222 67.7794Z" stroke="black" stroke-opacity="0.16"/>
	</g>
	<path d="M133.5 22.8243C133.5 16.0539 139.139 10.6514 145.892 10.9514L166.659 11.8738C173.002 12.1556 178 17.3878 178 23.7467V48.478C178 54.9643 172.807 60.2526 166.331 60.3609L145.565 60.7085C138.934 60.8194 133.5 55.4669 133.5 48.8256V22.8243Z" fill="#25427A" fill-opacity="0.8"/>
	<path d="M134 22.8243C134 16.338 139.402 11.1636 145.87 11.4509L166.637 12.3733C172.712 12.6432 177.5 17.6547 177.5 23.7467V48.478C177.5 54.6921 172.525 59.7572 166.323 59.861L145.556 60.2085C139.206 60.3148 134 55.1882 134 48.8256V22.8243Z" stroke="black" stroke-opacity="0.16"/>
	<g filter="url(#filter0_d_496_138491)">
		<path d="M167.614 49.4733C167.214 42.5082 162.076 40.6919 157.392 40.6543C152.708 40.6168 147.273 42.4031 146.848 49.5671V49.8899C146.848 50.2314 147.087 50.5091 147.38 50.5091L167.107 50.3927C167.387 50.3927 167.61 50.1188 167.61 49.7848V49.4733H167.614Z" fill="white" fill-opacity="0.9" shape-rendering="crispEdges"/>
		<path d="M154.457 23.2754C154.742 23.0427 155.2 22.7763 155.77 22.5736C156.323 22.371 156.892 22.2696 157.363 22.2847C159.199 22.3447 160.462 23.2866 161.291 24.6076C162.133 25.9661 162.562 27.8275 162.529 29.7339C162.496 31.6403 162.001 33.5016 161.11 34.8376C160.247 36.1586 159.001 36.9992 157.363 36.9805C154.676 36.9467 152.914 34.5862 152.34 31.4714C151.762 28.3341 152.526 24.9266 154.474 23.2754H154.457Z" fill="white" fill-opacity="0.9" shape-rendering="crispEdges"/>
	</g>
	<path d="M0 72.9611C0 64.7815 6.60215 58.1408 14.7693 58.1055L38.5024 58.0031C46.7194 57.9676 53.3995 64.6291 53.3995 72.8587V99.6782C53.3995 107.468 47.392 113.934 39.6346 114.495L15.9015 116.212C7.31097 116.833 0 110.021 0 101.395V72.9611Z" fill="#1BCE7B" fill-opacity="0.78"/>
	<path d="M0.5 72.9611C0.5 65.0561 6.88031 58.6396 14.7714 58.6055L38.5045 58.5031C46.4439 58.4688 52.8995 64.9053 52.8995 72.8587V99.6782C52.8995 107.206 47.0939 113.455 39.5985 113.997L15.8654 115.713C7.56528 116.313 0.5 109.731 0.5 101.395V72.9611Z" stroke="black" stroke-opacity="0.16"/>
	<g filter="url(#filter1_d_496_138491)">
		<path d="M29.9115 71.4716C29.5376 71.0946 28.9386 71.41 28.9386 71.987V79.4573C28.8699 79.4304 28.7974 79.4188 28.7249 79.4227C15.6463 80.2728 11.5105 94.6748 10.4003 100.26C10.2706 100.922 10.984 101.28 11.419 100.795C14.2422 97.6291 21.0296 91.0128 28.7097 90.6473C28.7898 90.6435 28.8699 90.6204 28.9386 90.5858V99.2716C28.9386 99.8486 29.5376 100.114 29.9115 99.7063L42.7688 85.712C43.1008 85.3543 43.1008 84.7504 42.7688 84.4195L29.9115 71.4716Z" fill="white" fill-opacity="0.9" shape-rendering="crispEdges"/>
	</g>
	<defs>
		<filter id="filter0_d_496_138491" x="136.848" y="16.2832" width="40.7656" height="48.2256" filterUnits="userSpaceOnUse" color-interpolation-filters="sRGB">
			<feFlood flood-opacity="0" result="BackgroundImageFix"/>
			<feColorMatrix in="SourceAlpha" type="matrix" values="0 0 0 0 0 0 0 0 0 0 0 0 0 0 0 0 0 0 127 0" result="hardAlpha"/>
			<feOffset dy="4"/>
			<feGaussianBlur stdDeviation="5"/>
			<feComposite in2="hardAlpha" operator="out"/>
			<feColorMatrix type="matrix" values="0 0 0 0 0 0 0 0 0 0 0 0 0 0 0 0 0 0 0.05 0"/>
			<feBlend mode="normal" in2="BackgroundImageFix" result="effect1_dropShadow_496_138491"/>
			<feBlend mode="normal" in="SourceGraphic" in2="effect1_dropShadow_496_138491" result="shape"/>
		</filter>
		<filter id="filter1_d_496_138491" x="0.384766" y="65.3076" width="52.6328" height="49.7119" filterUnits="userSpaceOnUse" color-interpolation-filters="sRGB">
			<feFlood flood-opacity="0" result="BackgroundImageFix"/>
			<feColorMatrix in="SourceAlpha" type="matrix" values="0 0 0 0 0 0 0 0 0 0 0 0 0 0 0 0 0 0 127 0" result="hardAlpha"/>
			<feOffset dy="4"/>
			<feGaussianBlur stdDeviation="5"/>
			<feComposite in2="hardAlpha" operator="out"/>
			<feColorMatrix type="matrix" values="0 0 0 0 0 0 0 0 0 0 0 0 0 0 0 0 0 0 0.05 0"/>
			<feBlend mode="normal" in2="BackgroundImageFix" result="effect1_dropShadow_496_138491"/>
			<feBlend mode="normal" in="SourceGraphic" in2="effect1_dropShadow_496_138491" result="shape"/>
		</filter>
		<clipPath id="clip0_496_138491">
			<rect width="57" height="63" fill="white" transform="translate(65 32.9102)"/>
		</clipPath>
	</defs>
</svg>
