<svg width="121" height="120" viewBox="0 0 121 120" fill="none" xmlns="http://www.w3.org/2000/svg">
	<path d="M99.1847 84.1559C99.1847 88.8722 95.6294 92.8299 90.9401 93.3338L17.0617 101.272C11.6048 101.858 6.84473 97.5824 6.84473 92.0941V22.3388C6.84473 16.9396 11.4585 12.693 16.8393 13.1397L90.7177 19.2737C95.5031 19.6711 99.1847 23.6709 99.1847 28.4728V84.1559Z" fill="#1BCE7B" fill-opacity="0.78"/>
	<path d="M98.6291 84.1559C98.6291 88.5883 95.2878 92.3079 90.8807 92.7814L17.0023 100.72C11.8739 101.271 7.40028 97.2521 7.40028 92.0941V22.3388C7.40028 17.2645 11.7364 13.2735 16.7933 13.6934L90.6718 19.8274C95.1692 20.2008 98.6291 23.96 98.6291 28.4728V84.1559Z" stroke="white" stroke-opacity="0.18" stroke-width="1.11111"/>
	<mask id="mask0_1257_68042" style="mask-type:alpha" maskUnits="userSpaceOnUse" x="6" y="13" width="94" height="88">
		<path d="M99.1955 83.7235C99.1955 88.4426 95.6361 92.4018 90.9436 92.9022L16.8639 100.803C11.4095 101.384 6.6543 97.1092 6.6543 91.6238V22.3329C6.6543 16.936 11.2644 12.6901 16.6432 13.1334L90.7229 19.2381C95.5107 19.6326 99.1955 23.6336 99.1955 28.4377V83.7235Z" fill="white"/>
	</mask>
	<g mask="url(#mask0_1257_68042)">
		<path d="M54.2981 -4.7742L98.2821 20.0559L59.8759 58.0569C59.2447 58.6815 58.2347 58.7015 57.5792 58.1024L7.70115 12.5117L54.2981 -4.7742Z" stroke="black" stroke-opacity="0.16" stroke-width="1.11111"/>
	</g>
	<path d="M115.883 89.5809C115.883 94.2682 112.37 98.2113 107.714 98.7504L89.6957 100.836C84.2137 101.471 79.4033 97.1856 79.4033 91.667V66.1622C79.4033 61.1304 83.4332 57.0256 88.4641 56.933L106.483 56.6012C111.646 56.5061 115.883 60.6659 115.883 65.8304V89.5809Z" fill="#FF9800" fill-opacity="0.78"/>
	<path d="M115.328 89.5809C115.328 93.9861 112.026 97.6919 107.65 98.1986L89.6318 100.285C84.4797 100.881 79.9589 96.8535 79.9589 91.667V66.1622C79.9589 61.4333 83.7462 57.5755 88.4744 57.4885L106.493 57.1567C111.346 57.0673 115.328 60.9767 115.328 65.8304V89.5809Z" stroke="black" stroke-opacity="0.16" stroke-width="1.11111"/>
	<g filter="url(#filter0_d_1257_68042)">
		<path fill-rule="evenodd" clip-rule="evenodd" d="M96.5039 80.3065C96.5039 81.6801 97.9173 82.7525 99.5735 82.6378V82.6356C101.058 82.5344 102.204 81.5047 102.204 80.275V66.7454C102.204 65.4234 100.889 64.369 99.2889 64.4073C97.7406 64.4455 96.5039 65.4976 96.5039 66.7769V80.3065ZM96.5039 89.1419C96.5039 90.6953 97.9663 91.9109 99.6471 91.7578V91.7556C101.1 91.6228 102.204 90.5017 102.204 89.1599V88.6984C102.204 87.1631 100.771 85.9519 99.1049 86.0802C97.6326 86.195 96.5039 87.3229 96.5039 88.6804V89.1419Z" fill="white" fill-opacity="0.9" shape-rendering="crispEdges"/>
	</g>
	<path fill-rule="evenodd" clip-rule="evenodd" d="M18.8617 53.0054C17.0215 52.9105 15.5 54.6952 15.5 56.9926V67.1123C15.5 69.4097 17.0215 71.2297 18.8617 71.1646L26.6217 70.9286C28.3094 70.8798 29.6508 69.095 29.6508 66.9414V57.4591C29.6508 55.3055 28.2984 53.4991 26.6217 53.4041L18.8617 53V53.0054ZM27.1676 56.6752L18.2714 56.3471V67.8067L27.1676 67.6765V56.6725V56.6752ZM20.3472 59.0024L25.2138 59.1299V65.2001L20.3472 65.2164V59.0024ZM25.211 80.3051L20.3444 80.6659V86.8798L25.211 86.3753V80.3051ZM18.8617 74.8181C17.0215 74.9076 15.5 76.8415 15.5 79.1388V89.2586C15.5 91.5559 17.0215 93.2159 18.8617 92.9772L26.6217 91.9655C28.3094 91.7512 29.6508 89.8282 29.6508 87.6746V78.1922C29.6508 76.0386 28.2984 74.3597 26.6217 74.4411L18.8617 74.8045V74.8181ZM27.1676 77.666L18.2714 78.2139V89.6736L27.1676 88.6564V77.666ZM36.5017 59.4147L40.6727 59.515V65.1567L36.5017 65.1649V59.4147ZM32.3529 57.554C32.3529 55.4357 33.6444 53.7757 35.2186 53.8544L41.8866 54.2016C43.336 54.2775 44.5 55.9619 44.5 57.9582V66.7597C44.5 68.756 43.336 70.4132 41.8866 70.4566L35.2186 70.6655C33.6416 70.7116 32.3529 69.0299 32.3529 66.9116V57.554ZM34.7114 56.96L42.3549 57.2394V67.4514L34.7114 67.587V56.9628V56.96ZM37.3415 73.9528L39.8496 73.8362V76.3506L42.1027 76.2204V73.725C43.4275 73.6653 44.4889 75.0947 44.4889 76.9283V83.2941L42.1027 83.5274V79.5728L39.8496 79.7518V83.7444L37.3415 83.9831V79.939L34.9775 80.1234V90.8968C33.5391 91.0813 32.3529 89.66 32.3529 87.7207V77.7122C32.3529 75.7728 33.528 74.1318 34.9775 74.0695V76.6516L37.3415 76.5051V73.9555V73.9528ZM37.3415 86.5326L39.8496 86.2587V90.2513L37.3415 90.5768V86.5326ZM44.4889 85.7434L42.1027 86.0092V89.9529C43.4275 89.7875 44.4889 88.1682 44.4889 86.3347V85.7434Z" fill="white" fill-opacity="0.9"/>
	<defs>
		<filter id="filter0_d_1257_68042" x="85.3928" y="57.7396" width="27.9224" height="49.5875" filterUnits="userSpaceOnUse" color-interpolation-filters="sRGB">
			<feFlood flood-opacity="0" result="BackgroundImageFix"/>
			<feColorMatrix in="SourceAlpha" type="matrix" values="0 0 0 0 0 0 0 0 0 0 0 0 0 0 0 0 0 0 127 0" result="hardAlpha"/>
			<feOffset dy="4.44444"/>
			<feGaussianBlur stdDeviation="5.55556"/>
			<feComposite in2="hardAlpha" operator="out"/>
			<feColorMatrix type="matrix" values="0 0 0 0 0 0 0 0 0 0 0 0 0 0 0 0 0 0 0.05 0"/>
			<feBlend mode="normal" in2="BackgroundImageFix" result="effect1_dropShadow_1257_68042"/>
			<feBlend mode="normal" in="SourceGraphic" in2="effect1_dropShadow_1257_68042" result="shape"/>
		</filter>
	</defs>
</svg>
