<svg width="32" height="32" viewBox="0 0 32 32" fill="none" xmlns="http://www.w3.org/2000/svg">
	<circle cx="16" cy="16" r="16" fill="#0075FF" fill-opacity="0.7"/>
	<path fill-rule="evenodd" clip-rule="evenodd"
		  d="M7.72266 9.72168C7.72266 9.44554 7.94651 9.22168 8.22266 9.22168H21.2388C21.515 9.22168 21.7388 9.44554 21.7388 9.72168V10.998C21.7388 11.2317 21.5785 11.428 21.3619 11.4828V11.4796H16.7282L16.7256 11.498H8.22266C7.94651 11.498 7.72266 11.2742 7.72266 10.998V9.72168ZM8.22266 13.873H16.3862L16.0609 16.1494H8.22266C7.94651 16.1494 7.72266 15.9256 7.72266 15.6494V14.373C7.72266 14.0969 7.94651 13.873 8.22266 13.873ZM8.22266 18.5254H15.3189L13.471 20.8018H8.22266C7.94651 20.8018 7.72266 20.5779 7.72266 20.3018V19.0254C7.72266 18.7492 7.94651 18.5254 8.22266 18.5254ZM25.5301 22.6029C25.5906 22.9107 25.427 23.2206 25.1322 23.3277C23.9053 23.7736 22.522 24.0378 21.055 24.0693H20.4615C18.9874 24.0376 17.5978 23.771 16.3665 23.3212C16.0843 23.2181 15.9194 22.9278 15.9675 22.6313C16.0133 22.3483 16.064 22.0769 16.1158 21.875C16.2929 21.1845 17.2892 20.6717 18.2059 20.2773C18.446 20.174 18.5909 20.0916 18.7373 20.0084C18.8803 19.9271 19.0247 19.8449 19.2607 19.7417C19.2875 19.6146 19.2982 19.4847 19.2927 19.355L19.6988 19.3068C19.6988 19.3068 19.7522 19.4038 19.6665 18.8334C19.6665 18.8334 19.2102 18.7151 19.1891 17.8068C19.1891 17.8068 18.846 17.9209 18.8253 17.3705C18.821 17.2609 18.7927 17.1554 18.7655 17.0544C18.7004 16.8121 18.6421 16.5952 18.939 16.4062L18.7248 15.8351C18.7248 15.8351 18.4995 13.6297 19.4869 13.8083C19.0863 13.1736 22.4649 12.646 22.6893 14.5894C22.7776 15.1752 22.7776 15.7706 22.6893 16.3564C22.6893 16.3564 23.1941 16.2984 22.8571 17.258C22.8571 17.258 22.6716 17.9488 22.3867 17.7937C22.3867 17.7937 22.4328 18.6665 21.9843 18.8144C21.9843 18.8144 22.0163 19.2793 22.0163 19.3108L22.3912 19.3668C22.3912 19.3668 22.3799 19.7544 22.4547 19.7964C22.7967 20.0173 23.1716 20.1848 23.566 20.2927C24.7301 20.5882 25.3213 21.0953 25.3213 21.5391L25.5301 22.6029Z"
		  fill="white"/>
</svg>
