<svg width="104" height="64" viewBox="0 0 104 64" fill="none" xmlns="http://www.w3.org/2000/svg">
	<g clip-path="url(#clip0_1_6)">
		<path d="M51.669 51.2143H49.1769L47.4132 54.2056H46.5054L46.4764 47.732H44.1172V59.4235H46.4764L46.5054 56.2146H47.4074L49.7493 59.4235H52.3629L49.3097 55.1711L51.669 51.2143Z" fill="black"/>
		<path d="M69.5248 55.065C69.0455 54.7657 68.5259 54.531 67.9808 54.3675L67.4603 54.1777L67.3216 54.1275C66.9979 54.0103 66.6567 53.8875 66.6451 53.5694C66.6422 53.4752 66.6636 53.3818 66.7083 53.2979C66.7527 53.2139 66.8186 53.1422 66.8995 53.0895C67.0704 52.9759 67.2706 52.9102 67.4777 52.8997C67.9294 52.8696 68.3774 52.9985 68.7383 53.2625L68.8018 53.3015L70.0624 51.9008L69.9988 51.8506C69.8419 51.7155 69.6716 51.5959 69.49 51.4934C69.1647 51.3139 68.8114 51.1875 68.4435 51.1195C67.9135 51.0107 67.3657 51.0107 66.836 51.1195C66.3236 51.1849 65.8377 51.3772 65.4251 51.6776C65.1611 51.8768 64.9406 52.1243 64.7758 52.4058C64.6113 52.6873 64.5057 52.9974 64.4651 53.3183C64.3929 53.8974 64.5452 54.4819 64.893 54.959C65.3549 55.4527 65.9589 55.8025 66.6277 55.9635L66.7318 55.997L66.9688 56.0751C67.8247 56.3542 68.0675 56.4658 68.2062 56.6332C68.2709 56.7174 68.3072 56.8187 68.3104 56.9234C68.3104 57.3196 67.8073 57.4815 67.4661 57.5819C67.2276 57.6252 66.9825 57.6207 66.7457 57.5689C66.509 57.5171 66.2859 57.419 66.0901 57.2806C65.773 57.076 65.5017 56.8122 65.292 56.5049C65.1591 56.6388 63.8521 57.8833 63.8753 57.9056L63.9159 57.9614C64.5455 58.7223 65.4277 59.2505 66.4138 59.457C66.639 59.4991 66.867 59.5271 67.0962 59.5408H67.3332C68.1122 59.5565 68.8752 59.3273 69.5074 58.8878C69.935 58.5959 70.2628 58.188 70.45 57.7159C70.5637 57.3989 70.6037 57.0617 70.5678 56.7281C70.5318 56.3945 70.4207 56.0725 70.2417 55.785C70.0589 55.4982 69.8143 55.2526 69.5248 55.065Z" fill="black"/>
		<path d="M77.1463 55.065C76.669 54.7656 76.1517 54.5309 75.6083 54.3674L75.0821 54.1776L74.9492 54.1274C74.6196 54.0102 74.2842 53.8874 74.2668 53.5693C74.2683 53.4753 74.2927 53.3829 74.3379 53.2996C74.3832 53.2162 74.4479 53.1443 74.5271 53.0894C74.6979 52.9757 74.8981 52.9101 75.1053 52.8997C75.557 52.8706 76.0044 52.9993 76.3658 53.2624L76.4236 53.3015L77.6841 51.9007L77.6264 51.8505C77.4683 51.7142 77.296 51.5944 77.1117 51.4933C76.7885 51.314 76.4369 51.1877 76.0708 51.1194C75.539 51.0105 74.9895 51.0105 74.4577 51.1194C73.946 51.1868 73.4603 51.3789 73.0466 51.6775C72.7811 51.8748 72.5586 52.1209 72.3918 52.4015C72.2253 52.6821 72.1176 52.9918 72.0753 53.3126C71.9996 53.892 72.1522 54.4776 72.5032 54.9534C72.9651 55.4471 73.5691 55.7968 74.2378 55.9579L74.3362 55.9914L74.5732 56.0695C75.4348 56.3485 75.6777 56.4602 75.8164 56.6276C75.8831 56.7104 75.9179 56.813 75.9147 56.9178C75.9147 57.314 75.4174 57.4758 75.0763 57.5763C74.8369 57.6196 74.5906 57.6153 74.353 57.5635C74.1154 57.5116 73.8911 57.4134 73.6944 57.2749C73.3799 57.0674 73.1093 56.8041 72.8963 56.4992C72.7692 56.6331 71.4623 57.8776 71.4797 57.9L71.5258 57.9558C72.1556 58.7166 73.0379 59.2448 74.024 59.4514C74.2491 59.4938 74.4772 59.5218 74.7064 59.5351H74.9434C75.7224 59.5508 76.4854 59.3217 77.1175 58.8822C77.5452 58.5903 77.873 58.1824 78.0601 57.7102C78.1736 57.3933 78.2139 57.0561 78.1779 56.7225C78.1419 56.3888 78.0308 56.0669 77.8518 55.7793C77.6714 55.496 77.4309 55.2526 77.1463 55.065Z" fill="black"/>
		<path d="M59.4172 51.2144V52.018H59.3134C58.6676 51.3939 57.7926 51.041 56.879 51.0358C56.3188 51.0251 55.7623 51.1284 55.2465 51.339C54.7304 51.5496 54.2659 51.8627 53.8835 52.258C53.1124 53.0914 52.699 54.1768 52.7271 55.2938C52.6972 56.4296 53.1098 57.5348 53.8835 58.3911C54.2569 58.7867 54.7138 59.1 55.2239 59.31C55.7336 59.5199 56.2842 59.6214 56.8384 59.6077C57.7534 59.5911 58.6333 59.2653 59.3247 58.6869H59.4172V59.4068H61.869V51.2144H59.4172ZM59.5388 55.3385C59.5635 55.9987 59.3348 56.6445 58.8968 57.1522C58.687 57.3791 58.4279 57.5586 58.1381 57.6782C57.8486 57.7978 57.535 57.8545 57.2202 57.8442C56.9147 57.8492 56.6118 57.7875 56.3344 57.6638C56.0571 57.5401 55.8122 57.3576 55.6184 57.1299C55.1856 56.6116 54.9636 55.9588 54.9938 55.2938C54.9741 54.6489 55.2004 54.0194 55.6297 53.5248C55.8276 53.3005 56.0742 53.1211 56.3521 52.9996C56.6301 52.878 56.9324 52.8172 57.2373 52.8216C57.5503 52.8122 57.8613 52.8699 58.1483 52.9905C58.4352 53.1111 58.6911 53.2917 58.8968 53.5192C59.3348 54.0292 59.5632 54.6766 59.5388 55.3385Z" fill="black"/>
		<path d="M86.0852 51.2143V52.018H85.9811C85.3367 51.3953 84.4643 51.0424 83.5525 51.0358C82.9917 51.0257 82.4346 51.1293 81.9177 51.3398C81.401 51.5503 80.9353 51.8631 80.5515 52.2579C79.7804 53.0914 79.3669 54.1768 79.3951 55.2938C79.3652 56.4296 79.7777 57.5348 80.5515 58.3911C80.9249 58.7866 81.3818 59.1 81.8915 59.3099C82.4016 59.5198 82.9522 59.6214 83.5063 59.6077C84.4214 59.5911 85.301 59.2653 85.9927 58.6869H86.0852V59.4068H88.537V51.2143H86.0852ZM86.2068 55.3385C86.234 55.9991 86.0051 56.6458 85.5647 57.1522C85.355 57.3791 85.0959 57.5586 84.8061 57.6782C84.5162 57.7978 84.2029 57.8545 83.8879 57.8442C83.5824 57.8492 83.2798 57.7875 83.0024 57.6638C82.7251 57.5401 82.4802 57.3576 82.2861 57.1299C81.8535 56.6116 81.6313 55.9588 81.6618 55.2938C81.642 54.6489 81.8683 54.0194 82.2977 53.5248C82.4956 53.3005 82.7422 53.1211 83.0201 52.9995C83.298 52.878 83.6003 52.8172 83.9053 52.8216C84.2183 52.8122 84.5293 52.8699 84.8162 52.9905C85.1032 53.1111 85.3588 53.2917 85.5647 53.5192C86.0051 54.0278 86.2338 54.6762 86.2068 55.3385Z" fill="black"/>
		<path d="M28.0123 46.36C22.9223 46.36 18.8735 50.3234 18.8735 55.18C18.8735 60.0924 22.9802 64 28.0123 64C33.0444 64 37.151 60.0366 37.151 55.18C37.151 50.3234 33.0444 46.36 28.0123 46.36ZM28.0123 58.4177C26.1614 58.4177 24.5997 56.9105 24.5997 55.1242C24.5997 53.3378 26.1614 51.8306 28.0123 51.8306C29.8632 51.8306 31.4248 53.3378 31.4248 55.1242C31.367 56.9663 29.8632 58.4177 28.0123 58.4177Z" fill="url(#paint0_linear_1_6)"/>
		<path d="M18.8156 48.872V61.7113H15.5766L11.4121 48.872H18.8156Z" fill="url(#paint1_linear_1_6)"/>
	</g>
	<path d="M51.778 17.5643C51.0604 17.2824 50.1218 17.198 49.1004 17.198H43.4134V15.3943H53.1859V12.2941H39.4106V25.7094H48.7415C50.039 25.7094 51.0049 25.5967 51.7229 25.3146C53.2412 24.7228 54.2626 23.2855 54.2626 21.3973C54.2626 19.4809 53.2964 18.1562 51.778 17.5643ZM49.7904 22.2146C49.5697 22.2992 49.266 22.3272 48.8794 22.3272H43.4134V20.1853H48.8794C49.3212 20.1853 49.6799 20.2137 49.9561 20.3545C50.2873 20.5236 50.453 20.8336 50.453 21.228C50.453 21.6227 50.2598 22.0455 49.7904 22.2146Z" fill="#333333"/>
	<path d="M65.486 12.2941H59.6336L54.2505 25.7094H58.7779L59.5232 23.7647H65.5963L66.3694 25.7094H70.8692L65.486 12.2941ZM60.5169 20.8053L62.4219 15.3943H62.7255L64.6302 20.8053H60.5169Z" fill="#333333"/>
	<path d="M76.0212 20.7211V25.7095H72.0186V12.2941H76.0212V17.1981H82.4534V12.2941H86.4563V25.7095H82.4534V20.7211H76.0212Z" fill="#333333"/>
	<path d="M92.792 20.6366V25.7095H88.7891V12.2941H92.792V17.3391H93.8961L98.7272 12.2941H103.751L97.3467 18.7199L104 25.7095H98.6718L93.8961 20.6366H92.792Z" fill="#333333"/>
	<path d="M0 4.47058H31.7474V19.6537C31.7474 23.8325 29.5638 27.6941 26.0193 29.7836L15.8738 35.7647L5.72817 29.7836C2.18353 27.6941 3.63865e-06 23.8325 3.63865e-06 19.6537L0 4.47058Z" fill="#FFDD2D"/>
	<path fill-rule="evenodd" clip-rule="evenodd" d="M8.75781 12.2941V17.3321C9.43261 16.5542 10.6595 16.0277 12.0624 16.0277H13.5868V21.8843C13.5868 23.4424 13.1721 24.9681 12.5569 25.7183H19.188C18.5741 24.9674 18.1604 23.4436 18.1604 21.8873V16.0277H19.6849C21.0877 16.0277 22.3146 16.5542 22.9894 17.3321V12.2941H8.75781Z" fill="#333333"/>
	<defs>
		<linearGradient id="paint0_linear_1_6" x1="28.0123" y1="46.36" x2="28.0123" y2="64" gradientUnits="userSpaceOnUse">
			<stop stop-color="#0160D1"/>
			<stop offset="1" stop-color="#00479C"/>
		</linearGradient>
		<linearGradient id="paint1_linear_1_6" x1="15.1139" y1="48.872" x2="15.1139" y2="61.7113" gradientUnits="userSpaceOnUse">
			<stop stop-color="#0160D1"/>
			<stop offset="1" stop-color="#00479C"/>
		</linearGradient>
		<clipPath id="clip0_1_6">
			<rect width="77.1715" height="17.64" fill="white" transform="translate(11.4121 46.36)"/>
		</clipPath>
	</defs>
</svg>
