<svg width="32" height="32" viewBox="0 0 32 32" fill="none" xmlns="http://www.w3.org/2000/svg">
<circle cx="16" cy="16" r="15.5" stroke="#0075FF" stroke-opacity="0.7"/>
<path d="M20.0148 13.4758C19.5555 12.7452 23.4445 12.1384 23.7032 14.3752C23.8049 15.0498 23.8049 15.7359 23.7032 16.4104C23.7216 16.4086 24.2772 16.3617 23.8956 17.4485C23.8956 17.4485 23.6825 18.2436 23.3546 18.0657C23.3554 18.0816 23.4031 19.0715 22.8907 19.2405C22.8907 19.2405 22.9279 19.7765 22.9279 19.8127L23.3595 19.8772C23.3592 19.8883 23.3477 20.3235 23.4327 20.3713C23.8266 20.6257 24.258 20.8193 24.712 20.9436C26.0522 21.2838 26.7332 21.8671 26.7335 22.3782L26.9738 23.6038C27.0432 23.9581 26.8551 24.3144 26.5157 24.4377C25.103 24.9512 23.5097 25.256 21.8204 25.2922H21.1378C19.4404 25.2558 17.8398 24.9488 16.422 24.4309C16.0971 24.3122 15.9067 23.9775 15.962 23.636C16.0148 23.3101 16.0733 22.9973 16.1329 22.7649C16.3371 21.9699 17.4846 21.3791 18.5402 20.925C18.8163 20.8062 18.983 20.7113 19.1515 20.6155C19.3162 20.5218 19.4833 20.4277 19.755 20.3088C19.7858 20.1625 19.7975 20.0129 19.7911 19.8635L20.2589 19.8079C20.2589 19.8079 20.3205 19.9197 20.2218 19.2629C20.2119 19.2603 19.6961 19.1162 19.672 18.0803C19.6656 18.0824 19.2767 18.2068 19.2531 17.5784C19.2481 17.4521 19.216 17.3304 19.1847 17.2141C19.1097 16.9352 19.0424 16.6856 19.3839 16.468L19.1378 15.8098C19.1344 15.7759 18.886 13.2724 20.0148 13.4758ZM13.088 21.5295H6.96887C6.69279 21.5295 6.46897 21.3056 6.46887 21.0295V19.4084C6.46887 19.1323 6.69273 18.9084 6.96887 18.9084H15.2159L13.088 21.5295ZM16.0704 16.1721H6.96887C6.69273 16.1721 6.46888 15.9483 6.46887 15.6721V14.051C6.46887 13.7749 6.69273 13.551 6.96887 13.551H16.4445L16.0704 16.1721ZM22.1085 8.19458C22.3845 8.1947 22.6084 8.41858 22.6085 8.69458V10.3157C22.6085 10.5694 22.4189 10.7765 22.174 10.8088V10.7952H16.838L16.8351 10.8157H6.96887C6.69273 10.8157 6.46887 10.5918 6.46887 10.3157V8.69458C6.46895 8.41851 6.69278 8.19458 6.96887 8.19458H22.1085Z" fill="#0075FF" fill-opacity="0.7"/>
</svg>
