<svg width="28" height="28" viewBox="0 0 28 28" fill="none" xmlns="http://www.w3.org/2000/svg">
<g clip-path="url(#clip0_5061_6075)">
<path opacity="0.52" d="M0.500488 6C0.500488 2.96243 2.96292 0.5 6.00049 0.5H22.0005C25.0381 0.5 27.5005 2.96243 27.5005 6V22C27.5005 25.0376 25.0381 27.5 22.0005 27.5H6.00049C2.96292 27.5 0.500488 25.0376 0.500488 22V6Z" stroke="#0075FF"/>
</g>
<path fill-rule="evenodd" clip-rule="evenodd" d="M14.0005 19.55C13.6967 19.55 13.4505 19.3037 13.4505 19V14.5501H9.00068C8.69693 14.5501 8.45068 14.3039 8.45068 14.0001C8.45068 13.6964 8.69693 13.4501 9.00068 13.4501H13.4505V8.99995C13.4505 8.69619 13.6967 8.44995 14.0005 8.44995C14.3043 8.44995 14.5505 8.69619 14.5505 8.99995V13.4501H19.0007C19.3044 13.4501 19.5507 13.6964 19.5507 14.0001C19.5507 14.3039 19.3044 14.5501 19.0007 14.5501H14.5505V19C14.5505 19.3037 14.3043 19.55 14.0005 19.55Z" fill="#0075FF"/>
<defs>
<clipPath id="clip0_5061_6075">
<path d="M0.000488281 6C0.000488281 2.68629 2.68678 0 6.00049 0H22.0005C25.3142 0 28.0005 2.68629 28.0005 6V22C28.0005 25.3137 25.3142 28 22.0005 28H6.00049C2.68678 28 0.000488281 25.3137 0.000488281 22V6Z" fill="white"/>
</clipPath>
</defs>
</svg>
