<svg width="16" height="16" viewBox="0 0 16 16" fill="none" xmlns="http://www.w3.org/2000/svg">
<g id="Icon">
<path id="Union" fill-rule="evenodd" clip-rule="evenodd" d="M12.9329 7.80005C12.9329 10.635 10.6347 12.9331 7.7998 12.9331C4.96489 12.9331 2.66675 10.635 2.66675 7.80005C2.66675 4.96514 4.96489 2.66699 7.7998 2.66699C10.6347 2.66699 12.9329 4.96514 12.9329 7.80005ZM11.7134 7.80005C11.7134 9.96148 9.96123 11.7137 7.7998 11.7137C5.63837 11.7137 3.88619 9.96148 3.88619 7.80005C3.88619 5.63862 5.63837 3.88644 7.7998 3.88644C9.96123 3.88644 11.7134 5.63862 11.7134 7.80005ZM8.52346 5.6087C8.52346 6.05832 8.15898 6.4228 7.70936 6.4228C7.25974 6.4228 6.89526 6.05832 6.89526 5.6087C6.89526 5.15908 7.25974 4.7946 7.70936 4.7946C8.15898 4.7946 8.52346 5.15908 8.52346 5.6087ZM7.11807 7.11502H8.51117V10.0068H8.89659V10.5856H8.51117V10.586H6.96986V10.5856H6.53931V10.0068H6.96986V7.6665H6.53931V7.11502H6.96986H7.11807Z" fill="#808080" fill-opacity="0.5"/>
</g>
</svg>
