<svg width="330" height="163" viewBox="0 0 330 163" fill="none" xmlns="http://www.w3.org/2000/svg">
<path d="M110.117 41.2661C110.117 29.3548 120.116 19.8849 132.011 20.5312L203.21 24.4004C214.225 24.999 222.849 34.1047 222.849 45.1352V116.202C222.849 127.067 214.474 136.096 203.638 136.909L132.439 142.257C120.391 143.162 110.117 133.632 110.117 121.55V41.2661Z" fill="#D7EFFF" fill-opacity="0.8"/>
<path d="M131.436 21.208L131.973 21.2305L203.172 25.0996C213.815 25.678 222.149 34.4763 222.149 45.1348V116.202C222.149 126.537 214.307 135.152 204.075 136.169L203.586 136.212L132.387 141.56C120.745 142.434 110.818 133.225 110.817 121.551V41.2656C110.818 29.9359 120.18 20.8919 131.436 21.208Z" stroke="white" stroke-opacity="0.24" stroke-width="1.4"/>
<g opacity="0.9" filter="url(#filter0_d_6347_253093)">
<path fill-rule="evenodd" clip-rule="evenodd" d="M160.946 53.9016C160.946 58.6545 157.037 62.4777 152.285 62.3725C147.68 62.2705 144 58.508 144 53.9016V52.3993C144 47.5566 148.052 43.6989 152.889 43.9364C157.401 44.158 160.946 47.8813 160.946 52.3993V53.9016Z" fill="white"/>
</g>
<g opacity="0.9" filter="url(#filter1_d_6347_253093)">
<path fill-rule="evenodd" clip-rule="evenodd" d="M193.91 47.4616C193.91 48.655 192.914 49.6065 191.721 49.5509L169.368 48.5094C168.212 48.4556 167.303 47.5029 167.303 46.3458C167.303 45.1044 168.344 44.117 169.584 44.183L191.93 45.3729C193.04 45.432 193.91 46.3496 193.91 47.4616Z" fill="white"/>
</g>
<g opacity="0.9" filter="url(#filter2_d_6347_253093)">
<path fill-rule="evenodd" clip-rule="evenodd" d="M182.018 56.0124C182.018 57.2162 181.022 58.1812 179.818 58.143L168.998 57.799C167.827 57.7618 166.896 56.8013 166.896 55.6293C166.896 54.3972 167.921 53.4121 169.152 53.4601L179.969 53.8824C181.113 53.9271 182.018 54.8675 182.018 56.0124Z" fill="white"/>
</g>
<g opacity="0.76">
<g opacity="0.9" filter="url(#filter3_d_6347_253093)">
<path fill-rule="evenodd" clip-rule="evenodd" d="M160.946 81.474C160.946 86.0935 157.246 89.8617 152.627 89.9456C147.888 90.0317 144 86.2138 144 81.474V79.5863C144 74.8775 147.839 71.072 152.548 71.1136C157.198 71.1547 160.946 74.936 160.946 79.5863V81.474Z" fill="white"/>
</g>
<g opacity="0.9" filter="url(#filter4_d_6347_253093)">
<path fill-rule="evenodd" clip-rule="evenodd" d="M193.529 74.3716C193.529 75.5308 192.588 76.4695 191.429 76.4662L169.063 76.4024C167.865 76.399 166.896 75.4274 166.896 74.23C166.896 73.0219 167.882 72.0458 169.09 72.0577L191.455 72.2772C192.604 72.2885 193.529 73.2229 193.529 74.3716Z" fill="white"/>
</g>
<g opacity="0.9" filter="url(#filter5_d_6347_253093)">
<path fill-rule="evenodd" clip-rule="evenodd" d="M182.018 83.4271C182.018 84.5973 181.076 85.5497 179.906 85.5634L169.095 85.6901C167.885 85.7042 166.896 84.7274 166.896 83.5175C166.896 82.3218 167.863 81.3508 169.058 81.3448L179.87 81.2906C181.055 81.2846 182.018 82.2429 182.018 83.4271Z" fill="white"/>
</g>
</g>
<g opacity="0.6">
<g opacity="0.9" filter="url(#filter6_d_6347_253093)">
<path fill-rule="evenodd" clip-rule="evenodd" d="M160.946 110.785C160.946 115.276 157.442 118.987 152.958 119.244C148.096 119.523 144 115.655 144 110.785V109.433C144 104.856 147.635 101.106 152.21 100.965C156.99 100.816 160.946 104.651 160.946 109.433V110.785Z" fill="white"/>
</g>
<g opacity="0.9" filter="url(#filter7_d_6347_253093)">
<path fill-rule="evenodd" clip-rule="evenodd" d="M193.529 101.362C193.529 102.487 192.642 103.412 191.518 103.458L169.156 104.371C167.923 104.421 166.896 103.435 166.896 102.202C166.896 101.031 167.824 100.071 168.994 100.031L191.361 99.2665C192.546 99.226 193.529 100.176 193.529 101.362Z" fill="white"/>
</g>
<g opacity="0.9" filter="url(#filter8_d_6347_253093)">
<path fill-rule="evenodd" clip-rule="evenodd" d="M182.018 110.92C182.018 112.053 181.133 112.988 180.002 113.051L169.186 113.648C167.942 113.716 166.896 112.727 166.896 111.481C166.896 110.324 167.805 109.37 168.961 109.314L179.781 108.789C180.998 108.73 182.018 109.701 182.018 110.92Z" fill="white"/>
</g>
</g>
<path d="M76 93.4613C76 85.2817 82.6021 78.641 90.7693 78.6058L114.502 78.5033C122.719 78.4678 129.399 85.1293 129.399 93.3589V120.178C129.399 127.968 123.392 134.435 115.635 134.996L91.9015 136.712C83.311 137.333 76 130.521 76 121.895V93.4613Z" fill="#1BCE7B" fill-opacity="0.78"/>
<path d="M114.505 79.0032C122.444 78.9691 128.899 85.4055 128.899 93.3586V120.178C128.899 127.588 123.274 133.759 115.948 134.467L115.599 134.497L91.8652 136.213C83.5652 136.813 76.5 130.231 76.5 121.895V93.4612C76.5001 85.6799 82.6824 79.3404 90.4023 79.1116L90.7715 79.1057L114.505 79.0032Z" stroke="white" stroke-opacity="0.18"/>
<g opacity="0.77" filter="url(#filter9_d_6347_253093)">
<path d="M209.5 43.3243C209.5 36.5539 215.139 31.1514 221.892 31.4514L242.659 32.3738C249.002 32.6556 254 37.8878 254 44.2467V68.978C254 75.4643 248.807 80.7526 242.331 80.8609L221.565 81.2085C214.934 81.3194 209.5 75.9669 209.5 69.3256V43.3243Z" fill="#1F86FF"/>
</g>
<g filter="url(#filter10_d_6347_253093)">
<path fill-rule="evenodd" clip-rule="evenodd" d="M232.275 71.4923C239.368 71.2905 245 64.3373 245 55.9584C245 47.5794 239.368 40.6588 232.275 40.5026C225.012 40.3463 219 47.3027 219 56.043C219 64.7833 225.012 71.7006 232.271 71.4956L232.275 71.4923ZM225.245 57.6088C224.868 57.2116 224.896 56.5053 225.301 56.1472L226.09 55.4473C226.347 55.2194 226.692 55.1967 226.97 55.3855L229.792 57.3158C230.095 57.5241 230.475 57.4688 230.729 57.1823L237.325 49.7637C237.491 49.5781 237.72 49.487 237.945 49.5228L238.942 49.6725C239.555 49.7637 239.837 50.6426 239.432 51.2025L231.204 62.6186C230.915 63.019 230.408 63.0645 230.08 62.7162L225.241 57.612L225.245 57.6088Z" fill="white" fill-opacity="0.9" shape-rendering="crispEdges"/>
</g>
<g filter="url(#filter11_d_6347_253093)">
<path fill-rule="evenodd" clip-rule="evenodd" d="M111.041 91.3279C111.424 90.8677 112.043 90.8965 112.423 91.3854L116.722 96.9583C117.095 97.4401 117.091 98.1987 116.719 98.6553L98.8508 120.497L92.8492 113.156L111.041 91.3279ZM90.0207 123.05C89.9644 123.313 90.0242 123.589 90.1826 123.784C90.3444 123.974 90.573 124.046 90.7912 123.97L97.5351 121.695L91.8536 114.845L90.0207 123.05Z" fill="white" fill-opacity="0.9" shape-rendering="crispEdges"/>
</g>
<defs>
<filter id="filter0_d_6347_253093" x="134" y="37.9263" width="36.9453" height="38.4482" filterUnits="userSpaceOnUse" color-interpolation-filters="sRGB">
<feFlood flood-opacity="0" result="BackgroundImageFix"/>
<feColorMatrix in="SourceAlpha" type="matrix" values="0 0 0 0 0 0 0 0 0 0 0 0 0 0 0 0 0 0 127 0" result="hardAlpha"/>
<feOffset dy="4"/>
<feGaussianBlur stdDeviation="5"/>
<feComposite in2="hardAlpha" operator="out"/>
<feColorMatrix type="matrix" values="0 0 0 0 0 0 0 0 0 0 0 0 0 0 0 0 0 0 0.05 0"/>
<feBlend mode="normal" in2="BackgroundImageFix" result="effect1_dropShadow_6347_253093"/>
<feBlend mode="normal" in="SourceGraphic" in2="effect1_dropShadow_6347_253093" result="shape"/>
</filter>
<filter id="filter1_d_6347_253093" x="157.303" y="38.1797" width="46.6074" height="25.3735" filterUnits="userSpaceOnUse" color-interpolation-filters="sRGB">
<feFlood flood-opacity="0" result="BackgroundImageFix"/>
<feColorMatrix in="SourceAlpha" type="matrix" values="0 0 0 0 0 0 0 0 0 0 0 0 0 0 0 0 0 0 127 0" result="hardAlpha"/>
<feOffset dy="4"/>
<feGaussianBlur stdDeviation="5"/>
<feComposite in2="hardAlpha" operator="out"/>
<feColorMatrix type="matrix" values="0 0 0 0 0 0 0 0 0 0 0 0 0 0 0 0 0 0 0.05 0"/>
<feBlend mode="normal" in2="BackgroundImageFix" result="effect1_dropShadow_6347_253093"/>
<feBlend mode="normal" in="SourceGraphic" in2="effect1_dropShadow_6347_253093" result="shape"/>
</filter>
<filter id="filter2_d_6347_253093" x="156.896" y="47.4585" width="35.1211" height="24.6855" filterUnits="userSpaceOnUse" color-interpolation-filters="sRGB">
<feFlood flood-opacity="0" result="BackgroundImageFix"/>
<feColorMatrix in="SourceAlpha" type="matrix" values="0 0 0 0 0 0 0 0 0 0 0 0 0 0 0 0 0 0 127 0" result="hardAlpha"/>
<feOffset dy="4"/>
<feGaussianBlur stdDeviation="5"/>
<feComposite in2="hardAlpha" operator="out"/>
<feColorMatrix type="matrix" values="0 0 0 0 0 0 0 0 0 0 0 0 0 0 0 0 0 0 0.05 0"/>
<feBlend mode="normal" in2="BackgroundImageFix" result="effect1_dropShadow_6347_253093"/>
<feBlend mode="normal" in="SourceGraphic" in2="effect1_dropShadow_6347_253093" result="shape"/>
</filter>
<filter id="filter3_d_6347_253093" x="134" y="65.1133" width="36.9453" height="38.8337" filterUnits="userSpaceOnUse" color-interpolation-filters="sRGB">
<feFlood flood-opacity="0" result="BackgroundImageFix"/>
<feColorMatrix in="SourceAlpha" type="matrix" values="0 0 0 0 0 0 0 0 0 0 0 0 0 0 0 0 0 0 127 0" result="hardAlpha"/>
<feOffset dy="4"/>
<feGaussianBlur stdDeviation="5"/>
<feComposite in2="hardAlpha" operator="out"/>
<feColorMatrix type="matrix" values="0 0 0 0 0 0 0 0 0 0 0 0 0 0 0 0 0 0 0.05 0"/>
<feBlend mode="normal" in2="BackgroundImageFix" result="effect1_dropShadow_6347_253093"/>
<feBlend mode="normal" in="SourceGraphic" in2="effect1_dropShadow_6347_253093" result="shape"/>
</filter>
<filter id="filter4_d_6347_253093" x="156.896" y="66.0576" width="46.6328" height="24.4084" filterUnits="userSpaceOnUse" color-interpolation-filters="sRGB">
<feFlood flood-opacity="0" result="BackgroundImageFix"/>
<feColorMatrix in="SourceAlpha" type="matrix" values="0 0 0 0 0 0 0 0 0 0 0 0 0 0 0 0 0 0 127 0" result="hardAlpha"/>
<feOffset dy="4"/>
<feGaussianBlur stdDeviation="5"/>
<feComposite in2="hardAlpha" operator="out"/>
<feColorMatrix type="matrix" values="0 0 0 0 0 0 0 0 0 0 0 0 0 0 0 0 0 0 0.05 0"/>
<feBlend mode="normal" in2="BackgroundImageFix" result="effect1_dropShadow_6347_253093"/>
<feBlend mode="normal" in="SourceGraphic" in2="effect1_dropShadow_6347_253093" result="shape"/>
</filter>
<filter id="filter5_d_6347_253093" x="156.896" y="75.2905" width="35.1211" height="24.3997" filterUnits="userSpaceOnUse" color-interpolation-filters="sRGB">
<feFlood flood-opacity="0" result="BackgroundImageFix"/>
<feColorMatrix in="SourceAlpha" type="matrix" values="0 0 0 0 0 0 0 0 0 0 0 0 0 0 0 0 0 0 127 0" result="hardAlpha"/>
<feOffset dy="4"/>
<feGaussianBlur stdDeviation="5"/>
<feComposite in2="hardAlpha" operator="out"/>
<feColorMatrix type="matrix" values="0 0 0 0 0 0 0 0 0 0 0 0 0 0 0 0 0 0 0.05 0"/>
<feBlend mode="normal" in2="BackgroundImageFix" result="effect1_dropShadow_6347_253093"/>
<feBlend mode="normal" in="SourceGraphic" in2="effect1_dropShadow_6347_253093" result="shape"/>
</filter>
<filter id="filter6_d_6347_253093" x="134" y="94.9604" width="36.9453" height="38.2981" filterUnits="userSpaceOnUse" color-interpolation-filters="sRGB">
<feFlood flood-opacity="0" result="BackgroundImageFix"/>
<feColorMatrix in="SourceAlpha" type="matrix" values="0 0 0 0 0 0 0 0 0 0 0 0 0 0 0 0 0 0 127 0" result="hardAlpha"/>
<feOffset dy="4"/>
<feGaussianBlur stdDeviation="5"/>
<feComposite in2="hardAlpha" operator="out"/>
<feColorMatrix type="matrix" values="0 0 0 0 0 0 0 0 0 0 0 0 0 0 0 0 0 0 0.05 0"/>
<feBlend mode="normal" in2="BackgroundImageFix" result="effect1_dropShadow_6347_253093"/>
<feBlend mode="normal" in="SourceGraphic" in2="effect1_dropShadow_6347_253093" result="shape"/>
</filter>
<filter id="filter7_d_6347_253093" x="156.896" y="93.2654" width="46.6328" height="25.1074" filterUnits="userSpaceOnUse" color-interpolation-filters="sRGB">
<feFlood flood-opacity="0" result="BackgroundImageFix"/>
<feColorMatrix in="SourceAlpha" type="matrix" values="0 0 0 0 0 0 0 0 0 0 0 0 0 0 0 0 0 0 127 0" result="hardAlpha"/>
<feOffset dy="4"/>
<feGaussianBlur stdDeviation="5"/>
<feComposite in2="hardAlpha" operator="out"/>
<feColorMatrix type="matrix" values="0 0 0 0 0 0 0 0 0 0 0 0 0 0 0 0 0 0 0.05 0"/>
<feBlend mode="normal" in2="BackgroundImageFix" result="effect1_dropShadow_6347_253093"/>
<feBlend mode="normal" in="SourceGraphic" in2="effect1_dropShadow_6347_253093" result="shape"/>
</filter>
<filter id="filter8_d_6347_253093" x="156.896" y="102.786" width="35.1211" height="24.8647" filterUnits="userSpaceOnUse" color-interpolation-filters="sRGB">
<feFlood flood-opacity="0" result="BackgroundImageFix"/>
<feColorMatrix in="SourceAlpha" type="matrix" values="0 0 0 0 0 0 0 0 0 0 0 0 0 0 0 0 0 0 127 0" result="hardAlpha"/>
<feOffset dy="4"/>
<feGaussianBlur stdDeviation="5"/>
<feComposite in2="hardAlpha" operator="out"/>
<feColorMatrix type="matrix" values="0 0 0 0 0 0 0 0 0 0 0 0 0 0 0 0 0 0 0.05 0"/>
<feBlend mode="normal" in2="BackgroundImageFix" result="effect1_dropShadow_6347_253093"/>
<feBlend mode="normal" in="SourceGraphic" in2="effect1_dropShadow_6347_253093" result="shape"/>
</filter>
<filter id="filter9_d_6347_253093" x="195.5" y="21.4395" width="72.5" height="77.7708" filterUnits="userSpaceOnUse" color-interpolation-filters="sRGB">
<feFlood flood-opacity="0" result="BackgroundImageFix"/>
<feColorMatrix in="SourceAlpha" type="matrix" values="0 0 0 0 0 0 0 0 0 0 0 0 0 0 0 0 0 0 127 0" result="hardAlpha"/>
<feOffset dy="4"/>
<feGaussianBlur stdDeviation="7"/>
<feComposite in2="hardAlpha" operator="out"/>
<feColorMatrix type="matrix" values="0 0 0 0 0.114518 0 0 0 0 0.523572 0 0 0 0 1 0 0 0 0.3 0"/>
<feBlend mode="normal" in2="BackgroundImageFix" result="effect1_dropShadow_6347_253093"/>
<feBlend mode="normal" in="SourceGraphic" in2="effect1_dropShadow_6347_253093" result="shape"/>
</filter>
<filter id="filter10_d_6347_253093" x="209" y="34.5" width="46" height="51" filterUnits="userSpaceOnUse" color-interpolation-filters="sRGB">
<feFlood flood-opacity="0" result="BackgroundImageFix"/>
<feColorMatrix in="SourceAlpha" type="matrix" values="0 0 0 0 0 0 0 0 0 0 0 0 0 0 0 0 0 0 127 0" result="hardAlpha"/>
<feOffset dy="4"/>
<feGaussianBlur stdDeviation="5"/>
<feComposite in2="hardAlpha" operator="out"/>
<feColorMatrix type="matrix" values="0 0 0 0 0 0 0 0 0 0 0 0 0 0 0 0 0 0 0.05 0"/>
<feBlend mode="normal" in2="BackgroundImageFix" result="effect1_dropShadow_6347_253093"/>
<feBlend mode="normal" in="SourceGraphic" in2="effect1_dropShadow_6347_253093" result="shape"/>
</filter>
<filter id="filter11_d_6347_253093" x="80" y="85" width="47" height="53" filterUnits="userSpaceOnUse" color-interpolation-filters="sRGB">
<feFlood flood-opacity="0" result="BackgroundImageFix"/>
<feColorMatrix in="SourceAlpha" type="matrix" values="0 0 0 0 0 0 0 0 0 0 0 0 0 0 0 0 0 0 127 0" result="hardAlpha"/>
<feOffset dy="4"/>
<feGaussianBlur stdDeviation="5"/>
<feComposite in2="hardAlpha" operator="out"/>
<feColorMatrix type="matrix" values="0 0 0 0 0 0 0 0 0 0 0 0 0 0 0 0 0 0 0.05 0"/>
<feBlend mode="normal" in2="BackgroundImageFix" result="effect1_dropShadow_6347_253093"/>
<feBlend mode="normal" in="SourceGraphic" in2="effect1_dropShadow_6347_253093" result="shape"/>
</filter>
</defs>
</svg>
