<svg width="121" height="120" viewBox="0 0 121 120" fill="none" xmlns="http://www.w3.org/2000/svg">
	<path d="M10.5 25.9835C10.5 19.6089 15.496 14.7002 21.5839 15.0143L70.0656 17.509C75.4026 17.7842 79.6746 22.7558 79.6746 28.6158V78.4962C79.6746 84.3562 75.3996 89.2739 70.0656 89.4773L21.5839 91.3409C15.499 91.5742 10.5 86.5997 10.5 80.2252L10.5 25.9835Z" fill="#0A3163" fill-opacity="0.8"/>
	<path d="M21.5452 15.7633L21.5453 15.7633L70.027 18.258C70.027 18.258 70.0271 18.258 70.0271 18.258C74.9017 18.5095 78.9246 23.088 78.9246 28.6158V78.4962C78.9246 84.0221 74.9027 88.5423 70.037 88.7279L70.0368 88.7279L21.5551 90.5915C15.9231 90.8074 11.25 86.2024 11.25 80.2252V25.9835C11.25 20.0098 15.9141 15.4728 21.5452 15.7633Z" stroke="#1587FA" stroke-opacity="0.16" stroke-width="1.5"/>
	<path fill-rule="evenodd" clip-rule="evenodd" d="M56.1353 48.7534C56.1353 48.5837 56.1515 48.4172 56.187 48.2539C56.4163 47.1557 57.3433 46.5121 58.2541 46.8131L66.0833 49.3906C66.8197 49.634 67.3365 50.4537 67.3365 51.3823V70.0177L69.5878 69.9953C69.8558 69.9953 70.0722 70.2483 70.0722 70.5685V76.1175C70.0722 76.4377 69.8558 76.7002 69.5878 76.7066L23.646 77.6928C23.3359 77.6992 23.084 77.4239 23.084 77.0813V71.1C23.084 70.7542 23.3359 70.4724 23.646 70.4692L26.2331 70.4436V35.5966C26.2331 33.8323 27.3474 32.3818 28.8558 32.1737L49.9113 29.2599C50.0664 29.2374 50.2214 29.231 50.3764 29.2407C51.9785 29.3303 53.2672 30.9441 53.2672 32.8493V70.1618L56.1321 70.133V48.7502L56.1353 48.7534ZM39.4724 69.9601V59.1342L34.0333 59.0958V70.0145L39.4724 69.9601ZM47.5858 59.1951L42.2856 59.1566V65.3172L47.5858 65.3044V59.1951ZM64.0937 59.0158L59.0713 58.9773V64.9714L64.0937 64.9618V59.0158ZM47.5858 40.566L42.2856 40.3707V46.5313L47.5858 46.6754V40.566ZM39.4691 40.265L34.03 40.0633V46.3039L39.4691 46.4512V40.265ZM47.5858 49.8805L42.2856 49.7621V55.9227L47.5858 55.9867V49.8805ZM39.4724 49.7012L34.0333 49.5796V55.8202L39.4724 55.8874V49.7012Z" fill="white" fill-opacity="0.9"/>
	<path fill-rule="evenodd" clip-rule="evenodd" d="M56.1353 48.7534C56.1353 48.5837 56.1515 48.4172 56.187 48.2539C56.4163 47.1557 57.3433 46.5121 58.2541 46.8131L66.0833 49.3906C66.8197 49.634 67.3365 50.4537 67.3365 51.3823V70.0177L69.5878 69.9953C69.8558 69.9953 70.0722 70.2483 70.0722 70.5685V76.1175C70.0722 76.4377 69.8558 76.7002 69.5878 76.7066L23.646 77.6928C23.3359 77.6992 23.084 77.4239 23.084 77.0813V71.1C23.084 70.7542 23.3359 70.4724 23.646 70.4692L26.2331 70.4436V35.5966C26.2331 33.8323 27.3474 32.3818 28.8558 32.1737L49.9113 29.2599C50.0664 29.2374 50.2214 29.231 50.3764 29.2407C51.9785 29.3303 53.2672 30.9441 53.2672 32.8493V70.1618L56.1321 70.133V48.7502L56.1353 48.7534ZM39.4724 69.9601V59.1342L34.0333 59.0958V70.0145L39.4724 69.9601ZM47.5858 59.1951L42.2856 59.1566V65.3172L47.5858 65.3044V59.1951ZM64.0937 59.0158L59.0713 58.9773V64.9714L64.0937 64.9618V59.0158ZM47.5858 40.566L42.2856 40.3707V46.5313L47.5858 46.6754V40.566ZM39.4691 40.265L34.03 40.0633V46.3039L39.4691 46.4512V40.265ZM47.5858 49.8805L42.2856 49.7621V55.9227L47.5858 55.9867V49.8805ZM39.4724 49.7012L34.0333 49.5796V55.8202L39.4724 55.8874V49.7012Z" fill="#064795"/>
	<path d="M69.0039 69.0609C69.0039 63.1351 73.3268 58.331 78.595 58.334L99.8054 58.343C104.73 58.343 108.675 62.9137 108.675 68.5464V93.0244C108.675 98.6571 104.73 103.455 99.8054 103.742L78.595 104.984C73.3268 105.292 69.0039 100.742 69.0039 94.8132V69.0579V69.0609Z" fill="#FF9800" fill-opacity="0.78"/>
	<path d="M78.5945 59.084H78.5946L99.805 59.093H99.8054C104.219 59.093 107.925 63.2242 107.925 68.5464V93.0244C107.925 98.3535 104.202 102.735 99.7617 102.994L99.7615 102.994L78.5512 104.235C73.7948 104.513 69.7539 100.396 69.7539 94.8132V69.0609C69.7539 63.4693 73.8165 59.0813 78.5945 59.084Z" stroke="black" stroke-opacity="0.16" stroke-width="1.5"/>
	<path fill-rule="evenodd" clip-rule="evenodd" d="M87.0312 70.4304V84.3251C87.0312 85.9494 88.6706 86.8528 89.6788 86.8169C90.687 86.781 92.2845 85.7251 92.2845 84.1217V70.3227C92.2845 68.9467 91.0818 67.7322 89.6249 67.7502C88.168 67.7681 87.0342 69.0933 87.0342 70.4334L87.0312 70.4304ZM89.6668 96.0601C91.1925 95.9883 92.4251 94.5285 92.4251 92.7996C92.4251 91.0706 91.1925 89.7185 89.6668 89.7813C88.1411 89.8441 86.8906 91.3039 86.8906 93.0448C86.8906 94.7858 88.1351 96.1349 89.6668 96.0631V96.0601Z" fill="#242A2F"/>
</svg>
