<svg width="12" height="12" viewBox="0 0 12 12" fill="none" xmlns="http://www.w3.org/2000/svg">
	<path fill-rule="evenodd" clip-rule="evenodd" d="M8.3781 0.996315C8.94781 0.427851 9.87034 0.42838 10.4394 0.997494L11.3012 1.85939C11.8698 2.42801 11.8708 3.34955 11.3035 3.91942L4.67174 10.581C4.49078 10.7628 4.26257 10.8904 4.01292 10.9492L1.35612 11.5758C0.888568 11.6861 0.476584 11.2497 0.613616 10.7892L1.38002 8.21423C1.44536 7.99467 1.56453 7.79492 1.72668 7.63312L8.3781 0.996315ZM9.67334 1.76349C9.52701 1.61715 9.28979 1.61701 9.14329 1.76319L8.33431 2.57039L9.7292 3.96528L10.5357 3.15511C10.6816 3.00857 10.6814 2.7716 10.5352 2.62539L9.67334 1.76349ZM2.8127 8.07987L7.56743 3.33558L8.96489 4.73304L4.22605 9.49322L2.8127 8.07987ZM2.25909 9.05832L1.87769 10.3398L3.22321 10.0224L2.25909 9.05832Z" fill="#525C69"/>
</svg>
