<svg width="12" height="12" viewBox="0 0 8 8" fill="none" xmlns="http://www.w3.org/2000/svg">
	<path d="M1.04968 0.283651C0.838149 0.0721165 0.495184 0.0721165 0.28365 0.283651C0.0721165 0.495185 0.0721165 0.838149 0.28365 1.04968L3.23397 4L0.28365 6.95032C0.0721165 7.16185 0.0721165 7.50482 0.28365 7.71635C0.495184 7.92788 0.838149 7.92788 1.04968 7.71635L4 4.76603L6.94998 7.71602C7.16152 7.92756 7.50448 7.92756 7.71602 7.71602C7.92755 7.50449 7.92755 7.16152 7.71602 6.94999L4.76603 4L7.71607 1.04996C7.92761 0.838422 7.92761 0.495457 7.71607 0.283923C7.50454 0.0723892 7.16157 0.0723896 6.95004 0.283924L4 3.23397L1.04968 0.283651Z" fill="#525C69"/>
</svg>
