<svg width="104" height="53" viewBox="0 0 104 53" fill="none" xmlns="http://www.w3.org/2000/svg">
	<path d="M51.778 17.5643C51.0604 17.2824 50.1218 17.198 49.1004 17.198H43.4134V15.3943H53.1859V12.2941H39.4106V25.7094H48.7415C50.039 25.7094 51.0049 25.5967 51.7229 25.3146C53.2412 24.7228 54.2626 23.2855 54.2626 21.3973C54.2626 19.4809 53.2964 18.1562 51.778 17.5643ZM49.7904 22.2146C49.5697 22.2992 49.266 22.3272 48.8794 22.3272H43.4134V20.1853H48.8794C49.3212 20.1853 49.6799 20.2137 49.9561 20.3545C50.2873 20.5236 50.453 20.8336 50.453 21.228C50.453 21.6227 50.2598 22.0455 49.7904 22.2146Z" fill="#333333"/>
	<path d="M65.486 12.2941H59.6336L54.2505 25.7094H58.7779L59.5232 23.7647H65.5963L66.3694 25.7094H70.8692L65.486 12.2941ZM60.5169 20.8053L62.4219 15.3943H62.7255L64.6302 20.8053H60.5169Z" fill="#333333"/>
	<path d="M76.0212 20.7211V25.7095H72.0186V12.2941H76.0212V17.1981H82.4534V12.2941H86.4563V25.7095H82.4534V20.7211H76.0212Z" fill="#333333"/>
	<path d="M92.792 20.6366V25.7095H88.7891V12.2941H92.792V17.3391H93.8961L98.7272 12.2941H103.751L97.3467 18.7199L104 25.7095H98.6718L93.8961 20.6366H92.792Z" fill="#333333"/>
	<path d="M0 4.47058H31.7474V19.6537C31.7474 23.8325 29.5638 27.6941 26.0193 29.7836L15.8738 35.7647L5.72817 29.7836C2.18353 27.6941 3.63865e-06 23.8325 3.63865e-06 19.6537L0 4.47058Z" fill="white"/>
	<path fill-rule="evenodd" clip-rule="evenodd" d="M8.75781 12.2941V17.3321C9.43261 16.5542 10.6595 16.0277 12.0624 16.0277H13.5868V21.8843C13.5868 23.4424 13.1721 24.9681 12.5569 25.7183H19.188C18.5741 24.9674 18.1604 23.4436 18.1604 21.8873V16.0277H19.6849C21.0877 16.0277 22.3146 16.5542 22.9894 17.3321V12.2941H8.75781Z" fill="#333333"/>
	<path opacity="0.7" d="M18.6359 50.4V45.1H15.8959L15.8459 46.34C15.8259 46.8067 15.7959 47.25 15.7559 47.67C15.7225 48.0833 15.6659 48.46 15.5859 48.8C15.5125 49.14 15.4092 49.4233 15.2759 49.65C15.1425 49.8767 14.9792 50.0267 14.7859 50.1L13.3859 49.9C13.6392 49.9133 13.8459 49.8267 14.0059 49.64C14.1725 49.4533 14.3025 49.1933 14.3959 48.86C14.4892 48.5267 14.5592 48.1367 14.6059 47.69C14.6525 47.2367 14.6859 46.7467 14.7059 46.22L14.7859 44H19.9159V50.4H18.6359ZM13.1459 52.49L13.1559 49.9H20.9259V52.49H19.7259V51H14.3559V52.49H13.1459ZM22.0199 51.1C21.9066 51.1 21.7933 51.09 21.6799 51.07C21.5666 51.05 21.4433 51.0267 21.3099 51L21.3999 49.87C21.4933 49.8967 21.5933 49.91 21.6999 49.91C21.9799 49.91 22.2033 49.7967 22.3699 49.57C22.5366 49.3367 22.6566 48.9967 22.7299 48.55C22.8033 48.1033 22.8533 47.5533 22.8799 46.9L22.9799 44H28.1299V51H26.8499V44.78L27.1499 45.1H23.8199L24.0999 44.77L24.0299 46.85C24.0099 47.5433 23.9633 48.1533 23.8899 48.68C23.8166 49.2067 23.7033 49.65 23.5499 50.01C23.4033 50.3633 23.2066 50.6333 22.9599 50.82C22.7133 51.0067 22.3999 51.1 22.0199 51.1ZM34.1691 51V48.76L34.4891 49.05H32.4391C31.8525 49.05 31.3458 48.9533 30.9191 48.76C30.4991 48.56 30.1758 48.2767 29.9491 47.91C29.7225 47.5367 29.6091 47.09 29.6091 46.57C29.6091 46.03 29.7291 45.57 29.9691 45.19C30.2091 44.8033 30.5491 44.51 30.9891 44.31C31.4291 44.1033 31.9458 44 32.5391 44H35.4491V51H34.1691ZM29.6291 51L31.3591 48.5H32.6691L30.9991 51H29.6291ZM34.1691 48.34V44.74L34.4891 45.1H32.5791C32.0458 45.1 31.6358 45.2233 31.3491 45.47C31.0691 45.71 30.9291 46.07 30.9291 46.55C30.9291 47.01 31.0625 47.3667 31.3291 47.62C31.6025 47.8667 32.0025 47.99 32.5291 47.99H34.4891L34.1691 48.34ZM40.197 51V44H45.647V45.07H41.477V46.79H43.547C44.387 46.79 45.0237 46.9667 45.457 47.32C45.897 47.6667 46.117 48.1733 46.117 48.84C46.117 49.5267 45.8737 50.06 45.387 50.44C44.907 50.8133 44.227 51 43.347 51H40.197ZM41.477 50H43.277C43.777 50 44.157 49.9033 44.417 49.71C44.677 49.5167 44.807 49.2367 44.807 48.87C44.807 48.15 44.297 47.79 43.277 47.79H41.477V50ZM47.5505 51V44H48.8305V48.97L52.5905 44H53.8005V51H52.5205V46.04L48.7605 51H47.5505ZM55.0732 50.31L55.4932 49.36C55.7932 49.5667 56.1199 49.7267 56.4732 49.84C56.8332 49.9467 57.1899 50.0033 57.5432 50.01C57.8965 50.0167 58.2165 49.9767 58.5032 49.89C58.7965 49.8033 59.0299 49.6733 59.2032 49.5C59.3765 49.3267 59.4632 49.11 59.4632 48.85C59.4632 48.5367 59.3332 48.3033 59.0732 48.15C58.8199 47.99 58.4732 47.91 58.0332 47.91H56.4032V46.89H57.9332C58.3265 46.89 58.6299 46.81 58.8432 46.65C59.0632 46.49 59.1732 46.2733 59.1732 46C59.1732 45.7733 59.0999 45.5867 58.9532 45.44C58.8132 45.2933 58.6199 45.1833 58.3732 45.11C58.1332 45.0367 57.8599 45.0033 57.5532 45.01C57.2532 45.01 56.9399 45.0567 56.6132 45.15C56.2865 45.2367 55.9765 45.3667 55.6832 45.54L55.2732 44.49C55.7132 44.2567 56.1732 44.0933 56.6532 44C57.1399 43.9067 57.6099 43.88 58.0632 43.92C58.5165 43.96 58.9232 44.0633 59.2832 44.23C59.6499 44.3967 59.9432 44.6167 60.1632 44.89C60.3832 45.1567 60.4932 45.4733 60.4932 45.84C60.4932 46.1733 60.4032 46.47 60.2232 46.73C60.0499 46.9833 59.8099 47.18 59.5032 47.32C59.1965 47.46 58.8399 47.53 58.4332 47.53L58.4832 47.21C58.9432 47.21 59.3432 47.29 59.6832 47.45C60.0299 47.6033 60.2965 47.8167 60.4832 48.09C60.6765 48.3633 60.7732 48.68 60.7732 49.04C60.7732 49.38 60.6865 49.6833 60.5132 49.95C60.3399 50.21 60.1032 50.43 59.8032 50.61C59.5032 50.7833 59.1599 50.9133 58.7732 51C58.3865 51.08 57.9799 51.11 57.5532 51.09C57.1265 51.07 56.6999 50.9967 56.2732 50.87C55.8532 50.7433 55.4532 50.5567 55.0732 50.31ZM67.1773 44H68.4773V51H67.1773V44ZM63.5573 51H62.2573V44H63.5573V51ZM67.2773 48H63.4473V46.89H67.2773V48ZM71.6409 46.91H75.1209V47.98H71.6409V46.91ZM71.7409 49.91H75.6909V51H70.4409V44H75.5509V45.09H71.7409V49.91ZM80.3602 51.1C79.8268 51.1 79.3302 51.0133 78.8702 50.84C78.4168 50.66 78.0202 50.41 77.6802 50.09C77.3468 49.7633 77.0868 49.38 76.9002 48.94C76.7135 48.5 76.6202 48.02 76.6202 47.5C76.6202 46.98 76.7135 46.5 76.9002 46.06C77.0868 45.62 77.3502 45.24 77.6902 44.92C78.0302 44.5933 78.4268 44.3433 78.8802 44.17C79.3335 43.99 79.8302 43.9 80.3702 43.9C80.9435 43.9 81.4668 44 81.9402 44.2C82.4135 44.3933 82.8135 44.6833 83.1402 45.07L82.3002 45.86C82.0468 45.5867 81.7635 45.3833 81.4502 45.25C81.1368 45.11 80.7968 45.04 80.4302 45.04C80.0635 45.04 79.7268 45.1 79.4202 45.22C79.1202 45.34 78.8568 45.51 78.6302 45.73C78.4102 45.95 78.2368 46.21 78.1102 46.51C77.9902 46.81 77.9302 47.14 77.9302 47.5C77.9302 47.86 77.9902 48.19 78.1102 48.49C78.2368 48.79 78.4102 49.05 78.6302 49.27C78.8568 49.49 79.1202 49.66 79.4202 49.78C79.7268 49.9 80.0635 49.96 80.4302 49.96C80.7968 49.96 81.1368 49.8933 81.4502 49.76C81.7635 49.62 82.0468 49.41 82.3002 49.13L83.1402 49.93C82.8135 50.31 82.4135 50.6 81.9402 50.8C81.4668 51 80.9402 51.1 80.3602 51.1ZM83.3107 51L86.4607 44H87.7407L90.9007 51H89.5407L86.8307 44.69H87.3507L84.6507 51H83.3107ZM84.7607 49.38L85.1107 48.36H88.8907L89.2407 49.38H84.7607Z" fill="#333333"/>
</svg>