<svg width="26" height="26" viewBox="0 0 26 26" fill="none" xmlns="http://www.w3.org/2000/svg">
<circle opacity="0.2" cx="13" cy="13" r="13" fill="#559BE6"/>
<path d="M14.4336 9.47214C15.0812 8.251 16.5893 7.79859 17.8021 8.46165C17.8779 8.50309 17.9065 8.59856 17.8661 8.67488L13.2162 17.4434C12.8722 18.0921 12.071 18.3324 11.4267 17.9802C10.7824 17.6279 10.539 16.8165 10.883 16.1678L14.4336 9.47214Z" fill="#559BE6"/>
<path d="M10.0344 9.47214C10.682 8.251 12.1901 7.79859 13.4029 8.46165C13.4787 8.50309 13.5073 8.59856 13.4668 8.67488L8.81697 17.4434C8.47295 18.0921 7.67177 18.3324 7.02748 17.9802C6.38319 17.6279 6.13976 16.8165 6.48378 16.1678L10.0344 9.47214Z" fill="#559BE6"/>
<path fill-rule="evenodd" clip-rule="evenodd" d="M15.9059 14.7621C15.8914 14.7894 15.8838 14.8199 15.8838 14.8509L15.8839 16.8268C15.8839 17.5842 16.4889 18.1984 17.2348 18.1984C17.9799 18.1984 18.5837 17.5854 18.5836 16.8288L18.5833 10.4557C18.5833 10.2612 18.3274 10.1957 18.2365 10.367L15.9059 14.7621Z" fill="#559BE6"/>
</svg>
