<svg width="26" height="26" viewBox="0 0 26 26" fill="none" xmlns="http://www.w3.org/2000/svg">
<circle cx="13" cy="13" r="13" fill="#EDEEF0"/>
<path fill-rule="evenodd" clip-rule="evenodd" d="M13.9836 5.39304C13.9836 5.13794 13.6657 4.93115 13.2737 4.93115C12.8816 4.93115 12.5637 5.13794 12.5637 5.39304V6.54774C12.5637 6.80283 12.8816 7.00963 13.2737 7.00963C13.6657 7.00963 13.9836 6.80283 13.9836 6.54774V5.39304ZM18.199 12.7102C18.199 13.967 17.2751 15.1125 16.4927 15.9758C16.2144 16.2829 16.1988 16.5977 16.1845 16.8854C16.1531 17.5176 16.1282 18.0187 13.3342 18.0187C10.5269 18.0187 10.4886 17.5128 10.4404 16.8762C10.4188 16.5911 10.3952 16.2797 10.1199 15.9758C9.33753 15.1125 8.46946 13.967 8.46946 12.7102C8.46946 10.0234 10.6475 7.84539 13.3342 7.84539C16.021 7.84539 18.199 10.0234 18.199 12.7102ZM11.2075 19.4048C11.2075 18.8984 11.6179 18.488 12.1243 18.488H14.3931C14.8995 18.488 15.3099 18.8984 15.3099 19.4048C15.3099 19.9111 14.8995 20.3216 14.3931 20.3216H12.1243C11.6179 20.3216 11.2075 19.9111 11.2075 19.4048ZM18.3347 6.38627C18.6336 6.64007 18.7411 7.00448 18.5749 7.2002L17.8225 8.08615C17.6563 8.28187 17.2793 8.23479 16.9804 7.98099C16.6816 7.7272 16.5741 7.36279 16.7403 7.16707L17.4927 6.28112C17.6589 6.0854 18.0359 6.13248 18.3347 6.38627ZM7.7839 7.20695C7.62971 7.00347 7.75803 6.64655 8.07052 6.40975C8.38301 6.17295 8.76133 6.14594 8.91553 6.34943L9.61353 7.27054C9.76773 7.47403 9.63941 7.83095 9.32692 8.06775C9.01443 8.30455 8.6361 8.33155 8.4819 8.12807L7.7839 7.20695ZM5.70311 10.8621C5.59532 11.2391 5.70737 11.6017 5.95337 11.672L7.06695 11.9905C7.31296 12.0608 7.59977 11.8122 7.70756 11.4353C7.81535 11.0583 7.7033 10.6957 7.4573 10.6253L6.34372 10.3069C6.09771 10.2366 5.81091 10.4851 5.70311 10.8621ZM20.7085 11.4176C20.9544 11.3473 21.0664 10.9847 20.9586 10.6077C20.8508 10.2308 20.5641 9.98217 20.3182 10.0525L19.205 10.3708C18.9591 10.4411 18.8472 10.8037 18.9549 11.1807C19.0627 11.5576 19.3495 11.8062 19.5954 11.7359L20.7085 11.4176Z" fill="#828B95"/>
</svg>
