<svg width="26" height="27" viewBox="0 0 26 27" fill="none" xmlns="http://www.w3.org/2000/svg">
<rect y="0.5" width="26" height="26" rx="13" fill="#EDEEF0"/>
<path fill-rule="evenodd" clip-rule="evenodd" d="M12.7557 18.5319C11.7081 18.6272 10.7348 18.261 9.90979 17.5709C9.08604 16.8819 8.55548 15.9918 8.46653 14.9489C7.9635 14.8517 7.13985 14.6781 6.13452 14.4133C6.97614 12.2499 8.58192 11.6723 9.58748 11.5309C9.74819 11.3016 9.9273 11.0691 10.1256 10.8335C12.527 7.98086 17.9489 6.69134 18.6058 7.24074C19.2627 7.79013 18.9301 13.3365 16.5287 16.1891C16.3328 16.4219 16.1364 16.6359 15.9401 16.8316C15.978 17.8418 15.6922 19.5277 13.6924 20.7347C13.2541 19.7894 12.9388 19.0082 12.7557 18.5319ZM13.7506 15.6596C13.1436 16.3806 12.0652 16.4746 11.3418 15.8696C10.6185 15.2646 10.5242 14.1896 11.1311 13.4685C11.7381 12.7475 12.8165 12.6534 13.5399 13.2585C14.2632 13.8635 14.3576 14.9385 13.7506 15.6596ZM14.2733 12.3876C14.6618 12.7124 15.2408 12.6619 15.5667 12.2748C15.8926 11.8876 15.8419 11.3104 15.4536 10.9856C15.0651 10.6607 14.4861 10.7112 14.1602 11.0984C13.8343 11.4855 13.8849 12.0627 14.2733 12.3876ZM9.35732 18.1414C9.80383 18.4992 10.2939 18.7656 10.8158 18.9194C9.12136 19.9113 7.70408 20.4543 7.48162 20.2759C7.25916 20.0977 7.57295 18.6707 8.30167 16.9051C8.55095 17.369 8.91082 17.7837 9.35732 18.1414Z" fill="#828B95"/>
</svg>
