<svg width="24" height="24" viewBox="0 0 24 24" fill="none" xmlns="http://www.w3.org/2000/svg">
<path d="M8.55195 3.71973C8.99378 3.71973 9.35195 4.0779 9.35195 4.51973V5.01465H14.6318V4.51973C14.6318 4.0779 14.99 3.71973 15.4318 3.71973C15.8737 3.71973 16.2318 4.0779 16.2318 4.51973V5.01465H17.3101C18.8012 5.01465 20.0101 6.22348 20.0101 7.71465V11.0046C20.0101 11.336 19.7414 11.6046 19.4101 11.6046C19.0787 11.6046 18.8101 11.336 18.8101 11.0046V7.71465C18.8101 6.88622 18.1385 6.21465 17.3101 6.21465H16.2318V6.94941C16.2318 7.39124 15.8737 7.74941 15.4318 7.74941C14.99 7.74941 14.6318 7.39124 14.6318 6.94941V6.21465H9.35195V6.94941C9.35195 7.39124 8.99378 7.74941 8.55195 7.74941C8.11013 7.74941 7.75195 7.39124 7.75195 6.94941V6.21465H6.69365C5.86523 6.21465 5.19365 6.88622 5.19365 7.71465V16.2988C5.19365 17.1273 5.86523 17.7988 6.69365 17.7988H12.0019C12.3332 17.7988 12.6019 18.0675 12.6019 18.3988C12.6019 18.7302 12.3332 18.9988 12.0019 18.9988H6.69365C5.20248 18.9988 3.99365 17.79 3.99365 16.2988V7.71465C3.99365 6.22348 5.20248 5.01465 6.69365 5.01465H7.75195V4.51973C7.75195 4.0779 8.11013 3.71973 8.55195 3.71973Z" fill="#333333"/>
<path fill-rule="evenodd" clip-rule="evenodd" d="M7.17822 10.1232C7.17822 9.68141 7.53639 9.32324 7.97822 9.32324H8.78633C9.22816 9.32324 9.58633 9.68141 9.58633 10.1232V10.9694C9.58633 11.4112 9.22816 11.7694 8.78633 11.7694H7.97822C7.5364 11.7694 7.17822 11.4112 7.17822 10.9694V10.1232Z" fill="#333333"/>
<path fill-rule="evenodd" clip-rule="evenodd" d="M10.8501 10.1232C10.8501 9.68141 11.2083 9.32324 11.6501 9.32324H12.4582C12.9 9.32324 13.2582 9.68141 13.2582 10.1232V10.9694C13.2582 11.4112 12.9 11.7694 12.4582 11.7694H11.6501C11.2083 11.7694 10.8501 11.4112 10.8501 10.9694V10.1232Z" fill="#333333"/>
<path fill-rule="evenodd" clip-rule="evenodd" d="M7.97822 13.1396C7.53639 13.1396 7.17822 13.4978 7.17822 13.9396V14.7858C7.17822 15.2276 7.5364 15.5858 7.97822 15.5858H8.78633C9.22816 15.5858 9.58633 15.2276 9.58633 14.7858V13.9396C9.58633 13.4978 9.22816 13.1396 8.78633 13.1396H7.97822Z" fill="#333333"/>
<path d="M17.4998 13.0424C17.4998 12.711 17.2312 12.4424 16.8998 12.4424C16.5684 12.4424 16.2998 12.711 16.2998 13.0424V14.9424H14.3998C14.0684 14.9424 13.7998 15.211 13.7998 15.5424C13.7998 15.8738 14.0684 16.1424 14.3998 16.1424H16.2998V18.0424C16.2998 18.3738 16.5684 18.6424 16.8998 18.6424C17.2312 18.6424 17.4998 18.3738 17.4998 18.0424V16.1424H19.3998C19.7312 16.1424 19.9998 15.8738 19.9998 15.5424C19.9998 15.211 19.7312 14.9424 19.3998 14.9424H17.4998V13.0424Z" fill="#333333"/>
</svg>
