<svg width="24" height="24" viewBox="0 0 24 24" fill="none" xmlns="http://www.w3.org/2000/svg">
<path fill-rule="evenodd" clip-rule="evenodd" d="M9.91298 4.06249C7.11972 6.1187 8.04674 11.9376 11.9919 11.9376C16.7284 11.9376 17.1373 3.39941 11.992 3.39941C11.2683 3.39941 10.3768 3.72106 9.91298 4.06249ZM11.2326 4.74196C10.9428 4.83806 10.7268 4.95351 10.6244 5.02889C9.71858 5.69567 9.29094 7.11665 9.59763 8.51385C9.89466 9.86699 10.7584 10.7376 11.9919 10.7376C12.7709 10.7376 13.348 10.4036 13.7673 9.86575C14.2082 9.30013 14.4775 8.4931 14.498 7.63979C14.5184 6.78542 14.2874 6.00186 13.875 5.46178C13.4907 4.95859 12.9042 4.59941 11.992 4.59941C11.7919 4.59941 11.5186 4.64716 11.2326 4.74196Z" fill="#333333"/>
<path d="M6.13226 18.2998C6.24375 17.2699 6.65197 16.234 7.49198 15.4436C8.36766 14.6196 9.77918 13.9998 12.0001 13.9998C12.3314 13.9998 12.6001 13.7312 12.6001 13.3998C12.6001 13.0684 12.3314 12.7998 12.0001 12.7998C9.55017 12.7998 7.81806 13.489 6.66963 14.5696C5.52605 15.6457 5.02755 17.0477 4.92209 18.3521C4.86896 19.0092 5.40698 19.4998 6.00005 19.4998H12.3253C12.6566 19.4998 12.9253 19.2312 12.9253 18.8998C12.9253 18.5684 12.6566 18.2998 12.3253 18.2998H6.13226Z" fill="#333333"/>
<path d="M15.3588 13.0791C15.0274 13.0791 14.7588 13.3477 14.7588 13.6791C14.7588 14.0105 15.0274 14.2791 15.3588 14.2791H20.1405C20.4719 14.2791 20.7405 14.0105 20.7405 13.6791C20.7405 13.3477 20.4719 13.0791 20.1405 13.0791H15.3588Z" fill="#333333"/>
<path d="M14.7588 16.2973C14.7588 15.9659 15.0274 15.6973 15.3588 15.6973H20.1405C20.4719 15.6973 20.7405 15.9659 20.7405 16.2973C20.7405 16.6286 20.4719 16.8973 20.1405 16.8973H15.3588C15.0274 16.8973 14.7588 16.6286 14.7588 16.2973Z" fill="#333333"/>
<path d="M15.3588 18.3154C15.0274 18.3154 14.7588 18.5841 14.7588 18.9154C14.7588 19.2468 15.0274 19.5154 15.3588 19.5154H18.7592C19.0906 19.5154 19.3592 19.2468 19.3592 18.9154C19.3592 18.5841 19.0906 18.3154 18.7592 18.3154H15.3588Z" fill="#333333"/>
</svg>
