<svg width="24" height="24" viewBox="0 0 24 24" fill="none" xmlns="http://www.w3.org/2000/svg">
<path d="M13.0622 9.29277C13.0622 9.03831 12.9241 8.80388 12.7015 8.68052C12.479 8.55717 12.207 8.56431 11.9912 8.69917L9.9912 9.94917C9.66337 10.1541 9.56371 10.5859 9.7686 10.9138C9.9735 11.2416 10.4054 11.3413 10.7332 11.1364L11.6622 10.5557V14.2928C11.6622 14.6794 11.9756 14.9928 12.3622 14.9928C12.7488 14.9928 13.0622 14.6794 13.0622 14.2928V9.29277Z" fill="#828B95"/>
<path fill-rule="evenodd" clip-rule="evenodd" d="M12 20C16.4183 20 20 16.4183 20 12C20 7.58173 16.4183 4 12 4C7.58173 4 4 7.58173 4 12C4 16.4183 7.58173 20 12 20ZM18.6 12C18.6 15.6451 15.6451 18.6 12 18.6C8.35493 18.6 5.4 15.6451 5.4 12C5.4 8.35493 8.35493 5.4 12 5.4C15.6451 5.4 18.6 8.35493 18.6 12Z" fill="#828B95"/>
</svg>
