<svg width="24" height="24" viewBox="0 0 24 24" fill="none" xmlns="http://www.w3.org/2000/svg">
<path d="M8.08721 10.1283C8.08721 9.79695 7.81858 9.52832 7.48721 9.52832C7.15584 9.52832 6.88721 9.79695 6.88721 10.1283L6.88721 13.8724C6.88721 14.2038 7.15584 14.4724 7.48721 14.4724C7.81858 14.4724 8.08721 14.2038 8.08721 13.8724V10.1283Z" fill="#333333"/>
<path fill-rule="evenodd" clip-rule="evenodd" d="M4.00195 9.22305C4.00195 7.86922 5.09923 6.77148 6.45309 6.77148H17.5599C18.9138 6.77148 20.011 7.86922 20.011 9.22305V10.3389H20.3615C20.6929 10.3389 20.9615 10.6075 20.9615 10.9389V13.0625C20.9615 13.3939 20.6929 13.6625 20.3615 13.6625H20.011V14.7777C20.011 16.1316 18.9138 17.2293 17.5599 17.2293H6.45309C5.09923 17.2293 4.00195 16.1316 4.00195 14.7777V9.22305ZM6.45309 7.97148C5.76224 7.97148 5.20195 8.5317 5.20195 9.22305V14.7777C5.20195 15.4691 5.76224 16.0293 6.45309 16.0293H17.5599C18.2508 16.0293 18.811 15.4691 18.811 14.7777V9.22305C18.811 8.5317 18.2508 7.97148 17.5599 7.97148H6.45309Z" fill="#333333"/>
</svg>
