<svg width="24" height="24" viewBox="0 0 24 24" fill="none" xmlns="http://www.w3.org/2000/svg">
<path d="M7.48721 9.52832C7.81858 9.52832 8.08721 9.79695 8.08721 10.1283V13.8724C8.08721 14.2038 7.81858 14.4724 7.48721 14.4724C7.15584 14.4724 6.88721 14.2038 6.88721 13.8724L6.88721 10.1283C6.88721 9.79695 7.15584 9.52832 7.48721 9.52832Z" fill="#333333"/>
<path d="M11.1106 10.1283C11.1106 9.79695 10.842 9.52832 10.5106 9.52832C10.1793 9.52832 9.91064 9.79695 9.91064 10.1283V13.8724C9.91064 14.2038 10.1793 14.4724 10.5106 14.4724C10.842 14.4724 11.1106 14.2038 11.1106 13.8724V10.1283Z" fill="#333333"/>
<path fill-rule="evenodd" clip-rule="evenodd" d="M6.45309 6.77148C5.09923 6.77148 4.00195 7.86922 4.00195 9.22305V14.7777C4.00195 16.1316 5.09923 17.2293 6.45309 17.2293H17.5599C18.9138 17.2293 20.011 16.1316 20.011 14.7777V13.6625H20.3615C20.6929 13.6625 20.9615 13.3939 20.9615 13.0625V10.9389C20.9615 10.6075 20.6929 10.3389 20.3615 10.3389H20.011V9.22305C20.011 7.86922 18.9138 6.77148 17.5599 6.77148H6.45309ZM5.20195 9.22305C5.20195 8.5317 5.76224 7.97148 6.45309 7.97148H17.5599C18.2508 7.97148 18.811 8.5317 18.811 9.22305V14.7777C18.811 15.4691 18.2508 16.0293 17.5599 16.0293H6.45309C5.76224 16.0293 5.20195 15.4691 5.20195 14.7777V9.22305Z" fill="#333333"/>
</svg>
