<svg width="24" height="24" viewBox="0 0 24 24" fill="none" xmlns="http://www.w3.org/2000/svg">
<path fill-rule="evenodd" clip-rule="evenodd" d="M18.0377 6.5794C18.2631 6.3365 18.2489 5.95686 18.006 5.73147C17.7631 5.50607 17.3834 5.52027 17.158 5.76318L15.8052 7.2211H6.45309C5.09923 7.2211 4.00195 8.31883 4.00195 9.67266V15.2273C4.00195 16.4689 4.92475 17.495 6.12197 17.6567L5.2467 18.6C5.02131 18.8429 5.0355 19.2226 5.27841 19.4479C5.52132 19.6733 5.90095 19.6591 6.12635 19.4162L18.0377 6.5794ZM7.21488 16.4789L14.6918 8.4211H6.45309C5.76224 8.4211 5.20195 8.98131 5.20195 9.67266V15.2273C5.20195 15.9187 5.76224 16.4789 6.45309 16.4789H7.21488Z" fill="#333333"/>
<path d="M17.5599 16.4789H10.4742L9.3607 17.6789H17.5599C18.9138 17.6789 20.011 16.5812 20.011 15.2273V14.1122H20.3616C20.693 14.1122 20.9616 13.8435 20.9616 13.5122V11.3885C20.9616 11.0571 20.693 10.7885 20.3616 10.7885L20.011 10.7885V9.67266C20.011 8.75851 19.5107 7.96113 18.769 7.53962L17.906 8.46961C18.4286 8.6198 18.811 9.10147 18.811 9.67266V15.2273C18.811 15.9187 18.2508 16.4789 17.5599 16.4789Z" fill="#333333"/>
</svg>
