<svg width="24" height="24" viewBox="0 0 24 24" fill="none" xmlns="http://www.w3.org/2000/svg">
<path d="M12.1907 12.5588C12.1907 12.2274 11.9221 11.9588 11.5907 11.9588C11.2594 11.9588 10.9907 12.2274 10.9907 12.5588V15.4396C10.9907 15.771 11.2594 16.0396 11.5907 16.0396C11.9221 16.0396 12.1907 15.771 12.1907 15.4396V12.5588Z" fill="#828B95"/>
<path d="M14.866 12.5588C14.866 12.2274 14.5974 11.9588 14.266 11.9588C13.9346 11.9588 13.666 12.2274 13.666 12.5588V15.4396C13.666 15.771 13.9346 16.0396 14.266 16.0396C14.5974 16.0396 14.866 15.771 14.866 15.4396V12.5588Z" fill="#828B95"/>
<path d="M8.91494 11.9588C9.24631 11.9588 9.51494 12.2274 9.51494 12.5588V15.4396C9.51494 15.771 9.24631 16.0396 8.91494 16.0396C8.58357 16.0396 8.31494 15.771 8.31494 15.4396V12.5588C8.31494 12.2274 8.58357 11.9588 8.91494 11.9588Z" fill="#828B95"/>
<path fill-rule="evenodd" clip-rule="evenodd" d="M5.47656 15.9553C5.47656 18.1092 7.22266 19.8553 9.37657 19.8553H13.7086C15.6904 19.8553 17.327 18.3771 17.5759 16.4632C17.6288 16.4784 17.6847 16.4866 17.7426 16.4866H18.2626C19.5881 16.4866 20.6626 15.4121 20.6626 14.0866V10.1537C20.6626 8.82823 19.5881 7.75371 18.2626 7.75371H17.7426C17.6965 7.75371 17.6517 7.7589 17.6086 7.76872V6.5416C17.6086 5.21612 16.5341 4.1416 15.2086 4.1416H7.87656C6.55108 4.1416 5.47656 5.21612 5.47656 6.5416V15.9553ZM17.7426 15.2866C17.6965 15.2866 17.6517 15.2918 17.6086 15.3016V8.93871C17.6517 8.94853 17.6965 8.95371 17.7426 8.95371H18.2626C18.9253 8.95371 19.4626 9.49097 19.4626 10.1537V14.0866C19.4626 14.7494 18.9253 15.2866 18.2626 15.2866H17.7426ZM9.37657 18.6553C7.8854 18.6553 6.67656 17.4464 6.67656 15.9553L6.67656 9.77281C7.2108 10.1326 7.95645 10.455 8.9065 10.455C9.95797 10.455 10.7204 10.1509 11.2642 9.75358C11.6271 9.48842 11.8767 9.19308 12.0451 8.95381C12.6784 8.95369 13.6755 8.9537 14.5739 8.95374L16.4086 8.95388V15.9553C16.4086 17.4464 15.1998 18.6553 13.7086 18.6553L9.37657 18.6553ZM16.4086 7.75388L14.5739 7.75374C13.4993 7.75369 12.2831 7.75369 11.7173 7.7539C11.5052 7.75398 11.3089 7.86602 11.201 8.04861C11.0865 8.24228 10.8973 8.53547 10.5562 8.78468C10.223 9.02815 9.70975 9.25503 8.9065 9.25503C8.14426 9.25503 7.5735 8.96139 7.18548 8.66077C6.99075 8.50991 6.84505 8.35927 6.74966 8.24853C6.72023 8.21437 6.69585 8.18431 6.67656 8.15961L6.67656 6.5416C6.67656 5.87886 7.21382 5.3416 7.87656 5.3416L15.2086 5.3416C15.8714 5.3416 16.4086 5.87886 16.4086 6.5416V7.75388Z" fill="#828B95"/>
</svg>
