<svg width="24" height="24" viewBox="0 0 24 24" fill="none" xmlns="http://www.w3.org/2000/svg">
<path fill-rule="evenodd" clip-rule="evenodd" d="M7.4751 8.06055C6.92281 8.06055 6.4751 8.50826 6.4751 9.06055V13.2305C6.4751 13.7828 6.92281 14.2305 7.4751 14.2305H10.6733C11.2256 14.2305 11.6733 13.7828 11.6733 13.2305V9.06055C11.6733 8.50826 11.2256 8.06055 10.6733 8.06055H7.4751ZM7.6751 9.26055V10.5449H10.4733V9.26055H7.6751ZM7.6751 13.0305V11.7449H10.4733V13.0305H7.6751Z" fill="#828B95"/>
<path fill-rule="evenodd" clip-rule="evenodd" d="M12.6011 11.0415C12.6011 9.74897 13.6489 8.70117 14.9414 8.70117C16.2339 8.70117 17.2817 9.74897 17.2817 11.0415C17.2817 12.334 16.2339 13.3818 14.9414 13.3818C13.6489 13.3818 12.6011 12.334 12.6011 11.0415ZM14.9414 12.1818C14.3116 12.1818 13.8011 11.6713 13.8011 11.0415C13.8011 10.4117 14.3116 9.90117 14.9414 9.90117C15.5712 9.90117 16.0817 10.4117 16.0817 11.0415C16.0817 11.6713 15.5712 12.1818 14.9414 12.1818Z" fill="#828B95"/>
<path fill-rule="evenodd" clip-rule="evenodd" d="M4.35693 7.41992C4.35693 6.31535 5.25236 5.41992 6.35693 5.41992H17.6429C18.7474 5.41992 19.6429 6.31535 19.6429 7.41992V15.9492H19.8681C20.1994 15.9492 20.4681 16.2178 20.4681 16.5492C20.4681 16.8806 20.1994 17.1492 19.8681 17.1492L12.6434 17.1493V17.3744L14.8494 19.449C15.0908 19.676 15.1025 20.0557 14.8755 20.2971C14.6485 20.5385 14.2688 20.5502 14.0274 20.3232L12.0884 18.4998L10.0593 20.4074C9.81791 20.6344 9.43819 20.6227 9.21121 20.3813C8.98422 20.1399 8.99593 19.7601 9.23735 19.5332L11.4434 17.4591V17.1493L4.15322 17.1492C3.82185 17.1492 3.55322 16.8806 3.55322 16.5492C3.55322 16.2178 3.82185 15.9492 4.15322 15.9492H4.35693V7.41992ZM18.4429 15.9492L5.55693 15.9492V7.41992C5.55693 6.97809 5.91511 6.61992 6.35693 6.61992H17.6429C18.0847 6.61992 18.4429 6.97809 18.4429 7.41992V15.9492Z" fill="#828B95"/>
</svg>
