<svg width="24" height="24" viewBox="0 0 24 24" fill="none" xmlns="http://www.w3.org/2000/svg">
<path fill-rule="evenodd" clip-rule="evenodd" d="M12.6517 7.44683C12.3911 6.89272 11.609 6.89272 11.3484 7.44683L10.4687 9.31773L8.51344 9.61594C7.89219 9.71069 7.72193 10.4507 8.10768 10.8454L9.53944 12.3102L9.20032 14.3855C9.11367 14.9158 9.67174 15.4653 10.2581 15.1417L12 14.1805L13.7419 15.1417C14.3283 15.4653 14.8864 14.9157 14.7998 14.3855L14.4606 12.3102L15.8924 10.8454C16.2781 10.4507 16.1079 9.71069 15.4866 9.61594L13.5314 9.31773L12.6517 7.44683ZM11.4412 10.0697L12 8.88112L12.5589 10.0697C12.6582 10.2808 12.8562 10.4286 13.0868 10.4638L14.3927 10.663L13.4258 11.6522C13.2703 11.8112 13.1997 12.0348 13.2356 12.2543L13.4578 13.6143L12.3382 12.9966C12.1277 12.8804 11.8723 12.8804 11.6618 12.9966L10.5423 13.6143L10.7645 12.2543C10.8004 12.0348 10.7297 11.8112 10.5742 11.6522L9.60739 10.663L10.9132 10.4638C11.1439 10.4286 11.3419 10.2808 11.4412 10.0697Z" fill="#333333"/>
<path fill-rule="evenodd" clip-rule="evenodd" d="M5.5 7.26465C5.5 5.60779 6.84315 4.26465 8.5 4.26465H15.5C17.1569 4.26465 18.5 5.60779 18.5 7.26465V18.6654C18.5 19.5496 17.7832 20.2664 16.899 20.2664C16.6483 20.2664 16.4011 20.2075 16.1773 20.0944L12.456 18.215C12.1696 18.0703 11.8312 18.0719 11.5461 18.2192L8.03816 20.0321C7.74024 20.186 7.40977 20.2664 7.07441 20.2664C6.20489 20.2664 5.5 19.5615 5.5 18.6919V7.26465ZM8.5 5.46465H15.5C16.4941 5.46465 17.3 6.27054 17.3 7.26465V18.6654C17.3 18.8868 17.1205 19.0664 16.899 19.0664C16.8362 19.0664 16.7743 19.0516 16.7182 19.0233L12.997 17.1438C12.3669 16.8256 11.6223 16.829 10.9952 17.1531L7.48724 18.966C7.35962 19.0319 7.21806 19.0664 7.07441 19.0664C6.86763 19.0664 6.7 18.8987 6.7 18.6919V7.26465C6.7 6.27054 7.50589 5.46465 8.5 5.46465Z" fill="#333333"/>
</svg>
