<svg width="24" height="24" viewBox="0 0 24 24" fill="none" xmlns="http://www.w3.org/2000/svg">
<path d="M16.2023 7.52391C16.3855 7.35597 16.3979 7.07132 16.23 6.88811C16.062 6.70491 15.7774 6.69253 15.5942 6.86047L12.0242 10.1329L8.45427 6.86047C8.27107 6.69253 7.98642 6.70491 7.81848 6.88811C7.65054 7.07132 7.66292 7.35597 7.84612 7.52391L11.7201 11.0751C11.8922 11.2328 12.1563 11.2328 12.3283 11.0751L16.2023 7.52391Z" fill="#909090"/>
<path d="M15.5942 16.9853C15.7774 17.1532 16.062 17.1408 16.23 16.9576C16.3979 16.7744 16.3855 16.4897 16.2023 16.3218L12.3283 12.7706C12.1563 12.6129 11.8922 12.6129 11.7201 12.7706L7.84612 16.3218C7.66292 16.4897 7.65054 16.7744 7.81848 16.9576C7.98641 17.1408 8.27107 17.1532 8.45427 16.9853L12.0242 13.7128L15.5942 16.9853Z" fill="#909090"/>
</svg>
