<svg width="24" height="24" viewBox="0 0 24 24" fill="none" xmlns="http://www.w3.org/2000/svg">
<path d="M6.58936 8.0082C6.58936 7.67683 6.85798 7.4082 7.18936 7.4082L7.98037 7.4082C8.31174 7.4082 8.58037 7.67683 8.58037 8.0082C8.58037 8.33957 8.31174 8.6082 7.98037 8.6082L7.18936 8.6082C6.85798 8.6082 6.58936 8.33957 6.58936 8.0082Z" fill="#828B95"/>
<path d="M10.1693 7.4082C9.83797 7.4082 9.56934 7.67683 9.56934 8.0082C9.56934 8.33957 9.83797 8.6082 10.1693 8.6082L10.9604 8.6082C11.2917 8.6082 11.5604 8.33957 11.5604 8.0082C11.5604 7.67683 11.2917 7.4082 10.9604 7.4082L10.1693 7.4082Z" fill="#828B95"/>
<path fill-rule="evenodd" clip-rule="evenodd" d="M6.69365 5.01367C5.20248 5.01367 3.99365 6.2225 3.99365 7.71367V16.2979C3.99365 17.789 5.20248 18.9979 6.69365 18.9979H17.3101C18.8012 18.9979 20.0101 17.789 20.0101 16.2979V7.71367C20.0101 6.2225 18.8012 5.01367 17.3101 5.01367H6.69365ZM5.19365 7.71367C5.19365 6.88525 5.86523 6.21367 6.69365 6.21367H17.3101C18.1385 6.21367 18.8101 6.88524 18.8101 7.71367V9.69336H5.19365V7.71367ZM5.19365 10.8934V16.2979C5.19365 17.1263 5.86523 17.7979 6.69365 17.7979H17.3101C18.1385 17.7979 18.8101 17.1263 18.8101 16.2979V10.8934H5.19365Z" fill="#828B95"/>
</svg>
