<svg width="24" height="24" viewBox="0 0 24 24" fill="none" xmlns="http://www.w3.org/2000/svg">
<path d="M11.9999 3.97949C11.6685 3.97949 11.3999 4.24812 11.3999 4.57949C11.3999 4.91086 11.6685 5.17949 11.9999 5.17949C15.767 5.17949 18.8208 8.23332 18.8208 12.0004C18.8208 15.7675 15.767 18.8213 11.9999 18.8213C8.23283 18.8213 5.179 15.7675 5.179 12.0004C5.179 11.669 4.91037 11.4004 4.579 11.4004C4.24763 11.4004 3.979 11.669 3.979 12.0004C3.979 16.4302 7.57009 20.0213 11.9999 20.0213C16.4297 20.0213 20.0208 16.4302 20.0208 12.0004C20.0208 7.57058 16.4297 3.97949 11.9999 3.97949Z" fill="#333333"/>
<path d="M12.5149 8.00723C12.5149 7.67586 12.2463 7.40723 11.9149 7.40723C11.5836 7.40723 11.3149 7.67586 11.3149 8.00723V12.1106C11.3149 12.2698 11.3782 12.4224 11.4907 12.5349C11.6032 12.6474 11.7558 12.7106 11.9149 12.7106L15.3679 12.7106C15.6993 12.7106 15.9679 12.442 15.9679 12.1106C15.9679 11.7793 15.6993 11.5106 15.3679 11.5106L12.5149 11.5106V8.00723Z" fill="#333333"/>
</svg>
