<svg width="24" height="24" viewBox="0 0 24 24" fill="none" xmlns="http://www.w3.org/2000/svg">
<path fill-rule="evenodd" clip-rule="evenodd" d="M5.77695 5.04102C4.72761 5.04102 3.87695 5.89167 3.87695 6.94101V8.56282C3.87695 9.61216 4.72761 10.4628 5.77695 10.4628H6.33285C6.24477 10.6818 6.19629 10.921 6.19629 11.1715V12.7933C6.19629 13.8426 7.04695 14.6933 8.09629 14.6933H8.99369C8.90208 14.916 8.85156 15.1599 8.85156 15.4156V17.0374C8.85156 18.0868 9.70222 18.9374 10.7516 18.9374H18.1516C19.2009 18.9374 20.0516 18.0868 20.0516 17.0374V15.4156C20.0516 14.3663 19.2009 13.5156 18.1516 13.5156H17.2542C17.3458 13.2929 17.3963 13.049 17.3963 12.7933V11.1715C17.3963 10.1221 16.5456 9.27148 15.4963 9.27148H14.9404C15.0285 9.0525 15.077 8.81332 15.077 8.56282V6.94102C15.077 5.89167 14.2263 5.04102 13.177 5.04102H5.77695ZM5.07695 6.94101C5.07695 6.55442 5.39035 6.24102 5.77695 6.24102H13.177C13.5636 6.24102 13.877 6.55442 13.877 6.94102V8.56282C13.877 8.94942 13.5636 9.26282 13.177 9.26282H5.77695C5.39035 9.26282 5.07695 8.94942 5.07695 8.56282V6.94101ZM8.09629 10.4715C7.70969 10.4715 7.39629 10.7849 7.39629 11.1715V12.7933C7.39629 13.1799 7.70969 13.4933 8.09629 13.4933H15.4963C15.8829 13.4933 16.1963 13.1799 16.1963 12.7933V11.1715C16.1963 10.7849 15.8829 10.4715 15.4963 10.4715H8.09629ZM10.0516 15.4156C10.0516 15.029 10.365 14.7156 10.7516 14.7156H18.1516C18.5382 14.7156 18.8516 15.029 18.8516 15.4156V17.0374C18.8516 17.424 18.5382 17.7374 18.1516 17.7374H10.7516C10.365 17.7374 10.0516 17.424 10.0516 17.0374V15.4156Z" fill="#333333"/>
<path d="M16.415 7.34805C16.415 7.01668 16.6837 6.74805 17.015 6.74805H17.9503C18.9444 6.74805 19.7503 7.55393 19.7503 8.54805V10.5339C19.7503 10.8653 19.4817 11.1339 19.1503 11.1339C18.819 11.1339 18.5503 10.8653 18.5503 10.5339V8.54805C18.5503 8.21668 18.2817 7.94805 17.9503 7.94805H17.015C16.6837 7.94805 16.415 7.67942 16.415 7.34805Z" fill="#333333"/>
<path d="M5.801 16.4641H6.83896C7.17034 16.4641 7.43896 16.7327 7.43896 17.0641C7.43896 17.3954 7.17034 17.6641 6.83896 17.6641H5.801C4.80689 17.6641 4.001 16.8582 4.001 15.8641L4.001 13.8782C4.001 13.5468 4.26963 13.2782 4.601 13.2782C4.93237 13.2782 5.201 13.5468 5.201 13.8782V15.8641C5.201 16.1954 5.46963 16.4641 5.801 16.4641Z" fill="#333333"/>
</svg>
