<svg width="24" height="24" viewBox="0 0 24 24" fill="none" xmlns="http://www.w3.org/2000/svg">
<path d="M9.35146 4.51973C9.35146 4.0779 8.99329 3.71973 8.55147 3.71973C8.10964 3.71973 7.75146 4.0779 7.75146 4.51973V5.01465H6.69365C5.20248 5.01465 3.99365 6.22348 3.99365 7.71465V16.2988C3.99365 17.79 5.20248 18.9988 6.69365 18.9988H11.1238C11.4552 18.9988 11.7238 18.7302 11.7238 18.3988C11.7238 18.0675 11.4552 17.7988 11.1238 17.7988H6.69365C5.86523 17.7988 5.19365 17.1273 5.19365 16.2988V7.71465C5.19365 6.88622 5.86523 6.21465 6.69365 6.21465H7.75147V6.94941C7.75147 7.39124 8.10964 7.74941 8.55147 7.74941C8.99329 7.74941 9.35147 7.39124 9.35147 6.94941V6.21465H14.6318V6.94941C14.6318 7.39124 14.99 7.74941 15.4318 7.74941C15.8737 7.74941 16.2318 7.39124 16.2318 6.94941V6.21465H17.3101C18.1385 6.21465 18.8101 6.88622 18.8101 7.71465V10.2733C18.8101 10.6047 19.0787 10.8733 19.4101 10.8733C19.7414 10.8733 20.0101 10.6047 20.0101 10.2733V7.71465C20.0101 6.22348 18.8012 5.01465 17.3101 5.01465H16.2318V4.51973C16.2318 4.0779 15.8737 3.71973 15.4318 3.71973C14.99 3.71973 14.6318 4.0779 14.6318 4.51973V5.01465H9.35146V4.51973Z" fill="#333333"/>
<path d="M16.9159 13.7949C14.9277 13.7949 13.3159 15.4067 13.3159 17.3949V18.5331C13.3159 18.8645 13.5845 19.1331 13.9159 19.1331C14.2473 19.1331 14.5159 18.8645 14.5159 18.5331V17.3949C14.5159 16.0694 15.5904 14.9949 16.9159 14.9949H18.4674L17.4917 15.9707C17.2573 16.205 17.2573 16.5849 17.4917 16.8192C17.726 17.0535 18.1059 17.0535 18.3402 16.8192L20.3402 14.8192C20.5745 14.5849 20.5745 14.205 20.3402 13.9707L18.3402 11.9707C18.1059 11.7363 17.726 11.7363 17.4917 11.9707C17.2573 12.205 17.2573 12.5849 17.4917 12.8192L18.4674 13.7949H16.9159Z" fill="#333333"/>
<path fill-rule="evenodd" clip-rule="evenodd" d="M10.854 10.1213C10.854 9.67946 11.2122 9.32129 11.654 9.32129H12.4621C12.9039 9.32129 13.2621 9.67946 13.2621 10.1213V10.9674C13.2621 11.4092 12.9039 11.7674 12.4621 11.7674H11.654C11.2122 11.7674 10.854 11.4092 10.854 10.9674V10.1213Z" fill="#333333"/>
<path fill-rule="evenodd" clip-rule="evenodd" d="M7.97383 9.32129C7.532 9.32129 7.17383 9.67946 7.17383 10.1213V10.9674C7.17383 11.4092 7.532 11.7674 7.97383 11.7674H8.78193C9.22376 11.7674 9.58193 11.4092 9.58193 10.9674V10.1213C9.58193 9.67946 9.22376 9.32129 8.78193 9.32129H7.97383Z" fill="#333333"/>
<path fill-rule="evenodd" clip-rule="evenodd" d="M7.17383 13.9455C7.17383 13.5037 7.532 13.1455 7.97383 13.1455H8.78193C9.22376 13.1455 9.58193 13.5037 9.58193 13.9455V14.7916C9.58193 15.2334 9.22376 15.5916 8.78193 15.5916H7.97383C7.532 15.5916 7.17383 15.2334 7.17383 14.7916V13.9455Z" fill="#333333"/>
</svg>
