<svg width="24" height="24" viewBox="0 0 24 24" fill="none" xmlns="http://www.w3.org/2000/svg">
<path fill-rule="evenodd" clip-rule="evenodd" d="M15.1706 9.32129C14.7288 9.32129 14.3706 9.67946 14.3706 10.1213V10.9674C14.3706 11.4092 14.7288 11.7674 15.1706 11.7674H15.9787C16.4205 11.7674 16.7787 11.4092 16.7787 10.9674V10.1213C16.7787 9.67946 16.4205 9.32129 15.9787 9.32129H15.1706Z" fill="#333333"/>
<path fill-rule="evenodd" clip-rule="evenodd" d="M10.854 10.1213C10.854 9.67946 11.2122 9.32129 11.654 9.32129H12.4621C12.9039 9.32129 13.2621 9.67946 13.2621 10.1213V10.9674C13.2621 11.4092 12.9039 11.7674 12.4621 11.7674H11.654C11.2122 11.7674 10.854 11.4092 10.854 10.9674V10.1213Z" fill="#333333"/>
<path fill-rule="evenodd" clip-rule="evenodd" d="M7.97383 9.32129C7.532 9.32129 7.17383 9.67946 7.17383 10.1213V10.9674C7.17383 11.4092 7.532 11.7674 7.97383 11.7674H8.78193C9.22376 11.7674 9.58193 11.4092 9.58193 10.9674V10.1213C9.58193 9.67946 9.22376 9.32129 8.78193 9.32129H7.97383Z" fill="#333333"/>
<path fill-rule="evenodd" clip-rule="evenodd" d="M7.17383 13.9455C7.17383 13.5037 7.532 13.1455 7.97383 13.1455H8.78193C9.22376 13.1455 9.58193 13.5037 9.58193 13.9455V14.7916C9.58193 15.2334 9.22376 15.5916 8.78193 15.5916H7.97383C7.532 15.5916 7.17383 15.2334 7.17383 14.7916V13.9455Z" fill="#333333"/>
<path fill-rule="evenodd" clip-rule="evenodd" d="M8.55147 3.71973C8.99329 3.71973 9.35146 4.0779 9.35146 4.51973V5.01465H14.6318V4.51973C14.6318 4.0779 14.99 3.71973 15.4318 3.71973C15.8737 3.71973 16.2318 4.0779 16.2318 4.51973V5.01465H17.3101C18.8012 5.01465 20.0101 6.22348 20.0101 7.71465V16.2988C20.0101 17.79 18.8012 18.9988 17.3101 18.9988H6.69365C5.20248 18.9988 3.99365 17.79 3.99365 16.2988V7.71465C3.99365 6.22348 5.20248 5.01465 6.69365 5.01465H7.75146V4.51973C7.75146 4.0779 8.10964 3.71973 8.55147 3.71973ZM14.6318 6.21465V6.94941C14.6318 7.39124 14.99 7.74941 15.4318 7.74941C15.8737 7.74941 16.2318 7.39124 16.2318 6.94941V6.21465H17.3101C18.1385 6.21465 18.8101 6.88622 18.8101 7.71465V16.2988C18.8101 17.1273 18.1385 17.7988 17.3101 17.7988H6.69365C5.86523 17.7988 5.19365 17.1273 5.19365 16.2988V7.71465C5.19365 6.88622 5.86523 6.21465 6.69365 6.21465H7.75147V6.94941C7.75147 7.39124 8.10964 7.74941 8.55147 7.74941C8.99329 7.74941 9.35147 7.39124 9.35147 6.94941V6.21465H14.6318Z" fill="#333333"/>
</svg>
