<svg width="24" height="24" viewBox="0 0 24 24" fill="none" xmlns="http://www.w3.org/2000/svg">
<path d="M7.1626 11.598C7.1626 11.2667 7.43123 10.998 7.7626 10.998H16.0189C16.3503 10.998 16.6189 11.2667 16.6189 11.598C16.6189 11.9294 16.3503 12.198 16.0189 12.198H7.7626C7.43123 12.198 7.1626 11.9294 7.1626 11.598Z" fill="#333333"/>
<path d="M11.0526 9.43926H16.0188C16.3502 9.43926 16.6188 9.17063 16.6188 8.83926C16.6188 8.50789 16.3502 8.23926 16.0188 8.23926H11.0526C10.7213 8.23926 10.4526 8.50789 10.4526 8.83926C10.4526 9.17063 10.7213 9.43926 11.0526 9.43926Z" fill="#333333"/>
<path d="M7.01025 8.83926C7.01025 8.50789 7.27888 8.23926 7.61025 8.23926L8.69033 8.23926C9.0217 8.23926 9.29033 8.50789 9.29033 8.83926C9.29033 9.17063 9.0217 9.43926 8.69033 9.43926H7.61025C7.27888 9.43926 7.01025 9.17063 7.01025 8.83926Z" fill="#333333"/>
<path d="M7.7626 13.7822C7.43123 13.7822 7.1626 14.0509 7.1626 14.3822C7.1626 14.7136 7.43123 14.9822 7.7626 14.9822H11.9388C12.2702 14.9822 12.5388 14.7136 12.5388 14.3822C12.5388 14.0509 12.2702 13.7822 11.9388 13.7822H7.7626Z" fill="#333333"/>
<path fill-rule="evenodd" clip-rule="evenodd" d="M3.99365 7.71465C3.99365 6.22348 5.20248 5.01465 6.69365 5.01465H17.3101C18.8012 5.01465 20.0101 6.22348 20.0101 7.71465V16.2988C20.0101 17.79 18.8012 18.9988 17.3101 18.9988H6.69365C5.20248 18.9988 3.99365 17.79 3.99365 16.2988V7.71465ZM6.69365 6.21465C5.86523 6.21465 5.19365 6.88622 5.19365 7.71465V16.2988C5.19365 17.1273 5.86523 17.7988 6.69365 17.7988H17.3101C18.1385 17.7988 18.8101 17.1273 18.8101 16.2988V7.71465C18.8101 6.88622 18.1385 6.21465 17.3101 6.21465H6.69365Z" fill="#333333"/>
</svg>
