<svg width="24" height="24" viewBox="0 0 24 24" fill="none" xmlns="http://www.w3.org/2000/svg">
<path fill-rule="evenodd" clip-rule="evenodd" d="M6.47051 13.6697V15.5708C6.47051 15.6303 6.48598 15.6605 6.49928 15.6794C6.51641 15.7037 6.54626 15.73 6.58861 15.7475C6.63095 15.765 6.67061 15.7676 6.69992 15.7625C6.72268 15.7586 6.75503 15.7481 6.7971 15.706L7.85742 14.6457V15.0952C7.85742 15.4542 7.95204 15.7912 8.11772 16.0825L7.64563 16.5546C6.76915 17.431 5.27051 16.8103 5.27051 15.5708V14.3608C4.37569 13.8416 3.77393 12.8732 3.77393 11.7642V7.86328C3.77393 6.20643 5.11707 4.86328 6.77393 4.86328H13.4751C15.132 4.86328 16.4751 6.20643 16.4751 7.86328V8.66406H17.4261C18.9725 8.66406 20.2261 9.91767 20.2261 11.4641V15.1486C20.2261 16.1538 19.6963 17.0354 18.9008 17.5292V18.2849C18.9008 19.5244 17.4021 20.1452 16.5256 19.2687L15.2055 17.9486H11.7869C10.2405 17.9486 8.98692 16.695 8.98692 15.1486V11.4641C8.98692 9.91767 10.2405 8.66406 11.7869 8.66406H15.2751V7.86328C15.2751 6.86917 14.4692 6.06328 13.4751 6.06328H6.77393C5.77981 6.06328 4.97393 6.86917 4.97393 7.86328V11.7642C4.97393 12.4281 5.33273 13.0096 5.87275 13.3229L6.47051 13.6697ZM17.7008 18.2849V16.8617L18.2679 16.5097C18.7256 16.2256 19.0261 15.7217 19.0261 15.1486V11.4641C19.0261 10.5804 18.3097 9.86406 17.4261 9.86406H11.7869C10.9033 9.86406 10.1869 10.5804 10.1869 11.4641V15.1486C10.1869 16.0322 10.9033 16.7486 11.7869 16.7486H15.7026L17.3742 18.4202C17.4162 18.4623 17.4486 18.4727 17.4713 18.4767C17.5007 18.4818 17.5403 18.4792 17.5827 18.4617C17.625 18.4441 17.6549 18.4179 17.672 18.3936C17.6853 18.3747 17.7008 18.3444 17.7008 18.2849Z" fill="#333333"/>
</svg>
