<svg width="24" height="24" viewBox="0 0 24 24" fill="none" xmlns="http://www.w3.org/2000/svg">
<path d="M8.07565 11.5761C7.84134 11.8104 7.84134 12.1903 8.07565 12.4247L11.0757 15.4247C11.31 15.659 11.6899 15.659 11.9242 15.4247C12.1585 15.1903 12.1585 14.8104 11.9242 14.5761L9.34844 12.0004L11.9242 9.42465C12.1585 9.19034 12.1585 8.81044 11.9242 8.57613C11.6899 8.34181 11.31 8.34181 11.0757 8.57613L8.07565 11.5761Z" fill="#333333"/>
<path fill-rule="evenodd" clip-rule="evenodd" d="M6.8999 5.15039C5.24305 5.15039 3.8999 6.49354 3.8999 8.15039V15.8504C3.8999 17.5072 5.24305 18.8504 6.8999 18.8504H17.0999C18.7568 18.8504 20.0999 17.5072 20.0999 15.8504V8.15039C20.0999 6.49354 18.7568 5.15039 17.0999 5.15039H6.8999ZM5.0999 8.15039C5.0999 7.15628 5.90579 6.35039 6.8999 6.35039H14.8999L14.9 17.6504H6.8999C5.90579 17.6504 5.0999 16.8445 5.0999 15.8504V8.15039ZM16.1 17.6504H17.0999C18.094 17.6504 18.8999 16.8445 18.8999 15.8504V8.15039C18.8999 7.15628 18.094 6.35039 17.0999 6.35039H16.0999L16.1 17.6504Z" fill="#333333"/>
</svg>
