<svg width="24" height="24" viewBox="0 0 24 24" fill="none" xmlns="http://www.w3.org/2000/svg">
<path fill-rule="evenodd" clip-rule="evenodd" d="M5.55089 8.61023C5.6458 6.33756 7.7613 4.54492 9.92833 4.54492H9.93484C11.5398 4.56234 12.9966 5.4564 13.7422 6.77307C16.224 6.24372 18.6376 8.14843 18.8924 10.6402C20.4688 11.2738 21.5277 12.7795 21.5088 14.4806C21.5509 16.7284 19.7103 18.5532 17.431 18.6139L17.4148 18.6141C15.258 18.6132 13.1013 18.6135 10.9444 18.6138C9.86591 18.6139 8.78738 18.6141 7.7088 18.6141C4.82546 18.6141 2.49289 16.2677 2.49103 13.3787C2.46869 11.3283 3.68161 9.48142 5.55089 8.61023ZM9.92509 5.74492C8.22028 5.74686 6.6311 7.27639 6.75467 8.96256C6.77413 9.22816 6.61619 9.47481 6.36682 9.56826C4.72638 10.183 3.67171 11.7031 3.69098 13.3683L3.69107 13.3752C3.69107 15.6083 5.49225 17.4141 7.7088 17.4141C8.78705 17.4141 9.86542 17.4139 10.9439 17.4138C13.0981 17.4135 15.2526 17.4132 17.4069 17.4141C19.0683 17.3659 20.3419 16.0442 20.3089 14.4957C20.3087 14.4887 20.3087 14.4817 20.3088 14.4747C20.3264 13.1916 19.4581 12.031 18.1475 11.6511C17.891 11.5768 17.7145 11.3419 17.7145 11.0749C17.7145 8.95532 15.5733 7.36028 13.6217 8.05168C13.3186 8.15907 12.9847 8.00839 12.8647 7.71006C12.4131 6.58751 11.2421 5.76057 9.92509 5.74492Z" fill="#828B95"/>
</svg>
