<svg width="24" height="24" viewBox="0 0 24 24" fill="none" xmlns="http://www.w3.org/2000/svg">
<path fill-rule="evenodd" clip-rule="evenodd" d="M18.1046 4.49702C17.6751 4.06747 16.9787 4.06739 16.549 4.49685L10.2427 10.801C9.91636 11.1272 9.68273 11.5344 9.56576 11.9807L9.11972 13.6829C8.9644 14.2755 9.50572 14.8157 10.0981 14.6591L11.8104 14.2064C12.2544 14.089 12.6593 13.8561 12.9841 13.5314L19.2842 7.23251C19.7138 6.80296 19.7139 6.10645 19.2843 5.67684L18.1046 4.49702ZM11.5051 11.2358L15.5726 7.1697L16.6111 8.20817L12.5439 12.2746L11.5051 11.2358ZM17.4597 7.35972L16.4213 6.32132L17.3267 5.41622L18.365 6.45461L17.4597 7.35972ZM10.7569 12.1846C10.7456 12.2176 10.7354 12.251 10.7266 12.2849L10.4544 13.3236L11.5036 13.0462C11.5334 13.0383 11.5629 13.0295 11.592 13.0197L10.7569 12.1846Z" fill="#333333"/>
<path d="M11.4 4.6748C11.7314 4.6748 12 4.94343 12 5.2748C12 5.60618 11.7314 5.8748 11.4 5.8748H7.18486C6.35644 5.8748 5.68486 6.54638 5.68486 7.37481V16.6248C5.68486 17.4532 6.35644 18.1248 7.18486 18.1248H16.8151C17.6436 18.1248 18.3151 17.4532 18.3151 16.6248V11.5998C18.3151 11.2684 18.5838 10.9998 18.9151 10.9998C19.2465 10.9998 19.5151 11.2684 19.5151 11.5998V16.6248C19.5151 18.116 18.3063 19.3248 16.8151 19.3248H7.18486C5.69369 19.3248 4.48486 18.116 4.48486 16.6248V7.37481C4.48486 5.88364 5.69369 4.6748 7.18486 4.6748H11.4Z" fill="#333333"/>
</svg>
