<svg width="24" height="24" viewBox="0 0 24 24" fill="none" xmlns="http://www.w3.org/2000/svg">
<path fill-rule="evenodd" clip-rule="evenodd" d="M5.36079 18.4149C5.59511 18.6492 5.97501 18.6492 6.20932 18.4149L18.2093 6.41489C18.4436 6.18057 18.4436 5.80068 18.2093 5.56636C17.975 5.33205 17.5951 5.33205 17.3608 5.56636L16.0141 6.9131C14.7909 6.24073 13.4329 5.85824 11.9314 5.89675C8.56352 5.81028 5.8168 7.81144 3.88172 10.476C3.86075 10.5049 3.83594 10.538 3.80869 10.5745C3.71532 10.6994 3.5932 10.8627 3.49888 11.022C3.36874 11.2419 3.23877 11.5336 3.23877 11.8839C3.23877 12.236 3.37041 12.5289 3.50277 12.7494C3.60094 12.913 3.72696 13.0779 3.82322 13.2038C3.84927 13.2378 3.87313 13.2691 3.89367 13.2966C4.71268 14.3957 5.66861 15.393 6.75272 16.1744L5.36079 17.5664C5.12648 17.8007 5.12648 18.1806 5.36079 18.4149ZM11.948 7.09674C13.0959 7.06494 14.149 7.32222 15.1247 7.8025L13.4912 9.43592C13.0404 9.14778 12.5047 8.98076 11.9299 8.98076C10.3266 8.98076 9.02686 10.2805 9.02686 11.8838C9.02686 12.4586 9.19387 12.9943 9.48202 13.4451L7.61379 15.3134C6.58607 14.6045 5.66032 13.6591 4.85591 12.5796C4.81633 12.5265 4.78016 12.4791 4.74675 12.4353C4.66009 12.3217 4.59203 12.2325 4.53171 12.1319C4.45575 12.0054 4.43877 11.9313 4.43877 11.8839C4.43877 11.8357 4.45595 11.761 4.5315 11.6333C4.59016 11.5342 4.65487 11.4476 4.73691 11.3378C4.77203 11.2907 4.81033 11.2395 4.85269 11.1811C6.66031 8.69209 9.08174 7.01827 11.9148 7.09674C11.9259 7.09704 11.937 7.09704 11.948 7.09674ZM10.3666 12.5606L12.6066 10.3205C12.3992 10.2306 12.1704 10.1808 11.9299 10.1808C10.9894 10.1808 10.2269 10.9433 10.2269 11.8838C10.2269 12.1243 10.2767 12.3531 10.3666 12.5606Z" fill="#333333"/>
<path d="M19.0027 12.5484C17.0382 15.0159 14.768 16.7483 11.948 16.6703C11.937 16.67 11.9259 16.67 11.9148 16.6703C11.4517 16.6831 10.9094 16.6433 10.4767 16.5663C10.1505 16.5083 9.83897 16.7257 9.78093 17.052C9.7229 17.3782 9.94033 17.6898 10.2666 17.7478C10.777 17.8386 11.3934 17.8839 11.9314 17.8703C15.316 17.9569 17.9025 15.8569 19.9415 13.2958C19.9603 13.2722 19.9814 13.2461 20.0042 13.218C20.1065 13.0919 20.2418 12.9251 20.3484 12.7542C20.4854 12.5346 20.6211 12.2414 20.6211 11.8864C20.6211 11.533 20.4879 11.2397 20.3531 11.019C20.2496 10.8495 20.1179 10.6826 20.0178 10.5556C19.9941 10.5256 19.9722 10.4978 19.9528 10.4727C19.4975 9.88364 19.0151 9.32661 18.503 8.81731C18.2681 8.58363 17.8882 8.58466 17.6545 8.8196C17.4208 9.05455 17.4218 9.43445 17.6568 9.66813C18.1263 10.1351 18.5746 10.6519 19.0033 11.2066C19.0379 11.2512 19.0699 11.292 19.0999 11.3301C19.1935 11.4493 19.2665 11.5422 19.3291 11.6445C19.4048 11.7685 19.4211 11.8408 19.4211 11.8864C19.4211 11.9284 19.406 11.9977 19.3303 12.1191C19.2667 12.221 19.1918 12.3137 19.0947 12.4338C19.0661 12.4693 19.0355 12.5072 19.0027 12.5484Z" fill="#333333"/>
<path d="M12.9955 13.2124C13.0925 13.1346 13.1807 13.0464 13.2585 12.9494L14.795 11.413C14.82 11.5662 14.833 11.7235 14.833 11.8838C14.833 13.4872 13.5333 14.7869 11.9299 14.7869C11.7696 14.7869 11.6123 14.7739 11.459 14.7489L12.9955 13.2124Z" fill="#333333"/>
</svg>
