<svg width="24" height="24" viewBox="0 0 24 24" fill="none" xmlns="http://www.w3.org/2000/svg">
<path fill-rule="evenodd" clip-rule="evenodd" d="M8.00588 4.56407C9.16701 4.27843 10.6751 4.16839 12.1386 4.1829C13.5473 4.19686 14.9799 4.31679 16.0782 4.60099C16.6234 4.74206 17.1319 4.93484 17.5172 5.20816C17.9099 5.4868 18.2398 5.90188 18.2398 6.46652C18.2398 6.59337 18.2389 6.7191 18.2369 6.8437C19.0988 6.6824 19.9315 6.94808 20.506 7.48299C21.172 8.10317 21.4788 9.07898 21.093 10.0893C20.6795 11.172 20.1016 12.3438 19.3235 13.0115C18.8405 13.426 18.1646 13.8151 17.6397 14.0901C17.3714 14.2307 17.1313 14.3472 16.958 14.4287C16.8712 14.4696 16.8009 14.5017 16.7518 14.5239L16.6946 14.5496L16.6789 14.5565L16.6733 14.559L16.5693 14.3218C16.673 14.5588 16.6733 14.559 16.6733 14.559C16.5914 14.5948 16.5058 14.6108 16.4218 14.6093C15.7772 15.8316 15.0022 16.8714 14.1659 17.7905C14.2452 17.8656 14.3332 17.9505 14.4266 18.0439C14.898 18.5153 15.5341 19.229 16.0782 20.1822C16.1842 20.3679 16.1834 20.596 16.076 20.7809C15.9687 20.9658 15.771 21.0796 15.5571 21.0796L8.83056 21.0796C8.62231 21.0796 8.42895 20.9716 8.31972 20.7943C8.21049 20.617 8.20101 20.3958 8.29468 20.2098C8.72097 19.3632 9.33019 18.6432 9.77015 18.1557C9.8721 18.0428 9.95914 17.9485 10.0336 17.8679L10.0361 17.8652C9.13723 16.9193 8.32003 15.8439 7.64465 14.6044C7.54013 14.6179 7.43072 14.6042 7.3272 14.559C7.3272 14.559 7.3277 14.5592 7.46056 14.2554L7.3272 14.559L7.3259 14.5584L7.32154 14.5565L7.30592 14.5496L7.24868 14.5239C7.19957 14.5017 7.12924 14.4696 7.04247 14.4287C6.86919 14.3472 6.62907 14.2307 6.36082 14.0901C5.83589 13.8151 5.15993 13.426 4.67696 13.0115C3.89889 12.3438 3.32102 11.172 2.90752 10.0893C2.52169 9.07898 2.82849 8.10317 3.49451 7.48299C4.06093 6.95554 4.87853 6.68987 5.72747 6.83719C5.7254 6.71458 5.72436 6.59102 5.72436 6.46652C5.72436 5.88199 6.07874 5.4585 6.48862 5.17837C6.89394 4.90135 7.42965 4.70583 8.00588 4.56407ZM7.16572 6.16909C6.93625 6.32593 6.92436 6.42799 6.92436 6.46652C6.92436 11.553 8.76235 14.8833 11.1497 17.2896C11.2316 17.3398 11.312 17.4162 11.3718 17.5325C11.5092 17.7995 11.4025 18.0427 11.3844 18.0838L11.3835 18.0859C11.328 18.2132 11.231 18.3278 11.1832 18.3843C11.1108 18.4697 11.0036 18.5861 10.8864 18.7133C10.8132 18.7928 10.736 18.8766 10.6609 18.9598C10.4235 19.2229 10.156 19.5341 9.9048 19.8796L14.4422 19.8796C14.1377 19.4775 13.8339 19.1482 13.5781 18.8924C13.4109 18.7252 13.2686 18.5935 13.153 18.4866C13.1202 18.4562 13.0893 18.4276 13.0608 18.4009C13.0086 18.3521 12.9329 18.2811 12.8794 18.2155C12.8638 18.1964 12.8391 18.1647 12.815 18.124C12.7973 18.0942 12.7446 18.003 12.7296 17.874C12.7104 17.7101 12.7577 17.4779 12.9626 17.321C15.1879 14.9995 17.0398 11.8652 17.0398 6.46652C17.0398 6.42693 17.0286 6.33289 16.8228 6.18686C16.6095 6.03551 16.262 5.88807 15.7776 5.76272C14.8168 5.5141 13.4959 5.39641 12.1267 5.38284C10.7121 5.36882 9.31604 5.47755 8.29254 5.72933C7.77647 5.85629 7.39975 6.00915 7.16572 6.16909ZM5.78594 8.08763C5.77702 8.08511 5.76812 8.08237 5.75923 8.07941C5.18966 7.88992 4.65183 8.045 4.31228 8.36119C3.98135 8.66935 3.82784 9.13559 4.02855 9.66114C4.4355 10.7267 4.92692 11.6447 5.45846 12.1009C5.82788 12.4179 6.39245 12.751 6.89855 13.0171C6.32432 11.5805 5.93071 9.95039 5.78594 8.08763ZM17.1512 12.9911C17.6812 11.5929 18.049 9.98239 18.1834 8.09554C18.2027 8.09117 18.222 8.08581 18.2412 8.07941C18.8108 7.88992 19.3486 8.045 19.6882 8.36119C20.0191 8.66935 20.1726 9.13559 19.9719 9.66114C19.565 10.7267 19.0736 11.6447 18.542 12.1009C18.1845 12.4076 17.6444 12.7295 17.1512 12.9911Z" fill="#828B95"/>
</svg>
