<svg width="24" height="24" viewBox="0 0 24 24" fill="none" xmlns="http://www.w3.org/2000/svg">
<path fill-rule="evenodd" clip-rule="evenodd" d="M5.78799 5.45801C4.90433 5.45801 4.18799 6.17435 4.18799 7.05801V15.578C4.18799 16.4617 4.90433 17.178 5.78799 17.178H6.19059C6.39352 18.3185 7.39003 19.1844 8.58877 19.1844C9.78752 19.1844 10.784 18.3185 10.987 17.178H13.8053C14.0083 18.3185 15.0048 19.1844 16.2035 19.1844C17.4023 19.1844 18.3988 18.3185 18.6017 17.178H18.6741C19.5577 17.178 20.2741 16.4617 20.2741 15.578V12.5499C20.2741 12.1281 20.1108 11.7443 19.844 11.4585C19.8311 11.4343 19.8163 11.4106 19.7997 11.3878L17.5974 8.36124C17.1081 7.68881 16.3267 7.29102 15.4951 7.29102H14.7728V7.05801C14.7728 6.17435 14.0564 5.45801 13.1728 5.45801H5.78799ZM14.7728 8.49102L14.7728 10.9499H17.997L16.6271 9.06729C16.3636 8.70521 15.9428 8.49102 15.4951 8.49102H14.7728ZM16.2035 14.3125C15.1274 14.3125 14.2143 15.0103 13.8919 15.978H10.9004C10.578 15.0103 9.66487 14.3125 8.58877 14.3125C7.51267 14.3125 6.59955 15.0103 6.27717 15.978H5.78799C5.56707 15.978 5.38799 15.799 5.38799 15.578V7.05801C5.38799 6.83709 5.56707 6.65801 5.78799 6.65801H13.1728C13.3937 6.65801 13.5728 6.83709 13.5728 7.05801V11.5499C13.5728 11.8813 13.8414 12.1499 14.1728 12.1499H18.6741C18.895 12.1499 19.0741 12.329 19.0741 12.5499V15.578C19.0741 15.799 18.895 15.978 18.6741 15.978H18.5535C18.5407 15.978 18.5281 15.9784 18.5155 15.9792C18.1935 15.0108 17.2801 14.3125 16.2035 14.3125ZM7.35283 16.7484C7.35283 16.0659 7.90618 15.5125 8.58877 15.5125C9.27137 15.5125 9.82472 16.0659 9.82472 16.7484C9.82472 17.431 9.27137 17.9844 8.58877 17.9844C7.90618 17.9844 7.35283 17.431 7.35283 16.7484ZM16.2035 15.5125C15.5209 15.5125 14.9676 16.0659 14.9676 16.7484C14.9676 17.431 15.5209 17.9844 16.2035 17.9844C16.8861 17.9844 17.4395 17.431 17.4395 16.7484C17.4395 16.0659 16.8861 15.5125 16.2035 15.5125Z" fill="#828B95"/>
</svg>
