<svg width="24" height="24" viewBox="0 0 24 24" fill="none" xmlns="http://www.w3.org/2000/svg">
<path fill-rule="evenodd" clip-rule="evenodd" d="M8.4639 5.309L12.7944 5.30851V7.70891C12.7944 8.23629 13.0047 8.74162 13.3784 9.11385C13.752 9.486 14.2583 9.69463 14.7856 9.69463H17.2016L17.1987 10.0635C17.196 10.3949 17.4625 10.6657 17.7938 10.6683C18.1252 10.671 18.396 10.4045 18.3986 10.0731L18.4049 9.28591V9.28111C18.4049 9.24921 18.4072 9.20942 18.4098 9.16297C18.4256 8.88351 18.455 8.36286 18.0913 7.86698C17.9326 7.65057 17.4314 7.07415 16.9382 6.52119C16.4379 5.96022 15.9012 5.37369 15.6538 5.12625C14.9984 4.47087 14.3406 4.1084 13.7406 4.1084L8.46376 4.109C8.09929 4.109 7.73424 4.11775 7.37602 4.22338C6.99842 4.33473 6.672 4.53875 6.33569 4.8562C5.67212 5.48256 5.58789 6.30711 5.58789 7.11662L5.5879 16.9189C5.5879 17.5781 5.64675 18.4272 6.2814 19.0702C6.5408 19.3331 6.81793 19.5525 7.16888 19.6978C7.5175 19.8421 7.89389 19.8947 8.32591 19.8947H9.5225C9.85387 19.8947 10.1225 19.626 10.1225 19.2947C10.1225 18.9633 9.85387 18.6947 9.5225 18.6947H8.32591C7.98923 18.6947 7.78285 18.6532 7.6279 18.5891C7.47527 18.5259 7.32802 18.4224 7.1355 18.2273C6.86632 17.9545 6.7879 17.5548 6.7879 16.9188L6.78789 7.11662C6.78789 6.34599 6.88724 5.98574 7.1594 5.72884C7.39341 5.50795 7.56002 5.42021 7.71543 5.37438C7.8902 5.32284 8.09817 5.309 8.4639 5.309ZM16.0426 7.31993C16.4851 7.81604 16.8855 8.27726 17.06 8.49463H14.7856C14.575 8.49463 14.3735 8.41127 14.2253 8.26368C14.0772 8.11617 13.9944 7.91656 13.9944 7.70891V5.37367C14.1835 5.45436 14.4567 5.62626 14.8053 5.97478C15.0248 6.19433 15.5395 6.75582 16.0426 7.31993Z" fill="#909090"/>
<path d="M9.4999 11.374C9.16853 11.374 8.8999 11.6427 8.8999 11.974C8.8999 12.3054 9.16853 12.574 9.4999 12.574H13.8377C14.1691 12.574 14.4377 12.3054 14.4377 11.974C14.4377 11.6427 14.1691 11.374 13.8377 11.374H9.4999Z" fill="#909090"/>
<path d="M8.8999 14.974C8.8999 14.6427 9.16853 14.374 9.4999 14.374H11.1407C11.4721 14.374 11.7407 14.6427 11.7407 14.974C11.7407 15.3054 11.4721 15.574 11.1407 15.574H9.4999C9.16853 15.574 8.8999 15.3054 8.8999 14.974Z" fill="#909090"/>
<path fill-rule="evenodd" clip-rule="evenodd" d="M16.6827 12.1276C17.3076 11.5029 18.3205 11.5031 18.9452 12.1279L19.3603 12.543C19.9851 13.1679 19.9851 14.181 19.3601 14.8058L14.9821 19.1829C14.7698 19.3952 14.505 19.5474 14.2147 19.6242L12.678 20.0305C11.9376 20.2262 11.2609 19.5511 11.4551 18.8102L11.8556 17.2816C11.9321 16.9897 12.0849 16.7235 12.2983 16.5102L16.6827 12.1276ZM17.9552 13.1178C17.8771 13.0397 17.7505 13.0396 17.6724 13.1177L13.5746 17.2139L14.273 17.9122L18.3703 13.8157C18.4484 13.7376 18.4484 13.611 18.3703 13.5329L17.9552 13.1178Z" fill="#909090"/>
</svg>
