<svg width="24" height="24" viewBox="0 0 24 24" fill="none" xmlns="http://www.w3.org/2000/svg">
<path fill-rule="evenodd" clip-rule="evenodd" d="M11.0648 19.9459C7.08719 19.4828 4 16.1019 4 12C4 7.58176 7.58178 4.00007 12 4C15.7777 4 18.9438 6.61838 19.7825 10.1393C18.9082 9.69155 17.924 9.42815 16.881 9.40039H18.2854C17.3935 7.24638 15.4266 5.6503 13.0537 5.28115C13.947 6.53026 14.5909 7.92775 14.9552 9.40039H16.5136C15.1516 9.43663 13.8897 9.87471 12.8422 10.6004H10.0255C9.95312 11.0619 9.91078 11.5293 9.89953 12C9.91079 12.471 9.95317 12.9387 10.0256 13.4004H10.5122C10.1316 14.2473 9.91992 15.1866 9.91992 16.1753C9.91992 16.5019 9.94303 16.8232 9.9877 17.1375C9.57838 16.3288 9.26194 15.4779 9.04478 14.6004H5.71492C6.53335 16.5763 8.25642 18.0826 10.3676 18.6028C10.5502 19.0787 10.785 19.5287 11.0648 19.9459ZM8.69922 12C8.70933 12.4706 8.74736 12.9381 8.81244 13.4004H5.34435C5.24974 12.9485 5.2 12.48 5.2 12C5.2 11.5202 5.24968 11.0521 5.34419 10.6004H8.81233C8.74732 11.0624 8.70933 11.5297 8.69922 12ZM10.285 9.40039C10.6343 8.1396 11.2135 6.94395 11.9999 5.87179C12.7862 6.94395 13.3654 8.1396 13.7147 9.40039H10.285ZM10.946 5.28119C10.0528 6.53029 9.4089 7.92777 9.04459 9.40039H5.7146C6.60644 7.24647 8.57322 5.65042 10.946 5.28119Z" fill="#909090"/>
<path d="M17.2972 14.1752C17.2972 13.8438 17.0285 13.5752 16.6972 13.5752C16.3658 13.5752 16.0972 13.8438 16.0972 14.1752V16.1752C16.0972 16.3343 16.1604 16.4869 16.2729 16.5995C16.3854 16.712 16.538 16.7752 16.6972 16.7752L18.6972 16.7752C19.0285 16.7752 19.2972 16.5066 19.2972 16.1752C19.2972 15.8438 19.0285 15.5752 18.6972 15.5752L17.2972 15.5752V14.1752Z" fill="#909090"/>
<path fill-rule="evenodd" clip-rule="evenodd" d="M12.0972 16.1752C12.0972 13.6347 14.1567 11.5752 16.6972 11.5752C19.2377 11.5752 21.2972 13.6347 21.2972 16.1752C21.2972 18.7157 19.2377 20.7752 16.6972 20.7752C14.1567 20.7752 12.0972 18.7157 12.0972 16.1752ZM16.6972 12.7752C14.8194 12.7752 13.2972 14.2974 13.2972 16.1752C13.2972 18.053 14.8194 19.5752 16.6972 19.5752C18.5749 19.5752 20.0972 18.053 20.0972 16.1752C20.0972 14.2974 18.5749 12.7752 16.6972 12.7752Z" fill="#909090"/>
</svg>
