<svg width="24" height="24" viewBox="0 0 24 24" fill="none" xmlns="http://www.w3.org/2000/svg">
<path fill-rule="evenodd" clip-rule="evenodd" d="M10.0257 10.6H12.8435C13.8998 9.86854 15.1741 9.42951 16.5491 9.40002H14.9552C14.5908 7.92753 13.947 6.53016 13.0538 5.28117C15.4265 5.65032 17.3933 7.24623 18.2852 9.40002H16.8454C17.9017 9.42268 18.8984 9.68697 19.7826 10.1398C18.9441 6.61866 15.7779 4 12 4C7.58174 4.00002 4 7.58173 4 12C4 16.1018 7.087 19.4826 11.0645 19.9459C10.7847 19.5287 10.55 19.0786 10.3674 18.6028C8.2562 18.0825 6.53315 16.5761 5.7148 14.6001H9.0448C9.26192 15.4776 9.57831 16.3284 9.98757 17.137C9.94298 16.823 9.91992 16.5021 9.91992 16.1758C9.91992 15.1868 10.1318 14.2472 10.5126 13.4001H10.0257C9.95324 12.9385 9.91088 12.4709 9.89962 12C9.91087 11.5291 9.95323 11.0616 10.0257 10.6ZM8.81249 13.4001C8.74744 12.9379 8.70942 12.4705 8.69931 12C8.70942 11.5295 8.74743 11.0622 8.81247 10.6H5.34426C5.24971 11.0518 5.2 11.5201 5.2 12C5.2 12.4799 5.24972 12.9482 5.34429 13.4001H8.81249ZM12 5.87179C11.2137 6.94385 10.6345 8.13937 10.2852 9.40002H13.7147C13.3654 8.13937 12.7862 6.94385 12 5.87179ZM9.04477 9.40002C9.4091 7.92753 10.0529 6.53017 10.9461 5.28118C8.57341 5.65035 6.60668 7.24625 5.71475 9.40002H9.04477Z" fill="#909090"/>
<path fill-rule="evenodd" clip-rule="evenodd" d="M12.0973 16.1745C12.0973 13.634 14.1567 11.5745 16.6973 11.5745C19.2378 11.5745 21.2973 13.634 21.2973 16.1745C21.2973 18.715 19.2378 20.7745 16.6973 20.7745C14.1567 20.7745 12.0973 18.715 12.0973 16.1745ZM16.6973 12.7745C14.8195 12.7745 13.2973 14.2968 13.2973 16.1745C13.2973 16.9297 13.5434 17.6273 13.9599 18.1916L18.7143 13.4372C18.15 13.0207 17.4524 12.7745 16.6973 12.7745ZM16.6973 19.5745C16.0082 19.5745 15.367 19.3695 14.8313 19.0172L19.5399 14.3086C19.8923 14.8442 20.0973 15.4854 20.0973 16.1745C20.0973 18.0523 18.575 19.5745 16.6973 19.5745Z" fill="#909090"/>
</svg>
