<svg width="24" height="24" viewBox="0 0 24 24" fill="none" xmlns="http://www.w3.org/2000/svg">
<path fill-rule="evenodd" clip-rule="evenodd" d="M5.71492 14.6004H9.04338C9.02726 14.3992 9.01904 14.1957 9.01904 13.9902C9.01904 12.2501 9.60861 10.6526 10.5921 9.40039H10.285C10.6343 8.1396 11.2135 6.94395 11.9999 5.87179C12.3669 6.37228 12.6889 6.89968 12.9634 7.44805C13.32 7.2675 13.6935 7.11732 14.0809 7.00077C13.788 6.40322 13.4448 5.82797 13.0537 5.28115C14.2652 5.46962 15.3709 5.97791 16.2817 6.71699C16.9965 6.74164 17.6843 6.87694 18.3296 7.10687C16.8663 5.21682 14.5753 4 12 4C7.58178 4.00007 4 7.58176 4 12C4 16.4182 7.58166 19.9999 11.9999 20C12.0267 20 12.0537 19.9999 12.0805 19.9996C11.5513 19.6243 11.0742 19.1759 10.6627 18.6685C8.41759 18.2208 6.57117 16.6676 5.71492 14.6004ZM8.81244 13.4004C8.74736 12.9381 8.70933 12.4706 8.69922 12C8.70933 11.5297 8.74732 11.0624 8.81233 10.6004H5.34419C5.24968 11.0521 5.2 11.5202 5.2 12C5.2 12.48 5.24974 12.9485 5.34435 13.4004H8.81244ZM9.04459 9.40039C9.4089 7.92777 10.0528 6.53029 10.946 5.28119C8.57322 5.65042 6.60644 7.24647 5.7146 9.40039H9.04459Z" fill="#909090"/>
<path fill-rule="evenodd" clip-rule="evenodd" d="M17.265 9.56954C16.7954 8.94996 16.0723 8.6348 15.3599 8.57442C14.6492 8.51419 13.8925 8.70168 13.3228 9.16019C13.1115 9.33025 13.0743 9.6378 13.239 9.85332L13.9172 10.7408C12.3792 10.8235 11.0985 11.9943 11.0913 13.51C11.0907 13.643 11.1431 13.7708 11.2369 13.8651C11.3308 13.9594 11.4583 14.0124 11.5913 14.0124H14.8828C14.0699 15.3866 13.7688 17.0212 13.9914 19.2349C14.0171 19.4904 14.2321 19.6849 14.4889 19.6849H17.4338C17.5842 19.6849 17.7265 19.6172 17.8215 19.5007C17.9164 19.3841 17.9539 19.231 17.9235 19.0838C17.4559 16.8191 17.6343 15.4 17.7971 14.3737L20.2336 15.3626C20.4854 15.4647 20.7727 15.3472 20.8806 15.0978C21.25 14.2437 21.0949 13.524 20.7622 12.9605C20.6286 12.7344 20.462 12.5288 20.2975 12.3498L21.0611 12.0626C21.1978 12.0112 21.3051 11.9026 21.355 11.7653C21.4049 11.6281 21.3922 11.4758 21.3204 11.3487C20.975 10.7374 20.3155 10.379 19.7285 10.1936C19.1441 10.0091 18.4884 9.95101 18.0412 10.0751L18.031 10.0779C17.8876 10.1177 17.7589 10.1533 17.6452 10.193C17.5492 9.98474 17.4244 9.77993 17.265 9.56954ZM15.4589 11.1113L14.3771 9.69566C14.6505 9.58926 14.9626 9.54434 15.2754 9.57085C15.7669 9.6125 16.2036 9.82471 16.468 10.1736C16.7201 10.5062 16.8322 10.7831 16.8837 11.1018C16.915 11.2951 17.0561 11.4524 17.2449 11.5042C17.4337 11.5561 17.6354 11.493 17.761 11.3427C17.7959 11.3009 17.8246 11.2648 17.8477 11.2356L17.8564 11.2246C17.8759 11.1999 17.8877 11.185 17.8988 11.1717L17.906 11.1633C17.9159 11.1588 17.9369 11.1499 17.9761 11.1366C18.0462 11.1128 18.1475 11.0833 18.3085 11.0387C18.4997 10.9856 18.9439 10.9945 19.4273 11.1472C19.6374 11.2135 19.8276 11.2985 19.9889 11.3975L19.2167 11.6879C19.0576 11.7478 18.9398 11.8844 18.904 12.0505C18.8682 12.2167 18.9192 12.3897 19.0395 12.5098C19.1041 12.5743 19.1696 12.6373 19.2349 12.7C19.4822 12.9379 19.7258 13.1721 19.9011 13.469C20.0314 13.6896 20.1149 13.9335 20.0897 14.2249L17.589 13.21C17.4463 13.152 17.2849 13.1631 17.1514 13.24C17.018 13.3168 16.9274 13.4509 16.9059 13.6034C16.8877 13.7326 16.8651 13.8716 16.8408 14.0217C16.6827 14.9962 16.449 16.437 16.8309 18.6849H14.9482C14.797 16.4718 15.2604 15.0358 16.2264 13.8241C16.3461 13.6739 16.3693 13.4684 16.2859 13.2954C16.2026 13.1224 16.0275 13.0124 15.8355 13.0124H12.1753C12.4163 12.2945 13.1538 11.7362 14.0914 11.7362C14.373 11.7362 14.6402 11.7896 14.8839 11.8823C15.0927 11.9617 15.3288 11.8929 15.4624 11.7139C15.596 11.5348 15.5946 11.2888 15.4589 11.1113Z" fill="#909090"/>
</svg>
