<svg width="24" height="24" viewBox="0 0 24 24" fill="none" xmlns="http://www.w3.org/2000/svg">
<path d="M10.6113 9.00918C10.6113 8.67781 10.88 8.40918 11.2113 8.40918H15.5064C15.8377 8.40918 16.1064 8.67781 16.1064 9.00918C16.1064 9.34055 15.8377 9.60918 15.5064 9.60918H11.2113C10.88 9.60918 10.6113 9.34055 10.6113 9.00918Z" fill="#828B95"/>
<path d="M11.2113 11.0303C10.88 11.0303 10.6113 11.2989 10.6113 11.6303C10.6113 11.9616 10.88 12.2303 11.2113 12.2303H14.0602C14.3916 12.2303 14.6602 11.9616 14.6602 11.6303C14.6602 11.2989 14.3916 11.0303 14.0602 11.0303H11.2113Z" fill="#828B95"/>
<path fill-rule="evenodd" clip-rule="evenodd" d="M6.566 8.31445C6.74728 8.25436 6.96324 8.20801 7.1792 8.20801C7.84642 8.20801 8.37334 8.49444 8.715 8.94187C9.04257 9.37086 9.1744 9.91112 9.16231 10.416C9.1502 10.9214 8.99286 11.4499 8.66839 11.8661C8.33309 12.2962 7.82379 12.5952 7.17918 12.5952C6.0733 12.5952 5.44147 11.7601 5.26185 10.9418C5.08706 10.1456 5.28068 9.13677 6.04744 8.57233C6.19877 8.46093 6.38668 8.3739 6.566 8.31445ZM6.9436 9.4535C6.84571 9.48595 6.78065 9.52267 6.75884 9.53873C6.48291 9.74184 6.32821 10.2029 6.43394 10.6846C6.53484 11.1442 6.81237 11.3952 7.17918 11.3952C7.41861 11.3952 7.59142 11.2958 7.72199 11.1283C7.86338 10.9469 7.95567 10.6787 7.96265 10.3872C7.96964 10.0953 7.89001 9.83876 7.76125 9.67014C7.64659 9.51998 7.47232 9.40801 7.1792 9.40801C7.12503 9.40801 7.03954 9.42169 6.9436 9.4535Z" fill="#828B95"/>
<path fill-rule="evenodd" clip-rule="evenodd" d="M5.49648 5.03223C4.06054 5.03223 2.89648 6.19629 2.89648 7.63223V14.5395C2.89648 15.9754 4.06054 17.1395 5.49648 17.1395H16.2602C17.6961 17.1395 18.8602 15.9754 18.8602 14.5395V7.63223C18.8602 6.19629 17.6961 5.03223 16.2602 5.03223H5.49648ZM4.09648 7.63223C4.09648 6.85903 4.72329 6.23223 5.49648 6.23223H16.2602C17.0334 6.23223 17.6602 6.85903 17.6602 7.63223V14.5395C17.6602 15.3127 17.0334 15.9395 16.2602 15.9395H11.1541C11.1547 15.8857 11.1511 15.8304 11.143 15.7737C10.9868 14.682 10.3887 13.9652 9.61025 13.5444C8.86184 13.1398 7.97077 13.0186 7.18217 13.0186C6.18138 13.0186 4.93718 13.2175 4.09648 14.0156V7.63223ZM4.65079 15.2262C5.07873 14.5089 6.04862 14.2186 7.18217 14.2186C7.87266 14.2186 8.53791 14.3288 9.0396 14.6C9.46699 14.831 9.79105 15.1839 9.92104 15.7581H5.28129C5.0311 15.7581 4.80695 15.6442 4.69104 15.5112C4.63661 15.4487 4.61809 15.3966 4.61356 15.3632C4.60989 15.3361 4.61075 15.2933 4.65079 15.2262Z" fill="#828B95"/>
<path d="M8.56992 19.2009C7.62405 19.2009 6.79178 18.7145 6.30957 17.9783H17.9159C19.0204 17.9783 19.9159 17.0828 19.9159 15.9783V8.03613C20.6326 8.52157 21.1036 9.34235 21.1036 10.2731V16.2009C21.1036 17.8578 19.7604 19.2009 18.1036 19.2009H8.56992Z" fill="#828B95"/>
</svg>
