<svg width="24" height="24" viewBox="0 0 24 24" fill="none" xmlns="http://www.w3.org/2000/svg">
<path fill-rule="evenodd" clip-rule="evenodd" d="M12.4502 7.96562C12.4502 7.7171 12.2487 7.51562 12.0002 7.51562C11.7517 7.51562 11.5502 7.7171 11.5502 7.96563L11.5502 14.4191C11.5502 14.6676 11.7517 14.8691 12.0002 14.8691C12.2487 14.8691 12.4502 14.6676 12.4502 14.4191L12.4502 7.96562ZM12.6501 17.2354C12.6501 16.8764 12.3591 16.5854 12.0001 16.5854C11.6411 16.5854 11.3501 16.8764 11.3501 17.2354L11.3501 17.586C11.3501 17.9449 11.6411 18.236 12.0001 18.236C12.3591 18.236 12.6501 17.9449 12.6501 17.586V17.2354Z" fill="black"/>
<path d="M12.4502 7.96562C12.4502 7.7171 12.2487 7.51562 12.0002 7.51562C11.7517 7.51562 11.5502 7.7171 11.5502 7.96563L11.5502 14.4191C11.5502 14.6676 11.7517 14.8691 12.0002 14.8691C12.2487 14.8691 12.4502 14.6676 12.4502 14.4191L12.4502 7.96562Z" fill="black"/>
<path d="M12.6501 17.2354C12.6501 16.8764 12.3591 16.5854 12.0001 16.5854C11.6411 16.5854 11.3501 16.8764 11.3501 17.2354L11.3501 17.586C11.3501 17.9449 11.6411 18.236 12.0001 18.236C12.3591 18.236 12.6501 17.9449 12.6501 17.586V17.2354Z" fill="black"/>
</svg>
