<svg width="24" height="24" viewBox="0 0 24 24" fill="none" xmlns="http://www.w3.org/2000/svg">
<path d="M12.6002 5.70938C12.6002 5.378 12.3316 5.10938 12.0002 5.10938C11.6688 5.10938 11.4002 5.378 11.4002 5.70938V14.4177C11.4002 14.7491 11.6688 15.0177 12.0002 15.0177C12.3316 15.0177 12.6002 14.7491 12.6002 14.4177V5.70938Z" fill="black"/>
<path d="M12.8002 17.5297C12.8002 17.0879 12.442 16.7297 12.0002 16.7297C11.5584 16.7297 11.2002 17.0879 11.2002 17.5297L11.2002 18.0883C11.2002 18.5301 11.5584 18.8883 12.0002 18.8883C12.442 18.8883 12.8002 18.5301 12.8002 18.0883L12.8002 17.5297Z" fill="black"/>
</svg>
