<svg width="24" height="24" viewBox="0 0 24 24" fill="none" xmlns="http://www.w3.org/2000/svg">
<path d="M12.5496 6.52461C12.5496 6.22085 12.3034 5.97461 11.9996 5.97461C11.6959 5.97461 11.4496 6.22085 11.4496 6.52461L11.4496 14.4185C11.4496 14.7222 11.6959 14.9685 11.9996 14.9685C12.3034 14.9685 12.5496 14.7222 12.5496 14.4185L12.5496 6.52461Z" fill="black"/>
<path d="M12.7505 17.3302C12.7505 16.916 12.4147 16.5802 12.0005 16.5802C11.5863 16.5802 11.2505 16.916 11.2505 17.3302V17.7941C11.2505 18.2083 11.5863 18.5441 12.0005 18.5441C12.4147 18.5441 12.7505 18.2083 12.7505 17.7941V17.3302Z" fill="black"/>
</svg>
