<svg width="24" height="24" viewBox="0 0 24 24" fill="none" xmlns="http://www.w3.org/2000/svg">
<path d="M8.54805 3.7207C8.98987 3.7207 9.34805 4.07888 9.34805 4.5207V5.01562H14.6279V4.5207C14.6279 4.07888 14.9861 3.7207 15.4279 3.7207C15.8698 3.7207 16.2279 4.07888 16.2279 4.5207V5.01562H17.3062C18.7973 5.01562 20.0062 6.22446 20.0062 7.71562V9.10689C20.0062 9.43826 19.7375 9.70689 19.4062 9.70689C19.0748 9.70689 18.8062 9.43826 18.8062 9.10689V7.71562C18.8062 6.8872 18.1346 6.21563 17.3062 6.21563H16.2279V6.95039C16.2279 7.39222 15.8698 7.75039 15.4279 7.75039C14.9861 7.75039 14.6279 7.39222 14.6279 6.95039V6.21563H9.34805V6.95039C9.34805 7.39222 8.98987 7.75039 8.54805 7.75039C8.10622 7.75039 7.74805 7.39222 7.74805 6.95039V6.21563H6.68975C5.86132 6.21563 5.18975 6.8872 5.18975 7.71563V16.2998C5.18975 17.1282 5.86132 17.7998 6.68975 17.7998H10.2924C10.6238 17.7998 10.8924 18.0684 10.8924 18.3998C10.8924 18.7312 10.6238 18.9998 10.2924 18.9998H6.68975C5.19858 18.9998 3.98975 17.791 3.98975 16.2998V7.71563C3.98975 6.22446 5.19858 5.01562 6.68975 5.01562H7.74805V4.5207C7.74805 4.07888 8.10622 3.7207 8.54805 3.7207Z" fill="#333333"/>
<path fill-rule="evenodd" clip-rule="evenodd" d="M7.17383 10.1174C7.17383 9.67556 7.532 9.31738 7.97383 9.31738H8.78193C9.22376 9.31738 9.58193 9.67556 9.58193 10.1174V10.9635C9.58193 11.4053 9.22376 11.7635 8.78193 11.7635H7.97383C7.532 11.7635 7.17383 11.4053 7.17383 10.9635V10.1174Z" fill="#333333"/>
<path fill-rule="evenodd" clip-rule="evenodd" d="M16.0692 10.2207C13.5287 10.2207 11.4692 12.2802 11.4692 14.8207C11.4692 17.3612 13.5287 19.4207 16.0692 19.4207C18.6097 19.4207 20.6692 17.3612 20.6692 14.8207C20.6692 12.2802 18.6097 10.2207 16.0692 10.2207ZM12.6692 14.8207C12.6692 12.9429 14.1915 11.4207 16.0692 11.4207C16.817 11.4207 17.5084 11.6621 18.0697 12.0712L13.3198 16.8212C12.9107 16.2599 12.6692 15.5685 12.6692 14.8207ZM14.1861 17.652L18.9005 12.9375C19.2598 13.4767 19.4692 14.1242 19.4692 14.8207C19.4692 16.6985 17.947 18.2207 16.0692 18.2207C15.3728 18.2207 14.7252 18.0113 14.1861 17.652Z" fill="#333333"/>
</svg>
