<svg width="24" height="24" viewBox="0 0 24 24" fill="none" xmlns="http://www.w3.org/2000/svg">
<path fill-rule="evenodd" clip-rule="evenodd" d="M12 4.72367L13.9248 8.81721C14.0241 9.02836 14.222 9.17616 14.4527 9.21134L18.8129 9.87634L15.6359 13.1267C15.4804 13.2858 15.4098 13.5094 15.4457 13.7289L16.1897 18.2818L12.3381 16.1566C12.1276 16.0404 11.8723 16.0404 11.6618 16.1566L7.81026 18.2818L8.55424 13.7289C8.59012 13.5094 8.5195 13.2858 8.364 13.1267L5.18698 9.87634L9.5472 9.21134C9.77787 9.17616 9.97584 9.02836 10.0751 8.81721L12 4.72367ZM11.2164 3.57004C11.5309 2.90113 12.469 2.90113 12.7835 3.57004L14.8973 8.06527L19.6118 8.7843C20.3538 8.89746 20.5722 9.7932 20.0991 10.2772L16.6707 13.7848L17.4812 18.7445C17.5884 19.4009 16.9042 20.0467 16.2098 19.6635L12 17.3405L7.79009 19.6635C7.09572 20.0467 6.41146 19.4009 6.51873 18.7445L7.3292 13.7848L3.9008 10.2772C3.4277 9.7932 3.64616 8.89746 4.38813 8.7843L9.10266 8.06527L11.2164 3.57004Z" fill="#333333"/>
</svg>
