<svg width="24" height="24" viewBox="0 0 24 24" fill="none" xmlns="http://www.w3.org/2000/svg">
<path fill-rule="evenodd" clip-rule="evenodd" d="M17.3005 8.68359C17.0249 9.95436 15.8939 10.9062 14.5405 10.9062C13.1872 10.9062 12.0562 9.95436 11.7805 8.68359H4.75644C4.42507 8.68359 4.15644 8.41496 4.15644 8.08359C4.15644 7.75222 4.42507 7.48359 4.75645 7.48359H11.7798C12.0543 6.21126 13.1861 5.25781 14.5405 5.25781C15.895 5.25781 17.0267 6.21126 17.3012 7.48359H19.2437C19.5751 7.48359 19.8438 7.75222 19.8438 8.08359C19.8438 8.41496 19.5751 8.68359 19.2437 8.68359H17.3005ZM16.1647 8.08203C16.1647 8.97906 15.4376 9.70625 14.5405 9.70625C13.6435 9.70625 12.9163 8.97906 12.9163 8.08203C12.9163 7.185 13.6435 6.45781 14.5405 6.45781C15.4376 6.45781 16.1647 7.185 16.1647 8.08203Z" fill="#333333"/>
<path fill-rule="evenodd" clip-rule="evenodd" d="M4.75625 15.3135C4.42488 15.3135 4.15625 15.5821 4.15625 15.9135C4.15625 16.2448 4.42488 16.5135 4.75625 16.5135H6.59506C6.86919 17.7863 8.00117 18.7402 9.35596 18.7402C10.7107 18.7402 11.8427 17.7863 12.1169 16.5135H19.2436C19.5749 16.5135 19.8436 16.2448 19.8436 15.9135C19.8436 15.5821 19.5749 15.3135 19.2436 15.3135H12.1158C11.8397 14.0432 10.7089 13.0918 9.35596 13.0918C8.00297 13.0918 6.8722 14.0432 6.59615 15.3135H4.75625ZM9.35596 14.2918C8.45893 14.2918 7.73174 15.019 7.73174 15.916C7.73174 16.813 8.45893 17.5402 9.35596 17.5402C10.253 17.5402 10.9802 16.813 10.9802 15.916C10.9802 15.019 10.253 14.2918 9.35596 14.2918Z" fill="#333333"/>
</svg>
