<svg width="24" height="24" viewBox="0 0 24 24" fill="none" xmlns="http://www.w3.org/2000/svg">
<path fill-rule="evenodd" clip-rule="evenodd" d="M4.87508 8.02738C4.12163 7.1143 4.77111 5.73633 5.95491 5.73633H18.0659C19.2518 5.73633 19.9006 7.1185 19.1429 8.03078L14.5097 13.6097C14.3755 13.7712 14.302 13.9746 14.302 14.1847L14.302 19.3375C14.302 20.0683 13.6025 20.596 12.8998 20.3951L10.7022 19.7671C10.1012 19.5953 9.68687 19.046 9.68687 18.421L9.68687 14.182C9.68687 13.9729 9.61409 13.7704 9.48104 13.6092L4.87508 8.02738ZM5.95491 6.93633C5.7858 6.93633 5.69301 7.13318 5.80065 7.26362L10.4066 12.8454C10.7171 13.2217 10.8869 13.6942 10.8869 14.182L10.8869 18.421C10.8869 18.5103 10.9461 18.5888 11.0319 18.6133L13.102 19.2049L13.102 14.1847C13.102 13.6946 13.2734 13.22 13.5865 12.843L18.2198 7.26411C18.328 7.13378 18.2353 6.93633 18.0659 6.93633H5.95491Z" fill="#333333"/>
</svg>
