<svg width="24" height="24" viewBox="0 0 24 24" fill="none" xmlns="http://www.w3.org/2000/svg">
<path d="M15.7399 8.3403C14.5499 7.0203 13.5199 5.8703 13.5699 4.3503C13.5699 4.0603 13.4299 3.7803 13.1899 3.6303C12.9499 3.4803 12.6499 3.4703 12.3999 3.6003C9.5399 5.1003 5.3999 9.4403 5.3999 13.3503C5.3999 16.1303 7.2399 18.5603 10.0999 19.5403C10.1299 19.5403 10.1499 19.5403 10.1799 19.5503C10.1999 19.5503 10.2299 19.5603 10.2499 19.5603C10.2599 19.5603 10.2799 19.5603 10.2899 19.5603C10.3299 19.5603 10.3799 19.5503 10.4199 19.5403C10.4299 19.5403 10.4499 19.5403 10.4599 19.5403C10.5299 19.5203 10.5899 19.4903 10.6499 19.4403C10.6499 19.4403 10.6499 19.4403 10.6599 19.4403C10.6699 19.4403 10.6799 19.4203 10.6899 19.4103C10.7299 19.3703 10.7599 19.3303 10.7899 19.2903C10.7999 19.2703 10.8199 19.2503 10.8299 19.2203C10.8299 19.2003 10.8499 19.1903 10.8599 19.1703C10.8599 19.1503 10.8599 19.1303 10.8599 19.1103C10.8599 19.0703 10.8799 19.0303 10.8799 18.9903C10.8799 18.9503 10.8799 18.9203 10.8799 18.8803C10.8799 18.8403 10.8599 18.8103 10.8499 18.7703C10.8399 18.7303 10.8199 18.7003 10.7899 18.6603C10.7799 18.6403 10.7799 18.6203 10.7599 18.6003C9.9799 17.6103 9.5999 16.7503 9.5999 15.9703C9.5999 14.1903 10.7599 12.9703 12.0399 12.0303C12.2999 13.0003 12.8699 13.7403 13.3799 14.4103C13.9299 15.1203 14.3999 15.7303 14.3999 16.4703C14.3999 17.6503 13.3499 18.4903 13.3399 18.5003C13.3399 18.5003 13.3399 18.5103 13.3199 18.5203C13.2899 18.5503 13.2599 18.5803 13.2399 18.6103C13.2199 18.6403 13.1899 18.6703 13.1699 18.7003C13.1499 18.7303 13.1499 18.7703 13.1399 18.8003C13.1299 18.8403 13.1099 18.8803 13.1099 18.9203C13.1099 18.9503 13.1099 18.9803 13.1099 19.0203C13.1099 19.0703 13.1099 19.1103 13.1299 19.1603C13.1299 19.1603 13.1299 19.1703 13.1299 19.1803C13.1299 19.2103 13.1599 19.2303 13.1699 19.2503C13.1899 19.2803 13.1899 19.3203 13.2199 19.3503C13.2199 19.3503 13.2299 19.3503 13.2399 19.3703C13.2899 19.4303 13.3499 19.4803 13.4199 19.5203C13.4299 19.5203 13.4399 19.5303 13.4599 19.5403C13.5299 19.5703 13.5999 19.5903 13.6799 19.5903C13.6799 19.5903 13.6899 19.5903 13.6999 19.5903C13.7699 19.5903 13.8299 19.5803 13.8899 19.5603C14.0799 19.4903 18.5799 17.8803 18.5799 14.0703C18.5799 11.5403 17.0599 9.8503 15.7199 8.3603L15.7399 8.3403ZM15.4699 17.3303C15.5399 17.0603 15.5999 16.7803 15.5999 16.4803C15.5999 15.3303 14.9499 14.4903 14.3299 13.6903C13.7599 12.9503 13.2199 12.2503 13.1199 11.3003C13.0899 11.0103 12.9099 10.7603 12.6499 10.6403C12.3899 10.5203 12.0899 10.5403 11.8599 10.7003C10.2499 11.8003 8.4099 13.4003 8.4099 15.9903C8.4099 16.4703 8.5199 16.9703 8.7199 17.4803C7.3999 16.4803 6.6199 15.0203 6.6199 13.3703C6.5999 10.3103 9.8599 6.5903 12.3999 4.9903C12.5999 6.6603 13.7399 7.9203 14.8499 9.1503C16.1599 10.6103 17.3999 11.9903 17.3999 14.0603C17.3999 15.5303 16.4399 16.6203 15.4699 17.3403V17.3303Z" fill="#333333"/>
</svg>
