<svg width="24" height="24" viewBox="0 0 24 24" fill="none" xmlns="http://www.w3.org/2000/svg">
<path d="M6.77285 20.8829C6.44285 20.8829 6.17285 20.6129 6.17285 20.2829V6.42285C6.17285 6.24285 6.25285 6.08285 6.38285 5.96285C6.47285 5.88285 7.37285 5.17285 9.77285 5.17285C11.0029 5.17285 12.0029 5.51285 12.9629 5.85285C13.8829 6.16285 14.7429 6.46285 15.7729 6.46285C17.7029 6.46285 18.3929 5.96285 18.3929 5.95285C18.5729 5.81285 18.8229 5.78285 19.0329 5.88285C19.2329 5.98285 19.3729 6.18285 19.3729 6.41285V14.1229C19.3729 14.2929 19.2929 14.4629 19.1629 14.5829C19.0729 14.6629 18.1729 15.3729 15.7729 15.3729C14.5529 15.3729 13.5429 15.0329 12.5829 14.7029C11.6629 14.3929 10.8029 14.0929 9.77285 14.0929C8.44285 14.0929 7.70285 14.3329 7.37285 14.4829V20.2829C7.37285 20.6129 7.10285 20.8829 6.77285 20.8829ZM9.77285 12.8929C11.0029 12.8929 12.0029 13.2329 12.9629 13.5729C13.8829 13.8829 14.7429 14.1829 15.7729 14.1829C17.1029 14.1829 17.8429 13.9429 18.1729 13.7929V7.36285C17.6329 7.53285 16.8629 7.67285 15.7729 7.67285C14.5529 7.67285 13.5429 7.33285 12.5829 6.99285C11.6629 6.68285 10.8029 6.38285 9.77285 6.38285C8.44285 6.38285 7.70285 6.62285 7.37285 6.77285V13.2129C7.90285 13.0429 8.68285 12.9029 9.77285 12.9029V12.8929Z" fill="#333333"/>
</svg>
