<svg width="24" height="24" viewBox="0 0 24 24" fill="none" xmlns="http://www.w3.org/2000/svg">
<path fill-rule="evenodd" clip-rule="evenodd" d="M6.64746 9.71133C6.64746 8.82767 7.36381 8.11133 8.24746 8.11133H15.7523C16.636 8.11133 17.3523 8.82767 17.3523 9.71133V10.1459C17.3523 11.0296 16.636 11.7459 15.7523 11.7459H8.24746C7.36381 11.7459 6.64746 11.0296 6.64746 10.1459V9.71133ZM8.24746 9.31133C8.02655 9.31133 7.84746 9.49041 7.84746 9.71133V10.1459C7.84746 10.3668 8.02655 10.5459 8.24746 10.5459H15.7523C15.9733 10.5459 16.1523 10.3668 16.1523 10.1459V9.71133C16.1523 9.49041 15.9733 9.31133 15.7523 9.31133H8.24746Z" fill="#909090"/>
<path d="M7.56436 14.5098C7.13995 14.5098 6.7959 14.8538 6.7959 15.2782C6.7959 15.7026 7.13995 16.0467 7.56436 16.0467H12.4442C12.8686 16.0467 13.2127 15.7026 13.2127 15.2782C13.2127 14.8538 12.8686 14.5098 12.4442 14.5098H7.56436Z" fill="#909090"/>
<path fill-rule="evenodd" clip-rule="evenodd" d="M3.9917 7.70684C3.9917 6.21567 5.20053 5.00684 6.6917 5.00684H17.3081C18.7993 5.00684 20.0081 6.21567 20.0081 7.70684V16.291C20.0081 17.7822 18.7993 18.991 17.3081 18.991H6.6917C5.20053 18.991 3.9917 17.7822 3.9917 16.291V7.70684ZM6.6917 6.20684C5.86327 6.20684 5.1917 6.87841 5.1917 7.70684V16.291C5.1917 17.1194 5.86327 17.791 6.6917 17.791H17.3081C18.1365 17.791 18.8081 17.1194 18.8081 16.291V7.70684C18.8081 6.87841 18.1365 6.20684 17.3081 6.20684H6.6917Z" fill="#909090"/>
</svg>
