<svg width="24" height="24" viewBox="0 0 24 24" fill="none" xmlns="http://www.w3.org/2000/svg">
<rect x="10.416" y="3.85645" width="3.16825" height="14.7852" rx="1" stroke="black" stroke-width="1.2"/>
<rect x="4.60742" y="11.249" width="3.16825" height="7.39258" rx="1" stroke="black" stroke-width="1.2"/>
<rect x="16.2241" y="9.13672" width="3.16825" height="9.50474" rx="1" stroke="black" stroke-width="1.2"/>
<path fill-rule="evenodd" clip-rule="evenodd" d="M9.81592 4.85586C9.81592 3.9722 10.5323 3.25586 11.4159 3.25586H12.5842C13.4678 3.25586 14.1842 3.9722 14.1842 4.85586V17.641C14.1842 18.5247 13.4678 19.241 12.5842 19.241H11.4159C10.5323 19.241 9.81592 18.5247 9.81592 17.641V4.85586ZM11.4159 4.45586C11.195 4.45586 11.0159 4.63495 11.0159 4.85586V17.641C11.0159 17.8619 11.195 18.041 11.4159 18.041H12.5842C12.8051 18.041 12.9842 17.8619 12.9842 17.641V4.85586C12.9842 4.63494 12.8051 4.45586 12.5842 4.45586H11.4159Z" fill="black"/>
<path fill-rule="evenodd" clip-rule="evenodd" d="M4.00732 12.2484C4.00732 11.3648 4.72367 10.6484 5.60732 10.6484H6.77557C7.65923 10.6484 8.37557 11.3648 8.37557 12.2484V17.641C8.37557 18.5247 7.65923 19.241 6.77557 19.241H5.60732C4.72367 19.241 4.00732 18.5247 4.00732 17.641V12.2484ZM5.60732 11.8484C5.38641 11.8484 5.20732 12.0275 5.20732 12.2484V17.641C5.20732 17.8619 5.38641 18.041 5.60732 18.041H6.77557C6.99649 18.041 7.17557 17.8619 7.17557 17.641V12.2484C7.17557 12.0275 6.99649 11.8484 6.77557 11.8484H5.60732Z" fill="black"/>
<path fill-rule="evenodd" clip-rule="evenodd" d="M17.224 8.53613C16.3404 8.53613 15.624 9.25248 15.624 10.1361V17.6409C15.624 18.5245 16.3404 19.2409 17.224 19.2409H18.3923C19.2759 19.2409 19.9923 18.5245 19.9923 17.6409V10.1361C19.9923 9.25248 19.2759 8.53613 18.3923 8.53613H17.224ZM16.824 10.1361C16.824 9.91522 17.0031 9.73613 17.224 9.73613H18.3923C18.6132 9.73613 18.7923 9.91522 18.7923 10.1361V17.6409C18.7923 17.8618 18.6132 18.0409 18.3923 18.0409H17.224C17.0031 18.0409 16.824 17.8618 16.824 17.6409V10.1361Z" fill="black"/>
</svg>
