<svg width="24" height="24" viewBox="0 0 24 24" fill="none" xmlns="http://www.w3.org/2000/svg">
<path d="M4.91055 4.95898C4.57918 4.95898 4.31055 5.22761 4.31055 5.55898C4.31055 5.89036 4.57918 6.15898 4.91055 6.15898H15.1088C15.4402 6.15898 15.7088 5.89036 15.7088 5.55898C15.7088 5.22761 15.4402 4.95898 15.1088 4.95898H4.91055Z" fill="#828B95"/>
<path fill-rule="evenodd" clip-rule="evenodd" d="M13.3024 10.9862C13.4873 10.4447 14.2531 10.4447 14.438 10.9862L14.9209 12.4002C14.9809 12.576 15.119 12.7141 15.2948 12.7741L16.7088 13.257C17.2503 13.4419 17.2503 14.2077 16.7088 14.3926L15.2948 14.8755C15.119 14.9355 14.9809 15.0736 14.9209 15.2494L14.438 16.6634C14.2531 17.2049 13.4873 17.2049 13.3024 16.6634L12.8195 15.2494C12.7595 15.0736 12.6214 14.9355 12.4456 14.8755L11.0316 14.3926C10.4901 14.2077 10.4901 13.4419 11.0316 13.257L12.4456 12.7741C12.6214 12.7141 12.7595 12.576 12.8195 12.4002L13.3024 10.9862ZM13.7659 12.7234L13.8702 12.4178L13.9745 12.7234C14.1346 13.1922 14.5028 13.5604 14.9716 13.7205L15.2771 13.8248L14.9716 13.9291C14.5028 14.0892 14.1346 14.4574 13.9745 14.9262L13.8702 15.2317L13.7659 14.9262C13.6058 14.4574 13.2376 14.0892 12.7688 13.9291L12.4633 13.8248L12.7688 13.7205C13.2376 13.5604 13.6058 13.1922 13.7659 12.7234Z" fill="#828B95"/>
<path d="M16.2173 15.8977C16.1773 16.0149 16.0852 16.107 15.968 16.147L15.4524 16.3231C15.0914 16.4463 15.0914 16.9569 15.4524 17.0801L15.968 17.2562C16.0852 17.2962 16.1773 17.3883 16.2173 17.5055L16.3934 18.0211C16.5166 18.3821 17.0272 18.3821 17.1504 18.0211L17.3265 17.5055C17.3666 17.3883 17.4586 17.2962 17.5758 17.2562L18.0914 17.0801C18.4524 16.9569 18.4524 16.4463 18.0914 16.3231L17.5758 16.147C17.4586 16.107 17.3666 16.0149 17.3265 15.8977L17.1504 15.3821C17.0272 15.0211 16.5166 15.0211 16.3934 15.3821L16.2173 15.8977Z" fill="#828B95"/>
<path fill-rule="evenodd" clip-rule="evenodd" d="M21.084 14.6318C21.084 18.1823 18.2058 21.0605 14.6553 21.0605C11.1048 21.0605 8.22656 18.1823 8.22656 14.6318C8.22656 11.0814 11.1048 8.20312 14.6553 8.20312C18.2058 8.20312 21.084 11.0814 21.084 14.6318ZM19.884 14.6318C19.884 17.5196 17.543 19.8605 14.6553 19.8605C11.7675 19.8605 9.42656 17.5196 9.42656 14.6318C9.42656 11.7441 11.7675 9.40312 14.6553 9.40312C17.543 9.40312 19.884 11.7441 19.884 14.6318Z" fill="#828B95"/>
<path d="M4.31055 8.85293C4.31055 8.52156 4.57918 8.25293 4.91055 8.25293H8.65371C8.98508 8.25293 9.25371 8.52156 9.25371 8.85293C9.25371 9.1843 8.98508 9.45293 8.65371 9.45293H4.91055C4.57918 9.45293 4.31055 9.1843 4.31055 8.85293Z" fill="#828B95"/>
<path d="M4.91055 11.5469C4.57918 11.5469 4.31055 11.8155 4.31055 12.1469C4.31055 12.4782 4.57918 12.7469 4.91055 12.7469H6.77529C7.10666 12.7469 7.37529 12.4782 7.37529 12.1469C7.37529 11.8155 7.10666 11.5469 6.77529 11.5469H4.91055Z" fill="#828B95"/>
</svg>
