<svg width="24" height="24" viewBox="0 0 24 24" fill="none" xmlns="http://www.w3.org/2000/svg">
<path fill-rule="evenodd" clip-rule="evenodd" d="M16.4665 4.30781C16.8947 3.87533 17.6299 4.06056 17.8022 4.64434L18.1785 5.91968L19.411 6.26534C19.9983 6.43006 20.1926 7.16513 19.7634 7.59855L18.0689 9.30963C17.786 9.59529 17.3698 9.70386 16.9834 9.5928L15.7271 9.23168L13.3976 11.5612C13.4468 11.7077 13.4735 11.8646 13.4735 12.0277C13.4735 12.8357 12.8186 13.4906 12.0107 13.4906C11.2027 13.4906 10.5478 12.8357 10.5478 12.0277C10.5478 11.2198 11.2027 10.5648 12.0107 10.5648C12.2131 10.5648 12.406 10.606 12.5814 10.6804L14.8737 8.38798L14.4964 7.10523C14.3833 6.72088 14.4882 6.30544 14.7701 6.02077L16.4665 4.30781ZM16.8428 5.63316L15.6643 6.82321L16.0312 8.07051L17.258 8.42312L18.4324 7.23719L17.5349 6.98548C17.3361 6.92972 17.1799 6.77563 17.1215 6.57757L16.8428 5.63316Z" fill="#828B95"/>
<path d="M12.363 5.34794C11.0224 5.27732 9.69156 5.61171 8.54356 6.30765C7.39556 7.00358 6.48352 8.02884 5.92605 9.25009C5.36859 10.4714 5.1915 11.8321 5.4178 13.1554C5.64411 14.4786 6.26335 15.7032 7.19499 16.6697C8.12662 17.6363 9.32754 18.3002 10.6416 18.5751C11.9556 18.85 13.3219 18.7231 14.5629 18.2109C15.8038 17.6988 16.862 16.8251 17.5997 15.7035C18.3374 14.5819 18.7206 13.2643 18.6994 11.922C18.6941 11.5907 18.9585 11.3178 19.2898 11.3126C19.6211 11.3073 19.894 11.5717 19.8992 11.903C19.9242 13.4861 19.4723 15.0401 18.6023 16.363C17.7322 17.6858 16.4842 18.7162 15.0207 19.3202C13.5571 19.9242 11.9456 20.0738 10.3959 19.7497C8.84611 19.4255 7.42975 18.6425 6.33098 17.5025C5.23221 16.3625 4.50189 14.9183 4.23498 13.3576C3.96807 11.797 4.17693 10.1921 4.83441 8.75179C5.49188 7.31145 6.56753 6.10226 7.92148 5.28148C9.27544 4.4607 10.845 4.06631 12.4261 4.1496C12.7571 4.16703 13.0112 4.44942 12.9938 4.78033C12.9763 5.11124 12.6939 5.36537 12.363 5.34794Z" fill="#828B95"/>
<path d="M12.3326 8.12729C11.5432 8.06223 10.7526 8.23823 10.0654 8.63202C9.37814 9.02582 8.82656 9.61887 8.48353 10.3328C8.1405 11.0468 8.02217 11.848 8.14418 12.6306C8.26619 13.4132 8.62279 14.1404 9.16687 14.716C9.71094 15.2917 10.4169 15.6887 11.1914 15.8546C11.9659 16.0205 12.7725 15.9475 13.5046 15.6452C14.2368 15.343 14.86 14.8257 15.2918 14.1617C15.7237 13.4977 15.944 12.7184 15.9235 11.9265C15.9149 11.5953 16.1765 11.3198 16.5078 11.3112C16.8391 11.3027 17.1145 11.5643 17.1231 11.8955C17.1499 12.9301 16.8621 13.9485 16.2978 14.816C15.7335 15.6836 14.9192 16.3595 13.9626 16.7544C13.006 17.1494 11.952 17.2448 10.94 17.028C9.92805 16.8112 9.00566 16.2925 8.29477 15.5403C7.58387 14.7882 7.11792 13.838 6.9585 12.8154C6.79908 11.7929 6.95369 10.746 7.4019 9.81312C7.85011 8.88027 8.57082 8.10538 9.46879 7.59084C10.3668 7.0763 11.3997 6.84634 12.4312 6.93134C12.7614 6.95856 13.0071 7.24835 12.9798 7.5786C12.9526 7.90885 12.6628 8.15451 12.3326 8.12729Z" fill="#828B95"/>
</svg>
