<svg width="24" height="24" viewBox="0 0 24 24" fill="none" xmlns="http://www.w3.org/2000/svg">
<path fill-rule="evenodd" clip-rule="evenodd" d="M7.22755 6.97241C8.12408 5.22582 10.2333 4.55974 11.9362 5.52158C12.3122 5.73395 12.4379 6.20292 12.2486 6.57173L6.89288 17.0055C6.34597 18.071 5.05101 18.4847 4.00288 17.8927C2.9721 17.3105 2.59901 15.9896 3.13794 14.9397L7.22755 6.97241ZM10.9863 6.40307C9.97082 6.04716 8.82636 6.48545 8.29512 7.5204L4.20551 15.4877C3.95197 15.9816 4.13963 16.5918 4.59304 16.8479C5.0291 17.0942 5.57975 16.9359 5.8253 16.4575L10.9863 6.40307ZM13.2515 6.97241C14.1481 5.22582 16.2572 4.55974 17.9602 5.52158C18.3362 5.73395 18.4619 6.20292 18.2726 6.57173L12.9169 17.0055C12.3699 18.071 11.075 18.4847 10.0269 17.8927C8.99608 17.3105 8.623 15.9896 9.16192 14.9397L13.2515 6.97241ZM17.0103 6.40307C15.9948 6.04716 14.8503 6.48545 14.3191 7.5204L10.2295 15.4877C9.97595 15.9816 10.1636 16.5918 10.617 16.8479C11.0531 17.0942 11.6037 16.9359 11.8493 16.4575L17.0103 6.40307ZM19.4646 8.33455C19.7974 8.42255 20.0717 8.72516 20.0717 9.13062L20.0721 16.0002C20.0721 17.2045 19.1348 18.23 17.9185 18.23C16.7013 18.23 15.7626 17.2031 15.7625 15.998L15.7624 14.3605C15.7624 14.2294 15.7934 14.099 15.854 13.9809L18.5385 8.75104C18.7299 8.37817 19.1279 8.24551 19.4646 8.33455ZM18.8718 10.7296L16.9624 14.4493L16.9625 15.9979C16.9626 16.5951 17.4174 17.03 17.9185 17.03C18.4186 17.03 18.8721 16.5965 18.8721 16.0003L18.8718 10.7296Z" fill="#333333"/>
</svg>
