<svg width="24" height="24" viewBox="0 0 24 24" fill="none" xmlns="http://www.w3.org/2000/svg">
<path d="M8.68691 11.0098C8.35554 11.0098 8.08691 11.2784 8.08691 11.6098C8.08691 11.9411 8.35554 12.2098 8.68691 12.2098H13.7972L12.5066 13.5003C12.2723 13.7347 12.2723 14.1146 12.5066 14.3489C12.7409 14.5832 13.1208 14.5832 13.3551 14.3489L15.67 12.034C15.7877 11.9163 15.8463 11.7619 15.8457 11.6076C15.8453 11.4545 15.7867 11.3017 15.67 11.1849L13.3551 8.87007C13.1208 8.63576 12.7409 8.63576 12.5066 8.87007C12.2723 9.10439 12.2723 9.48429 12.5066 9.7186L13.7978 11.0098H8.68691Z" fill="#333333"/>
<path fill-rule="evenodd" clip-rule="evenodd" d="M7 5C5.34315 5 4 6.34315 4 8V15.2175C4 16.5559 4.87654 17.6897 6.08691 18.076V19.7279C6.08691 20.9674 7.58556 21.5881 8.46203 20.7117L10.9562 18.2175H17.0001C18.6569 18.2175 20.0001 16.8743 20.0001 15.2175V8C20.0001 6.34315 18.6569 5 17.0001 5H7ZM7.28691 19.7279V17.1993L6.45177 16.9328C5.72439 16.7007 5.2 16.0187 5.2 15.2175V8C5.2 7.00589 6.00589 6.2 7 6.2H17.0001C17.9942 6.2 18.8001 7.00589 18.8001 8V15.2175C18.8001 16.2116 17.9942 17.0175 17.0001 17.0175H10.4592L7.61351 19.8631C7.57143 19.9052 7.53908 19.9157 7.51633 19.9196C7.48701 19.9247 7.44736 19.9222 7.40501 19.9046C7.36267 19.8871 7.33282 19.8608 7.31568 19.8365C7.30238 19.8176 7.28691 19.7874 7.28691 19.7279Z" fill="#333333"/>
</svg>
