<svg width="24" height="24" viewBox="0 0 24 24" fill="none" xmlns="http://www.w3.org/2000/svg">
<path fill-rule="evenodd" clip-rule="evenodd" d="M7 4.86328C5.34315 4.86328 4 6.20643 4 7.86328V11.7642C4 12.8732 4.60177 13.8416 5.49658 14.3608V15.7756C5.49658 17.0151 6.99522 17.6359 7.8717 16.7594L9.72278 14.9083C9.7692 14.8619 9.81141 14.8137 9.84956 14.7642H13.8708C15.5277 14.7642 16.8708 13.421 16.8708 11.7642V11.2342H17.2C18.0837 11.2342 18.8 11.9505 18.8 12.8342V15.4511C18.8 16.0647 18.4549 16.5997 17.9426 16.869L17.3009 17.2063V18.7564C17.3009 18.8159 17.2854 18.8462 17.2721 18.8651C17.255 18.8894 17.2251 18.9156 17.1828 18.9332C17.1404 18.9507 17.1008 18.9533 17.0715 18.9482C17.0487 18.9443 17.0164 18.9338 16.9743 18.8917L15.1337 17.0511H13.0361C12.3287 17.0511 11.7284 16.5919 11.5172 15.9553H10.2814C10.5189 17.261 11.6619 18.2511 13.0361 18.2511H14.6366L16.1258 19.7402C17.0022 20.6167 18.5009 19.996 18.5009 18.7564V17.9312C19.3922 17.4627 20 16.5279 20 15.4511V12.8342C20 11.2878 18.7464 10.0342 17.2 10.0342H16.8708V7.86328C16.8708 6.20643 15.5277 4.86328 13.8708 4.86328H7ZM6.69658 13.6697L6.09882 13.3229C5.5588 13.0096 5.2 12.4281 5.2 11.7642V7.86328C5.2 6.86917 6.00589 6.06328 7 6.06328H13.8708C14.865 6.06328 15.6708 6.86917 15.6708 7.86328V11.7642C15.6708 12.7583 14.865 13.5642 13.8708 13.5642H9.2587L8.89843 14.0325C8.89228 14.0405 8.88439 14.0497 8.87425 14.0598L7.02317 15.9109C6.9811 15.9529 6.94875 15.9634 6.92599 15.9674C6.89668 15.9724 6.85703 15.9699 6.81468 15.9523C6.77234 15.9348 6.74249 15.9086 6.72535 15.8843C6.71205 15.8654 6.69658 15.8351 6.69658 15.7756V13.6697Z" fill="#333333"/>
</svg>
