<svg width="24" height="24" viewBox="0 0 24 24" fill="none" xmlns="http://www.w3.org/2000/svg">
<path d="M6.17041 6.32969C6.17041 5.0042 7.24493 3.92969 8.57041 3.92969H15.1555C16.481 3.92969 17.5555 5.0042 17.5555 6.32969V6.5418C17.5555 6.87317 17.2868 7.1418 16.9555 7.1418C16.6241 7.1418 16.3555 6.87317 16.3555 6.5418V6.32969C16.3555 5.66695 15.8182 5.12969 15.1555 5.12969H8.57041C7.90767 5.12969 7.37041 5.66695 7.37041 6.32969V17.6711C7.37041 18.3338 7.90767 18.8711 8.57041 18.8711H13.6201C13.9514 18.8711 14.2201 19.1397 14.2201 19.4711C14.2201 19.8025 13.9514 20.0711 13.6201 20.0711H8.57041C7.24493 20.0711 6.17041 18.9966 6.17041 17.6711V6.32969Z" fill="#828B95"/>
<path d="M9.40869 6.50039C9.40869 6.16902 9.67732 5.90039 10.0087 5.90039H13.7177C14.049 5.90039 14.3177 6.16902 14.3177 6.50039C14.3177 6.83176 14.049 7.10039 13.7177 7.10039H10.0087C9.67732 7.10039 9.40869 6.83176 9.40869 6.50039Z" fill="#828B95"/>
<path fill-rule="evenodd" clip-rule="evenodd" d="M9.62252 12.7355C9.2974 13.0129 9.16232 13.4534 9.27612 13.8653L10.1011 16.8518C10.3154 17.6276 11.263 17.9181 11.8753 17.3958L13.6923 15.8459L17.0354 19.765C17.4296 20.2272 18.1239 20.2822 18.5861 19.888L19.8417 18.8169C20.3039 18.4226 20.359 17.7283 19.9647 17.2661L16.6217 13.3471L18.2103 11.9919C18.6725 11.5976 18.7276 10.9033 18.3333 10.4411L16.5113 8.3051C16.117 7.84291 15.4227 7.78784 14.9605 8.18211L9.62252 12.7355ZM11.216 16.3809L10.4497 13.6072L15.6632 9.15997L17.3555 11.1438L15.7668 12.499C15.3046 12.8933 15.2495 13.5876 15.6438 14.0498L18.9869 17.9688L17.8834 18.9101L14.5403 14.991C14.1461 14.5288 13.4518 14.4738 12.9896 14.868L11.216 16.3809Z" fill="#828B95"/>
</svg>
