<svg width="24" height="24" viewBox="0 0 24 24" fill="none" xmlns="http://www.w3.org/2000/svg">
<path d="M9.54541 6.36855C9.54541 6.03718 9.81404 5.76855 10.1454 5.76855H13.8544C14.1858 5.76855 14.4544 6.03718 14.4544 6.36855C14.4544 6.69993 14.1858 6.96855 13.8544 6.96855H10.1454C9.81404 6.96855 9.54541 6.69993 9.54541 6.36855Z" fill="#333333"/>
<path d="M13.2507 17.0584C13.2507 17.7492 12.6907 18.3093 11.9999 18.3093C11.3091 18.3093 10.749 17.7492 10.749 17.0584C10.749 16.3677 11.3091 15.8076 11.9999 15.8076C12.6907 15.8076 13.2507 16.3677 13.2507 17.0584Z" fill="#333333"/>
<path fill-rule="evenodd" clip-rule="evenodd" d="M6.30713 6.32969C6.30713 5.0042 7.38165 3.92969 8.70713 3.92969H15.2922C16.6177 3.92969 17.6922 5.0042 17.6922 6.32969V17.6711C17.6922 18.9966 16.6177 20.0711 15.2922 20.0711H8.70713C7.38165 20.0711 6.30713 18.9966 6.30713 17.6711V6.32969ZM8.70713 5.12969C8.04439 5.12969 7.50713 5.66695 7.50713 6.32969V17.6711C7.50713 18.3338 8.04439 18.8711 8.70713 18.8711H15.2922C15.9549 18.8711 16.4922 18.3338 16.4922 17.6711V6.32969C16.4922 5.66695 15.9549 5.12969 15.2922 5.12969H8.70713Z" fill="#333333"/>
</svg>
