<svg width="24" height="24" viewBox="0 0 24 24" fill="none" xmlns="http://www.w3.org/2000/svg">
<path d="M7.60902 18.6444C7.41197 18.2832 7.72319 17.9006 8.13457 17.9006C8.40568 17.9006 8.63803 18.0786 8.80998 18.2882C9.06673 18.6011 9.45649 18.8008 9.89289 18.8008H17.2112C17.9844 18.8008 18.6112 18.174 18.6112 17.4008V10.0824C18.6112 9.64713 18.4126 9.25824 18.101 9.00147C17.8922 8.82938 17.715 8.5973 17.715 8.32671C17.715 7.91461 18.0986 7.60314 18.4599 7.80135C19.2653 8.24315 19.8112 9.09903 19.8112 10.0824V17.4008C19.8112 18.8367 18.6472 20.0008 17.2112 20.0008H9.89289C8.90741 20.0008 8.05 19.4525 7.60902 18.6444Z" fill="#828B95"/>
<path d="M12.9564 8.95532C13.1478 8.68487 13.0838 8.3104 12.8133 8.11894C12.5429 7.92747 12.1684 7.99151 11.9769 8.26196L9.7427 11.418L8.69667 10.3192C8.46818 10.0792 8.0884 10.0699 7.8484 10.2984C7.6084 10.5269 7.59906 10.9066 7.82755 11.1466L8.9574 12.3334C9.43496 12.8351 10.2517 12.7758 10.6519 12.2105L12.9564 8.95532Z" fill="#828B95"/>
<path fill-rule="evenodd" clip-rule="evenodd" d="M4.04102 14.0385C4.04102 15.4744 5.20508 16.6385 6.64102 16.6385H13.9594C15.3953 16.6385 16.5594 15.4744 16.5594 14.0385V6.72012C16.5594 5.28418 15.3953 4.12012 13.9594 4.12012H6.64102C5.20508 4.12012 4.04102 5.28418 4.04102 6.72012V14.0385ZM6.64102 15.4385C5.86782 15.4385 5.24102 14.8117 5.24102 14.0385V6.72012C5.24102 5.94692 5.86782 5.32012 6.64102 5.32012H13.9594C14.7326 5.32012 15.3594 5.94692 15.3594 6.72012V14.0385C15.3594 14.8117 14.7326 15.4385 13.9594 15.4385H6.64102Z" fill="#828B95"/>
</svg>
