<svg width="24" height="24" viewBox="0 0 24 24" fill="none" xmlns="http://www.w3.org/2000/svg">
<path fill-rule="evenodd" clip-rule="evenodd" d="M15.3132 8.12968L14.8973 8.06624L12.7835 3.57102C12.469 2.90211 11.5309 2.90211 11.2164 3.57102L9.10266 8.06624L4.38813 8.78528C3.64616 8.89844 3.4277 9.79418 3.9008 10.2782L7.3292 13.7858L7.10943 15.1307L4.99131 16.9505C4.73784 17.164 4.7054 17.5425 4.91884 17.7959C5.13229 18.0494 5.5108 18.0819 5.76427 17.8684L18.6532 6.84119C18.9067 6.62774 18.9392 6.24923 18.7257 5.99576C18.5123 5.74229 18.1338 5.70984 17.8803 5.92329L15.3132 8.12968ZM12 4.72464L10.0751 8.81819C9.97584 9.02934 9.77786 9.17714 9.5472 9.21232L5.18698 9.87732L8.364 13.1277C8.5195 13.2868 8.59012 13.5103 8.55424 13.7299L8.52239 13.9249L14.1716 9.10386C14.0663 9.03405 13.9802 8.93598 13.9248 8.81818L12 4.72464Z" fill="#333333"/>
<path d="M6.56135 18.4847L7.97129 17.2974L7.81026 18.2828L11.6618 16.1575C11.8723 16.0414 12.1276 16.0414 12.3381 16.1575L16.1897 18.2828L15.4457 13.7299C15.4098 13.5103 15.4804 13.2868 15.6359 13.1277L18.8129 9.87732L17.094 9.61516L18.3145 8.58742L19.6118 8.78528C20.3538 8.89844 20.5722 9.79418 20.0991 10.2782L16.6707 13.7858L17.4812 18.7455C17.5884 19.4019 16.9042 20.0477 16.2098 19.6645L12 17.3415L7.79009 19.6645C7.09572 20.0477 6.41147 19.4019 6.51873 18.7455L6.56135 18.4847Z" fill="#333333"/>
</svg>
