<svg width="24" height="24" viewBox="0 0 24 24" fill="none" xmlns="http://www.w3.org/2000/svg">
<path d="M12.0001 3.64648C11.2791 3.64648 10.6946 4.23096 10.6946 4.95194V4.96894C7.93026 5.56733 6.5535 8.146 6.5535 9.99955C6.5535 10.9268 6.55812 11.7207 6.56273 12.3884L6.56537 12.7608C6.56895 13.2607 6.57194 13.6773 6.57194 14.0179C6.57194 14.0171 6.57212 14.0168 6.57194 14.0179C6.5706 14.0254 6.56048 14.082 6.48757 14.1951C6.40969 14.3159 6.28968 14.4555 6.13561 14.6054C5.82814 14.9045 5.44764 15.1844 5.18107 15.3667C4.83597 15.6026 4.60596 15.9985 4.60596 16.4426C4.60596 17.1433 5.17404 17.7114 5.8748 17.7114H12.6807C12.342 17.3531 12.0503 16.9498 11.8157 16.5114H5.8748C5.83678 16.5114 5.80596 16.4806 5.80596 16.4426C5.80596 16.4204 5.81859 16.3845 5.85833 16.3573C6.14683 16.1601 6.59245 15.8351 6.97233 15.4656C7.16194 15.2811 7.3509 15.0706 7.49609 14.8454C7.63615 14.6282 7.77194 14.3416 7.77194 14.0179C7.77194 13.6726 7.76891 13.2503 7.76532 12.7499L7.7627 12.3801C7.7581 11.7135 7.7535 10.9228 7.7535 9.99955C7.7535 8.56581 8.88929 6.49898 11.1142 6.10936L11.1317 6.10604L11.1336 6.10566L11.1452 6.10339C11.1561 6.10128 11.1733 6.09806 11.1958 6.0941C11.2408 6.08615 11.3066 6.07531 11.3863 6.06441C11.5482 6.04227 11.756 6.02151 11.9584 6.02148C12.1614 6.02146 12.3697 6.04187 12.5318 6.06361C12.6117 6.07431 12.6776 6.08497 12.7228 6.09279C12.7453 6.09668 12.7625 6.09985 12.7735 6.10192L12.7852 6.10416L12.7868 6.10448L12.8032 6.10757C14.2733 6.36285 15.269 7.34966 15.7766 8.40382C16.085 8.35084 16.4021 8.32324 16.7256 8.32324C16.8335 8.32324 16.9408 8.32632 17.0472 8.33238C16.4987 6.8765 15.2526 5.43681 13.3055 4.98539V4.95194C13.3055 4.23096 12.7211 3.64648 12.0001 3.64648Z" fill="#333333"/>
<path d="M13.571 18.4744C13.887 18.6921 14.2265 18.8781 14.585 19.0276C14.5698 19.0946 14.5426 19.1602 14.5029 19.2212C14.2427 19.6214 13.8685 19.9428 13.43 20.1621C12.9916 20.3813 12.498 20.4941 11.9999 20.4941C11.5018 20.4941 11.0082 20.3813 10.5698 20.1621C10.1313 19.9428 9.75713 19.6214 9.4969 19.2212C9.31625 18.9434 9.39501 18.5718 9.67281 18.3911C9.95061 18.2105 10.3223 18.2892 10.5029 18.567C10.6365 18.7725 10.8414 18.9562 11.1065 19.0888C11.3717 19.2214 11.6806 19.2941 11.9999 19.2941C12.3192 19.2941 12.6281 19.2214 12.8933 19.0888C13.1584 18.9562 13.3633 18.7725 13.4969 18.567C13.5189 18.5332 13.5438 18.5022 13.571 18.4744Z" fill="#333333"/>
<path d="M16.7256 10.5132C17.057 10.5132 17.3256 10.7818 17.3256 11.1132V13.2889H19.5014C19.8327 13.2889 20.1014 13.5576 20.1014 13.8889C20.1014 14.2203 19.8327 14.4889 19.5014 14.4889H17.3256V16.6647C17.3256 16.9961 17.057 17.2647 16.7256 17.2647C16.3942 17.2647 16.1256 16.9961 16.1256 16.6647V14.4889H13.9498C13.6184 14.4889 13.3498 14.2203 13.3498 13.8889C13.3498 13.5576 13.6184 13.2889 13.9498 13.2889H16.1256V11.1132C16.1256 10.7818 16.3942 10.5132 16.7256 10.5132Z" fill="#333333"/>
</svg>
