<svg width="24" height="24" viewBox="0 0 24 24" fill="none" xmlns="http://www.w3.org/2000/svg">
<path d="M11.1514 12.0004L8.57565 9.42465C8.34134 9.19034 8.34134 8.81044 8.57565 8.57613C8.80997 8.34181 9.18986 8.34181 9.42418 8.57613L12.4191 11.571C12.4208 11.5727 12.4225 11.5744 12.4242 11.5761C12.6586 11.8104 12.6586 12.1903 12.4242 12.4247L9.42424 15.4247C9.18993 15.659 8.81003 15.659 8.57571 15.4247C8.3414 15.1903 8.3414 14.8104 8.57571 14.5761L11.1514 12.0004Z" fill="#333333"/>
<path fill-rule="evenodd" clip-rule="evenodd" d="M6.8999 5.15039C5.24305 5.15039 3.8999 6.49354 3.8999 8.15039V15.8504C3.8999 17.5072 5.24305 18.8504 6.8999 18.8504H17.0999C18.7568 18.8504 20.0999 17.5072 20.0999 15.8504V8.15039C20.0999 6.49354 18.7568 5.15039 17.0999 5.15039H6.8999ZM5.0999 8.15039C5.0999 7.15628 5.90579 6.35039 6.8999 6.35039H14.8999L14.9 17.6504H6.8999C5.90579 17.6504 5.0999 16.8445 5.0999 15.8504V8.15039ZM16.1 17.6504H17.0999C18.094 17.6504 18.8999 16.8445 18.8999 15.8504V8.15039C18.8999 7.15628 18.094 6.35039 17.0999 6.35039H16.0999L16.1 17.6504Z" fill="#333333"/>
</svg>
