<svg width="24" height="24" viewBox="0 0 24 24" fill="none" xmlns="http://www.w3.org/2000/svg">
<path fill-rule="evenodd" clip-rule="evenodd" d="M10.0028 4.66308C7.20957 6.71928 8.13658 12.5382 12.0818 12.5382C16.8182 12.5382 17.2272 4 12.0818 4C11.3582 4 10.4667 4.32165 10.0028 4.66308ZM11.3225 5.34255C11.0326 5.43864 10.8166 5.5541 10.7142 5.62948C9.80843 6.29625 9.38078 7.71724 9.68747 9.11444C9.9845 10.4676 10.8482 11.3382 12.0818 11.3382C12.8607 11.3382 13.4379 11.0042 13.8571 10.4663C14.2981 9.90072 14.5674 9.09369 14.5878 8.24037C14.6083 7.386 14.3772 6.60245 13.9648 6.06237C13.5806 5.55917 12.994 5.2 12.0818 5.2C11.8818 5.2 11.6085 5.24774 11.3225 5.34255Z" fill="#333333"/>
<path d="M11.3259 14.0071C11.3676 14.3358 11.1348 14.6361 10.8061 14.6777C9.1125 14.8922 8.01608 15.5308 7.32149 16.3124C6.65679 17.0604 6.32149 17.9831 6.22211 18.9009H11.7518C12.0832 18.9009 12.3518 19.1695 12.3518 19.5009C12.3518 19.8322 12.0832 20.1009 11.7518 20.1009H6.0899C5.49683 20.1009 4.95881 19.6102 5.01193 18.9531C5.10643 17.7844 5.51603 16.5375 6.42451 15.5153C7.33908 14.4861 8.71671 13.7328 10.6553 13.4872C10.9841 13.4456 11.2843 13.6784 11.3259 14.0071Z" fill="#333333"/>
<path fill-rule="evenodd" clip-rule="evenodd" d="M16.657 19.5444C17.3932 19.5444 18.0771 19.3209 18.6447 18.9381L20.0537 20.347C20.288 20.5813 20.6679 20.5813 20.9022 20.347C21.1365 20.1127 21.1365 19.7328 20.9022 19.4985L19.5131 18.1094C19.9549 17.5165 20.2163 16.7813 20.2163 15.9851C20.2163 14.0193 18.6227 12.4258 16.657 12.4258C14.6912 12.4258 13.0977 14.0193 13.0977 15.9851C13.0977 17.9509 14.6912 19.5444 16.657 19.5444ZM16.657 18.3444C17.96 18.3444 19.0163 17.2881 19.0163 15.9851C19.0163 14.6821 17.96 13.6258 16.657 13.6258C15.354 13.6258 14.2977 14.6821 14.2977 15.9851C14.2977 17.2881 15.354 18.3444 16.657 18.3444Z" fill="#333333"/>
</svg>
