<svg width="24" height="24" viewBox="0 0 24 24" fill="none" xmlns="http://www.w3.org/2000/svg">
<path fill-rule="evenodd" clip-rule="evenodd" d="M12.0366 7.60449H12.2552C12.269 7.60449 12.2827 7.60496 12.2963 7.60588C16.3851 7.64973 18.8428 8.7312 20.2534 10.1953C21.6923 11.6887 21.9451 13.4797 21.8432 14.6662C21.7823 15.3739 21.2291 15.8552 20.6206 15.9681C20.5133 15.988 20.4165 15.9882 20.3503 15.9862C19.4116 15.957 18.6728 15.9127 18.0907 15.8776C17.4987 15.8419 17.0964 15.8179 16.7975 15.8238C16.7274 15.8251 16.5956 15.8266 16.4512 15.7892C15.9848 15.6683 15.5891 15.3119 15.4678 14.7988C15.3518 14.308 15.253 13.5323 15.4131 12.5642C15.4175 12.5374 15.4202 12.5156 15.4215 12.4977C15.4223 12.4868 15.4226 12.4783 15.4226 12.4718C15.362 12.3781 15.2405 12.2589 15.0289 12.1311C14.8054 11.996 14.5181 11.8734 14.1904 11.7705C13.5324 11.5637 12.7836 11.4583 12.2215 11.4583H12.0704C11.5082 11.4583 10.7594 11.5637 10.1014 11.7705C9.77371 11.8734 9.48643 11.996 9.26289 12.1311C9.05132 12.2589 8.92981 12.3781 8.86925 12.4718C8.86923 12.4783 8.86949 12.4868 8.87031 12.4977C8.87166 12.5156 8.87433 12.5374 8.87875 12.5642C9.03877 13.5323 8.94001 14.308 8.82403 14.7988C8.68884 15.3709 8.21606 15.7435 7.68492 15.8205C7.66281 15.8237 7.64055 15.8257 7.61822 15.8264C6.79254 15.8531 5.65821 15.8874 3.75135 15.939C3.72349 15.9397 3.69561 15.9385 3.66791 15.9354C3.01363 15.8616 2.39732 15.3682 2.33274 14.6167C2.22981 13.4191 2.51879 11.6403 3.98703 10.1638C5.42506 8.71766 7.90692 7.64915 11.9958 7.60586C12.0093 7.60495 12.0229 7.60449 12.0366 7.60449ZM12.1456 8.80475C8.16111 8.82321 5.99274 9.84863 4.83794 11.0099C3.67266 12.1818 3.44836 13.5835 3.52833 14.514C3.53551 14.5976 3.60849 14.7076 3.76951 14.738C5.61127 14.6882 6.72403 14.6546 7.53614 14.6284C7.57212 14.6197 7.59862 14.6045 7.61628 14.5891C7.63625 14.5718 7.6496 14.5508 7.65619 14.5228C7.74221 14.1589 7.82464 13.5454 7.69482 12.7599C7.66426 12.575 7.62575 12.2308 7.81124 11.9033C8.00603 11.5593 8.31864 11.2996 8.64222 11.104C8.97139 10.9051 9.35341 10.7476 9.74172 10.6256C10.5158 10.3824 11.3858 10.2583 12.0704 10.2583H12.2215C12.906 10.2583 13.7761 10.3824 14.5501 10.6256C14.9384 10.7476 15.3204 10.9051 15.6496 11.104C15.9732 11.2996 16.2858 11.5593 16.4806 11.9033C16.6661 12.2308 16.6276 12.575 16.597 12.7599C16.4672 13.5454 16.5496 14.1589 16.6356 14.5228C16.6417 14.5485 16.6533 14.5677 16.6695 14.5835C16.6848 14.5985 16.708 14.6139 16.7402 14.6241C16.7402 14.6241 16.7441 14.6242 16.7466 14.6242C16.7536 14.6243 16.7623 14.6242 16.7741 14.624C17.1242 14.6172 17.5711 14.6441 18.1235 14.6774L18.1629 14.6798C18.7434 14.7147 19.4675 14.7581 20.3876 14.7867C20.3982 14.7871 20.4048 14.787 20.4085 14.7869C20.5697 14.7545 20.6403 14.6476 20.6476 14.5634C20.7285 13.6218 20.526 12.2077 19.3893 11.0279C18.2642 9.86022 16.1287 8.82332 12.1456 8.80475Z" fill="#333333"/>
</svg>
