<svg width="24" height="24" viewBox="0 0 24 24" fill="none" xmlns="http://www.w3.org/2000/svg">
<path fill-rule="evenodd" clip-rule="evenodd" d="M8.58571 15.7928L8.43113 15.6383C8.42136 15.6285 8.41201 15.6185 8.40306 15.6082C5.54283 12.686 4.56972 10.1835 4.6075 8.15069C4.64603 6.07728 5.73371 4.63206 6.6448 3.86519C7.1882 3.4078 7.91977 3.4586 8.42985 3.80908C8.51984 3.87091 8.58844 3.93921 8.63377 3.98745C9.27688 4.67183 9.76798 5.22558 10.1548 5.66196C10.5482 6.10583 10.8157 6.40727 11.0312 6.61449C11.0817 6.66306 11.1759 6.75528 11.2516 6.88383C11.4959 7.29904 11.5237 7.83089 11.2467 8.27946C10.9816 8.70852 10.5029 9.32687 9.70521 9.8983C9.68317 9.91409 9.66588 9.9276 9.65224 9.93933C9.64394 9.94647 9.63773 9.95232 9.6332 9.95687C9.60973 10.066 9.6114 10.2362 9.67059 10.4762C9.73313 10.7298 9.8496 11.0196 10.0085 11.3241C10.3276 11.9355 10.7826 12.5395 11.1801 12.9371L11.2869 13.0439C11.6844 13.4414 12.2884 13.8964 12.8999 14.2155C13.2044 14.3744 13.4942 14.4908 13.7478 14.5534C13.9878 14.6126 14.158 14.6142 14.2671 14.5908C14.2716 14.5862 14.2775 14.58 14.2846 14.5717C14.2964 14.5581 14.3099 14.5408 14.3257 14.5188C14.8971 13.721 15.5154 13.2423 15.9445 12.9773C16.4446 12.6684 17.0424 12.7392 17.4724 13.0604C17.4903 13.0737 17.5074 13.0881 17.5237 13.1034C18.1264 13.6683 18.9528 14.4461 20.3376 15.758C20.3579 15.7772 20.3767 15.7978 20.3941 15.8196C20.8046 16.3344 20.8915 17.1191 20.4058 17.6961C19.6317 18.6157 18.1696 19.6692 16.0873 19.675C14.0479 19.6808 11.5374 18.6814 8.61552 15.8207C8.60535 15.8118 8.5954 15.8025 8.58571 15.7928ZM9.35735 14.8671C12.1879 17.6715 14.4462 18.4797 16.0839 18.475C17.7366 18.4704 18.8863 17.6378 19.4877 16.9233C19.5417 16.8592 19.568 16.7297 19.4756 16.5944C18.138 15.3273 17.3274 14.5642 16.7347 14.0085C16.7031 13.9892 16.6736 13.9812 16.6502 13.9796C16.6239 13.9777 16.5995 13.9832 16.5751 13.9982C16.257 14.1948 15.7648 14.5703 15.3012 15.2176C15.1921 15.3699 14.976 15.6405 14.6132 15.7409C14.2322 15.8464 13.8275 15.809 13.4605 15.7185C13.087 15.6264 12.7056 15.4676 12.3447 15.2793C11.6254 14.9039 10.9224 14.3765 10.4384 13.8924L10.3316 13.7856C9.84751 13.3015 9.32004 12.5985 8.94467 11.8793C8.75636 11.5184 8.59759 11.1369 8.5055 10.7635C8.41497 10.3964 8.37758 9.99172 8.48305 9.61077C8.58349 9.24801 8.85406 9.03189 9.00641 8.92276C9.65365 8.45913 10.0292 7.96701 10.2257 7.64883C10.2396 7.62643 10.245 7.60467 10.2447 7.58199C10.2445 7.56053 10.2389 7.53333 10.2234 7.50334C10.2234 7.50334 10.2207 7.50051 10.2189 7.49872C10.2141 7.49372 10.2079 7.48758 10.1993 7.47939C9.94695 7.23665 9.64996 6.90157 9.28295 6.48748L9.25676 6.45793C8.87101 6.02274 8.38966 5.48003 7.75928 4.8092C7.75203 4.80148 7.74733 4.79685 7.74461 4.79428C7.60768 4.70322 7.48215 4.72889 7.41755 4.78326C6.69449 5.39187 5.83774 6.53501 5.80729 8.17299C5.77716 9.79421 6.55397 12.0374 9.35735 14.8671Z" fill="#333333"/>
</svg>
