<svg width="24" height="24" viewBox="0 0 24 24" fill="none" xmlns="http://www.w3.org/2000/svg">
<path d="M4.3999 6.00039C4.3999 5.66902 4.66853 5.40039 4.9999 5.40039H13.4511C13.7825 5.40039 14.0511 5.66902 14.0511 6.00039C14.0511 6.33176 13.7825 6.60039 13.4511 6.60039L4.9999 6.60039C4.66853 6.60039 4.3999 6.33176 4.3999 6.00039Z" fill="#828B95"/>
<path d="M4.3999 9.45254C4.3999 9.12117 4.66853 8.85254 4.9999 8.85254H9.72632C10.0577 8.85254 10.3263 9.12117 10.3263 9.45254C10.3263 9.78391 10.0577 10.0525 9.72632 10.0525H4.9999C4.66853 10.0525 4.3999 9.78391 4.3999 9.45254Z" fill="#828B95"/>
<path d="M4.9999 12.7031C4.66853 12.7031 4.3999 12.9718 4.3999 13.3031C4.3999 13.6345 4.66853 13.9031 4.9999 13.9031H7.3232C7.65457 13.9031 7.9232 13.6345 7.9232 13.3031C7.9232 12.9718 7.65457 12.7031 7.3232 12.7031L4.9999 12.7031Z" fill="#828B95"/>
<path fill-rule="evenodd" clip-rule="evenodd" d="M15.7028 7.35434C16.2203 6.83582 17.0794 6.76417 17.6398 7.29536L17.6517 7.30699L20.3543 10.0152C20.9092 10.5729 20.8463 11.4535 20.3194 11.9808C19.7919 12.5086 18.9117 12.5709 18.3556 12.0126L18.2851 11.9419L15.4792 15.6307L15.6529 15.8048C15.6585 15.8105 15.6641 15.8163 15.6696 15.8222C16.1869 16.3844 16.1121 17.2344 15.5994 17.7484C15.0861 18.2631 14.2358 18.3386 13.6738 17.8187C13.6681 17.8134 13.6624 17.8079 13.6568 17.8024L12.1899 16.3321L9.63081 18.8912C9.39649 19.1255 9.01659 19.1255 8.78228 18.8912C8.54796 18.6569 8.54796 18.277 8.78228 18.0426L11.3423 15.4826L9.8755 14.0125L9.86333 13.9999C9.33514 13.4388 9.40672 12.5802 9.92353 12.0623C10.441 11.5438 11.3001 11.4722 11.8605 12.0033L11.8726 12.0151L12.0443 12.1873L15.7238 9.3737L15.6546 9.30435L15.6426 9.29193C15.1144 8.73085 15.186 7.8722 15.7028 7.35434ZM16.811 8.16333C16.7669 8.12551 16.6541 8.09987 16.5522 8.20201C16.4497 8.30474 16.4746 8.42048 16.5133 8.46598L17.0568 9.01091C17.1788 9.13328 17.2421 9.30232 17.2306 9.47475C17.2223 9.59797 17.1764 9.71437 17.1007 9.80907C17.0705 9.8469 17.0356 9.88127 16.9964 9.91123L12.3553 13.46C12.1162 13.6429 11.7786 13.6202 11.566 13.4071L11.0317 12.8713C10.9876 12.8335 10.8748 12.8079 10.7729 12.91C10.6704 13.0127 10.6953 13.1284 10.734 13.1739L14.4935 16.9419C14.5389 16.9785 14.6499 17.0012 14.7498 16.901C14.8503 16.8003 14.8282 16.6865 14.7907 16.6396L14.26 16.1075C14.0483 15.8952 14.0258 15.5592 14.2073 15.3206L17.7466 10.6678C17.8515 10.5298 18.011 10.444 18.184 10.4324C18.357 10.4208 18.5265 10.4846 18.6489 10.6074L19.2053 11.1652C19.2457 11.2058 19.3636 11.2396 19.4706 11.1325C19.5782 11.0249 19.5459 10.9044 19.5045 10.8624L16.811 8.16333Z" fill="#828B95"/>
</svg>
