<svg width="24" height="24" viewBox="0 0 24 24" fill="none" xmlns="http://www.w3.org/2000/svg">
<path d="M9.24978 6.61014C9.33192 6.93117 9.65875 7.12483 9.97978 7.04268C10.3008 6.96054 10.4945 6.6337 10.4123 6.31268L9.83618 4.06103C9.804 3.89987 9.70613 3.75252 9.55362 3.66215C9.47459 3.61532 9.38919 3.58871 9.30342 3.58078C9.23638 3.57443 9.16711 3.57934 9.09812 3.597L6.81498 4.18119C6.49395 4.26334 6.3003 4.59017 6.38244 4.9112C6.46458 5.23223 6.79142 5.42588 7.11245 5.34374L7.99332 5.11835L5.24376 9.75856L5.04568 8.9844C4.96353 8.66337 4.6367 8.46971 4.31567 8.55186C3.99464 8.634 3.80099 8.96083 3.88313 9.28186L4.46733 11.565C4.54947 11.886 4.87631 12.0797 5.19733 11.9975L7.48047 11.4133C7.8015 11.3312 7.99516 11.0044 7.91301 10.6833C7.83087 10.3623 7.50403 10.1687 7.18301 10.2508L6.19752 10.503L9.02492 5.73138L9.24978 6.61014Z" fill="#333333"/>
<path fill-rule="evenodd" clip-rule="evenodd" d="M12.6647 4.63086C12.3675 4.63086 11.9506 4.73065 11.6014 5.05173C11.2361 5.38773 11.0148 5.9012 11.0148 6.59154C11.0148 6.86286 11.0145 7.35033 11.0141 7.95478C11.0131 9.54654 11.0117 11.9496 11.0139 13.353L10.9463 13.3134C10.5192 13.0627 10.0266 12.7697 9.65213 12.5182C9.43558 12.3728 9.0851 12.1395 8.67076 12.0564C8.20328 11.9625 7.70595 12.0663 7.2489 12.4748C6.90671 12.7806 6.81077 13.1809 6.82218 13.5088C6.83309 13.8223 6.94052 14.1188 7.07978 14.326C7.55184 15.0282 8.76348 16.437 9.9167 17.6526C10.4977 18.2651 11.0787 18.8442 11.5608 19.2739C11.8004 19.4876 12.027 19.6746 12.2237 19.8117C12.3215 19.8798 12.4242 19.9444 12.5262 19.9942C12.6131 20.0365 12.7662 20.1023 12.9458 20.1023H17.7122C18.0168 20.1023 18.2654 19.959 18.4389 19.8208C18.6183 19.678 18.7788 19.4922 18.9199 19.2988C19.2033 18.9105 19.4713 18.4038 19.7033 17.8917C20.1628 16.8772 20.5427 15.7015 20.6264 15.1207C20.75 14.2627 20.7577 13.7749 20.7706 12.959L20.7732 12.7992C20.7738 12.7887 20.7741 12.78 20.7742 12.7759C20.7748 12.7555 20.7754 12.7291 20.7758 12.7063L20.7766 12.6425C20.7767 12.6377 20.7768 12.624 20.7766 12.6122L20.7761 12.5976C20.7759 12.5942 20.7756 12.5882 20.7751 12.5807C20.7748 12.5764 20.7738 12.5621 20.7712 12.5433L20.7712 12.5061C20.7712 11.987 20.584 11.5226 20.299 11.1823C20.0224 10.852 19.6079 10.5905 19.1351 10.5905C18.9632 10.5905 18.786 10.6154 18.6145 10.6699C18.5531 10.297 18.3429 9.99753 18.0888 9.79337C17.7924 9.55526 17.4105 9.42211 17.0358 9.42211C16.8264 9.42211 16.6209 9.46639 16.4319 9.54258C16.2347 8.89145 15.5896 8.45004 14.9087 8.45004C14.7013 8.45004 14.5 8.48916 14.3141 8.55857L14.3141 6.20285C14.3141 5.60739 14.0221 5.18852 13.6605 4.94099C13.3268 4.71263 12.9416 4.63086 12.6647 4.63086ZM19.5724 12.7667C19.5725 12.7712 19.5727 12.7806 19.5731 12.7921L19.5709 12.9281C19.558 13.7431 19.5513 14.1674 19.4386 14.9495C19.3781 15.3697 19.049 16.4277 18.6102 17.3965C18.393 17.8761 18.1643 18.2985 17.9506 18.5914C17.8431 18.7386 17.755 18.8314 17.6914 18.8821C17.6802 18.891 17.671 18.8976 17.664 18.9023H13.0272C13.0002 18.8872 12.9614 18.8632 12.9099 18.8272C12.7699 18.7297 12.584 18.5785 12.3593 18.3782C11.9126 17.98 11.3575 17.4278 10.7873 16.8267C9.63811 15.6154 8.48723 14.2687 8.07565 13.6565C8.07093 13.6495 8.05649 13.6242 8.04316 13.5836C8.03027 13.5442 8.02272 13.5035 8.02145 13.4671C8.0202 13.4311 8.02533 13.4083 8.02973 13.3962C8.03303 13.3872 8.03724 13.3796 8.04859 13.3695C8.14723 13.2813 8.22178 13.2485 8.27097 13.2351C8.31975 13.2218 8.3712 13.2202 8.43458 13.2329C8.58478 13.263 8.7525 13.3595 8.98306 13.5144C9.392 13.789 9.91467 14.0993 10.339 14.3483L10.5306 14.4606C10.667 14.5404 10.7877 14.6111 10.8878 14.6708C10.9601 14.7138 11.0169 14.7483 11.0578 14.7743C11.0775 14.7867 11.0892 14.7945 11.0952 14.7985L11.0985 14.8016L11.1179 14.8191L11.1193 14.8203C11.132 14.8317 11.1675 14.8637 11.2104 14.8933L11.2123 14.8947C11.2417 14.9151 11.3809 15.012 11.5815 15.0104C11.8759 15.008 12.0505 14.8149 12.1216 14.6838C12.178 14.58 12.1937 14.4809 12.1991 14.4447C12.2065 14.3954 12.2098 14.3464 12.2117 14.3056C12.2155 14.2234 12.2159 14.1161 12.2154 13.9893C12.2111 12.8232 12.213 9.83346 12.2141 7.95993V7.95846C12.2145 7.35297 12.2148 6.86421 12.2148 6.59154C12.2148 6.16762 12.3423 6.00075 12.4138 5.93497C12.5015 5.85428 12.6095 5.83086 12.6647 5.83086C12.7402 5.83086 12.8797 5.86077 12.9827 5.93125C13.028 5.96225 13.0575 5.99505 13.0765 6.02885C13.0942 6.06036 13.1141 6.11266 13.1141 6.20285L13.1142 11.7649C13.1142 11.978 13.2124 12.1686 13.369 12.2918C13.5087 12.4019 13.6659 12.4377 13.7915 12.4389C13.9166 12.4401 14.0697 12.4076 14.2079 12.3068C14.3622 12.1943 14.4803 12.0045 14.4803 11.7713L14.4805 9.91322C14.4805 9.90895 14.4866 9.8492 14.5792 9.7718C14.6684 9.69727 14.7911 9.65004 14.9087 9.65004C15.1577 9.65004 15.2931 9.83996 15.2931 9.95971L15.2929 12.1913C15.2929 12.5281 15.5254 12.831 15.8733 12.887C16.0368 12.9133 16.2366 12.8816 16.4027 12.7443C16.5778 12.5996 16.6443 12.3977 16.6443 12.2237L16.6445 10.859C16.6445 10.859 16.6521 10.8092 16.7398 10.738C16.834 10.6614 16.951 10.6221 17.0358 10.6221C17.1378 10.6221 17.2544 10.6623 17.3372 10.7289C17.4132 10.7899 17.4327 10.8466 17.4327 10.8941L17.4324 12.8588C17.4324 13.2596 17.7496 13.5253 18.0745 13.5454C18.2401 13.5557 18.4314 13.505 18.5824 13.3594C18.7375 13.21 18.7908 13.0188 18.7908 12.8589C18.7908 12.786 18.7863 12.5977 18.7823 12.4388L18.7766 12.2217L18.7743 12.1369C18.7758 11.9741 18.8291 11.9069 18.8661 11.8742C18.9153 11.8308 19.0054 11.7905 19.1351 11.7905C19.1579 11.7905 19.2615 11.8124 19.379 11.9527C19.4882 12.0831 19.5712 12.2765 19.5712 12.5061C19.5712 12.6003 19.5714 12.6662 19.5717 12.7107C19.5719 12.7328 19.5721 12.751 19.5724 12.7654L19.5724 12.7667Z" fill="#333333"/>
</svg>
