<svg width="24" height="24" viewBox="0 0 24 24" fill="none" xmlns="http://www.w3.org/2000/svg">
<path fill-rule="evenodd" clip-rule="evenodd" d="M14.6221 9.60431C14.632 9.84787 14.468 10.1411 14.1449 10.2555C13.8379 10.3654 13.5309 10.4811 13.2262 10.5959C13.1313 10.6317 13.0364 10.6674 12.942 10.7028C12.7183 10.7873 12.5692 10.9414 12.4896 11.1602C12.4151 11.3615 12.3405 11.564 12.266 11.7666C12.1914 11.9692 12.1168 12.1717 12.0423 12.373C11.9329 12.6713 11.6844 12.8552 11.3861 12.8552C11.0879 12.8552 10.8443 12.6713 10.735 12.3681C10.5809 11.9455 10.4268 11.523 10.2677 11.1055C10.1931 10.9116 10.044 10.7774 9.85016 10.7028L9.58531 10.6041C9.25956 10.4827 8.93189 10.3607 8.60746 10.2356C8.3291 10.1312 8.15015 9.87273 8.15015 9.58939C8.15015 9.30109 8.33407 9.04758 8.6174 8.94319C9.03495 8.7891 9.44752 8.635 9.8601 8.47594C10.0738 8.39641 10.213 8.23734 10.2926 8.02857C10.3696 7.82228 10.4454 7.61475 10.5212 7.40722C10.597 7.19969 10.6728 6.99216 10.7499 6.78588C10.899 6.38822 11.3464 6.21921 11.7142 6.41804C11.8683 6.50254 11.9776 6.62681 12.0373 6.79085C12.1864 7.19348 12.3355 7.59611 12.4797 8.00372C12.5692 8.25225 12.7282 8.41629 12.9768 8.50576C13.289 8.61896 13.5983 8.73523 13.9092 8.85215L14.1648 8.94816C14.4531 9.05752 14.637 9.32097 14.6271 9.59933L14.6221 9.60431ZM10.054 9.59933C10.3721 9.70869 10.6554 9.86279 10.894 10.0964C11.1326 10.335 11.2817 10.6233 11.3861 10.9564C11.5999 10.2604 12.0423 9.81805 12.7233 9.59933C12.0423 9.38062 11.5999 8.93822 11.3861 8.24231C11.1724 8.93822 10.73 9.38062 10.054 9.59933Z" fill="#828B95"/>
<path d="M13.9361 13.5472C14.0306 13.8106 14.2543 13.9796 14.5028 13.9747V13.9796C14.7712 13.9747 14.975 13.8255 15.0695 13.577L15.159 13.3384C15.1689 13.3086 15.1838 13.2937 15.2136 13.2837C15.2882 13.2589 15.3677 13.2291 15.4423 13.1992C15.6859 13.1147 15.8549 12.891 15.8549 12.6524C15.8598 12.394 15.7157 12.1802 15.4622 12.0808L15.2236 11.9913C15.1888 11.9764 15.1689 11.9615 15.159 11.9267C15.1486 11.8985 15.1386 11.8704 15.1288 11.8423C15.1055 11.7764 15.0825 11.7111 15.0546 11.6484C14.9601 11.4197 14.7315 11.2755 14.473 11.2855C14.2642 11.2905 14.0256 11.4545 13.9511 11.6831C13.9361 11.7229 13.9212 11.7639 13.9063 11.8049C13.8914 11.8459 13.8765 11.8869 13.8616 11.9267C13.8516 11.9516 13.8367 11.9715 13.8069 11.9814C13.7647 11.9963 13.7236 12.0125 13.6826 12.0286C13.6416 12.0448 13.6006 12.0609 13.5584 12.0758C13.3347 12.1554 13.1806 12.3691 13.1707 12.6027C13.1607 12.8463 13.3049 13.075 13.5285 13.1694C13.5963 13.1995 13.6641 13.224 13.7341 13.2492C13.7565 13.2572 13.779 13.2654 13.8019 13.2738C13.8318 13.2837 13.8516 13.3036 13.8616 13.3384C13.8748 13.3848 13.8925 13.4312 13.9102 13.4776C13.919 13.5008 13.9279 13.524 13.9361 13.5472Z" fill="#828B95"/>
<path fill-rule="evenodd" clip-rule="evenodd" d="M5.37158 6.11515C5.37158 5.62801 5.50082 5.18561 5.79907 4.79789C6.14205 4.36046 6.58445 4.09204 7.13124 4.00257C7.27042 3.97771 7.40463 3.96777 7.54381 3.96777H17.4555C17.8631 3.96777 18.1862 4.14175 18.4099 4.47976C18.5292 4.65871 18.5789 4.86251 18.5839 5.07129C18.5839 5.87287 18.585 6.675 18.5861 7.47732C18.5883 9.08288 18.5905 10.6897 18.5839 12.2938V15.2166C18.5839 15.4204 18.5839 15.6242 18.5889 15.833C18.5889 16.002 18.5392 16.1462 18.4298 16.2804C18.1813 16.5836 18.0123 16.9266 17.9526 17.3193C17.9029 17.6424 17.9526 17.9506 18.062 18.2538C18.1266 18.4327 18.2111 18.6017 18.2956 18.7707C18.4547 19.0789 18.4099 19.4368 18.1862 19.7003C18.0421 19.8693 17.8582 19.9488 17.6494 19.9786C17.5699 19.9886 17.4904 19.9886 17.4108 19.9886H7.90668C7.44937 19.9886 7.01691 19.8991 6.61925 19.6704C5.97305 19.3076 5.5555 18.7707 5.41135 18.0351C5.38152 17.8959 5.37158 17.7517 5.37158 17.6026V6.11515ZM17.376 5.2552C17.376 5.24665 17.3761 5.23907 17.3762 5.23234C17.3765 5.20641 17.3767 5.19325 17.3702 5.18666C17.3635 5.17987 17.3498 5.18005 17.3218 5.18043C17.3144 5.18053 17.306 5.18064 17.2965 5.18064H7.45931C7.22568 5.18064 7.02188 5.26515 6.85287 5.42918C6.66398 5.6131 6.57451 5.84175 6.57451 6.10521V15.5546C6.57451 15.5994 6.58445 15.6044 6.62422 15.5845C7.02685 15.3658 7.45434 15.2813 7.91165 15.2813H17.3014C17.3511 15.2813 17.376 15.2564 17.376 15.2067V5.2552ZM12.3605 18.7807H16.9087C16.9585 18.7807 16.9684 18.7707 16.9485 18.721C16.9038 18.6166 16.869 18.5073 16.8392 18.3979C16.7596 18.1245 16.7199 17.8462 16.7248 17.5628C16.7248 17.2099 16.7845 16.862 16.9137 16.5289C16.9286 16.4892 16.9187 16.4742 16.8789 16.4792H8.05083C7.95638 16.4792 7.85697 16.4792 7.76252 16.4842C7.41954 16.509 7.12626 16.6333 6.88767 16.8818C6.63416 17.1503 6.5248 17.4734 6.60433 17.8412C6.6789 18.1941 6.89761 18.4427 7.21077 18.6117C7.43445 18.7359 7.68299 18.7707 7.9365 18.7707H12.3655L12.3605 18.7807Z" fill="#828B95"/>
</svg>
