<svg width="24" height="24" viewBox="0 0 24 24" fill="none" xmlns="http://www.w3.org/2000/svg">
<path fill-rule="evenodd" clip-rule="evenodd" d="M11.9909 11.8149C9.77791 11.8149 9.25791 8.52616 10.8248 7.36402C11.1666 7.11045 11.5281 6.98926 11.9909 6.98926C14.8772 6.98926 14.6478 11.8149 11.9909 11.8149ZM11.5396 8.32785C11.6678 8.23279 11.7768 8.18926 11.9909 8.18926C12.3348 8.18926 12.5085 8.31328 12.6258 8.46807C12.7715 8.66035 12.8793 8.98123 12.8699 9.37358C12.8606 9.76482 12.737 10.109 12.5686 10.3266C12.4218 10.5163 12.2463 10.6149 11.9909 10.6149C11.6297 10.6149 11.2968 10.3846 11.1629 9.76984C11.0198 9.11296 11.2451 8.54632 11.5396 8.32785Z" fill="#828B95"/>
<path fill-rule="evenodd" clip-rule="evenodd" d="M5.4001 17.6513L5.3999 6.0984C5.39989 4.93845 6.34023 3.99867 7.49985 3.99858L9.65612 3.99835C11.9376 3.99807 14.2192 3.99779 16.5009 3.99849C17.6601 3.99884 18.5999 4.93834 18.5999 6.0979L18.6001 15.9013C18.6001 16.049 18.5456 16.1914 18.4472 16.3014L18.435 16.3159C18.4233 16.3301 18.4044 16.3538 18.3806 16.3861C18.3326 16.4509 18.2668 16.5479 18.2007 16.6697C18.0659 16.9183 17.9465 17.2396 17.9465 17.5866C17.9465 18.0234 18.1342 18.4642 18.3045 18.7657C18.4595 19.0401 18.4304 19.3457 18.3093 19.5701C18.1867 19.7974 17.9345 20.0013 17.5951 20.0013H7.8751C7.23154 20.0013 6.60671 19.7631 6.13989 19.3274C5.67166 18.8904 5.4001 18.2884 5.4001 17.6513ZM7.49994 5.19858C7.00271 5.19862 6.5999 5.60148 6.5999 6.09839L6.60007 15.6369C6.94683 15.4391 7.33988 15.3249 7.74417 15.3046L7.7444 15.3028C7.89759 14.1115 8.53114 13.3279 9.36866 12.8658C10.1749 12.4211 11.1415 12.2871 12 12.2871C12.8586 12.2871 13.8252 12.4211 14.6314 12.8658C15.4686 13.3277 16.102 14.1109 16.2555 15.3013H17.4001L17.3999 6.09792C17.3999 5.60122 16.9974 5.19864 16.5005 5.19849C14.2196 5.19779 11.9387 5.19807 9.65764 5.19835L7.49994 5.19858ZM16.9583 16.5013C16.8394 16.8067 16.7465 17.1759 16.7465 17.5866C16.7465 18.0379 16.859 18.4579 16.9944 18.8013H7.8751C7.52411 18.8013 7.19511 18.6708 6.95867 18.4501C6.72363 18.2307 6.6001 17.9424 6.6001 17.6513C6.6001 17.3602 6.72363 17.0719 6.95867 16.8525C7.1951 16.6318 7.52411 16.5013 7.8751 16.5013H16.9583ZM8.96314 15.279H15.037C14.9035 14.598 14.5359 14.1836 14.0518 13.9166C13.4958 13.6099 12.7594 13.4871 12 13.4871C11.2407 13.4871 10.5043 13.6099 9.94828 13.9166C9.46415 14.1836 9.0966 14.598 8.96314 15.279Z" fill="#828B95"/>
</svg>
