<svg width="24" height="24" viewBox="0 0 24 24" fill="none" xmlns="http://www.w3.org/2000/svg">
<path fill-rule="evenodd" clip-rule="evenodd" d="M4.01877 8.4518C4.26299 7.613 5.26258 7.50019 5.78704 8.02465L8.78944 11.0271C8.94565 11.1833 9.19892 11.1833 9.35513 11.0271L10.9879 9.39426C11.1441 9.23805 11.1441 8.98479 10.9879 8.82858L8.05068 5.89134C7.51763 5.35829 7.64606 4.33464 8.51197 4.11503C10.6906 3.5625 13.1241 4.16859 14.8584 5.9029C16.6517 7.69621 17.2389 10.2373 16.5857 12.4713L19.7512 15.6368C20.7666 16.6522 20.7666 18.2984 19.7512 19.3138L19.2749 19.7901C18.2596 20.8054 16.6134 20.8054 15.598 19.7901L12.4937 16.6858C10.2178 17.4241 7.5889 16.8539 5.74812 15.0132C3.95667 13.2217 3.36886 10.6841 4.01877 8.4518ZM5.10444 9.0391C4.68832 10.7922 5.18507 12.7531 6.59665 14.1646C8.12499 15.693 10.2969 16.1487 12.1519 15.5351C12.5377 15.4074 12.9907 15.4858 13.3056 15.8006L16.4465 18.9415C16.9933 19.4883 17.8797 19.4883 18.4264 18.9415L18.9027 18.4653C19.4494 17.9185 19.4494 17.0321 18.9027 16.4854L15.7015 13.2842C15.3958 12.9785 15.3126 12.5413 15.4256 12.1626C15.9698 10.34 15.4987 8.24023 14.0099 6.75143C12.6492 5.39074 10.7779 4.87998 9.07426 5.21786L11.8364 7.98005C12.4613 8.60489 12.4613 9.61795 11.8364 10.2428L10.2037 11.8756C9.57882 12.5004 8.56576 12.5004 7.94092 11.8756L5.10444 9.0391Z" fill="#828B95"/>
</svg>
