<svg width="24" height="24" viewBox="0 0 24 24" fill="none" xmlns="http://www.w3.org/2000/svg">
<path d="M4.98174 8.23965C4.98174 7.46645 5.60854 6.83965 6.38174 6.83965H6.43474C6.4425 6.83995 6.45029 6.84009 6.45812 6.84009L17.5622 6.83972C18.3354 6.83969 18.9623 7.4665 18.9623 8.23972V8.50285C18.9623 8.83422 19.2309 9.10285 19.5623 9.10285C19.8936 9.10285 20.1623 8.83422 20.1623 8.50285V8.23972C20.1623 6.80374 18.9982 5.63967 17.5622 5.63972L7.03302 5.64008C7.02544 5.63979 7.01783 5.63965 7.01018 5.63965H6.38174C4.9458 5.63965 3.78174 6.80371 3.78174 8.23965V15.6254C3.78174 17.0613 4.9458 18.2254 6.38174 18.2254H7.0548C7.13566 19.3844 8.10153 20.2996 9.28115 20.2996H11.3965C11.7279 20.2996 11.9965 20.031 11.9965 19.6996C11.9965 19.3682 11.7279 19.0996 11.3965 19.0996H9.28115C8.76488 19.0996 8.33716 18.7204 8.26128 18.2254H10.236C10.5674 18.2254 10.836 17.9568 10.836 17.6254C10.836 17.294 10.5674 17.0254 10.236 17.0254H6.38174C5.60854 17.0254 4.98174 16.3986 4.98174 15.6254V8.23965Z" fill="#828B95"/>
<path fill-rule="evenodd" clip-rule="evenodd" d="M18.574 15.3224C18.8616 13.9803 17.6794 12.8213 16.3455 13.1031C15.9908 13.1781 15.6747 13.3799 15.4385 13.6143C15.2025 13.8486 14.998 14.1634 14.922 14.5183C14.6344 15.8601 15.8162 17.0193 17.1503 16.7377C17.8608 16.5877 18.4217 16.0333 18.574 15.3224ZM16.5935 14.2772C17.0923 14.1719 17.503 14.5935 17.4007 15.071L16.0953 14.7698C16.1114 14.6945 16.1708 14.5782 16.2839 14.466C16.3967 14.3539 16.515 14.2938 16.5935 14.2772ZM16.9024 15.5636C17.1534 15.5106 17.3485 15.3145 17.4007 15.071L16.0953 14.7698C15.993 15.2471 16.4035 15.6689 16.9024 15.5636Z" fill="#828B95"/>
<path fill-rule="evenodd" clip-rule="evenodd" d="M19.1899 11.5957C19.6791 11.5276 20.237 11.6927 20.5706 12.1636C20.7998 12.4872 20.9848 12.8356 21.1242 13.1992C21.3307 13.7378 21.1592 14.2937 20.8308 14.6635L20.7131 14.796C20.6016 14.9216 20.5956 15.1087 20.6988 15.2412L20.8093 15.383C21.1132 15.773 21.249 16.3393 21.0073 16.8639C20.8482 17.2089 20.6447 17.5404 20.396 17.8506C20.0331 18.303 19.4621 18.4375 18.9718 18.3368L18.7985 18.3012C18.6341 18.2675 18.4689 18.3558 18.4058 18.5114L18.3312 18.6954C18.145 19.1546 17.7209 19.5563 17.1439 19.6076C16.7582 19.642 16.3673 19.6284 15.9806 19.5653C15.4138 19.4728 15.0223 19.0472 14.8674 18.5815L14.8056 18.3957C14.7526 18.2364 14.5935 18.1376 14.4273 18.1608L14.247 18.1858C13.7573 18.254 13.1989 18.0885 12.8655 17.6168C12.6373 17.2938 12.4529 16.9463 12.3141 16.5837C12.1079 16.0452 12.2793 15.4896 12.6076 15.1199L12.7273 14.985C12.8388 14.8595 12.8448 14.6723 12.7416 14.5399L12.6311 14.398C12.3269 14.0075 12.1911 13.4405 12.4337 12.9156C12.5932 12.5707 12.7971 12.2394 13.0463 11.9294C13.4093 11.4779 13.9796 11.3438 14.4694 11.4444L14.642 11.4798C14.8064 11.5136 14.9715 11.4252 15.0346 11.2696L15.0794 11.1592C15.2666 10.6978 15.6876 10.3063 16.251 10.2433C16.6391 10.1999 17.033 10.1979 17.415 10.2425C18.0096 10.3119 18.4239 10.7512 18.5838 11.2319L18.6348 11.3853C18.6878 11.5446 18.8469 11.6434 19.0132 11.6203L19.1899 11.5957ZM19.5913 12.8572C19.5632 12.8175 19.4858 12.7661 19.3553 12.7843L19.1786 12.8088C18.4392 12.9117 17.7318 12.4724 17.4962 11.7641L17.4451 11.6106C17.4021 11.4814 17.3198 11.4395 17.2759 11.4344C16.9909 11.4011 16.6888 11.4018 16.3844 11.4358C16.325 11.4425 16.2399 11.4908 16.1914 11.6102L16.1466 11.7207C15.866 12.4124 15.1318 12.8054 14.4006 12.6553L14.2281 12.6199C14.0985 12.5933 14.0148 12.64 13.9816 12.6813C13.7939 12.9147 13.6416 13.1626 13.523 13.4192C13.5025 13.4634 13.4966 13.5563 13.5777 13.6605L13.6883 13.8024C14.147 14.3912 14.1203 15.2236 13.6247 15.7818L13.5049 15.9166C13.4175 16.0151 13.417 16.1083 13.4347 16.1545C13.5383 16.4252 13.6757 16.684 13.8454 16.9242C13.8735 16.964 13.9509 17.0155 14.0816 16.9973L14.2619 16.9722C15.0012 16.8693 15.7087 17.3087 15.9443 18.017L16.0061 18.2028C16.0475 18.3272 16.1269 18.3733 16.174 18.381C16.4606 18.4278 16.7508 18.4379 17.0375 18.4124C17.0859 18.4081 17.1695 18.367 17.2192 18.2443L17.2938 18.0603C17.5744 17.3686 18.3086 16.9756 19.0398 17.1257L19.2132 17.1613C19.3429 17.188 19.4267 17.1411 19.4598 17.0998C19.6471 16.8662 19.7991 16.6183 19.9174 16.3616C19.9379 16.3173 19.9437 16.2245 19.8627 16.1205L19.7522 15.9787C19.2934 15.3898 19.3202 14.5575 19.8158 13.9993L19.9335 13.8667C20.0209 13.7682 20.0214 13.6749 20.0037 13.6287C19.8997 13.3574 19.7618 13.0979 19.5913 12.8572Z" fill="#828B95"/>
</svg>
