<svg width="24" height="24" viewBox="0 0 24 24" fill="none" xmlns="http://www.w3.org/2000/svg">
<path fill-rule="evenodd" clip-rule="evenodd" d="M11.4105 9.35935C13.3535 8.94578 15.049 10.6407 14.6356 12.5842C14.4172 13.6109 13.6108 14.4173 12.5841 14.6356C12.5841 14.6356 12.5841 14.6356 12.5841 14.6356C10.6407 15.0489 8.94591 13.3536 9.3593 11.4106C9.46387 10.9192 9.75233 10.46 10.1061 10.1062C10.4599 9.75242 10.919 9.46394 11.4105 9.35935ZM13.6575 12.3762C13.9202 11.141 12.8535 10.0746 11.6186 10.3374C11.3588 10.3927 11.0648 10.5617 10.8132 10.8133C10.5617 11.0648 10.3927 11.3588 10.3374 11.6187C10.0747 12.8535 11.141 13.9202 12.3761 13.6575C13.0165 13.5213 13.5212 13.0166 13.6575 12.3762Z" fill="#333333"/>
<path fill-rule="evenodd" clip-rule="evenodd" d="M11.5811 6.2003C11.8667 6.18022 12.1487 6.18084 12.4257 6.20092C13.021 6.24407 13.461 6.67978 13.6116 7.19103L13.6458 7.30674C13.6679 7.38191 13.7371 7.46634 13.8586 7.51677C13.9776 7.56619 14.0836 7.55599 14.1543 7.51749L14.2599 7.46C14.7278 7.20508 15.3468 7.2081 15.7983 7.598C16.0136 7.78397 16.2152 7.98548 16.4012 8.20079C16.7913 8.65227 16.7944 9.27137 16.5394 9.73946L16.482 9.84494C16.4434 9.91566 16.4333 10.0217 16.4827 10.1408C16.5331 10.2622 16.6176 10.3315 16.6928 10.3537L16.8091 10.3879C17.3203 10.5386 17.756 10.9785 17.7992 11.5738C17.8193 11.8505 17.8199 12.1323 17.7999 12.4177C17.7581 13.0149 17.3224 13.4596 16.807 13.6116L16.7119 13.6396C16.6324 13.663 16.5437 13.7367 16.4914 13.8649C16.4411 13.9884 16.4516 14.0982 16.4917 14.1719L16.5507 14.2802C16.8051 14.7472 16.8031 15.3655 16.4135 15.8169C16.2297 16.0298 16.0305 16.229 15.8176 16.4129C15.3662 16.8026 14.7478 16.8047 14.2807 16.5503L14.1731 16.4916C14.0992 16.4514 13.9892 16.4409 13.8655 16.4913C13.7371 16.5437 13.6633 16.6325 13.6399 16.7121L13.6119 16.807C13.46 17.3224 13.0153 17.758 12.4181 17.7999C12.1329 17.8199 11.8512 17.8193 11.5746 17.7992C10.9793 17.7561 10.5393 17.3204 10.3886 16.8091L10.3546 16.6939C10.3324 16.6184 10.2628 16.5336 10.1409 16.483C10.0214 16.4334 9.91497 16.4436 9.84393 16.4823L9.73931 16.5393C9.2712 16.7943 8.65207 16.7912 8.20059 16.401C7.98542 16.2151 7.78404 16.0137 7.59817 15.7985C7.20825 15.347 7.20522 14.728 7.46014 14.26L7.51717 14.1553C7.55584 14.0843 7.56605 13.9779 7.51647 13.8585C7.46587 13.7366 7.38113 13.667 7.3056 13.6448L7.19099 13.611C6.67969 13.4603 6.24394 13.0202 6.20086 12.4249C6.18083 12.148 6.18024 11.8662 6.20033 11.5807C6.24234 10.9837 6.67792 10.5391 7.19324 10.3872L7.32223 10.3492C7.39341 10.3282 7.46902 10.2682 7.51883 10.1566C7.57315 10.0349 7.56244 9.9267 7.5284 9.86421L7.48234 9.77965C7.22722 9.31129 7.24169 8.69796 7.62933 8.25633C7.82432 8.03418 8.03464 7.82388 8.25681 7.6289C8.69854 7.24125 9.31194 7.22682 9.78036 7.48197L9.86527 7.52822C9.92761 7.56218 10.0356 7.57291 10.1572 7.51869C10.2687 7.46896 10.3286 7.39344 10.3495 7.3224L10.3876 7.19322C10.5395 6.67788 10.9841 6.24229 11.5811 6.2003ZM12.3534 7.1983C12.1238 7.18166 11.8894 7.18109 11.6513 7.19784C11.5302 7.20635 11.3984 7.30073 11.3468 7.47594L11.3087 7.60512C11.1919 8.00144 10.898 8.28324 10.5645 8.43197C10.2175 8.58673 9.77515 8.61786 9.38693 8.4064L9.30202 8.36014C9.1531 8.27903 9.00306 8.30448 8.91642 8.38051C8.72686 8.54687 8.54725 8.72646 8.38088 8.916C8.3049 9.00257 8.27945 9.15249 8.36051 9.30131L8.40657 9.38586C8.61817 9.77432 8.58696 10.2169 8.43203 10.5641C8.28321 10.8977 8.00133 11.1916 7.60495 11.3084L7.47596 11.3464C7.30076 11.3981 7.20638 11.5299 7.19786 11.6509C7.18111 11.8889 7.18165 12.1232 7.19826 12.3527C7.20678 12.4704 7.29923 12.6004 7.47372 12.6518L7.58833 12.6856C8.00256 12.8077 8.29486 13.1254 8.44004 13.475C8.58638 13.8275 8.60107 14.256 8.39534 14.6336L8.33831 14.7383C8.25133 14.898 8.27772 15.0554 8.35499 15.1448C8.50908 15.3232 8.67604 15.4903 8.85441 15.6444C8.94387 15.7217 9.10125 15.7481 9.26096 15.6611L9.36558 15.6041C9.74333 15.3984 10.1718 15.4131 10.5243 15.5594C10.874 15.7046 11.1917 15.997 11.3138 16.4112L11.3478 16.5264C11.3992 16.7009 11.5291 16.7933 11.6469 16.8019C11.8762 16.8185 12.1103 16.8191 12.3481 16.8024C12.4692 16.7939 12.6011 16.6995 12.6527 16.5243L12.6807 16.4294C12.8052 16.0068 13.1314 15.7107 13.4879 15.5654C13.8422 15.4209 14.272 15.4068 14.6514 15.6134L14.7591 15.6721C14.9187 15.7591 15.0753 15.7326 15.164 15.656C15.34 15.5041 15.5046 15.3394 15.6565 15.1635C15.733 15.0748 15.7595 14.9181 15.6726 14.7585L15.6136 14.6503C15.407 14.2711 15.4211 13.8416 15.5654 13.4875C15.7107 13.1311 16.0066 12.8049 16.4292 12.6804L16.5243 12.6524C16.6995 12.6007 16.7939 12.4689 16.8024 12.3478C16.8191 12.1098 16.8185 11.8756 16.8018 11.6462C16.7933 11.5284 16.7008 11.3986 16.5264 11.3471L16.4101 11.3129C15.9963 11.1909 15.7042 10.8736 15.5592 10.5243C15.4129 10.1721 15.3982 9.74399 15.6038 9.36659L15.6613 9.26112C15.7482 9.1014 15.7218 8.94404 15.6445 8.85458C15.4903 8.67608 15.3232 8.50902 15.1447 8.35484C15.0552 8.27758 14.8979 8.25119 14.7382 8.33817L14.6326 8.39566C14.2553 8.6012 13.8273 8.58655 13.4751 8.44031C13.1258 8.29526 12.8085 8.00323 12.6866 7.58946L12.6524 7.47375C12.601 7.29928 12.4711 7.20683 12.3534 7.1983Z" fill="#333333"/>
</svg>
