<svg width="24" height="24" viewBox="0 0 24 24" fill="none" xmlns="http://www.w3.org/2000/svg">
<path fill-rule="evenodd" clip-rule="evenodd" d="M11.5427 9.94559C13.0531 9.62411 14.3718 10.9425 14.0505 12.4532C13.8805 13.2522 13.2531 13.8796 12.4541 14.0495C12.4541 14.0495 12.4541 14.0495 12.4541 14.0495C10.9434 14.3708 9.62519 13.0522 9.94653 11.5418C10.0287 11.1559 10.254 10.7991 10.527 10.5261C10.7999 10.2531 11.1567 10.0277 11.5427 9.94559ZM13.1702 12.266C13.3559 11.3927 12.603 10.6401 11.73 10.8259C11.5525 10.8637 11.3444 10.9814 11.1634 11.1624C10.9824 11.3434 10.8646 11.5515 10.8268 11.7291C10.6411 12.6021 11.3937 13.3549 12.2669 13.1692C12.7183 13.0732 13.0741 12.7174 13.1702 12.266Z" fill="#333333"/>
<path fill-rule="evenodd" clip-rule="evenodd" d="M11.6923 7.57394C11.9034 7.55963 12.1119 7.56014 12.3169 7.57462C12.8048 7.60909 13.1619 7.96587 13.2836 8.37889L13.307 8.45811C13.3161 8.48905 13.3494 8.53676 13.4233 8.56747C13.495 8.59724 13.5503 8.58773 13.5803 8.5714L13.6527 8.53199C14.0306 8.32612 14.535 8.32637 14.9043 8.64644C15.0642 8.78508 15.2141 8.93497 15.3528 9.09489C15.6729 9.46405 15.6732 9.96843 15.4674 10.3464L15.4281 10.4184C15.4117 10.4485 15.4022 10.504 15.4321 10.5758C15.4628 10.6499 15.5106 10.6833 15.5417 10.6924L15.6208 10.7157C16.0338 10.8375 16.3906 11.1946 16.4251 11.6824C16.4398 11.8905 16.4402 12.1022 16.4252 12.3166C16.3914 12.8009 16.0385 13.1584 15.6259 13.28L15.5563 13.3005C15.5223 13.3106 15.4712 13.347 15.4389 13.4262C15.4082 13.5016 15.4179 13.5601 15.4356 13.5926L15.4741 13.6633C15.6806 14.0423 15.6813 14.5491 15.3593 14.9202C15.2241 15.0759 15.0781 15.222 14.9224 15.3572C14.5515 15.6794 14.0446 15.6788 13.6655 15.4723L13.595 15.4339C13.5625 15.4162 13.5038 15.4064 13.4282 15.4373C13.3489 15.4696 13.3124 15.5208 13.3023 15.5549L13.2818 15.6246C13.1601 16.0373 12.8025 16.3903 12.3181 16.4242C12.1042 16.4391 11.8929 16.4389 11.6853 16.4243C11.1971 16.3899 10.8398 16.033 10.718 15.6198L10.6947 15.541C10.6855 15.5096 10.6519 15.4616 10.5775 15.4307C10.5053 15.4007 10.4496 15.4102 10.4193 15.4268L10.3473 15.466C9.96918 15.6719 9.4645 15.6716 9.09518 15.3512C8.93575 15.2129 8.78629 15.0634 8.64802 14.904C8.32769 14.5346 8.32742 14.0299 8.5334 13.6517L8.57275 13.5795C8.5892 13.5493 8.59872 13.4937 8.56883 13.4217C8.53799 13.3474 8.49004 13.3139 8.45884 13.3047L8.37991 13.2814C7.96669 13.1596 7.60977 12.8022 7.57547 12.3141C7.5611 12.1095 7.56064 11.9015 7.57494 11.6908C7.60828 11.1999 7.9662 10.8378 8.38398 10.7147L8.47162 10.6889C8.5005 10.6804 8.54165 10.653 8.57152 10.5861C8.60466 10.5118 8.59348 10.4559 8.58132 10.4335L8.5466 10.3698C8.34212 9.99441 8.35217 9.49944 8.66647 9.14148C8.81478 8.97257 8.97472 8.81267 9.14368 8.66441C9.5017 8.35026 9.9966 8.3403 10.3719 8.54474L10.4359 8.5796C10.4582 8.59171 10.5139 8.60289 10.5881 8.56982C10.6549 8.54001 10.6822 8.49894 10.6907 8.47015L10.7165 8.38262C10.8396 7.96499 11.2015 7.60722 11.6923 7.57394ZM12.2535 8.47238C12.0898 8.46082 11.9229 8.46037 11.7532 8.47188C11.693 8.47596 11.6128 8.52499 11.5798 8.63707L11.554 8.7246C11.4592 9.04609 11.2213 9.27283 10.9547 9.39177C10.6776 9.51535 10.3209 9.54181 10.0054 9.36996L9.94143 9.3351C9.8536 9.28726 9.77571 9.30718 9.73729 9.3409C9.59766 9.46342 9.46534 9.5957 9.34277 9.7353C9.30907 9.77368 9.28914 9.85151 9.33695 9.93929L9.37168 10.003C9.54363 10.3187 9.5171 10.6756 9.39339 10.9528C9.27438 11.2195 9.04759 11.4574 8.72607 11.5521L8.63843 11.578C8.52615 11.6111 8.47698 11.6914 8.47288 11.7518C8.46138 11.9211 8.46179 12.0877 8.47326 12.251C8.47723 12.3076 8.52386 12.3855 8.63436 12.4181L8.71329 12.4414C9.04935 12.5404 9.28412 12.7973 9.40006 13.0766C9.51703 13.3584 9.52989 13.7038 9.36311 14.01L9.32375 14.0822C9.2687 14.1833 9.29078 14.2715 9.32797 14.3143C9.43835 14.4416 9.55767 14.561 9.68494 14.6714C9.72776 14.7085 9.81581 14.7306 9.9168 14.6756L9.98876 14.6364C10.2951 14.4695 10.6408 14.4824 10.9227 14.5995C11.2021 14.7155 11.459 14.9504 11.558 15.2865L11.5813 15.3653C11.6138 15.4758 11.6918 15.5225 11.7484 15.5265C11.9142 15.5381 12.0834 15.5384 12.2553 15.5264C12.3111 15.5225 12.3871 15.4768 12.4185 15.3701L12.4391 15.3004C12.5401 14.9576 12.8038 14.7199 13.0884 14.6039C13.3715 14.4884 13.7179 14.476 14.0255 14.6435L14.096 14.6819C14.199 14.738 14.2887 14.7156 14.3322 14.6778C14.456 14.5702 14.5721 14.4541 14.6796 14.3302C14.7174 14.2866 14.7399 14.1969 14.6837 14.0938L14.6452 14.0231C14.4778 13.7157 14.4902 13.3695 14.6055 13.0865C14.7215 12.802 14.9591 12.5383 15.3018 12.4373L15.3714 12.4167C15.478 12.3854 15.5235 12.3095 15.5274 12.2539C15.5394 12.0816 15.5391 11.9121 15.5273 11.746C15.5234 11.6895 15.4767 11.6116 15.3663 11.579L15.2872 11.5557C14.9515 11.4567 14.7168 11.2002 14.6009 10.9211C14.4839 10.6394 14.471 10.2941 14.6377 9.98793L14.677 9.91585C14.7319 9.81506 14.7099 9.7272 14.6728 9.68451C14.5621 9.55685 14.4425 9.43718 14.3148 9.32651C14.272 9.28944 14.1841 9.2674 14.0832 9.32234L14.0108 9.36176C13.7049 9.5284 13.3598 9.51557 13.0782 9.39868C12.7992 9.28282 12.5426 9.04826 12.4437 8.71256L12.4203 8.63334C12.3878 8.52295 12.3099 8.47637 12.2535 8.47238Z" fill="#333333"/>
</svg>
