<svg width="24" height="24" viewBox="0 0 24 24" fill="none" xmlns="http://www.w3.org/2000/svg">
<path fill-rule="evenodd" clip-rule="evenodd" d="M5.96284 6.637C5.75637 11.8968 7.16694 15.01 8.65578 16.8275C10.0314 18.5069 11.5169 19.1325 11.9947 19.3C12.4757 19.1277 13.975 18.4863 15.3582 16.7977C16.8539 14.9718 18.2635 11.8613 18.0318 6.64048C16.4369 5.87805 14.3083 5.49534 12.1099 5.50084C9.91313 5.50634 7.70437 5.89943 5.96284 6.637ZM12.1069 4.30084C14.456 4.29497 16.8104 4.70612 18.6273 5.59551C18.9953 5.77565 19.21 6.14377 19.2276 6.5204C19.4856 12.0358 18.0003 15.466 16.2865 17.5581C14.5822 19.6388 12.7012 20.3361 12.2537 20.4792C12.0868 20.5325 11.9115 20.533 11.7447 20.4811C11.2959 20.3415 9.4264 19.662 7.72746 17.588C6.01978 15.5032 4.53509 12.071 4.76657 6.52045C4.78326 6.12038 5.02164 5.73613 5.41624 5.56564C7.34848 4.73081 9.75475 4.30673 12.1069 4.30084Z" fill="#333333"/>
<path fill-rule="evenodd" clip-rule="evenodd" d="M11.9985 7.75322C11.6671 7.75322 11.3985 8.02185 11.3985 8.35322L11.3985 12.8131C11.3985 13.1444 11.6671 13.4131 11.9985 13.4131C12.3299 13.4131 12.5985 13.1444 12.5985 12.8131L12.5985 8.35322C12.5985 8.02185 12.3299 7.75322 11.9985 7.75322Z" fill="#333333"/>
<path fill-rule="evenodd" clip-rule="evenodd" d="M11.9985 14.3934C11.5843 14.3934 11.2485 14.7292 11.2485 15.1434V15.2186C11.2485 15.6328 11.5843 15.9686 11.9985 15.9686C12.4127 15.9686 12.7485 15.6328 12.7485 15.2186V15.1434C12.7485 14.7292 12.4127 14.3934 11.9985 14.3934Z" fill="#333333"/>
</svg>
