<svg width="20" height="20" viewBox="0 0 20 20" fill="none" xmlns="http://www.w3.org/2000/svg">
<path fill-rule="evenodd" clip-rule="evenodd" d="M13.4014 4.64277C14.4231 4.64277 15.2514 5.47104 15.2514 6.49277V13.2741C15.2514 14.2959 14.4231 15.1241 13.4014 15.1241H10.9022L9.98785 16.6518C9.98674 16.6536 9.9851 16.6559 9.9851 16.6559L9.98357 16.6576C9.98357 16.6576 9.979 16.6599 9.97353 16.6599C9.96807 16.6599 9.96409 16.658 9.96409 16.658C9.96409 16.658 9.96172 16.6559 9.95923 16.6517L9.04988 15.1241H6.59873C5.577 15.1241 4.74873 14.2959 4.74873 13.2741V6.49277C4.74873 5.47105 5.577 4.64277 6.59873 4.64277H13.4014ZM16.5514 6.49277C16.5514 4.75307 15.1411 3.34277 13.4014 3.34277H6.59873C4.85903 3.34277 3.44873 4.75308 3.44873 6.49277V13.2741C3.44873 15.0138 4.85903 16.4241 6.59873 16.4241H8.31084L8.84217 17.3167C9.35196 18.1731 10.5915 18.1745 11.1033 17.3194L11.6391 16.4241H13.4014C15.1411 16.4241 16.5514 15.0138 16.5514 13.2741V6.49277Z" fill="#A8ADB4"/>
<path fill-rule="evenodd" clip-rule="evenodd" d="M13.9124 10.7149C14.1921 10.94 14.2363 11.3491 14.0113 11.6288C12.8789 13.0358 11.3948 13.7045 9.90112 13.6665C8.41738 13.6288 6.99247 12.8959 5.95409 11.6344C5.72595 11.3572 5.7657 10.9476 6.04286 10.7194C6.32003 10.4913 6.72967 10.531 6.95781 10.8082C7.7831 11.8109 8.86713 12.3398 9.93418 12.367C10.9913 12.3939 12.0998 11.9305 12.9985 10.8138C13.2236 10.5341 13.6327 10.4898 13.9124 10.7149Z" fill="#A8ADB4"/>
<path fill-rule="evenodd" clip-rule="evenodd" d="M9.59001 6.59473C9.59001 6.26336 9.32139 5.99473 8.99002 5.99473C8.65864 5.99473 8.39002 6.26336 8.39002 6.59473V6.76072H8.22451C7.89314 6.76072 7.62451 7.02935 7.62451 7.36072C7.62451 7.69209 7.89314 7.96072 8.22451 7.96072H8.39002V8.73063H8.22451C7.89314 8.73063 7.62451 8.99926 7.62451 9.33063C7.62451 9.662 7.89314 9.93063 8.22451 9.93063H8.39002V10.0966C8.39002 10.4279 8.65864 10.6966 8.99002 10.6966C9.32139 10.6966 9.59002 10.4279 9.59002 10.0966V9.93063H10.3599V10.0966C10.3599 10.4279 10.6286 10.6966 10.9599 10.6966C11.2913 10.6966 11.5599 10.4279 11.5599 10.0966V9.93063H11.7255C12.0569 9.93063 12.3255 9.662 12.3255 9.33063C12.3255 8.99926 12.0569 8.73063 11.7255 8.73063H11.5599V7.96072H11.7254C12.0568 7.96072 12.3254 7.69209 12.3254 7.36072C12.3254 7.02935 12.0568 6.76072 11.7254 6.76072H11.5599V6.59473C11.5599 6.26336 11.2913 5.99473 10.9599 5.99473C10.6286 5.99473 10.3599 6.26336 10.3599 6.59473V6.76072L9.59001 6.76072V6.59473ZM9.59002 7.96072V8.73063L10.3599 8.73063V7.96072H9.59002Z" fill="#A8ADB4"/>
</svg>
