<svg width="20" height="20" viewBox="0 0 20 20" fill="none" xmlns="http://www.w3.org/2000/svg">
<path d="M7.16512 4.78084C8.29929 5.13453 9.18167 6.14252 9.18167 7.4392C9.18167 8.40353 8.78022 9.08559 8.22557 9.61177C7.81683 9.99952 7.29223 10.3271 6.81656 10.6241C6.69791 10.6981 6.5822 10.7704 6.4722 10.8411C5.88398 11.2194 5.36814 11.6029 4.99068 12.1276C4.70801 12.5206 4.48552 13.018 4.39886 13.6972H8.53167C8.89065 13.6972 9.18167 13.9882 9.18167 14.3472C9.18167 14.7062 8.89065 14.9972 8.53167 14.9972H3.70957C3.35059 14.9972 3.05957 14.7062 3.05957 14.3472C3.05957 13.0712 3.39723 12.1165 3.93536 11.3685C4.46205 10.6363 5.15173 10.1447 5.76904 9.74771C5.91705 9.65253 6.05786 9.5643 6.19172 9.48043C6.64981 9.19342 7.02641 8.95745 7.33086 8.66864C7.68035 8.33709 7.88167 7.97917 7.88167 7.4392C7.88167 6.78167 7.43938 6.22812 6.7781 6.0219C6.13865 5.82249 5.26264 5.95291 4.47814 6.80791C4.23544 7.07242 3.82426 7.0901 3.55975 6.8474C3.29524 6.6047 3.27755 6.19352 3.52026 5.92901C4.61889 4.73165 6.00911 4.42034 7.16512 4.78084Z" fill="#A7A7A7"/>
<path d="M11.6944 4.78223C12.0534 4.78223 12.3444 5.07324 12.3444 5.43223V9.23902H15.2012V5.43223C15.2012 5.07324 15.4922 4.78223 15.8512 4.78223C16.2102 4.78223 16.5012 5.07324 16.5012 5.43223C16.5012 8.40346 16.5012 11.3746 16.5012 14.3458C16.5012 14.7048 16.2102 14.9958 15.8512 14.9958C15.4922 14.9958 15.2012 14.7048 15.2012 14.3458V10.539H11.6944C11.3354 10.539 11.0444 10.248 11.0444 9.88902V5.43223C11.0444 5.07324 11.3354 4.78223 11.6944 4.78223Z" fill="#A7A7A7"/>
</svg>
