<svg width="20" height="20" viewBox="0 0 20 20" fill="none" xmlns="http://www.w3.org/2000/svg">
<path fill-rule="evenodd" clip-rule="evenodd" d="M3.2124 9.99961C3.2124 6.25102 6.25151 3.21191 10.0001 3.21191C13.7492 3.21191 16.7878 6.25105 16.7878 9.99961C16.7878 13.7487 13.7492 16.7873 10.0001 16.7873C6.25151 16.7873 3.2124 13.7482 3.2124 9.99961ZM10.0001 4.51191C6.96948 4.51191 4.5124 6.96899 4.5124 9.99961C4.5124 13.0302 6.96948 15.4873 10.0001 15.4873C13.0312 15.4873 15.4878 13.0307 15.4878 9.99961C15.4878 6.96896 13.0312 4.51191 10.0001 4.51191Z" fill="#A7A7A7"/>
<path fill-rule="evenodd" clip-rule="evenodd" d="M3.85238 8.17855C4.09303 8.12169 4.34511 8.2063 4.50272 8.39684C4.77668 8.72805 5.01541 9.11033 5.20928 9.43959C5.29007 9.5768 5.35982 9.69874 5.42178 9.80703C5.52084 9.9802 5.59995 10.1185 5.67227 10.2285C5.77494 10.3848 5.90132 10.5383 6.05514 10.7223C6.0624 10.731 6.06973 10.7398 6.07712 10.7486C6.21799 10.9171 6.38251 11.1137 6.52612 11.3252C7.02465 12.0591 7.48569 12.9049 7.16476 13.9994L7.16433 14.0009C7.06865 14.3244 6.84863 14.8611 6.40397 15.1704C6.15958 15.3405 5.83092 15.3227 5.60626 15.1273C4.77445 14.404 4.1672 13.5846 3.84245 12.7527C3.45295 11.755 3.27357 11.1444 3.27357 10.0051C3.27357 9.96073 3.27303 9.91254 3.27246 9.86103C3.26898 9.54964 3.26415 9.11678 3.36853 8.66486C3.42418 8.42392 3.61172 8.23542 3.85238 8.17855ZM4.66031 11.0516C4.73415 11.4256 4.85963 11.7834 5.05344 12.2799C5.22109 12.7094 5.50868 13.1683 5.92078 13.6215C6.05991 13.1322 5.90903 12.7303 5.45076 12.0556C5.34442 11.8991 5.21715 11.7468 5.06338 11.5629L5.05769 11.5561C4.93362 11.4076 4.79136 11.2372 4.66031 11.0516Z" fill="#A7A7A7"/>
<path fill-rule="evenodd" clip-rule="evenodd" d="M11.9274 4.91C11.6865 5.05115 11.4185 5.1406 11.1819 5.20818C11.052 5.24528 10.9185 5.27922 10.7921 5.31114C10.7832 5.31338 10.7744 5.31562 10.7655 5.31785C10.646 5.34804 10.5321 5.3768 10.4187 5.408C10.2465 5.45536 10.0934 5.50422 9.95798 5.558C10.4314 5.55989 10.9569 5.71044 11.3705 5.90115C11.5858 6.00045 11.7986 6.12324 11.975 6.26627C12.1291 6.39128 12.3536 6.6095 12.4267 6.92245C12.4922 7.20317 12.4041 7.46931 12.3293 7.63124C12.2425 7.81926 12.1087 8.00807 11.9349 8.16549C11.5716 8.49436 10.9799 8.71705 10.3253 8.40399C10.3249 8.40382 10.3132 8.39848 10.2861 8.38887C10.2602 8.37965 10.2268 8.36888 10.1864 8.35707C10.1055 8.3334 10.0075 8.30872 9.90402 8.28649C9.68125 8.23862 9.49644 8.21562 9.41851 8.21667C9.41438 8.21672 9.40994 8.21677 9.40521 8.21683C9.28155 8.21823 8.95892 8.22188 8.66869 8.37553C8.53028 8.44881 8.40682 8.55313 8.31497 8.71092C8.22252 8.86976 8.13892 9.12271 8.1445 9.52877C8.14722 9.72659 8.15771 9.90216 8.18213 10.0507C8.20725 10.2036 8.2413 10.2898 8.26678 10.3316C8.27097 10.3385 8.27433 10.3432 8.27669 10.3462C8.29611 10.3503 8.37434 10.3602 8.54604 10.3106C9.31568 10.0881 9.92305 10.2601 10.3497 10.5973C10.7388 10.9049 10.9175 11.3031 10.9764 11.4407C11.0315 11.5693 11.0447 11.6946 11.0497 11.7661C11.0555 11.848 11.0545 11.9321 11.0518 12.0065C11.0487 12.0948 11.0414 12.2067 11.0342 12.3168C11.0301 12.3787 11.0261 12.44 11.0229 12.4962C11.0027 12.8499 10.999 13.2161 11.0724 13.5465C11.0789 13.576 11.0919 13.6188 11.1121 13.6653C11.1308 13.7088 11.1516 13.7458 11.1711 13.7735C11.4542 13.7475 11.7052 13.5815 11.9878 13.2199C12.0642 13.1223 12.1387 12.9852 12.2324 12.7907C12.2489 12.7563 12.2666 12.7189 12.2852 12.6796C12.3592 12.5229 12.4483 12.3344 12.5446 12.1704C12.6886 11.9251 12.7549 11.7535 12.8342 11.5482C12.8373 11.5401 12.8405 11.5319 12.8437 11.5237C12.9336 11.2912 13.0381 11.0291 13.2598 10.6755C13.3237 10.5736 13.3942 10.4455 13.4561 10.3163C12.9304 10.2249 12.5472 9.96863 12.3015 9.61673C12.1456 9.39351 12.0679 9.16258 12.0312 8.97652C11.9987 8.81178 11.9865 8.6202 12.0213 8.463C12.0555 8.30805 12.1345 8.2017 12.1843 8.14516C12.237 8.0852 12.2915 8.04213 12.3312 8.0139C12.41 7.9578 12.4947 7.91498 12.5636 7.88358C12.7057 7.81871 12.8825 7.75684 13.0644 7.70006C13.4341 7.58466 13.905 7.46584 14.3531 7.36518C14.5015 7.33185 14.6395 7.30983 14.7679 7.29676C14.2348 6.37999 13.2854 5.38966 12.0358 4.94128C11.9912 4.92526 11.9579 4.91625 11.9344 4.91138C11.9319 4.91087 11.9296 4.91041 11.9274 4.91ZM15.1606 8.17747C15.1604 8.17722 15.1593 8.17315 15.1576 8.16601C15.16 8.17415 15.1608 8.17772 15.1606 8.17747ZM13.6174 9.87603C13.6174 9.87596 13.6174 9.87685 13.6171 9.8788L13.6174 9.87603ZM11.2865 3.7785C11.6909 3.52559 12.1271 3.59289 12.4749 3.71766C14.5806 4.47323 15.9675 6.38041 16.3961 7.77018C16.3965 7.77149 16.397 7.77317 16.3977 7.77521C16.4075 7.80636 16.4432 7.91926 16.4449 8.03903C16.4458 8.10461 16.4412 8.30793 16.2819 8.49214C16.1022 8.7 15.8701 8.72401 15.7646 8.72239C15.6654 8.72087 15.5867 8.6975 15.5618 8.69007C15.5283 8.68007 15.4975 8.66867 15.4819 8.66286C15.4725 8.65938 15.4642 8.65626 15.4566 8.6534C15.4314 8.64396 15.4135 8.63723 15.3887 8.62912C15.2961 8.59883 15.0698 8.53657 14.6381 8.63357C14.2067 8.73048 13.7739 8.84046 13.4518 8.94101C13.4473 8.94239 13.443 8.94376 13.4386 8.94513C13.4612 8.96165 13.4888 8.97762 13.523 8.99211C13.6114 9.02944 13.7715 9.06812 14.0434 9.04729C14.2087 9.03463 14.4307 9.06376 14.6244 9.22344C14.8125 9.37847 14.8802 9.58001 14.9035 9.71909C14.9451 9.96784 14.8801 10.2185 14.832 10.3726C14.7229 10.722 14.5199 11.1131 14.3612 11.3662C14.2044 11.6162 14.1349 11.789 14.0562 11.9926C14.0522 12.0029 14.0482 12.0132 14.0442 12.0237C13.9618 12.2372 13.8638 12.4911 13.6657 12.8286C13.6017 12.9376 13.5459 13.0554 13.476 13.2029C13.4536 13.2501 13.4298 13.3004 13.4037 13.3545C13.3076 13.5543 13.1821 13.803 13.0121 14.0205C12.587 14.5643 11.9789 15.0783 11.087 15.0771C10.6095 15.0765 10.2933 14.7747 10.1274 14.5486C9.95559 14.3146 9.85097 14.0429 9.80332 13.8285C9.68885 13.3134 9.70368 12.7965 9.72503 12.4222C9.72996 12.3358 9.73481 12.2629 9.7391 12.1983C9.74514 12.1076 9.75009 12.0331 9.75266 11.9605C9.75368 11.9318 9.754 11.9095 9.75394 11.8927C9.71178 11.8071 9.64419 11.6967 9.54352 11.6172C9.45463 11.5469 9.28394 11.4505 8.9071 11.5594C8.56375 11.6587 8.21695 11.6876 7.89204 11.5883C7.55133 11.4841 7.31179 11.2628 7.15652 11.0079C6.88092 10.5554 6.85026 9.95724 6.84462 9.54662C6.83643 8.94978 6.95959 8.45526 7.19145 8.05693C7.42392 7.65755 7.74235 7.39501 8.06043 7.22661C8.64074 6.91938 9.2422 6.91736 9.38252 6.91689C9.3901 6.91687 9.39633 6.91685 9.40114 6.91678C9.63163 6.9137 9.9343 6.96332 10.1771 7.0155C10.4149 7.0666 10.7016 7.14293 10.8861 7.23119C10.9443 7.25901 10.9699 7.25368 10.9772 7.25218C10.9917 7.24919 11.0206 7.23833 11.0575 7.20605C10.9952 7.16647 10.9175 7.12385 10.8261 7.08166C10.5198 6.94044 10.1743 6.85595 9.94083 6.85802C9.92495 6.85816 9.90252 6.85875 9.87465 6.85949C9.67984 6.86462 9.21897 6.87675 8.86764 6.79134C8.69984 6.75054 8.28607 6.62888 8.11239 6.21636C7.91916 5.75742 8.17601 5.34764 8.36053 5.12387C8.84496 4.53641 9.54103 4.30117 10.0738 4.15458C10.2011 4.11956 10.3279 4.08755 10.4449 4.05801C10.4546 4.05557 10.4642 4.05314 10.4737 4.05073C10.6016 4.01844 10.7168 3.98903 10.8249 3.95815C11.0484 3.89434 11.193 3.83699 11.2865 3.7785Z" fill="#A7A7A7"/>
</svg>
