<svg width="20" height="20" viewBox="0 0 20 20" fill="none" xmlns="http://www.w3.org/2000/svg">
<path d="M14.4181 6.64966C14.6719 6.39582 14.6719 5.98426 14.4181 5.73042C14.1643 5.47658 13.7527 5.47658 13.4989 5.73042L6.70154 12.5277L3.86255 9.68875C3.60871 9.43491 3.19715 9.43491 2.94331 9.68875C2.68947 9.94259 2.68947 10.3542 2.94331 10.608L6.24192 13.9066C6.49576 14.1604 6.90732 14.1604 7.16116 13.9066L14.4181 6.64966Z" fill="#A7A7A7"/>
<path d="M17.0574 9.28931C17.3112 9.03547 17.3112 8.62391 17.0574 8.37007C16.8035 8.11623 16.392 8.11623 16.1381 8.37007L11.6498 12.8584L11.1199 12.3284C10.866 12.0746 10.4545 12.0746 10.2006 12.3284C9.94679 12.5822 9.94679 12.9938 10.2006 13.2476L11.1902 14.2372C11.3121 14.3591 11.4774 14.4276 11.6498 14.4276C11.8222 14.4276 11.9876 14.3591 12.1095 14.2372L17.0574 9.28931Z" fill="#A7A7A7"/>
</svg>
