<svg width="20" height="20" viewBox="0 0 20 20" fill="none" xmlns="http://www.w3.org/2000/svg">
<path fill-rule="evenodd" clip-rule="evenodd" d="M15.841 5.63811C16.0015 4.80364 15.1694 4.12572 14.3846 4.45154L3.63255 8.91528C2.89677 9.22074 2.89143 10.2611 3.62403 10.5741L6.18882 11.6699L6.94055 15.5514C7.05967 16.1665 7.79847 16.4239 8.27402 16.016L10.2911 14.2858L12.2674 15.8962C12.893 16.406 13.8363 16.0633 13.9887 15.2708L15.841 5.63811ZM5.00811 9.75179L14.4825 5.81845L12.7858 14.6417L10.745 12.9787C10.4699 12.7545 10.0737 12.7595 9.80434 12.9905L9.25054 13.4656L9.49148 12.7767L12.2747 9.15472C12.7512 8.53459 12.0557 7.69894 11.3594 8.05494L6.65991 10.4575L5.00811 9.75179ZM7.47976 11.4984L7.86522 13.4887L8.29444 12.2616C8.32021 12.1879 8.35759 12.1187 8.40517 12.0568L9.71068 10.3579L7.47976 11.4984Z" fill="#A8ADB4"/>
</svg>
