<svg width="20" height="20" viewBox="0 0 20 20" fill="none" xmlns="http://www.w3.org/2000/svg">
<path fill-rule="evenodd" clip-rule="evenodd" d="M10.0001 16.6663C7.04428 16.6663 4.53779 14.7427 3.66417 12.079C3.57196 11.9668 3.5166 11.8232 3.5166 11.6666C3.5166 11.6376 3.5185 11.6091 3.52218 11.5811C3.39886 11.0741 3.3335 10.5445 3.3335 9.99967C3.3335 9.45479 3.39887 8.92517 3.52219 8.41824C3.5185 8.39022 3.5166 8.36164 3.5166 8.33262C3.5166 8.17601 3.57199 8.03234 3.66424 7.92012C4.53793 5.25658 7.04436 3.33305 10.0001 3.33301C10 3.33301 10.0001 3.33301 10.0001 3.33301C12.9562 3.33301 15.463 5.257 16.3364 7.92104C16.4282 8.03313 16.4833 8.17644 16.4833 8.33262C16.4833 8.36122 16.4814 8.38939 16.4778 8.41702C16.6014 8.92432 16.6668 9.45435 16.6668 9.99967C16.6668 10.545 16.6014 11.075 16.4778 11.5823C16.4814 11.6099 16.4833 11.638 16.4833 11.6666C16.4833 11.8227 16.4282 11.966 16.3365 12.0781C15.4631 14.7422 12.9562 16.6663 10.0001 16.6663C10.0001 16.6663 10 16.6663 10.0001 16.6663ZM15.3668 9.99967C15.3668 10.3474 15.3338 10.6873 15.2706 11.0166H12.6762C12.7183 10.6804 12.7433 10.341 12.7506 9.99967C12.7433 9.65831 12.7183 9.3189 12.6762 8.98262H15.2706C15.3338 9.31193 15.3668 9.65194 15.3668 9.99967ZM11.3645 8.98262C11.413 9.31846 11.4418 9.658 11.4503 9.99968C11.4418 10.3413 11.413 10.6808 11.3645 11.0166H8.63563C8.5871 10.6808 8.55831 10.3413 8.54986 9.99967C8.55831 9.658 8.58711 9.31846 8.63565 8.98262H11.3645ZM12.4243 7.68262H14.8422C14.1326 6.20237 12.7642 5.098 11.1169 4.74935C11.7095 5.65532 12.1504 6.64551 12.4243 7.68262ZM8.88323 4.7494C8.29063 5.65535 7.84971 6.64553 7.57586 7.68262H5.15809C5.86767 6.20244 7.23598 5.09811 8.88323 4.7494ZM8.92755 7.68262C9.17264 6.88473 9.53313 6.12177 10.0001 5.4171C10.467 6.12177 10.8275 6.88473 11.0726 7.68262H8.92755ZM7.32392 8.98262H4.72974C4.66657 9.31193 4.6335 9.65194 4.6335 9.99967C4.6335 10.3474 4.66656 10.6873 4.72971 11.0166H7.3239C7.2818 10.6804 7.25685 10.341 7.24951 9.99967C7.25685 9.65831 7.28181 9.3189 7.32392 8.98262ZM7.57582 12.3166H5.15802C5.86759 13.7968 7.23593 14.9012 8.88323 15.2499C8.29061 14.344 7.84967 13.3537 7.57582 12.3166ZM11.1169 15.25C11.7095 14.344 12.1504 13.3538 12.4243 12.3166H14.8423C14.1327 13.7969 12.7643 14.9013 11.1169 15.25ZM11.0726 12.3166H8.92751C9.1726 13.1145 9.5331 13.8775 10.0001 14.5823C10.467 13.8775 10.8275 13.1145 11.0726 12.3166Z" fill="#A8ADB4"/>
</svg>
