<svg width="20" height="20" viewBox="0 0 20 20" fill="none" xmlns="http://www.w3.org/2000/svg">
<path fill-rule="evenodd" clip-rule="evenodd" d="M13.541 5.80404C12.2443 5.72931 10.9801 6.44947 10.6201 7.42835C10.5255 7.68549 10.2799 7.86088 10.0002 7.86088C9.72827 7.86088 9.48714 7.69482 9.3874 7.44677C8.98522 6.44657 7.70375 5.73095 6.42609 5.80484C5.81236 5.84033 5.24889 6.05919 4.82461 6.47712C4.40376 6.89166 4.06696 7.55428 3.99869 8.57631C3.9081 9.9326 4.53488 11.2601 5.64033 12.534C6.74326 13.8051 8.26525 14.9543 9.81256 15.931C9.91919 15.9983 10.0583 15.997 10.1677 15.9221C11.6196 14.9278 13.1474 13.7782 14.283 12.506C15.4241 11.2277 16.0913 9.91341 16.002 8.57631C15.9339 7.55719 15.5932 6.89511 15.1663 6.47966C14.735 6.06001 14.162 5.83982 13.541 5.80404ZM16.0728 5.54794C16.7684 6.22469 17.2135 7.20831 17.2991 8.48967C17.4223 10.335 16.4923 11.9832 15.2529 13.3717C14.0079 14.7665 12.3717 15.9884 10.9022 16.9947C10.37 17.3591 9.66951 17.3781 9.11863 17.0303C7.52323 16.0232 5.88087 14.7948 4.65845 13.386C3.43853 11.9802 2.57894 10.3258 2.70158 8.48967C2.78698 7.21113 3.22472 6.22828 3.91233 5.55097C4.59652 4.87703 5.47543 4.55764 6.35104 4.50701C7.6733 4.43054 9.10676 4.96978 9.9879 5.98054C10.8521 4.9641 12.2936 4.43 13.6158 4.50619C14.4954 4.55687 15.3816 4.87538 16.0728 5.54794Z" fill="#A7A7A7"/>
</svg>
