<svg width="20" height="20" viewBox="0 0 20 20" fill="none" xmlns="http://www.w3.org/2000/svg">
<path fill-rule="evenodd" clip-rule="evenodd" d="M7.02666 13.262L6.89784 13.1332C6.88857 13.1239 6.87964 13.1144 6.87104 13.1048C4.47609 10.659 3.6158 8.56642 3.62337 6.84521C3.63113 5.0829 4.54755 3.8631 5.33051 3.20406C5.87493 2.74581 6.60913 2.83233 7.0844 3.21126C8.31356 4.19129 9.04277 5.05189 9.40116 5.5318C9.70172 5.93427 9.77088 6.49915 9.4778 6.97362C9.24838 7.34503 8.83657 7.8761 8.15299 8.36577C8.15042 8.36762 8.14797 8.36939 8.14565 8.37109C8.14022 8.43793 8.14599 8.5417 8.18243 8.68947C8.23085 8.88582 8.32262 9.11586 8.45138 9.36258C8.71026 9.85865 9.08032 10.3496 9.40076 10.6701L9.48979 10.7591C9.81023 11.0795 10.3012 11.4496 10.7973 11.7085C11.044 11.8372 11.274 11.929 11.4704 11.9774C11.6181 12.0139 11.7219 12.0196 11.7888 12.0142C11.7905 12.0119 11.7922 12.0094 11.7941 12.0069C12.2837 11.3233 12.8148 10.9115 13.1862 10.6821C13.6607 10.389 14.2256 10.4581 14.6281 10.7587C15.108 11.1171 15.9686 11.8463 16.9486 13.0754C17.3275 13.5507 17.414 14.2849 16.9558 14.8293C16.2968 15.6123 15.0769 16.5287 13.3146 16.5365C11.5934 16.5441 9.50084 15.6838 7.05509 13.2888C7.04541 13.2802 7.03593 13.2713 7.02666 13.262ZM7.88163 12.2782C10.2266 14.602 12.037 15.2421 13.3089 15.2365C14.5881 15.2309 15.474 14.571 15.9612 13.9922C15.9639 13.989 15.9646 13.9872 15.9651 13.9857C15.9658 13.9836 15.9671 13.9785 15.9668 13.9694C15.9662 13.9499 15.9578 13.9181 15.9321 13.8859C15.0277 12.7515 14.2494 12.0984 13.8502 11.8003L13.8506 11.7998L13.8502 11.8003C13.8501 11.8003 13.8501 11.8002 13.85 11.8002C13.5981 11.9587 13.2143 12.2565 12.8509 12.7639C12.7559 12.8965 12.5502 13.1591 12.1957 13.2572C11.844 13.3546 11.4784 13.3183 11.1591 13.2396C10.8329 13.1592 10.5036 13.0216 10.1958 12.861C9.58294 12.5411 8.98474 12.0925 8.57055 11.6783L8.48153 11.5893C8.06734 11.1751 7.61872 10.5769 7.29888 9.96403C7.13827 9.65628 7.00068 9.32691 6.92025 9.00075C6.8415 8.68146 6.80525 8.31586 6.90262 7.96419C7.00077 7.60969 7.26337 7.40391 7.39596 7.30894C7.9033 6.94551 8.20119 6.56173 8.35969 6.30984C8.35964 6.30978 8.3596 6.30972 8.35955 6.30965C8.06142 5.91043 7.40834 5.13218 6.27397 4.22773C6.24176 4.20205 6.20999 4.19366 6.19044 4.19301C6.18138 4.19271 6.17622 4.19404 6.17419 4.19471C6.17267 4.19522 6.17085 4.19595 6.16766 4.19864C5.58883 4.68585 4.92899 5.5717 4.92336 6.85093C4.91776 8.12282 5.55781 9.93326 7.88163 12.2782Z" fill="#A7A7A7"/>
</svg>
