<svg width="20" height="20" viewBox="0 0 20 20" fill="none" xmlns="http://www.w3.org/2000/svg">
<path fill-rule="evenodd" clip-rule="evenodd" d="M7.09322 3.78804C8.48997 3.13446 10.0661 2.97072 11.5673 3.3231C13.0788 3.63975 14.5481 4.43657 15.5246 5.67033C16.5138 6.92032 16.8583 8.5131 16.8583 9.99994V10.6208C16.8583 12.1423 15.6457 13.1292 14.2545 13.1292C13.428 13.1292 12.6144 12.7645 12.1093 12.1264C11.5609 12.7523 10.7707 13.1506 9.8762 13.1506C8.17419 13.1506 6.8501 11.7088 6.8501 10.0006C6.8501 8.29242 8.17419 6.85059 9.8762 6.85059C10.5244 6.85059 11.1179 7.05974 11.6042 7.41311C11.6538 7.10331 11.9222 6.8666 12.246 6.8666C12.605 6.8666 12.896 7.15762 12.896 7.5166L12.896 9.79698C12.9002 9.86438 12.9023 9.93227 12.9023 10.0006C12.9023 10.0689 12.9002 10.1368 12.896 10.2042V10.6208C12.896 11.297 13.4704 11.8292 14.2545 11.8292C15.0296 11.8292 15.5583 11.3266 15.5583 10.6208V9.99994C15.5583 8.68968 15.2517 7.42041 14.5052 6.47709C13.7476 5.51982 12.5639 4.85858 11.2938 4.59403L11.277 4.5903C10.0584 4.30262 8.77829 4.43483 7.64419 4.96551C6.51009 5.49619 5.58838 6.39424 5.02842 7.51418C4.46845 8.63411 4.30303 9.9103 4.55895 11.136C4.81487 12.3617 5.47713 13.4651 6.43845 14.2674C7.39977 15.0696 8.60382 15.5239 9.85552 15.5564C11.1072 15.5889 12.3332 15.1979 13.3349 14.4466C13.6221 14.2312 14.0295 14.2894 14.2449 14.5766C14.4603 14.8638 14.4021 15.2712 14.1149 15.4866C12.879 16.4136 11.3662 16.8961 9.82174 16.856C8.27729 16.8158 6.79164 16.2554 5.60548 15.2654C4.41933 14.2755 3.60216 12.9141 3.28639 11.4017C2.97062 9.88934 3.17473 8.31466 3.86566 6.9328C4.5566 5.55093 5.69387 4.44284 7.09322 3.78804ZM11.596 9.84006C11.5193 8.86742 10.7513 8.15059 9.8762 8.15059C8.95364 8.15059 8.1501 8.94733 8.1501 10.0006C8.1501 11.0538 8.95364 11.8506 9.8762 11.8506C10.7513 11.8506 11.5193 11.1338 11.596 10.1611V9.84006Z" fill="#A7A7A7"/>
</svg>
