<svg width="20" height="20" viewBox="0 0 20 20" fill="none" xmlns="http://www.w3.org/2000/svg">
<path fill-rule="evenodd" clip-rule="evenodd" d="M8.22581 4.02396C8.19649 4.04334 8.16916 4.0648 8.14391 4.08804C6.9947 4.94006 6.61455 6.50284 6.93039 7.85167C7.09072 8.53197 7.42348 9.15751 7.91483 9.62025C7.19564 9.79186 6.49366 10.0724 5.86794 10.5043C4.60203 11.3781 3.7315 12.8142 3.60704 14.9689C3.60632 14.9814 3.60596 14.9939 3.60596 15.0064V15.027C3.60596 15.6622 4.12083 16.177 4.75596 16.177H15.2455C15.8806 16.177 16.3955 15.6622 16.3955 15.027V15.0064C16.3955 14.9939 16.3951 14.9814 16.3944 14.9689C16.27 12.8149 15.4022 11.3788 14.1384 10.5047C13.5094 10.0696 12.803 9.78807 12.0793 9.61674C12.1693 9.53169 12.2541 9.44102 12.3336 9.3453C12.8835 8.69509 13.1686 7.82709 13.1877 6.96803C13.2068 6.10846 12.9605 5.23806 12.4297 4.58475L12.4276 4.58216C11.892 3.92995 11.0847 3.50293 9.99747 3.50293C9.69205 3.50293 9.34947 3.56235 9.03034 3.66175C8.70419 3.76084 8.42521 3.8921 8.22581 4.02396ZM9.41521 4.90347C9.63445 4.83501 9.8463 4.80293 9.99747 4.80293C10.7064 4.80293 11.1405 5.06394 11.4218 5.40587C11.7235 5.77793 11.9016 6.33022 11.888 6.93912C11.8745 7.54801 11.6703 8.11733 11.3396 8.50749L11.3348 8.51311C11.0297 8.88138 10.5985 9.11953 9.99747 9.11953C9.0589 9.11953 8.42125 8.50975 8.19604 7.55482C7.96373 6.56195 8.29422 5.56327 8.96251 5.10054C8.97361 5.09286 8.9844 5.08488 8.99489 5.07662C9.08301 5.02656 9.22431 4.96135 9.41 4.90507L9.41521 4.90347ZM15.0851 14.877H4.91637C5.05286 13.1768 5.73571 12.1752 6.60642 11.5742C7.53766 10.9314 8.76813 10.6896 10.0051 10.6896C11.2421 10.6896 12.4701 10.9314 13.3989 11.5738C14.2674 12.1745 14.9487 13.1761 15.0851 14.877Z" fill="#A7A7A7"/>
</svg>
