<svg width="20" height="20" viewBox="0 0 20 20" fill="none" xmlns="http://www.w3.org/2000/svg">
<path d="M14.6123 6.67441C14.6123 7.00578 14.3437 7.27441 14.0123 7.27441H13.6809C13.3495 7.27441 13.0809 7.00578 13.0809 6.67441C13.0809 6.34304 13.3495 6.07441 13.6809 6.07441H14.0123C14.3437 6.07441 14.6123 6.34304 14.6123 6.67441Z" fill="#A8ADB4"/>
<path d="M12.0167 7.27441C12.3481 7.27441 12.6167 7.00578 12.6167 6.67441C12.6167 6.34304 12.3481 6.07441 12.0167 6.07441H11.6815C11.3502 6.07441 11.0815 6.34304 11.0815 6.67441C11.0815 7.00578 11.3502 7.27441 11.6815 7.27441H12.0167Z" fill="#A8ADB4"/>
<path d="M10.1031 6.67441C10.1031 7.00578 9.83443 7.27441 9.50306 7.27441H5.99684C5.66547 7.27441 5.39684 7.00578 5.39684 6.67441C5.39684 6.34304 5.66547 6.07441 5.99684 6.07441H9.50306C9.83443 6.07441 10.1031 6.34304 10.1031 6.67441Z" fill="#A8ADB4"/>
<path d="M13.9616 11.8768C13.9616 12.4527 13.4947 12.9196 12.9188 12.9196C12.3429 12.9196 11.876 12.4527 11.876 11.8768C11.876 11.3009 12.3429 10.834 12.9188 10.834C13.4947 10.834 13.9616 11.3009 13.9616 11.8768Z" fill="#A8ADB4"/>
<path d="M9.99987 12.9196C10.5758 12.9196 11.0427 12.4527 11.0427 11.8768C11.0427 11.3009 10.5758 10.834 9.99987 10.834C9.42394 10.834 8.95706 11.3009 8.95706 11.8768C8.95706 12.4527 9.42394 12.9196 9.99987 12.9196Z" fill="#A8ADB4"/>
<path d="M8.12373 11.8768C8.12373 12.4527 7.65685 12.9196 7.08092 12.9196C6.505 12.9196 6.03812 12.4527 6.03812 11.8768C6.03812 11.3009 6.505 10.834 7.08092 10.834C7.65685 10.834 8.12373 11.3009 8.12373 11.8768Z" fill="#A8ADB4"/>
<path fill-rule="evenodd" clip-rule="evenodd" d="M14.4252 4.02832C15.7507 4.02832 16.8252 5.10284 16.8252 6.42832V13.5818C16.8252 14.9073 15.7507 15.9818 14.4252 15.9818H5.57822C4.25274 15.9818 3.17822 14.9073 3.17822 13.5818V6.42832C3.17822 5.10284 4.25274 4.02832 5.57822 4.02832H14.4252ZM15.5252 6.42832C15.5252 5.82081 15.0327 5.32832 14.4252 5.32832H5.57822C4.97071 5.32832 4.47822 5.82081 4.47822 6.42832V7.92773H15.5252V6.42832ZM15.5252 9.22773H4.47822V13.5818C4.47822 14.1893 4.97071 14.6818 5.57822 14.6818H14.4252C15.0327 14.6818 15.5252 14.1893 15.5252 13.5818V9.22773Z" fill="#A8ADB4"/>
</svg>
