<svg width="20" height="20" viewBox="0 0 20 20" fill="none" xmlns="http://www.w3.org/2000/svg">
<path d="M6.15469 7.32031C6.48606 7.32031 6.75469 7.58894 6.75469 7.92031V9.91294L7.88699 8.79721C8.12303 8.56463 8.50292 8.56744 8.7355 8.80347C8.96808 9.03951 8.96528 9.4194 8.72924 9.65198L7.91774 10.4516L8.84169 11.7284C9.03595 11.9969 8.9758 12.372 8.70734 12.5663C8.43888 12.7605 8.06378 12.7004 7.86951 12.4319L7.04929 11.2984L6.75469 11.5834V12.0802C6.75469 12.4115 6.48606 12.6802 6.15469 12.6802C5.82332 12.6802 5.55469 12.4115 5.55469 12.0802L5.55469 7.92031C5.55469 7.58894 5.82332 7.32031 6.15469 7.32031Z" fill="#A8ADB4"/>
<path d="M14.6049 10.1328C14.3062 10.1328 14.064 10.375 14.064 10.6738C14.064 10.9726 14.3062 11.2148 14.6049 11.2148C14.9037 11.2148 15.1459 10.9726 15.1459 10.6738C15.1459 10.375 14.9037 10.1328 14.6049 10.1328Z" fill="#A8ADB4"/>
<path d="M12.1209 7.92031C12.1209 7.58894 11.8523 7.32031 11.5209 7.32031C11.1895 7.32031 10.9209 7.58894 10.9209 7.92031V12.0802C10.9209 12.4115 11.1895 12.6802 11.5209 12.6802C11.8523 12.6802 12.1209 12.4115 12.1209 12.0802V11.5834L12.4155 11.2984L13.2357 12.4319C13.43 12.7004 13.8051 12.7605 14.0736 12.5663C14.342 12.372 14.4022 11.9969 14.2079 11.7284L13.284 10.4516L14.0955 9.65198C14.3315 9.4194 14.3343 9.03951 14.1017 8.80347C13.8691 8.56744 13.4892 8.56463 13.2532 8.79721L12.1209 9.91294V7.92031Z" fill="#A8ADB4"/>
<path d="M9.87002 8.62207C10.2014 8.62207 10.47 8.8907 10.47 9.22207V12.0797C10.47 12.4111 10.2014 12.6797 9.87002 12.6797C9.53865 12.6797 9.27002 12.4111 9.27002 12.0797V9.22207C9.27002 8.8907 9.53865 8.62207 9.87002 8.62207Z" fill="#A8ADB4"/>
<path fill-rule="evenodd" clip-rule="evenodd" d="M10.0002 3.09082C6.18479 3.09082 3.0918 6.18382 3.0918 9.99922C3.0918 13.8146 6.18479 16.9076 10.0002 16.9076C13.8156 16.9076 16.9086 13.8146 16.9086 9.99922C16.9086 6.18382 13.8156 3.09082 10.0002 3.09082ZM4.3918 9.99922C4.3918 6.90179 6.90276 4.39082 10.0002 4.39082C13.0976 4.39082 15.6086 6.90179 15.6086 9.99922C15.6086 13.0967 13.0976 15.6076 10.0002 15.6076C6.90276 15.6076 4.3918 13.0967 4.3918 9.99922Z" fill="#A8ADB4"/>
</svg>
