<svg width="24" height="24" viewBox="0 0 24 24" fill="none" xmlns="http://www.w3.org/2000/svg">
<path fill-rule="evenodd" clip-rule="evenodd" d="M12.8553 3.6849C12.3008 3.62845 11.7309 3.62633 11.1513 3.68364C10.6223 3.73594 10.2135 4.11677 10.0732 4.59262L9.87876 5.25231C9.85247 5.34148 9.77416 5.43265 9.64536 5.48287C9.45642 5.55654 9.26974 5.64047 9.08622 5.73351C8.96341 5.79577 8.84011 5.7898 8.75437 5.7431L8.20704 5.44497C7.76465 5.204 7.19905 5.22967 6.78778 5.57463C6.34979 5.94199 5.94097 6.35085 5.57365 6.78886C5.22875 7.20013 5.2031 7.76568 5.44406 8.20804L5.74307 8.75699C5.78973 8.84265 5.79573 8.96583 5.73362 9.08861C5.64117 9.27136 5.55775 9.45724 5.4845 9.64536C5.4343 9.77428 5.34308 9.85267 5.25385 9.87897L4.59209 10.074C4.1162 10.2143 3.73537 10.6231 3.6831 11.1522C3.62582 11.7319 3.62798 12.3019 3.68449 12.8565C3.73822 13.3839 4.11902 13.789 4.59174 13.9284L5.25617 14.1242C5.34701 14.151 5.43611 14.2297 5.4812 14.3545C5.55413 14.5563 5.63616 14.7537 5.72676 14.9462C5.78325 15.0662 5.77601 15.185 5.73066 15.2683L5.39978 15.8757C5.16403 16.3085 5.18131 16.8642 5.51597 17.2751C5.87727 17.7187 6.28316 18.1245 6.72683 18.4857C7.13771 18.8202 7.69322 18.8374 8.12595 18.6017L8.73362 18.2707C8.81688 18.2254 8.93564 18.2181 9.05565 18.2746C9.24804 18.3651 9.44527 18.447 9.64687 18.5198C9.77164 18.5649 9.85042 18.654 9.87719 18.7449L10.0729 19.4088C10.2122 19.8816 10.6174 20.2624 11.1449 20.3161C11.6997 20.3725 12.2699 20.3746 12.8499 20.3172C13.3789 20.2648 13.7877 19.884 13.9279 19.4082L14.1186 18.7612C14.1457 18.6694 14.2259 18.5793 14.3531 18.5347C14.5624 18.4612 14.767 18.3779 14.9664 18.2853C15.0866 18.2294 15.2049 18.2369 15.2878 18.282L15.9032 18.6173C16.3352 18.8526 16.8901 18.8361 17.301 18.502C17.741 18.1443 18.1432 17.742 18.501 17.302C18.8351 16.8912 18.8517 16.3362 18.6163 15.9042L18.2821 15.2906C18.2369 15.2077 18.2295 15.0892 18.2855 14.9689C18.3787 14.7687 18.4625 14.5633 18.5364 14.3531C18.5811 14.226 18.6711 14.1458 18.7629 14.1188L19.4077 13.9287C19.8835 13.7885 20.2643 13.3797 20.3167 12.8508C20.3741 12.2709 20.372 11.7008 20.3156 11.1461C20.262 10.6186 19.8812 10.2133 19.4084 10.074L18.7494 9.87975C18.6585 9.85295 18.5693 9.77407 18.5243 9.64915C18.4508 9.44529 18.368 9.24589 18.2765 9.05145C18.22 8.93141 18.2272 8.81261 18.2726 8.72933L18.6011 8.12628C18.8368 7.69355 18.8196 7.13801 18.485 6.72713C18.1239 6.28359 17.7182 5.87781 17.2748 5.5166C16.8639 5.18192 16.3082 5.16463 15.8754 5.40038L15.2726 5.72874C15.1893 5.77411 15.0705 5.78134 14.9504 5.72481C14.7558 5.63317 14.5562 5.5503 14.3522 5.47673C14.2273 5.43169 14.1484 5.34252 14.1216 5.25161L13.9273 4.59216C13.7879 4.1194 13.3827 3.73858 12.8553 3.6849ZM11.328 9.05149C13.5141 8.5862 15.4076 10.4791 14.9424 12.6657C14.7 13.8051 13.803 14.7022 12.6636 14.9445C10.4771 15.4095 8.58431 13.5162 9.04942 11.3302C9.15249 10.8458 9.4583 10.3263 9.89121 9.89335C10.3241 9.46041 10.8436 9.15458 11.328 9.05149Z" fill="#909090"/>
</svg>
