<svg width="24" height="24" viewBox="0 0 24 24" fill="none" xmlns="http://www.w3.org/2000/svg">
<path fill-rule="evenodd" clip-rule="evenodd" d="M6.69404 4.91406C5.14765 4.91406 3.89404 6.16767 3.89404 7.71406V16.2982C3.89404 17.8446 5.14765 19.0982 6.69404 19.0982H17.3104C18.8568 19.0982 20.1104 17.8446 20.1104 16.2982V7.71406C20.1104 6.16767 18.8568 4.91406 17.3104 4.91406H6.69404ZM5.29404 10.9938H18.7104V16.2982C18.7104 17.0714 18.0836 17.6982 17.3104 17.6982H6.69404C5.92084 17.6982 5.29404 17.0714 5.29404 16.2982V10.9938ZM7.18975 7.30859C6.80315 7.30859 6.48975 7.62199 6.48975 8.00859C6.48975 8.39519 6.80315 8.70859 7.18975 8.70859H7.98076C8.36736 8.70859 8.68076 8.39519 8.68076 8.00859C8.68076 7.62199 8.36736 7.30859 7.98076 7.30859H7.18975ZM10.1697 7.30859C9.78313 7.30859 9.46973 7.62199 9.46973 8.00859C9.46973 8.39519 9.78313 8.70859 10.1697 8.70859H10.9607C11.3473 8.70859 11.6607 8.39519 11.6607 8.00859C11.6607 7.62199 11.3473 7.30859 10.9607 7.30859H10.1697Z" fill="#828B95"/>
</svg>
