<svg width="24" height="24" viewBox="0 0 24 24" fill="none" xmlns="http://www.w3.org/2000/svg">
<path d="M6.27393 4.86328C4.89321 4.86328 3.77393 5.98257 3.77393 7.36328V12.2642C3.77393 13.3542 4.47156 14.2813 5.44469 14.6233V16.4348C5.44469 17.2196 6.37929 17.6283 6.95567 17.0956L7.33024 16.7494C7.29428 16.5736 7.27539 16.3917 7.27539 16.2053V10.3443C7.27539 8.74271 8.57376 7.44434 10.1754 7.44434H16.1316V7.36328C16.1316 5.98257 15.0123 4.86328 13.6316 4.86328H6.27393Z" fill="#828B95"/>
<path d="M19.9097 11.4811C19.9097 10.1556 18.8352 9.08105 17.5097 9.08105H11.6252C10.2997 9.08105 9.22521 10.1556 9.22521 11.4811V15.4845C9.22521 16.81 10.2997 17.8845 11.6252 17.8845H15.2525L17.3697 19.8346C17.8183 20.2478 18.5439 19.9296 18.5439 19.3197V17.6508C19.3517 17.2645 19.9097 16.4396 19.9097 15.4845V11.4811Z" fill="#828B95"/>
</svg>
