<svg width="24" height="24" viewBox="0 0 24 24" fill="none" xmlns="http://www.w3.org/2000/svg">
<path fill-rule="evenodd" clip-rule="evenodd" d="M16.4295 5.47684C15.9647 3.88029 14.0827 3.19528 12.7004 4.11955C12.2766 4.40295 11.7237 4.40295 11.2998 4.11955C9.91755 3.19528 8.0355 3.88029 7.57072 5.47684C7.4282 5.96638 7.00467 6.32177 6.49781 6.37711C4.84481 6.55759 3.8434 8.2921 4.51359 9.81388C4.71909 10.2805 4.62309 10.825 4.27039 11.1932C3.12013 12.394 3.46792 14.3664 4.9595 15.1013C5.41686 15.3267 5.6933 15.8055 5.65978 16.3143C5.55049 17.9735 7.08475 19.2609 8.69979 18.8651C9.19501 18.7438 9.71454 18.9329 10.0159 19.3442C10.9987 20.6854 13.0015 20.6854 13.9843 19.3442C14.2857 18.9329 14.8052 18.7438 15.3004 18.8651C16.9155 19.2609 18.4498 17.9735 18.3405 16.3143C18.3069 15.8055 18.5834 15.3267 19.0407 15.1013C20.5323 14.3664 20.8801 12.394 19.7299 11.1932C19.3772 10.825 19.2811 10.2805 19.4866 9.81388C20.1568 8.2921 19.1554 6.55759 17.5024 6.37711C16.9956 6.32177 16.572 5.96638 16.4295 5.47684ZM15.5105 10.4786C15.7749 10.1965 15.7606 9.75354 15.4786 9.48913C15.1965 9.22472 14.7535 9.23901 14.4891 9.52105L11.2054 13.0237L9.46487 11.4766C9.17592 11.2198 8.73347 11.2458 8.47663 11.5348C8.21978 11.8237 8.24581 12.2662 8.53476 12.523L10.7848 14.523C11.0683 14.775 11.501 14.7553 11.7605 14.4786L15.5105 10.4786Z" fill="#828B95"/>
</svg>
