<svg width="24" height="24" viewBox="0 0 24 24" fill="none" xmlns="http://www.w3.org/2000/svg">
<path fill-rule="evenodd" clip-rule="evenodd" d="M12 4C7.58173 4 4 7.58173 4 12C4 16.4183 7.58173 20 12 20C16.4183 20 20 16.4183 20 12C20 7.58173 16.4183 4 12 4ZM12.6954 7.9998C12.6954 7.61321 12.382 7.2998 11.9954 7.2998C11.6088 7.2998 11.2954 7.61321 11.2954 7.9998L11.2954 12.9998C11.2954 13.3864 11.6088 13.6998 11.9954 13.6998C12.382 13.6998 12.6954 13.3864 12.6954 12.9998L12.6954 7.9998ZM11.9955 14.4023C12.4649 14.4023 12.8455 14.7829 12.8455 15.2523V15.325C12.8455 15.7945 12.4649 16.175 11.9955 16.175C11.5261 16.175 11.1455 15.7945 11.1455 15.325V15.2523C11.1455 14.7829 11.5261 14.4023 11.9955 14.4023Z" fill="#909090"/>
</svg>
