<svg width="24" height="24" viewBox="0 0 24 24" fill="none" xmlns="http://www.w3.org/2000/svg">
<path fill-rule="evenodd" clip-rule="evenodd" d="M10.0497 7.19512C8.21069 8.01359 6.92848 9.85692 6.92848 11.9997C6.92848 14.9027 9.28182 17.2561 12.1848 17.2561C15.0878 17.2561 17.4412 14.9027 17.4412 11.9997C17.4412 9.49118 15.6839 7.39306 13.3332 6.86921L12.723 7.49752C12.0688 8.17101 10.9925 8.1867 10.319 7.53255C10.2129 7.42948 10.1231 7.31593 10.0497 7.19512ZM15.0603 9.84828C15.3453 10.1095 15.3646 10.5523 15.1033 10.8373L12.1613 14.0468C11.9062 14.3251 11.4763 14.351 11.1897 14.1053L9.31747 12.5005C9.02394 12.2489 8.98995 11.807 9.24154 11.5135C9.49314 11.22 9.93505 11.186 10.2286 11.4376L11.5868 12.6017L14.0713 9.89128C14.3326 9.6063 14.7754 9.58705 15.0603 9.84828Z" fill="#909090"/>
<path fill-rule="evenodd" clip-rule="evenodd" d="M17.1612 7.53838C16.782 7.11637 16.3513 6.74507 15.8811 6.43282C15.5905 6.23983 15.4474 5.87873 15.5632 5.54963C15.7054 5.14528 16.1726 4.95657 16.5339 5.18727C17.1496 5.58049 17.7118 6.05638 18.2026 6.60273C18.461 6.89031 18.4373 7.33289 18.1497 7.59126C17.8622 7.84964 17.4196 7.82596 17.1612 7.53838ZM4.79474 15.2717C4.54289 14.7018 4.35364 14.094 4.23668 13.4558C4.11972 12.8176 4.08119 12.1822 4.11457 11.56C4.13528 11.1739 4.46502 10.8778 4.85107 10.8985C5.23711 10.9192 5.53327 11.249 5.51256 11.635C5.48501 12.1485 5.51672 12.6739 5.61375 13.2034C5.71078 13.733 5.86746 14.2355 6.07529 14.7059C6.12856 14.8264 6.14508 14.9539 6.12969 15.0758C6.10151 15.2991 5.89992 15.4435 5.69653 15.54C5.49315 15.6365 5.25384 15.7013 5.06302 15.5819C4.9485 15.5102 4.85346 15.4046 4.79474 15.2717ZM7.25528 17.1545C6.80761 17.3669 6.70107 17.9555 7.08558 18.2681C7.74216 18.8018 8.48059 19.2316 9.27344 19.5387C9.63395 19.6783 10.0394 19.4992 10.179 19.1387C10.3186 18.7782 10.1395 18.3727 9.77902 18.2331C9.16194 17.9942 8.5845 17.6651 8.06587 17.2593C7.83426 17.078 7.52098 17.0285 7.25528 17.1545ZM5.04614 9.99248C4.68563 9.85287 4.50656 9.44744 4.64617 9.08693C5.10615 7.89914 5.84173 6.83348 6.78924 5.98221C7.07682 5.72383 7.5194 5.74751 7.77778 6.03509C8.03615 6.32267 8.01247 6.76525 7.72489 7.02362C6.94107 7.72784 6.33221 8.60991 5.95169 9.59251C5.81208 9.95302 5.40665 10.1321 5.04614 9.99248ZM8.55575 5.53143C8.3995 5.17781 8.55949 4.76448 8.9131 4.60823C9.48305 4.35638 10.0908 4.16712 10.729 4.05017C11.3673 3.93321 12.0026 3.89467 12.6248 3.92806C13.0109 3.94877 13.307 4.27851 13.2863 4.66455C13.2656 5.0506 12.9359 5.34676 12.5498 5.32605C12.0364 5.2985 11.5109 5.3302 10.9814 5.42724C10.4519 5.52427 9.94929 5.68095 9.47895 5.88878C9.12533 6.04503 8.712 5.88504 8.55575 5.53143ZM11.085 19.3338C11.1057 18.9477 11.4355 18.6516 11.8215 18.6723C12.335 18.6998 12.8604 18.6681 13.39 18.5711C13.9195 18.474 14.422 18.3174 14.8924 18.1095C15.246 17.9533 15.6593 18.1133 15.8156 18.4669C15.9718 18.8205 15.8118 19.2338 15.4582 19.3901C14.8883 19.6419 14.2805 19.8312 13.6423 19.9481C13.0041 20.0651 12.3687 20.1036 11.7465 20.0703C11.3605 20.0495 11.0643 19.7198 11.085 19.3338ZM16.5936 17.9632C16.3352 17.6756 16.3589 17.2331 16.6464 16.9747C17.4303 16.2705 18.0391 15.3884 18.4196 14.4058C18.5593 14.0453 18.9647 13.8662 19.3252 14.0058C19.6857 14.1454 19.8648 14.5509 19.7252 14.9114C19.2652 16.0992 18.5296 17.1648 17.5821 18.0161C17.2945 18.2745 16.8519 18.2508 16.5936 17.9632ZM19.5203 13.0998C19.1342 13.0791 18.8381 12.7494 18.8588 12.3633C18.8863 11.8498 18.8546 11.3244 18.7576 10.7949C18.6606 10.2653 18.5039 9.76277 18.296 9.29244C18.1398 8.93882 18.2998 8.52549 18.6534 8.36924C19.007 8.21298 19.4203 8.37298 19.5766 8.72659C19.8284 9.29654 20.0177 9.90427 20.1347 10.5425C20.2516 11.1808 20.2901 11.8161 20.2568 12.4383C20.2361 12.8244 19.9063 13.1205 19.5203 13.0998Z" fill="#909090"/>
<path fill-rule="evenodd" clip-rule="evenodd" d="M11.2419 2.66178C11.5402 2.41591 11.9814 2.45845 12.2272 2.75679L13.493 4.29264C13.7198 4.56789 13.7034 4.96968 13.4549 5.22553L12.0276 6.69503C11.7583 6.97235 11.3151 6.97881 11.0378 6.70946C10.7605 6.4401 10.754 5.99694 11.0234 5.71961L12.0141 4.69953L11.1469 3.64716C10.901 3.34881 10.9435 2.90764 11.2419 2.66178Z" fill="#909090"/>
<path fill-rule="evenodd" clip-rule="evenodd" d="M6.71944 17.0093C6.97852 16.7224 7.42116 16.6998 7.7081 16.9589C8.40933 17.592 9.23686 18.0692 10.1361 18.359C11.0353 18.6488 11.9857 18.7446 12.9247 18.6401C13.8636 18.5356 14.7698 18.2331 15.5832 17.7527C16.3967 17.2723 17.0991 16.6248 17.6439 15.8529C18.1888 15.0811 18.5637 14.2025 18.7441 13.2751C18.9244 12.3477 18.906 11.3927 18.6901 10.4729C18.4742 9.55314 18.0657 8.68963 17.4916 7.93935C16.9174 7.18907 16.1907 6.56909 15.3593 6.12032C15.0191 5.93668 14.8922 5.51202 15.0758 5.17182C15.2595 4.83162 15.6841 4.70471 16.0243 4.88835C17.0299 5.43115 17.9089 6.18105 18.6034 7.08854C19.2978 7.99603 19.7919 9.04048 20.0531 10.153C20.3142 11.2654 20.3365 12.4207 20.1183 13.5424C19.9002 14.6641 19.4467 15.7268 18.7876 16.6603C18.1286 17.5939 17.2791 18.377 16.2952 18.9582C15.3113 19.5393 14.2153 19.9051 13.0796 20.0315C11.9439 20.1579 10.7942 20.042 9.70662 19.6915C8.61899 19.341 7.61806 18.7638 6.7699 17.998C6.48295 17.7389 6.46036 17.2963 6.71944 17.0093Z" fill="#909090"/>
</svg>
