<svg width="24" height="24" viewBox="0 0 24 24" fill="none" xmlns="http://www.w3.org/2000/svg">
<path fill-rule="evenodd" clip-rule="evenodd" d="M9 8.10044L13.14 5.26044H13.15C14.15 4.58044 15.5 5.29044 15.5 6.50044V17.5104C15.5 18.7104 14.16 19.4304 13.16 18.7604L9.01 15.9704H6.5C5.67 15.9704 5 15.3004 5 14.4704V9.60044C5 8.77044 5.67 8.10044 6.5 8.10044H9ZM13.82 17.7704C14.02 17.9004 14.29 17.7604 14.29 17.5204L14.3 17.5304V6.52044C14.3 6.27044 14.03 6.13044 13.83 6.27044L9.53 9.21044C9.43 9.27044 9.31 9.31044 9.19 9.31044H6.5C6.33 9.31044 6.2 9.44044 6.2 9.61044V14.4804C6.2 14.6504 6.33 14.7804 6.5 14.7804H9.19C9.3 14.7804 9.42 14.8104 9.52 14.8804L13.82 17.7704Z" fill="#333333"/>
<path d="M21.8201 10.46L20.2401 12.04L21.8201 13.62C22.0501 13.86 22.0601 14.24 21.8201 14.47C21.5801 14.7 21.2001 14.7 20.9701 14.47L19.3901 12.89L17.8101 14.47C17.5701 14.7 17.1901 14.71 16.9601 14.47C16.7301 14.23 16.7301 13.85 16.9601 13.62L18.5401 12.04L16.9601 10.46C16.7301 10.22 16.7301 9.84 16.9601 9.61C17.2001 9.38 17.5801 9.38 17.8101 9.61L19.3901 11.19L20.9701 9.61C21.2101 9.38 21.5901 9.38 21.8201 9.61C22.0501 9.85 22.0501 10.23 21.8201 10.46Z" fill="#333333"/>
</svg>
