<svg width="24" height="24" viewBox="0 0 24 24" fill="none" xmlns="http://www.w3.org/2000/svg">
<path d="M9.68984 11.4395C9.35847 11.4395 9.08984 11.7081 9.08984 12.0395C9.08984 12.3708 9.35847 12.6395 9.68984 12.6395H14.1898C14.5212 12.6395 14.7898 12.3708 14.7898 12.0395C14.7898 11.7081 14.5212 11.4395 14.1898 11.4395H9.68984Z" fill="#333333"/>
<path fill-rule="evenodd" clip-rule="evenodd" d="M6.67236 5.58398C5.56779 5.58398 4.67236 6.47941 4.67236 7.58398V16.4168C4.67236 17.5214 5.56779 18.4168 6.67236 18.4168H15.6264C16.2944 18.4168 16.9183 18.0833 17.2894 17.5278L20.3142 13.0003C20.7185 12.395 20.7185 11.6058 20.3142 11.0005L17.2894 6.47295C16.9183 5.9175 16.2944 5.58398 15.6264 5.58398H6.67236ZM5.87236 7.58398C5.87236 7.14216 6.23054 6.78398 6.67236 6.78398H15.6264C15.8936 6.78398 16.1432 6.91739 16.2916 7.13957L19.3164 11.6671C19.4512 11.8688 19.4512 12.1319 19.3164 12.3337L16.2916 16.8612C16.1432 17.0834 15.8936 17.2168 15.6264 17.2168H6.67236C6.23054 17.2168 5.87236 16.8586 5.87236 16.4168V7.58398Z" fill="#333333"/>
</svg>
