<svg width="24" height="24" viewBox="0 0 24 24" fill="none" xmlns="http://www.w3.org/2000/svg">
<path d="M9.08984 12.0395C9.08984 11.7081 9.35847 11.4395 9.68984 11.4395H11.3398V9.78945C11.3398 9.45808 11.6085 9.18945 11.9398 9.18945C12.2712 9.18945 12.5398 9.45808 12.5398 9.78945V11.4395H14.1898C14.5212 11.4395 14.7898 11.7081 14.7898 12.0395C14.7898 12.3708 14.5212 12.6395 14.1898 12.6395H12.5398V14.2895C12.5398 14.6208 12.2712 14.8895 11.9398 14.8895C11.6085 14.8895 11.3398 14.6208 11.3398 14.2895V12.6395H9.68984C9.35847 12.6395 9.08984 12.3708 9.08984 12.0395Z" fill="#333333"/>
<path fill-rule="evenodd" clip-rule="evenodd" d="M4.67236 7.58398C4.67236 6.47941 5.56779 5.58398 6.67236 5.58398H15.6264C16.2944 5.58398 16.9183 5.9175 17.2894 6.47295L20.3142 11.0005C20.7185 11.6058 20.7185 12.395 20.3142 13.0003L17.2894 17.5278C16.9183 18.0833 16.2944 18.4168 15.6264 18.4168H6.67236C5.56779 18.4168 4.67236 17.5214 4.67236 16.4168V7.58398ZM6.67236 6.78398C6.23054 6.78398 5.87236 7.14216 5.87236 7.58398V16.4168C5.87236 16.8586 6.23054 17.2168 6.67236 17.2168H15.6264C15.8936 17.2168 16.1432 17.0834 16.2916 16.8612L19.3164 12.3337C19.4512 12.1319 19.4512 11.8688 19.3164 11.6671L16.2916 7.13957C16.1432 6.91739 15.8936 6.78398 15.6264 6.78398H6.67236Z" fill="#333333"/>
</svg>
