<svg width="24" height="24" viewBox="0 0 24 24" fill="none" xmlns="http://www.w3.org/2000/svg">
<path d="M10.0854 6.75039C10.0854 6.41902 10.3541 6.15039 10.6854 6.15039H13.3148C13.6461 6.15039 13.9148 6.41902 13.9148 6.75039C13.9148 7.08176 13.6461 7.35039 13.3148 7.35039H10.6854C10.3541 7.35039 10.0854 7.08176 10.0854 6.75039Z" fill="#333333"/>
<path d="M13.0452 17.1197C13.0452 17.6971 12.5771 18.1653 11.9996 18.1653C11.4222 18.1653 10.9541 17.6971 10.9541 17.1197C10.9541 16.5424 11.4222 16.0742 11.9996 16.0742C12.5771 16.0742 13.0452 16.5424 13.0452 17.1197Z" fill="#333333"/>
<path fill-rule="evenodd" clip-rule="evenodd" d="M5.44189 6.08926C5.44189 4.92946 6.3821 3.98926 7.54189 3.98926H16.4789C17.6387 3.98926 18.5789 4.92946 18.5789 6.08926V18.142C18.5789 19.3018 17.6387 20.242 16.4789 20.242H7.54189C6.3821 20.242 5.44189 19.3018 5.44189 18.142V6.08926ZM7.54189 5.18926C7.04484 5.18926 6.64189 5.5922 6.64189 6.08926V18.142C6.64189 18.639 7.04484 19.042 7.54189 19.042H16.4789C16.976 19.042 17.3789 18.639 17.3789 18.142V6.08926C17.3789 5.5922 16.976 5.18926 16.4789 5.18926H7.54189Z" fill="#333333"/>
</svg>
