<svg width="24" height="24" viewBox="0 0 24 24" fill="none" xmlns="http://www.w3.org/2000/svg">
<path fill-rule="evenodd" clip-rule="evenodd" d="M7.09445 5.19531C5.239 5.19531 3.73486 6.69945 3.73486 8.5549C3.73486 10.1122 4.79447 11.4221 6.23206 11.8028L8.59853 15.9016C8.50931 16.2038 8.46143 16.5236 8.46143 16.8547C8.46143 18.7101 9.96556 20.2143 11.821 20.2143C13.6765 20.2143 15.1806 18.7101 15.1806 16.8547C15.1806 16.6342 15.1593 16.4186 15.1188 16.2099L17.6426 11.8385C19.1552 11.5113 20.2885 10.1654 20.2885 8.5549C20.2885 6.69945 18.7844 5.19531 16.9289 5.19531C16.064 5.19531 15.2755 5.52212 14.68 6.05898H9.34332C8.74786 5.52212 7.95932 5.19531 7.09445 5.19531ZM14.5178 14.8509L16.2525 11.8464C14.7213 11.5333 13.5693 10.1786 13.5693 8.5549C13.5693 8.09557 13.6615 7.65777 13.8284 7.25899L10.195 7.25899C10.3618 7.65777 10.454 8.09557 10.454 8.5549C10.454 10.2192 9.24376 11.6009 7.65529 11.8679L9.27133 14.6669C9.88747 13.9495 10.8012 13.4951 11.821 13.4951C12.9255 13.4951 13.9055 14.0281 14.5178 14.8509ZM4.93486 8.5549C4.93486 7.36219 5.90174 6.39531 7.09445 6.39531C8.28715 6.39531 9.25403 7.36219 9.25403 8.5549C9.25403 9.7476 8.28715 10.7145 7.09445 10.7145C5.90174 10.7145 4.93486 9.7476 4.93486 8.5549ZM16.9289 6.39531C15.7362 6.39531 14.7693 7.36219 14.7693 8.5549C14.7693 9.7476 15.7362 10.7145 16.9289 10.7145C18.1216 10.7145 19.0885 9.7476 19.0885 8.5549C19.0885 7.36219 18.1216 6.39531 16.9289 6.39531ZM9.66143 16.8547C9.66143 15.662 10.6283 14.6951 11.821 14.6951C13.0137 14.6951 13.9806 15.662 13.9806 16.8547C13.9806 18.0474 13.0137 19.0143 11.821 19.0143C10.6283 19.0143 9.66143 18.0474 9.66143 16.8547Z" fill="#909090"/>
</svg>
