<svg width="24" height="24" viewBox="0 0 24 24" fill="none" xmlns="http://www.w3.org/2000/svg">
<path fill-rule="evenodd" clip-rule="evenodd" d="M8.08975 11.5918C7.20609 11.5918 6.48975 12.3081 6.48975 13.1918V15.0734C6.48975 15.9571 7.20609 16.6734 8.08975 16.6734H9.94675C10.8304 16.6734 11.5467 15.9571 11.5467 15.0734V13.1918C11.5467 12.3081 10.8304 11.5918 9.94675 11.5918H8.08975ZM7.68975 13.1918C7.68975 12.9709 7.86883 12.7918 8.08975 12.7918H9.94675C10.1677 12.7918 10.3467 12.9709 10.3467 13.1918V15.0734C10.3467 15.2943 10.1677 15.4734 9.94675 15.4734H8.08975C7.86883 15.4734 7.68975 15.2943 7.68975 15.0734V13.1918Z" fill="#828B95"/>
<path fill-rule="evenodd" clip-rule="evenodd" d="M12.3921 13.1918C12.3921 12.3081 13.1084 11.5918 13.9921 11.5918H15.8491C16.7327 11.5918 17.4491 12.3081 17.4491 13.1918V15.0734C17.4491 15.9571 16.7327 16.6734 15.8491 16.6734H13.9921C13.1084 16.6734 12.3921 15.9571 12.3921 15.0734V13.1918ZM13.9921 12.7918C13.7712 12.7918 13.5921 12.9709 13.5921 13.1918V15.0734C13.5921 15.2943 13.7712 15.4734 13.9921 15.4734H15.8491C16.07 15.4734 16.2491 15.2943 16.2491 15.0734V13.1918C16.2491 12.9709 16.07 12.7918 15.8491 12.7918H13.9921Z" fill="#828B95"/>
<path fill-rule="evenodd" clip-rule="evenodd" d="M10.9721 5.9248C10.0884 5.9248 9.37207 6.64115 9.37207 7.5248V9.40642C9.37207 10.2901 10.0884 11.0064 10.9721 11.0064H12.8291C13.7127 11.0064 14.4291 10.2901 14.4291 9.40643V7.5248C14.4291 6.64115 13.7127 5.9248 12.8291 5.9248H10.9721ZM10.5721 7.5248C10.5721 7.30389 10.7512 7.1248 10.9721 7.1248H12.8291C13.05 7.1248 13.2291 7.30389 13.2291 7.5248V9.40643C13.2291 9.62734 13.05 9.80643 12.8291 9.80643H10.9721C10.7512 9.80643 10.5721 9.62734 10.5721 9.40642V7.5248Z" fill="#828B95"/>
<path fill-rule="evenodd" clip-rule="evenodd" d="M11.9999 3.47168C7.2907 3.47168 3.47314 7.28924 3.47314 11.9984C3.47314 16.7076 7.2907 20.5252 11.9999 20.5252C16.7091 20.5252 20.5267 16.7076 20.5267 11.9984C20.5267 7.28924 16.7091 3.47168 11.9999 3.47168ZM4.67314 11.9984C4.67314 7.95198 7.95345 4.67168 11.9999 4.67168C16.0464 4.67168 19.3267 7.95198 19.3267 11.9984C19.3267 16.0449 16.0464 19.3252 11.9999 19.3252C7.95345 19.3252 4.67314 16.0449 4.67314 11.9984Z" fill="#828B95"/>
</svg>
