<svg width="24" height="24" viewBox="0 0 24 24" fill="none" xmlns="http://www.w3.org/2000/svg">
<path d="M9.7627 2.99258C9.7627 2.66121 10.0313 2.39258 10.3627 2.39258H13.6372C13.9686 2.39258 14.2372 2.66121 14.2372 2.99258C14.2372 3.32395 13.9686 3.59258 13.6372 3.59258H10.3627C10.0313 3.59258 9.7627 3.32395 9.7627 2.99258Z" fill="#333333"/>
<path d="M12.4568 8.4623C12.4568 8.13093 12.1882 7.8623 11.8568 7.8623C11.5255 7.8623 11.2568 8.13093 11.2568 8.4623V12.5004C11.2568 12.6595 11.3201 12.8121 11.4326 12.9247C11.5451 13.0372 11.6977 13.1004 11.8568 13.1004L15.3098 13.1004C15.6412 13.1004 15.9098 12.8317 15.9098 12.5004C15.9098 12.169 15.6412 11.9004 15.3098 11.9004L12.4568 11.9004V8.4623Z" fill="#333333"/>
<path fill-rule="evenodd" clip-rule="evenodd" d="M4.30518 12.271C4.30518 8.02125 7.75025 4.57617 12 4.57617C16.2497 4.57617 19.6948 8.02125 19.6948 12.271C19.6948 16.5207 16.2497 19.9658 12 19.9658C7.75025 19.9658 4.30518 16.5207 4.30518 12.271ZM12 5.77617C8.41299 5.77617 5.50518 8.68399 5.50518 12.271C5.50518 15.8579 8.41299 18.7658 12 18.7658C15.5869 18.7658 18.4948 15.8579 18.4948 12.271C18.4948 8.68399 15.5869 5.77617 12 5.77617Z" fill="#333333"/>
</svg>
