<svg width="24" height="24" viewBox="0 0 24 24" fill="none" xmlns="http://www.w3.org/2000/svg">
<path d="M15.5091 10.7511C15.6923 10.919 15.977 10.9066 16.1449 10.7234C16.3129 10.5402 16.3005 10.2556 16.1173 10.0876L12.3283 6.61437C12.1562 6.45667 11.8922 6.45667 11.7201 6.61437L7.93108 10.0876C7.74788 10.2556 7.7355 10.5402 7.90344 10.7234C8.07138 10.9066 8.35603 10.919 8.53923 10.7511L12.0242 7.55655L15.5091 10.7511Z" fill="#909090"/>
<path d="M16.1173 13.9126C16.3005 13.7446 16.3129 13.46 16.1449 13.2768C15.977 13.0936 15.6923 13.0812 15.5091 13.2491L12.0242 16.4437L8.53923 13.2491C8.35603 13.0812 8.07138 13.0936 7.90344 13.2768C7.7355 13.46 7.74788 13.7446 7.93108 13.9126L11.7201 17.3859C11.8922 17.5436 12.1562 17.5436 12.3283 17.3859L16.1173 13.9126Z" fill="#909090"/>
</svg>
