<svg width="24" height="24" viewBox="0 0 24 24" fill="none" xmlns="http://www.w3.org/2000/svg">
<path d="M16.8937 10.2198C17.1176 10.4251 17.4655 10.41 17.6708 10.1861C17.876 9.96214 17.8609 9.61423 17.637 9.40897L12.3958 4.60453C12.1855 4.41177 11.8628 4.41177 11.6525 4.60453L6.41126 9.40897C6.18735 9.61422 6.17222 9.96214 6.37748 10.1861C6.58273 10.41 6.93065 10.4251 7.15456 10.2198L12.0241 5.75607L16.8937 10.2198Z" fill="#909090"/>
<path d="M17.637 14.5931C17.8609 14.3879 17.876 14.04 17.6708 13.816C17.4655 13.5921 17.1176 13.577 16.8937 13.7823L12.0241 18.246L7.15456 13.7823C6.93065 13.577 6.58273 13.5921 6.37748 13.816C6.17222 14.04 6.18735 14.3879 6.41126 14.5931L11.6525 19.3976C11.8628 19.5903 12.1855 19.5903 12.3958 19.3976L17.637 14.5931Z" fill="#909090"/>
</svg>
