<svg width="24" height="24" viewBox="0 0 24 24" fill="none" xmlns="http://www.w3.org/2000/svg">
<path fill-rule="evenodd" clip-rule="evenodd" d="M12.0111 11.4541C11.1664 11.4541 10.2147 11.5857 9.42001 12.0231C8.59416 12.4775 7.96807 13.2487 7.81456 14.4211C7.72471 15.1072 8.29547 15.5987 8.8782 15.5987H15.144C15.7267 15.5987 16.2975 15.1072 16.2076 14.4211C16.0541 13.2487 15.428 12.4775 14.6022 12.0231C13.8074 11.5857 12.8557 11.4541 12.0111 11.4541ZM14.0236 13.0744C14.4965 13.3346 14.8556 13.7374 14.9884 14.3987H9.03378C9.16654 13.7374 9.5257 13.3346 9.99854 13.0744C10.5435 12.7745 11.2656 12.6541 12.0111 12.6541C12.7566 12.6541 13.4787 12.7745 14.0236 13.0744Z" fill="#828B95"/>
<path fill-rule="evenodd" clip-rule="evenodd" d="M10.8544 6.7995C9.31233 7.94325 9.82411 11.18 12.0021 11.18C14.617 11.18 14.8427 6.43066 12.0021 6.43066C11.6026 6.43066 11.1105 6.60958 10.8544 6.7995ZM11.5675 7.76467C11.2862 7.97495 11.0663 8.52301 11.2057 9.16322C11.3363 9.7627 11.6584 9.98001 12.0021 9.98001C12.2469 9.98001 12.4144 9.88612 12.5556 9.70361C12.7185 9.4931 12.8392 9.15851 12.8483 8.77682C12.8574 8.39401 12.7521 8.08267 12.6118 7.89755C12.5 7.74992 12.3345 7.63066 12.0021 7.63066C11.9654 7.63066 11.8739 7.64222 11.7546 7.68205C11.7003 7.7002 11.6525 7.7202 11.6153 7.73852C11.5865 7.75267 11.5708 7.76256 11.5675 7.76467C11.5675 7.76466 11.567 7.76496 11.5675 7.76467Z" fill="#828B95"/>
<path fill-rule="evenodd" clip-rule="evenodd" d="M20 12C20 16.4183 16.4183 20 12 20C7.58172 20 4 16.4183 4 12C4 7.58172 7.58172 4 12 4C16.4183 4 20 7.58172 20 12ZM15.4991 17.8318C14.4768 18.4465 13.2797 18.8 12 18.8C10.7203 18.8 9.52316 18.4465 8.50091 17.8318L15.4991 17.8318ZM16.931 16.6825C16.8571 16.6499 16.7753 16.6318 16.6894 16.6318L7.21182 16.6318C7.15346 16.6318 7.09706 16.6402 7.04372 16.6557C5.9004 15.439 5.2 13.8013 5.2 12C5.2 8.24446 8.24446 5.2 12 5.2C15.7555 5.2 18.8 8.24446 18.8 12C18.8 13.8146 18.0893 15.4631 16.931 16.6825Z" fill="#828B95"/>
</svg>
