<svg width="24" height="24" viewBox="0 0 24 24" fill="none" xmlns="http://www.w3.org/2000/svg">
<path d="M12.293 9.92227C12.293 9.59089 12.5616 9.32227 12.893 9.32227H16.6566C16.988 9.32227 17.2566 9.59089 17.2566 9.92227C17.2566 10.2536 16.988 10.5223 16.6566 10.5223H12.893C12.5616 10.5223 12.293 10.2536 12.293 9.92227Z" fill="#1BCE7B"/>
<path d="M12.893 11.9443C12.5616 11.9443 12.293 12.213 12.293 12.5443C12.293 12.8757 12.5616 13.1443 12.893 13.1443H15.3894C15.7208 13.1443 15.9894 12.8757 15.9894 12.5443C15.9894 12.213 15.7208 11.9443 15.3894 11.9443H12.893Z" fill="#1BCE7B"/>
<path fill-rule="evenodd" clip-rule="evenodd" d="M8.41399 8.89042C8.59311 8.83104 8.80673 8.78516 9.02058 8.78516C9.68035 8.78516 10.2018 9.06849 10.5399 9.51129C10.864 9.93563 10.9941 10.4697 10.9822 10.9684C10.9703 11.4676 10.8148 11.9899 10.494 12.4015C10.1623 12.8269 9.65832 13.1229 9.02057 13.1229C7.92613 13.1229 7.30136 12.2962 7.12392 11.4878C6.95131 10.7015 7.14222 9.70411 7.90089 9.14563C8.05087 9.03523 8.23682 8.94915 8.41399 8.89042ZM8.79158 10.0295C8.69584 10.0612 8.63275 10.097 8.61228 10.112C8.34446 10.3092 8.19246 10.7588 8.29601 11.2306C8.39473 11.6803 8.6652 11.9229 9.02057 11.9229C9.25313 11.9229 9.42064 11.8265 9.54759 11.6637C9.68537 11.487 9.77572 11.2249 9.78255 10.9396C9.78939 10.6539 9.7114 10.4035 9.58619 10.2396C9.47507 10.094 9.30625 9.98516 9.02058 9.98516C8.96852 9.98516 8.88537 9.99837 8.79158 10.0295Z" fill="#1BCE7B"/>
<path fill-rule="evenodd" clip-rule="evenodd" d="M3.93311 8.48379C3.93311 7.04785 5.09717 5.88379 6.53311 5.88379H17.4667C18.9026 5.88379 20.0667 7.04785 20.0667 8.48379V15.5166C20.0667 16.9525 18.9026 18.1166 17.4667 18.1166H6.53311C5.09716 18.1166 3.93311 16.9525 3.93311 15.5166V8.48379ZM6.53311 7.08379C5.75991 7.08379 5.13311 7.71059 5.13311 8.48379V15.5166C5.13311 15.7052 5.17041 15.8851 5.23803 16.0493C5.25723 15.8849 5.30607 15.7166 5.38996 15.5483C6.12918 14.0648 7.75945 13.7217 9.02325 13.7217C9.82196 13.7217 10.7266 13.8549 11.4828 14.3003C12.2695 14.7636 12.8489 15.5396 12.9905 16.6985C12.9997 16.7736 13.001 16.8464 12.9952 16.9166H17.4667C18.2399 16.9166 18.8667 16.2898 18.8667 15.5166V8.48379C18.8667 7.71059 18.2399 7.08379 17.4667 7.08379H6.53311ZM6.46401 16.0835C6.88303 15.2426 7.87279 14.9217 9.02325 14.9217C9.71332 14.9217 10.3757 15.0409 10.8738 15.3343C11.3058 15.5887 11.6479 15.9914 11.773 16.6712H7.12237C6.87062 16.6712 6.64548 16.5595 6.52353 16.4225C6.41805 16.3041 6.40577 16.2004 6.46401 16.0835Z" fill="#1BCE7B"/>
</svg>
