<svg width="24" height="24" viewBox="0 0 24 24" fill="none" xmlns="http://www.w3.org/2000/svg">
<path d="M15.4381 10.4098C15.6648 10.168 15.6525 9.78833 15.4108 9.56169C15.169 9.33506 14.7893 9.3473 14.5627 9.58905L11.2123 13.1628L9.39902 11.551C9.15135 11.3308 8.7721 11.3531 8.55195 11.6008C8.3318 11.8485 8.35411 12.2277 8.60178 12.4479L10.8518 14.4479C11.0948 14.6639 11.4657 14.647 11.6881 14.4098L15.4381 10.4098Z" fill="#FAA72C"/>
<path fill-rule="evenodd" clip-rule="evenodd" d="M11.2998 4.11955C9.91755 3.19528 8.0355 3.88029 7.57072 5.47684C7.4282 5.96638 7.00467 6.32177 6.49781 6.37711C4.84481 6.55759 3.8434 8.2921 4.51359 9.81388C4.71909 10.2805 4.62309 10.825 4.27039 11.1932C3.12013 12.394 3.46792 14.3664 4.9595 15.1013C5.41686 15.3267 5.6933 15.8055 5.65979 16.3143C5.55049 17.9735 7.08475 19.2609 8.69979 18.8651C9.19501 18.7438 9.71454 18.9329 10.0159 19.3442C10.9987 20.6855 13.0015 20.6855 13.9843 19.3442C14.2857 18.9329 14.8052 18.7438 15.3004 18.8651C16.9155 19.2609 18.4497 17.9735 18.3405 16.3143C18.3069 15.8055 18.5834 15.3267 19.0407 15.1013C20.5323 14.3664 20.8801 12.394 19.7299 11.1932C19.3772 10.825 19.2811 10.2805 19.4866 9.81388C20.1568 8.2921 19.1554 6.55759 17.5024 6.37711C16.9956 6.32177 16.572 5.96638 16.4295 5.47684C15.9647 3.88029 14.0827 3.19528 12.7004 4.11955C12.2766 4.40295 11.7237 4.40295 11.2998 4.11955ZM8.72289 5.81225C8.96093 4.99455 9.92486 4.64371 10.6328 5.11709C11.4604 5.67044 12.5399 5.67044 13.3674 5.11709C14.0754 4.64371 15.0393 4.99455 15.2774 5.81225C15.5556 6.76808 16.3825 7.46196 17.3722 7.57002C18.2188 7.66246 18.7317 8.55082 18.3884 9.33022C17.9872 10.2413 18.1746 11.3044 18.8633 12.0233C19.4524 12.6383 19.2743 13.6485 18.5103 14.0249C17.6174 14.4649 17.0776 15.3998 17.143 16.3931C17.199 17.2429 16.4132 17.9023 15.5861 17.6996C14.6192 17.4627 13.6048 17.8319 13.0164 18.6349C12.513 19.3219 11.4872 19.3219 10.9839 18.6349C10.3955 17.8319 9.38109 17.4627 8.41418 17.6996C7.58701 17.9023 6.80121 17.2429 6.85719 16.3931C6.92262 15.3998 6.38288 14.4649 5.48989 14.0249C4.72595 13.6485 4.54782 12.6383 5.13695 12.0233C5.82559 11.3044 6.01304 10.2413 5.61181 9.33022C5.26855 8.55082 5.78145 7.66246 6.62806 7.57002C7.61769 7.46196 8.44463 6.76808 8.72289 5.81225Z" fill="#FAA72C"/>
</svg>
