<svg width="24" height="24" viewBox="0 0 24 24" fill="none" xmlns="http://www.w3.org/2000/svg">
<path fill-rule="evenodd" clip-rule="evenodd" d="M5.55089 8.60925C5.6458 6.33659 7.7613 4.54395 9.92833 4.54395H9.93484C11.5399 4.56137 12.9968 5.45557 13.7424 6.77243C15.0583 6.49349 16.3581 6.90208 17.3164 7.70344C17.5707 7.91601 17.6044 8.29441 17.3919 8.54862C17.1793 8.80282 16.8009 8.83658 16.5467 8.62402C15.7439 7.95275 14.6592 7.68314 13.6217 8.0507C13.3186 8.15809 12.9847 8.00742 12.8647 7.70908C12.4131 6.58654 11.2421 5.75959 9.92509 5.74395C8.22028 5.74588 6.6311 7.27541 6.75467 8.96159C6.77413 9.22718 6.61619 9.47383 6.36682 9.56728C4.72638 10.182 3.67171 11.7021 3.69098 13.3673L3.69107 13.3743C3.69107 15.6073 5.49225 17.4131 7.7088 17.4131L7.88444 17.4131L7.88532 17.4126L7.89129 17.4125L7.89317 17.4125L7.90027 17.4125L8.81972 17.4129L8.82894 17.4129L8.83241 17.4129L8.83429 17.413L9.01044 17.4131C9.34181 17.4132 9.61033 17.682 9.61019 18.0133C9.61005 18.3447 9.34131 18.6132 9.00994 18.6131L8.76642 18.613C8.64649 18.613 8.3338 18.6131 7.7088 18.6131C4.82546 18.6131 2.49289 16.2667 2.49103 13.3777C2.46869 11.3274 3.68161 9.48044 5.55089 8.60925Z" fill="#828B95"/>
<path fill-rule="evenodd" clip-rule="evenodd" d="M12.5194 10.0352C11.6358 10.0352 10.9194 10.7515 10.9194 11.6352V12.3246C10.9194 13.2083 11.6358 13.9246 12.5194 13.9246H18.1796C19.0632 13.9246 19.7796 13.2083 19.7796 12.3246V11.6352C19.7796 10.7515 19.0632 10.0352 18.1796 10.0352H12.5194ZM12.1194 11.6352C12.1194 11.4142 12.2985 11.2352 12.5194 11.2352H18.1796C18.4005 11.2352 18.5796 11.4142 18.5796 11.6352V12.3246C18.5796 12.5455 18.4005 12.7246 18.1796 12.7246H12.5194C12.2985 12.7246 12.1194 12.5455 12.1194 12.3246V11.6352Z" fill="#828B95"/>
<path d="M12.8726 17.4418C12.8726 17.1104 13.1412 16.8418 13.4726 16.8418H14.4687C14.8001 16.8418 15.0687 17.1104 15.0687 17.4418C15.0687 17.7732 14.8001 18.0418 14.4687 18.0418H13.4726C13.1412 18.0418 12.8726 17.7732 12.8726 17.4418Z" fill="#828B95"/>
<path fill-rule="evenodd" clip-rule="evenodd" d="M10.9194 16.4672C10.9194 15.5835 11.6358 14.8672 12.5194 14.8672H18.1796C19.0632 14.8672 19.7796 15.5835 19.7796 16.4672V18.5004C19.7796 19.384 19.0632 20.1004 18.1796 20.1004H12.5194C11.6358 20.1004 10.9194 19.384 10.9194 18.5004V16.4672ZM12.5194 16.0672C12.2985 16.0672 12.1194 16.2463 12.1194 16.4672V18.5004C12.1194 18.7213 12.2985 18.9004 12.5194 18.9004H18.1796C18.4005 18.9004 18.5796 18.7213 18.5796 18.5004V16.4672C18.5796 16.2463 18.4005 16.0672 18.1796 16.0672H12.5194Z" fill="#828B95"/>
</svg>
