<svg width="24" height="24" viewBox="0 0 24 24" fill="none" xmlns="http://www.w3.org/2000/svg">
<path d="M3.17773 7.01699C3.17773 6.68562 3.44636 6.41699 3.77773 6.41699H6.1203C6.45167 6.41699 6.7203 6.68562 6.7203 7.01699C6.7203 7.34836 6.45167 7.61699 6.1203 7.61699H5.57486L9.25388 17.5689L11.2758 12.1114L9.61433 7.61699H9.34805C9.01668 7.61699 8.74805 7.34836 8.74805 7.01699C8.74805 6.68562 9.01668 6.41699 9.34805 6.41699H10.9323C11.2637 6.41699 11.5323 6.68562 11.5323 7.01699C11.5323 7.34836 11.2637 7.61699 10.9323 7.61699H10.8937L11.9162 10.3829L12.9409 7.61699H12.9193C12.588 7.61699 12.3193 7.34836 12.3193 7.01699C12.3193 6.68562 12.588 6.41699 12.9193 6.41699H14.5036C14.8349 6.41699 15.1036 6.68562 15.1036 7.01699C15.1036 7.34836 14.8349 7.61699 14.5036 7.61699H14.2207L12.5554 12.1119L14.5727 17.5689L18.2598 7.61699H17.8793C17.5479 7.61699 17.2793 7.34836 17.2793 7.01699C17.2793 6.68562 17.5479 6.41699 17.8793 6.41699H20.2219C20.5532 6.41699 20.8219 6.68562 20.8219 7.01699C20.8219 7.34836 20.5532 7.61699 20.2219 7.61699H19.5395L15.6041 18.2392C15.2494 19.1967 13.8949 19.1962 13.5409 18.2385L11.915 13.8403L10.2853 18.2392C9.93052 19.1967 8.57608 19.1962 8.22202 18.2385L4.29548 7.61699H3.77773C3.44636 7.61699 3.17773 7.34836 3.17773 7.01699Z" fill="#828B95"/>
</svg>
