<svg width="178" height="122" viewBox="0 0 178 122" fill="none" xmlns="http://www.w3.org/2000/svg">
	<path d="M34.1172 20.8559C34.1172 8.94468 44.1163 -0.525297 56.0106 0.121073L127.21 3.99025C138.225 4.58883 146.849 13.6945 146.849 24.7251V95.7922C146.849 106.657 138.474 115.685 127.638 116.499L56.4392 121.847C44.3912 122.752 34.1172 113.221 34.1172 101.14V20.8559Z" fill="#D7EFFF" fill-opacity="0.8"/>
	<path d="M34.8172 20.8559C34.8172 9.34624 44.4792 0.195458 55.9726 0.820041L127.172 4.68922C137.815 5.26763 146.149 14.0664 146.149 24.7251V95.7922C146.149 106.291 138.056 115.015 127.586 115.801L56.3867 121.149C44.7449 122.024 34.8172 112.814 34.8172 101.14V20.8559Z" stroke="white" stroke-opacity="0.24" stroke-width="1.4"/>
	<g filter="url(#filter0_d_495_31619)">
		<path fill-rule="evenodd" clip-rule="evenodd" d="M98.3139 31.0156C104.222 24.2136 113.16 22.9447 119.294 30.4537C122.262 34.0881 123.434 38.4611 123.043 42.8251C122.662 47.1076 120.799 51.1906 118.033 54.5349L109.872 64.5862C106.584 68.5559 103.051 70.8625 99.2923 70.9532C95.5009 71.0483 92.0669 68.8731 89.0234 65.3928C88.3083 64.5771 87.6733 63.698 87.1182 62.769C86.3326 61.4593 86.6243 59.6421 87.7627 58.7222C88.9011 57.8023 90.4534 58.124 91.2343 59.4291C91.6153 60.0681 92.0481 60.6754 92.542 61.2418C95.0352 64.1104 97.2696 65.2523 99.2923 65.2161C101.301 65.1798 103.686 63.9699 106.48 60.63L114.708 50.5743C116.928 47.9187 118.179 44.9459 118.429 42.1771C118.668 39.4944 117.996 36.7799 115.987 34.3419C112.083 29.5972 106.212 29.9597 101.771 35.1032L95.5996 42.4807C94.6494 43.6136 93.0877 43.6318 92.1045 42.5124C91.1214 41.3931 91.0979 39.5623 92.0528 38.4249L98.3139 31.002V31.0156ZM89.1315 47.606C93.0406 47.239 96.5781 49.1151 99.6781 52.5274L99.7063 52.5546L101.489 54.6392C102.435 55.7494 102.435 57.553 101.489 58.6814C100.539 59.8098 98.996 59.8279 98.0411 58.7177L96.3006 56.692C93.9062 54.0818 91.6765 53.1619 89.5502 53.3748C87.3299 53.5969 84.6909 55.1105 81.6427 58.6497L72.959 68.7553C68.1655 74.3202 67.7092 81.6751 72.037 86.4242C74.2573 88.8577 76.741 89.5964 79.1966 89.1795C81.7132 88.7535 84.404 87.0677 86.7842 84.2173L92.9654 76.7945C93.9297 75.6344 95.4915 75.5845 96.4558 76.6766C97.4154 77.7642 97.4201 79.5814 96.4605 80.7415L90.3264 88.1644C87.3487 91.7625 83.6607 94.2912 79.7516 94.98C75.7297 95.6915 71.6889 94.4045 68.349 90.7746C61.4528 83.2747 62.864 72.0272 69.271 64.6496L78.0252 54.544C81.558 50.4791 85.2695 47.964 89.1315 47.6015V47.606Z" fill="#82C0FF"/>
	</g>
	<path d="M0 73.0512C0 64.8716 6.60215 58.2309 14.7693 58.1956L38.5024 58.0932C46.7194 58.0577 53.3995 64.7191 53.3995 72.9487V99.7683C53.3995 107.558 47.392 114.024 39.6346 114.585L15.9015 116.302C7.31097 116.923 0 110.111 0 101.485V73.0512Z" fill="#1BCE7B" fill-opacity="0.78"/>
	<path d="M0.5 73.0512C0.5 65.1462 6.88031 58.7297 14.7714 58.6956L38.5045 58.5932C46.4439 58.5589 52.8995 64.9954 52.8995 72.9487V99.7683C52.8995 107.296 47.0939 113.545 39.5985 114.087L15.8654 115.803C7.56528 116.403 0.5 109.821 0.5 101.485V73.0512Z" stroke="white" stroke-opacity="0.18"/>
	<g filter="url(#filter1_d_495_31619)">
		<path d="M29.9115 71.5613C29.5376 71.1843 28.9386 71.4998 28.9386 72.0768V79.547C28.8699 79.5201 28.7974 79.5086 28.7249 79.5124C15.6463 80.3625 11.5105 94.7645 10.4003 100.35C10.2706 101.012 10.984 101.369 11.419 100.885C14.2422 97.7188 21.0296 91.1025 28.7097 90.7371C28.7898 90.7332 28.8699 90.7101 28.9386 90.6755V99.3613C28.9386 99.9383 29.5376 100.204 29.9115 99.796L42.7688 85.8018C43.1008 85.444 43.1008 84.8401 42.7688 84.5093L29.9115 71.5613Z" fill="white" fill-opacity="0.9" shape-rendering="crispEdges"/>
	</g>
	<path d="M133.5 22.9139C133.5 16.1435 139.139 10.741 145.892 11.041L166.659 11.9634C173.002 12.2452 178 17.4774 178 23.8363V48.5676C178 55.0539 172.807 60.3422 166.331 60.4505L145.565 60.7981C138.934 60.909 133.5 55.5565 133.5 48.9151V22.9139Z" fill="#9BD4FF" fill-opacity="0.8"/>
	<path d="M134 22.9139C134 16.4276 139.402 11.2532 145.87 11.5405L166.637 12.4629C172.712 12.7328 177.5 17.7443 177.5 23.8363V48.5676C177.5 54.7817 172.525 59.8468 166.323 59.9506L145.556 60.2981C139.206 60.4044 134 55.2778 134 48.9151V22.9139Z" stroke="white" stroke-opacity="0.18"/>
	<g filter="url(#filter2_d_495_31619)">
		<path d="M167.616 49.5635C167.216 42.5984 162.078 40.7821 157.394 40.7445C152.71 40.707 147.275 42.4933 146.85 49.6573V49.9801C146.85 50.3216 147.089 50.5993 147.382 50.5993L167.108 50.483C167.389 50.483 167.612 50.209 167.612 49.875V49.5635H167.616Z" fill="white" fill-opacity="0.9" shape-rendering="crispEdges"/>
		<path d="M154.459 23.3656C154.744 23.1329 155.202 22.8665 155.772 22.6638C156.325 22.4612 156.894 22.3599 157.365 22.3749C159.201 22.4349 160.464 23.3769 161.293 24.6978C162.135 26.0563 162.564 27.9177 162.531 29.8241C162.498 31.7305 162.003 33.5919 161.112 34.9278C160.249 36.2488 159.003 37.0894 157.365 37.0707C154.678 37.0369 152.916 34.6764 152.342 31.5616C151.764 28.4243 152.528 25.0168 154.476 23.3656H154.459Z" fill="white" fill-opacity="0.9" shape-rendering="crispEdges"/>
	</g>
	<defs>
		<filter id="filter0_d_495_31619" x="53.7832" y="19.3462" width="79.332" height="89.8219" filterUnits="userSpaceOnUse" color-interpolation-filters="sRGB">
			<feFlood flood-opacity="0" result="BackgroundImageFix"/>
			<feColorMatrix in="SourceAlpha" type="matrix" values="0 0 0 0 0 0 0 0 0 0 0 0 0 0 0 0 0 0 127 0" result="hardAlpha"/>
			<feOffset dy="4"/>
			<feGaussianBlur stdDeviation="5"/>
			<feComposite in2="hardAlpha" operator="out"/>
			<feColorMatrix type="matrix" values="0 0 0 0 0 0 0 0 0 0 0 0 0 0 0 0 0 0 0.05 0"/>
			<feBlend mode="normal" in2="BackgroundImageFix" result="effect1_dropShadow_495_31619"/>
			<feBlend mode="normal" in="SourceGraphic" in2="effect1_dropShadow_495_31619" result="shape"/>
		</filter>
		<filter id="filter1_d_495_31619" x="0.384766" y="65.3973" width="52.6328" height="49.7114" filterUnits="userSpaceOnUse" color-interpolation-filters="sRGB">
			<feFlood flood-opacity="0" result="BackgroundImageFix"/>
			<feColorMatrix in="SourceAlpha" type="matrix" values="0 0 0 0 0 0 0 0 0 0 0 0 0 0 0 0 0 0 127 0" result="hardAlpha"/>
			<feOffset dy="4"/>
			<feGaussianBlur stdDeviation="5"/>
			<feComposite in2="hardAlpha" operator="out"/>
			<feColorMatrix type="matrix" values="0 0 0 0 0 0 0 0 0 0 0 0 0 0 0 0 0 0 0.05 0"/>
			<feBlend mode="normal" in2="BackgroundImageFix" result="effect1_dropShadow_495_31619"/>
			<feBlend mode="normal" in="SourceGraphic" in2="effect1_dropShadow_495_31619" result="shape"/>
		</filter>
		<filter id="filter2_d_495_31619" x="136.85" y="16.3734" width="40.7656" height="48.2258" filterUnits="userSpaceOnUse" color-interpolation-filters="sRGB">
			<feFlood flood-opacity="0" result="BackgroundImageFix"/>
			<feColorMatrix in="SourceAlpha" type="matrix" values="0 0 0 0 0 0 0 0 0 0 0 0 0 0 0 0 0 0 127 0" result="hardAlpha"/>
			<feOffset dy="4"/>
			<feGaussianBlur stdDeviation="5"/>
			<feComposite in2="hardAlpha" operator="out"/>
			<feColorMatrix type="matrix" values="0 0 0 0 0 0 0 0 0 0 0 0 0 0 0 0 0 0 0.05 0"/>
			<feBlend mode="normal" in2="BackgroundImageFix" result="effect1_dropShadow_495_31619"/>
			<feBlend mode="normal" in="SourceGraphic" in2="effect1_dropShadow_495_31619" result="shape"/>
		</filter>
	</defs>
</svg>
