<svg width="121" height="120" viewBox="0 0 121 120" fill="none" xmlns="http://www.w3.org/2000/svg">
	<path d="M99.1847 84.1549C99.1847 88.8712 95.6294 92.8289 90.9401 93.3328L17.0617 101.271C11.6048 101.857 6.84473 97.5814 6.84473 92.0931V22.3379C6.84473 16.9386 11.4585 12.692 16.8393 13.1387L90.7177 19.2727C95.5031 19.6701 99.1847 23.67 99.1847 28.4719V84.1549Z" fill="#1BCE7B" fill-opacity="0.78"/>
	<path d="M98.6291 84.1549C98.6291 88.5873 95.2878 92.3069 90.8807 92.7804L17.0023 100.719C11.8739 101.27 7.40028 97.2511 7.40028 92.0931V22.3379C7.40028 17.2636 11.7364 13.2725 16.7933 13.6924L90.6718 19.8264C95.1692 20.1998 98.6291 23.959 98.6291 28.4719V84.1549Z" stroke="white" stroke-opacity="0.18" stroke-width="1.11111"/>
	<mask id="mask0_1253_33418" style="mask-type:alpha" maskUnits="userSpaceOnUse" x="6" y="13" width="94" height="88">
		<path d="M99.1955 83.7225C99.1955 88.4416 95.6361 92.4008 90.9436 92.9012L16.8639 100.802C11.4095 101.383 6.6543 97.1082 6.6543 91.6229V22.332C6.6543 16.935 11.2644 12.6891 16.6432 13.1324L90.7229 19.2371C95.5107 19.6317 99.1955 23.6326 99.1955 28.4367V83.7225Z" fill="white"/>
	</mask>
	<g mask="url(#mask0_1253_33418)">
		<g filter="url(#filter0_d_1253_33418)">
			<path fill-rule="evenodd" clip-rule="evenodd" d="M26.649 82.6608C26.649 84.0135 26.3841 85.2334 25.8542 86.3142C25.3213 87.3951 24.5542 88.2578 23.5499 88.9025C22.5426 89.5473 21.3565 89.9107 19.9949 89.996C18.852 90.0656 17.8939 90.0213 17.1145 89.8601C16.6555 89.7653 15.8884 89.4556 15.337 89.2186C14.9365 89.0448 14.6777 88.577 14.6777 88.0461V85.679C14.6777 84.7056 15.5003 84.0135 16.2334 84.339C16.6709 84.5318 17.1176 84.7151 17.4565 84.813C18.4145 85.088 19.2894 85.2049 20.0873 85.1607C20.7743 85.1228 21.2764 84.9426 21.5937 84.6203C21.911 84.2979 22.0712 83.8965 22.0712 83.4162C22.0712 83.1159 22.0065 82.8568 21.8802 82.6387C21.7508 82.4206 21.5444 82.2026 21.261 81.9877C20.9776 81.7728 20.2198 81.3366 18.9844 80.6856C17.8631 80.0851 17.0221 79.491 16.4583 78.9032C15.8946 78.3153 15.4756 77.6264 15.2045 76.8426C14.9334 76.0557 14.7948 75.117 14.7948 74.0267C14.7948 71.9851 15.374 70.3733 16.5353 69.1914C17.6906 68.0125 19.274 67.3931 21.2795 67.3268C22.444 67.2888 24.4187 67.9083 25.6201 68.3349C26.1869 68.534 26.4734 69.2957 26.264 69.9941L25.6293 72.0863C25.4199 72.7721 24.8099 73.1387 24.2554 72.9238C23.2881 72.5508 21.8617 72.0547 21.1378 72.0831C20.5371 72.1052 20.0996 72.2601 19.8285 72.5413C19.5544 72.8226 19.4188 73.1639 19.4188 73.5685C19.4188 74.0014 19.5913 74.3807 19.9394 74.7062C20.2875 75.0317 21.2271 75.6132 22.7582 76.4476C24.2215 77.2313 25.235 78.0973 25.8019 79.0422C26.3687 79.9872 26.649 81.1944 26.649 82.6703V82.6608ZM37.2587 88.6529C36.7966 88.6813 36.39 88.3147 36.2698 87.7585L33.1092 73.3426C33.1038 73.3176 33.0816 73.2998 33.056 73.2998C33.0247 73.2998 32.9998 73.3266 33.0017 73.3579C33.1595 75.9846 33.2354 78.0259 33.2354 79.4878V86.4027C33.2354 87.7806 32.3451 88.95 31.2453 89.0163C30.1425 89.0827 29.246 88.0145 29.246 86.6302V69.3273C29.246 68.2433 29.9484 67.3426 30.8109 67.3141L34.0548 67.2067C34.748 67.1845 35.3549 67.7408 35.5428 68.5751L38.6413 82.2856C38.6471 82.311 38.6696 82.329 38.6956 82.329C38.7218 82.329 38.7444 82.3107 38.75 82.2851L41.7626 68.3634C41.9443 67.5195 42.545 66.9222 43.2259 66.8969L46.3743 66.7926C47.2029 66.7642 47.8745 67.6017 47.8745 68.6604V86.7345C47.8745 87.4393 47.4278 88.0398 46.8733 88.0745L44.8925 88.1946C44.338 88.2294 43.8851 87.6795 43.8851 86.9716V78.8842C43.8851 78.3975 43.8913 77.8571 43.9005 77.2598C43.9127 76.6704 43.9613 75.2289 44.0463 72.9384C44.0474 72.9082 44.0233 72.8827 43.9931 72.8827C43.9679 72.8827 43.9461 72.9003 43.9409 72.925L40.8815 87.4835C40.7614 88.0524 40.3609 88.4696 39.8988 88.4949L37.2525 88.6529H37.2587ZM60.8147 84.3421C60.8105 84.3404 60.8086 84.3356 60.8105 84.3315C61.2949 83.2999 61.5371 82.1362 61.5371 80.8436C61.5371 79.4341 61.2783 78.2742 60.7608 77.3704C60.2432 76.4634 59.3129 75.6353 57.9728 74.88C56.5711 74.0773 55.7085 73.5211 55.3912 73.2082C55.0739 72.8953 54.9137 72.5319 54.9137 72.1179C54.9137 71.7323 55.04 71.4068 55.2896 71.1381C55.5391 70.8695 55.9396 70.7241 56.491 70.702C57.1533 70.6767 58.4626 71.1508 59.3467 71.5111C59.855 71.7165 60.4157 71.3689 60.6067 70.7115L61.189 68.7078C61.383 68.041 61.1181 67.3109 60.6006 67.1182C59.5008 66.7105 57.6894 66.1132 56.6235 66.1479C54.7874 66.208 53.3365 66.8021 52.2798 67.9272C51.2201 69.0555 50.6871 70.5977 50.6871 72.5508C50.6871 73.5938 50.8134 74.4945 51.063 75.2466C51.3125 75.9988 51.6945 76.6561 52.212 77.2218C52.7265 77.7844 53.4997 78.3564 54.5256 78.9316C55.6562 79.5574 56.3524 79.9745 56.6112 80.1831C56.8699 80.3917 57.0609 80.6003 57.178 80.8089C57.2951 81.0174 57.3536 81.2671 57.3536 81.5547C57.3536 82.0161 57.2088 82.3985 56.9161 82.7082C56.6235 83.018 56.1645 83.1886 55.536 83.2234C54.8059 83.2645 54.0019 83.1507 53.127 82.8852C52.8158 82.7904 52.4061 82.6166 52.0087 82.4301C51.3371 82.1172 50.5855 82.7778 50.5855 83.7101V85.9761C50.5855 86.4849 50.8227 86.9336 51.1893 87.098C51.6945 87.3255 52.3938 87.6258 52.8158 87.7174C53.5275 87.8723 54.4085 87.9165 55.4528 87.8533C56.7036 87.7775 57.788 87.433 58.7121 86.8167C59.631 86.2051 60.3322 85.3828 60.8188 84.3529C60.8207 84.3488 60.8189 84.3439 60.8147 84.3421Z" fill="white" fill-opacity="0.9" shape-rendering="crispEdges"/>
		</g>
		<path d="M54.2981 -4.7742L98.2821 20.0559L59.8759 58.0569C59.2447 58.6815 58.2347 58.7015 57.5792 58.1024L7.70115 12.5117L54.2981 -4.7742Z" stroke="white" stroke-opacity="0.18" stroke-width="1.11111"/>
	</g>
	<path d="M115.883 89.5799C115.883 94.2672 112.37 98.2104 107.714 98.7494L89.6957 100.836C84.2137 101.47 79.4033 97.1846 79.4033 91.666V66.1612C79.4033 61.1295 83.4332 57.0247 88.4641 56.932L106.483 56.6002C111.646 56.5051 115.883 60.6649 115.883 65.8294V89.5799Z" fill="#FAA72C" fill-opacity="0.78"/>
	<path d="M115.328 89.5799C115.328 93.9851 112.026 97.6909 107.65 98.1976L89.6318 100.284C84.4797 100.88 79.9589 96.8525 79.9589 91.666V66.1612C79.9589 61.4323 83.7462 57.5746 88.4744 57.4875L106.493 57.1557C111.346 57.0663 115.328 60.9757 115.328 65.8294V89.5799Z" stroke="white" stroke-opacity="0.18" stroke-width="1.11111"/>
	<g filter="url(#filter1_d_1253_33418)">
		<path fill-rule="evenodd" clip-rule="evenodd" d="M96.5039 80.3045C96.5039 81.6782 97.9173 82.7505 99.5735 82.6359V82.6336C101.058 82.5325 102.204 81.5028 102.204 80.273V66.7434C102.204 65.4215 100.889 64.3671 99.2889 64.4053C97.7406 64.4435 96.5039 65.4957 96.5039 66.7749V80.3045ZM96.5039 89.14C96.5039 90.6933 97.9663 91.909 99.6471 91.7559V91.7536C101.1 91.6208 102.204 90.4997 102.204 89.158V88.6965C102.204 87.1611 100.771 85.9499 99.1049 86.0783C97.6326 86.1931 96.5039 87.3209 96.5039 88.6784V89.14Z" fill="white" fill-opacity="0.9" shape-rendering="crispEdges"/>
	</g>
	<defs>
		<filter id="filter0_d_1253_33418" x="3.56662" y="59.4798" width="69.0816" height="46.1031" filterUnits="userSpaceOnUse" color-interpolation-filters="sRGB">
			<feFlood flood-opacity="0" result="BackgroundImageFix"/>
			<feColorMatrix in="SourceAlpha" type="matrix" values="0 0 0 0 0 0 0 0 0 0 0 0 0 0 0 0 0 0 127 0" result="hardAlpha"/>
			<feOffset dy="4.44444"/>
			<feGaussianBlur stdDeviation="5.55556"/>
			<feComposite in2="hardAlpha" operator="out"/>
			<feColorMatrix type="matrix" values="0 0 0 0 0 0 0 0 0 0 0 0 0 0 0 0 0 0 0.05 0"/>
			<feBlend mode="normal" in2="BackgroundImageFix" result="effect1_dropShadow_1253_33418"/>
			<feBlend mode="normal" in="SourceGraphic" in2="effect1_dropShadow_1253_33418" result="shape"/>
		</filter>
		<filter id="filter1_d_1253_33418" x="85.3928" y="57.7376" width="27.9224" height="49.5865" filterUnits="userSpaceOnUse" color-interpolation-filters="sRGB">
			<feFlood flood-opacity="0" result="BackgroundImageFix"/>
			<feColorMatrix in="SourceAlpha" type="matrix" values="0 0 0 0 0 0 0 0 0 0 0 0 0 0 0 0 0 0 127 0" result="hardAlpha"/>
			<feOffset dy="4.44444"/>
			<feGaussianBlur stdDeviation="5.55556"/>
			<feComposite in2="hardAlpha" operator="out"/>
			<feColorMatrix type="matrix" values="0 0 0 0 0 0 0 0 0 0 0 0 0 0 0 0 0 0 0.05 0"/>
			<feBlend mode="normal" in2="BackgroundImageFix" result="effect1_dropShadow_1253_33418"/>
			<feBlend mode="normal" in="SourceGraphic" in2="effect1_dropShadow_1253_33418" result="shape"/>
		</filter>
	</defs>
</svg>
