<svg width="121" height="120" viewBox="0 0 121 120" fill="none" xmlns="http://www.w3.org/2000/svg">
	<path d="M99.1847 84.1549C99.1847 88.8712 95.6294 92.8289 90.9401 93.3328L17.0617 101.271C11.6048 101.857 6.84473 97.5814 6.84473 92.0931V22.3379C6.84473 16.9386 11.4585 12.692 16.8393 13.1387L90.7177 19.2727C95.5031 19.6701 99.1847 23.67 99.1847 28.4719V84.1549Z" fill="#1BCE7B" fill-opacity="0.78"/>
	<path d="M98.6291 84.1549C98.6291 88.5873 95.2878 92.3069 90.8807 92.7804L17.0023 100.719C11.8739 101.27 7.40028 97.2511 7.40028 92.0931V22.3379C7.40028 17.2636 11.7364 13.2725 16.7933 13.6924L90.6718 19.8264C95.1692 20.1998 98.6291 23.959 98.6291 28.4719V84.1549Z" stroke="white" stroke-opacity="0.18" stroke-width="1.11111"/>
	<mask id="mask0_1257_58935" style="mask-type:alpha" maskUnits="userSpaceOnUse" x="6" y="13" width="94" height="88">
		<path d="M99.1955 83.7225C99.1955 88.4416 95.6361 92.4008 90.9436 92.9012L16.8639 100.802C11.4095 101.383 6.6543 97.1082 6.6543 91.6229V22.332C6.6543 16.935 11.2644 12.6891 16.6432 13.1324L90.7229 19.2371C95.5107 19.6317 99.1955 23.6326 99.1955 28.4367V83.7225Z" fill="white"/>
	</mask>
	<g mask="url(#mask0_1257_58935)">
		<path d="M54.2981 -4.7742L98.2821 20.0559L59.8759 58.0569C59.2447 58.6815 58.2347 58.7015 57.5792 58.1024L7.70115 12.5117L54.2981 -4.7742Z" stroke="white" stroke-opacity="0.18" stroke-width="1.11111"/>
	</g>
	<path d="M115.883 89.5799C115.883 94.2672 112.37 98.2104 107.714 98.7494L89.6957 100.836C84.2137 101.47 79.4033 97.1846 79.4033 91.666V66.1612C79.4033 61.1295 83.4332 57.0247 88.4641 56.932L106.483 56.6002C111.646 56.5051 115.883 60.6649 115.883 65.8294V89.5799Z" fill="#FAA72C" fill-opacity="0.78"/>
	<path d="M115.328 89.5799C115.328 93.9851 112.026 97.6909 107.65 98.1976L89.6318 100.284C84.4797 100.88 79.9589 96.8525 79.9589 91.666V66.1612C79.9589 61.4323 83.7462 57.5746 88.4744 57.4875L106.493 57.1557C111.346 57.0663 115.328 60.9757 115.328 65.8294V89.5799Z" stroke="white" stroke-opacity="0.18" stroke-width="1.11111"/>
	<g filter="url(#filter0_d_1257_58935)">
		<path fill-rule="evenodd" clip-rule="evenodd" d="M96.5039 80.3045C96.5039 81.6782 97.9173 82.7505 99.5735 82.6359V82.6336C101.058 82.5325 102.204 81.5028 102.204 80.273V66.7434C102.204 65.4215 100.889 64.3671 99.2889 64.4053C97.7406 64.4435 96.5039 65.4957 96.5039 66.7749V80.3045ZM96.5039 89.14C96.5039 90.6933 97.9663 91.909 99.6471 91.7559V91.7536C101.1 91.6208 102.204 90.4997 102.204 89.158V88.6965C102.204 87.1611 100.771 85.9499 99.1049 86.0783C97.6326 86.1931 96.5039 87.3209 96.5039 88.6784V89.14Z" fill="white" fill-opacity="0.9" shape-rendering="crispEdges"/>
	</g>
	<path fill-rule="evenodd" clip-rule="evenodd" d="M18.8617 53.0054C17.0215 52.9105 15.5 54.6952 15.5 56.9926V67.1123C15.5 69.4097 17.0215 71.2297 18.8617 71.1646L26.6217 70.9286C28.3094 70.8798 29.6508 69.095 29.6508 66.9414V57.4591C29.6508 55.3055 28.2984 53.4991 26.6217 53.4041L18.8617 53V53.0054ZM27.1676 56.6752L18.2714 56.3471V67.8067L27.1676 67.6765V56.6725V56.6752ZM20.3472 59.0024L25.2138 59.1299V65.2001L20.3472 65.2164V59.0024ZM25.211 80.3051L20.3444 80.6659V86.8798L25.211 86.3753V80.3051ZM18.8617 74.8181C17.0215 74.9076 15.5 76.8415 15.5 79.1388V89.2586C15.5 91.5559 17.0215 93.2159 18.8617 92.9772L26.6217 91.9655C28.3094 91.7512 29.6508 89.8282 29.6508 87.6746V78.1922C29.6508 76.0386 28.2984 74.3597 26.6217 74.4411L18.8617 74.8045V74.8181ZM27.1676 77.666L18.2714 78.2139V89.6736L27.1676 88.6564V77.666ZM36.5017 59.4147L40.6727 59.515V65.1567L36.5017 65.1649V59.4147ZM32.3529 57.554C32.3529 55.4357 33.6444 53.7757 35.2186 53.8544L41.8866 54.2016C43.336 54.2775 44.5 55.9619 44.5 57.9582V66.7597C44.5 68.756 43.336 70.4132 41.8866 70.4566L35.2186 70.6655C33.6416 70.7116 32.3529 69.0299 32.3529 66.9116V57.554ZM34.7114 56.96L42.3549 57.2394V67.4514L34.7114 67.587V56.9628V56.96ZM37.3415 73.9528L39.8496 73.8362V76.3506L42.1027 76.2204V73.725C43.4275 73.6653 44.4889 75.0947 44.4889 76.9283V83.2941L42.1027 83.5274V79.5728L39.8496 79.7518V83.7444L37.3415 83.9831V79.939L34.9775 80.1234V90.8968C33.5391 91.0813 32.3529 89.66 32.3529 87.7207V77.7122C32.3529 75.7728 33.528 74.1318 34.9775 74.0695V76.6516L37.3415 76.5051V73.9555V73.9528ZM37.3415 86.5326L39.8496 86.2587V90.2513L37.3415 90.5768V86.5326ZM44.4889 85.7434L42.1027 86.0092V89.9529C43.4275 89.7875 44.4889 88.1682 44.4889 86.3347V85.7434Z" fill="white" fill-opacity="0.9"/>
	<defs>
		<filter id="filter0_d_1257_58935" x="85.3928" y="57.7376" width="27.9224" height="49.5865" filterUnits="userSpaceOnUse" color-interpolation-filters="sRGB">
			<feFlood flood-opacity="0" result="BackgroundImageFix"/>
			<feColorMatrix in="SourceAlpha" type="matrix" values="0 0 0 0 0 0 0 0 0 0 0 0 0 0 0 0 0 0 127 0" result="hardAlpha"/>
			<feOffset dy="4.44444"/>
			<feGaussianBlur stdDeviation="5.55556"/>
			<feComposite in2="hardAlpha" operator="out"/>
			<feColorMatrix type="matrix" values="0 0 0 0 0 0 0 0 0 0 0 0 0 0 0 0 0 0 0.05 0"/>
			<feBlend mode="normal" in2="BackgroundImageFix" result="effect1_dropShadow_1257_58935"/>
			<feBlend mode="normal" in="SourceGraphic" in2="effect1_dropShadow_1257_58935" result="shape"/>
		</filter>
	</defs>
</svg>
