<svg width="178" height="122" viewBox="0 0 178 122" fill="none" xmlns="http://www.w3.org/2000/svg">
	<path d="M34.1165 20.7661C34.1165 8.85484 44.1156 -0.61514 56.0098 0.031229L127.209 3.90041C138.224 4.49899 146.849 13.6047 146.849 24.6352V95.7024C146.849 106.567 138.473 115.596 127.638 116.409L56.4384 121.757C44.3905 122.662 34.1165 113.132 34.1165 101.05V20.7661Z" fill="#D7EFFF" fill-opacity="0.8"/>
	<path d="M34.8165 20.7661C34.8165 9.2564 44.4785 0.105614 55.9718 0.730198L127.171 4.59938C137.815 5.17778 146.149 13.9765 146.149 24.6352V95.7024C146.149 106.201 138.055 114.925 127.585 115.711L56.386 121.059C44.7442 121.934 34.8165 112.724 34.8165 101.05V20.7661Z" stroke="white" stroke-opacity="0.24" stroke-width="1.4"/>
	<mask id="path-3-inside-1_466_37802" fill="white">
		<path fill-rule="evenodd" clip-rule="evenodd" d="M94.062 56.6919L94.0755 56.7035H94.0488L94.062 56.6919ZM68.8113 34.9102L94.062 56.6919L117.522 36.0796L68.8113 34.9102ZM94.0755 66.9088L121.612 41.9528V79.1078C121.612 81.3935 119.901 83.3336 117.789 83.4399L68.4904 85.9382C66.0309 86.0445 63.999 84.1309 63.999 81.6327V41.1023L94.0755 66.9088Z"/>
	</mask>
	<path fill-rule="evenodd" clip-rule="evenodd" d="M94.062 56.6919L94.0755 56.7035H94.0488L94.062 56.6919ZM68.8113 34.9102L94.062 56.6919L117.522 36.0796L68.8113 34.9102ZM94.0755 66.9088L121.612 41.9528V79.1078C121.612 81.3935 119.901 83.3336 117.789 83.4399L68.4904 85.9382C66.0309 86.0445 63.999 84.1309 63.999 81.6327V41.1023L94.0755 66.9088Z" fill="#44B0FF" fill-opacity="0.74"/>
	<path d="M94.0755 56.7035V57.7035H96.7656L94.7287 55.9464L94.0755 56.7035ZM94.0488 56.7035L93.3887 55.9523L91.3955 57.7035H94.0488V56.7035ZM68.8113 34.9102L68.8353 33.9104L66.0437 33.8434L68.1581 35.6674L68.8113 34.9102ZM117.522 36.0796L118.182 36.8308L120.105 35.1413L117.546 35.0798L117.522 36.0796ZM121.612 41.9528H122.612V39.6969L120.941 41.2118L121.612 41.9528ZM94.0755 66.9088L93.4243 67.6678L94.0936 68.242L94.747 67.6498L94.0755 66.9088ZM117.789 83.4399L117.739 82.4412L117.739 82.4412L117.789 83.4399ZM68.4904 85.9382L68.5336 86.9373L68.5411 86.9369L68.4904 85.9382ZM63.999 41.1023L64.6502 40.3434L62.999 38.9266V41.1023H63.999ZM94.7287 55.9464L94.7152 55.9347L93.4088 57.4491L93.4223 57.4607L94.7287 55.9464ZM94.0488 57.7035H94.0755V55.7035H94.0488V57.7035ZM93.402 55.9407L93.3887 55.9523L94.7088 57.4548L94.7221 57.4431L93.402 55.9407ZM94.7152 55.9347L69.4645 34.153L68.1581 35.6674L93.4088 57.4491L94.7152 55.9347ZM116.862 35.3283L93.402 55.9407L94.7221 57.4431L118.182 36.8308L116.862 35.3283ZM68.7873 35.9099L117.498 37.0793L117.546 35.0798L68.8353 33.9104L68.7873 35.9099ZM120.941 41.2118L93.404 66.1679L94.747 67.6498L122.284 42.6937L120.941 41.2118ZM122.612 79.1078V41.9528H120.612V79.1078H122.612ZM117.839 84.4386C120.551 84.3022 122.612 81.8563 122.612 79.1078H120.612C120.612 80.9307 119.252 82.365 117.739 82.4412L117.839 84.4386ZM68.5411 86.9369L117.84 84.4386L117.739 82.4412L68.4398 84.9395L68.5411 86.9369ZM62.999 81.6327C62.999 84.7045 65.5097 87.0679 68.5336 86.9372L68.4473 84.9391C66.552 85.021 64.999 83.5573 64.999 81.6327H62.999ZM62.999 41.1023V81.6327H64.999V41.1023H62.999ZM94.7267 66.1499L64.6502 40.3434L63.3478 41.8612L93.4243 67.6678L94.7267 66.1499Z" fill="white" fill-opacity="0.18" mask="url(#path-3-inside-1_466_37802)"/>
	<path d="M0 72.9613C0 64.7817 6.60215 58.141 14.7693 58.1058L38.5024 58.0033C46.7194 57.9678 53.3995 64.6293 53.3995 72.8589V99.6785C53.3995 107.468 47.392 113.935 39.6346 114.496L15.9015 116.212C7.31097 116.833 0 110.021 0 101.395V72.9613Z" fill="#1BCE7B" fill-opacity="0.78"/>
	<path d="M0.5 72.9613C0.5 65.0563 6.88031 58.6398 14.7714 58.6058L38.5045 58.5033C46.4439 58.469 52.8995 64.9056 52.8995 72.8589V99.6785C52.8995 107.206 47.0939 113.455 39.5985 113.997L15.8654 115.713C7.56528 116.313 0.5 109.731 0.5 101.395V72.9613Z" stroke="white" stroke-opacity="0.18"/>
	<g filter="url(#filter0_d_466_37802)">
		<path d="M29.9107 71.4716C29.5368 71.0946 28.9378 71.41 28.9378 71.987V79.4573C28.8692 79.4304 28.7967 79.4188 28.7242 79.4227C15.6455 80.2728 11.5098 94.6748 10.3996 100.26C10.2698 100.922 10.9833 101.28 11.4182 100.795C14.2415 97.6291 21.0288 91.0128 28.7089 90.6473C28.789 90.6435 28.8692 90.6204 28.9378 90.5858V99.2716C28.9378 99.8486 29.5368 100.114 29.9107 99.7063L42.7681 85.712C43.1 85.3543 43.1 84.7504 42.7681 84.4195L29.9107 71.4716Z" fill="white" fill-opacity="0.9" shape-rendering="crispEdges"/>
	</g>
	<path d="M133.5 22.824C133.5 16.0537 139.138 10.6511 145.892 10.9511L166.658 11.8736C173.001 12.1553 177.999 17.3876 177.999 23.7465V48.4778C177.999 54.964 172.806 60.2523 166.331 60.3607L145.564 60.7082C138.934 60.8192 133.5 55.4667 133.5 48.8253V22.824Z" fill="#9BD4FF" fill-opacity="0.8"/>
	<path d="M134 22.824C134 16.3378 139.402 11.1633 145.87 11.4506L166.636 12.3731C172.711 12.6429 177.499 17.6544 177.499 23.7465V48.4778C177.499 54.6918 172.524 59.757 166.322 59.8608L145.556 60.2083C139.206 60.3146 134 55.188 134 48.8253V22.824Z" stroke="white" stroke-opacity="0.18"/>
	<g filter="url(#filter1_d_466_37802)">
		<path d="M167.616 49.4738C167.215 42.5087 162.077 40.6924 157.393 40.6548C152.709 40.6173 147.274 42.4036 146.849 49.5676V49.8904C146.849 50.2319 147.088 50.5096 147.381 50.5096L167.108 50.3932C167.389 50.3932 167.611 50.1193 167.611 49.7853V49.4738H167.616Z" fill="white" fill-opacity="0.9" shape-rendering="crispEdges"/>
		<path d="M154.459 23.2759C154.744 23.0432 155.202 22.7768 155.771 22.5741C156.324 22.3715 156.894 22.2701 157.364 22.2851C159.201 22.3452 160.463 23.2871 161.293 24.6081C162.135 25.9666 162.564 27.828 162.531 29.7344C162.498 31.6408 162.003 33.5021 161.111 34.8381C160.249 36.1591 159.002 36.9997 157.364 36.9809C154.677 36.9472 152.915 34.5867 152.342 31.4719C151.764 28.3346 152.527 24.9271 154.475 23.2759H154.459Z" fill="white" fill-opacity="0.9" shape-rendering="crispEdges"/>
	</g>
	<defs>
		<filter id="filter0_d_466_37802" x="0.384033" y="65.3076" width="52.6331" height="49.7114" filterUnits="userSpaceOnUse" color-interpolation-filters="sRGB">
			<feFlood flood-opacity="0" result="BackgroundImageFix"/>
			<feColorMatrix in="SourceAlpha" type="matrix" values="0 0 0 0 0 0 0 0 0 0 0 0 0 0 0 0 0 0 127 0" result="hardAlpha"/>
			<feOffset dy="4"/>
			<feGaussianBlur stdDeviation="5"/>
			<feComposite in2="hardAlpha" operator="out"/>
			<feColorMatrix type="matrix" values="0 0 0 0 0 0 0 0 0 0 0 0 0 0 0 0 0 0 0.05 0"/>
			<feBlend mode="normal" in2="BackgroundImageFix" result="effect1_dropShadow_466_37802"/>
			<feBlend mode="normal" in="SourceGraphic" in2="effect1_dropShadow_466_37802" result="shape"/>
		</filter>
		<filter id="filter1_d_466_37802" x="136.849" y="16.2837" width="40.7664" height="48.2258" filterUnits="userSpaceOnUse" color-interpolation-filters="sRGB">
			<feFlood flood-opacity="0" result="BackgroundImageFix"/>
			<feColorMatrix in="SourceAlpha" type="matrix" values="0 0 0 0 0 0 0 0 0 0 0 0 0 0 0 0 0 0 127 0" result="hardAlpha"/>
			<feOffset dy="4"/>
			<feGaussianBlur stdDeviation="5"/>
			<feComposite in2="hardAlpha" operator="out"/>
			<feColorMatrix type="matrix" values="0 0 0 0 0 0 0 0 0 0 0 0 0 0 0 0 0 0 0.05 0"/>
			<feBlend mode="normal" in2="BackgroundImageFix" result="effect1_dropShadow_466_37802"/>
			<feBlend mode="normal" in="SourceGraphic" in2="effect1_dropShadow_466_37802" result="shape"/>
		</filter>
	</defs>
</svg>
