<svg width="178" height="122" viewBox="0 0 178 122" fill="none" xmlns="http://www.w3.org/2000/svg">
	<path d="M34.1172 20.7661C34.1172 8.85484 44.1163 -0.61514 56.0106 0.031229L127.21 3.90041C138.225 4.49899 146.849 13.6047 146.849 24.6352V95.7024C146.849 106.567 138.474 115.596 127.638 116.409L56.4392 121.757C44.3912 122.662 34.1172 113.132 34.1172 101.05V20.7661Z" fill="#D7EFFF" fill-opacity="0.8"/>
	<path d="M34.8172 20.7661C34.8172 9.2564 44.4792 0.105614 55.9726 0.730198L127.172 4.59938C137.815 5.17778 146.149 13.9765 146.149 24.6352V95.7024C146.149 106.201 138.056 114.925 127.586 115.711L56.3867 121.059C44.7449 121.934 34.8172 112.724 34.8172 101.05V20.7661Z" stroke="white" stroke-opacity="0.24" stroke-width="1.4"/>
	<g clip-path="url(#clip0_466_36715)">
		<path fill-rule="evenodd" clip-rule="evenodd" d="M72.73 32.91C68.4865 32.7494 65 36.6037 65 41.5134V76.8448C65 81.7774 68.4865 85.6088 72.73 85.4023L79.0837 85.1041V94.2811C79.0837 95.8641 80.7352 96.5065 81.6527 95.2906L89.7726 84.5764L115.532 83.3146C119.133 83.131 122 79.3914 122 74.9406V42.9817C122 38.5309 119.11 34.7913 115.532 34.6536L72.73 32.91ZM82.662 65.8095C83.1666 64.8688 83.4419 63.8135 83.4419 62.6434C83.4419 61.4734 83.1666 60.2803 82.6161 59.4315C82.0656 58.5826 81.0793 57.7796 79.6801 57.0455C78.1891 56.2425 77.2716 55.7148 76.9505 55.3936C76.6064 55.0954 76.4459 54.7512 76.4459 54.3612C76.4459 53.9712 76.5835 53.7188 76.8358 53.4664C77.1111 53.237 77.5239 53.1223 78.1203 53.1223C79.2443 53.1223 80.5746 53.5582 82.1115 54.3841L83.4648 50.3921C81.6986 49.4515 79.9783 48.9697 78.2579 48.9468C76.5376 48.9238 74.7714 49.4056 73.6475 50.3921C72.5235 51.3787 71.9501 52.7782 71.9501 54.5906C71.9501 56.4031 72.0877 56.3801 72.34 57.0913C72.6153 57.8026 73.0052 58.422 73.5557 58.9497C74.1062 59.5003 74.932 60.0509 76.0101 60.6015C77.2028 61.221 77.9368 61.634 78.235 61.8404C78.5103 62.0469 78.7167 62.2305 78.8314 62.4369C78.9461 62.6434 79.0149 62.8728 79.0149 63.1252C79.0149 63.5382 78.8543 63.9053 78.5561 64.1576C78.235 64.4329 77.7533 64.5706 77.0881 64.5706C76.4229 64.5706 75.4596 64.4559 74.5191 64.1806C73.5787 63.9053 72.6841 63.5152 71.8125 63.0105V67.7137C72.6382 68.1496 73.441 68.4479 74.198 68.6314C74.9549 68.792 75.8954 68.8608 76.9964 68.8379C78.3268 68.8149 79.4736 68.5396 80.46 67.989C81.4233 67.4613 82.1803 66.7272 82.6849 65.7865L82.662 65.8095ZM89.6579 54.6824L92.8922 68.2643L96.9062 68.1726L100.026 54.7512H100.118C100.026 56.7702 99.9799 58.032 99.9799 58.5597C99.9799 59.0873 99.9799 59.5462 99.9799 59.9821V68.1267L103.765 68.0578V49.5892L98.2366 49.5203L95.0483 62.804H94.9565L91.6765 49.4286L85.9191 49.3597V68.4249L89.7497 68.3561V60.1427C89.7497 58.8579 89.6809 57.0455 89.5203 54.7283H89.6121L89.6579 54.6824ZM116.633 62.2993C116.633 63.4235 116.403 64.41 115.944 65.2818C115.486 66.1536 114.821 66.8419 113.972 67.3466C113.1 67.8514 112.091 68.1037 110.898 68.1267C109.705 68.1496 109.086 68.0808 108.421 67.9202C107.756 67.7596 107.045 67.4843 106.311 67.0713V62.6434C107.091 63.1252 107.893 63.4923 108.719 63.7447C109.545 63.997 110.302 64.1347 110.99 64.1117C111.678 64.0888 112.022 63.9741 112.297 63.7217C112.573 63.4694 112.71 63.1482 112.71 62.7352C112.71 62.3222 112.664 62.2763 112.55 62.0928C112.435 61.9093 112.252 61.7257 112.022 61.5422C111.77 61.3586 111.128 60.9686 110.049 60.3951C109.086 59.8674 108.352 59.3397 107.87 58.835C107.389 58.3302 107.022 57.7337 106.792 57.0684C106.563 56.4031 106.448 55.623 106.448 54.7283C106.448 53.0305 106.953 51.7228 107.962 50.7822C108.971 49.8415 110.325 49.4056 112.068 49.4286C113.811 49.4515 115.119 49.9104 116.678 50.7822L115.486 54.5447C114.132 53.7647 112.94 53.3747 111.953 53.3517C111.426 53.3517 111.059 53.4664 110.829 53.6729C110.6 53.9023 110.485 54.1777 110.485 54.4988C110.485 54.82 110.646 55.1871 110.944 55.4624C111.242 55.7377 112.045 56.2654 113.375 56.9996C114.637 57.7108 115.509 58.445 115.99 59.2479C116.472 60.0509 116.724 61.0604 116.724 62.2763L116.633 62.2993Z" fill="#44B0FF" fill-opacity="0.74"/>
		<path d="M72.7065 84.9029L72.7057 84.9029C68.8164 85.0922 65.5 81.5657 65.5 76.8448V41.5134C65.5 36.8168 68.8166 33.2627 72.7104 33.4096C72.7106 33.4096 72.7108 33.4096 72.7111 33.4096L115.511 35.1532L115.512 35.1533C118.729 35.277 121.5 38.6957 121.5 42.9817V74.9406C121.5 79.2249 118.752 82.6494 115.507 82.8152C115.507 82.8152 115.506 82.8152 115.506 82.8152L89.7482 84.077L89.5151 84.0884L89.3741 84.2744L81.2542 94.9885L81.2536 94.9894C80.9204 95.431 80.5109 95.489 80.2064 95.3698C79.8916 95.2466 79.5837 94.8905 79.5837 94.2811V85.1041V84.5801L79.0603 84.6046L72.7065 84.9029ZM83.1178 66.0172C83.6521 65.0104 83.9419 63.8833 83.9419 62.6434C83.9419 61.4087 83.6536 60.1124 83.0356 59.1594C82.4198 58.2098 81.3505 57.3576 79.9148 56.604C79.1712 56.2035 78.5782 55.8757 78.1331 55.6097C77.6735 55.335 77.4151 55.1511 77.3041 55.0401L77.2915 55.0275L77.278 55.0158C77.0311 54.8018 76.9459 54.5906 76.9459 54.3612C76.9459 54.2284 76.9685 54.1406 77.0005 54.0711C77.0319 54.0027 77.083 53.9292 77.172 53.8376C77.3211 53.7219 77.5945 53.6223 78.1203 53.6223C79.1242 53.6223 80.3684 54.015 81.8748 54.8246L82.3953 55.1043L82.585 54.5447L83.9383 50.5527L84.0747 50.1505L83.6998 49.9508C81.8759 48.9794 80.0778 48.471 78.2646 48.4468C76.4668 48.4228 74.5642 48.9222 73.3177 50.0164C72.0646 51.1162 71.4501 52.6647 71.4501 54.5906C71.4501 55.4989 71.4836 55.9924 71.5614 56.3581C71.6138 56.6042 71.6957 56.8116 71.7742 57.0105C71.8072 57.094 71.8395 57.1759 71.8688 57.2585L71.8712 57.2652L71.8737 57.2718C72.1715 58.0412 72.5984 58.7235 73.2059 59.307C73.8088 59.9088 74.6848 60.486 75.7813 61.0461C76.9679 61.6624 77.67 62.059 77.9428 62.2463C78.2102 62.4475 78.3363 62.5754 78.3943 62.6797C78.4728 62.8211 78.5149 62.9677 78.5149 63.1252C78.5149 63.4043 78.4094 63.6268 78.2331 63.776L78.2307 63.778C78.0383 63.943 77.6961 64.0706 77.0881 64.0706C76.4702 64.0706 75.5541 63.9626 74.6596 63.7007C73.7601 63.4374 72.9023 63.0638 72.063 62.5778L71.3125 62.1432V63.0105V67.7137V68.0152L71.5791 68.1559C72.4399 68.6103 73.2814 68.9236 74.0802 69.1173L74.0872 69.119L74.0942 69.1205C74.9008 69.2916 75.882 69.3612 77.0059 69.3378C78.4002 69.3136 79.6306 69.0242 80.702 68.4266C81.742 67.8565 82.5715 67.0555 83.1255 66.0229L83.1178 66.0172ZM94.9977 60.8725L92.1621 49.3095L92.0698 48.9332L91.6824 48.9286L85.9251 48.8598L85.4191 48.8537V49.3597V68.4249V68.934L85.9281 68.9248L89.7587 68.856L90.2497 68.8472V68.3561V60.1427C90.2497 59.8796 90.2469 59.5951 90.241 59.2892L92.4058 68.3802L92.4994 68.7734L92.9036 68.7642L96.9177 68.6724L97.3054 68.6636L97.3933 68.2858L99.4799 59.3083V59.3108V59.3136V59.3163V59.3191V59.3218V59.3246V59.3273V59.3301V59.3328V59.3355V59.3383V59.341V59.3438V59.3465V59.3493V59.352V59.3547V59.3575V59.3602V59.3629V59.3657V59.3684V59.3711V59.3739V59.3766V59.3793V59.3821V59.3848V59.3875V59.3902V59.393V59.3957V59.3984V59.4011V59.4038V59.4066V59.4093V59.412V59.4147V59.4174V59.4201V59.4229V59.4256V59.4283V59.431V59.4337V59.4364V59.4391V59.4418V59.4445V59.4472V59.4499V59.4526V59.4553V59.458V59.4607V59.4634V59.4661V59.4688V59.4715V59.4742V59.4769V59.4796V59.4823V59.485V59.4877V59.4904V59.4931V59.4957V59.4984V59.5011V59.5038V59.5065V59.5092V59.5119V59.5145V59.5172V59.5199V59.5226V59.5253V59.5279V59.5306V59.5333V59.536V59.5386V59.5413V59.544V59.5466V59.5493V59.552V59.5547V59.5573V59.56V59.5627V59.5653V59.568V59.5706V59.5733V59.576V59.5786V59.5813V59.5839V59.5866V59.5893V59.5919V59.5946V59.5972V59.5999V59.6025V59.6052V59.6078V59.6105V59.6131V59.6158V59.6184V59.6211V59.6237V59.6264V59.629V59.6317V59.6343V59.6369V59.6396V59.6422V59.6449V59.6475V59.6502V59.6528V59.6554V59.6581V59.6607V59.6633V59.666V59.6686V59.6712V59.6739V59.6765V59.6791V59.6818V59.6844V59.687V59.6896V59.6923V59.6949V59.6975V59.7001V59.7028V59.7054V59.708V59.7106V59.7132V59.7159V59.7185V59.7211V59.7237V59.7263V59.729V59.7316V59.7342V59.7368V59.7394V59.742V59.7446V59.7472V59.7499V59.7525V59.7551V59.7577V59.7603V59.7629V59.7655V59.7681V59.7707V59.7733V59.7759V59.7785V59.7811V59.7837V59.7863V59.7889V59.7915V59.7941V59.7967V59.7993V59.8019V59.8045V59.8071V59.8097V59.8123V59.8149V59.8175V59.8201V59.8227V59.8252V59.8278V59.8304V59.833V59.8356V59.8382V59.8408V59.8434V59.8459V59.8485V59.8511V59.8537V59.8563V59.8589V59.8614V59.864V59.8666V59.8692V59.8718V59.8743V59.8769V59.8795V59.8821V59.8846V59.8872V59.8898V59.8924V59.8949V59.8975V59.9001V59.9027V59.9052V59.9078V59.9104V59.9129V59.9155V59.9181V59.9206V59.9232V59.9258V59.9283V59.9309V59.9335V59.936V59.9386V59.9412V59.9437V59.9463V59.9489V59.9514V59.954V59.9565V59.9591V59.9616V59.9642V59.9668V59.9693V59.9719V59.9744V59.977V59.9795V59.9821V68.1267V68.6358L99.989 68.6266L103.774 68.5578L104.265 68.5488V68.0578V49.5892V49.0954L103.771 49.0892L98.2428 49.0204L97.8436 49.0154L97.7504 49.4036L94.9977 60.8725ZM114.222 67.7793L114.222 67.7794L114.227 67.7764C115.153 67.2262 115.884 66.4709 116.387 65.5146C116.833 64.6678 117.075 63.7294 117.124 62.6919L117.224 62.6667V62.2763C117.224 60.9921 116.958 59.8886 116.419 58.9907C115.873 58.0801 114.915 57.2934 113.621 56.564L113.617 56.5618C112.281 55.8244 111.53 55.3233 111.283 55.0951C111.075 54.9028 110.985 54.6642 110.985 54.4988C110.985 54.3164 111.043 54.1706 111.173 54.0367C111.275 53.9501 111.496 53.8526 111.948 53.8517C112.818 53.8734 113.925 54.2224 115.236 54.9779L115.775 55.2883L115.962 54.6958L117.155 50.9333L117.278 50.5446L116.922 50.3457C115.313 49.4462 113.924 48.9529 112.075 48.9286C110.242 48.9045 108.75 49.3642 107.621 50.4164C106.489 51.4721 105.948 52.925 105.948 54.7283C105.948 55.6642 106.068 56.5016 106.32 57.2314C106.573 57.9659 106.978 58.6243 107.509 59.1802C108.04 59.7365 108.823 60.2931 109.809 60.8336L109.809 60.8336L109.815 60.8365C110.877 61.4018 111.49 61.7753 111.719 61.94C111.924 62.1051 112.055 62.2449 112.126 62.3578C112.192 62.4646 112.193 62.4662 112.194 62.4703C112.194 62.4707 112.194 62.4711 112.194 62.4716C112.198 62.4832 112.21 62.5356 112.21 62.7352C112.21 63.0198 112.123 63.2032 111.959 63.3532C111.814 63.4866 111.615 63.5906 110.973 63.612C110.361 63.6324 109.662 63.51 108.865 63.2665C108.083 63.0274 107.319 62.6787 106.573 62.2181L105.811 61.7468V62.6434V67.0713V67.3637L106.065 67.5071C106.837 67.9411 107.591 68.2341 108.304 68.4062C109.022 68.5798 109.687 68.6501 110.908 68.6266C112.168 68.6023 113.264 68.3345 114.222 67.7793Z" stroke="white" stroke-opacity="0.18"/>
	</g>
	<path d="M133.5 22.824C133.5 16.0537 139.139 10.6511 145.892 10.9511L166.659 11.8736C173.002 12.1553 178 17.3876 178 23.7465V48.4778C178 54.964 172.807 60.2523 166.331 60.3607L145.565 60.7082C138.934 60.8192 133.5 55.4667 133.5 48.8253V22.824Z" fill="#9BD4FF" fill-opacity="0.8"/>
	<path d="M134 22.824C134 16.3378 139.402 11.1633 145.87 11.4506L166.637 12.3731C172.712 12.6429 177.5 17.6544 177.5 23.7465V48.4778C177.5 54.6918 172.525 59.757 166.323 59.8608L145.556 60.2083C139.206 60.3146 134 55.188 134 48.8253V22.824Z" stroke="white" stroke-opacity="0.18"/>
	<g filter="url(#filter0_d_466_36715)">
		<path d="M167.614 49.4738C167.214 42.5087 162.076 40.6924 157.392 40.6548C152.708 40.6173 147.273 42.4036 146.848 49.5676V49.8904C146.848 50.2319 147.087 50.5096 147.38 50.5096L167.107 50.3932C167.387 50.3932 167.61 50.1193 167.61 49.7853V49.4738H167.614Z" fill="white" fill-opacity="0.9" shape-rendering="crispEdges"/>
		<path d="M154.457 23.2759C154.742 23.0432 155.2 22.7768 155.77 22.5741C156.323 22.3715 156.892 22.2701 157.363 22.2851C159.199 22.3452 160.462 23.2871 161.291 24.6081C162.133 25.9666 162.562 27.828 162.529 29.7344C162.496 31.6408 162.001 33.5021 161.11 34.8381C160.247 36.1591 159.001 36.9997 157.363 36.9809C154.676 36.9472 152.914 34.5867 152.34 31.4719C151.762 28.3346 152.526 24.9271 154.474 23.2759H154.457Z" fill="white" fill-opacity="0.9" shape-rendering="crispEdges"/>
	</g>
	<path d="M0 72.9611C0 64.7815 6.60215 58.1408 14.7693 58.1055L38.5024 58.0031C46.7194 57.9676 53.3995 64.6291 53.3995 72.8587V99.6782C53.3995 107.468 47.392 113.934 39.6346 114.495L15.9015 116.212C7.31097 116.833 0 110.021 0 101.395V72.9611Z" fill="#1BCE7B" fill-opacity="0.78"/>
	<path d="M0.5 72.9611C0.5 65.0561 6.88031 58.6396 14.7714 58.6055L38.5045 58.5031C46.4439 58.4688 52.8995 64.9053 52.8995 72.8587V99.6782C52.8995 107.206 47.0939 113.455 39.5985 113.997L15.8654 115.713C7.56528 116.313 0.5 109.731 0.5 101.395V72.9611Z" stroke="white" stroke-opacity="0.18"/>
	<g filter="url(#filter1_d_466_36715)">
		<path d="M29.9115 71.4716C29.5376 71.0946 28.9386 71.41 28.9386 71.987V79.4573C28.8699 79.4304 28.7974 79.4188 28.7249 79.4227C15.6463 80.2728 11.5105 94.6748 10.4003 100.26C10.2706 100.922 10.984 101.28 11.419 100.795C14.2422 97.6291 21.0296 91.0128 28.7097 90.6473C28.7898 90.6435 28.8699 90.6204 28.9386 90.5858V99.2716C28.9386 99.8486 29.5376 100.114 29.9115 99.7063L42.7688 85.712C43.1008 85.3543 43.1008 84.7504 42.7688 84.4195L29.9115 71.4716Z" fill="white" fill-opacity="0.9" shape-rendering="crispEdges"/>
	</g>
	<defs>
		<filter id="filter0_d_466_36715" x="136.848" y="16.2837" width="40.7656" height="48.2258" filterUnits="userSpaceOnUse" color-interpolation-filters="sRGB">
			<feFlood flood-opacity="0" result="BackgroundImageFix"/>
			<feColorMatrix in="SourceAlpha" type="matrix" values="0 0 0 0 0 0 0 0 0 0 0 0 0 0 0 0 0 0 127 0" result="hardAlpha"/>
			<feOffset dy="4"/>
			<feGaussianBlur stdDeviation="5"/>
			<feComposite in2="hardAlpha" operator="out"/>
			<feColorMatrix type="matrix" values="0 0 0 0 0 0 0 0 0 0 0 0 0 0 0 0 0 0 0.05 0"/>
			<feBlend mode="normal" in2="BackgroundImageFix" result="effect1_dropShadow_466_36715"/>
			<feBlend mode="normal" in="SourceGraphic" in2="effect1_dropShadow_466_36715" result="shape"/>
		</filter>
		<filter id="filter1_d_466_36715" x="0.384766" y="65.3076" width="52.6328" height="49.7114" filterUnits="userSpaceOnUse" color-interpolation-filters="sRGB">
			<feFlood flood-opacity="0" result="BackgroundImageFix"/>
			<feColorMatrix in="SourceAlpha" type="matrix" values="0 0 0 0 0 0 0 0 0 0 0 0 0 0 0 0 0 0 127 0" result="hardAlpha"/>
			<feOffset dy="4"/>
			<feGaussianBlur stdDeviation="5"/>
			<feComposite in2="hardAlpha" operator="out"/>
			<feColorMatrix type="matrix" values="0 0 0 0 0 0 0 0 0 0 0 0 0 0 0 0 0 0 0.05 0"/>
			<feBlend mode="normal" in2="BackgroundImageFix" result="effect1_dropShadow_466_36715"/>
			<feBlend mode="normal" in="SourceGraphic" in2="effect1_dropShadow_466_36715" result="shape"/>
		</filter>
		<clipPath id="clip0_466_36715">
			<rect width="57" height="63" fill="white" transform="translate(65 32.9102)"/>
		</clipPath>
	</defs>
</svg>
