<svg width="24" height="24" viewBox="0 0 24 24" fill="none" xmlns="http://www.w3.org/2000/svg">
	<path
		d="M19.2122 17.686C19.3037 18.1517 19.0562 18.6205 18.6102 18.7826C17.1798 19.3024 15.6089 19.659 13.9479 19.817L12.6523 14.5637L13.4482 13.3289H11.0278L11.8595 14.5428L10.4613 19.8528C8.6332 19.7173 6.90733 19.342 5.34907 18.7728C4.92217 18.6168 4.67275 18.1776 4.74543 17.729C4.81478 17.3009 4.8915 16.8903 4.96984 16.5849C5.23779 15.5403 6.74504 14.7644 8.1319 14.1679C8.49503 14.0116 8.71426 13.8869 8.93575 13.761C9.1521 13.638 9.37062 13.5137 9.72755 13.3576C9.76807 13.1652 9.78436 12.9687 9.77605 12.7725L10.3904 12.6995C10.3904 12.6995 10.4712 12.8464 10.3415 11.9834C10.3415 11.9834 9.65119 11.8045 9.6192 10.4304C9.6192 10.4304 9.10016 10.6029 9.06886 9.77033C9.06238 9.60443 9.01952 9.44494 8.97844 9.29212C8.87993 8.92555 8.79173 8.5974 9.24084 8.31146L8.91682 7.44748C8.91682 7.44748 8.57596 4.11109 10.0698 4.38119C9.46373 3.42099 14.575 2.62285 14.9145 5.56287C15.0481 6.44915 15.0481 7.34989 14.9145 8.23617C14.9145 8.23617 15.6781 8.14839 15.1684 9.60016C15.1684 9.60016 14.8877 10.6451 14.4567 10.4105C14.4567 10.4105 14.5265 11.7309 13.8479 11.9547C13.8479 11.9547 13.8964 12.658 13.8964 12.7056L14.4636 12.7904C14.4636 12.7904 14.4464 13.3768 14.5596 13.4403C15.077 13.7745 15.6442 14.0278 16.2409 14.1912C18.0019 14.6382 18.8963 15.4053 18.8963 16.0768L19.2122 17.686Z"
		fill="#FFFFFF"/>
</svg>
