<svg width="16" height="16" viewBox="0 0 16 16" fill="none" xmlns="http://www.w3.org/2000/svg">
<path fill-rule="evenodd" clip-rule="evenodd" d="M14.8 8C14.8 11.7555 11.7555 14.8 8 14.8C4.24447 14.8 1.2 11.7555 1.2 8C1.2 4.24447 4.24447 1.2 8 1.2C11.7555 1.2 14.8 4.24447 14.8 8ZM8 16C12.4183 16 16 12.4183 16 8C16 3.58173 12.4183 0 8 0C3.58173 0 0 3.58173 0 8C0 12.4183 3.58173 16 8 16ZM8.51492 4.00651C8.51492 3.67514 8.24629 3.40651 7.91492 3.40651C7.58355 3.40651 7.31492 3.67514 7.31492 4.00651V8.10993C7.31492 8.26906 7.37813 8.42168 7.49065 8.5342C7.60318 8.64672 7.75579 8.70993 7.91492 8.70993L11.3679 8.70991C11.6993 8.70991 11.9679 8.44128 11.9679 8.10991C11.9679 7.77854 11.6993 7.50991 11.3679 7.50991L8.51492 7.50993V4.00651Z" fill="#909090"/>
</svg>
