<svg width="121" height="120" viewBox="0 0 121 120" fill="none" xmlns="http://www.w3.org/2000/svg">
	<path d="M99.1847 84.1559C99.1847 88.8722 95.6294 92.8299 90.9401 93.3338L17.0617 101.272C11.6048 101.858 6.84473 97.5824 6.84473 92.0941V22.3388C6.84473 16.9396 11.4585 12.693 16.8393 13.1397L90.7177 19.2737C95.5031 19.6711 99.1847 23.6709 99.1847 28.4728V84.1559Z" fill="#1BCE7B" fill-opacity="0.78"/>
	<path d="M98.6291 84.1559C98.6291 88.5883 95.2878 92.3079 90.8807 92.7814L17.0023 100.72C11.8739 101.271 7.40028 97.2521 7.40028 92.0941V22.3388C7.40028 17.2645 11.7364 13.2735 16.7933 13.6934L90.6718 19.8274C95.1692 20.2008 98.6291 23.96 98.6291 28.4728V84.1559Z" stroke="black" stroke-opacity="0.16" stroke-width="1.11111"/>
	<mask id="mask0_1253_34836" style="mask-type:alpha" maskUnits="userSpaceOnUse" x="6" y="13" width="94" height="88">
		<path d="M99.1955 83.7235C99.1955 88.4426 95.6361 92.4018 90.9436 92.9022L16.8639 100.803C11.4095 101.384 6.6543 97.1092 6.6543 91.6238V22.3329C6.6543 16.936 11.2644 12.6901 16.6432 13.1334L90.7229 19.2381C95.5107 19.6326 99.1955 23.6336 99.1955 28.4377V83.7235Z" fill="white"/>
	</mask>
	<g mask="url(#mask0_1253_34836)">
		<path d="M54.2981 -4.7742L98.2821 20.0559L59.8759 58.0569C59.2447 58.6815 58.2347 58.7015 57.5792 58.1024L7.70115 12.5117L54.2981 -4.7742Z" stroke="black" stroke-opacity="0.16" stroke-width="1.11111"/>
	</g>
	<path d="M115.883 89.5809C115.883 94.2682 112.37 98.2113 107.714 98.7504L89.6957 100.836C84.2137 101.471 79.4033 97.1856 79.4033 91.667V66.1622C79.4033 61.1304 83.4332 57.0256 88.4641 56.933L106.483 56.6012C111.646 56.5061 115.883 60.6659 115.883 65.8304V89.5809Z" fill="#FF9800" fill-opacity="0.78"/>
	<path d="M115.328 89.5809C115.328 93.9861 112.026 97.6919 107.65 98.1986L89.6318 100.285C84.4797 100.881 79.9589 96.8535 79.9589 91.667V66.1622C79.9589 61.4333 83.7462 57.5755 88.4744 57.4885L106.493 57.1567C111.346 57.0673 115.328 60.9767 115.328 65.8304V89.5809Z" stroke="black" stroke-opacity="0.16" stroke-width="1.11111"/>
	<g filter="url(#filter0_d_1253_34836)">
		<path fill-rule="evenodd" clip-rule="evenodd" d="M96.5039 80.3065C96.5039 81.6801 97.9173 82.7525 99.5735 82.6378V82.6356C101.058 82.5344 102.204 81.5047 102.204 80.275V66.7454C102.204 65.4234 100.889 64.369 99.2889 64.4073C97.7406 64.4455 96.5039 65.4976 96.5039 66.7769V80.3065ZM96.5039 89.1419C96.5039 90.6953 97.9663 91.9109 99.6471 91.7578V91.7556C101.1 91.6228 102.204 90.5017 102.204 89.1599V88.6984C102.204 87.1631 100.771 85.9519 99.1049 86.0802C97.6326 86.195 96.5039 87.3229 96.5039 88.6804V89.1419Z" fill="white" fill-opacity="0.9" shape-rendering="crispEdges"/>
	</g>
	<g filter="url(#filter1_d_1253_34836)">
		<path fill-rule="evenodd" clip-rule="evenodd" d="M44.5962 70.6425C44.5962 70.642 44.5956 70.6418 44.5953 70.6422L38.6838 77.7867C35.3777 81.7857 29.944 82.0333 26.5539 78.2704C26.4671 78.1754 26.3859 78.0775 26.3048 77.9796C25.5769 77.0785 25.7477 75.6419 26.4839 74.6947C26.6211 74.5191 26.7611 74.3406 26.901 74.1707C27.6653 73.235 28.8522 73.7561 29.6277 74.6198C31.3101 76.5027 34.0312 76.3991 35.6912 74.4068L41.654 67.2611C43.2805 65.3092 43.2805 62.2056 41.654 60.3227C40.0219 58.4312 37.3457 58.4629 35.6912 60.412L34.2439 62.1192C33.8212 62.6202 33.1802 62.7728 32.6007 62.5943C31.1926 62.1595 30.2716 59.7498 31.3073 58.5378L32.6707 56.9457C36.0048 53.0475 41.3433 53.0245 44.5962 56.8248C47.818 60.5901 47.8183 66.7475 44.5971 70.6428C44.5968 70.6432 44.5962 70.643 44.5962 70.6425ZM29.7243 82.7429C29.7248 82.7424 29.7244 82.7415 29.7237 82.7415C29.1589 82.7508 28.6082 83.0184 28.1972 83.4871L26.5539 85.3614C24.8491 87.4055 22.0552 87.5523 20.328 85.6723C18.5924 83.7808 18.5924 80.565 20.328 78.5209L26.5539 71.1852C28.2532 69.1843 30.9938 69.1094 32.6707 71.0009C33.4349 71.8646 34.6051 72.38 35.3525 71.4587C35.5121 71.26 35.6688 71.0585 35.8256 70.857C36.5003 69.976 36.6598 68.6488 35.9992 67.7909C35.9012 67.6613 35.7976 67.5375 35.6884 67.4137C32.3543 63.6134 26.873 63.7228 23.4522 67.7218L17.173 75.0603C13.6598 79.1715 13.6598 85.632 17.173 89.4236C20.6555 93.1778 26.2264 92.841 29.6221 88.7413L31.1702 86.87C32.4854 85.2813 31.5907 82.7203 29.7249 82.7443C29.7242 82.7443 29.7237 82.7435 29.7243 82.7429Z" fill="white" fill-opacity="0.9" shape-rendering="crispEdges"/>
	</g>
	<defs>
		<filter id="filter0_d_1253_34836" x="85.3928" y="57.7396" width="27.9224" height="49.5875" filterUnits="userSpaceOnUse" color-interpolation-filters="sRGB">
			<feFlood flood-opacity="0" result="BackgroundImageFix"/>
			<feColorMatrix in="SourceAlpha" type="matrix" values="0 0 0 0 0 0 0 0 0 0 0 0 0 0 0 0 0 0 127 0" result="hardAlpha"/>
			<feOffset dy="4.44444"/>
			<feGaussianBlur stdDeviation="5.55556"/>
			<feComposite in2="hardAlpha" operator="out"/>
			<feColorMatrix type="matrix" values="0 0 0 0 0 0 0 0 0 0 0 0 0 0 0 0 0 0 0.05 0"/>
			<feBlend mode="normal" in2="BackgroundImageFix" result="effect1_dropShadow_1253_34836"/>
			<feBlend mode="normal" in="SourceGraphic" in2="effect1_dropShadow_1253_34836" result="shape"/>
		</filter>
		<filter id="filter1_d_1253_34836" x="3.42698" y="47.3314" width="54.6968" height="60.2652" filterUnits="userSpaceOnUse" color-interpolation-filters="sRGB">
			<feFlood flood-opacity="0" result="BackgroundImageFix"/>
			<feColorMatrix in="SourceAlpha" type="matrix" values="0 0 0 0 0 0 0 0 0 0 0 0 0 0 0 0 0 0 127 0" result="hardAlpha"/>
			<feOffset dy="4.44444"/>
			<feGaussianBlur stdDeviation="5.55556"/>
			<feComposite in2="hardAlpha" operator="out"/>
			<feColorMatrix type="matrix" values="0 0 0 0 0 0 0 0 0 0 0 0 0 0 0 0 0 0 0.05 0"/>
			<feBlend mode="normal" in2="BackgroundImageFix" result="effect1_dropShadow_1253_34836"/>
			<feBlend mode="normal" in="SourceGraphic" in2="effect1_dropShadow_1253_34836" result="shape"/>
		</filter>
	</defs>
</svg>
