<svg width="121" height="120" viewBox="0 0 121 120" fill="none" xmlns="http://www.w3.org/2000/svg">
	<path d="M99.1847 84.1559C99.1847 88.8722 95.6294 92.8299 90.9401 93.3338L17.0617 101.272C11.6048 101.858 6.84473 97.5824 6.84473 92.0941V22.3388C6.84473 16.9396 11.4585 12.693 16.8393 13.1397L90.7177 19.2737C95.5031 19.6711 99.1847 23.6709 99.1847 28.4728V84.1559Z" fill="#1BCE7B" fill-opacity="0.78"/>
	<path d="M98.6291 84.1559C98.6291 88.5883 95.2878 92.3079 90.8807 92.7814L17.0023 100.72C11.8739 101.271 7.40028 97.2521 7.40028 92.0941V22.3388C7.40028 17.2645 11.7364 13.2735 16.7933 13.6934L90.6718 19.8274C95.1692 20.2008 98.6291 23.96 98.6291 28.4728V84.1559Z" stroke="black" stroke-opacity="0.16" stroke-width="1.11111"/>
	<mask id="mask0_1307_43468" style="mask-type:alpha" maskUnits="userSpaceOnUse" x="6" y="13" width="94" height="88">
		<path d="M99.1955 83.7235C99.1955 88.4426 95.6361 92.4018 90.9436 92.9022L16.8639 100.803C11.4095 101.384 6.6543 97.1092 6.6543 91.6238V22.3329C6.6543 16.936 11.2644 12.6901 16.6432 13.1334L90.7229 19.2381C95.5107 19.6326 99.1955 23.6336 99.1955 28.4377V83.7235Z" fill="white"/>
	</mask>
	<g mask="url(#mask0_1307_43468)">
		<path d="M54.2981 -4.7742L98.2821 20.0559L59.8759 58.0569C59.2447 58.6815 58.2347 58.7015 57.5792 58.1024L7.70115 12.5117L54.2981 -4.7742Z" stroke="black" stroke-opacity="0.16" stroke-width="1.11111"/>
	</g>
	<path d="M115.883 89.5809C115.883 94.2682 112.37 98.2113 107.714 98.7504L89.6957 100.836C84.2137 101.471 79.4033 97.1856 79.4033 91.667V66.1622C79.4033 61.1304 83.4332 57.0256 88.4641 56.933L106.483 56.6012C111.646 56.5061 115.883 60.6659 115.883 65.8304V89.5809Z" fill="#FF9800" fill-opacity="0.78"/>
	<path d="M115.328 89.5809C115.328 93.9861 112.026 97.6919 107.65 98.1986L89.6318 100.285C84.4797 100.881 79.9589 96.8535 79.9589 91.667V66.1622C79.9589 61.4333 83.7462 57.5755 88.4744 57.4885L106.493 57.1567C111.346 57.0673 115.328 60.9767 115.328 65.8304V89.5809Z" stroke="black" stroke-opacity="0.16" stroke-width="1.11111"/>
	<g filter="url(#filter0_d_1307_43468)">
		<path fill-rule="evenodd" clip-rule="evenodd" d="M96.5039 80.3065C96.5039 81.6801 97.9173 82.7525 99.5735 82.6378V82.6356C101.058 82.5344 102.204 81.5047 102.204 80.275V66.7454C102.204 65.4234 100.889 64.369 99.2889 64.4073C97.7406 64.4455 96.5039 65.4976 96.5039 66.7769V80.3065ZM96.5039 89.1418C96.5039 90.6951 97.9663 91.9108 99.6471 91.7577V91.7555C101.1 91.6226 102.204 90.5015 102.204 89.1598V88.6983C102.204 87.1629 100.771 85.9518 99.1049 86.0801C97.6326 86.1949 96.5039 87.3228 96.5039 88.6803V89.1418Z" fill="white" fill-opacity="0.9" shape-rendering="crispEdges"/>
	</g>
	<g filter="url(#filter1_d_1307_43468)">
		<path d="M23.5313 90.4694C23.5334 90.469 23.5339 90.4662 23.532 90.4651C21.0967 89.0158 19.2089 86.8016 17.8863 83.8198C16.5539 80.8256 15.8848 77.244 15.8848 73.0904C15.8848 68.6444 16.5863 64.7159 17.9895 61.318C19.3838 57.9356 21.347 55.3322 23.8644 53.5025C26.3641 51.691 29.25 50.7826 32.5132 50.7697C35.7911 50.7568 38.6122 51.4969 40.9851 52.9849C43.3375 54.46 45.1238 56.5459 46.356 59.2399C47.5823 61.9236 48.1925 65.0705 48.1925 68.6858C48.1925 71.4755 47.8387 73.9314 47.1342 76.0509C46.4267 78.1782 45.4422 79.8396 44.1805 81.0378C42.913 82.2412 41.4804 82.8933 39.8768 82.9917C39.019 83.0434 38.1995 82.7614 37.4154 82.1403C36.6407 81.5266 36.0415 80.6604 35.6207 79.5415C35.6116 79.5173 35.5878 79.5018 35.562 79.5034C35.5398 79.5049 35.5204 79.5188 35.5118 79.5393C34.9853 80.7861 34.2648 81.761 33.3445 82.4638C32.413 83.1754 31.4137 83.5636 30.3436 83.6283C28.3539 83.7499 26.7297 82.9373 25.4798 81.1827C24.224 79.4204 23.5932 76.9386 23.5932 73.7348C23.5932 70.7147 23.9558 68.1216 24.6809 65.9607C25.4032 63.805 26.4054 62.1694 27.6788 61.0489C28.9464 59.9335 30.3849 59.3641 31.9885 59.3331C32.8669 59.3175 33.6363 59.522 34.2966 59.9516C34.598 60.1465 34.8742 60.3732 35.1255 60.6314C35.4353 60.9498 36.0598 60.8197 36.1315 60.3813C36.1683 60.1563 36.3604 59.9896 36.5884 59.9849L37.8255 59.9595C39.0254 59.9349 39.9653 60.985 39.8084 62.1748L38.1169 75.0002C38.0904 75.1762 38.0786 75.4402 38.0786 75.7921C38.0786 76.4598 38.1906 76.9696 38.4117 77.3268C38.6328 77.6839 38.9394 77.8521 39.3285 77.8314C40.4693 77.7719 41.3654 76.9334 42.0227 75.3134C42.6772 73.6985 43.0044 71.5557 43.0044 68.8773C43.0044 64.6357 42.1495 61.5173 40.4339 59.5142C38.7065 57.4982 36.0741 56.5123 32.5044 56.564C29.079 56.6132 26.3936 58.0469 24.4717 60.8806C22.5379 63.7325 21.5651 67.7282 21.5651 72.8549C21.5651 77.438 22.4819 80.9162 24.3066 83.2738C26.1195 85.6184 28.687 86.6743 31.9826 86.4569C33.4571 86.3588 34.8313 86.1144 36.1061 85.724C37.8287 85.1966 39.9062 86.3508 39.9062 88.1524C39.9062 88.8078 39.6283 89.4409 39.0971 89.8248C37.1551 91.2285 34.7876 92.041 31.9826 92.2538C28.7689 92.4995 25.9466 91.9105 23.5306 90.4738C23.5287 90.4727 23.5292 90.4699 23.5313 90.4694ZM32.9907 76.6733C32.9907 76.6725 32.9909 76.6717 32.9914 76.6709C33.5216 75.6899 33.9194 74.0289 34.1846 71.6877C34.2907 70.8001 34.3438 69.8995 34.3438 68.9808C34.3438 67.3582 34.1522 66.1444 33.769 65.3448C33.3828 64.5425 32.861 64.1492 32.1948 64.1699C31.1012 64.2009 30.2375 65.0239 29.6067 66.6439C28.9729 68.2665 28.6575 70.5076 28.6575 73.3595C28.6575 75.0002 28.8668 76.2295 29.2824 77.0447C29.6981 77.8599 30.2699 78.2481 30.9921 78.2118C31.7936 78.1704 32.4596 77.6584 32.9901 76.6758C32.9905 76.675 32.9907 76.6742 32.9907 76.6733Z" fill="white" fill-opacity="0.9" shape-rendering="crispEdges"/>
	</g>
	<defs>
		<filter id="filter0_d_1307_43468" x="86.5039" y="58.4062" width="25.7002" height="47.3652" filterUnits="userSpaceOnUse" color-interpolation-filters="sRGB">
			<feFlood flood-opacity="0" result="BackgroundImageFix"/>
			<feColorMatrix in="SourceAlpha" type="matrix" values="0 0 0 0 0 0 0 0 0 0 0 0 0 0 0 0 0 0 127 0" result="hardAlpha"/>
			<feOffset dy="4"/>
			<feGaussianBlur stdDeviation="5"/>
			<feComposite in2="hardAlpha" operator="out"/>
			<feColorMatrix type="matrix" values="0 0 0 0 0 0 0 0 0 0 0 0 0 0 0 0 0 0 0.05 0"/>
			<feBlend mode="normal" in2="BackgroundImageFix" result="effect1_dropShadow_1307_43468"/>
			<feBlend mode="normal" in="SourceGraphic" in2="effect1_dropShadow_1307_43468" result="shape"/>
		</filter>
		<filter id="filter1_d_1307_43468" x="5.88477" y="44.7695" width="52.3076" height="61.5391" filterUnits="userSpaceOnUse" color-interpolation-filters="sRGB">
			<feFlood flood-opacity="0" result="BackgroundImageFix"/>
			<feColorMatrix in="SourceAlpha" type="matrix" values="0 0 0 0 0 0 0 0 0 0 0 0 0 0 0 0 0 0 127 0" result="hardAlpha"/>
			<feOffset dy="4"/>
			<feGaussianBlur stdDeviation="5"/>
			<feComposite in2="hardAlpha" operator="out"/>
			<feColorMatrix type="matrix" values="0 0 0 0 0 0 0 0 0 0 0 0 0 0 0 0 0 0 0.05 0"/>
			<feBlend mode="normal" in2="BackgroundImageFix" result="effect1_dropShadow_1307_43468"/>
			<feBlend mode="normal" in="SourceGraphic" in2="effect1_dropShadow_1307_43468" result="shape"/>
		</filter>
	</defs>
</svg>
