<svg width="120" height="120" viewBox="0 0 120 120" fill="none" xmlns="http://www.w3.org/2000/svg">
<path opacity="0.12" fill-rule="evenodd" clip-rule="evenodd" d="M92.5271 110.614H27.2978C26.7396 110.614 26.1863 110.594 25.6385 110.555C10.8965 110.232 0.000744822 98.6175 0 84.3383C0.00428598 77.3785 3.12041 71.1515 7.65302 65.7042C9.81967 63.1004 11.3888 61.384 14.5573 59.8182C14.5009 59.11 14.4722 58.3943 14.4722 57.6722C14.4768 50.3286 17.5092 43.2876 22.9023 38.0981C28.2955 32.9086 35.6075 29.9957 43.2299 30.0002C52.9939 30.0116 61.5102 35.1016 66.6909 42.2814C70.1019 41.4416 74.3196 41.1733 77.0787 41.1747C89.267 41.1888 99.2776 50.14 100.438 61.5872C112.117 64.04 120.01 73.6777 119.999 85.662C119.987 99.4729 108.36 110.661 94.0246 110.655C93.522 110.655 93.0227 110.641 92.5271 110.614Z" fill="#A8ADB4"/>
<g filter="url(#filter0_d_1093_142552)">
<rect x="27" y="17" width="64" height="79" rx="6" fill="white"/>
</g>
<rect opacity="0.4" x="37" y="27" width="44" height="44" rx="3" fill="#D5D7DB"/>
<g opacity="0.6">
<path opacity="0.8" d="M69.665 59.9423C70.3846 59.6807 70.7839 58.9245 70.6363 58.1732L70.1266 55.5769C70.1266 54.4935 68.6837 53.2559 65.8425 52.5348C64.8799 52.2712 63.9648 51.8625 63.13 51.3234C62.9475 51.2209 62.9752 50.2748 62.9752 50.2748L62.0601 50.1381C62.0601 50.0613 61.9819 48.9267 61.9819 48.9267C63.0767 48.5655 62.9641 46.4352 62.9641 46.4352C63.6594 46.8138 64.1122 45.128 64.1122 45.128C64.9346 42.7858 63.7027 42.9274 63.7027 42.9274C63.9182 41.4975 63.9182 40.0443 63.7027 38.6145C63.155 33.8712 54.9088 35.1589 55.8865 36.708C53.4765 36.2723 54.0264 41.655 54.0264 41.655L54.5492 43.0488C53.8246 43.5102 53.9669 44.0396 54.1258 44.631C54.1921 44.8775 54.2612 45.1348 54.2717 45.4025C54.3222 46.7457 55.1596 46.4674 55.1596 46.4674C55.2112 48.6843 56.3249 48.973 56.3249 48.973C56.5341 50.3652 56.4037 50.1283 56.4037 50.1283L55.4126 50.2459C55.426 50.5625 55.3998 50.8796 55.3344 51.1899C54.7585 51.4418 54.406 51.6423 54.0569 51.8408C53.6996 52.0439 53.3459 52.2451 52.7601 52.4972C50.5226 53.4597 48.0909 54.7114 47.6586 56.3967C47.5322 56.8894 47.4085 57.5517 47.2966 58.2424C47.1793 58.9663 47.5817 59.6748 48.2704 59.9264C51.2757 61.0243 54.6673 61.675 58.2652 61.7522H59.7138C63.2943 61.6753 66.6705 61.0306 69.665 59.9423Z" fill="#A8ADB4"/>
</g>
<path d="M37 34.04V29C37 27.8954 37.8954 27 39 27H44.04" stroke="#DFE0E3" stroke-width="2" stroke-linecap="round" stroke-linejoin="round"/>
<path d="M37 63.96V69C37 70.1046 37.8954 71 39 71H44.04" stroke="#DFE0E3" stroke-width="2" stroke-linecap="round" stroke-linejoin="round"/>
<path d="M81 34.04V29C81 27.8954 80.1046 27 79 27H73.96" stroke="#DFE0E3" stroke-width="2" stroke-linecap="round" stroke-linejoin="round"/>
<path d="M81 63.96V69C81 70.1046 80.1046 71 79 71H73.96" stroke="#DFE0E3" stroke-width="2" stroke-linecap="round" stroke-linejoin="round"/>
<rect x="36" y="79" width="46" height="3" rx="1.5" fill="#E6E7E9"/>
<rect x="40" y="86" width="38" height="3" rx="1.5" fill="#E6E7E9"/>
<defs>
<filter id="filter0_d_1093_142552" x="19.9256" y="12.2837" width="78.1488" height="93.1488" filterUnits="userSpaceOnUse" color-interpolation-filters="sRGB">
<feFlood flood-opacity="0" result="BackgroundImageFix"/>
<feColorMatrix in="SourceAlpha" type="matrix" values="0 0 0 0 0 0 0 0 0 0 0 0 0 0 0 0 0 0 127 0" result="hardAlpha"/>
<feOffset dy="2.35813"/>
<feGaussianBlur stdDeviation="3.5372"/>
<feComposite in2="hardAlpha" operator="out"/>
<feColorMatrix type="matrix" values="0 0 0 0 0.423529 0 0 0 0 0.423529 0 0 0 0 0.423529 0 0 0 0.12 0"/>
<feBlend mode="normal" in2="BackgroundImageFix" result="effect1_dropShadow_1093_142552"/>
<feBlend mode="normal" in="SourceGraphic" in2="effect1_dropShadow_1093_142552" result="shape"/>
</filter>
</defs>
</svg>
