<svg width="25" height="24" viewBox="0 0 25 24" fill="none" xmlns="http://www.w3.org/2000/svg">
	<path d="M17.5554 7.86275C15.9409 5.87498 13.1703 5.03806 10.5765 5.77371C7.95186 6.51809 6.49038 8.85533 6.15365 11.7424C6.10887 12.1264 5.76127 12.4014 5.37728 12.3566C4.99328 12.3118 4.71829 11.9642 4.76308 11.5802C5.1404 8.34502 6.84356 5.3772 10.1945 4.42683C13.1063 3.60097 16.2475 4.41991 18.2655 6.55091V5.21953C18.2655 4.83293 18.5789 4.51953 18.9655 4.51953C19.3521 4.51953 19.6655 4.83293 19.6655 5.21953V8.44481L19.6654 8.45878C19.6699 8.66593 19.5828 8.87302 19.4104 9.01492C19.1119 9.26061 18.6708 9.21782 18.4251 8.91933L17.5554 7.86275Z" fill="white"/>
	<path d="M6.87754 17.4103C8.89754 19.5309 12.036 20.3441 14.9442 19.521C18.2974 18.5719 20.0026 15.6076 20.3803 12.3751C20.4252 11.9911 20.1503 11.6434 19.7663 11.5985C19.3823 11.5537 19.0347 11.8286 18.9898 12.2126C18.6529 15.0954 17.1906 17.4302 14.5629 18.1739C11.8979 18.9282 9.04817 18.0277 7.4526 15.9298L6.7351 14.9848C6.50132 14.6769 6.0622 14.6168 5.75429 14.8506C5.57246 14.9886 5.47705 15.1983 5.47754 15.4102L5.47754 15.4119L5.47754 18.7445C5.47754 19.1311 5.79094 19.4445 6.17754 19.4445C6.56414 19.4445 6.87754 19.1311 6.87754 18.7445V17.4103Z" fill="white"/>
	<path d="M9.59814 15.9451C9.59814 15.5585 9.91155 15.2451 10.2981 15.2451H14.7027C15.0893 15.2451 15.4027 15.5585 15.4027 15.9451C15.4027 16.3317 15.0893 16.6451 14.7027 16.6451H10.2981C9.91155 16.6451 9.59814 16.3317 9.59814 15.9451Z" fill="white"/>
	<path d="M13.2198 7.7152C13.1622 7.38652 12.8754 7.13672 12.5303 7.13672C12.1902 7.13672 11.9067 7.37924 11.8435 7.70077C11.5125 7.78042 11.2083 7.9221 10.955 8.1296C10.5215 8.48473 10.272 9.00996 10.3174 9.60707C10.3597 10.164 10.6432 10.6034 11.0648 10.9014C11.4622 11.1822 11.9649 11.3286 12.4857 11.3952C12.8852 11.4463 13.13 11.5463 13.2598 11.6449C13.3575 11.7191 13.4023 11.7959 13.4023 11.9411C13.4023 12.1206 13.3443 12.2135 13.2622 12.2786C13.1594 12.3601 12.9377 12.4577 12.5215 12.4577C12.0945 12.4577 11.8763 12.3576 11.7673 12.279C11.6586 12.2007 11.5985 12.1005 11.564 11.993C11.446 11.6249 11.0518 11.4221 10.6837 11.5402C10.3156 11.6582 10.1128 12.0523 10.2309 12.4205C10.3372 12.7521 10.55 13.1274 10.9486 13.4147C11.1976 13.5942 11.4955 13.7224 11.843 13.7933C11.9072 14.1136 12.19 14.3549 12.5293 14.3549C12.8701 14.3549 13.154 14.1114 13.2165 13.7889C13.5585 13.7162 13.8709 13.5828 14.1324 13.3753C14.5837 13.0172 14.8023 12.5017 14.8023 11.9411C14.8023 11.346 14.5429 10.8615 14.1066 10.5301C13.7024 10.223 13.1833 10.073 12.6634 10.0065C12.2647 9.9555 12.0128 9.85696 11.8729 9.7581C11.7573 9.67636 11.721 9.60116 11.7134 9.501C11.7045 9.38488 11.7421 9.29462 11.8422 9.21256C11.9567 9.11879 12.1781 9.02305 12.5215 9.02305C12.9604 9.02305 13.2433 9.20466 13.3954 9.55589C13.549 9.91064 13.9612 10.0737 14.3159 9.92C14.6707 9.76634 14.8337 9.35419 14.6801 8.99944C14.3835 8.31476 13.8512 7.89002 13.2198 7.7152Z" fill="white"/>
</svg>
