<svg width="595" height="449" viewBox="0 0 595 449" fill="none" xmlns="http://www.w3.org/2000/svg" xmlns:xlink="http://www.w3.org/1999/xlink">
	<svg width="595" height="449" id="skeleton-elements">
		<rect x="345" width="24" height="24" rx="12" fill="#EDEEF0"/>
		<rect x="377" y="8" width="110" height="8" rx="4" fill="#EDEEF0"/>
		<path d="M385.5 266C385.5 259.649 390.649 254.5 397 254.5H583C589.351 254.5 594.5 259.649 594.5 266V386C594.5 392.351 589.351 397.5 583 397.5H397C390.649 397.5 385.5 392.351 385.5 386V266Z" stroke="#E2E2E2"/>
		<rect x="395" y="270" width="110" height="8" rx="4" fill="#EDEEF0"/>
		<rect x="395" y="290" width="50" height="6" rx="3" fill="#EDEEF0"/>
		<rect x="395" y="309" width="28" height="28" rx="14" fill="#EDEEF0"/>
		<rect x="431" y="311" width="110" height="6" rx="3" fill="#EDEEF0"/>
		<rect x="431" y="329" width="50" height="6" rx="3" fill="#EDEEF0"/>
		<rect x="395" y="354" width="110" height="6" rx="3" fill="#EDEEF0"/>
		<rect x="395" y="368" width="20" height="20" rx="10" fill="#EDEEF0"/>
		<rect x="423" y="375" width="50" height="6" rx="3" fill="#EDEEF0"/>
		<path d="M377 241V337C377 339.209 378.791 341 381 341H385" stroke="#F0F0F0"/>
		<path d="M365.5 159C365.5 152.649 370.649 147.5 377 147.5H583C589.351 147.5 594.5 152.649 594.5 159V230C594.5 236.351 589.351 241.5 583 241.5H377C370.649 241.5 365.5 236.351 365.5 230V159Z" stroke="#F0F0F0"/>
		<rect x="375" y="161" width="110" height="8" rx="4" fill="#EDEEF0"/>
		<rect x="375" y="181" width="50" height="6" rx="3" fill="#EDEEF0"/>
		<rect x="375" y="202" width="28" height="28" rx="14" fill="#EDEEF0"/>
		<rect x="411" y="204" width="110" height="6" rx="3" fill="#EDEEF0"/>
		<rect x="411" y="222" width="50" height="6" rx="3" fill="#EDEEF0"/>
		<path d="M357 134V199C357 201.209 358.791 203 361 203H365" stroke="#F0F0F0"/>
		<path d="M345.5 52C345.5 45.6487 350.649 40.5 357 40.5H583C589.351 40.5 594.5 45.6487 594.5 52V123C594.5 129.351 589.351 134.5 583 134.5H357C350.649 134.5 345.5 129.351 345.5 123V52Z" stroke="#F0F0F0"/>
		<rect x="355" y="54" width="110" height="8" rx="4" fill="#EDEEF0"/>
		<rect x="355" y="74" width="50" height="6" rx="3" fill="#EDEEF0"/>
		<rect x="355" y="95" width="28" height="28" rx="14" fill="#EDEEF0"/>
		<rect x="391" y="97" width="110" height="6" rx="3" fill="#EDEEF0"/>
		<rect x="391" y="115" width="50" height="6" rx="3" fill="#EDEEF0"/>
		<rect x="322" width="1" height="449" fill="#F0F0F0"/>
		<g clip-path="url(#clip1_1118_26740)">
			<rect width="300" height="449"/>
			<rect x="4" width="72" height="72" rx="36" fill="#EDEEF0"/>
			<rect x="86" y="15.5" width="120" height="12" rx="6" fill="#EDEEF0"/>
			<rect x="86" y="37.5" width="80" height="10" rx="5" fill="#EDEEF0"/>
			<rect x="86" y="62" width="60" height="6" rx="3" fill="#EDEEF0"/>
			<rect x="283" y="1" width="16" height="14" rx="2" fill="#EDEEF0"/>
			<rect x="4" y="90" width="142" height="28" rx="8" fill="#EDEEF0"/>
			<rect x="154" y="90" width="142" height="28" rx="8" fill="#EDEEF0"/>
			<rect x="4" y="140" width="292" height="1" fill="#F7F7F7"/>
			<rect x="4" y="164.5" width="70" height="6" rx="3" fill="#EDEEF0"/>
			<rect x="4" y="185.5" width="140" height="8" rx="4" fill="#EDEEF0"/>
			<rect x="4" y="214.5" width="70" height="6" rx="3" fill="#EDEEF0"/>
			<rect x="4" y="235.5" width="140" height="8" rx="4" fill="#EDEEF0"/>
			<rect x="4" y="264.5" width="70" height="6" rx="3" fill="#EDEEF0"/>
			<rect x="4" y="285.5" width="140" height="8" rx="4" fill="#EDEEF0"/>
			<rect x="4" y="314.5" width="70" height="6" rx="3" fill="#EDEEF0"/>
			<rect x="4" y="335.5" width="140" height="8" rx="4" fill="#EDEEF0"/>
			<rect x="4" y="364.5" width="70" height="6" rx="3" fill="#EDEEF0"/>
			<rect x="4" y="385.5" width="140" height="8" rx="4" fill="#EDEEF0"/>
			<rect x="4" y="414.5" width="70" height="6" rx="3" fill="#EDEEF0"/>
			<rect x="4" y="435.5" width="140" height="8" rx="4" fill="#EDEEF0"/>
		</g>
	</svg>

	<defs>
		<filter id="filter0_d_3935_148950" x="0" y="0" width="595" height="449" filterUnits="userSpaceOnUse" color-interpolation-filters="sRGB">
			<feFlood flood-opacity="0" result="BackgroundImageFix"/>
			<feColorMatrix in="SourceAlpha" type="matrix" values="0 0 0 0 0 0 0 0 0 0 0 0 0 0 0 0 0 0 127 0" result="hardAlpha"/>
			<feOffset dy="8"/>
			<feGaussianBlur stdDeviation="6.5"/>
			<feComposite in2="hardAlpha" operator="out"/>
			<feColorMatrix type="matrix" values="0 0 0 0 0 0 0 0 0 0 0 0 0 0 0 0 0 0 0.09 0"/>
			<feBlend mode="normal" in2="BackgroundImageFix" result="effect1_dropShadow_3935_148950"/>
			<feBlend mode="normal" in="SourceGraphic" in2="effect1_dropShadow_3935_148950" result="shape"/>
		</filter>
		<linearGradient id="paint0_linear_3935_148950" x1="191" y1="5" x2="191" y2="187.369" gradientUnits="userSpaceOnUse">
			<stop stop-opacity="0.2"/>
			<stop offset="1" stop-opacity="0"/>
		</linearGradient>

		<linearGradient x1="66.6%" y1="50%" x2="33.3%" y2="50%" id="msk_gd">
			<stop stop-color="#000000" stop-opacity="0" offset="0%"/>
			<stop stop-color="#000000" stop-opacity="0.07" offset="50%"/>
			<stop stop-color="#000000" stop-opacity="0" offset="100%"/>
		</linearGradient>
	</defs>

	<rect id="msk1" width="100%" fill="url(#msk_gd)" mask="url(#headerMsk)" height="100%"/>
	<mask id="headerMsk">
		<use xlink:href="#skeleton-elements"/>
	</mask>

	<animate xlink:href="#msk1" attributeName="x" from="-100%" to="100%" dur="1s" begin="0s" repeatCount="indefinite"/>
</svg>
