<svg width="112" height="112" viewBox="0 0 112 112" fill="none" xmlns="http://www.w3.org/2000/svg">
<circle cx="56" cy="56" r="56" fill="url(#paint0_linear_10548_102871)"/>
<g filter="url(#filter0_d_10548_102871)">
<path d="M29.2676 28.6352C29.2676 27.2534 30.3878 26.1333 31.7695 26.1333H88.8015C90.6434 26.1333 92.1366 27.6265 92.1366 29.4683V38.9848C92.1366 40.8267 90.6434 42.3198 88.8015 42.3198H31.7695C30.3878 42.3198 29.2676 41.1997 29.2676 39.8179V28.6352Z" fill="white"/>
<rect opacity="0.5" x="33.6952" y="30.3953" width="18.595" height="2.55577" rx="1.27788" fill="#BDC1C6"/>
<rect x="33.6952" y="35.5032" width="35.4191" height="2.55577" rx="1.27788" fill="#525C69" fill-opacity="0.1"/>
<circle cx="18.8235" cy="34.0594" r="6.37778" fill="#00ACE3"/>
</g>
<g filter="url(#filter1_d_10548_102871)">
<path d="M41.6643 49.1637C41.6643 47.782 42.7844 46.6619 44.1662 46.6619H101.198C103.04 46.6619 104.533 48.155 104.533 49.9969V59.5133C104.533 61.3552 103.04 62.8484 101.198 62.8484H44.1662C42.7844 62.8484 41.6643 61.7283 41.6643 60.3465V49.1637Z" fill="white"/>
<rect opacity="0.5" x="46.0906" y="50.9238" width="16.8241" height="2.55577" rx="1.27788" fill="#BDC1C6"/>
<rect x="46.0906" y="56.0317" width="38.0756" height="2.55577" rx="1.27788" fill="#525C69" fill-opacity="0.1"/>
<circle cx="31.2179" cy="54.586" r="6.37535" fill="#9DCF00"/>
</g>
<g filter="url(#filter2_d_10548_102871)">
<path d="M29.2689 69.6929C29.2689 68.3115 30.3887 67.1917 31.7701 67.1917H89.6882C91.5301 67.1917 93.0233 68.6848 93.0233 70.5267V80.0431C93.0233 81.885 91.5301 83.3782 89.6882 83.3782H31.7707C30.389 83.3782 29.2689 82.258 29.2689 80.8763V69.6929Z" fill="white"/>
<rect opacity="0.5" x="33.6964" y="71.4512" width="15.0531" height="2.55577" rx="1.27788" fill="#BDC1C6"/>
<rect x="33.6964" y="76.5615" width="38.0756" height="2.55577" rx="1.27788" fill="#525C69" fill-opacity="0.1"/>
<circle cx="18.8222" cy="75.1178" r="6.37778" fill="#FFA900"/>
</g>
<defs>
<filter id="filter0_d_10548_102871" x="9.75549" y="24.4519" width="85.0713" height="21.5669" filterUnits="userSpaceOnUse" color-interpolation-filters="sRGB">
<feFlood flood-opacity="0" result="BackgroundImageFix"/>
<feColorMatrix in="SourceAlpha" type="matrix" values="0 0 0 0 0 0 0 0 0 0 0 0 0 0 0 0 0 0 127 0" result="hardAlpha"/>
<feOffset dy="1.00882"/>
<feGaussianBlur stdDeviation="1.3451"/>
<feComposite in2="hardAlpha" operator="out"/>
<feColorMatrix type="matrix" values="0 0 0 0 0.423529 0 0 0 0 0.423529 0 0 0 0 0.423529 0 0 0 0.1 0"/>
<feBlend mode="normal" in2="BackgroundImageFix" result="effect1_dropShadow_10548_102871"/>
<feBlend mode="normal" in="SourceGraphic" in2="effect1_dropShadow_10548_102871" result="shape"/>
</filter>
<filter id="filter1_d_10548_102871" x="22.1523" y="44.9805" width="85.0711" height="21.5669" filterUnits="userSpaceOnUse" color-interpolation-filters="sRGB">
<feFlood flood-opacity="0" result="BackgroundImageFix"/>
<feColorMatrix in="SourceAlpha" type="matrix" values="0 0 0 0 0 0 0 0 0 0 0 0 0 0 0 0 0 0 127 0" result="hardAlpha"/>
<feOffset dy="1.00882"/>
<feGaussianBlur stdDeviation="1.3451"/>
<feComposite in2="hardAlpha" operator="out"/>
<feColorMatrix type="matrix" values="0 0 0 0 0.423529 0 0 0 0 0.423529 0 0 0 0 0.423529 0 0 0 0.1 0"/>
<feBlend mode="normal" in2="BackgroundImageFix" result="effect1_dropShadow_10548_102871"/>
<feBlend mode="normal" in="SourceGraphic" in2="effect1_dropShadow_10548_102871" result="shape"/>
</filter>
<filter id="filter2_d_10548_102871" x="9.75426" y="65.5103" width="85.9592" height="21.5669" filterUnits="userSpaceOnUse" color-interpolation-filters="sRGB">
<feFlood flood-opacity="0" result="BackgroundImageFix"/>
<feColorMatrix in="SourceAlpha" type="matrix" values="0 0 0 0 0 0 0 0 0 0 0 0 0 0 0 0 0 0 127 0" result="hardAlpha"/>
<feOffset dy="1.00882"/>
<feGaussianBlur stdDeviation="1.3451"/>
<feComposite in2="hardAlpha" operator="out"/>
<feColorMatrix type="matrix" values="0 0 0 0 0.423529 0 0 0 0 0.423529 0 0 0 0 0.423529 0 0 0 0.1 0"/>
<feBlend mode="normal" in2="BackgroundImageFix" result="effect1_dropShadow_10548_102871"/>
<feBlend mode="normal" in="SourceGraphic" in2="effect1_dropShadow_10548_102871" result="shape"/>
</filter>
<linearGradient id="paint0_linear_10548_102871" x1="55.5563" y1="21.1755" x2="55.5563" y2="112" gradientUnits="userSpaceOnUse">
<stop stop-color="#D3F4FF" stop-opacity="0.3"/>
<stop offset="1" stop-color="#D3F4FF" stop-opacity="0.5"/>
</linearGradient>
</defs>
</svg>
