<svg width="30" height="30" viewBox="0 0 30 30" fill="none" xmlns="http://www.w3.org/2000/svg">
	<path d="M19.1268 8.43649L15.0011 12.5621L10.8755 8.43649C10.1254 7.68637 9.18771 7.68637 8.43759 8.43649C7.68747 9.18661 7.68747 10.1243 8.43759 10.8744L12.5632 15L8.43759 19.1257C7.68747 19.8758 7.68747 20.8134 8.43759 21.5636C9.18771 22.3137 10.1254 22.3137 10.8755 21.5636L15.0011 17.4379L19.1268 21.5636C19.8769 22.3137 20.8145 22.3137 21.5647 21.5636C22.3148 20.8134 22.3148 19.8758 21.5647 19.1257L17.439 15L21.5647 10.8744C22.3148 10.1243 22.3148 9.18661 21.5647 8.43649C20.8145 7.8739 19.6894 7.8739 19.1268 8.43649Z" fill="#FF5752"/>
</svg>
