<svg width="75" height="41" viewBox="0 0 75 41" fill="none" xmlns="http://www.w3.org/2000/svg">
	<path d="M15.7671 32.5752V38.0991H16.5889V40.7754H15.5737V39H11.3286V40.7754H10.3135V38.0991H10.8101C11.0034 37.7446 11.1865 37.3579 11.3594 36.939C11.5322 36.5171 11.6904 36.0718 11.834 35.603C11.9775 35.1343 12.0991 34.6465 12.1987 34.1396C12.3013 33.6299 12.3774 33.1084 12.4272 32.5752H15.7671ZM14.7168 33.4761H13.2974C13.2622 33.813 13.2021 34.1821 13.1172 34.5835C13.0352 34.9819 12.9326 35.3892 12.8096 35.8052C12.6865 36.2212 12.5488 36.6255 12.3965 37.0181C12.2471 37.4106 12.0889 37.771 11.9219 38.0991H14.7168V33.4761ZM21.5283 39H20.4868V34.9438H19.1377C19.0791 35.6821 19.0059 36.3135 18.918 36.8379C18.8301 37.3623 18.7202 37.79 18.5884 38.1211C18.4565 38.4492 18.2939 38.6895 18.1006 38.8418C17.9072 38.9941 17.6743 39.0703 17.4019 39.0703C17.2817 39.0703 17.1733 39.0615 17.0767 39.0439C16.98 39.0293 16.8936 39.0059 16.8174 38.9736V38.1606C16.8672 38.1782 16.9214 38.1929 16.98 38.2046C17.0386 38.2163 17.0986 38.2222 17.1602 38.2222C17.2686 38.2222 17.3682 38.1782 17.459 38.0903C17.5527 37.9995 17.6392 37.8574 17.7183 37.6641C17.7974 37.4707 17.8691 37.2158 17.9336 36.8994C17.998 36.5801 18.0566 36.1934 18.1094 35.7393C18.1621 35.2822 18.209 34.7476 18.25 34.1353H21.5283V39ZM23.4971 39H22.3457L23.7036 37.0137C23.519 36.9551 23.3462 36.8687 23.1851 36.7544C23.0269 36.6372 22.8979 36.4849 22.7983 36.2974C22.6987 36.1069 22.6489 35.8755 22.6489 35.603C22.6489 35.1284 22.8188 34.7651 23.1587 34.5132C23.4985 34.2612 23.9424 34.1353 24.4902 34.1353H26.6963V39H25.6636V37.1191H24.6836L23.4971 39ZM23.6597 35.6118C23.6597 35.8579 23.752 36.0454 23.9365 36.1743C24.1211 36.3003 24.373 36.3633 24.6924 36.3633H25.6636V34.9131H24.543C24.2354 34.9131 24.0112 34.9805 23.8706 35.1152C23.73 35.2471 23.6597 35.4126 23.6597 35.6118ZM30.2295 36.082C30.2295 35.376 30.3071 34.7754 30.4624 34.2803C30.6177 33.7852 30.8623 33.3882 31.1963 33.0894C31.5303 32.7905 31.9639 32.5869 32.4971 32.4785C32.8428 32.3994 33.1943 32.332 33.5518 32.2764C33.9092 32.2207 34.2666 32.1665 34.624 32.1138L34.7646 33.0234C34.5977 33.0439 34.4189 33.0688 34.2285 33.0981C34.0381 33.1245 33.8462 33.1523 33.6528 33.1816C33.4624 33.2109 33.2793 33.2417 33.1035 33.2739C32.9307 33.3032 32.7754 33.3325 32.6377 33.3618C32.3623 33.4204 32.1294 33.5171 31.939 33.6519C31.7515 33.7837 31.605 33.9771 31.4995 34.2319C31.394 34.4868 31.3311 34.8267 31.3105 35.2515H31.3677C31.4468 35.1313 31.5566 35.0112 31.6973 34.8911C31.8379 34.771 32.0078 34.6714 32.207 34.5923C32.4092 34.5103 32.6392 34.4692 32.897 34.4692C33.3013 34.4692 33.644 34.5542 33.9253 34.7241C34.2095 34.894 34.4248 35.1401 34.5713 35.4624C34.7207 35.7847 34.7954 36.1729 34.7954 36.627C34.7954 37.1689 34.6987 37.623 34.5054 37.9893C34.3149 38.3525 34.0483 38.6265 33.7056 38.811C33.3628 38.9956 32.9629 39.0879 32.5059 39.0879C32.1543 39.0879 31.8379 39.022 31.5566 38.8901C31.2783 38.7583 31.0396 38.5649 30.8403 38.3101C30.644 38.0522 30.4932 37.7373 30.3877 37.3652C30.2822 36.9902 30.2295 36.5625 30.2295 36.082ZM32.5762 38.2397C32.8105 38.2397 33.0127 38.1899 33.1826 38.0903C33.3555 37.9907 33.4888 37.8296 33.5825 37.6069C33.6792 37.3843 33.7275 37.0898 33.7275 36.7236C33.7275 36.2725 33.6455 35.918 33.4814 35.6602C33.3203 35.3994 33.0537 35.269 32.6816 35.269C32.4531 35.269 32.2437 35.3203 32.0532 35.4229C31.8628 35.5254 31.7017 35.6455 31.5698 35.7832C31.438 35.918 31.3442 36.0366 31.2886 36.1392C31.2886 36.4058 31.3076 36.6636 31.3457 36.9126C31.3867 37.1616 31.4541 37.3872 31.5479 37.5894C31.6445 37.7886 31.7764 37.9468 31.9434 38.064C32.1104 38.1812 32.3213 38.2397 32.5762 38.2397ZM36.9751 34.1353V36.6182C36.9751 36.6973 36.9722 36.7983 36.9663 36.9214C36.9634 37.0415 36.9575 37.1675 36.9487 37.2993C36.9399 37.4282 36.9312 37.5469 36.9224 37.6553C36.9136 37.7637 36.9062 37.8442 36.9004 37.897L39.3481 34.1353H40.605V39H39.6162V36.5435C39.6162 36.4146 39.6191 36.2651 39.625 36.0952C39.6338 35.9253 39.6426 35.7612 39.6514 35.603C39.6631 35.4448 39.6704 35.3247 39.6733 35.2427L37.2344 39H35.9819V34.1353H36.9751ZM43.6021 34.043C43.9595 34.043 44.2803 34.0913 44.5645 34.188C44.8516 34.2817 45.0786 34.4238 45.2456 34.6143C45.4126 34.8047 45.4961 35.042 45.4961 35.3262C45.4961 35.6191 45.4111 35.8535 45.2412 36.0293C45.0742 36.2021 44.8472 36.3267 44.5601 36.4028V36.4424C44.7622 36.4922 44.9453 36.564 45.1094 36.6577C45.2734 36.7485 45.4038 36.8716 45.5005 37.0269C45.6001 37.1792 45.6499 37.3755 45.6499 37.6157C45.6499 37.8882 45.5693 38.1357 45.4082 38.3584C45.25 38.5811 45.0068 38.7583 44.6787 38.8901C44.3506 39.022 43.9331 39.0879 43.4263 39.0879C43.1831 39.0879 42.9517 39.0747 42.7319 39.0483C42.5151 39.0249 42.3174 38.9912 42.1387 38.9473C41.96 38.9004 41.8047 38.8447 41.6729 38.7803V37.8926C41.875 37.9893 42.1196 38.0771 42.4067 38.1562C42.6938 38.2324 43.0015 38.2705 43.3296 38.2705C43.5728 38.2705 43.7925 38.2485 43.9888 38.2046C44.188 38.1577 44.3447 38.0815 44.459 37.9761C44.5762 37.8706 44.6348 37.73 44.6348 37.5542C44.6348 37.3931 44.5835 37.2598 44.481 37.1543C44.3784 37.0488 44.2246 36.9712 44.0195 36.9214C43.8145 36.8687 43.5552 36.8423 43.2417 36.8423H42.6616V36.082H43.1714C43.6021 36.082 43.939 36.0352 44.1821 35.9414C44.4282 35.8447 44.5513 35.6777 44.5513 35.4404C44.5513 35.2412 44.4648 35.0918 44.292 34.9922C44.1191 34.8926 43.854 34.8428 43.4966 34.8428C43.2505 34.8428 43.0073 34.8706 42.7671 34.9263C42.5269 34.979 42.2866 35.0552 42.0464 35.1548L41.7212 34.3945C41.9878 34.2861 42.2734 34.2012 42.5781 34.1396C42.8828 34.0752 43.2241 34.043 43.6021 34.043ZM47.8032 34.1353V36.0908H50.0796V34.1353H51.1167V39H50.0796V36.8994H47.8032V39H46.7661V34.1353H47.8032ZM54.5312 34.043C54.9648 34.043 55.3369 34.1323 55.6475 34.311C55.958 34.4897 56.1968 34.7432 56.3638 35.0713C56.5308 35.3994 56.6143 35.792 56.6143 36.249V36.8027H53.3667C53.3784 37.2744 53.5044 37.6377 53.7446 37.8926C53.9878 38.1475 54.3276 38.2749 54.7642 38.2749C55.0747 38.2749 55.353 38.2456 55.5991 38.187C55.8481 38.1255 56.1045 38.0361 56.3682 37.9189V38.7583C56.125 38.8726 55.8774 38.9561 55.6255 39.0088C55.3735 39.0615 55.0718 39.0879 54.7202 39.0879C54.2427 39.0879 53.8223 38.9956 53.459 38.811C53.0986 38.6235 52.8159 38.3452 52.6108 37.9761C52.4087 37.6069 52.3076 37.1484 52.3076 36.6006C52.3076 36.0557 52.3999 35.5928 52.5845 35.2119C52.769 34.8311 53.0283 34.541 53.3623 34.3418C53.6963 34.1426 54.0859 34.043 54.5312 34.043ZM54.5312 34.8208C54.2061 34.8208 53.9424 34.9263 53.7402 35.1372C53.541 35.3481 53.4238 35.6572 53.3887 36.0645H55.6035C55.6006 35.8213 55.5596 35.606 55.4805 35.4185C55.4043 35.231 55.2871 35.0845 55.1289 34.979C54.9736 34.8735 54.7744 34.8208 54.5312 34.8208ZM59.7388 39.0879C59.2788 39.0879 58.8804 38.9985 58.5435 38.8198C58.2065 38.6411 57.9473 38.3672 57.7656 37.998C57.584 37.6289 57.4932 37.1602 57.4932 36.5918C57.4932 36 57.5928 35.5166 57.792 35.1416C57.9912 34.7666 58.2666 34.4897 58.6182 34.311C58.9727 34.1323 59.3784 34.043 59.8354 34.043C60.1255 34.043 60.3877 34.0723 60.6221 34.1309C60.8594 34.1865 61.0601 34.2554 61.2241 34.3374L60.9165 35.1636C60.7378 35.0903 60.5547 35.0288 60.3672 34.979C60.1797 34.9292 59.9995 34.9043 59.8267 34.9043C59.5425 34.9043 59.3052 34.9673 59.1147 35.0933C58.9272 35.2192 58.7866 35.4067 58.6929 35.6558C58.6021 35.9048 58.5566 36.2139 58.5566 36.583C58.5566 36.9404 58.6035 37.2422 58.6973 37.4883C58.791 37.7314 58.9302 37.916 59.1147 38.042C59.2993 38.165 59.5264 38.2266 59.7959 38.2266C60.0625 38.2266 60.3013 38.1943 60.5122 38.1299C60.7231 38.0654 60.9224 37.9819 61.1099 37.8794V38.7759C60.9253 38.8813 60.7275 38.959 60.5166 39.0088C60.3057 39.0615 60.0464 39.0879 59.7388 39.0879ZM64.1597 34.043C64.7749 34.043 65.2393 34.1792 65.5527 34.4517C65.8691 34.7241 66.0273 35.1489 66.0273 35.7261V39H65.2935L65.0957 38.3101H65.0605C64.9229 38.4858 64.7808 38.6309 64.6343 38.7451C64.4878 38.8594 64.3179 38.9443 64.1245 39C63.9341 39.0586 63.7012 39.0879 63.4258 39.0879C63.1357 39.0879 62.8765 39.0352 62.6479 38.9297C62.4194 38.8213 62.2393 38.6572 62.1074 38.4375C61.9756 38.2178 61.9097 37.9395 61.9097 37.6025C61.9097 37.1016 62.0957 36.7251 62.4678 36.4731C62.8428 36.2212 63.4082 36.082 64.1641 36.0557L65.0078 36.0249V35.77C65.0078 35.4331 64.9287 35.1929 64.7705 35.0493C64.6152 34.9058 64.3955 34.834 64.1113 34.834C63.8682 34.834 63.6323 34.8691 63.4038 34.9395C63.1753 35.0098 62.9526 35.0962 62.7358 35.1987L62.4019 34.4692C62.6392 34.3433 62.9087 34.2407 63.2104 34.1616C63.5151 34.0825 63.8315 34.043 64.1597 34.043ZM65.0034 36.6753L64.375 36.6973C63.8594 36.7148 63.4976 36.8027 63.2896 36.9609C63.0815 37.1191 62.9775 37.3359 62.9775 37.6113C62.9775 37.8516 63.0493 38.0273 63.1929 38.1387C63.3364 38.2471 63.5254 38.3013 63.7598 38.3013C64.1172 38.3013 64.4131 38.2002 64.6475 37.998C64.8848 37.793 65.0034 37.4927 65.0034 37.0972V36.6753Z" fill="#333333"/>
	<path d="M37.3271 11.5356C36.8439 11.3465 36.2119 11.2899 35.5242 11.2899H31.6951V10.0798H38.2751V8H29V17H35.2826C36.1562 17 36.8065 16.9244 37.29 16.7352C38.3123 16.3381 39 15.3739 39 14.1071C39 12.8215 38.3494 11.9327 37.3271 11.5356ZM35.9888 14.6554C35.8402 14.7122 35.6357 14.731 35.3754 14.731H31.6951V13.294H35.3754C35.6729 13.294 35.9144 13.3131 36.1004 13.4075C36.3234 13.521 36.435 13.729 36.435 13.9936C36.435 14.2583 36.3049 14.542 35.9888 14.6554Z" fill="#333333"/>
	<path d="M47.1129 8H42.887L39 17H42.2691L42.8073 15.6953H47.1926L47.7508 17H51L47.1129 8ZM43.5248 13.71L44.9004 10.0798H45.1196L46.495 13.71H43.5248Z" fill="#333333"/>
	<path d="M54.7724 13.6534V17H52V8H54.7724V11.29H59.2275V8H62V17H59.2275V13.6534H54.7724Z" fill="#333333"/>
	<path d="M65.8948 13.5967V17H63V8H65.8948V11.3845H66.6933L70.187 8H73.8202L69.1887 12.3109L74 17H70.1469L66.6933 13.5967H65.8948Z" fill="#333333"/>
	<path d="M1 3H23V13.1887C23 15.9928 21.4869 18.5842 19.0306 19.9864L12.0001 24L4.96945 19.9864C2.51312 18.5842 1 15.9928 1 13.1887L1 3Z" fill="white"/>
	<path fill-rule="evenodd" clip-rule="evenodd" d="M7 8V11.3777C7.47415 10.8561 8.33627 10.5031 9.322 10.5031H10.3932V14.4296C10.3932 15.4742 10.1018 16.4971 9.66946 17H14.3289C13.8975 16.4965 13.6068 15.4749 13.6068 14.4316V10.5031H14.6781C15.6638 10.5031 16.5258 10.8561 17 11.3777V8H7Z" fill="#333333"/>
</svg>
