<svg width="75" height="26" viewBox="0 0 75 26" fill="none" xmlns="http://www.w3.org/2000/svg">
	<path d="M37.3271 11.5356C36.8439 11.3465 36.2119 11.2899 35.5242 11.2899H31.6951V10.0798H38.2751V8H29V17H35.2826C36.1562 17 36.8065 16.9244 37.29 16.7352C38.3123 16.3381 39 15.3739 39 14.1071C39 12.8215 38.3494 11.9327 37.3271 11.5356ZM35.9888 14.6554C35.8402 14.7122 35.6357 14.731 35.3754 14.731H31.6951V13.294H35.3754C35.6729 13.294 35.9144 13.3131 36.1004 13.4075C36.3234 13.521 36.435 13.729 36.435 13.9936C36.435 14.2583 36.3049 14.542 35.9888 14.6554Z" fill="#333333"/>
	<path d="M47.1129 8H42.887L39 17H42.2691L42.8073 15.6953H47.1926L47.7508 17H51L47.1129 8ZM43.5248 13.71L44.9004 10.0798H45.1196L46.495 13.71H43.5248Z" fill="#333333"/>
	<path d="M54.7724 13.6534V17H52V8H54.7724V11.29H59.2275V8H62V17H59.2275V13.6534H54.7724Z" fill="#333333"/>
	<path d="M65.8948 13.5967V17H63V8H65.8948V11.3845H66.6933L70.187 8H73.8202L69.1887 12.3109L74 17H70.1469L66.6933 13.5967H65.8948Z" fill="#333333"/>
	<path d="M1 3H23V13.1887C23 15.9929 21.4869 18.5842 19.0306 19.9864L12.0001 24L4.96945 19.9864C2.51312 18.5842 1 15.9929 1 13.1887L1 3Z" fill="#FFDD2D"/>
	<path fill-rule="evenodd" clip-rule="evenodd" d="M7 8V11.3777C7.47415 10.8561 8.33627 10.5031 9.322 10.5031H10.3932V14.4296C10.3932 15.4742 10.1018 16.4971 9.66946 17H14.3289C13.8975 16.4965 13.6068 15.4749 13.6068 14.4316V10.5031H14.6781C15.6638 10.5031 16.5258 10.8561 17 11.3777V8H7Z" fill="#333333"/>
</svg>
