<svg width="18" height="19" viewBox="0 0 18 19" fill="none" xmlns="http://www.w3.org/2000/svg">
<g opacity="0.7">
<path fill-rule="evenodd" clip-rule="evenodd" d="M9.30377 3.69534C9.53199 3.69321 9.73115 3.83682 9.80038 4.0437L9.81851 4.11489L9.93879 4.78561C10.6691 4.92206 11.3488 5.22018 11.9315 5.64542L12.5084 5.28243C12.6974 5.16292 12.9402 5.17864 13.1117 5.3131L13.1725 5.36905L13.6437 5.87931C13.7948 6.04337 13.8194 6.28079 13.7121 6.46803L13.6657 6.53565L13.2323 7.07258C13.4893 7.5058 13.6798 7.98512 13.7884 8.49908L14.4784 8.60534C14.7037 8.63958 14.8759 8.81319 14.91 9.02879L14.9162 9.10208L14.9226 9.7906C14.9247 10.0143 14.7784 10.2097 14.5672 10.2776L14.4945 10.2954L13.8066 10.4146C13.6886 11.0253 13.4497 11.6004 13.1123 12.111L13.5373 12.6839C13.6709 12.8621 13.6687 13.1007 13.5421 13.2758L13.4889 13.3383L12.9967 13.8299C12.8388 13.9879 12.5982 14.0254 12.4017 13.9317L12.3303 13.8903L11.7357 13.4822C11.4161 13.692 11.0683 13.8661 10.6975 13.9979C10.4744 14.0772 10.251 14.1403 10.0285 14.1879L9.91876 14.872C9.88375 15.0926 9.70663 15.2618 9.48669 15.2951L9.41193 15.3011L8.70909 15.3076C8.48133 15.3097 8.28164 15.1661 8.21297 14.9592L8.19506 14.888L8.07463 14.2198C7.35762 14.0882 6.68898 13.8008 6.11252 13.3903L5.52973 13.7567C5.34072 13.8759 5.09781 13.8607 4.9262 13.7262L4.86543 13.6701L4.39461 13.1599C4.24343 12.9959 4.21931 12.7584 4.32631 12.5713L4.37259 12.5037L4.79582 11.9799C4.52363 11.5338 4.32253 11.0374 4.2098 10.5037L3.52201 10.3977C3.29734 10.3635 3.12462 10.1899 3.09063 9.97425L3.08456 9.90095L3.07815 9.21243C3.07606 8.98867 3.22291 8.79334 3.43373 8.7254L3.50626 8.70761L4.20184 8.58707C4.33018 8.0257 4.58951 7.46037 4.93826 6.94473L4.50103 6.35591C4.36847 6.17801 4.36984 5.93937 4.49636 5.76385L4.54964 5.70123L5.04163 5.20946C5.19963 5.05199 5.44009 5.01463 5.63687 5.10804L5.70837 5.14921L6.28628 5.54559C6.60846 5.3146 6.95034 5.12932 7.30016 5.00493C7.52867 4.92367 7.75741 4.85945 7.98522 4.81143L8.0948 4.13095C8.12898 3.91035 8.30662 3.7412 8.52629 3.70785L8.60093 3.70189L9.30377 3.69534ZM8.74 12.3915C7.71206 12.3197 6.57308 11.4725 6.22638 10.5218C5.49325 8.51122 7.0833 6.45911 9.25758 6.61068C10.398 6.69017 11.3869 7.42575 11.7715 8.48053C12.5047 10.4916 10.9139 12.5434 8.74 12.3915Z" fill="#D5D7DB"/>
</g>
</svg>
