<svg width="29" height="28" viewBox="0 0 29 28" fill="none" xmlns="http://www.w3.org/2000/svg">
<path opacity="0.9" fill-rule="evenodd" clip-rule="evenodd" d="M4.05803 6.53655C3.68899 6.9056 3.68899 7.50394 4.05803 7.87298L17.7052 21.5202C18.0743 21.8892 18.6726 21.8892 19.0417 21.5202C19.4107 21.1511 19.4107 20.5528 19.0417 20.1837L5.39447 6.53655C5.02542 6.1675 4.42708 6.1675 4.05803 6.53655ZM4.82406 17.4992V11.3171L13.3395 19.8325H7.1574C5.86873 19.8325 4.82406 18.7879 4.82406 17.4992ZM18.8241 10.4992V17.4075L9.5824 8.16587H16.4907C17.7794 8.16587 18.8241 9.21053 18.8241 10.4992ZM24.6574 10.0655C24.6574 9.72405 24.3027 9.49821 23.9933 9.64271L20.2599 11.3863C20.0957 11.463 19.9907 11.6279 19.9907 11.8092V16.4351C19.9907 16.6243 20.105 16.7948 20.28 16.8667L24.0133 18.4011C24.3204 18.5274 24.6574 18.3016 24.6574 17.9695V10.0655Z" fill="white"/>
</svg>
