<svg width="28" height="28" viewBox="0 0 28 28" fill="none" xmlns="http://www.w3.org/2000/svg">
<path opacity="0.9" fill-rule="evenodd" clip-rule="evenodd" d="M10.8715 14.0281V13.721L14.2277 17.0255C14.1298 17.0348 14.0305 17.0396 13.9301 17.0396C12.2409 17.0396 10.8715 15.6913 10.8715 14.0281ZM13.9434 18.9296C14.6695 18.9296 15.3078 18.8297 15.8675 18.6401L17.5704 20.3168C16.8596 20.6784 16.0478 20.9384 15.1372 21.0603L15.1363 22.5124L15.6222 22.5128C16.1803 22.5128 16.6328 22.9583 16.6328 23.5078C16.6328 24.0573 16.1803 24.5028 15.6222 24.5028H12.2408C11.6826 24.5028 11.2302 24.0573 11.2302 23.5078C11.2302 22.9583 11.6826 22.5128 12.2408 22.5128L12.7251 22.5124L12.725 21.0594C8.6707 20.5203 6.59816 17.3093 6.62966 14.4374C6.63635 13.8276 7.14385 13.3386 7.76319 13.3451C8.34125 13.3513 8.81243 13.787 8.86724 14.3409L8.8725 14.4613C8.86622 15.0341 9.19119 16.1341 9.79094 16.9896C10.652 18.2179 11.9758 18.9296 13.9434 18.9296ZM19.0681 14.0445L21.05 15.9959C21.1827 15.4694 21.2441 14.9395 21.233 14.4259C21.2199 13.8162 20.7072 13.3324 20.088 13.3454C19.6223 13.3551 19.229 13.643 19.0681 14.0445ZM11.2078 6.3052L16.9887 11.9971V7.67948C16.9887 6.01627 15.6193 4.66797 13.9301 4.66797C12.7437 4.66797 11.7151 5.33305 11.2078 6.3052ZM6.46229 5.50681C6.0907 5.87268 6.0907 6.46587 6.46229 6.83174L20.8926 21.0398C21.2642 21.4057 21.8666 21.4057 22.2382 21.0398C22.6098 20.674 22.6098 20.0808 22.2382 19.7149L7.80794 5.50681C7.43635 5.14094 6.83388 5.14094 6.46229 5.50681Z" fill="white"/>
</svg>
