<svg width="22" height="22" viewBox="0 0 22 22" fill="none" xmlns="http://www.w3.org/2000/svg">
<path d="M9.63232 7.35152C9.63232 7.16743 9.48309 7.01819 9.29899 7.01819H7.00008C6.2637 7.01819 5.66675 7.61514 5.66675 8.35152V13.642C5.66675 14.3784 6.2637 14.9753 7.00008 14.9753H9.42592L8.71113 15.8305C8.56602 16.0041 8.68947 16.2682 8.91574 16.2682H13.0634C13.2897 16.2682 13.4131 16.0041 13.268 15.8305L12.5532 14.9753H14.979C15.7154 14.9753 16.3123 14.3784 16.3123 13.642V13.2806C16.3123 13.0965 16.1631 12.9472 15.979 12.9472H15.2225C15.0658 12.9472 14.9387 13.0743 14.9387 13.231C14.9387 13.4151 14.7895 13.5643 14.6054 13.5643H7.3737C7.1896 13.5643 7.04036 13.4151 7.04036 13.231V8.76233C7.04036 8.57823 7.1896 8.429 7.3737 8.429H9.29899C9.48309 8.429 9.63232 8.27976 9.63232 8.09566V7.35152Z" fill="white"/>
<path d="M15.979 11.7669C16.1631 11.7669 16.3123 11.6176 16.3123 11.4336V8.35152C16.3123 7.61514 15.7154 7.01819 14.979 7.01819H11.5334C11.3493 7.01819 11.2001 7.16743 11.2001 7.35152V8.09566C11.2001 8.27976 11.3493 8.429 11.5334 8.429H13.7117L11.3316 10.809C11.2014 10.9392 11.2014 11.1503 11.3316 11.2804L11.9567 11.9055C12.0869 12.0357 12.2979 12.0357 12.4281 11.9055L14.9387 9.39491V11.4336C14.9387 11.6176 15.088 11.7669 15.2721 11.7669H15.979Z" fill="white"/>
</svg>
