<svg width="22" height="22" viewBox="0 0 22 22" fill="none" xmlns="http://www.w3.org/2000/svg">
<path fill-rule="evenodd" clip-rule="evenodd" d="M5.22872 6.73665C5.01784 6.94753 5.01784 7.28944 5.22872 7.50033L13.0271 15.2987C13.238 15.5096 13.5799 15.5096 13.7908 15.2987C14.0017 15.0878 14.0017 14.7459 13.7908 14.535L5.99239 6.73665C5.78151 6.52577 5.4396 6.52577 5.22872 6.73665ZM5.66671 13V9.46741L10.5326 14.3333H7.00004C6.26366 14.3333 5.66671 13.7364 5.66671 13ZM13.6667 9V12.9477L8.3857 7.66667H12.3334C13.0698 7.66667 13.6667 8.26362 13.6667 9ZM17 8.75219C17 8.55706 16.7973 8.42801 16.6205 8.51058L14.4872 9.50693C14.3933 9.55076 14.3334 9.64497 14.3334 9.74855V12.3919C14.3334 12.5001 14.3987 12.5975 14.4987 12.6386L16.632 13.5154C16.8075 13.5875 17 13.4585 17 13.2688V8.75219Z" fill="#F1F4F6"/>
</svg>
