<svg width="22" height="22" viewBox="0 0 22 22" fill="none" xmlns="http://www.w3.org/2000/svg">
<path fill-rule="evenodd" clip-rule="evenodd" d="M5.66675 9.4668L5.66675 13.642C5.66675 14.3784 6.2637 14.9754 7.00008 14.9754H9.42592L8.71113 15.8305C8.56602 16.0042 8.68947 16.2682 8.91574 16.2682H12.4682L9.76429 13.5643H7.3737C7.1896 13.5643 7.04036 13.4151 7.04036 13.231L7.04036 10.8404L5.66675 9.4668ZM12.5267 11.807L11.4302 10.7105L13.7117 8.42904H11.5334C11.3493 8.42904 11.2001 8.2798 11.2001 8.0957V7.35156C11.2001 7.16747 11.3493 7.01823 11.5334 7.01823H14.979C15.7154 7.01823 16.3123 7.61518 16.3123 8.35156V11.4336C16.3123 11.6177 16.1631 11.7669 15.979 11.7669H15.2721C15.088 11.7669 14.9387 11.6177 14.9387 11.4336V9.39495L12.5267 11.807ZM14.284 13.5643L15.5615 14.8418C16.006 14.6256 16.3123 14.1696 16.3123 13.642V13.2806C16.3123 13.0965 16.1631 12.9473 15.979 12.9473H15.2225C15.0658 12.9473 14.9387 13.0743 14.9387 13.231C14.9387 13.4151 14.7895 13.5643 14.6054 13.5643H14.284ZM9.14872 8.42904L7.73792 7.01823L9.29899 7.01823C9.48309 7.01823 9.63232 7.16747 9.63232 7.35156V8.0957C9.63232 8.2798 9.48309 8.42904 9.29899 8.42904H9.14872Z" fill="#F1F4F6"/>
<rect x="4.84644" y="7.11849" width="1.08" height="14.0358" rx="0.54" transform="rotate(-45 4.84644 7.11849)" fill="#F1F4F6"/>
</svg>
