<svg width="28" height="28" viewBox="0 0 28 28" fill="none" xmlns="http://www.w3.org/2000/svg">
<circle cx="14" cy="14" r="14" fill="white" fill-opacity="0.15"/>
<circle cx="14" cy="14" r="13.5" stroke="white" stroke-opacity="0.23"/>
<path fill-rule="evenodd" clip-rule="evenodd" d="M13.9882 6.2793C14.4399 6.2793 14.8185 6.58889 14.9191 7.0053L14.919 12.9702C14.919 13.0684 14.9978 13.1484 15.0963 13.1517L15.1026 13.1518H15.1812C15.2805 13.1518 15.3613 13.0739 15.3647 12.9765L15.3648 12.9702L15.3648 8.69478C15.509 8.37097 15.8363 8.14493 16.2169 8.14493C16.6552 8.14493 17.0227 8.44455 17.1216 8.84803L17.1216 13.9301C17.1216 14.0283 17.2003 14.1083 17.2988 14.1116L17.3051 14.1117H17.3838C17.483 14.1117 17.5639 14.0337 17.5672 13.9363L17.5673 13.9301V11.2582C17.5673 10.8212 17.9254 10.467 18.367 10.467C18.8087 10.467 19.0811 10.8212 19.0811 11.2582V13.5928C19.0811 13.5928 19.0709 15.2507 18.986 16.0397C18.901 16.8286 18.5884 18.922 17.4062 20.7614C17.3453 20.8562 17.2409 20.9145 17.1278 20.9175L17.1186 20.9177H11.8654C11.7607 20.9177 11.662 20.8701 11.5974 20.7889L11.5917 20.7814L7.70252 15.5982C7.57845 15.4328 7.60608 15.2005 7.76553 15.0681C7.95253 14.9129 8.14794 14.8204 8.35177 14.7905L8.45671 14.7751C8.84682 14.7188 9.10879 14.7012 9.65207 15.0185C10.0408 15.2455 10.394 15.6525 10.7117 16.2394L10.7237 16.2618L10.7237 8.67675C10.7237 8.15379 11.1522 7.72985 11.6808 7.72985H11.707C12.1587 7.72985 12.5373 8.03944 12.6379 8.45585L12.6378 12.5551C12.6378 12.6533 12.7166 12.7333 12.8151 12.7366L12.9 12.7367C12.9993 12.7367 13.0802 12.6588 13.0835 12.5614L13.0836 12.5551L13.0836 6.8497C13.2307 6.51406 13.5686 6.2793 13.962 6.2793H13.9882Z" fill="#EDEEF0"/>
</svg>
