<svg width="24" height="24" viewBox="0 0 24 24" fill="none" xmlns="http://www.w3.org/2000/svg">
<g opacity="0.5">
<path fill-rule="evenodd" clip-rule="evenodd" d="M3.34271 5.60443C3.02639 5.92076 3.02639 6.43362 3.34271 6.74994L15.0403 18.4475C15.3566 18.7639 15.8695 18.7639 16.1858 18.4475C16.5021 18.1312 16.5021 17.6183 16.1858 17.302L4.48823 5.60443C4.1719 5.28811 3.65904 5.28811 3.34271 5.60443ZM3.99969 14.9995V9.70057L11.2986 16.9995H5.99969C4.89512 16.9995 3.99969 16.104 3.99969 14.9995ZM15.9997 8.99945V14.921L8.07818 6.99945H13.9997C15.1043 6.99945 15.9997 7.89488 15.9997 8.99945ZM20.9997 8.62774C20.9997 8.33504 20.6956 8.14146 20.4304 8.26532L17.2304 9.75985C17.0897 9.8256 16.9997 9.96691 16.9997 10.1223V14.0873C16.9997 14.2495 17.0976 14.3957 17.2476 14.4573L20.4476 15.7726C20.7109 15.8807 20.9997 15.6872 20.9997 15.4026V8.62774Z" fill="#F1F4F6"/>
</g>
</svg>
