<svg width="29" height="29" viewBox="0 0 29 29" fill="none" xmlns="http://www.w3.org/2000/svg">
<path fill-rule="evenodd" clip-rule="evenodd" d="M5.16602 12.1073L5.16602 19.4139C5.16602 20.7026 6.21068 21.7473 7.49935 21.7473H11.7446L10.4937 23.2438C10.2397 23.5476 10.4558 24.0098 10.8518 24.0098H17.0685L12.3367 19.278H8.15318C7.83101 19.278 7.56984 19.0168 7.56984 18.6946L7.56984 14.5111L5.16602 12.1073ZM17.1709 16.2026L15.252 14.2837L19.2446 10.2912H15.4327C15.1105 10.2912 14.8493 10.03 14.8493 9.70784V8.4056C14.8493 8.08343 15.1105 7.82227 15.4327 7.82227L21.4625 7.82227C22.7511 7.82227 23.7958 8.86693 23.7958 10.1556V15.5492C23.7958 15.8713 23.5346 16.1325 23.2125 16.1325H21.9753C21.6531 16.1325 21.392 15.8713 21.392 15.5492V11.9815L17.1709 16.2026ZM20.2463 19.278L22.4818 21.5135C23.2597 21.1351 23.7958 20.3371 23.7958 19.4139V18.7814C23.7958 18.4592 23.5346 18.1981 23.2125 18.1981H21.8885C21.6143 18.1981 21.392 18.4204 21.392 18.6946C21.392 19.0168 21.1308 19.278 20.8086 19.278H20.2463ZM11.2595 10.2912L8.79056 7.82227L11.5224 7.82227C11.8446 7.82227 12.1058 8.08343 12.1058 8.4056V9.70784C12.1058 10.03 11.8446 10.2912 11.5224 10.2912H11.2595Z" fill="white"/>
<rect x="3.73047" y="7.99805" width="1.89" height="24.5626" rx="0.945" transform="rotate(-45 3.73047 7.99805)" fill="white"/>
</svg>
