<svg width="121" height="120" viewBox="0 0 121 120" fill="none" xmlns="http://www.w3.org/2000/svg">
	<path d="M10.5 25.9835C10.5 19.6089 15.496 14.7002 21.5839 15.0143L70.0656 17.509C75.4026 17.7842 79.6746 22.7558 79.6746 28.6158V78.4962C79.6746 84.3562 75.3996 89.2739 70.0656 89.4773L21.5839 91.3409C15.499 91.5742 10.5 86.5997 10.5 80.2252L10.5 25.9835Z" fill="#C5E7FE" fill-opacity="0.8"/>
	<path d="M21.5452 15.7633L21.5453 15.7633L70.027 18.258C70.027 18.258 70.0271 18.258 70.0271 18.258C74.9017 18.5095 78.9246 23.088 78.9246 28.6158V78.4962C78.9246 84.0221 74.9027 88.5423 70.037 88.7279L70.0368 88.7279L21.5551 90.5915C15.9231 90.8074 11.25 86.2024 11.25 80.2252V25.9835C11.25 20.0098 15.9141 15.4728 21.5452 15.7633Z" stroke="white" stroke-opacity="0.24" stroke-width="1.5"/>
	<path fill-rule="evenodd" clip-rule="evenodd" d="M56.1353 48.7544C56.1353 48.5847 56.1515 48.4182 56.187 48.2549C56.4163 47.1566 57.3433 46.513 58.2541 46.814L66.0833 49.3916C66.8197 49.635 67.3365 50.4547 67.3365 51.3832V70.0187L69.5878 69.9963C69.8558 69.9963 70.0722 70.2492 70.0722 70.5694V76.1184C70.0722 76.4386 69.8558 76.7012 69.5878 76.7076L23.646 77.6938C23.3359 77.7002 23.084 77.4249 23.084 77.0822V71.101C23.084 70.7551 23.3359 70.4734 23.646 70.4702L26.2331 70.4446V35.5975C26.2331 33.8333 27.3474 32.3828 28.8558 32.1746L49.9113 29.2608C50.0664 29.2384 50.2214 29.232 50.3764 29.2416C51.9785 29.3313 53.2672 30.9451 53.2672 32.8502V70.1628L56.1321 70.134V48.7512L56.1353 48.7544ZM39.4724 69.9611V59.1352L34.0333 59.0968V70.0155L39.4724 69.9611ZM47.5858 59.196L42.2856 59.1576V65.3182L47.5858 65.3054V59.196ZM64.0937 59.0167L59.0713 58.9783V64.9724L64.0937 64.9628V59.0167ZM47.5858 40.567L42.2856 40.3717V46.5323L47.5858 46.6763V40.567ZM39.4691 40.266L34.03 40.0643V46.3049L39.4691 46.4522V40.266ZM47.5858 49.8815L42.2856 49.763V55.9236L47.5858 55.9877V49.8815ZM39.4724 49.7022L34.0333 49.5805V55.8212L39.4724 55.8884V49.7022Z" fill="white" fill-opacity="0.9"/>
	<path fill-rule="evenodd" clip-rule="evenodd" d="M56.1353 48.7544C56.1353 48.5847 56.1515 48.4182 56.187 48.2549C56.4163 47.1566 57.3433 46.513 58.2541 46.814L66.0833 49.3916C66.8197 49.635 67.3365 50.4547 67.3365 51.3832V70.0187L69.5878 69.9963C69.8558 69.9963 70.0722 70.2492 70.0722 70.5694V76.1184C70.0722 76.4386 69.8558 76.7012 69.5878 76.7076L23.646 77.6938C23.3359 77.7002 23.084 77.4249 23.084 77.0822V71.101C23.084 70.7551 23.3359 70.4734 23.646 70.4702L26.2331 70.4446V35.5975C26.2331 33.8333 27.3474 32.3828 28.8558 32.1746L49.9113 29.2608C50.0664 29.2384 50.2214 29.232 50.3764 29.2416C51.9785 29.3313 53.2672 30.9451 53.2672 32.8502V70.1628L56.1321 70.134V48.7512L56.1353 48.7544ZM39.4724 69.9611V59.1352L34.0333 59.0968V70.0155L39.4724 69.9611ZM47.5858 59.196L42.2856 59.1576V65.3182L47.5858 65.3054V59.196ZM64.0937 59.0167L59.0713 58.9783V64.9724L64.0937 64.9628V59.0167ZM47.5858 40.567L42.2856 40.3717V46.5323L47.5858 46.6763V40.567ZM39.4691 40.266L34.03 40.0643V46.3049L39.4691 46.4522V40.266ZM47.5858 49.8815L42.2856 49.763V55.9236L47.5858 55.9877V49.8815ZM39.4724 49.7022L34.0333 49.5805V55.8212L39.4724 55.8884V49.7022Z" fill="#82C0FF"/>
	<path d="M69.0039 69.0609C69.0039 63.1351 73.3268 58.331 78.595 58.334L99.8054 58.343C104.73 58.343 108.675 62.9137 108.675 68.5464V93.0244C108.675 98.6571 104.73 103.455 99.8054 103.742L78.595 104.984C73.3268 105.292 69.0039 100.742 69.0039 94.8132V69.0579V69.0609Z" fill="#FAA72C" fill-opacity="0.78"/>
	<path d="M78.5945 59.084H78.5946L99.805 59.093H99.8054C104.219 59.093 107.925 63.2242 107.925 68.5464V93.0244C107.925 98.3535 104.202 102.735 99.7617 102.994L99.7615 102.994L78.5512 104.235C73.7948 104.513 69.7539 100.396 69.7539 94.8132V69.0609C69.7539 63.4693 73.8165 59.0813 78.5945 59.084Z" stroke="white" stroke-opacity="0.18" stroke-width="1.5"/>
	<path fill-rule="evenodd" clip-rule="evenodd" d="M87.0312 70.4314V84.3261C87.0312 85.9504 88.6706 86.8538 89.6788 86.8179C90.687 86.782 92.2845 85.726 92.2845 84.1227V70.3237C92.2845 68.9477 91.0818 67.7332 89.6249 67.7512C88.168 67.7691 87.0342 69.0943 87.0342 70.4344L87.0312 70.4314ZM89.6668 96.0611C91.1925 95.9893 92.4251 94.5295 92.4251 92.8005C92.4251 91.0715 91.1925 89.7195 89.6668 89.7823C88.1411 89.8451 86.8906 91.3049 86.8906 93.0458C86.8906 94.7868 88.1351 96.1359 89.6668 96.0641V96.0611Z" fill="white"/>
</svg>
