<svg width="372" height="135" viewBox="0 0 372 135" fill="none" xmlns="http://www.w3.org/2000/svg">
<g opacity="0.52">
<path d="M85.446 7.231L88.2489 15.0486L85.8938 15.741L83.0909 7.92334L85.446 7.231Z" fill="#B6D40C"/>
<path d="M66.8046 23.4008L61.6484 35.0079L57.776 33.9798L62.9321 22.3726L66.8046 23.4008Z" fill="#F5CD0B"/>
<path d="M40.2838 9.05411L45.872 20.6892L42.5145 21.6681L36.9263 10.033L40.2838 9.05411Z" fill="#F169B3"/>
<path d="M34.882 54.4979L30.3047 64.2565L27.7557 62.6236L32.333 52.865L34.882 54.4979Z" fill="#2DBEEC"/>
<path d="M26.2349 21.8631L24.1744 33.1563L20.7998 32.2764L22.8613 20.9834L26.2349 21.8631Z" fill="#29B54B"/>
<path d="M76.3174 38.0585L86.3203 41.4498L84.9678 44.3432L74.9649 40.9519L76.3174 38.0585Z" fill="#B6D40C"/>
<path d="M108.056 30.4694L111.798 38.6806L109.209 39.5307L105.467 31.3195L108.056 30.4694Z" fill="#2DBEEC"/>
<path d="M193.837 19.9632L203.84 23.3545L202.488 26.2479L192.485 22.8566L193.837 19.9632Z" fill="#B6D40C"/>
<path d="M65.1275 69.7619L72.2011 84.5136L67.7806 87.6237L60.7068 72.872L65.1275 69.7619Z" fill="#F5CD0B"/>
<path d="M33.5381 84.4513L48.3526 88.398L46.7218 92.2014L31.9073 88.2548L33.5381 84.4513Z" fill="#F169B3"/>
<path d="M52.1815 119.728L40.3523 126.659L38.601 122.892L50.4302 115.962L52.1815 119.728Z" fill="#2DBEEC"/>
<path d="M142.581 20.2047L130.752 27.135L129.001 23.3682L140.83 16.4378L142.581 20.2047Z" fill="#2DBEEC"/>
<path d="M15.9817 91.0322L24.8844 101.897L21.5807 104.254L12.679 93.3888L15.9817 91.0322Z" fill="#29B54B"/>
<path d="M13.578 124.515L12.5787 134.235L10.0458 133.502L11.0452 123.783L13.578 124.515Z" fill="#1DCEC4"/>
<path d="M323.662 18.2124L329.99 26.6756L327.239 28.2946L320.911 19.8314L323.662 18.2124Z" fill="#B6D40C"/>
<path d="M251.429 2.80934L253.943 18.9782L248.813 20.6769L246.3 4.50791L251.429 2.80934Z" fill="#F5CD0B"/>
<path d="M215.681 5.79383L228.724 13.8577L226.065 17.0272L213.022 8.96326L215.681 5.79383Z" fill="#F169B3"/>
<path d="M279.337 32.8123L281.069 46.4214L276.92 46.5565L275.188 32.9473L279.337 32.8123Z" fill="#2DBEEC"/>
<path d="M109.011 10.2666L103.157 23.0388L99.5918 21.1002L105.447 8.3287L109.011 10.2666Z" fill="#29B54B"/>
<path d="M58.1336 51.331L58.7197 61.084L56.1016 60.771L55.5156 51.0181L58.1336 51.331Z" fill="#1DCEC4"/>
<path d="M89.7647 59.1954L81.5041 64.4024L80.5186 61.9548L88.7791 56.7479L89.7647 59.1954Z" fill="#F169B3"/>
<path d="M244.402 37.2383L239.775 28.6346L242.282 27.8175L246.909 36.4212L244.402 37.2383Z" fill="#B6D40C"/>
<path d="M157.239 30.8751L168.515 29.8609L168.243 32.9091L156.966 33.9232L157.239 30.8751Z" fill="#F5CD0B"/>
<path d="M371.646 91.9117L369.422 102.248L366.396 101.233L368.62 90.8971L371.646 91.9117Z" fill="#B6D40C"/>
<path d="M357.054 89.1136L345.298 96.5256L342.247 93.0908L354.002 85.6786L357.054 89.1136Z" fill="#F5CD0B"/>
<path d="M348.008 53.1527L342.172 65.2633L339.173 63.2323L345.008 51.1216L348.008 53.1527Z" fill="#F169B3"/>
<path d="M307.172 62.5583L297.742 68.1452L296.328 65.1392L305.758 59.5523L307.172 62.5583Z" fill="#1DCEC4"/>
<path d="M312.184 31.0694L302.419 41.1649L299.703 38.1485L309.469 28.0539L312.184 31.0694Z" fill="#29B54B"/>
<path d="M265.32 18.2244L259.776 31.1336L256.166 29.2799L261.711 16.3712L265.32 18.2244Z" fill="#F169B3"/>
<path d="M223.279 15.6214L224.784 26.5389L221.609 26.7584L220.105 15.8408L223.279 15.6214Z" fill="#2DBEEC"/>
<path d="M169.449 0.344026L175.058 13.2249L171.237 14.59L165.629 1.70868L169.449 0.344026Z" fill="#1DCEC4"/>
<path d="M281.074 15.6004L271.315 15.717L271.753 13.1141L281.512 12.9976L281.074 15.6004Z" fill="#1DCEC4"/>
<path d="M338.206 32.3627L348.704 31.2108L348.699 34.4052L338.2 35.557L338.206 32.3627Z" fill="#B6D40C"/>
<path d="M330.684 4.8797L343.318 15.2636L340.622 19.9505L327.989 9.56657L330.684 4.8797Z" fill="#F5CD0B"/>
<path d="M314.864 80.3436L325.442 78.4645L325.53 81.3637L314.952 83.2428L314.864 80.3436Z" fill="#F169B3"/>
<path d="M321.004 100.06L321.178 110.128L318.14 109.894L317.966 99.8258L321.004 100.06Z" fill="#2DBEEC"/>
<path d="M347.238 120.73L359.891 126.817L357.89 130.35L345.238 124.262L347.238 120.73Z" fill="#29B54B"/>
<path d="M299.961 5.30368L303.154 14.5369L300.549 14.9427L297.356 5.70954L299.961 5.30368Z" fill="#1DCEC4"/>
</g>
</svg>
