<svg width="97" height="96" viewBox="0 0 97 96" fill="none" xmlns="http://www.w3.org/2000/svg">
	<path d="M4.93029 18.1163C4.93029 11.1304 10.8743 5.62116 17.8401 6.15082L49.9632 8.59337C56.2196 9.06909 61.0534 14.2843 61.0534 20.5588V56.3243C61.0534 62.7594 55.9774 68.049 49.5477 68.3141L17.4247 69.6386C10.6091 69.9197 4.93029 64.4702 4.93029 57.6488V18.1163Z" fill="#FF9800" fill-opacity="0.78"/>
	<path d="M17.8022 6.64938L49.9253 9.09193C55.921 9.54783 60.5534 14.5458 60.5534 20.5588V56.3243C60.5534 62.4913 55.6889 67.5605 49.5271 67.8145L17.4041 69.1391C10.8725 69.4084 5.43029 64.186 5.43029 57.6488V18.1163C5.43029 11.4214 11.1266 6.14179 17.8022 6.64938Z" stroke="black" stroke-opacity="0.18"/>
	<path d="M52.1923 53.8479C52.1923 49.4358 55.7644 45.8566 60.1765 45.8479L84.0534 45.8006C88.4778 45.7918 92.0692 49.3761 92.0692 53.8005V80.6152C92.0692 84.7507 88.9173 88.2046 84.7991 88.5819L60.9222 90.7695C56.2353 91.1989 52.1923 87.5093 52.1923 82.8028V53.8479Z" fill="#0A0A0A" fill-opacity="0.72"/>
	<path d="M60.1774 46.3479L84.0544 46.3006C88.2023 46.2923 91.5692 49.6526 91.5692 53.8005V80.6152C91.5692 84.4922 88.6143 87.7302 84.7535 88.084L60.8766 90.2715C56.4826 90.6741 52.6923 87.2152 52.6923 82.8028V53.8479C52.6923 49.7115 56.0411 46.3561 60.1774 46.3479Z" stroke="black" stroke-opacity="0.4"/>
	<g filter="url(#filter0_d_42_18075)">
		<path fill-rule="evenodd" clip-rule="evenodd" d="M84.6846 67.812C84.6846 74.2155 80.0174 79.8507 73.8046 80.4411C67.0236 81.0861 61.0538 75.5693 61.0538 68.0648C61.0538 60.5603 67.0236 54.916 73.8046 55.4154C80.0174 55.8727 84.6846 61.4078 84.6846 67.812ZM73.8046 60.4202C74.6644 60.4546 75.3541 61.087 75.3541 61.8329V69.0369C75.3541 69.7828 74.6644 70.4068 73.8046 70.4307C72.9347 70.4545 72.2222 69.8564 72.2222 69.0943V61.7362C72.2222 60.9742 72.9347 60.3852 73.8046 60.4195V60.4202ZM72.2222 73.8471C72.2222 72.9156 72.9323 72.1333 73.7991 72.0996H73.8093C74.666 72.066 75.3533 72.7783 75.3533 73.6902C75.3533 74.6021 74.666 75.383 73.8093 75.4355H73.7991C72.9323 75.4894 72.2222 74.7779 72.2222 73.8464V73.8471Z" fill="white" fill-opacity="0.9" shape-rendering="crispEdges"/>
	</g>
	<g filter="url(#filter1_d_42_18075)">
		<path d="M49.4197 20.3147C49.4197 19.0943 48.6105 18.0625 47.6052 18.009C46.5998 17.9556 45.7678 18.9123 45.7678 20.1478V23.3684C41.6434 18.6468 35.438 16.6416 29.4418 18.2945C21.6966 20.4299 17.6637 28.2202 16.7613 36.7485C16.6191 38.0975 17.4921 39.3013 18.705 39.4366C19.9082 39.5718 20.9904 38.6001 21.1293 37.2694C21.8813 30.0535 25.0821 24.4703 30.5616 22.8742C35.2516 21.5068 40.0544 23.0345 43.2307 26.5891L40.2996 26.5189C39.2371 26.4939 38.369 27.499 38.369 28.7645C38.369 30.0301 39.2354 31.0636 40.2996 31.0736L47.6052 31.1387C48.3621 31.1454 49.0078 30.5911 49.2808 29.7963C49.3707 29.5342 49.4214 29.247 49.4214 28.9448V20.3164L49.4197 20.3147Z" fill="white" fill-opacity="0.9" shape-rendering="crispEdges"/>
		<path d="M18.3537 47.2585C18.3537 45.9095 19.3378 44.7825 20.5458 44.7408L28.8289 44.4586C29.9667 44.4202 30.8821 45.4404 30.8821 46.7376C30.8821 48.0349 29.9667 49.1318 28.8289 49.1869L25.6151 49.3455C29.1019 52.7398 34.0813 53.7816 38.6536 51.9801C43.6836 49.9967 46.4675 44.6089 47.1067 37.9556C47.2244 36.7334 48.13 35.8519 49.1256 35.9871C50.1211 36.1224 50.8175 37.2076 50.7031 38.4147C49.974 46.0932 46.6212 53.4744 39.7063 56.3077C33.8884 58.6919 27.3675 57.4965 22.7086 53.0136V56.4914C22.7086 57.822 21.7441 58.9774 20.5458 59.0709C19.3476 59.1644 18.3537 58.1493 18.3537 56.8002V47.2585Z" fill="white" fill-opacity="0.9" shape-rendering="crispEdges"/>
	</g>
</svg>
