<svg width="109" height="108" viewBox="0 0 109 108" fill="none" xmlns="http://www.w3.org/2000/svg">
	<path d="M7.73077 20.5078C7.73077 13.3435 13.826 7.69329 20.9698 8.2354L57.8929 11.0373C64.3105 11.5244 69.2692 16.8737 69.2692 23.3098V61.7686C69.2692 68.3651 64.0685 73.7887 57.4778 74.0654L20.5547 75.6155C13.561 75.9091 7.73077 70.3185 7.73077 63.3186V20.5078Z" fill="#404040" fill-opacity="0.68"/>
	<path d="M20.9319 8.73397L57.855 11.5359C64.012 12.0031 68.7692 17.1351 68.7692 23.3098V61.7686C68.7692 68.0971 63.7798 73.3004 57.4568 73.5658L20.5337 75.1159C13.8241 75.3976 8.23077 70.0341 8.23077 63.3186V20.5078C8.23077 13.6345 14.0784 8.21388 20.9319 8.73397Z" stroke="#2A2A2A" stroke-opacity="0.64"/>
	<g filter="url(#filter0_d_66_19)">
		<path fill-rule="evenodd" clip-rule="evenodd" d="M23.4719 45.3848C21.5809 45.365 20.0385 47.0134 20.0385 49.0677V56.5002C20.0385 58.552 21.5809 60.188 23.4719 60.1533L56.456 59.537C58.1009 59.5073 59.4231 57.9456 59.4231 56.0497V49.184C59.4231 47.2881 58.0984 45.7387 56.456 45.7214L23.4719 45.3873V45.3848ZM26.8618 50.3101C25.6191 50.3101 24.607 51.409 24.607 52.7654C24.607 54.1217 25.6191 55.2132 26.8618 55.2008L42.1021 55.0622C43.2654 55.0523 44.2058 53.9856 44.2058 52.6812C44.2058 51.3769 43.2654 50.32 42.1021 50.3176L26.8618 50.3101Z" fill="white" fill-opacity="0.9" shape-rendering="crispEdges"/>
	</g>
	<g filter="url(#filter1_d_66_19)">
		<path fill-rule="evenodd" clip-rule="evenodd" d="M23.4719 23.2353C21.5809 23.1335 20.0385 24.763 20.0385 26.8737V34.5197C20.0385 36.6304 21.5809 38.3796 23.4719 38.4254L56.456 39.23C58.1009 39.2707 59.4231 37.7201 59.4231 35.7698V28.7069C59.4231 26.7566 58.0984 25.1041 56.456 25.015L23.4719 23.2328V23.2353ZM26.8618 28.4472C25.6191 28.3912 24.607 29.4784 24.607 30.8736C24.607 32.2689 25.6191 33.435 26.8618 33.4783L42.1021 34.0003C43.2654 34.041 44.2058 32.9844 44.2058 31.6426C44.2058 30.3008 43.2654 29.1728 42.1021 29.1194L26.8618 28.4472Z" fill="white" fill-opacity="0.9" shape-rendering="crispEdges"/>
	</g>
	<path d="M56.9615 61.5427C56.9615 56.1224 61.3424 51.7215 66.7626 51.6966L91.3779 51.5838C96.8334 51.5588 101.269 55.9743 101.269 61.4298V87.6653C101.269 92.7489 97.3992 96.9967 92.3377 97.4689L67.7223 99.7653C61.9483 100.304 56.9615 95.7608 56.9615 89.9617V61.5427Z" fill="#1B79E6" fill-opacity="0.78"/>
	<path d="M66.7649 52.1966L91.3802 52.0838C96.5587 52.06 100.769 56.2514 100.769 61.4298V87.6653C100.769 92.4907 97.0958 96.5228 92.2912 96.9711L67.6758 99.2675C62.195 99.7788 57.4615 95.4664 57.4615 89.9617V61.5427C57.4615 56.3977 61.6199 52.2202 66.7649 52.1966Z" stroke="#000000" stroke-opacity="0.16"/>
	<path fill-rule="evenodd" clip-rule="evenodd" d="M93.3954 63.2128C94.0477 64.0395 94.0477 65.4145 93.3954 66.2913L78.3538 86.4633C77.6565 87.3985 76.5217 87.4931 75.8191 86.6692L68.5833 78.1879C67.8568 77.3362 67.8568 75.886 68.5833 74.948C69.3072 74.0127 70.4764 73.9487 71.1923 74.8004L77.0891 81.7898L91.0171 63.2963C91.6773 62.4195 92.7405 62.3861 93.3954 63.2156V63.2128Z" fill="white" fill-opacity="0.9"/>
</svg>
