<svg width="109" height="108" viewBox="0 0 109 108" fill="none" xmlns="http://www.w3.org/2000/svg">
	<path d="M72.9616 62.1003C72.9616 69.8964 66.9019 76.3499 59.1212 76.8403L27.1212 78.8569C18.6158 79.3929 11.4231 72.6391 11.4231 64.1169V24.6598C11.4231 15.9658 18.8955 9.15262 27.5525 9.95329L59.5525 12.9129C67.1499 13.6155 72.9616 19.9895 72.9616 27.6193V62.1003Z" fill="#3DADFF" fill-opacity="0.78"/>
	<path d="M59.0898 76.3413L27.0898 78.3578C18.8723 78.8757 11.9231 72.3506 11.9231 64.1169V24.6598C11.9231 16.2601 19.1425 9.67761 27.5064 10.4512L59.5064 13.4108C66.8466 14.0896 72.4616 20.2478 72.4616 27.6193V62.1003C72.4616 69.6325 66.6071 75.8675 59.0898 76.3413Z" stroke="black" stroke-opacity="0.18"/>
	<path d="M97.5769 80.6291C97.5769 88.3119 91.6867 94.7116 84.0302 95.3476L49.5687 98.2101C40.9593 98.9252 33.5769 92.1306 33.5769 83.4916V43.8586C33.5769 35.3455 40.755 28.595 49.2521 29.1172L83.7137 31.2351C91.504 31.7139 97.5769 38.1715 97.5769 45.9765V80.6291Z" fill="#1B79E6" fill-opacity="0.78"/>
	<path d="M83.9889 94.8493L49.5273 97.7118C41.2094 98.4027 34.0769 91.8381 34.0769 83.4916V43.8586C34.0769 35.6337 41.012 29.1117 49.2214 29.6162L83.683 31.7342C91.2096 32.1968 97.0769 38.4358 97.0769 45.9765V80.6291C97.0769 88.0518 91.3861 94.2349 83.9889 94.8493Z" stroke="black" stroke-opacity="0.18"/>
	<g filter="url(#filter0_d_34_4896)">
		<path d="M83.5807 47.7115C82.4986 46.2507 80.1083 46.2498 79.0249 47.7099L61.3378 71.5458L57.5091 66.5285C56.3267 64.979 53.7841 64.9661 52.5823 66.5035C51.8533 67.4361 51.8576 68.6796 52.5929 69.608L58.9322 77.6119C60.0096 78.9722 62.2702 78.9447 63.306 77.5586L83.5745 50.4397C84.1908 49.6151 84.1933 48.5384 83.5807 47.7115Z" fill="white" fill-opacity="0.9" shape-rendering="crispEdges"/>
	</g>
</svg>
