<svg width="20" height="20" viewBox="0 0 20 20" fill="none" xmlns="http://www.w3.org/2000/svg">
	<path fill-rule="evenodd" clip-rule="evenodd" d="M4.96246 4.69653C3.90549 4.69653 3.32561 5.92686 3.99833 6.74211L7.83663 11.3936C7.93519 11.5131 7.98909 11.6631 7.98909 11.8179L7.98909 15.3504C7.98909 15.9085 8.35902 16.3989 8.89561 16.5523L10.727 17.0757C11.3658 17.2582 12.0017 16.7786 12.0017 16.1142V11.8202C12.0017 11.6646 12.0561 11.5139 12.1555 11.3942L16.0166 6.74515C16.6931 5.93061 16.1138 4.69653 15.055 4.69653H4.96246ZM4.89819 5.99957C4.88273 5.98085 4.87925 5.96704 4.87822 5.9571C4.87693 5.94455 4.87901 5.92813 4.88708 5.911C4.89516 5.89388 4.90649 5.88182 4.91699 5.87484C4.92531 5.8693 4.93818 5.8632 4.96246 5.8632H15.055C15.0793 5.8632 15.0922 5.86932 15.1005 5.87486C15.111 5.88186 15.1223 5.89394 15.1304 5.91112C15.1385 5.92831 15.1405 5.94475 15.1392 5.9573C15.1382 5.96722 15.1346 5.98104 15.1191 5.99978L11.258 10.6488C10.9847 10.978 10.8351 11.3923 10.8351 11.8202L10.8351 15.8932L9.21619 15.4305C9.18042 15.4203 9.15576 15.3876 9.15576 15.3504L9.15576 11.8179C9.15576 11.3921 9.00752 10.9795 8.73649 10.6511L4.89819 5.99957Z" fill="#0075FF"/>
</svg>