<svg width="36" height="36" viewBox="0 0 36 36" fill="none" xmlns="http://www.w3.org/2000/svg">
<rect width="36" height="36" rx="18" fill="#207EDE"/>
<path fill-rule="evenodd" clip-rule="evenodd" d="M15.6186 10.9076C14.5141 10.9076 13.6186 11.803 13.6186 12.9076V13.4718H10.8241C10.0262 13.4718 9.37939 14.1186 9.37939 14.9165V17.1669L16.1201 18.2609V17.8771C16.1201 17.4781 16.4435 17.1547 16.8424 17.1547H19.1568C19.5557 17.1547 19.8791 17.4781 19.8791 17.8771V18.261L26.62 17.1669V14.9165C26.62 14.1186 25.9732 13.4718 25.1753 13.4718H22.381V12.9076C22.381 11.803 21.4855 10.9076 20.381 10.9076H15.6186ZM16.1201 19.3384V20.1915C16.1201 20.5904 16.4435 20.9138 16.8424 20.9138H19.1568C19.5557 20.9138 19.8791 20.5904 19.8791 20.1915V19.3385L26.62 18.2444V24.164C26.62 24.9619 25.9732 25.6087 25.1753 25.6087H10.8241C10.0262 25.6087 9.37939 24.9619 9.37939 24.164V18.2443L16.1201 19.3384ZM15.3695 13.4718H20.6305V12.9375C20.6305 12.5386 20.3071 12.2152 19.9081 12.2152H16.0919C15.6929 12.2152 15.3695 12.5386 15.3695 12.9375V13.4718Z" fill="white" fill-opacity="0.94"/>
</svg>
