<svg width="28" height="28" viewBox="0 0 28 28" fill="none" xmlns="http://www.w3.org/2000/svg">
<circle cx="14" cy="14" r="14" fill="url(#paint0_linear_1494_3055)"/>
<path d="M20.0593 21.2173C20.4682 21.0687 20.695 20.639 20.6112 20.2121L20.3216 18.737C20.3216 18.1214 19.5018 17.4182 17.8874 17.0085C17.3405 16.8587 16.8206 16.6265 16.3463 16.3202C16.2425 16.262 16.2583 15.7244 16.2583 15.7244L15.7384 15.6467C15.7384 15.6031 15.6939 14.9584 15.6939 14.9584C16.316 14.7532 16.252 13.5428 16.252 13.5428C16.6471 13.7579 16.9043 12.8001 16.9043 12.8001C17.3716 11.4693 16.6716 11.5497 16.6716 11.5497C16.7941 10.7373 16.7941 9.91164 16.6716 9.09922C16.3604 6.4042 11.6751 7.13583 12.2306 8.01601C10.8613 7.76842 11.1738 10.8268 11.1738 10.8268L11.4708 11.6188C11.0591 11.8809 11.1399 12.1817 11.2302 12.5177C11.2679 12.6578 11.3072 12.804 11.3131 12.9561C11.3418 13.7192 11.8176 13.5611 11.8176 13.5611C11.8469 14.8207 12.4797 14.9847 12.4797 14.9847C12.5986 15.7758 12.5245 15.6412 12.5245 15.6412L11.9614 15.708C11.969 15.8879 11.9541 16.068 11.9169 16.2444C11.5897 16.3875 11.3894 16.5014 11.1911 16.6142C10.9881 16.7296 10.7871 16.8439 10.4542 16.9871C9.18295 17.534 7.8013 18.2452 7.55568 19.2027C7.48388 19.4827 7.41355 19.859 7.34997 20.2515C7.28335 20.6627 7.51199 21.0653 7.90331 21.2083C9.61084 21.8321 11.5379 22.2018 13.5821 22.2457H14.4052C16.4396 22.202 18.3579 21.8357 20.0593 21.2173Z" fill="white"/>
<defs>
<linearGradient id="paint0_linear_1494_3055" x1="32.5" y1="-5.5" x2="3" y2="23" gradientUnits="userSpaceOnUse">
<stop stop-color="white" stop-opacity="0"/>
<stop offset="0.398083" stop-color="#0075FF" stop-opacity="0.14"/>
<stop offset="0.907485" stop-color="#0075FF" stop-opacity="0.35"/>
</linearGradient>
</defs>
</svg>
