<svg width="28" height="28" viewBox="0 0 28 28" fill="none" xmlns="http://www.w3.org/2000/svg">
<circle cx="14" cy="14" r="14" fill="url(#paint0_linear_2116_337199)"/>
<path d="M20.059 21.2175C20.4679 21.0689 20.6947 20.6393 20.6109 20.2124L20.3212 18.7372C20.3212 18.1216 19.5014 17.4185 17.8871 17.0087C17.3402 16.859 16.8203 16.6268 16.3459 16.3204C16.2422 16.2622 16.258 15.7247 16.258 15.7247L15.738 15.647C15.738 15.6033 15.6936 14.9587 15.6936 14.9587C16.3157 14.7535 16.2516 13.5431 16.2516 13.5431C16.6467 13.7582 16.904 12.8003 16.904 12.8003C17.3713 11.4695 16.6713 11.55 16.6713 11.55C16.7938 10.7376 16.7938 9.91188 16.6713 9.09946C16.3601 6.40444 11.6747 7.13607 12.2303 8.01626C10.861 7.76867 11.1734 10.827 11.1734 10.827L11.4704 11.619C11.0588 11.8811 11.1396 12.1819 11.2299 12.5179C11.2676 12.658 11.3068 12.8042 11.3128 12.9563C11.3415 13.7195 11.8173 13.5613 11.8173 13.5613C11.8466 14.821 12.4794 14.985 12.4794 14.985C12.5983 15.776 12.5242 15.6414 12.5242 15.6414L11.961 15.7083C11.9687 15.8882 11.9537 16.0683 11.9166 16.2446C11.5894 16.3877 11.3891 16.5016 11.1908 16.6144C10.9877 16.7299 10.7868 16.8441 10.4539 16.9874C9.18261 17.5342 7.80097 18.2454 7.55535 19.203C7.48354 19.4829 7.41321 19.8593 7.34964 20.2517C7.28302 20.663 7.51166 21.0656 7.90298 21.2085C9.61051 21.8323 11.5376 22.202 13.5818 22.2459H14.4049C16.4392 22.2022 18.3576 21.8359 20.059 21.2175Z" fill="white"/>
<defs>
<linearGradient id="paint0_linear_2116_337199" x1="32.5" y1="-5.5" x2="3" y2="23" gradientUnits="userSpaceOnUse">
<stop stop-color="white" stop-opacity="0"/>
<stop offset="0.398083" stop-color="#F27EBD" stop-opacity="0.14"/>
<stop offset="0.907485" stop-color="#F27EBD" stop-opacity="0.35"/>
</linearGradient>
</defs>
</svg>
