<svg width="119" height="119" viewBox="0 0 119 119" fill="none" xmlns="http://www.w3.org/2000/svg">
<path d="M3.05128 19.4261C3.05128 10.576 10.5571 3.58281 19.3851 4.20781L62.103 7.23209C70.0908 7.7976 76.282 14.4426 76.282 22.4504V67.3556C76.282 75.4947 69.8929 82.2006 61.7632 82.5941L19.0453 84.6619C10.34 85.0832 3.05128 78.1388 3.05128 69.4233V19.4261Z" fill="#0075FF" fill-opacity="0.78"/>
<path d="M3.55128 19.4261C3.55128 10.866 10.8111 4.10205 19.3498 4.70656L62.0677 7.73084C69.7937 8.27782 75.782 14.7051 75.782 22.4504V67.3556C75.782 75.228 69.6023 81.7141 61.7391 82.0947L19.0211 84.1625C10.6011 84.57 3.55128 77.8532 3.55128 69.4233V19.4261Z" stroke="white" stroke-opacity="0.18"/>
<g filter="url(#filter0_d_33930_34437)">
<path d="M29.8293 23.0589L29.8741 23.0232C29.975 22.9461 30.0821 22.869 30.1962 22.7926C30.3496 22.6902 30.5142 22.5889 30.6906 22.4901C31.1437 22.2364 31.6717 22.0004 32.2544 21.8093C33.2053 21.4854 34.2179 21.3191 35.1087 21.367C38.311 21.536 40.6079 23.2259 42.1009 25.6113L42.1065 25.6199C43.582 28.0054 44.2753 31.1314 44.2213 34.2154C44.1667 37.2994 43.3649 40.3889 41.8236 42.6843C40.297 45.005 38.0365 46.5202 35.1087 46.4978C30.1514 46.4583 27.0373 42.107 26.0583 36.9446C25.1081 31.9004 26.2614 26.1774 29.6661 23.2202C29.6928 23.1891 29.7208 23.1596 29.7495 23.1312C29.7754 23.1062 29.802 23.0821 29.8293 23.0589Z" fill="white" fill-opacity="0.9" shape-rendering="crispEdges"/>
<path d="M35.129 51.1785C42.4496 51.1728 50.3578 53.9443 50.9713 64.8042C50.9713 65.5956 50.4433 66.249 49.7899 66.2687L19.6291 67.1277C18.9015 67.1475 18.3077 66.4855 18.3077 65.6491C18.9954 54.1273 27.6143 51.1841 35.129 51.1785Z" fill="white" fill-opacity="0.9" shape-rendering="crispEdges"/>
<path d="M63.0377 64.0184L54.0938 64.2409C53.6799 57.7829 51.0854 53.3866 47.4125 50.7278C48.3432 50.6124 49.2759 50.5617 50.1926 50.5646C56.5966 50.5646 63.537 53.0428 64.0769 62.7201C64.0769 63.4241 63.6112 64.0044 63.0377 64.0184Z" fill="white" fill-opacity="0.9" shape-rendering="crispEdges"/>
<path d="M45.0463 44.0135C46.3593 45.4725 48.0771 46.3877 50.1688 46.4046C52.7318 46.4245 54.7128 45.0782 56.0483 43.0138C57.3984 40.969 58.1029 38.2203 58.1491 35.4771C58.1974 32.7339 57.5896 29.9514 56.2906 27.8362V27.8305C54.9811 25.7154 52.972 24.2199 50.1723 24.082C49.3929 24.0454 48.5084 24.1946 47.6779 24.4847C46.9069 24.7467 46.2479 25.0959 45.757 25.4536C46.9755 28.2474 47.4895 31.4074 47.4377 34.3956C47.381 37.7021 46.6219 41.1493 45.0463 44.0135Z" fill="white" fill-opacity="0.9" shape-rendering="crispEdges"/>
</g>
<path d="M56.4487 68.8719C56.4487 62.9924 61.2011 58.2188 67.0805 58.1925L105.222 58.0221C111.138 57.9956 115.949 62.7847 115.949 68.7015V92.8064C115.949 98.3779 111.666 103.013 106.111 103.453L83.1474 105.269L75.8539 114.021C74.2014 116.004 70.9865 115.167 70.5108 112.63L69.4167 106.795L67.6219 106.878C61.5365 107.159 56.4487 102.302 56.4487 96.2097V68.8719Z" fill="#1BCE7B" fill-opacity="0.78"/>
<path d="M83.108 104.771C82.9738 104.781 82.8495 104.845 82.7633 104.949L75.4698 113.701C74.0881 115.359 71.4 114.659 71.0023 112.538L69.9081 106.703C69.8621 106.457 69.6426 106.284 69.3936 106.295L67.5988 106.378C61.7983 106.647 56.9487 102.016 56.9487 96.2097V68.8719C56.9487 63.2677 61.4786 58.7175 67.0827 58.6925L105.224 58.5221C110.863 58.4969 115.449 63.0617 115.449 68.7015V92.8064C115.449 98.1171 111.366 102.535 106.072 102.954L83.108 104.771Z" stroke="white" stroke-opacity="0.18" stroke-linejoin="round"/>
<g filter="url(#filter1_d_33930_34437)">
<path d="M68.6538 76.5776C68.6538 75.1245 69.8158 73.938 71.2686 73.9078L101.179 73.2842C102.587 73.2549 103.744 74.388 103.744 75.7959C103.744 77.1526 102.666 78.2642 101.31 78.3068L71.4082 79.2468C69.9012 79.2941 68.6538 78.0854 68.6538 76.5776Z" fill="white" fill-opacity="0.9" shape-rendering="crispEdges"/>
</g>
<g filter="url(#filter2_d_33930_34437)">
<path d="M68.6538 88.9633C68.6538 87.6429 69.6976 86.5587 71.0171 86.5084L96.7369 85.5286C98.0636 85.478 99.1667 86.5399 99.1667 87.8676C99.1667 89.1175 98.1847 90.1468 96.9362 90.2057L71.2262 91.4174C69.8256 91.4834 68.6538 90.3656 68.6538 88.9633Z" fill="white" fill-opacity="0.9" shape-rendering="crispEdges"/>
</g>
<defs>
<filter id="filter0_d_33930_34437" x="8.30769" y="15.3589" width="65.7692" height="65.769" filterUnits="userSpaceOnUse" color-interpolation-filters="sRGB">
<feFlood flood-opacity="0" result="BackgroundImageFix"/>
<feColorMatrix in="SourceAlpha" type="matrix" values="0 0 0 0 0 0 0 0 0 0 0 0 0 0 0 0 0 0 127 0" result="hardAlpha"/>
<feOffset dy="4"/>
<feGaussianBlur stdDeviation="5"/>
<feComposite in2="hardAlpha" operator="out"/>
<feColorMatrix type="matrix" values="0 0 0 0 0 0 0 0 0 0 0 0 0 0 0 0 0 0 0.05 0"/>
<feBlend mode="normal" in2="BackgroundImageFix" result="effect1_dropShadow_33930_34437"/>
<feBlend mode="normal" in="SourceGraphic" in2="effect1_dropShadow_33930_34437" result="shape"/>
</filter>
<filter id="filter1_d_33930_34437" x="58.6538" y="67.2837" width="55.0897" height="25.9644" filterUnits="userSpaceOnUse" color-interpolation-filters="sRGB">
<feFlood flood-opacity="0" result="BackgroundImageFix"/>
<feColorMatrix in="SourceAlpha" type="matrix" values="0 0 0 0 0 0 0 0 0 0 0 0 0 0 0 0 0 0 127 0" result="hardAlpha"/>
<feOffset dy="4"/>
<feGaussianBlur stdDeviation="5"/>
<feComposite in2="hardAlpha" operator="out"/>
<feColorMatrix type="matrix" values="0 0 0 0 0 0 0 0 0 0 0 0 0 0 0 0 0 0 0.05 0"/>
<feBlend mode="normal" in2="BackgroundImageFix" result="effect1_dropShadow_33930_34437"/>
<feBlend mode="normal" in="SourceGraphic" in2="effect1_dropShadow_33930_34437" result="shape"/>
</filter>
<filter id="filter2_d_33930_34437" x="58.6538" y="79.5269" width="50.5128" height="25.8931" filterUnits="userSpaceOnUse" color-interpolation-filters="sRGB">
<feFlood flood-opacity="0" result="BackgroundImageFix"/>
<feColorMatrix in="SourceAlpha" type="matrix" values="0 0 0 0 0 0 0 0 0 0 0 0 0 0 0 0 0 0 127 0" result="hardAlpha"/>
<feOffset dy="4"/>
<feGaussianBlur stdDeviation="5"/>
<feComposite in2="hardAlpha" operator="out"/>
<feColorMatrix type="matrix" values="0 0 0 0 0 0 0 0 0 0 0 0 0 0 0 0 0 0 0.05 0"/>
<feBlend mode="normal" in2="BackgroundImageFix" result="effect1_dropShadow_33930_34437"/>
<feBlend mode="normal" in="SourceGraphic" in2="effect1_dropShadow_33930_34437" result="shape"/>
</filter>
</defs>
</svg>
