<svg width="121" height="121" viewBox="0 0 121 121" fill="none" xmlns="http://www.w3.org/2000/svg">
<path d="M35.7584 13.505C39.3318 11.7626 43.6724 12.1255 47.1405 14.4108L68.8217 28.6959C71.9684 30.7679 73.8853 34.3662 73.8853 38.1528V63.0195C73.8853 66.8062 71.9684 70.3629 68.8217 72.3684L47.1405 86.191C43.6724 88.4015 39.3318 88.6729 35.7584 86.853L11.0386 74.2798C7.06909 72.2604 4.59821 68.3436 4.59821 64.0251V35.6737C4.59821 31.3552 7.07186 27.4882 11.0386 25.5547L35.7584 13.505Z" fill="#19CC45" fill-opacity="0.78"/>
<path d="M36.0651 14.1342L36.0652 14.1342C39.401 12.5077 43.4793 12.8365 46.7554 14.9953L46.7554 14.9953L68.4365 29.2804L68.4367 29.2806C71.384 31.2212 73.1853 34.5982 73.1853 38.1528V63.0195C73.1853 66.5733 71.3853 69.9045 68.4455 71.7781L68.4454 71.7782L46.7643 85.6007C43.4951 87.6844 39.418 87.9313 36.0761 86.2292L36.0758 86.2291L11.356 73.6559C11.3559 73.6558 11.3559 73.6558 11.3559 73.6558C7.61015 71.7503 5.29821 68.068 5.29821 64.0251V35.6737C5.29821 31.6325 7.61042 28.0044 11.3453 26.1839L11.3453 26.1839L36.0651 14.1342Z" stroke="white" stroke-opacity="0.18" stroke-width="1.4"/>
<path d="M83.9692 39.405C86.9858 37.6627 90.6478 37.8012 93.5813 39.7319L111.977 51.8315C114.656 53.5932 116.29 56.8009 116.29 60.2635V82.9972C116.29 86.4598 114.656 89.7811 111.977 91.7312L93.5813 105.116C90.6478 107.249 86.983 107.645 83.9692 106.113L63.1939 95.5677C59.8726 93.8807 57.8034 90.4209 57.8034 86.5096V60.8341C57.8034 56.9228 59.8726 53.319 63.1939 51.4021L83.9692 39.405Z" fill="#FAA72C" fill-opacity="0.78"/>
<path d="M84.3193 40.0112L84.3193 40.0112C87.101 38.4045 90.4788 38.5279 93.1964 40.3166L93.1966 40.3167L111.592 52.4163L111.977 51.8315L111.592 52.4163C114.055 54.036 115.59 57.0125 115.59 60.2635V82.9972C115.59 86.2491 114.052 89.3543 111.565 91.1651C111.565 91.1652 111.565 91.1652 111.565 91.1653L93.1696 104.55C90.426 106.545 87.0415 106.89 84.2864 105.489L84.2861 105.489L63.5109 94.9436C63.5108 94.9436 63.5108 94.9435 63.5107 94.9435C60.4371 93.3822 58.5034 90.1717 58.5034 86.5096V60.8341C58.5034 57.1687 60.4428 53.7981 63.5438 52.0084L63.544 52.0083L84.3193 40.0112Z" stroke="white" stroke-opacity="0.18" stroke-width="1.4"/>
<g filter="url(#filter0_d_13393_203442)">
<path fill-rule="evenodd" clip-rule="evenodd" d="M34.718 30.896C27.5087 35.8122 29.9206 50.6847 39.969 50.791C51.5753 50.9121 52.553 30.0929 39.969 29.4817C38.1519 29.3931 35.899 30.0929 34.718 30.896ZM55.8397 66.0178C55.9221 66.9007 55.2536 67.6418 54.3848 67.6595L24.6019 68.2559C23.8009 68.2707 23.1706 67.5916 23.2826 66.818C24.5784 57.9246 32.7684 54.7535 39.9867 54.78C47.2196 54.8037 55.018 57.1215 55.8367 66.0178H55.8397Z" fill="white" fill-opacity="0.9" shape-rendering="crispEdges"/>
</g>
<g filter="url(#filter1_d_13393_203442)">
<path fill-rule="evenodd" clip-rule="evenodd" d="M89.9744 75.3132C89.9744 76.5087 88.9411 77.5169 87.6576 77.5624C86.3712 77.6105 85.3205 76.6691 85.3205 75.4603V58.0152C85.3205 56.8091 86.3683 55.8356 87.6576 55.8463C88.9411 55.857 89.9744 56.8331 89.9744 58.0286V75.3132ZM93.6909 64.6627C94.4866 63.8084 95.81 63.756 96.6491 64.5395V64.5421C99.3177 67.0368 100.833 70.5561 100.833 74.2248C100.833 81.5831 94.8547 87.9351 87.2872 88.3963C79.4681 88.8733 72.9103 82.9195 72.9103 75.1079C72.9103 70.8522 74.8779 66.8324 78.2664 64.1071C79.2245 63.3393 80.6319 63.4625 81.4114 64.377C82.1882 65.2916 82.0529 66.6516 81.1056 67.422C78.7996 69.3035 77.4653 72.0577 77.4653 74.9638C77.4653 80.2991 81.9229 84.408 87.2872 84.1302C92.5325 83.8577 96.714 79.4736 96.714 74.3532C96.714 71.7642 95.6774 69.3821 93.7829 67.6343C92.933 66.8508 92.8924 65.5196 93.6909 64.6627Z" fill="white" fill-opacity="0.9" shape-rendering="crispEdges"/>
</g>
<defs>
<filter id="filter0_d_13393_203442" x="13.2696" y="23.4741" width="52.5769" height="58.7822" filterUnits="userSpaceOnUse" color-interpolation-filters="sRGB">
<feFlood flood-opacity="0" result="BackgroundImageFix"/>
<feColorMatrix in="SourceAlpha" type="matrix" values="0 0 0 0 0 0 0 0 0 0 0 0 0 0 0 0 0 0 127 0" result="hardAlpha"/>
<feOffset dy="4"/>
<feGaussianBlur stdDeviation="5"/>
<feComposite in2="hardAlpha" operator="out"/>
<feColorMatrix type="matrix" values="0 0 0 0 0 0 0 0 0 0 0 0 0 0 0 0 0 0 0.05 0"/>
<feBlend mode="normal" in2="BackgroundImageFix" result="effect1_dropShadow_13393_203442"/>
<feBlend mode="normal" in="SourceGraphic" in2="effect1_dropShadow_13393_203442" result="shape"/>
</filter>
<filter id="filter1_d_13393_203442" x="62.9103" y="49.8462" width="47.9231" height="52.5771" filterUnits="userSpaceOnUse" color-interpolation-filters="sRGB">
<feFlood flood-opacity="0" result="BackgroundImageFix"/>
<feColorMatrix in="SourceAlpha" type="matrix" values="0 0 0 0 0 0 0 0 0 0 0 0 0 0 0 0 0 0 127 0" result="hardAlpha"/>
<feOffset dy="4"/>
<feGaussianBlur stdDeviation="5"/>
<feComposite in2="hardAlpha" operator="out"/>
<feColorMatrix type="matrix" values="0 0 0 0 0 0 0 0 0 0 0 0 0 0 0 0 0 0 0.05 0"/>
<feBlend mode="normal" in2="BackgroundImageFix" result="effect1_dropShadow_13393_203442"/>
<feBlend mode="normal" in="SourceGraphic" in2="effect1_dropShadow_13393_203442" result="shape"/>
</filter>
</defs>
</svg>
