<svg width="122" height="121" viewBox="0 0 122 121" fill="none" xmlns="http://www.w3.org/2000/svg">
<path opacity="0.8" fill-rule="evenodd" clip-rule="evenodd" d="M94.0709 107.57H27.7539C27.1864 107.57 26.6239 107.55 26.0669 107.51C11.0791 107.181 0.0017338 95.3735 0.000976562 80.8562C0.005334 73.7804 3.17341 67.4496 7.7816 61.9115C9.98437 59.2642 11.5797 57.5192 14.8009 55.9273C14.7436 55.2072 14.7144 54.4796 14.7144 53.7455C14.7192 46.2795 17.8021 39.1211 23.2852 33.845C28.7682 28.569 36.2022 25.6075 43.9516 25.6121C53.8785 25.6237 62.5367 30.7985 67.8039 38.0981C71.2717 37.2443 75.5597 36.9715 78.3648 36.9729C90.7563 36.9873 100.934 46.0877 102.114 57.7257C113.987 60.2195 122.011 70.0178 122.001 82.202C121.989 96.2431 110.168 107.618 95.5933 107.612C95.0823 107.612 94.5747 107.598 94.0709 107.57Z" fill="url(#paint0_linear_13315_3130)"/>
<g filter="url(#filter0_d_13315_3130)">
<rect x="13.2949" y="63.0762" width="26.7495" height="26.7495" rx="4" fill="white"/>
</g>
<rect x="16.9951" y="66.7766" width="19.3486" height="19.3486" rx="3" fill="#F6F6F6"/>
<path d="M26.5908 76.4065C29.1465 76.4066 31.2178 78.2608 31.2178 80.5471C31.2176 82.1905 29.1464 82.2356 26.5908 82.2356C24.0351 82.2356 21.9631 82.1906 21.9629 80.5471C21.9629 78.2607 24.035 76.4065 26.5908 76.4065ZM26.541 70.6663C27.8863 70.6663 28.9775 71.7567 28.9775 73.1018C28.9775 74.447 27.8864 75.5374 26.541 75.5374C25.1958 75.5372 24.1055 74.4469 24.1055 73.1018C24.1055 71.7568 25.1958 70.6664 26.541 70.6663Z" fill="#B0B0B0"/>
<g filter="url(#filter1_d_13315_3130)">
<rect x="47.125" y="71.1404" width="26.7495" height="26.7495" rx="4" fill="white"/>
</g>
<rect x="50.8271" y="74.8428" width="19.3449" height="19.3449" rx="3" fill="#F6F6F6"/>
<path d="M60.4209 84.4714C62.9769 84.4714 65.0488 86.3255 65.0488 88.6121C65.0484 90.2554 62.9766 90.3005 60.4209 90.3005C57.8652 90.3005 55.7934 90.2554 55.793 88.6121C55.793 86.3255 57.865 84.4715 60.4209 84.4714ZM60.3721 78.7302C61.7173 78.7304 62.8075 79.8207 62.8076 81.1658C62.8076 82.5109 61.7174 83.6021 60.3721 83.6023C59.0266 83.6023 57.9355 82.511 57.9355 81.1658C57.9357 79.8206 59.0267 78.7302 60.3721 78.7302Z" fill="#B0B0B0"/>
<g filter="url(#filter2_d_13315_3130)">
<rect x="80.9556" y="63.0762" width="26.7495" height="26.7495" rx="4" fill="white"/>
</g>
<rect x="84.6562" y="66.7766" width="19.3486" height="19.3486" rx="3" fill="#F6F6F6"/>
<path d="M94.2515 76.4067C96.8032 76.4067 98.8726 78.2577 98.8726 80.5405C98.8724 82.1815 96.8031 82.2261 94.2515 82.2261C91.6999 82.2261 89.6315 82.1814 89.6313 80.5405C89.6313 78.2578 91.6998 76.4069 94.2515 76.4067ZM94.2026 70.6753C95.5458 70.6754 96.6342 71.764 96.6343 73.1069C96.6343 74.4499 95.5458 75.5385 94.2026 75.5386C92.8594 75.5386 91.77 74.45 91.77 73.1069C91.7701 71.764 92.8595 70.6753 94.2026 70.6753Z" fill="#B0B0B0"/>
<g filter="url(#filter3_d_13315_3130)">
<rect x="41.8271" y="14.7317" width="37.3452" height="45.6987" rx="4" fill="white"/>
</g>
<rect opacity="0.5" x="52" y="52.3411" width="17" height="3" rx="1.5" fill="#BDC1C6"/>
<rect x="46.7412" y="19.6455" width="27.5175" height="27.5175" rx="3" fill="#F6F6F6"/>
<path d="M58.4896 25.3538C57.8583 24.3536 63.1817 23.522 63.5355 26.5843C63.6746 27.5075 63.6746 28.4462 63.5355 29.3694C63.5355 29.3694 64.3311 29.2781 63.8001 30.7903C63.7936 30.8143 63.5028 31.8758 63.0589 31.6341C63.0596 31.6467 63.1284 33.0101 62.4251 33.2425C62.4251 33.2425 62.4749 33.9745 62.4749 34.0247L63.0658 34.1126C63.0658 34.1126 63.0485 34.7242 63.1663 34.7903C63.7053 35.1384 64.2959 35.4024 64.9173 35.5726C64.9655 35.5848 65.013 35.598 65.0599 35.6107L64.514 36.6644C64.3822 36.9182 64.1094 36.9343 63.8148 36.89L61.9984 36.4134C61.4745 36.3039 61.1772 36.7038 61.0892 37.0501C61.0292 37.2866 61.107 37.5333 61.1488 37.7737L61.7933 41.4886C61.5177 41.5052 61.24 41.5177 60.9603 41.5237H60.0247C57.7019 41.4738 55.5119 41.0539 53.5716 40.345C53.127 40.1825 52.867 39.7244 52.9427 39.2571C53.0149 38.8113 53.0955 38.3838 53.1771 38.0657C53.4562 36.9776 55.0264 36.1696 56.471 35.5482C56.8491 35.3854 57.0773 35.2555 57.308 35.1243C57.5333 34.9962 57.7613 34.8661 58.1331 34.7034C58.1753 34.5032 58.1916 34.2983 58.183 34.0941L58.8236 34.0189C58.8286 34.0274 58.9033 34.1416 58.7728 33.2728C58.7728 33.2728 58.0532 33.086 58.0199 31.6546C58.0199 31.6546 57.4792 31.8344 57.4466 30.9671C57.4399 30.7944 57.3956 30.6282 57.3529 30.4691C57.2503 30.0873 57.1579 29.7454 57.6253 29.4476L57.2884 28.5472C57.2843 28.5062 56.9428 25.0741 58.4896 25.3538Z" fill="#9E9E9E"/>
<path fill-rule="evenodd" clip-rule="evenodd" d="M63.403 41.5246C63.4468 41.7252 63.4907 41.9541 63.6724 42.0499C63.7348 42.0827 63.8055 42.1009 63.8791 42.1009H66.8195H69.9291C69.973 42.1009 70.0159 42.0944 70.0567 42.0822C70.307 42.007 70.3612 41.697 70.4053 41.4395L70.8483 38.8502C70.8924 38.5926 71.0274 38.2775 70.8319 38.1041C70.7419 38.0243 70.6081 37.9937 70.4797 38.0582L68.9247 38.6034C68.7699 38.6811 68.5814 38.6202 68.5014 38.4665L67.101 36.0173C66.9826 35.7897 66.6568 35.7899 66.5387 36.0176L65.1427 38.4657C65.0628 38.6197 64.8739 38.6808 64.7189 38.6028L63.1699 38.0584C63.0117 37.9787 62.845 38.0435 62.7623 38.1671C62.6482 38.3379 62.7564 38.5629 62.8002 38.7635L63.403 41.5246Z" fill="#B0B0B0"/>
<path d="M46.7412 24.5593V21.6455C46.7412 20.5409 47.6366 19.6455 48.7412 19.6455H51.6551" stroke="#E4E4E4" stroke-linecap="round" stroke-linejoin="round"/>
<path d="M46.7412 42.2492V45.1631C46.7412 46.2677 47.6366 47.1631 48.7412 47.1631H51.6551" stroke="#E4E4E4" stroke-linecap="round" stroke-linejoin="round"/>
<path d="M74.2588 24.5593V21.6455C74.2588 20.5409 73.3634 19.6455 72.2588 19.6455H69.3449" stroke="#E4E4E4" stroke-linecap="round" stroke-linejoin="round"/>
<path d="M74.2588 42.2492V45.1631C74.2588 46.2677 73.3634 47.1631 72.2588 47.1631H69.3449" stroke="#E4E4E4" stroke-linecap="round" stroke-linejoin="round"/>
<defs>
<filter id="filter0_d_13315_3130" x="6.22052" y="58.3599" width="40.8983" height="40.8983" filterUnits="userSpaceOnUse" color-interpolation-filters="sRGB">
<feFlood flood-opacity="0" result="BackgroundImageFix"/>
<feColorMatrix in="SourceAlpha" type="matrix" values="0 0 0 0 0 0 0 0 0 0 0 0 0 0 0 0 0 0 127 0" result="hardAlpha"/>
<feOffset dy="2.35813"/>
<feGaussianBlur stdDeviation="3.5372"/>
<feComposite in2="hardAlpha" operator="out"/>
<feColorMatrix type="matrix" values="0 0 0 0 0.423529 0 0 0 0 0.423529 0 0 0 0 0.423529 0 0 0 0.12 0"/>
<feBlend mode="normal" in2="BackgroundImageFix" result="effect1_dropShadow_13315_3130"/>
<feBlend mode="normal" in="SourceGraphic" in2="effect1_dropShadow_13315_3130" result="shape"/>
</filter>
<filter id="filter1_d_13315_3130" x="40.0506" y="66.4241" width="40.8983" height="40.8983" filterUnits="userSpaceOnUse" color-interpolation-filters="sRGB">
<feFlood flood-opacity="0" result="BackgroundImageFix"/>
<feColorMatrix in="SourceAlpha" type="matrix" values="0 0 0 0 0 0 0 0 0 0 0 0 0 0 0 0 0 0 127 0" result="hardAlpha"/>
<feOffset dy="2.35813"/>
<feGaussianBlur stdDeviation="3.5372"/>
<feComposite in2="hardAlpha" operator="out"/>
<feColorMatrix type="matrix" values="0 0 0 0 0.423529 0 0 0 0 0.423529 0 0 0 0 0.423529 0 0 0 0.12 0"/>
<feBlend mode="normal" in2="BackgroundImageFix" result="effect1_dropShadow_13315_3130"/>
<feBlend mode="normal" in="SourceGraphic" in2="effect1_dropShadow_13315_3130" result="shape"/>
</filter>
<filter id="filter2_d_13315_3130" x="73.8812" y="58.3599" width="40.8983" height="40.8983" filterUnits="userSpaceOnUse" color-interpolation-filters="sRGB">
<feFlood flood-opacity="0" result="BackgroundImageFix"/>
<feColorMatrix in="SourceAlpha" type="matrix" values="0 0 0 0 0 0 0 0 0 0 0 0 0 0 0 0 0 0 127 0" result="hardAlpha"/>
<feOffset dy="2.35813"/>
<feGaussianBlur stdDeviation="3.5372"/>
<feComposite in2="hardAlpha" operator="out"/>
<feColorMatrix type="matrix" values="0 0 0 0 0.423529 0 0 0 0 0.423529 0 0 0 0 0.423529 0 0 0 0.12 0"/>
<feBlend mode="normal" in2="BackgroundImageFix" result="effect1_dropShadow_13315_3130"/>
<feBlend mode="normal" in="SourceGraphic" in2="effect1_dropShadow_13315_3130" result="shape"/>
</filter>
<filter id="filter3_d_13315_3130" x="34.7527" y="10.0154" width="51.494" height="59.8475" filterUnits="userSpaceOnUse" color-interpolation-filters="sRGB">
<feFlood flood-opacity="0" result="BackgroundImageFix"/>
<feColorMatrix in="SourceAlpha" type="matrix" values="0 0 0 0 0 0 0 0 0 0 0 0 0 0 0 0 0 0 127 0" result="hardAlpha"/>
<feOffset dy="2.35813"/>
<feGaussianBlur stdDeviation="3.5372"/>
<feComposite in2="hardAlpha" operator="out"/>
<feColorMatrix type="matrix" values="0 0 0 0 0.423529 0 0 0 0 0.423529 0 0 0 0 0.423529 0 0 0 0.12 0"/>
<feBlend mode="normal" in2="BackgroundImageFix" result="effect1_dropShadow_13315_3130"/>
<feBlend mode="normal" in="SourceGraphic" in2="effect1_dropShadow_13315_3130" result="shape"/>
</filter>
<linearGradient id="paint0_linear_13315_3130" x1="60.5177" y1="41.1155" x2="60.5177" y2="107.612" gradientUnits="userSpaceOnUse">
<stop stop-color="#A6A6A6" stop-opacity="0.06"/>
<stop offset="1" stop-color="#979797" stop-opacity="0.16"/>
</linearGradient>
</defs>
</svg>
