<svg width="159" height="125" viewBox="0 0 159 125" fill="none" xmlns="http://www.w3.org/2000/svg">
	<g clip-path="url(#clip0_1414_2699)">
		<path opacity="0.5" fill-rule="evenodd" clip-rule="evenodd" d="M100.264 142.89H-47.1736C-48.415 142.89 -49.6456 142.846 -50.864 142.759C-83.6512 142.04 -109.998 116.224 -110 84.4844C-109.99 69.0141 -103.599 54.1811 -92.2313 43.2485C-86.4044 37.6446 -79.5148 33.3007 -72.019 30.3988C-72.1444 28.8246 -72.2083 27.2338 -72.2083 25.6286C-72.198 9.30529 -65.4537 -6.34553 -53.459 -17.8808C-41.4644 -29.4162 -25.202 -35.891 -8.2494 -35.8811C13.4664 -35.8556 37.3669 -25.3994 48.8892 -9.43986C54.3609 -11.3066 60.2511 -12.3212 66.3874 -12.318C93.4949 -12.2866 115.759 7.61031 118.34 33.0552C144.314 38.5075 159.023 60.7879 159 87.4268C158.974 118.126 135.477 142.995 103.595 142.982C102.477 142.982 101.367 142.951 100.264 142.89Z" fill="#C3F0FF"/>
	</g>
	<defs>
		<clipPath id="clip0_1414_2699">
			<rect width="303" height="168" fill="red" transform="translate(-144 -43)"/>
		</clipPath>
	</defs>
</svg>