<svg width="78" height="78" viewBox="0 0 78 78" fill="none" xmlns="http://www.w3.org/2000/svg">
	<path d="M2 15.8891C2 10.1354 6.94839 5.59661 12.7505 6.02845L36.7505 7.81471C41.9675 8.203 46 12.502 46 17.6754V41.5256C46 46.731 41.919 51.0452 36.6665 51.3922L12.6666 52.9776C6.89424 53.3589 2 48.8317 2 43.111V15.8891Z" fill="#1BCE7B" fill-opacity="0.78"/>
	<path d="M2.5 15.8891C2.5 10.432 7.19536 6.11638 12.7134 6.52707L36.7134 8.31334C41.6741 8.68254 45.5 12.7684 45.5 17.6754V41.5256C45.5 46.4629 41.628 50.5633 36.6336 50.8932L12.6336 52.4786C7.14395 52.8413 2.5 48.5368 2.5 43.111V15.8891Z" stroke="white" stroke-opacity="0.16"/>
	<g filter="url(#filter0_d_613_43738)">
		<path d="M21.2611 15.046C21.2076 15.0844 21.1571 15.127 21.1125 15.1738V15.171C18.6932 17.0837 17.8714 20.831 18.549 24.1395C19.246 27.5218 21.4573 30.3646 24.9555 30.376C27.0107 30.3831 28.5934 29.3919 29.6589 27.8853C30.7319 26.3958 31.2906 24.3965 31.3278 22.4C31.3649 20.4036 30.8834 18.3758 29.8551 16.8224L29.8521 16.8181C28.8104 15.2619 27.2024 14.1443 24.9555 14.008C24.3298 13.9697 23.615 14.0705 22.9433 14.2721C22.2523 14.4738 21.6683 14.7592 21.2611 15.046Z" fill="white" fill-opacity="0.9" shape-rendering="crispEdges"/>
		<path d="M36 42.1333C35.5765 35.1371 30.0958 33.3877 24.9718 33.4261V33.4246C19.6576 33.4644 13.4949 35.4438 13 43.0407C13 43.593 13.4265 44.0219 13.9511 43.9991L35.1856 43.0889C35.6359 43.0705 36 42.6416 36 42.1333Z" fill="white" fill-opacity="0.9" shape-rendering="crispEdges"/>
	</g>
	<path d="M39 41.0327C39 35.414 43.5988 30.8907 49.1981 31.002L67.1981 31.3598C72.6427 31.468 77 35.9271 77 41.3905V60.3515C77 65.5461 73.0478 69.8816 67.8908 70.3443L49.8908 71.9593C44.0397 72.4843 39 67.8602 39 61.9665V41.0327Z" fill="#3DADFF" fill-opacity="0.78"/>
	<path d="M39.5 41.0327C39.5 35.6925 43.8704 31.3962 49.1882 31.5019L67.1881 31.8597C72.359 31.9625 76.5 36.1978 76.5 41.3905V60.3515C76.5 65.2886 72.744 69.4068 67.8461 69.8463L49.8461 71.4613C44.2893 71.9599 39.5 67.5682 39.5 61.9665V41.0327Z" stroke="white" stroke-opacity="0.16"/>
	<g filter="url(#filter1_d_613_43738)">
		<path d="M60.8506 43.7444C60.8506 42.7746 60.146 41.994 59.2716 42C58.3922 42.0061 57.6757 42.8049 57.6757 43.7837V50.2877L51.6774 50.4919C50.7521 50.5237 50 51.3634 50 52.3679C50 53.3725 50.7538 54.1532 51.6774 54.1108L57.6757 53.8354V60.3394C57.6757 61.3198 58.3922 62.0611 59.2716 61.996C60.146 61.931 60.8506 61.0943 60.8506 60.1246V53.6887L66.4975 53.43C67.3294 53.3922 68 52.5949 68 51.6478C68 50.7007 67.3294 49.9579 66.4975 49.9866L60.8506 50.1788V43.7429V43.7444Z" fill="white" fill-opacity="0.9" shape-rendering="crispEdges"/>
	</g>
	<defs>
		<filter id="filter0_d_613_43738" x="3" y="8" width="43" height="50" filterUnits="userSpaceOnUse" color-interpolation-filters="sRGB">
			<feFlood flood-opacity="0" result="BackgroundImageFix"/>
			<feColorMatrix in="SourceAlpha" type="matrix" values="0 0 0 0 0 0 0 0 0 0 0 0 0 0 0 0 0 0 127 0" result="hardAlpha"/>
			<feOffset dy="4"/>
			<feGaussianBlur stdDeviation="5"/>
			<feComposite in2="hardAlpha" operator="out"/>
			<feColorMatrix type="matrix" values="0 0 0 0 0 0 0 0 0 0 0 0 0 0 0 0 0 0 0.05 0"/>
			<feBlend mode="normal" in2="BackgroundImageFix" result="effect1_dropShadow_613_43738"/>
			<feBlend mode="normal" in="SourceGraphic" in2="effect1_dropShadow_613_43738" result="shape"/>
		</filter>
		<filter id="filter1_d_613_43738" x="40" y="36" width="38" height="40" filterUnits="userSpaceOnUse" color-interpolation-filters="sRGB">
			<feFlood flood-opacity="0" result="BackgroundImageFix"/>
			<feColorMatrix in="SourceAlpha" type="matrix" values="0 0 0 0 0 0 0 0 0 0 0 0 0 0 0 0 0 0 127 0" result="hardAlpha"/>
			<feOffset dy="4"/>
			<feGaussianBlur stdDeviation="5"/>
			<feComposite in2="hardAlpha" operator="out"/>
			<feColorMatrix type="matrix" values="0 0 0 0 0 0 0 0 0 0 0 0 0 0 0 0 0 0 0.05 0"/>
			<feBlend mode="normal" in2="BackgroundImageFix" result="effect1_dropShadow_613_43738"/>
			<feBlend mode="normal" in="SourceGraphic" in2="effect1_dropShadow_613_43738" result="shape"/>
		</filter>
	</defs>
</svg>
