<svg width="109" height="108" viewBox="0 0 109 108" fill="none" xmlns="http://www.w3.org/2000/svg">
	<path d="M73.5313 86.2673C73.5313 90.1297 70.598 93.3605 66.7536 93.7324L20.7995 98.1788C16.3925 98.6052 12.5771 95.1412 12.5771 90.7137V15.6591C12.5771 11.2961 16.2869 7.854 20.6376 8.18006L51.6384 10.5034C54.6836 10.7316 57.5131 12.1616 59.5028 14.4782L70.7551 27.5789C72.5464 29.6644 73.5313 32.3226 73.5313 35.0718V86.2673Z" fill="white" stroke="#DFE0E3"/>
	<path fill-rule="evenodd" clip-rule="evenodd" d="M97.9233 73.0195C97.9233 78.2207 93.9363 82.5535 88.7531 82.9851L67.4636 84.7578C61.6336 85.2433 56.6338 80.6424 56.6338 74.7923V50.0125C56.6338 44.4533 61.1679 39.9612 66.7269 40.0129L88.0164 40.2111C93.5027 40.2622 97.9233 44.7242 97.9233 50.2107V73.0195Z" fill="#C8C9CD" fill-opacity="0.68"/>
	<path d="M97.4233 73.0195C97.4233 77.9606 93.6357 82.0768 88.7116 82.4868L67.4221 84.2595C61.8836 84.7207 57.1338 80.3499 57.1338 74.7923V50.0125C57.1338 44.7312 61.4412 40.4637 66.7222 40.5129L88.0117 40.7111C93.2237 40.7596 97.4233 44.9985 97.4233 50.2107V73.0195Z" stroke="white" stroke-opacity="0.4"/>
	<path opacity="0.5" fill-rule="evenodd" clip-rule="evenodd" d="M39.5508 27.4266C39.5508 28.522 38.6424 29.399 37.5477 29.3605L24.5813 28.9048C23.5133 28.8672 22.667 27.9906 22.667 26.922C22.667 25.7931 23.6077 24.8917 24.7356 24.9399L37.6982 25.4933C38.7339 25.5375 39.5508 26.39 39.5508 27.4266Z" fill="#D0D0D0" stroke="#DFE0E3" stroke-linecap="round" stroke-linejoin="round"/>
	<path opacity="0.5" fill-rule="evenodd" clip-rule="evenodd" d="M47.3851 44.8615C47.3851 45.8692 46.5674 46.6857 45.5596 46.6843L24.5615 46.6537C23.5148 46.6521 22.667 45.8031 22.667 44.7564C22.667 43.7022 23.5264 42.8501 24.5805 42.8591L45.5779 43.0387C46.5785 43.0473 47.3851 43.8609 47.3851 44.8615Z" fill="#D0D0D0" stroke="#DFE0E3" stroke-linecap="round" stroke-linejoin="round"/>
	<path opacity="0.5" fill-rule="evenodd" clip-rule="evenodd" d="M45.7012 67.7385C45.7012 68.7916 44.872 69.6581 43.8198 69.7043L24.7976 70.5396C23.6363 70.5906 22.667 69.6629 22.667 68.5005C22.667 67.402 23.5364 66.5005 24.6343 66.4607L43.6623 65.772C44.7762 65.7317 45.7012 66.6238 45.7012 67.7385Z" fill="#D0D0D0" stroke="#DFE0E3" stroke-linecap="round" stroke-linejoin="round"/>
	<path opacity="0.5" fill-rule="evenodd" clip-rule="evenodd" d="M42.6326 56.2563C42.6326 57.3058 41.7936 58.1627 40.7444 58.1849L24.699 58.5248C23.5838 58.5484 22.667 57.6508 22.667 56.5353C22.667 55.4469 23.5415 54.5604 24.6298 54.5456L40.6773 54.3274C41.7529 54.3127 42.6326 55.1806 42.6326 56.2563Z" fill="#D0D0D0" stroke="#DFE0E3" stroke-linecap="round" stroke-linejoin="round"/>
	<g filter="url(#filter0_d_11011_45206)">
		<path fill-rule="evenodd" clip-rule="evenodd" d="M85.7866 61.5247C86.5837 61.4939 87.2397 62.1658 87.2549 63.0296C87.3312 66.9993 84.6387 71.7403 79.3794 72.6659V74.7433L80.0087 74.7227C80.7333 74.6987 81.3206 75.3192 81.3206 76.1008C81.3206 76.8824 80.7333 77.5406 80.0087 77.5646L75.5923 77.712C74.86 77.736 74.2651 77.1155 74.2651 76.3271C74.2651 75.5386 74.86 74.8804 75.5923 74.8564L76.2292 74.8359V72.7516C70.8898 72.1277 68.1363 67.565 68.1782 63.4102C68.1858 62.5292 68.8609 61.8093 69.6847 61.8058C70.4512 61.8024 71.0767 62.4195 71.1492 63.2148L71.1568 63.3896C71.1492 64.2158 71.5801 65.7927 72.3696 67.0062C73.5061 68.7476 75.2452 69.7246 77.8234 69.6595C80.4015 69.5944 82.0834 68.5145 83.2009 66.7045C83.9102 65.5493 84.3259 64.0958 84.3717 63.3176V63.1496C84.3564 62.2823 84.9895 61.5522 85.7866 61.5213V61.5247ZM77.8081 48.6421C80.1956 48.6318 82.1215 50.5927 82.1215 53.0232V62.2995C82.1215 64.73 80.1956 66.7422 77.8081 66.7971C75.4207 66.8519 73.4565 64.9082 73.4565 62.4572V53.0986C73.4565 50.6475 75.4092 48.6524 77.8081 48.6387V48.6421Z" fill="white" fill-opacity="0.9" shape-rendering="crispEdges"/>
	</g>
	<mask id="path-9-inside-1_11011_45206" fill="white">
		<path fill-rule="evenodd" clip-rule="evenodd" d="M52.9951 10.1758L53.4802 27.4567C53.5561 30.1624 55.7714 32.3164 58.4782 32.3164H73.7115C73.2736 30.459 72.3956 28.7192 71.1348 27.2514L59.8826 14.1507C58.0968 12.0717 55.663 10.6769 52.9951 10.1758Z"/>
	</mask>
	<path fill-rule="evenodd" clip-rule="evenodd" d="M52.9951 10.1758L53.4802 27.4567C53.5561 30.1624 55.7714 32.3164 58.4782 32.3164H73.7115C73.2736 30.459 72.3956 28.7192 71.1348 27.2514L59.8826 14.1507C58.0968 12.0717 55.663 10.6769 52.9951 10.1758Z" fill="#EBEBEB"/>
	<path d="M53.4802 27.4567L52.4806 27.4847L53.4802 27.4567ZM52.9951 10.1758L53.1797 9.19297C52.8825 9.13713 52.5759 9.21883 52.3459 9.4152C52.1158 9.61157 51.987 9.9015 51.9955 10.2038L52.9951 10.1758ZM73.7115 32.3164V33.3164C74.0171 33.3164 74.3059 33.1767 74.4956 32.9371C74.6852 32.6975 74.7549 32.3843 74.6848 32.0869L73.7115 32.3164ZM71.1348 27.2514L70.3763 27.9029H70.3763L71.1348 27.2514ZM59.8826 14.1507L60.6412 13.4992L59.8826 14.1507ZM54.4798 27.4286L53.9947 10.1477L51.9955 10.2038L52.4806 27.4847L54.4798 27.4286ZM58.4782 31.3164C56.3128 31.3164 54.5406 29.5932 54.4798 27.4286L52.4806 27.4847C52.5717 30.7316 55.2301 33.3164 58.4782 33.3164V31.3164ZM73.7115 31.3164H58.4782V33.3164H73.7115V31.3164ZM70.3763 27.9029C71.5319 29.2485 72.3367 30.8432 72.7382 32.5459L74.6848 32.0869C74.2104 30.0748 73.2593 28.19 71.8934 26.5998L70.3763 27.9029ZM59.124 14.8023L70.3763 27.9029L71.8934 26.5998L60.6412 13.4992L59.124 14.8023ZM52.8105 11.1586C55.256 11.618 57.4871 12.8965 59.124 14.8023L60.6412 13.4992C58.7066 11.2468 56.0699 9.73586 53.1797 9.19297L52.8105 11.1586Z" fill="#DFE0E3" mask="url(#path-9-inside-1_11011_45206)"/>
	<defs>
		<filter id="filter0_d_11011_45206" x="58.1777" y="42.6387" width="39.0791" height="49.0742" filterUnits="userSpaceOnUse" color-interpolation-filters="sRGB">
			<feFlood flood-opacity="0" result="BackgroundImageFix"/>
			<feColorMatrix in="SourceAlpha" type="matrix" values="0 0 0 0 0 0 0 0 0 0 0 0 0 0 0 0 0 0 127 0" result="hardAlpha"/>
			<feOffset dy="4"/>
			<feGaussianBlur stdDeviation="5"/>
			<feComposite in2="hardAlpha" operator="out"/>
			<feColorMatrix type="matrix" values="0 0 0 0 0 0 0 0 0 0 0 0 0 0 0 0 0 0 0.05 0"/>
			<feBlend mode="normal" in2="BackgroundImageFix" result="effect1_dropShadow_11011_45206"/>
			<feBlend mode="normal" in="SourceGraphic" in2="effect1_dropShadow_11011_45206" result="shape"/>
		</filter>
	</defs>
</svg>
