<svg width="109" height="108" viewBox="0 0 109 108" fill="none" xmlns="http://www.w3.org/2000/svg">
	<path d="M73.0313 92.7071C73.0313 96.5357 70.1475 99.7497 66.3413 100.163L20.3872 105.156C15.9505 105.638 12.0771 102.162 12.0771 97.6995V11.471C12.0771 7.08077 15.8313 3.62927 20.206 3.99739L50.8013 6.57188C54.0334 6.84385 57.0003 8.46803 58.971 11.0442L70.6652 26.3314C72.1998 28.3375 73.0313 30.7929 73.0313 33.3186V92.7071Z" fill="white" stroke="#DFE0E3"/>
	<path fill-rule="evenodd" clip-rule="evenodd" d="M97.4233 78.0784C97.4233 83.2406 93.494 87.5544 88.3542 88.0349L67.0647 90.0254C61.1997 90.5737 56.1338 85.9593 56.1338 80.0688V49.7945C56.1338 44.2308 60.6749 39.7369 66.2383 39.7951L87.5278 40.0176C93.0096 40.0749 97.4233 44.535 97.4233 50.0171V78.0784Z" fill="#C8C9CD" fill-opacity="0.68"/>
	<path d="M96.9233 78.0784C96.9233 82.9825 93.1904 87.0806 88.3076 87.5371L67.0181 89.5276C61.4464 90.0485 56.6338 85.6648 56.6338 80.0688V49.7945C56.6338 44.509 60.9479 40.2398 66.2331 40.2951L87.5226 40.5176C92.7303 40.572 96.9233 44.8091 96.9233 50.0171V78.0784Z" stroke="white" stroke-opacity="0.4"/>
	<path opacity="0.5" fill-rule="evenodd" clip-rule="evenodd" d="M39.0508 25.6534C39.0508 26.8873 38.0247 27.8737 36.7918 27.825L24.3053 27.3323C23.111 27.2851 22.167 26.3032 22.167 25.1079C22.167 23.8365 23.2299 22.8234 24.4997 22.8843L36.9815 23.4826C38.1401 23.5381 39.0508 24.4936 39.0508 25.6534Z" fill="#D0D0D0" stroke="#DFE0E3" stroke-linecap="round" stroke-linejoin="round"/>
	<path opacity="0.5" fill-rule="evenodd" clip-rule="evenodd" d="M46.8851 45.238C46.8851 46.3701 45.9663 47.2874 44.8342 47.2855L24.2929 47.2519C23.1182 47.25 22.167 46.2972 22.167 45.1226C22.167 43.9386 23.1328 42.9819 24.3168 42.9933L44.8572 43.1906C45.9803 43.2014 46.8851 44.1149 46.8851 45.238Z" fill="#D0D0D0" stroke="#DFE0E3" stroke-linecap="round" stroke-linejoin="round"/>
	<path opacity="0.5" fill-rule="evenodd" clip-rule="evenodd" d="M45.2012 70.9364C45.2012 72.1146 44.2769 73.0856 43.1001 73.1436L24.57 74.0573C23.2624 74.1217 22.167 73.079 22.167 71.7699C22.167 70.5412 23.1365 69.5315 24.3642 69.4816L42.9015 68.7282C44.1562 68.6772 45.2012 69.6806 45.2012 70.9364Z" fill="#D0D0D0" stroke="#DFE0E3" stroke-linecap="round" stroke-linejoin="round"/>
	<path opacity="0.5" fill-rule="evenodd" clip-rule="evenodd" d="M42.1326 58.0381C42.1326 59.2148 41.1936 60.1765 40.0172 60.2044L24.4532 60.5746C23.1995 60.6044 22.167 59.5962 22.167 58.342C22.167 57.122 23.1461 56.1278 24.366 56.1092L39.9326 55.8715C41.1422 55.853 42.1326 56.8284 42.1326 58.0381Z" fill="#D0D0D0" stroke="#DFE0E3" stroke-linecap="round" stroke-linejoin="round"/>
	<g filter="url(#filter0_d_11011_47137)">
		<path fill-rule="evenodd" clip-rule="evenodd" d="M88.4584 61.1031C88.6544 61.3162 88.6544 61.6696 88.4584 61.8935L87.1479 63.4015C86.952 63.6281 86.6342 63.6362 86.4357 63.4258L78.5326 54.8823C76.2106 52.3708 72.3583 52.4059 69.9728 55.0064C67.5635 57.6312 67.5635 61.8719 69.9728 64.3835L79.9808 74.8126C81.4184 76.3098 83.7325 76.1695 85.1463 74.5185C86.5522 72.8784 86.5522 70.3426 85.1463 68.8427L76.4198 59.5385C75.824 58.9045 74.8894 58.9261 74.2884 59.5897C73.6874 60.2561 73.6874 61.2785 74.2884 61.9124L81.2967 69.3175C81.4979 69.5306 81.4979 69.8894 81.2967 70.1187L79.9437 71.6725C79.7425 71.9045 79.4142 71.9207 79.2103 71.7103L72.1386 64.3079C70.3408 62.425 70.3408 59.2876 72.1386 57.3075C73.9231 55.3436 76.7772 55.3005 78.5299 57.1834L87.1796 66.4903C89.6763 69.1772 89.6763 73.72 87.1796 76.6605C84.6538 79.6333 80.4812 79.9165 77.8839 77.2351L67.7832 66.8086C64.1295 63.0346 64.1295 56.6304 67.7832 52.681C71.384 48.791 77.1611 48.7829 80.6242 52.5596L88.4584 61.1058V61.1031Z" fill="white" fill-opacity="0.9" shape-rendering="crispEdges"/>
	</g>
	<mask id="path-9-inside-1_11011_47137" fill="white">
		<path fill-rule="evenodd" clip-rule="evenodd" d="M52.4951 6.3291L52.9939 26.2788C53.0617 28.9907 55.2796 31.1539 57.9923 31.1539H73.3346C72.9945 29.2996 72.2203 27.5409 71.0625 26.0273L59.3683 10.7401C57.6529 8.4978 55.2143 6.94666 52.4951 6.3291Z"/>
	</mask>
	<path fill-rule="evenodd" clip-rule="evenodd" d="M52.4951 6.3291L52.9939 26.2788C53.0617 28.9907 55.2796 31.1539 57.9923 31.1539H73.3346C72.9945 29.2996 72.2203 27.5409 71.0625 26.0273L59.3683 10.7401C57.6529 8.4978 55.2143 6.94666 52.4951 6.3291Z" fill="#EBEBEB"/>
	<path d="M52.9939 26.2788L51.9942 26.3038L52.9939 26.2788ZM52.4951 6.3291L52.7166 5.35393C52.4157 5.28561 52.1002 5.35998 51.8615 5.55546C51.6228 5.75095 51.4877 6.04567 51.4954 6.35409L52.4951 6.3291ZM73.3346 31.1539V32.1539C73.6314 32.1539 73.9128 32.022 74.1028 31.794C74.2928 31.566 74.3717 31.2654 74.3182 30.9735L73.3346 31.1539ZM71.0625 26.0273L70.2682 26.6349V26.6349L71.0625 26.0273ZM59.3683 10.7401L60.1625 10.1326H60.1625L59.3683 10.7401ZM53.9935 26.2538L53.4948 6.30411L51.4954 6.35409L51.9942 26.3038L53.9935 26.2538ZM57.9923 30.1539C55.8221 30.1539 54.0478 28.4234 53.9935 26.2538L51.9942 26.3038C52.0755 29.5581 54.737 32.1539 57.9923 32.1539V30.1539ZM73.3346 30.1539H57.9923V32.1539H73.3346V30.1539ZM70.2682 26.6349C71.3295 28.0223 72.0393 29.6345 72.351 31.3343L74.3182 30.9735C73.9498 28.9647 73.111 27.0594 71.8567 25.4198L70.2682 26.6349ZM58.574 11.3477L70.2682 26.6349L71.8567 25.4198L60.1625 10.1326L58.574 11.3477ZM52.2736 7.30427C54.7662 7.87036 57.0017 9.29228 58.574 11.3477L60.1625 10.1326C58.3042 7.70332 55.6624 6.02295 52.7166 5.35393L52.2736 7.30427Z" fill="#DFE0E3" mask="url(#path-9-inside-1_11011_47137)"/>
	<defs>
		<filter id="filter0_d_11011_47137" x="55.043" y="43.7451" width="44.0088" height="49.335" filterUnits="userSpaceOnUse" color-interpolation-filters="sRGB">
			<feFlood flood-opacity="0" result="BackgroundImageFix"/>
			<feColorMatrix in="SourceAlpha" type="matrix" values="0 0 0 0 0 0 0 0 0 0 0 0 0 0 0 0 0 0 127 0" result="hardAlpha"/>
			<feOffset dy="4"/>
			<feGaussianBlur stdDeviation="5"/>
			<feComposite in2="hardAlpha" operator="out"/>
			<feColorMatrix type="matrix" values="0 0 0 0 0 0 0 0 0 0 0 0 0 0 0 0 0 0 0.05 0"/>
			<feBlend mode="normal" in2="BackgroundImageFix" result="effect1_dropShadow_11011_47137"/>
			<feBlend mode="normal" in="SourceGraphic" in2="effect1_dropShadow_11011_47137" result="shape"/>
		</filter>
	</defs>
</svg>
