<svg width="109" height="108" viewBox="0 0 109 108" fill="none" xmlns="http://www.w3.org/2000/svg">
	<path d="M73.0313 92.7071C73.0313 96.5357 70.1475 99.7497 66.3413 100.163L20.3872 105.156C15.9505 105.638 12.0771 102.162 12.0771 97.6995V11.471C12.0771 7.08077 15.8313 3.62927 20.206 3.99739L50.8013 6.57188C54.0334 6.84385 57.0003 8.46803 58.971 11.0442L70.6652 26.3314C72.1998 28.3375 73.0313 30.7929 73.0313 33.3186V92.7071Z" fill="white" stroke="#DFE0E3"/>
	<path fill-rule="evenodd" clip-rule="evenodd" d="M97.4233 78.0784C97.4233 83.2406 93.494 87.5544 88.3542 88.0349L67.0647 90.0254C61.1997 90.5737 56.1338 85.9593 56.1338 80.0688V49.7945C56.1338 44.2308 60.6749 39.7369 66.2383 39.7951L87.5278 40.0176C93.0096 40.0749 97.4233 44.535 97.4233 50.0171V78.0784Z" fill="#C8C9CD" fill-opacity="0.68"/>
	<path d="M96.9233 78.0784C96.9233 82.9825 93.1904 87.0806 88.3076 87.5371L67.0181 89.5276C61.4464 90.0485 56.6338 85.6648 56.6338 80.0688V49.7945C56.6338 44.509 60.9479 40.2398 66.2331 40.2951L87.5226 40.5176C92.7303 40.572 96.9233 44.8091 96.9233 50.0171V78.0784Z" stroke="white" stroke-opacity="0.4"/>
	<path opacity="0.5" fill-rule="evenodd" clip-rule="evenodd" d="M39.0508 25.6534C39.0508 26.8873 38.0247 27.8737 36.7918 27.825L24.3053 27.3323C23.111 27.2851 22.167 26.3032 22.167 25.1079C22.167 23.8365 23.2299 22.8234 24.4997 22.8843L36.9815 23.4826C38.1401 23.5381 39.0508 24.4936 39.0508 25.6534Z" fill="#D0D0D0" stroke="#DFE0E3" stroke-linecap="round" stroke-linejoin="round"/>
	<path opacity="0.5" fill-rule="evenodd" clip-rule="evenodd" d="M46.8851 45.238C46.8851 46.3701 45.9663 47.2874 44.8342 47.2855L24.2929 47.2519C23.1182 47.25 22.167 46.2972 22.167 45.1226C22.167 43.9386 23.1328 42.9819 24.3168 42.9933L44.8572 43.1906C45.9803 43.2014 46.8851 44.1149 46.8851 45.238Z" fill="#D0D0D0" stroke="#DFE0E3" stroke-linecap="round" stroke-linejoin="round"/>
	<path opacity="0.5" fill-rule="evenodd" clip-rule="evenodd" d="M45.2012 70.9364C45.2012 72.1146 44.2769 73.0856 43.1001 73.1436L24.57 74.0573C23.2624 74.1217 22.167 73.079 22.167 71.7699C22.167 70.5412 23.1365 69.5315 24.3642 69.4816L42.9015 68.7282C44.1562 68.6772 45.2012 69.6806 45.2012 70.9364Z" fill="#D0D0D0" stroke="#DFE0E3" stroke-linecap="round" stroke-linejoin="round"/>
	<path opacity="0.5" fill-rule="evenodd" clip-rule="evenodd" d="M42.1326 58.0381C42.1326 59.2148 41.1936 60.1765 40.0172 60.2044L24.4532 60.5746C23.1995 60.6044 22.167 59.5962 22.167 58.342C22.167 57.122 23.1461 56.1278 24.366 56.1092L39.9326 55.8715C41.1422 55.853 42.1326 56.8284 42.1326 58.0381Z" fill="#D0D0D0" stroke="#DFE0E3" stroke-linecap="round" stroke-linejoin="round"/>
	<g filter="url(#filter0_d_10950_51462)">
		<path fill-rule="evenodd" clip-rule="evenodd" d="M79.0836 52.9723C81.5141 49.986 85.2049 49.3143 87.7493 52.449C88.9831 53.9704 89.4702 55.8318 89.3087 57.7121C89.1499 59.5546 88.3741 61.3296 87.225 62.7944L83.844 67.1835C82.4858 68.91 81.0323 69.927 79.4834 69.9999C77.9266 70.0727 76.5234 69.1744 75.2764 67.7231C74.9851 67.3832 74.7257 67.0163 74.498 66.6251C74.1776 66.0748 74.2968 65.3006 74.7627 64.8986C75.2287 64.4967 75.8615 64.6154 76.1819 65.1657C76.3381 65.4328 76.5155 65.689 76.7167 65.9264C77.7386 67.1242 78.6547 67.5909 79.4834 67.5585C80.3095 67.5234 81.2917 66.9839 82.4435 65.5326L85.8456 61.1435C86.767 59.9808 87.2859 58.6913 87.3892 57.499C87.4898 56.3444 87.2092 55.1898 86.3778 54.1701C84.7601 52.19 82.3349 52.4247 80.5054 54.6826L77.9716 57.9063C77.5824 58.4 76.9417 58.4242 76.5419 57.9603C76.1395 57.4963 76.1289 56.7166 76.5207 56.223L79.0863 52.9804L79.0836 52.9723ZM75.324 60.1507C76.9205 59.9511 78.3741 60.7092 79.6449 62.1308L79.6555 62.1416L80.3889 63.013C80.7781 63.477 80.7781 64.2485 80.3889 64.7368C79.9997 65.2277 79.3643 65.2493 78.9724 64.788L78.2576 63.9436C77.2753 62.8565 76.3619 62.4896 75.4961 62.6029C74.5906 62.7216 73.5157 63.3933 72.274 64.9256L68.75 69.2904C66.8146 71.6832 66.6293 74.7963 68.3767 76.7764C69.2742 77.7934 70.283 78.0901 71.2785 77.8986C72.3005 77.7017 73.3966 76.9679 74.3656 75.7432L76.8914 72.5411C77.2859 72.0393 77.9266 72.0069 78.3211 72.4655C78.7156 72.9241 78.7156 73.6984 78.3211 74.1974L75.8112 77.3995C74.5959 78.948 73.0921 80.0432 71.5035 80.3562C69.8726 80.6799 68.2364 80.1565 66.8861 78.6405C64.1087 75.5166 64.6753 70.7579 67.2594 67.5855L70.8046 63.2207C72.2396 61.4564 73.7513 60.3504 75.3267 60.1534L75.324 60.1507Z" fill="white" fill-opacity="0.9" shape-rendering="crispEdges"/>
	</g>
	<mask id="path-9-inside-1_10950_51462" fill="white">
		<path fill-rule="evenodd" clip-rule="evenodd" d="M52.4951 6.3291L52.9939 26.2788C53.0617 28.9907 55.2796 31.1539 57.9923 31.1539H73.3346C72.9945 29.2996 72.2203 27.5409 71.0625 26.0273L59.3683 10.7401C57.6529 8.4978 55.2143 6.94666 52.4951 6.3291Z"/>
	</mask>
	<path fill-rule="evenodd" clip-rule="evenodd" d="M52.4951 6.3291L52.9939 26.2788C53.0617 28.9907 55.2796 31.1539 57.9923 31.1539H73.3346C72.9945 29.2996 72.2203 27.5409 71.0625 26.0273L59.3683 10.7401C57.6529 8.4978 55.2143 6.94666 52.4951 6.3291Z" fill="#EBEBEB"/>
	<path d="M52.9939 26.2788L51.9942 26.3038L52.9939 26.2788ZM52.4951 6.3291L52.7166 5.35393C52.4157 5.28561 52.1002 5.35998 51.8615 5.55546C51.6228 5.75095 51.4877 6.04567 51.4954 6.35409L52.4951 6.3291ZM73.3346 31.1539V32.1539C73.6314 32.1539 73.9128 32.022 74.1028 31.794C74.2928 31.566 74.3717 31.2654 74.3182 30.9735L73.3346 31.1539ZM71.0625 26.0273L70.2682 26.6349V26.6349L71.0625 26.0273ZM59.3683 10.7401L60.1625 10.1326H60.1625L59.3683 10.7401ZM53.9935 26.2538L53.4948 6.30411L51.4954 6.35409L51.9942 26.3038L53.9935 26.2538ZM57.9923 30.1539C55.8221 30.1539 54.0478 28.4234 53.9935 26.2538L51.9942 26.3038C52.0755 29.5581 54.737 32.1539 57.9923 32.1539V30.1539ZM73.3346 30.1539H57.9923V32.1539H73.3346V30.1539ZM70.2682 26.6349C71.3295 28.0223 72.0393 29.6345 72.351 31.3343L74.3182 30.9735C73.9498 28.9647 73.111 27.0594 71.8567 25.4198L70.2682 26.6349ZM58.574 11.3477L70.2682 26.6349L71.8567 25.4198L60.1625 10.1326L58.574 11.3477ZM52.2736 7.30427C54.7662 7.87036 57.0017 9.29228 58.574 11.3477L60.1625 10.1326C58.3042 7.70332 55.6624 6.02295 52.7166 5.35393L52.2736 7.30427Z" fill="#DFE0E3" mask="url(#path-9-inside-1_10950_51462)"/>
	<defs>
		<filter id="filter0_d_10950_51462" x="55.0469" y="44.3936" width="44.292" height="50.0537" filterUnits="userSpaceOnUse" color-interpolation-filters="sRGB">
			<feFlood flood-opacity="0" result="BackgroundImageFix"/>
			<feColorMatrix in="SourceAlpha" type="matrix" values="0 0 0 0 0 0 0 0 0 0 0 0 0 0 0 0 0 0 127 0" result="hardAlpha"/>
			<feOffset dy="4"/>
			<feGaussianBlur stdDeviation="5"/>
			<feComposite in2="hardAlpha" operator="out"/>
			<feColorMatrix type="matrix" values="0 0 0 0 0 0 0 0 0 0 0 0 0 0 0 0 0 0 0.05 0"/>
			<feBlend mode="normal" in2="BackgroundImageFix" result="effect1_dropShadow_10950_51462"/>
			<feBlend mode="normal" in="SourceGraphic" in2="effect1_dropShadow_10950_51462" result="shape"/>
		</filter>
	</defs>
</svg>
