<svg width="109" height="108" viewBox="0 0 109 108" fill="none" xmlns="http://www.w3.org/2000/svg">
	<g clip-path="url(#clip0_11011_49124)">
		<path d="M13.0496 5.50612L13.0498 5.50613L69.0113 8.02485C72.2314 8.17068 75 11.6551 75 16.0426V81.8477C75 86.2356 72.2263 89.7788 69.003 89.9786L69.0027 89.9786L13.041 93.4883C9.24474 93.7268 6 90.2424 6 85.4832V13.6465C6 8.88242 9.25154 5.3338 13.0496 5.50612Z" fill="white" stroke="#DFE0E3"/>
		<path opacity="0.5" fill-rule="evenodd" clip-rule="evenodd" d="M13.6148 75.3815C13.614 75.3815 13.6133 75.3822 13.6133 75.383C13.614 75.9964 14.0587 76.4762 14.6059 76.4562L63.9959 74.5203C64.4844 74.5003 64.8796 74.0163 64.8796 73.4355V67.1105C64.8796 66.8368 64.7894 66.5731 64.6275 66.3828L53.2291 52.9317C52.8651 52.5044 52.2676 52.5211 51.916 52.9717L45.8076 60.7888C45.4342 61.2661 44.7932 61.2694 44.4322 60.7921L28.6213 39.9578C28.2386 39.4538 27.5509 39.4505 27.1681 39.9545L13.8591 57.4043C13.7035 57.6079 13.6164 57.8716 13.6164 58.1386V75.3799C13.6164 75.3808 13.6157 75.3815 13.6148 75.3815Z" fill="#D0D0D0" stroke="#DFE0E3" stroke-linecap="round" stroke-linejoin="round"/>
		<path opacity="0.5" fill-rule="evenodd" clip-rule="evenodd" d="M53.7767 37.3861C57.2961 37.4062 60.1247 34.0817 60.1247 29.9663C60.1247 25.8508 57.293 22.4463 53.7767 22.3629C50.2293 22.2794 47.3291 25.6005 47.3291 29.7827C47.3291 33.9649 50.2262 37.3694 53.7767 37.3861Z" fill="#D0D0D0" stroke="#DFE0E3" stroke-linecap="round" stroke-linejoin="round"/>
		<path d="M68.5947 63.4387C68.5947 57.671 72.4875 52.9447 77.2392 52.8813L100.509 52.5709C104.943 52.5108 108.503 56.9133 108.503 62.4006V90.2275C108.503 95.7148 104.946 100.428 100.509 100.758L77.2392 102.484C72.4875 102.834 68.5947 98.4484 68.5947 92.6808V63.4387Z" fill="#C8C9CD" fill-opacity="0.68"/>
		<path d="M100.516 53.0709L100.516 53.0709C104.572 53.0159 108.003 57.082 108.003 62.4006V90.2275C108.003 95.5485 104.563 99.9548 100.472 100.26C100.472 100.26 100.472 100.26 100.472 100.26L77.2024 101.985C72.8323 102.307 69.0947 98.2586 69.0947 92.6808V63.4387C69.0947 57.8548 72.8495 53.44 77.2459 53.3813L100.516 53.0709Z" stroke="white" stroke-opacity="0.4"/>
		<g filter="url(#filter0_d_11011_49124)">
			<path fill-rule="evenodd" clip-rule="evenodd" d="M98.2475 74.3666C98.4249 74.5769 98.4249 74.934 98.2475 75.1576L97.0619 76.6797C96.8845 76.9066 96.5983 76.92 96.4209 76.7064L89.351 68.2685C87.2941 65.8152 83.9054 65.9154 81.8205 68.5155C79.7263 71.129 79.7263 75.2945 81.8205 77.7477L90.6392 88.0714C91.9182 89.5701 93.9906 89.4466 95.2602 87.8078C96.5267 86.1722 96.5267 83.6322 95.2602 82.1336L87.4808 72.9147C86.9549 72.2938 86.1303 72.3239 85.6013 72.9881C85.0723 73.6523 85.0723 74.6637 85.6013 75.2845L91.8124 82.6075C91.9928 82.8178 91.9928 83.1783 91.8124 83.4052L90.6081 84.9506C90.4276 85.1809 90.1351 85.1976 89.9546 84.984L83.7156 77.661C82.1441 75.8152 82.1441 72.7244 83.7156 70.7518C85.2839 68.7892 87.7982 68.7057 89.351 70.5515L97.093 79.7704C99.3553 82.464 99.3553 87.0267 97.093 89.9606C94.8308 92.8945 91.0842 93.1515 88.7753 90.4613L79.9161 80.1409C76.7545 76.456 76.7545 70.1844 79.9161 66.2592C83.0527 62.364 88.1374 62.2338 91.2118 65.9221L98.2506 74.3633L98.2475 74.3666Z" fill="white" fill-opacity="0.9" shape-rendering="crispEdges"/>
		</g>
	</g>
	<defs>
		<filter id="filter0_d_11011_49124" x="67.5449" y="57.2441" width="41.2451" height="49.0859" filterUnits="userSpaceOnUse" color-interpolation-filters="sRGB">
			<feFlood flood-opacity="0" result="BackgroundImageFix"/>
			<feColorMatrix in="SourceAlpha" type="matrix" values="0 0 0 0 0 0 0 0 0 0 0 0 0 0 0 0 0 0 127 0" result="hardAlpha"/>
			<feOffset dy="4"/>
			<feGaussianBlur stdDeviation="5"/>
			<feComposite in2="hardAlpha" operator="out"/>
			<feColorMatrix type="matrix" values="0 0 0 0 0 0 0 0 0 0 0 0 0 0 0 0 0 0 0.05 0"/>
			<feBlend mode="normal" in2="BackgroundImageFix" result="effect1_dropShadow_11011_49124"/>
			<feBlend mode="normal" in="SourceGraphic" in2="effect1_dropShadow_11011_49124" result="shape"/>
		</filter>
		<clipPath id="clip0_11011_49124">
			<rect width="108" height="108" fill="white" transform="translate(0.5)"/>
		</clipPath>
	</defs>
</svg>
