<svg xmlns="http://www.w3.org/2000/svg" width="99" height="100" fill="none"><g filter="url(#a)"><circle cx="44.5" cy="48.497" r="35.087" fill="#fff"/><circle cx="44.5" cy="48.497" r="34.087" stroke="#EEEFF0" stroke-width="2"/></g><path fill="#D3D6D9" fill-rule="evenodd" d="m60.306 46.742-7.025 7.024c-3.878 3.88-10.169 3.88-14.047 0-.611-.61-1.089-1.296-1.509-2.003l3.265-3.265c.155-.156.347-.246.53-.351.225.77.62 1.5 1.226 2.107a4.97 4.97 0 0 0 7.023 0l7.024-7.023a4.97 4.97 0 0 0 0-7.025 4.972 4.972 0 0 0-7.024 0l-2.498 2.5c-2.026-.789-4.21-1.001-6.336-.69l5.322-5.321c3.88-3.88 10.17-3.88 14.05 0 3.877 3.879 3.877 10.169 0 14.047ZM41.733 58.294l-2.5 2.5a4.975 4.975 0 0 1-7.024 0 4.975 4.975 0 0 1 0-7.025l7.024-7.024a4.97 4.97 0 0 1 7.024 0c.605.605 1 1.335 1.227 2.105.184-.107.373-.194.529-.349l3.264-3.263c-.417-.71-.898-1.395-1.509-2.004-3.877-3.88-10.168-3.88-14.047 0l-7.024 7.023c-3.879 3.88-3.879 10.169 0 14.049 3.88 3.878 10.17 3.878 14.048 0l5.324-5.323c-2.127.313-4.311.099-6.336-.689Z" clip-rule="evenodd"/><circle cx="73" cy="70.5" r="15.5" fill="#A8ADB4"/><path fill="#fff" fill-rule="evenodd" d="M73.663 74.089v1.673h-1.326V74.09a1.06 1.06 0 0 1-.391-.825c0-.585.472-1.06 1.054-1.06.582 0 1.054.475 1.054 1.06 0 .333-.153.63-.391.825Zm-3.549-6.8A2.895 2.895 0 0 1 73 64.387c1.594 0 2.886 1.3 2.886 2.904v2.454h-5.772V67.29Zm7.297 2.455v-2.455c0-2.45-1.975-4.438-4.411-4.438-2.436 0-4.41 1.987-4.41 4.438v2.455h-.84a.5.5 0 0 0-.5.5v7.405a.5.5 0 0 0 .5.5h10.5a.5.5 0 0 0 .5-.5v-7.405a.5.5 0 0 0-.5-.5h-.84Z" clip-rule="evenodd"/><defs><filter id="a" width="86.198" height="86.198" x="1.401" y="8.069" color-interpolation-filters="sRGB" filterUnits="userSpaceOnUse"><feFlood flood-opacity="0" result="BackgroundImageFix"/><feColorMatrix in="SourceAlpha" result="hardAlpha" values="0 0 0 0 0 0 0 0 0 0 0 0 0 0 0 0 0 0 127 0"/><feOffset dy="2.671"/><feGaussianBlur stdDeviation="4.006"/><feComposite in2="hardAlpha" operator="out"/><feColorMatrix values="0 0 0 0 0.423529 0 0 0 0 0.423529 0 0 0 0 0.423529 0 0 0 0.08 0"/><feBlend in2="BackgroundImageFix" result="effect1_dropShadow_6611_672864"/><feBlend in="SourceGraphic" in2="effect1_dropShadow_6611_672864" result="shape"/></filter></defs></svg>