<svg width="173" height="198" fill="none" xmlns="http://www.w3.org/2000/svg"><g clip-path="url(#a)" filter="url(#b)"><g filter="url(#c)"><rect x="10" y="5" width="152.679" height="315.139" rx="25.049" fill="#000" shape-rendering="crispEdges"/><rect x="11.37" y="6.372" width="149.936" height="312.396" rx="23.677" stroke="#565553" stroke-width="1.551"/><rect x="10.297" y="5.298" width="152.083" height="314.543" rx="24.751" stroke="#3F3E3B" stroke-width=".596"/><g opacity=".9" filter="url(#d)"><rect x="10.595" y="5.716" width="151.486" height="313.827" rx="24.572" stroke="#31302E" stroke-width=".596"/></g><g opacity=".8" filter="url(#e)"><rect x="12.622" y="7.625" width="147.431" height="309.891" rx="22.425" stroke="#646464" stroke-width=".239"/></g><g clip-path="url(#f)"><rect x="16.463" y="11.38" width="139.558" height="302.018" rx="19.681" fill="#fff"/><path fill="#fff" d="M16.439 11.662h139.634v248.343H16.439z"/><path fill="url(#g)" d="M16.439 10.622h139.634v249.28H16.439z"/><path d="M64.109 104.645h2.594V95.79h-2.594v8.855ZM63.84 93.056c0-.805.672-1.46 1.575-1.46.884 0 1.556.618 1.556 1.46 0 .824-.672 1.498-1.556 1.498-.903 0-1.575-.655-1.575-1.498Z" fill="#fff"/><path fill-rule="evenodd" clip-rule="evenodd" d="M53.924 92.308h3.977c2.748 0 3.978 1.553 3.978 3.126 0 1.011-.519 2.003-1.499 2.49v.037c1.518.394 2.363 1.592 2.363 2.977 0 1.872-1.498 3.707-4.496 3.707h-4.323V92.308Zm3.977 10.24c1.46 0 2.19-.487 2.19-1.61 0-.955-.73-1.498-1.94-1.498h-1.595v3.108h1.345Zm-.346-5.205c1.153 0 1.749-.636 1.749-1.441 0-.843-.577-1.498-1.806-1.498h-.942v2.94h1Z" fill="#fff"/><path d="M69.18 97.755v4.587c0 1.554 1.076 2.49 2.805 2.49.903 0 2.094-.243 2.767-.693l-.75-1.722a2.57 2.57 0 0 1-1.345.393c-.595 0-.864-.281-.864-1.104v-3.95h2.152l.595-1.966h-2.747v-2.808l-2.613.73v2.078h-1.672v1.965h1.672ZM75.463 95.79h2.19l.289.936c.768-.693 1.498-1.16 2.478-1.16.442 0 .98.13 1.384.411l-.904 2.097a2.257 2.257 0 0 0-1.152-.337c-.558 0-1 .187-1.691.73v6.178h-2.594V95.79ZM84.898 104.645h-2.594V95.79h2.594v8.855ZM83.61 91.596c-.902 0-1.575.655-1.575 1.46 0 .843.673 1.498 1.576 1.498.883 0 1.556-.674 1.556-1.498 0-.842-.672-1.46-1.556-1.46ZM88.99 100.189l-3.323-4.4h2.69l2.036 2.697 2.037-2.696h2.69l-3.363 4.399 3.401 4.456h-2.69l-2.094-2.771-2.114 2.771h-2.69l3.42-4.456ZM119.478 95.207h2.562V94.18h-1.537v-1.797h-1.025v2.823Z" fill="#fff"/><path fill-rule="evenodd" clip-rule="evenodd" d="M119.992 90.074a4.615 4.615 0 0 0-4.613 4.618 4.615 4.615 0 0 0 4.613 4.618 4.616 4.616 0 0 0 4.613-4.618 4.616 4.616 0 0 0-4.613-4.618Zm0 8.21a3.59 3.59 0 0 1-3.588-3.592 3.59 3.59 0 0 1 3.588-3.592 3.59 3.59 0 0 1 3.588 3.592 3.59 3.59 0 0 1-3.588 3.592Z" fill="#fff"/><path d="M102.231 95.94c0-1.048-.865-1.415-1.785-1.415-1.233 0-2.245.404-3.183.826l-.644-1.927c1.048-.478 2.502-1.01 4.232-1.01 2.705 0 4.011 1.358 4.011 3.268 0 1.891-1.474 3.012-2.893 4.092-1.088.828-2.145 1.631-2.48 2.739h5.539v2.129h-8.814c.3-3.611 2.44-5.164 4.084-6.357 1.072-.778 1.933-1.403 1.933-2.346Z" fill="#fff"/><path fill-rule="evenodd" clip-rule="evenodd" d="m104.585 100.163 6.072-7.712h1.804v7.29h1.803v2.019h-1.803v2.883h-2.448v-2.883h-5.428v-1.597Zm4.324-.423h1.104v-1.303c0-.937.074-2.02.111-2.259l-2.742 3.617a30.024 30.024 0 0 1 1.527-.055Z" fill="#fff"/></g><rect x="64.27" y="16.331" width="44.134" height="12.882" rx="6.441" fill="#000"/><g opacity=".75"><rect x="96.595" y="19.79" width="5.964" height="5.964" rx="2.982" fill="#121212"/><rect x="96.595" y="19.79" width="5.964" height="5.964" rx="2.982" stroke="#0E0E0E" stroke-width=".239"/><g filter="url(#h)"><path d="M98.913 21.443c-1.008.295-1.343 1.994 0 2.658-.336-.886-.336-1.698 0-2.658Z" fill="#50A99A"/></g><g filter="url(#i)"><path d="M98.692 22.057c-.504.159-.672 1.073 0 1.431-.168-.477-.168-.915 0-1.431Z" fill="#50A99A"/></g><g opacity=".4" filter="url(#j)"><path d="M98.898 21.826c-.431.065-.747 1.26-.225 1.576-.185-.426-.093-1.278.225-1.576Z" fill="#D0FFF7"/></g><g filter="url(#k)"><path d="M100.242 21.443c1.008.295 1.344 1.994 0 2.658.336-.886.336-1.698 0-2.658Z" fill="#3E518C"/></g><g filter="url(#l)"><path d="M100.464 22.057c.503.159.671 1.073 0 1.431.168-.477.168-.915 0-1.431Z" fill="#26408D"/></g><g opacity=".5" filter="url(#m)"><path d="M100.256 21.826c.432.065.747 1.26.226 1.576.185-.426.092-1.278-.226-1.576Z" fill="#0D308C"/></g></g><g opacity=".4"><rect width="8.588" height="8.588" rx="4.294" transform="matrix(-1 0 0 1 75.006 18.478)" fill="#141414"/><rect width="5.582" height="5.582" rx="2.791" transform="matrix(-1 0 0 1 73.503 19.981)" fill="#000"/><g filter="url(#n)"><path d="M71.55 21.098c1.269.372 1.692 2.512 0 3.35.422-1.117.422-2.14 0-3.35Z" fill="#50A99A"/></g><g filter="url(#o)"><path d="M71.829 21.87c.634.201.846 1.353 0 1.804.211-.601.211-1.152 0-1.803Z" fill="#50A99A"/></g><g opacity=".5" filter="url(#p)"><path d="M71.567 21.58c.544.082.942 1.587.285 1.987.232-.537.116-1.61-.285-1.987Z" fill="#D0FFF7"/></g><g filter="url(#q)"><path d="M69.874 21.098c-1.27.372-1.692 2.512 0 3.35-.423-1.117-.423-2.14 0-3.35Z" fill="#3E518C"/></g><g filter="url(#r)"><path d="M69.595 21.87c-.635.201-.846 1.353 0 1.804-.212-.601-.212-1.152 0-1.803Z" fill="#26408D"/></g><g opacity=".5" filter="url(#s)"><path d="M69.856 21.58c-.544.082-.941 1.587-.284 1.987-.233-.537-.117-1.61.284-1.987Z" fill="#0D308C"/></g></g><g opacity=".5"><path fill="#7C7C7C" d="M160.527 36.848h2.147v1.908h-2.147zM9.997 36.848h2.147v1.908H9.997zM131.545 5h1.908v2.147h-1.908z" style="mix-blend-mode:screen" opacity=".75"/></g></g></g><defs><filter id="b" x=".265" y=".133" width="172.47" height="197.47" filterUnits="userSpaceOnUse" color-interpolation-filters="sRGB"><feFlood flood-opacity="0" result="BackgroundImageFix"/><feColorMatrix in="SourceAlpha" values="0 0 0 0 0 0 0 0 0 0 0 0 0 0 0 0 0 0 127 0" result="hardAlpha"/><feOffset dy="4.867"/><feGaussianBlur stdDeviation="4.867"/><feComposite in2="hardAlpha" operator="out"/><feColorMatrix values="0 0 0 0 0 0 0 0 0 0 0 0 0 0 0 0 0 0 0.12 0"/><feBlend in2="BackgroundImageFix" result="effect1_dropShadow_685_9329"/><feBlend in="SourceGraphic" in2="effect1_dropShadow_685_9329" result="shape"/></filter><filter id="c" x="-1.49" y="-.743" width="175.655" height="338.112" filterUnits="userSpaceOnUse" color-interpolation-filters="sRGB"><feFlood flood-opacity="0" result="BackgroundImageFix"/><feColorMatrix in="SourceAlpha" values="0 0 0 0 0 0 0 0 0 0 0 0 0 0 0 0 0 0 127 0" result="hardAlpha"/><feOffset dy="5.743"/><feGaussianBlur stdDeviation="5.743"/><feComposite in2="hardAlpha" operator="out"/><feColorMatrix values="0 0 0 0 0 0 0 0 0 0 0 0 0 0 0 0 0 0 0.12 0"/><feBlend in2="BackgroundImageFix" result="effect1_dropShadow_685_9329"/><feBlend in="SourceGraphic" in2="effect1_dropShadow_685_9329" result="shape"/></filter><filter id="d" x="9.939" y="5.06" width="152.799" height="315.14" filterUnits="userSpaceOnUse" color-interpolation-filters="sRGB"><feFlood flood-opacity="0" result="BackgroundImageFix"/><feBlend in="SourceGraphic" in2="BackgroundImageFix" result="shape"/><feGaussianBlur stdDeviation=".179" result="effect1_foregroundBlur_685_9329"/></filter><filter id="e" x="12.264" y="7.267" width="148.147" height="310.607" filterUnits="userSpaceOnUse" color-interpolation-filters="sRGB"><feFlood flood-opacity="0" result="BackgroundImageFix"/><feBlend in="SourceGraphic" in2="BackgroundImageFix" result="shape"/><feGaussianBlur stdDeviation=".119" result="effect1_foregroundBlur_685_9329"/></filter><filter id="h" x="97.362" y="20.778" width="2.215" height="3.987" filterUnits="userSpaceOnUse" color-interpolation-filters="sRGB"><feFlood flood-opacity="0" result="BackgroundImageFix"/><feBlend in="SourceGraphic" in2="BackgroundImageFix" result="shape"/><feGaussianBlur stdDeviation=".332" result="effect1_foregroundBlur_685_9329"/></filter><filter id="i" x="97.584" y="21.392" width="1.772" height="2.76" filterUnits="userSpaceOnUse" color-interpolation-filters="sRGB"><feFlood flood-opacity="0" result="BackgroundImageFix"/><feBlend in="SourceGraphic" in2="BackgroundImageFix" result="shape"/><feGaussianBlur stdDeviation=".332" result="effect1_foregroundBlur_685_9329"/></filter><filter id="j" x="97.958" y="21.383" width="1.383" height="2.463" filterUnits="userSpaceOnUse" color-interpolation-filters="sRGB"><feFlood flood-opacity="0" result="BackgroundImageFix"/><feBlend in="SourceGraphic" in2="BackgroundImageFix" result="shape"/><feGaussianBlur stdDeviation=".222" result="effect1_foregroundBlur_685_9329"/></filter><filter id="k" x="99.578" y="20.778" width="2.215" height="3.987" filterUnits="userSpaceOnUse" color-interpolation-filters="sRGB"><feFlood flood-opacity="0" result="BackgroundImageFix"/><feBlend in="SourceGraphic" in2="BackgroundImageFix" result="shape"/><feGaussianBlur stdDeviation=".332" result="effect1_foregroundBlur_685_9329"/></filter><filter id="l" x="99.799" y="21.392" width="1.772" height="2.76" filterUnits="userSpaceOnUse" color-interpolation-filters="sRGB"><feFlood flood-opacity="0" result="BackgroundImageFix"/><feBlend in="SourceGraphic" in2="BackgroundImageFix" result="shape"/><feGaussianBlur stdDeviation=".332" result="effect1_foregroundBlur_685_9329"/></filter><filter id="m" x="99.813" y="21.383" width="1.383" height="2.463" filterUnits="userSpaceOnUse" color-interpolation-filters="sRGB"><feFlood flood-opacity="0" result="BackgroundImageFix"/><feBlend in="SourceGraphic" in2="BackgroundImageFix" result="shape"/><feGaussianBlur stdDeviation=".222" result="effect1_foregroundBlur_685_9329"/></filter><filter id="n" x="70.712" y="20.26" width="2.791" height="5.024" filterUnits="userSpaceOnUse" color-interpolation-filters="sRGB"><feFlood flood-opacity="0" result="BackgroundImageFix"/><feBlend in="SourceGraphic" in2="BackgroundImageFix" result="shape"/><feGaussianBlur stdDeviation=".419" result="effect1_foregroundBlur_685_9329"/></filter><filter id="o" x="70.991" y="21.033" width="2.233" height="3.478" filterUnits="userSpaceOnUse" color-interpolation-filters="sRGB"><feFlood flood-opacity="0" result="BackgroundImageFix"/><feBlend in="SourceGraphic" in2="BackgroundImageFix" result="shape"/><feGaussianBlur stdDeviation=".419" result="effect1_foregroundBlur_685_9329"/></filter><filter id="p" x="71.288" y="21.3" width="1.185" height="2.546" filterUnits="userSpaceOnUse" color-interpolation-filters="sRGB"><feFlood flood-opacity="0" result="BackgroundImageFix"/><feBlend in="SourceGraphic" in2="BackgroundImageFix" result="shape"/><feGaussianBlur stdDeviation=".14" result="effect1_foregroundBlur_685_9329"/></filter><filter id="q" x="67.921" y="20.26" width="2.791" height="5.024" filterUnits="userSpaceOnUse" color-interpolation-filters="sRGB"><feFlood flood-opacity="0" result="BackgroundImageFix"/><feBlend in="SourceGraphic" in2="BackgroundImageFix" result="shape"/><feGaussianBlur stdDeviation=".419" result="effect1_foregroundBlur_685_9329"/></filter><filter id="r" x="68.199" y="21.033" width="2.233" height="3.478" filterUnits="userSpaceOnUse" color-interpolation-filters="sRGB"><feFlood flood-opacity="0" result="BackgroundImageFix"/><feBlend in="SourceGraphic" in2="BackgroundImageFix" result="shape"/><feGaussianBlur stdDeviation=".419" result="effect1_foregroundBlur_685_9329"/></filter><filter id="s" x="68.95" y="21.3" width="1.185" height="2.546" filterUnits="userSpaceOnUse" color-interpolation-filters="sRGB"><feFlood flood-opacity="0" result="BackgroundImageFix"/><feBlend in="SourceGraphic" in2="BackgroundImageFix" result="shape"/><feGaussianBlur stdDeviation=".14" result="effect1_foregroundBlur_685_9329"/></filter><clipPath id="a"><path fill="#fff" transform="translate(10 5)" d="M0 0h153v178H0z"/></clipPath><clipPath id="f"><rect x="16.463" y="11.38" width="139.558" height="302.018" rx="19.681" fill="#fff"/></clipPath><linearGradient id="g" x1="119.395" y1="251.119" x2="34.691" y2="14.557" gradientUnits="userSpaceOnUse"><stop offset=".278" stop-color="#007DFF"/><stop offset=".642" stop-color="#13AAFF"/><stop offset=".993" stop-color="#39F5B3"/></linearGradient></defs></svg>