<svg width="16" height="16" viewBox="0 0 16 16" fill="none" xmlns="http://www.w3.org/2000/svg">
<g clip-path="url(#clip0_9089_6131)">
<mask id="path-1-inside-1_9089_6131" fill="white">
<path d="M0 8C0 3.58172 3.58172 0 8 0C12.4183 0 16 3.58172 16 8C16 12.4183 12.4183 16 8 16C3.58172 16 0 12.4183 0 8Z"/>
</mask>
<path d="M0 8C0 3.58172 3.58172 0 8 0C12.4183 0 16 3.58172 16 8C16 12.4183 12.4183 16 8 16C3.58172 16 0 12.4183 0 8Z" fill="#1587FA"/>
<path d="M8 15C4.13401 15 1 11.866 1 8H-1C-1 12.9706 3.02944 17 8 17V15ZM15 8C15 11.866 11.866 15 8 15V17C12.9706 17 17 12.9706 17 8H15ZM8 1C11.866 1 15 4.13401 15 8H17C17 3.02944 12.9706 -1 8 -1V1ZM8 -1C3.02944 -1 -1 3.02944 -1 8H1C1 4.13401 4.13401 1 8 1V-1Z" fill="white" fill-opacity="0.24" mask="url(#path-1-inside-1_9089_6131)"/>
<path fill-rule="evenodd" clip-rule="evenodd" d="M11.7498 4.84928C12.1159 5.14314 12.1744 5.67814 11.8806 6.04422L7.92242 10.9752C7.77459 11.1594 7.55681 11.2737 7.32128 11.2909C7.08575 11.308 6.85371 11.2264 6.68076 11.0656L4.33322 8.88285C3.98943 8.56319 3.96986 8.02536 4.28953 7.68156C4.60919 7.33777 5.14702 7.31821 5.49081 7.63787L7.16891 9.19819L10.5548 4.98006C10.8487 4.61397 11.3837 4.55542 11.7498 4.84928Z" fill="white"/>
</g>
<defs>
<clipPath id="clip0_9089_6131">
<rect width="16" height="16" fill="white"/>
</clipPath>
</defs>
</svg>
