<svg width="16" height="16" viewBox="0 0 16 16" fill="none" xmlns="http://www.w3.org/2000/svg">
<g clip-path="url(#clip0_9089_32844)">
<mask id="path-1-inside-1_9089_32844" fill="white">
<path d="M0 8C0 3.58172 3.58172 0 8 0C12.4183 0 16 3.58172 16 8C16 12.4183 12.4183 16 8 16C3.58172 16 0 12.4183 0 8Z"/>
</mask>
<path d="M0 8C0 3.58172 3.58172 0 8 0C12.4183 0 16 3.58172 16 8C16 12.4183 12.4183 16 8 16C3.58172 16 0 12.4183 0 8Z" fill="#F2473D"/>
<path d="M8 15C4.13401 15 1 11.866 1 8H-1C-1 12.9706 3.02944 17 8 17V15ZM15 8C15 11.866 11.866 15 8 15V17C12.9706 17 17 12.9706 17 8H15ZM8 1C11.866 1 15 4.13401 15 8H17C17 3.02944 12.9706 -1 8 -1V1ZM8 -1C3.02944 -1 -1 3.02944 -1 8H1C1 4.13401 4.13401 1 8 1V-1Z" fill="white" fill-opacity="0.14" mask="url(#path-1-inside-1_9089_32844)"/>
<g filter="url(#filter0_d_9089_32844)">
<path d="M8.9498 4.21562C8.9498 3.69095 8.52448 3.26562 7.9998 3.26562C7.47513 3.26562 7.0498 3.69095 7.0498 4.21562L7.0498 8.49916C7.0498 9.02383 7.47513 9.44916 7.9998 9.44916C8.52448 9.44916 8.9498 9.02383 8.9498 8.49916L8.9498 4.21562Z" fill="white"/>
<path d="M9.0502 11.3225C9.0502 10.7426 8.58009 10.2725 8.0002 10.2725C7.4203 10.2725 6.9502 10.7426 6.9502 11.3225V11.6561C6.9502 12.236 7.4203 12.7061 8.0002 12.7061C8.58009 12.7061 9.0502 12.236 9.0502 11.6561V11.3225Z" fill="white"/>
</g>
</g>
<defs>
<filter id="filter0_d_9089_32844" x="4.9502" y="2.26562" width="6.1001" height="13.4404" filterUnits="userSpaceOnUse" color-interpolation-filters="sRGB">
<feFlood flood-opacity="0" result="BackgroundImageFix"/>
<feColorMatrix in="SourceAlpha" type="matrix" values="0 0 0 0 0 0 0 0 0 0 0 0 0 0 0 0 0 0 127 0" result="hardAlpha"/>
<feOffset dy="1"/>
<feGaussianBlur stdDeviation="1"/>
<feComposite in2="hardAlpha" operator="out"/>
<feColorMatrix type="matrix" values="0 0 0 0 0 0 0 0 0 0 0 0 0 0 0 0 0 0 0.15 0"/>
<feBlend mode="normal" in2="BackgroundImageFix" result="effect1_dropShadow_9089_32844"/>
<feBlend mode="normal" in="SourceGraphic" in2="effect1_dropShadow_9089_32844" result="shape"/>
</filter>
<clipPath id="clip0_9089_32844">
<rect width="16" height="16" fill="white"/>
</clipPath>
</defs>
</svg>
