<svg width="12" height="16" viewBox="0 0 12 16" fill="none" xmlns="http://www.w3.org/2000/svg">
<path fill-rule="evenodd" clip-rule="evenodd" d="M0.480469 1.0125C0.480469 1.3991 0.793869 1.7125 1.18047 1.7125H1.24463V4.29765C1.24463 4.62408 1.39948 4.9085 1.52318 5.09649C1.66119 5.30623 1.84362 5.51759 2.03929 5.71884C2.43262 6.12339 2.94541 6.55395 3.45078 6.94203C3.94897 7.32459 4.45752 7.67929 4.86971 7.94395C4.45752 8.2086 3.94897 8.5633 3.45078 8.94586C2.94541 9.33394 2.43262 9.7645 2.03929 10.1691C1.84362 10.3703 1.66119 10.5817 1.52318 10.7914C1.39948 10.9794 1.24463 11.2638 1.24463 11.5902V14.1754H1.18047C0.793869 14.1754 0.480469 14.4888 0.480469 14.8754C0.480469 15.262 0.793869 15.5754 1.18047 15.5754H10.9988C11.3854 15.5754 11.6988 15.262 11.6988 14.8754C11.6988 14.4888 11.3854 14.1754 10.9988 14.1754H10.8454V11.5902C10.8454 11.4053 10.7899 11.2474 10.7404 11.1382C10.6882 11.0229 10.6211 10.9152 10.5531 10.8192C10.4172 10.6277 10.2381 10.4281 10.0455 10.2342C9.65737 9.84343 9.14974 9.41124 8.64651 9.01415C8.14086 8.61514 7.62372 8.23907 7.20851 7.96007L7.18446 7.94395L7.20851 7.92782C7.62372 7.64882 8.14086 7.27275 8.64651 6.87374C9.14974 6.47665 9.65737 6.04446 10.0455 5.65372C10.2381 5.45977 10.4172 5.26022 10.5531 5.06869C10.6211 4.97272 10.6882 4.86496 10.7404 4.74973C10.7899 4.64047 10.8454 4.48256 10.8454 4.29765V1.7125H10.9988C11.3854 1.7125 11.6988 1.3991 11.6988 1.0125C11.6988 0.625901 11.3854 0.3125 10.9988 0.3125H1.18047C0.793869 0.3125 0.480469 0.625901 0.480469 1.0125ZM2.64463 4.24491V1.7125H9.44537V4.20743C9.4371 4.22083 9.4259 4.23793 9.41106 4.25885C9.33858 4.36105 9.21943 4.49875 9.05218 4.66713C8.72051 5.00105 8.2619 5.39386 7.77927 5.7747C7.29907 6.15362 6.81073 6.50841 6.42769 6.76579C6.27335 6.86949 6.14123 6.95393 6.03675 7.01654C5.93285 6.9576 5.80172 6.87817 5.64894 6.7805C5.26725 6.53649 4.78094 6.19831 4.30346 5.83165C3.82296 5.46267 3.36951 5.07866 3.04306 4.7429C2.87884 4.574 2.763 4.43376 2.6927 4.32694C2.66691 4.28773 2.65237 4.26075 2.64463 4.24491ZM9.44537 14.1754V11.6805C9.4371 11.6671 9.4259 11.65 9.41106 11.629C9.33858 11.5268 9.21943 11.3891 9.05218 11.2208C8.72051 10.8868 8.2619 10.494 7.77927 10.1132C7.29907 9.73427 6.81073 9.37948 6.42769 9.1221C6.27335 9.0184 6.14123 8.93396 6.03675 8.87135C5.93285 8.93029 5.80172 9.00973 5.64894 9.1074C5.26725 9.35139 4.78094 9.68958 4.30346 10.0562C3.82296 10.4252 3.36951 10.8092 3.04306 11.145C2.87884 11.3139 2.763 11.4541 2.6927 11.561C2.66691 11.6002 2.65237 11.6271 2.64463 11.643V14.1754H9.44537Z" fill="#909090"/>
</svg>
