<svg width="24" height="24" viewBox="0 0 24 24" fill="none" xmlns="http://www.w3.org/2000/svg">
<path fill-rule="evenodd" clip-rule="evenodd" d="M18.4344 4.84366C17.6149 4.02413 16.2865 4.02337 15.4661 4.84196L5.81459 14.4723C5.6141 14.6723 5.46677 14.9193 5.38598 15.1907L4.24707 19.0173C4.07167 19.6067 4.59901 20.1653 5.19747 20.0242L9.15069 19.0918C9.45935 19.019 9.74149 18.8614 9.96523 18.6366L19.593 8.96551C20.4099 8.1449 20.4084 6.81787 19.5897 5.99907L18.4344 4.84366ZM16.455 5.833C16.7284 5.56013 17.1712 5.56039 17.4444 5.83356L18.5997 6.98897C18.8726 7.26191 18.8731 7.70425 18.6008 7.97779L17.4158 9.16807L15.2666 7.01879L16.455 5.833ZM14.2755 8.00765L16.4281 10.1602L9.42212 17.1978L7.24602 15.0217L14.2755 8.00765ZM6.52292 16.2785L5.88443 18.4238L8.13694 17.8925L6.52292 16.2785Z" fill="#909090"/>
</svg>
