<svg width="20" height="20" viewBox="0 0 20 20" fill="none" xmlns="http://www.w3.org/2000/svg">
<g id="Icon">
<g id="Icon_2">
<path fill-rule="evenodd" clip-rule="evenodd" d="M10.0362 10.4167C7.05893 10.4167 6.35934 6.15727 8.46731 4.65213C8.81735 4.40219 9.49015 4.16675 10.0362 4.16675C13.9193 4.16675 13.6107 10.4167 10.0362 10.4167ZM9.04841 5.46596C9.11575 5.41788 9.27018 5.33658 9.48437 5.26771C9.69492 5.20001 9.89393 5.16675 10.0362 5.16675C10.7073 5.16675 11.1238 5.42212 11.3913 5.76187C11.6813 6.13018 11.8478 6.67032 11.8331 7.26707C11.8184 7.86317 11.6243 8.42365 11.3108 8.81374C11.0152 9.18154 10.6044 9.41675 10.0362 9.41675C9.14238 9.41675 8.53164 8.81276 8.32013 7.87814C8.09902 6.90108 8.40975 5.92198 9.04841 5.46596Z" fill="white"/>
<path d="M6.66277 5.60425C6.68382 5.60425 6.70471 5.6045 6.72542 5.605C6.59421 5.93549 6.50673 6.28219 6.45981 6.63235C6.42034 6.64159 6.37797 6.65331 6.33369 6.66781C6.19169 6.71431 6.10281 6.76537 6.08005 6.78192C5.70512 7.05455 5.47827 7.69106 5.63042 8.37574C5.77386 9.02124 6.15926 9.35425 6.66275 9.35425C6.70962 9.35425 6.75453 9.3516 6.79761 9.34641C6.90506 9.75697 7.00921 10.1421 7.0569 10.3175C6.9321 10.3416 6.80068 10.3543 6.66275 10.3543C4.4409 10.3543 3.91882 7.11705 5.49193 5.97314C5.75315 5.78319 6.25524 5.60425 6.66277 5.60425Z" fill="white"/>
<path d="M4.23304 11.3302C4.83468 10.9523 5.54611 10.7906 6.22198 10.7442C6.21978 10.8802 6.18886 11.0147 6.1084 11.1243C5.97913 11.3006 5.79329 11.5024 5.5834 11.7304C5.53764 11.7801 5.49073 11.831 5.44302 11.8832C5.19617 11.9536 4.96698 12.0501 4.76494 12.177C4.32383 12.4541 3.97436 12.898 3.86762 13.6459H4.18323C4.04327 13.9572 3.94231 14.2904 3.90391 14.6459H3.64648C3.20626 14.6459 2.81109 14.2802 2.84644 13.7961C2.93321 12.6078 3.46906 11.8101 4.23304 11.3302Z" fill="white"/>
<path d="M13.3816 5.60477C16.2243 5.66143 15.9808 10.3543 13.3294 10.3543C13.1904 10.3543 13.058 10.3416 12.9323 10.3175C12.9624 10.1805 13.035 9.94222 13.1234 9.652C13.1526 9.55589 13.1837 9.45406 13.2154 9.34836C13.2527 9.35229 13.2907 9.35426 13.3294 9.35426C13.6636 9.35426 13.8984 9.21925 14.0773 8.99257C14.2742 8.74305 14.4067 8.36775 14.4167 7.95502C14.4267 7.5415 14.3121 7.18607 14.1359 6.95803C14.0247 6.81423 13.8701 6.69282 13.634 6.63704C13.5919 6.28631 13.509 5.93772 13.3816 5.60477Z" fill="white"/>
<path d="M16.3548 14.6459H16.0974C16.0589 14.2904 15.958 13.9572 15.818 13.6459H16.1337C16.0269 12.898 15.6775 12.4541 15.2363 12.177C15.0343 12.0501 14.8051 11.9536 14.5582 11.8832C14.5105 11.831 14.4636 11.7801 14.4179 11.7304C14.208 11.5024 14.0221 11.3006 13.8929 11.1244C13.8124 11.0146 13.7829 10.8799 13.7759 10.744C14.4528 10.7901 15.1656 10.9517 15.7682 11.3302C16.5322 11.8101 17.0681 12.6078 17.1548 13.7961C17.1902 14.2802 16.795 14.6459 16.3548 14.6459Z" fill="white"/>
<path fill-rule="evenodd" clip-rule="evenodd" d="M6.63684 11.671C7.64076 11.0953 8.87953 10.9167 10.0006 10.9167C11.1217 10.9167 12.3605 11.0953 13.3644 11.671C14.3982 12.2639 15.1501 13.262 15.2742 14.7919C15.3184 15.3375 14.872 15.7501 14.3756 15.7501H5.62563C5.12929 15.7501 4.68283 15.3375 4.72708 14.7919C4.85115 13.262 5.60307 12.2639 6.63684 11.671ZM5.73556 14.7501H14.2657C14.142 13.6342 13.5991 12.9584 12.8669 12.5385C12.0785 12.0863 11.0399 11.9167 10.0006 11.9167C8.96135 11.9167 7.92278 12.0863 7.13434 12.5385C6.40219 12.9584 5.85924 13.6342 5.73556 14.7501Z" fill="white"/>
</g>
</g>
</svg>
