<svg width="23" height="23" viewBox="0 0 23 23" fill="none" xmlns="http://www.w3.org/2000/svg">
	<g filter="url(#filter0_d_1777_122125)">
		<path opacity="0.4" d="M14.0666 5.27617C14.0666 4.88957 14.38 4.57617 14.7666 4.57617H15.4666C15.8532 4.57617 16.1666 4.88957 16.1666 5.27617V13.2095C16.1666 13.5961 15.8532 13.9095 15.4666 13.9095H14.7666C14.38 13.9095 14.0666 13.5961 14.0666 13.2095V5.27617Z" fill="white"/>
		<path opacity="0.4" d="M10.4501 7.61016C10.4501 7.22356 10.7635 6.91016 11.1501 6.91016H11.8501C12.2367 6.91016 12.5501 7.22356 12.5501 7.61016V13.2102C12.5501 13.5968 12.2367 13.9102 11.8501 13.9102H11.1501C10.7635 13.9102 10.4501 13.5968 10.4501 13.2102V7.61016Z" fill="white"/>
		<path opacity="0.4" d="M6.83334 9.94219C6.83334 9.55559 7.14674 9.24219 7.53334 9.24219H8.23334C8.61994 9.24219 8.93334 9.55559 8.93334 9.94219V13.2089C8.93334 13.5955 8.61994 13.9089 8.23334 13.9089H7.53334C7.14674 13.9089 6.83334 13.5955 6.83334 13.2089V9.94219Z" fill="white"/>
	</g>
	<defs>
		<filter id="filter0_d_1777_122125" x="0.5" y="0.242188" width="22" height="22" filterUnits="userSpaceOnUse" color-interpolation-filters="sRGB">
			<feFlood flood-opacity="0" result="BackgroundImageFix"/>
			<feColorMatrix in="SourceAlpha" type="matrix" values="0 0 0 0 0 0 0 0 0 0 0 0 0 0 0 0 0 0 127 0" result="hardAlpha"/>
			<feOffset dy="2"/>
			<feGaussianBlur stdDeviation="1"/>
			<feComposite in2="hardAlpha" operator="out"/>
			<feColorMatrix type="matrix" values="0 0 0 0 0.184314 0 0 0 0 0.184314 0 0 0 0 0.184314 0 0 0 0.1 0"/>
			<feBlend mode="normal" in2="BackgroundImageFix" result="effect1_dropShadow_1777_122125"/>
			<feBlend mode="normal" in="SourceGraphic" in2="effect1_dropShadow_1777_122125" result="shape"/>
		</filter>
	</defs>
</svg>
