<svg width="32" height="32" viewBox="0 0 32 32" fill="none" xmlns="http://www.w3.org/2000/svg">
	<rect width="32" height="32" rx="6" fill="#95C500"/>
	<path fill-rule="evenodd" clip-rule="evenodd" d="M11.0029 13.3246C11.0048 13.3241 11.0066 13.3237 11.0086 13.3233L22.3651 11.0111C22.6922 10.9446 23 11.1848 23 11.5067V19.4324C23 19.7648 22.6732 20.007 22.3395 19.9221L17.9831 18.8134V20.1558C17.9831 20.6221 17.5906 21 17.1063 21H13.0082C12.524 21 12.1315 20.6221 12.1315 20.1559V17.3242L11.0043 17.0374L10.9996 17.036C10.9757 17.0532 10.9485 17.0666 10.9188 17.0752L9.33926 17.5357C9.17036 17.585 9 17.4633 9 17.2934V13.0648C9 12.8949 9.17036 12.7732 9.33926 12.8225L10.9188 13.283C10.9499 13.292 10.9782 13.3063 11.0029 13.3246ZM16.8302 18.52L13.2844 17.6176V19.7549C13.2844 19.8948 13.4022 20.0082 13.5474 20.0082H16.5672C16.7124 20.0082 16.8302 19.8948 16.8302 19.7549V18.52Z" fill="white"/>
</svg>