<svg width="22" height="23" viewBox="0 0 22 23" fill="none" xmlns="http://www.w3.org/2000/svg">
<path fill-rule="evenodd" clip-rule="evenodd" d="M11 0.5C17.0751 0.5 22 5.42487 22 11.5C22 17.5751 17.0751 22.5 11 22.5C4.92487 22.5 0 17.5751 0 11.5C0 5.42487 4.92487 0.5 11 0.5Z" fill="#8DBB00"/>
<path fill-rule="evenodd" clip-rule="evenodd" d="M6.00291 8.82461C6.00477 8.82411 6.00665 8.82367 6.00855 8.82328L17.3651 6.51115C17.6922 6.44455 18 6.68479 18 7.00668V14.9324C18 15.2648 17.6732 15.507 17.3395 15.4221L12.9831 14.3134V15.6558C12.9831 16.1221 12.5906 16.5 12.1063 16.5H8.00824C7.52401 16.5 7.13147 16.1221 7.13147 15.6559V12.8242L6.00429 12.5374L5.99955 12.536C5.97566 12.5532 5.94847 12.5666 5.91876 12.5752L4.33926 13.0357C4.17036 13.085 4 12.9633 4 12.7934V8.56484C4 8.39493 4.17036 8.27322 4.33926 8.32246L5.91876 8.78297C5.94987 8.79204 5.97822 8.80631 6.00291 8.82461ZM11.8302 14.02L8.28439 13.1176V15.2549C8.28439 15.3948 8.40215 15.5082 8.54742 15.5082H11.5672C11.7124 15.5082 11.8302 15.3948 11.8302 15.2549V14.02Z" fill="white"/>
</svg>
