<svg width="32" height="32" viewBox="0 0 32 32" fill="none" xmlns="http://www.w3.org/2000/svg">
	<rect width="32" height="32" rx="16" fill="#11A9D9"/>
	<path d="M10.5589 10.5518C9.5464 10.5518 8.72559 11.3726 8.72559 12.3851V16.9684C8.72559 17.9809 9.5464 18.8018 10.5589 18.8018H10.795V20.2239C10.795 20.7139 11.3874 20.9593 11.7339 20.6129L12.84 19.5068V16.017C12.84 14.4982 14.0712 13.267 15.59 13.267H19.7256V12.3851C19.7256 11.3726 18.9048 10.5518 17.8923 10.5518H10.5589Z" fill="white"/>
	<path d="M14.2143 16.3102C14.2143 15.2977 15.0352 14.4769 16.0477 14.4769H22.2203C23.2328 14.4769 24.0537 15.2977 24.0537 16.3102V19.9213C24.0537 20.9326 23.2348 21.7526 22.224 21.7546V22.9337C22.224 23.4539 21.5686 23.6834 21.2441 23.2768L20.0293 21.7546H16.0477C15.0352 21.7546 14.2143 20.9338 14.2143 19.9213V16.3102Z" fill="white"/>
</svg>