<svg width="23" height="23" viewBox="0 0 23 23" fill="none" xmlns="http://www.w3.org/2000/svg">
<rect width="23" height="23" rx="11.5" fill="#11A9D9"/>
<path d="M6.32934 5.3717C5.36702 5.3717 4.58691 6.15181 4.58691 7.11413V11.4702C4.58691 12.4325 5.36702 13.2126 6.32934 13.2126H6.55371V14.5643C6.55371 15.03 7.11676 15.2632 7.44606 14.9339L8.49727 13.8827V10.5659C8.49727 9.12246 9.66743 7.95229 11.1109 7.95229H15.0415V7.11413C15.0415 6.15181 14.2614 5.3717 13.299 5.3717H6.32934Z" fill="white"/>
<path d="M9.8035 10.8446C9.8035 9.8823 10.5836 9.10219 11.5459 9.10219H17.4125C18.3748 9.10219 19.1549 9.8823 19.1549 10.8446V14.2766C19.1549 15.2378 18.3767 16.0171 17.416 16.019V17.1396C17.416 17.6341 16.7931 17.8522 16.4847 17.4657L15.3302 16.019H11.5459C10.5836 16.019 9.8035 15.2389 9.8035 14.2766V10.8446Z" fill="white"/>
</svg>
