<svg width="108" height="108" viewBox="0 0 108 108" fill="none" xmlns="http://www.w3.org/2000/svg">
<path fill-rule="evenodd" clip-rule="evenodd" d="M64.2593 64.3423C64.2593 71.7286 58.4614 77.8145 51.0837 78.1722L20.0553 79.6766C12.1542 80.0596 5.53857 73.757 5.53857 65.8467V29.7752C5.53857 21.3615 12.9807 14.8925 21.3125 16.0639L52.3409 20.4264C59.1759 21.3874 64.2593 27.2355 64.2593 34.1377V64.3423Z" fill="#1BCE7B" fill-opacity="0.78"/>
<path fill-rule="evenodd" clip-rule="evenodd" d="M19.9882 78.2936L51.0166 76.7892C57.6565 76.4672 62.8747 70.99 62.8747 64.3423V34.1377C62.8747 27.9257 58.2996 22.6624 52.1481 21.7975L21.1197 17.435C13.6211 16.3807 6.92319 22.2029 6.92319 29.7752V65.8467C6.92319 72.9659 12.8773 78.6383 19.9882 78.2936ZM51.0837 78.1722C58.4614 77.8145 64.2593 71.7286 64.2593 64.3423V34.1377C64.2593 27.2355 59.1759 21.3874 52.3409 20.4264L21.3125 16.0639C12.9807 14.8925 5.53857 21.3615 5.53857 29.7752V65.8467C5.53857 73.757 12.1542 80.0596 20.0553 79.6766L51.0837 78.1722Z" fill="white" fill-opacity="0.18"/>
<path fill-rule="evenodd" clip-rule="evenodd" d="M102.67 76.5143C102.67 83.5929 97.3308 89.5317 90.2921 90.2824L69.2938 92.5219C61.1121 93.3944 53.9792 86.9818 53.9792 78.7538V52.0751C53.9792 43.9796 60.8945 37.6108 68.9626 38.2757L89.961 40.0062C97.1427 40.5981 102.67 46.5995 102.67 53.8056V76.5143Z" fill="#0075FF" fill-opacity="0.78"/>
<path fill-rule="evenodd" clip-rule="evenodd" d="M69.1469 91.1451L90.1453 88.9056C96.4801 88.23 101.285 82.8851 101.285 76.5143V53.8056C101.285 47.3201 96.3108 41.9188 89.8472 41.3862L68.8489 39.6557C61.5875 39.0573 55.3639 44.7892 55.3639 52.0751V78.7538C55.3639 86.159 61.7834 91.9304 69.1469 91.1451ZM90.2921 90.2824C97.3308 89.5317 102.67 83.5929 102.67 76.5143V53.8056C102.67 46.5995 97.1427 40.5981 89.961 40.0062L68.9626 38.2757C60.8945 37.6108 53.9792 43.9796 53.9792 52.0751V78.7538C53.9792 86.9818 61.1121 93.3944 69.2938 92.5219L90.2921 90.2824Z" fill="white" fill-opacity="0.18"/>
<g filter="url(#filter0_d_10949_85053)">
<path fill-rule="evenodd" clip-rule="evenodd" d="M30.6711 27.5056C23.8202 32.4383 26.1264 48.5445 35.5891 48.9296C46.257 49.3632 47.1448 27.5526 35.5891 26.2665C33.8944 26.0784 31.7808 26.706 30.6711 27.5056ZM50.1373 65.6679C50.1785 66.3661 49.6979 66.9452 49.1085 66.9555L20.8659 67.417C20.1604 67.4288 19.5813 66.8085 19.6298 66.0398C20.3074 55.4527 28.531 52.979 35.6082 53.1715C42.6854 53.3641 49.5759 56.0186 50.1373 65.6679Z" fill="white" fill-opacity="0.9" shape-rendering="crispEdges"/>
</g>
<g filter="url(#filter1_d_10949_85053)">
<path fill-rule="evenodd" clip-rule="evenodd" d="M72.9331 57.0401C72.9331 52.1049 75.8347 48.2708 79.3257 48.4688C82.7131 48.6619 85.3853 52.6071 85.3853 57.2864V58.8268C87.2073 59.0779 88.6153 61.2702 88.6153 63.9261V75.3272C88.6153 78.1328 87.0408 80.5376 85.0704 80.7017L73.2795 81.682C71.0617 81.8655 69.2307 79.5476 69.2307 76.5006V64.1144C69.2307 61.2316 70.8727 58.8799 72.9331 58.6626V57.0352V57.0401ZM83.5094 57.2477V58.7833L74.9845 58.6722V57.0787C74.9845 53.7274 76.9459 51.1005 79.3257 51.2068C81.7054 51.313 83.5094 54.0124 83.5094 57.2429V57.2477ZM77.1978 68.7067C77.1978 67.0697 78.1515 65.7225 79.3212 65.7031C80.4908 65.6838 81.404 66.9731 81.404 68.5812C81.404 69.7739 80.8957 70.817 80.1624 71.2998V74.2793C80.1624 74.9264 79.789 75.472 79.3257 75.501C78.8623 75.53 78.4799 75.0229 78.4799 74.371V71.3771C77.7286 70.9522 77.1978 69.9284 77.1978 68.7067Z" fill="white" fill-opacity="0.9" shape-rendering="crispEdges"/>
</g>
<defs>
<filter id="filter0_d_10949_85053" x="9.62695" y="20.2329" width="50.5129" height="61.1841" filterUnits="userSpaceOnUse" color-interpolation-filters="sRGB">
<feFlood flood-opacity="0" result="BackgroundImageFix"/>
<feColorMatrix in="SourceAlpha" type="matrix" values="0 0 0 0 0 0 0 0 0 0 0 0 0 0 0 0 0 0 127 0" result="hardAlpha"/>
<feOffset dy="4"/>
<feGaussianBlur stdDeviation="5"/>
<feComposite in2="hardAlpha" operator="out"/>
<feColorMatrix type="matrix" values="0 0 0 0 0 0 0 0 0 0 0 0 0 0 0 0 0 0 0.05 0"/>
<feBlend mode="normal" in2="BackgroundImageFix" result="effect1_dropShadow_10949_85053"/>
<feBlend mode="normal" in="SourceGraphic" in2="effect1_dropShadow_10949_85053" result="shape"/>
</filter>
<filter id="filter1_d_10949_85053" x="59.2307" y="42.4614" width="39.3845" height="53.231" filterUnits="userSpaceOnUse" color-interpolation-filters="sRGB">
<feFlood flood-opacity="0" result="BackgroundImageFix"/>
<feColorMatrix in="SourceAlpha" type="matrix" values="0 0 0 0 0 0 0 0 0 0 0 0 0 0 0 0 0 0 127 0" result="hardAlpha"/>
<feOffset dy="4"/>
<feGaussianBlur stdDeviation="5"/>
<feComposite in2="hardAlpha" operator="out"/>
<feColorMatrix type="matrix" values="0 0 0 0 0 0 0 0 0 0 0 0 0 0 0 0 0 0 0.05 0"/>
<feBlend mode="normal" in2="BackgroundImageFix" result="effect1_dropShadow_10949_85053"/>
<feBlend mode="normal" in="SourceGraphic" in2="effect1_dropShadow_10949_85053" result="shape"/>
</filter>
</defs>
</svg>
