<svg width="34" height="34" viewBox="0 0 34 34" fill="none" xmlns="http://www.w3.org/2000/svg">
	<circle cx="17" cy="17" r="17" fill="url(#paint0_radial_5652_33818)"/>
	<g opacity="0.5">
		<path fill-rule="evenodd" clip-rule="evenodd" d="M17 34C26.3888 34 34 26.3888 34 17C34 7.61116 26.3888 0 17 0C7.61116 0 0 7.61116 0 17C0 26.3888 7.61116 34 17 34ZM17.0001 32.5141C25.5683 32.5141 32.5141 25.5683 32.5141 17.0001C32.5141 8.43195 25.5683 1.48608 17.0001 1.48608C8.43195 1.48608 1.48608 8.43195 1.48608 17.0001C1.48608 25.5683 8.43195 32.5141 17.0001 32.5141Z" fill="url(#paint1_radial_5652_33818)"/>
		<path fill-rule="evenodd" clip-rule="evenodd" d="M17 34C26.3888 34 34 26.3888 34 17C34 7.61116 26.3888 0 17 0C7.61116 0 0 7.61116 0 17C0 26.3888 7.61116 34 17 34ZM17.0001 32.5141C25.5683 32.5141 32.5141 25.5683 32.5141 17.0001C32.5141 8.43195 25.5683 1.48608 17.0001 1.48608C8.43195 1.48608 1.48608 8.43195 1.48608 17.0001C1.48608 25.5683 8.43195 32.5141 17.0001 32.5141Z" fill="#C08200" fill-opacity="0.28"/>
	</g>
	<path fill-rule="evenodd" clip-rule="evenodd" d="M5.48564 11.1039C4.68547 11.7873 4.35874 12.8225 4.55689 13.8346C4.60163 14.0626 4.66301 14.2864 4.72509 14.5108C4.79805 14.7756 4.90014 15.0299 5.01942 15.2772C6.10217 17.513 9.10885 18.5268 11.4245 19.1971C12.9245 17.8246 14.542 16.317 15.3241 14.4544C15.5799 13.8418 15.6762 13.2042 15.6311 12.5429C15.6148 12.3065 15.5835 12.0725 15.5425 11.8393C15.4833 11.4982 15.397 11.164 15.2392 10.8535C14.8926 10.1728 14.3648 9.69604 13.6456 9.43984C13.2444 9.29674 12.8309 9.25391 12.4079 9.29616C12.142 9.32269 11.8827 9.38011 11.6331 9.47623C11.1503 9.66228 10.7467 9.9599 10.415 10.3572C10.1345 10.691 9.92897 11.068 9.78332 11.4788C9.77883 11.4901 9.77488 11.5013 9.77031 11.5123C9.72119 11.4666 9.67966 11.4227 9.63616 11.3805C9.21094 10.9672 8.72093 10.6646 8.14654 10.5076C7.79995 10.4129 7.44723 10.384 7.09028 10.4218C6.98874 10.4327 6.88866 10.4489 6.78959 10.47C6.6586 10.4978 6.52968 10.5341 6.40264 10.5792C6.06469 10.6983 5.75781 10.8715 5.48564 11.1039Z" fill="url(#paint2_radial_5652_33818)"/>
	<path fill-rule="evenodd" clip-rule="evenodd" d="M28.5143 11.1039C29.3145 11.7873 29.6412 12.8225 29.443 13.8346C29.3983 14.0626 29.3369 14.2864 29.2749 14.5108C29.2019 14.7756 29.0998 15.0299 28.9805 15.2772C27.8956 17.5176 24.8956 18.5255 22.5755 19.1971C21.0607 17.8112 19.4674 16.3393 18.6758 14.4544C18.4201 13.8418 18.3237 13.2042 18.3688 12.5429C18.3851 12.3065 18.4165 12.0725 18.4574 11.8393C18.5167 11.4982 18.6029 11.164 18.7607 10.8535C19.1073 10.1728 19.6352 9.69604 20.3543 9.43984C20.7555 9.29674 21.169 9.25391 21.592 9.29616C21.8579 9.32269 22.1172 9.38011 22.3669 9.47623C22.8497 9.66228 23.2532 9.9599 23.585 10.3572C23.8655 10.691 24.071 11.068 24.2166 11.4788C24.2211 11.4901 24.2251 11.5013 24.2296 11.5123C24.2787 11.4666 24.3203 11.4227 24.3638 11.3805C24.789 10.9672 25.279 10.6646 25.8534 10.5076C26.2 10.4129 26.5527 10.384 26.9097 10.4218C27.0112 10.4327 27.1113 10.4489 27.2103 10.47C27.3413 10.4978 27.4703 10.5341 27.5973 10.5792C27.9352 10.6983 28.2421 10.8715 28.5143 11.1039Z" fill="url(#paint3_radial_5652_33818)"/>
	<path fill-rule="evenodd" clip-rule="evenodd" d="M24.9914 23.1347C24.9914 25.2111 21.6808 28.257 17.0001 28.257C12.3194 28.257 9.00854 25.2111 9.00854 23.1352C9.00854 21.9379 13.0449 23.1347 17.0001 23.1347C20.9559 23.1347 24.9914 21.9551 24.9914 23.1347Z" fill="#783E11"/>
	<defs>
		<radialGradient id="paint0_radial_5652_33818" cx="0" cy="0" r="1" gradientUnits="userSpaceOnUse" gradientTransform="translate(15.4754 7.00962) rotate(73.7184) scale(27.5504)">
			<stop stop-color="#FFF1AA"/>
			<stop offset="0.34375" stop-color="#FFE564"/>
			<stop offset="0.760417" stop-color="#F4CC00"/>
			<stop offset="1" stop-color="#F29E0B"/>
		</radialGradient>
		<radialGradient id="paint1_radial_5652_33818" cx="0" cy="0" r="1" gradientUnits="userSpaceOnUse" gradientTransform="translate(15.4754 7.00962) rotate(73.7184) scale(27.5504)">
			<stop stop-color="#FBEB9D"/>
			<stop offset="0.34375" stop-color="#F6E071"/>
			<stop offset="0.786458" stop-color="#ECC91A"/>
			<stop offset="1" stop-color="#E3BE00"/>
		</radialGradient>
		<radialGradient id="paint2_radial_5652_33818" cx="0" cy="0" r="1" gradientUnits="userSpaceOnUse" gradientTransform="translate(6.84571 12.1026) rotate(57.2929) scale(8.4364 9.91506)">
			<stop stop-color="#FF5F5A"/>
			<stop offset="0.253494" stop-color="#FF4A45"/>
			<stop offset="1" stop-color="#F03D37"/>
		</radialGradient>
		<radialGradient id="paint3_radial_5652_33818" cx="0" cy="0" r="1" gradientUnits="userSpaceOnUse" gradientTransform="translate(27.1542 12.1026) rotate(122.707) scale(8.4364 9.91506)">
			<stop stop-color="#FF5F5A"/>
			<stop offset="0.253494" stop-color="#FF4A45"/>
			<stop offset="1" stop-color="#F03D37"/>
		</radialGradient>
	</defs>
</svg>
