<svg width="34" height="34" viewBox="0 0 34 34" fill="none" xmlns="http://www.w3.org/2000/svg">
	<ellipse cx="17.0622" cy="25.1233" rx="12.1228" ry="8.87694" fill="white"/>
	<path fill-rule="evenodd" clip-rule="evenodd" d="M22.9329 18.7367C22.8474 20.6069 22.5952 21.7026 21.4025 22.7153C21.7427 21.079 21.644 14.6134 16.0689 9.89453C16.4827 19.1845 2.81532 20.7289 11.1081 32.8239C11.6843 33.6643 13.3774 33.7391 14.0728 33.8622C14.2175 33.8878 14.3101 33.7398 14.274 33.6542C11.4749 27.0062 16.5189 28.0105 16.7936 22.1415C16.7965 22.0781 16.9294 22.0636 16.992 22.1202C19.4823 24.3713 20.1823 25.9358 19.3116 28.5957C19.2845 28.6784 19.4056 28.7829 19.4918 28.7505C20.4521 28.3899 21.1139 27.9776 21.7392 26.7616C22.8849 29.4561 21.8813 31.329 20.6079 33.5052C20.5557 33.5944 20.6467 33.7626 20.744 33.755C27.7949 33.204 29.0978 25.1124 22.9329 18.7367Z" fill="url(#paint0_radial_5557_34193)"/>
	<path d="M25.7402 10.0529C25.5567 9.85016 25.2288 9.97509 25.2101 10.2535C25.0652 12.4078 24.699 13.8679 23.5345 15.1608C23.3352 15.382 23.0129 15.187 23.0653 14.8881C23.6011 11.8266 23.968 6.86865 13.6907 0.0504731C13.4654 -0.0990255 13.1709 0.105085 13.2099 0.380982C14.4107 8.88948 7.13303 10.9243 4.30447 16.7865C1.8784 21.8146 3.14179 29.7618 11.8753 33.3929C11.9006 33.4034 12.5555 33.6148 12.9003 33.5529C13.2451 33.4911 13.2423 33.2862 13.1373 33.0826C5.75417 18.763 15.2185 22.134 17.1465 11.7102C17.1978 11.4324 17.5416 11.336 17.6956 11.5687C20.4542 15.7349 20.972 20.9504 19.761 24.7898C19.6788 25.0503 19.9171 25.3076 20.162 25.2089C21.37 24.7216 22.2666 24.1347 23.0922 22.7432C23.2278 22.5147 23.5585 22.531 23.6476 22.7832C25.0195 26.6621 23.8482 29.8204 22.0856 33.0442C21.9452 33.301 22.1794 33.6066 22.4463 33.5079C32.4567 29.8052 34.5893 19.8336 25.7402 10.0529Z" fill="url(#paint1_radial_5557_34193)"/>
	<defs>
		<radialGradient id="paint0_radial_5557_34193" cx="0" cy="0" r="1" gradientUnits="userSpaceOnUse" gradientTransform="translate(21.5 25.5) rotate(-120.069) scale(10.9772 8.44832)">
			<stop stop-color="#F7CC00"/>
			<stop offset="1" stop-color="#F9E900"/>
		</radialGradient>
		<radialGradient id="paint1_radial_5557_34193" cx="0" cy="0" r="1" gradientUnits="userSpaceOnUse" gradientTransform="translate(16.5 17.5) rotate(-124.16) scale(16.9189 19.2501)">
			<stop stop-color="#FF736F"/>
			<stop offset="1" stop-color="#F83630"/>
		</radialGradient>
	</defs>
</svg>
