<svg width="24" height="24" viewBox="0 0 24 24" fill="none" xmlns="http://www.w3.org/2000/svg">
	<g clip-path="url(#clip0_35218_26185)">
		<path d="M24 12C24 18.627 18.627 24 12 24C5.373 24 0 18.627 0 12C0 5.373 5.373 0 12 0C18.627 0 24 5.373 24 12Z" fill="url(#paint0_linear_35218_26185)"/>
		<path fill-rule="evenodd" clip-rule="evenodd" d="M13.7602 8.77789C13.994 8.18135 14.0595 7.53209 13.9496 6.90088C13.8398 6.26967 13.5588 5.68073 13.1372 5.19824C12.7157 4.71575 12.1698 4.35822 11.559 4.16463C10.9483 3.97103 10.2961 3.94879 9.6736 4.10034C9.05108 4.25189 8.4821 4.5714 8.02868 5.02406C7.57525 5.47672 7.25478 6.04516 7.10218 6.66742C6.94959 7.28968 6.97072 7.94189 7.16329 8.55297C7.35585 9.16404 7.71246 9.71054 8.19424 10.1329C8.99024 9.14989 10.3972 8.49989 12.0002 8.49989C12.598 8.4982 13.1921 8.59205 13.7602 8.77789ZM20.7102 8.28689C20.9462 7.79028 21.0411 7.23839 20.9847 6.6915C20.9282 6.1446 20.7225 5.62374 20.3902 5.18579C20.0578 4.74785 19.6114 4.40967 19.0999 4.2082C18.5883 4.00673 18.0312 3.9497 17.4895 4.04336C16.9477 4.13702 16.4421 4.37776 16.0279 4.73928C15.6136 5.1008 15.3067 5.5692 15.1406 6.09332C14.9746 6.61744 14.9557 7.17711 15.0861 7.71122C15.2166 8.24532 15.4913 8.73331 15.8802 9.12189C16.6132 8.43889 17.7382 7.99989 19.0002 7.99989C19.6122 7.99989 20.1922 8.10289 20.7102 8.28689Z" fill="white"/>
		<path d="M11.5 5.75C11.5 6.08152 11.3683 6.39946 11.1339 6.63388C10.8995 6.8683 10.5815 7 10.25 7C9.91848 7 9.60054 6.8683 9.36612 6.63388C9.1317 6.39946 9 6.08152 9 5.75C9 5.41848 9.1317 5.10054 9.36612 4.86612C9.60054 4.6317 9.91848 4.5 10.25 4.5C10.5815 4.5 10.8995 4.6317 11.1339 4.86612C11.3683 5.10054 11.5 5.41848 11.5 5.75ZM18.5 5.5C18.5 5.76522 18.3946 6.01957 18.2071 6.20711C18.0196 6.39464 17.7652 6.5 17.5 6.5C17.2348 6.5 16.9804 6.39464 16.7929 6.20711C16.6054 6.01957 16.5 5.76522 16.5 5.5C16.5 5.23478 16.6054 4.98043 16.7929 4.79289C16.9804 4.60536 17.2348 4.5 17.5 4.5C17.7652 4.5 18.0196 4.60536 18.2071 4.79289C18.3946 4.98043 18.5 5.23478 18.5 5.5Z" fill="#5A4307"/>
		<path fill-rule="evenodd" clip-rule="evenodd" d="M17.234 14.5331C18.519 14.1421 19.542 13.4131 20.484 12.4701C20.6254 12.3334 20.8148 12.2577 21.0114 12.2593C21.2081 12.2609 21.3962 12.3397 21.5354 12.4787C21.6745 12.6177 21.7534 12.8058 21.7552 13.0024C21.757 13.1991 21.6815 13.3885 21.545 13.5301C20.488 14.5871 19.261 15.4841 17.671 15.9681C16.082 16.4511 14.197 16.5031 11.852 15.9821C11.7547 15.9618 11.6624 15.9224 11.5805 15.8662C11.4986 15.81 11.4286 15.738 11.3748 15.6545C11.3209 15.5711 11.2841 15.4777 11.2666 15.3799C11.2491 15.2821 11.2512 15.1818 11.2728 15.0848C11.2944 14.9878 11.3351 14.8961 11.3924 14.8149C11.4498 14.7338 11.5227 14.6649 11.6069 14.6121C11.6911 14.5594 11.7849 14.5239 11.883 14.5078C11.981 14.4916 12.0813 14.4951 12.178 14.5181C14.333 14.9971 15.948 14.9241 17.234 14.5321V14.5331Z" fill="#5A4307"/>
		<path fill-rule="evenodd" clip-rule="evenodd" d="M11.2658 14.8801C11.3016 14.7173 11.2982 14.5483 11.2558 14.3871C11.2281 14.2588 11.252 14.1247 11.3223 14.0139C11.3926 13.9031 11.5037 13.8243 11.6315 13.7947C11.7594 13.765 11.8938 13.7868 12.0057 13.8554C12.1176 13.9239 12.1981 14.0337 12.2298 14.1611C12.2948 14.4431 12.3208 14.7561 12.2398 15.1051C12.1598 15.4511 11.9828 15.7951 11.6948 16.1551C11.655 16.2098 11.6046 16.256 11.5466 16.2907C11.4885 16.3254 11.424 16.3479 11.357 16.357C11.2899 16.366 11.2217 16.3614 11.1566 16.3433C11.0914 16.3253 11.0305 16.2942 10.9777 16.2519C10.9249 16.2097 10.8812 16.1571 10.8492 16.0975C10.8173 16.0378 10.7978 15.9724 10.7919 15.905C10.7861 15.8376 10.7939 15.7697 10.815 15.7054C10.8361 15.6412 10.8701 15.5818 10.9148 15.5311C11.1328 15.2581 11.2278 15.0461 11.2658 14.8791V14.8801Z" fill="#5A4307"/>
	</g>
	<defs>
		<linearGradient id="paint0_linear_35218_26185" x1="4.75" y1="2.75" x2="17.25" y2="22.5" gradientUnits="userSpaceOnUse">
			<stop stop-color="#FFE65E"/>
			<stop offset="1" stop-color="#FBB709"/>
		</linearGradient>
		<clipPath id="clip0_35218_26185">
			<rect width="24" height="24" fill="white"/>
		</clipPath>
	</defs>
</svg>
