<svg width="24" height="24" viewBox="0 0 24 24" fill="none" xmlns="http://www.w3.org/2000/svg">
	<g clip-path="url(#clip0_35218_26198)">
		<path d="M24 12C24 18.627 18.627 24 12 24C5.373 24 0 18.627 0 12C0 5.373 5.373 0 12 0C18.627 0 24 5.373 24 12Z" fill="url(#paint0_linear_35218_26198)"/>
		<path d="M6.26519 2.81712C6.05219 2.64212 5.73319 2.67212 5.58819 2.90712C5.11112 3.67963 4.93053 4.59899 5.07993 5.49456C5.22934 6.39012 5.69858 7.20108 6.40058 7.77689C7.10258 8.35271 7.98964 8.65428 8.89713 8.62563C9.80463 8.59698 10.6709 8.24006 11.3352 7.62112C11.5372 7.43312 11.5042 7.11512 11.2902 6.94012L8.77819 4.87912L6.26519 2.81712ZM13.8022 6.78012C13.5882 6.60412 13.2702 6.63412 13.1252 6.86912C12.6473 7.64163 12.4661 8.56132 12.6152 9.45736C12.7643 10.3534 13.2336 11.1649 13.9358 11.741C14.6381 12.3172 15.5256 12.6188 16.4335 12.59C17.3414 12.5611 18.2079 12.2037 18.8722 11.5841C19.0732 11.3951 19.0402 11.0771 18.8272 10.9021L16.3142 8.84112L13.8022 6.77912V6.78012Z" fill="white"/>
		<path fill-rule="evenodd" clip-rule="evenodd" d="M11.8332 16.3471C9.89522 15.4691 7.04422 14.9671 4.72422 15.6671C4.53616 15.7173 4.33594 15.6924 4.16587 15.5977C3.99581 15.503 3.86923 15.3459 3.81288 15.1596C3.75653 14.9733 3.77482 14.7724 3.8639 14.5993C3.95298 14.4262 4.10585 14.2945 4.29022 14.2321C7.05822 13.3951 10.2912 14.0021 12.4522 14.9801C12.6335 15.0622 12.7747 15.2129 12.8449 15.3991C12.915 15.5854 12.9083 15.7918 12.8262 15.9731C12.7441 16.1544 12.5934 16.2956 12.4072 16.3658C12.221 16.4359 12.0145 16.4292 11.8332 16.3471Z" fill="#003C5F"/>
		<path d="M7.43816 5.27203C7.27081 5.47585 7.02934 5.60484 6.76688 5.63063C6.50443 5.65641 6.24248 5.57688 6.03866 5.40953C5.83484 5.24218 5.70585 5.00072 5.68006 4.73826C5.65427 4.4758 5.73381 4.21385 5.90116 4.01003C6.07039 3.8132 6.30992 3.69037 6.56852 3.66782C6.82713 3.64527 7.08429 3.72478 7.28505 3.88935C7.4858 4.05393 7.61421 4.2905 7.64282 4.54851C7.67143 4.80651 7.59797 5.06547 7.43816 5.27003V5.27203ZM14.9752 9.23403C14.8936 9.33844 14.792 9.42549 14.6763 9.49005C14.5606 9.55462 14.4331 9.59541 14.3014 9.61001C14.1697 9.62461 14.0365 9.61274 13.9094 9.57509C13.7824 9.53744 13.6642 9.47478 13.5617 9.39078C13.4592 9.30678 13.3746 9.20314 13.3128 9.08596C13.2509 8.96877 13.2131 8.84041 13.2016 8.70842C13.1901 8.57642 13.2051 8.44346 13.2457 8.31734C13.2864 8.19122 13.3518 8.0745 13.4382 7.97403C13.6074 7.7772 13.8469 7.65437 14.1055 7.63182C14.3641 7.60927 14.6213 7.68878 14.822 7.85335C15.0228 8.01793 15.1512 8.2545 15.1798 8.51251C15.2084 8.77051 15.135 9.02947 14.9752 9.23403Z" fill="#003C5F"/>
	</g>
	<defs>
		<linearGradient id="paint0_linear_35218_26198" x1="4.75" y1="2.75" x2="17.25" y2="22.5" gradientUnits="userSpaceOnUse">
			<stop stop-color="#2FC7F7"/>
			<stop offset="1" stop-color="#409EEF"/>
		</linearGradient>
		<clipPath id="clip0_35218_26198">
			<rect width="24" height="24" fill="white"/>
		</clipPath>
	</defs>
</svg>
