<svg width="96" height="60" viewBox="0 0 96 60" fill="none" xmlns="http://www.w3.org/2000/svg">
<g filter="url(#filter0_d_2657_366702)">
<path d="M12.5886 19.2566C12.5886 16.9282 14.4761 15.0407 16.8045 15.0407H73.954C76.2824 15.0407 78.17 16.9282 78.17 19.2567V38.9311C78.17 41.2595 76.2824 43.147 73.954 43.147H16.8045C14.4761 43.147 12.5886 41.2595 12.5886 38.9311V19.2566Z" fill="white" stroke="#2FC6F6" stroke-width="0.936877"/>
<rect x="19.6148" y="24.877" width="10.3056" height="8.43189" rx="4.21595" fill="#525C69" fill-opacity="0.1"/>
<rect x="34.6049" y="24.877" width="22.4851" height="8.43189" rx="4.21595" fill="#525C69" fill-opacity="0.1"/>
<rect x="58.9635" y="22.0684" width="0.936877" height="14.0532" rx="0.468439" fill="#2FC6F6"/>
</g>
<circle cx="78.6382" cy="43.6156" r="11.2425" fill="#00ACE3"/>
<path fill-rule="evenodd" clip-rule="evenodd" d="M82.2348 36.8331C82.3872 36.6806 82.6344 36.6806 82.7868 36.8331L84.8234 38.8697C84.9759 39.0221 84.9759 39.2693 84.8234 39.4217L83.6613 40.5838L81.0727 37.9952L82.2348 36.8331ZM80.4965 38.5705L83.0852 41.1592L77.045 47.1994L74.4563 44.6107L80.4965 38.5705ZM72.978 48.6633L76.4266 47.6977L73.9436 45.2147L72.978 48.6633Z" fill="white"/>
<defs>
<filter id="filter0_d_2657_366702" x="5.49227" y="10.1537" width="79.774" height="42.2987" filterUnits="userSpaceOnUse" color-interpolation-filters="sRGB">
<feFlood flood-opacity="0" result="BackgroundImageFix"/>
<feColorMatrix in="SourceAlpha" type="matrix" values="0 0 0 0 0 0 0 0 0 0 0 0 0 0 0 0 0 0 127 0" result="hardAlpha"/>
<feOffset dy="2.20928"/>
<feGaussianBlur stdDeviation="3.31392"/>
<feComposite in2="hardAlpha" operator="out"/>
<feColorMatrix type="matrix" values="0 0 0 0 0.423529 0 0 0 0 0.423529 0 0 0 0 0.423529 0 0 0 0.12 0"/>
<feBlend mode="normal" in2="BackgroundImageFix" result="effect1_dropShadow_2657_366702"/>
<feBlend mode="normal" in="SourceGraphic" in2="effect1_dropShadow_2657_366702" result="shape"/>
</filter>
</defs>
</svg>
