<svg width="11" height="11" viewBox="0 0 11 11" fill="none" xmlns="http://www.w3.org/2000/svg">
	<path fill-rule="evenodd" clip-rule="evenodd" d="M5.31274 0.550527C5.27609 0.520963 5.22379 0.520964 5.18715 0.550528L0.64176 4.21789C0.441426 4.37953 0.443699 4.68556 0.646413 4.8442L1.24801 5.31501C1.39465 5.42977 1.60108 5.42816 1.74592 5.31114L4.29876 3.2485V10.0999C4.29876 10.3208 4.47785 10.4999 4.69876 10.4999H5.80124C6.02215 10.4999 6.20124 10.3208 6.20124 10.0999V3.2485L8.75408 5.31114C8.89892 5.42816 9.10535 5.42977 9.25199 5.31501L9.85358 4.84421C10.0563 4.68557 10.0586 4.37953 9.85823 4.21789L5.31274 0.550527Z" fill="#A7FAD3"/>
</svg>