<svg width="88" height="87" viewBox="0 0 88 87" fill="none" xmlns="http://www.w3.org/2000/svg">
	<path d="M17.7652 42.7593C19.1008 31.4473 25.0201 21.6452 36.1969 18.5139C39.1467 17.6874 42.1592 17.3482 45.1165 17.4637" stroke="white" stroke-width="2.5" stroke-linecap="round"/>
	<path d="M21.4606 57.4266C23.0299 59.9358 25.0062 62.2346 27.3498 64.2074C35.3875 70.973 45.1588 72.3451 57.0393 67.4821" stroke="white" stroke-width="2.5" stroke-linecap="round"/>
	<path d="M28.5818 57.4407L20.2446 57.4407L20.2446 65.7904" stroke="white" stroke-width="2.5" stroke-linecap="round" stroke-linejoin="round"/>
	<path d="M17.5609 44.4712C17.5609 32.5434 25.0342 21.6452 36.2111 18.5139C39.1609 17.6874 42.1734 17.3482 45.1307 17.4637" stroke="white" stroke-width="2.5" stroke-linecap="round"/>
	<path d="M39.9789 23.4846L45.3404 17.0951L38.9413 11.7256" stroke="white" stroke-width="2.5" stroke-linecap="round" stroke-linejoin="round"/>
	<path d="M67.0262 57.4336C68.6049 54.9303 69.8173 52.1517 70.5765 49.1839C73.2531 38.7204 67.1519 25.6071 57.1845 20.2971" stroke="white" stroke-width="2.5" stroke-linecap="round"/>
	<path d="M63.5981 51.019L66.5931 58.8013L74.3872 55.8018" stroke="white" stroke-width="2.5" stroke-linecap="round" stroke-linejoin="round"/>
	<path d="M51.7284 36.8346C50.3775 33.7158 47.6546 32.172 44.3229 32.172C39.7704 32.172 36.7016 34.7009 36.9663 38.1845C37.2101 41.3938 40.0909 43.2113 44.5817 43.7859C49.0725 44.3604 52.0437 46.228 52.0437 49.8435C52.0437 53.459 49.3423 55.7857 44.3229 55.7857C39.0566 55.7857 37.0781 53.2858 36.3904 51.1411" stroke="white" stroke-width="2.5" stroke-linecap="round" stroke-linejoin="round"/>
	<path d="M44.3651 30.4603V29.798" stroke="white" stroke-width="2.5" stroke-linecap="round" stroke-linejoin="round"/>
	<path d="M44.3608 58.2157V57.5533" stroke="white" stroke-width="2.5" stroke-linecap="round" stroke-linejoin="round"/>
</svg>