<svg width="20" height="20" viewBox="0 0 20 20" fill="none" xmlns="http://www.w3.org/2000/svg">
	<g opacity="0.7">
		<path fill-rule="evenodd" clip-rule="evenodd" d="M5.55872 11.2955V12.9582L6.54781 11.9691V12.5793C6.54781 12.8785 6.62666 13.1593 6.76472 13.4021L6.37132 13.7955C5.64092 14.5259 4.39205 14.0086 4.39205 12.9756V11.9674C3.64637 11.5347 3.1449 10.7276 3.1449 9.80347V6.55273C3.1449 5.17202 4.26419 4.05273 5.6449 4.05273H11.2292C12.6099 4.05273 13.7292 5.17202 13.7292 6.55273V7.22005H14.5217C15.8104 7.22005 16.855 8.26472 16.855 9.55339V12.6238C16.855 13.4615 16.4136 14.1961 15.7506 14.6077V15.2374C15.7506 16.2704 14.5017 16.7877 13.7713 16.0573L12.6712 14.9572H9.82239C8.53373 14.9572 7.48906 13.9125 7.48906 12.6238V9.55339C7.48906 8.26472 8.53372 7.22005 9.82239 7.22005H12.5625V6.55273C12.5625 5.81635 11.9656 5.2194 11.2292 5.2194H5.6449C4.90852 5.2194 4.31156 5.81635 4.31156 6.55273V9.80347C4.31156 10.2949 4.57682 10.7257 4.97756 10.9583L5.55872 11.2955ZM14.5839 15.2199V13.9587L15.1353 13.6165C15.4698 13.4088 15.6884 13.0414 15.6884 12.6238V9.55339C15.6884 8.90905 15.166 8.38672 14.5217 8.38672H9.82239C9.17806 8.38672 8.65572 8.90905 8.65572 9.55339V12.6238C8.65572 13.2682 9.17806 13.7905 9.82239 13.7905H13.1545L14.5839 15.2199Z" fill="white"/>
	</g>
</svg>