<svg width="20" height="22" viewBox="0 0 20 22" fill="none" xmlns="http://www.w3.org/2000/svg">
	<g opacity="0.9">
		<path d="M10.4906 16.863V15.8275C10.4906 15.0412 10.6567 14.3189 10.9891 13.6606C11.3279 12.9958 11.8169 12.4652 12.4561 12.0689C13.1017 11.6662 13.8879 11.4649 14.8148 11.4649C15.7544 11.4649 16.5438 11.663 17.183 12.0593C17.8286 12.4557 18.3144 12.9862 18.6404 13.651C18.9728 14.3093 19.139 15.0348 19.139 15.8275V16.863C19.139 17.6492 18.9728 18.3747 18.6404 19.0395C18.308 19.6978 17.819 20.2252 17.1734 20.6215C16.5278 21.0242 15.7416 21.2255 14.8148 21.2255C13.8751 21.2255 13.0857 21.0242 12.4465 20.6215C11.8073 20.2252 11.3215 19.6978 10.9891 19.0395C10.6567 18.3747 10.4906 17.6492 10.4906 16.863ZM13.2807 15.8275V16.863C13.2807 17.3168 13.3893 17.7451 13.6067 18.1478C13.8304 18.5505 14.2331 18.7518 14.8148 18.7518C15.3964 18.7518 15.7928 18.5537 16.0037 18.1574C16.221 17.761 16.3297 17.3296 16.3297 16.863V15.8275C16.3297 15.3608 16.2274 14.9262 16.0229 14.5235C15.8183 14.1208 15.4156 13.9194 14.8148 13.9194C14.2395 13.9194 13.84 14.1208 13.6163 14.5235C13.3925 14.9262 13.2807 15.3608 13.2807 15.8275ZM0.413492 5.62575V4.59024C0.413492 3.79763 0.582882 3.07213 0.92166 2.41375C1.26044 1.74897 1.74943 1.21843 2.38863 0.822128C3.03423 0.425821 3.81406 0.227668 4.72812 0.227668C5.67415 0.227668 6.46676 0.425821 7.10596 0.822128C7.74517 1.21843 8.23096 1.74897 8.56335 2.41375C8.89574 3.07213 9.06193 3.79763 9.06193 4.59024V5.62575C9.06193 6.41836 8.89254 7.14386 8.55376 7.80224C8.22138 8.46062 7.73238 8.98797 7.08679 9.38427C6.44758 9.77419 5.66136 9.96915 4.72812 9.96915C3.79488 9.96915 3.00547 9.77099 2.35987 9.37468C1.72067 8.97199 1.23487 8.44464 0.902484 7.79265C0.57649 7.13427 0.413492 6.41197 0.413492 5.62575ZM3.2228 4.59024V5.62575C3.2228 6.09237 3.33146 6.52383 3.54879 6.92014C3.77251 7.31645 4.16562 7.5146 4.72812 7.5146C5.31619 7.5146 5.71569 7.31645 5.92663 6.92014C6.14396 6.52383 6.25263 6.09237 6.25263 5.62575V4.59024C6.25263 4.12362 6.15035 3.68896 5.94581 3.28626C5.74126 2.88356 5.33537 2.68221 4.72812 2.68221C4.15923 2.68221 3.76612 2.88676 3.54879 3.29585C3.33146 3.70494 3.2228 4.1364 3.2228 4.59024ZM1.67912 20.5448L15.1791 0.90842H17.6912L4.19119 20.5448H1.67912Z" fill="white" fill-opacity="0.6"/>
	</g>
</svg>