<svg width="192" height="123" viewBox="0 0 192 123" fill="none" xmlns="http://www.w3.org/2000/svg">
<path d="M34.1172 21.2661C34.1172 9.35484 44.1163 -0.11514 56.0106 0.531229L127.21 4.40041C138.225 4.99899 146.849 14.1047 146.849 25.1352V96.2024C146.849 107.067 138.474 116.096 127.638 116.909L56.4392 122.257C44.3912 123.162 34.1172 113.632 34.1172 101.55V21.2661Z" fill="#D7EFFF" fill-opacity="0.8"/>
<path d="M55.4355 1.20801L55.9727 1.23047L127.172 5.09961C137.815 5.67802 146.149 14.4763 146.149 25.1348V96.2021C146.149 106.537 138.307 115.152 128.075 116.169L127.586 116.212L56.3867 121.56C44.745 122.434 34.8176 113.225 34.8174 101.551V21.2656C34.8176 9.93588 44.18 0.891915 55.4355 1.20801Z" stroke="white" stroke-opacity="0.24" stroke-width="1.4"/>
<g opacity="0.9" filter="url(#filter0_d_6347_253094)">
<path fill-rule="evenodd" clip-rule="evenodd" d="M84.946 33.9016C84.946 38.6545 81.0372 42.4777 76.2854 42.3725C71.6801 42.2705 68 38.508 68 33.9016V32.3993C68 27.5566 72.0517 23.6989 76.8886 23.9364C81.4011 24.158 84.946 27.8813 84.946 32.3993V33.9016Z" fill="white"/>
</g>
<g opacity="0.9" filter="url(#filter1_d_6347_253094)">
<path fill-rule="evenodd" clip-rule="evenodd" d="M117.91 27.4616C117.91 28.655 116.914 29.6065 115.721 29.5509L93.3679 28.5094C92.2121 28.4556 91.3027 27.5029 91.3027 26.3458C91.3027 25.1044 92.3441 24.117 93.5838 24.183L115.93 25.3729C117.04 25.432 117.91 26.3496 117.91 27.4616Z" fill="white"/>
</g>
<g opacity="0.9" filter="url(#filter2_d_6347_253094)">
<path fill-rule="evenodd" clip-rule="evenodd" d="M106.018 36.0124C106.018 37.2162 105.022 38.1812 103.818 38.143L92.9983 37.799C91.8269 37.7618 90.8965 36.8013 90.8965 35.6293C90.8965 34.3972 91.9208 33.4121 93.152 33.4601L103.969 33.8824C105.113 33.9271 106.018 34.8675 106.018 36.0124Z" fill="white"/>
</g>
<g opacity="0.76">
<g opacity="0.9" filter="url(#filter3_d_6347_253094)">
<path fill-rule="evenodd" clip-rule="evenodd" d="M84.946 61.474C84.946 66.0935 81.2457 69.8617 76.6269 69.9456C71.888 70.0317 68 66.2138 68 61.474V59.5863C68 54.8775 71.8393 51.072 76.5479 51.1136C81.198 51.1547 84.946 54.936 84.946 59.5863V61.474Z" fill="white"/>
</g>
<g opacity="0.9" filter="url(#filter4_d_6347_253094)">
<path fill-rule="evenodd" clip-rule="evenodd" d="M117.529 54.3716C117.529 55.5308 116.588 56.4695 115.429 56.4662L93.0627 56.4024C91.8653 56.399 90.8965 55.4274 90.8965 54.23C90.8965 53.0219 91.8822 52.0458 93.0902 52.0577L115.455 52.2772C116.604 52.2885 117.529 53.2229 117.529 54.3716Z" fill="white"/>
</g>
<g opacity="0.9" filter="url(#filter5_d_6347_253094)">
<path fill-rule="evenodd" clip-rule="evenodd" d="M106.018 63.4271C106.018 64.5973 105.076 65.5497 103.906 65.5634L93.0946 65.6901C91.8848 65.7042 90.8965 64.7274 90.8965 63.5175C90.8965 62.3218 91.8626 61.3508 93.0583 61.3448L103.87 61.2906C105.055 61.2846 106.018 62.2429 106.018 63.4271Z" fill="white"/>
</g>
</g>
<g opacity="0.6">
<g opacity="0.9" filter="url(#filter6_d_6347_253094)">
<path fill-rule="evenodd" clip-rule="evenodd" d="M84.946 90.7852C84.946 95.2764 81.4416 98.9874 76.9577 99.2444C72.0957 99.523 68 95.6553 68 90.7852V89.4334C68 84.8563 71.6352 81.1065 76.2102 80.9645C80.9904 80.8161 84.946 84.6509 84.946 89.4334V90.7852Z" fill="white"/>
</g>
<g opacity="0.9" filter="url(#filter7_d_6347_253094)">
<path fill-rule="evenodd" clip-rule="evenodd" d="M117.529 81.3623C117.529 82.4872 116.642 83.4117 115.518 83.4576L93.1564 84.371C91.9235 84.4214 90.8965 83.4355 90.8965 82.2015C90.8965 81.0312 91.824 80.0715 92.9936 80.0315L115.361 79.2665C116.546 79.226 117.529 80.1761 117.529 81.3623Z" fill="white"/>
</g>
<g opacity="0.9" filter="url(#filter8_d_6347_253094)">
<path fill-rule="evenodd" clip-rule="evenodd" d="M106.018 90.9202C106.018 92.0529 105.133 92.9882 104.002 93.0507L93.186 93.6478C91.9425 93.7165 90.8965 92.7267 90.8965 91.4813C90.8965 90.3238 91.805 89.3701 92.9612 89.314L103.781 88.789C104.998 88.7299 106.018 89.7012 106.018 90.9202Z" fill="white"/>
</g>
</g>
<path d="M0 73.4613C0 65.2817 6.60215 58.641 14.7693 58.6058L38.5024 58.5033C46.7194 58.4678 53.3995 65.1293 53.3995 73.3589V100.178C53.3995 107.968 47.392 114.435 39.6346 114.996L15.9015 116.712C7.31097 117.333 0 110.521 0 101.895V73.4613Z" fill="#1BCE7B" fill-opacity="0.78"/>
<path d="M38.5049 59.0032C46.444 58.9691 52.8993 65.4055 52.8994 73.3586V100.178C52.8994 107.588 47.2737 113.759 39.9482 114.467L39.5986 114.497L15.8652 116.213C7.56517 116.813 0.5 110.231 0.5 101.895V73.4612C0.500084 65.6799 6.68237 59.3404 14.4023 59.1116L14.7715 59.1057L38.5049 59.0032Z" stroke="white" stroke-opacity="0.18"/>
<g opacity="0.77" filter="url(#filter9_d_6347_253094)">
<path d="M133.5 23.3243C133.5 16.5539 139.139 11.1514 145.892 11.4514L166.659 12.3738C173.002 12.6556 178 17.8878 178 24.2467V48.978C178 55.4643 172.807 60.7526 166.331 60.8609L145.565 61.2085C138.934 61.3194 133.5 55.9669 133.5 49.3256V23.3243Z" fill="#1F86FF"/>
</g>
<g filter="url(#filter10_d_6347_253094)">
<path fill-rule="evenodd" clip-rule="evenodd" d="M156.275 51.4923C163.368 51.2905 169 44.3373 169 35.9584C169 27.5794 163.368 20.6588 156.275 20.5026C149.012 20.3463 143 27.3027 143 36.043C143 44.7833 149.012 51.7006 156.271 51.4956L156.275 51.4923ZM149.245 37.6088C148.868 37.2116 148.896 36.5053 149.301 36.1472L150.09 35.4473C150.347 35.2194 150.692 35.1967 150.97 35.3855L153.792 37.3158C154.095 37.5241 154.475 37.4688 154.729 37.1823L161.325 29.7637C161.491 29.5781 161.72 29.487 161.945 29.5228L162.942 29.6725C163.555 29.7637 163.837 30.6426 163.432 31.2025L155.204 42.6186C154.915 43.019 154.408 43.0645 154.08 42.7162L149.241 37.612L149.245 37.6088Z" fill="white" fill-opacity="0.9" shape-rendering="crispEdges"/>
</g>
<g filter="url(#filter11_d_6347_253094)">
<path fill-rule="evenodd" clip-rule="evenodd" d="M35.0406 71.3279C35.424 70.8677 36.0432 70.8965 36.4231 71.3854L40.7221 76.9583C41.095 77.4401 41.0915 78.1987 40.7186 78.6553L22.8508 100.497L16.8492 93.1556L35.0406 71.3279ZM14.0207 103.05C13.9644 103.313 14.0242 103.589 14.1826 103.784C14.3444 103.974 14.573 104.046 14.7912 103.97L21.5351 101.695L15.8536 94.8454L14.0207 103.05Z" fill="white" fill-opacity="0.9" shape-rendering="crispEdges"/>
</g>
<defs>
<filter id="filter0_d_6347_253094" x="58" y="17.9263" width="36.9453" height="38.4482" filterUnits="userSpaceOnUse" color-interpolation-filters="sRGB">
<feFlood flood-opacity="0" result="BackgroundImageFix"/>
<feColorMatrix in="SourceAlpha" type="matrix" values="0 0 0 0 0 0 0 0 0 0 0 0 0 0 0 0 0 0 127 0" result="hardAlpha"/>
<feOffset dy="4"/>
<feGaussianBlur stdDeviation="5"/>
<feComposite in2="hardAlpha" operator="out"/>
<feColorMatrix type="matrix" values="0 0 0 0 0 0 0 0 0 0 0 0 0 0 0 0 0 0 0.05 0"/>
<feBlend mode="normal" in2="BackgroundImageFix" result="effect1_dropShadow_6347_253094"/>
<feBlend mode="normal" in="SourceGraphic" in2="effect1_dropShadow_6347_253094" result="shape"/>
</filter>
<filter id="filter1_d_6347_253094" x="81.3027" y="18.1797" width="46.6074" height="25.3735" filterUnits="userSpaceOnUse" color-interpolation-filters="sRGB">
<feFlood flood-opacity="0" result="BackgroundImageFix"/>
<feColorMatrix in="SourceAlpha" type="matrix" values="0 0 0 0 0 0 0 0 0 0 0 0 0 0 0 0 0 0 127 0" result="hardAlpha"/>
<feOffset dy="4"/>
<feGaussianBlur stdDeviation="5"/>
<feComposite in2="hardAlpha" operator="out"/>
<feColorMatrix type="matrix" values="0 0 0 0 0 0 0 0 0 0 0 0 0 0 0 0 0 0 0.05 0"/>
<feBlend mode="normal" in2="BackgroundImageFix" result="effect1_dropShadow_6347_253094"/>
<feBlend mode="normal" in="SourceGraphic" in2="effect1_dropShadow_6347_253094" result="shape"/>
</filter>
<filter id="filter2_d_6347_253094" x="80.8965" y="27.4585" width="35.1211" height="24.6855" filterUnits="userSpaceOnUse" color-interpolation-filters="sRGB">
<feFlood flood-opacity="0" result="BackgroundImageFix"/>
<feColorMatrix in="SourceAlpha" type="matrix" values="0 0 0 0 0 0 0 0 0 0 0 0 0 0 0 0 0 0 127 0" result="hardAlpha"/>
<feOffset dy="4"/>
<feGaussianBlur stdDeviation="5"/>
<feComposite in2="hardAlpha" operator="out"/>
<feColorMatrix type="matrix" values="0 0 0 0 0 0 0 0 0 0 0 0 0 0 0 0 0 0 0.05 0"/>
<feBlend mode="normal" in2="BackgroundImageFix" result="effect1_dropShadow_6347_253094"/>
<feBlend mode="normal" in="SourceGraphic" in2="effect1_dropShadow_6347_253094" result="shape"/>
</filter>
<filter id="filter3_d_6347_253094" x="58" y="45.1133" width="36.9453" height="38.8337" filterUnits="userSpaceOnUse" color-interpolation-filters="sRGB">
<feFlood flood-opacity="0" result="BackgroundImageFix"/>
<feColorMatrix in="SourceAlpha" type="matrix" values="0 0 0 0 0 0 0 0 0 0 0 0 0 0 0 0 0 0 127 0" result="hardAlpha"/>
<feOffset dy="4"/>
<feGaussianBlur stdDeviation="5"/>
<feComposite in2="hardAlpha" operator="out"/>
<feColorMatrix type="matrix" values="0 0 0 0 0 0 0 0 0 0 0 0 0 0 0 0 0 0 0.05 0"/>
<feBlend mode="normal" in2="BackgroundImageFix" result="effect1_dropShadow_6347_253094"/>
<feBlend mode="normal" in="SourceGraphic" in2="effect1_dropShadow_6347_253094" result="shape"/>
</filter>
<filter id="filter4_d_6347_253094" x="80.8965" y="46.0576" width="46.6328" height="24.4084" filterUnits="userSpaceOnUse" color-interpolation-filters="sRGB">
<feFlood flood-opacity="0" result="BackgroundImageFix"/>
<feColorMatrix in="SourceAlpha" type="matrix" values="0 0 0 0 0 0 0 0 0 0 0 0 0 0 0 0 0 0 127 0" result="hardAlpha"/>
<feOffset dy="4"/>
<feGaussianBlur stdDeviation="5"/>
<feComposite in2="hardAlpha" operator="out"/>
<feColorMatrix type="matrix" values="0 0 0 0 0 0 0 0 0 0 0 0 0 0 0 0 0 0 0.05 0"/>
<feBlend mode="normal" in2="BackgroundImageFix" result="effect1_dropShadow_6347_253094"/>
<feBlend mode="normal" in="SourceGraphic" in2="effect1_dropShadow_6347_253094" result="shape"/>
</filter>
<filter id="filter5_d_6347_253094" x="80.8965" y="55.2905" width="35.1211" height="24.3997" filterUnits="userSpaceOnUse" color-interpolation-filters="sRGB">
<feFlood flood-opacity="0" result="BackgroundImageFix"/>
<feColorMatrix in="SourceAlpha" type="matrix" values="0 0 0 0 0 0 0 0 0 0 0 0 0 0 0 0 0 0 127 0" result="hardAlpha"/>
<feOffset dy="4"/>
<feGaussianBlur stdDeviation="5"/>
<feComposite in2="hardAlpha" operator="out"/>
<feColorMatrix type="matrix" values="0 0 0 0 0 0 0 0 0 0 0 0 0 0 0 0 0 0 0.05 0"/>
<feBlend mode="normal" in2="BackgroundImageFix" result="effect1_dropShadow_6347_253094"/>
<feBlend mode="normal" in="SourceGraphic" in2="effect1_dropShadow_6347_253094" result="shape"/>
</filter>
<filter id="filter6_d_6347_253094" x="58" y="74.9604" width="36.9453" height="38.2981" filterUnits="userSpaceOnUse" color-interpolation-filters="sRGB">
<feFlood flood-opacity="0" result="BackgroundImageFix"/>
<feColorMatrix in="SourceAlpha" type="matrix" values="0 0 0 0 0 0 0 0 0 0 0 0 0 0 0 0 0 0 127 0" result="hardAlpha"/>
<feOffset dy="4"/>
<feGaussianBlur stdDeviation="5"/>
<feComposite in2="hardAlpha" operator="out"/>
<feColorMatrix type="matrix" values="0 0 0 0 0 0 0 0 0 0 0 0 0 0 0 0 0 0 0.05 0"/>
<feBlend mode="normal" in2="BackgroundImageFix" result="effect1_dropShadow_6347_253094"/>
<feBlend mode="normal" in="SourceGraphic" in2="effect1_dropShadow_6347_253094" result="shape"/>
</filter>
<filter id="filter7_d_6347_253094" x="80.8965" y="73.2654" width="46.6328" height="25.1074" filterUnits="userSpaceOnUse" color-interpolation-filters="sRGB">
<feFlood flood-opacity="0" result="BackgroundImageFix"/>
<feColorMatrix in="SourceAlpha" type="matrix" values="0 0 0 0 0 0 0 0 0 0 0 0 0 0 0 0 0 0 127 0" result="hardAlpha"/>
<feOffset dy="4"/>
<feGaussianBlur stdDeviation="5"/>
<feComposite in2="hardAlpha" operator="out"/>
<feColorMatrix type="matrix" values="0 0 0 0 0 0 0 0 0 0 0 0 0 0 0 0 0 0 0.05 0"/>
<feBlend mode="normal" in2="BackgroundImageFix" result="effect1_dropShadow_6347_253094"/>
<feBlend mode="normal" in="SourceGraphic" in2="effect1_dropShadow_6347_253094" result="shape"/>
</filter>
<filter id="filter8_d_6347_253094" x="80.8965" y="82.7864" width="35.1211" height="24.8647" filterUnits="userSpaceOnUse" color-interpolation-filters="sRGB">
<feFlood flood-opacity="0" result="BackgroundImageFix"/>
<feColorMatrix in="SourceAlpha" type="matrix" values="0 0 0 0 0 0 0 0 0 0 0 0 0 0 0 0 0 0 127 0" result="hardAlpha"/>
<feOffset dy="4"/>
<feGaussianBlur stdDeviation="5"/>
<feComposite in2="hardAlpha" operator="out"/>
<feColorMatrix type="matrix" values="0 0 0 0 0 0 0 0 0 0 0 0 0 0 0 0 0 0 0.05 0"/>
<feBlend mode="normal" in2="BackgroundImageFix" result="effect1_dropShadow_6347_253094"/>
<feBlend mode="normal" in="SourceGraphic" in2="effect1_dropShadow_6347_253094" result="shape"/>
</filter>
<filter id="filter9_d_6347_253094" x="119.5" y="1.43945" width="72.5" height="77.7708" filterUnits="userSpaceOnUse" color-interpolation-filters="sRGB">
<feFlood flood-opacity="0" result="BackgroundImageFix"/>
<feColorMatrix in="SourceAlpha" type="matrix" values="0 0 0 0 0 0 0 0 0 0 0 0 0 0 0 0 0 0 127 0" result="hardAlpha"/>
<feOffset dy="4"/>
<feGaussianBlur stdDeviation="7"/>
<feComposite in2="hardAlpha" operator="out"/>
<feColorMatrix type="matrix" values="0 0 0 0 0.114518 0 0 0 0 0.523572 0 0 0 0 1 0 0 0 0.3 0"/>
<feBlend mode="normal" in2="BackgroundImageFix" result="effect1_dropShadow_6347_253094"/>
<feBlend mode="normal" in="SourceGraphic" in2="effect1_dropShadow_6347_253094" result="shape"/>
</filter>
<filter id="filter10_d_6347_253094" x="133" y="14.5" width="46" height="51" filterUnits="userSpaceOnUse" color-interpolation-filters="sRGB">
<feFlood flood-opacity="0" result="BackgroundImageFix"/>
<feColorMatrix in="SourceAlpha" type="matrix" values="0 0 0 0 0 0 0 0 0 0 0 0 0 0 0 0 0 0 127 0" result="hardAlpha"/>
<feOffset dy="4"/>
<feGaussianBlur stdDeviation="5"/>
<feComposite in2="hardAlpha" operator="out"/>
<feColorMatrix type="matrix" values="0 0 0 0 0 0 0 0 0 0 0 0 0 0 0 0 0 0 0.05 0"/>
<feBlend mode="normal" in2="BackgroundImageFix" result="effect1_dropShadow_6347_253094"/>
<feBlend mode="normal" in="SourceGraphic" in2="effect1_dropShadow_6347_253094" result="shape"/>
</filter>
<filter id="filter11_d_6347_253094" x="4" y="65" width="47" height="53" filterUnits="userSpaceOnUse" color-interpolation-filters="sRGB">
<feFlood flood-opacity="0" result="BackgroundImageFix"/>
<feColorMatrix in="SourceAlpha" type="matrix" values="0 0 0 0 0 0 0 0 0 0 0 0 0 0 0 0 0 0 127 0" result="hardAlpha"/>
<feOffset dy="4"/>
<feGaussianBlur stdDeviation="5"/>
<feComposite in2="hardAlpha" operator="out"/>
<feColorMatrix type="matrix" values="0 0 0 0 0 0 0 0 0 0 0 0 0 0 0 0 0 0 0.05 0"/>
<feBlend mode="normal" in2="BackgroundImageFix" result="effect1_dropShadow_6347_253094"/>
<feBlend mode="normal" in="SourceGraphic" in2="effect1_dropShadow_6347_253094" result="shape"/>
</filter>
</defs>
</svg>
