<svg width="26" height="27" viewBox="0 0 26 27" fill="none" xmlns="http://www.w3.org/2000/svg">
<circle cx="13" cy="13.5" r="13" fill="#EDEEF0"/>
<path d="M14.4337 9.97214C15.0812 8.751 16.5893 8.29859 17.8021 8.96165C17.8779 9.00309 17.9066 9.09856 17.8661 9.17488L13.2162 17.9434C12.8722 18.5921 12.071 18.8324 11.4267 18.4802C10.7825 18.1279 10.539 17.3165 10.883 16.6678L14.4337 9.97214Z" fill="#828B95"/>
<path d="M10.0344 9.97214C10.682 8.751 12.1901 8.29859 13.4029 8.96165C13.4787 9.00309 13.5073 9.09856 13.4668 9.17488L8.817 17.9434C8.47298 18.5921 7.6718 18.8324 7.02751 18.4802C6.38321 18.1279 6.13979 17.3165 6.4838 16.6678L10.0344 9.97214Z" fill="#828B95"/>
<path fill-rule="evenodd" clip-rule="evenodd" d="M15.9059 15.2621C15.8914 15.2894 15.8838 15.3199 15.8838 15.3509L15.8839 17.3268C15.884 18.0842 16.4889 18.6984 17.2348 18.6984C17.9799 18.6984 18.5837 18.0854 18.5836 17.3288L18.5833 10.9557C18.5833 10.7612 18.3274 10.6957 18.2366 10.867L15.9059 15.2621Z" fill="#828B95"/>
</svg>
