<svg width="26" height="26" viewBox="0 0 26 26" fill="none" xmlns="http://www.w3.org/2000/svg">
<circle cx="13" cy="13" r="13" fill="#EDEEF0"/>
<path fill-rule="evenodd" clip-rule="evenodd" d="M13.4789 7.37906C12.4491 7.37906 12.0383 8.13112 12.0383 8.47852V8.52294H14.9196V8.47852C14.9196 8.13112 14.5088 7.37906 13.4789 7.37906ZM10.825 10.8674V9.87104H10.4687C9.94034 9.87104 9.50109 10.2778 9.46057 10.8046L9.01064 16.6535C8.96547 17.2408 9.42978 17.7422 10.0187 17.7422H13.1332L13.5395 19.0903H10.0187C8.6445 19.0903 7.56111 17.9203 7.66651 16.5501L8.11643 10.7012C8.21098 9.47205 9.23591 8.52294 10.4687 8.52294H10.825V8.47852C10.825 7.46104 11.779 6.16577 13.4789 6.16577C15.1789 6.16577 16.1329 7.46104 16.1329 8.47852V8.52294H16.4672C17.7 8.52294 18.7249 9.47205 18.8194 10.7012L19.1129 14.5163L17.7195 13.9789L17.4753 10.8046C17.4348 10.2778 16.9955 9.87104 16.4672 9.87104H16.1329V10.8555C16.428 11.0554 16.6219 11.3935 16.6219 11.7768C16.6219 12.3911 16.124 12.889 15.5097 12.889C14.8955 12.889 14.3976 12.3911 14.3976 11.7768C14.3976 11.3794 14.606 11.0306 14.9196 10.8339V9.87104H12.0383V10.8234C12.3614 11.0179 12.5775 11.3721 12.5775 11.7768C12.5775 12.3911 12.0796 12.889 11.4653 12.889C10.8511 12.889 10.3532 12.3911 10.3532 11.7768C10.3532 11.401 10.5396 11.0687 10.825 10.8674ZM15.4142 19.5535L13.9319 14.6355C13.9098 14.5624 13.9109 14.4842 13.9348 14.4127C13.9959 14.2298 14.1878 14.1365 14.3636 14.2042L19.1411 16.0466C19.2231 16.0783 19.2909 16.1416 19.3304 16.2235C19.415 16.3989 19.3493 16.6102 19.1836 16.6954L18.2986 17.1505C18.2648 17.1679 18.2341 17.1912 18.2079 17.2195C18.0796 17.358 18.0848 17.5815 18.2195 17.7189L19.4257 18.9482L19.4322 18.955C19.5634 19.0959 19.5629 19.3195 19.4311 19.4542L18.7914 20.1081L18.7849 20.1145C18.6496 20.2454 18.4364 20.2345 18.3088 20.09L17.1857 18.8189C17.1761 18.808 17.1658 18.7978 17.155 18.7882C17.0114 18.6611 16.7991 18.6781 16.6808 18.826L15.9951 19.6833C15.9539 19.7349 15.8991 19.7726 15.8373 19.7919C15.66 19.8472 15.4706 19.7405 15.4142 19.5535Z" fill="#828B95"/>
</svg>
