<svg width="26" height="27" viewBox="0 0 26 27" fill="none" xmlns="http://www.w3.org/2000/svg">
<path fill-rule="evenodd" clip-rule="evenodd" d="M13.0181 7.46203C14.3627 7.74294 15.5792 8.41485 16.5607 9.42188C17.4847 10.3723 18.1237 11.5435 18.4245 12.8357C18.4811 13.0792 18.3271 13.3216 18.0866 13.3637L17.9746 13.3834C17.7553 13.4218 17.546 13.278 17.4943 13.056C17.2353 11.9431 16.6837 10.933 15.8871 10.1157C15.0418 9.25074 13.994 8.67013 12.8365 8.42532C12.619 8.37932 12.4733 8.16852 12.5041 7.94279L12.5201 7.82567C12.5537 7.58028 12.7815 7.4126 13.0181 7.46203ZM15.7806 15.7203C15.3822 15.2967 14.8848 15.2967 14.4889 15.7203C14.3424 15.8767 14.2138 15.9817 14.0863 16.0858C13.9511 16.1963 13.817 16.3057 13.6641 16.4746C13.5829 16.5648 13.5144 16.5839 13.4154 16.5238C13.338 16.4783 13.2586 16.4362 13.1792 16.3942L13.1792 16.3942C13.0583 16.3302 12.9375 16.2662 12.8241 16.1904C11.9486 15.5973 11.1939 15.0617 10.5442 14.2035C10.2219 13.7772 9.93516 13.3208 9.73468 12.807C9.69407 12.7032 9.70169 12.6348 9.78036 12.5501C10.0166 12.3042 10.1302 12.1804 10.3106 11.9838L10.3108 11.9836C10.3609 11.929 10.4162 11.8687 10.4808 11.7986C10.8944 11.3504 10.8944 10.8257 10.4782 10.3747C10.2841 10.1634 10.0953 9.88574 9.92727 9.63875C9.89104 9.58549 9.85578 9.53365 9.82165 9.48421C9.75519 9.38793 9.69367 9.28538 9.63147 9.18168L9.63147 9.18167C9.51363 8.98523 9.39331 8.78466 9.2322 8.61473C8.83377 8.1966 8.33637 8.1966 7.94048 8.61747C7.81863 8.74649 7.69882 8.87683 7.57909 9.00708C7.39957 9.20238 7.22023 9.39747 7.03449 9.58765C6.74773 9.88007 6.60307 10.2381 6.57262 10.6562C6.5244 11.3367 6.67921 11.9789 6.89745 12.6048C7.3441 13.9002 8.02422 15.0507 8.849 16.1056C9.96308 17.5322 11.3142 18.4341 12.8698 19.2485C13.5702 19.6147 14.296 19.8962 15.0853 19.9426C15.6284 19.9754 16.1004 19.8279 16.4785 19.3715C16.6486 19.1667 16.833 18.9737 17.0173 18.7809C17.1133 18.6804 17.2093 18.5799 17.3033 18.4778C17.7093 18.0351 17.7119 17.4994 17.3084 17.0621C17.0652 16.799 16.8021 16.592 16.5388 16.385L16.5388 16.385C16.28 16.1814 16.0209 15.9777 15.7806 15.7203ZM15.4517 13.3839L15.559 13.3651C15.7933 13.3242 15.9422 13.0844 15.8766 12.8509C15.6897 12.1855 15.3414 11.583 14.8572 11.0859C14.3401 10.5572 13.7095 10.1906 13.0138 10.0103C12.7829 9.95048 12.5522 10.1087 12.5192 10.3499L12.5039 10.4611C12.4755 10.6685 12.6056 10.862 12.8039 10.9145C13.3366 11.0556 13.8203 11.3373 14.217 11.7429C14.5893 12.1236 14.8566 12.5869 15.0014 13.0979C15.0577 13.2964 15.2525 13.4186 15.4517 13.3839Z" fill="#828B95"/>
</svg>
