<svg width="16" height="16" viewBox="0 0 16 16" fill="none" xmlns="http://www.w3.org/2000/svg">
<g clip-path="url(#clip0_9089_27533)">
<mask id="path-1-inside-1_9089_27533" fill="white">
<path d="M0 8C0 3.58172 3.58172 0 8 0C12.4183 0 16 3.58172 16 8C16 12.4183 12.4183 16 8 16C3.58172 16 0 12.4183 0 8Z"/>
</mask>
<path d="M0 8C0 3.58172 3.58172 0 8 0C12.4183 0 16 3.58172 16 8C16 12.4183 12.4183 16 8 16C3.58172 16 0 12.4183 0 8Z" fill="#1CAE6A"/>
<path d="M8 15C4.13401 15 1 11.866 1 8H-1C-1 12.9706 3.02944 17 8 17V15ZM15 8C15 11.866 11.866 15 8 15V17C12.9706 17 17 12.9706 17 8H15ZM8 1C11.866 1 15 4.13401 15 8H17C17 3.02944 12.9706 -1 8 -1V1ZM8 -1C3.02944 -1 -1 3.02944 -1 8H1C1 4.13401 4.13401 1 8 1V-1Z" fill="white" fill-opacity="0.14" mask="url(#path-1-inside-1_9089_27533)"/>
<g filter="url(#filter0_d_9089_27533)">
<path d="M6 10.5453V5.45438C6 5.06574 6.42399 4.82568 6.75725 5.02564L10.9997 7.57111C11.3234 7.76532 11.3234 8.23441 10.9997 8.42861L6.75725 10.9741C6.42399 11.174 6 10.934 6 10.5453Z" fill="white"/>
</g>
</g>
<defs>
<filter id="filter0_d_9089_27533" x="4" y="3.95312" width="9.24268" height="10.0928" filterUnits="userSpaceOnUse" color-interpolation-filters="sRGB">
<feFlood flood-opacity="0" result="BackgroundImageFix"/>
<feColorMatrix in="SourceAlpha" type="matrix" values="0 0 0 0 0 0 0 0 0 0 0 0 0 0 0 0 0 0 127 0" result="hardAlpha"/>
<feOffset dy="1"/>
<feGaussianBlur stdDeviation="1"/>
<feComposite in2="hardAlpha" operator="out"/>
<feColorMatrix type="matrix" values="0 0 0 0 0 0 0 0 0 0 0 0 0 0 0 0 0 0 0.15 0"/>
<feBlend mode="normal" in2="BackgroundImageFix" result="effect1_dropShadow_9089_27533"/>
<feBlend mode="normal" in="SourceGraphic" in2="effect1_dropShadow_9089_27533" result="shape"/>
</filter>
<clipPath id="clip0_9089_27533">
<rect width="16" height="16" fill="white"/>
</clipPath>
</defs>
</svg>
