<svg width="110" height="109" viewBox="0 0 110 109" fill="none" xmlns="http://www.w3.org/2000/svg">
	<path d="M5.53027 18.8162C5.53027 11.8303 11.4743 6.32111 18.4401 6.85077L58.1632 9.8712C64.4196 10.3469 69.2533 15.5622 69.2533 21.8367V65.5109C69.2533 71.946 64.1774 77.2356 57.7477 77.5007L18.0247 79.1386C11.2091 79.4196 5.53027 73.9701 5.53027 67.1488V18.8162Z" fill="#FAA72C" fill-opacity="0.78"/>
	<path d="M6.03027 18.8162C6.03027 12.1214 11.7266 6.84174 18.4022 7.34933L58.1253 10.3698C64.121 10.8257 68.7533 15.8236 68.7533 21.8367V65.5109C68.7533 71.6778 63.8889 76.747 57.7271 77.0011L18.0041 78.639C11.4725 78.9083 6.03027 73.6859 6.03027 67.1488V18.8162Z" stroke="white" stroke-opacity="0.18"/>
	<path d="M59.1924 60.0585C59.1924 55.6464 62.7645 52.0673 67.1765 52.0585L96.4534 52.0005C100.878 51.9917 104.469 55.576 104.469 60.0005V92.5205C104.469 96.6559 101.317 100.11 97.1992 100.487L67.9223 103.169C63.2354 103.599 59.1924 99.9093 59.1924 95.2028V60.0585Z" fill="#C8C9CD" fill-opacity="0.68"/>
	<path d="M59.6924 60.0585C59.6924 55.9222 63.0412 52.5667 67.1775 52.5585L96.4544 52.5005C100.602 52.4923 103.969 55.8525 103.969 60.0005V92.5205C103.969 96.3975 101.014 99.6355 97.1536 99.9892L67.8767 102.671C63.4827 103.074 59.6924 99.6151 59.6924 95.2028V60.0585Z" stroke="white" stroke-opacity="0.4"/>
	<g filter="url(#filter0_d_2122_35798)">
		<path fill-rule="evenodd" clip-rule="evenodd" d="M38.4592 19.2944C31.9166 19.0149 26.4593 24.8176 26.4593 32.263V35.0479C23.637 35.5522 21.4619 38.2379 21.4619 41.4826V58.3947C21.4619 62.01 24.1622 64.7645 27.4444 64.5499L48.9139 63.9847C51.8299 63.7943 54.1619 60.9345 54.1619 57.5946V41.1322C54.1619 38.1346 52.2876 35.6413 49.7987 35.1492V32.5162C49.7987 25.4799 44.7991 19.5637 38.4592 19.2944ZM45.3396 35.0439V32.4675C45.3396 28.2 42.2884 24.6475 38.4592 24.5341C34.558 24.4166 31.3412 27.9003 31.3412 32.3156V34.9811L45.3375 35.0439H45.3396ZM38.4505 42.872C36.5086 42.9004 34.922 44.6989 34.922 46.8884C34.922 48.0672 35.384 49.1123 36.1141 49.8151V54.4998C36.1141 55.9541 37.1668 57.0822 38.4592 57.0194C39.7516 56.9566 40.7781 55.7394 40.7781 54.3013V49.653C41.4799 48.9178 41.9201 47.8707 41.9201 46.7203C41.9201 44.5673 40.3749 42.8457 38.4505 42.874V42.872Z" fill="white" fill-opacity="0.9" shape-rendering="crispEdges"/>
	</g>
	<g filter="url(#filter1_d_2122_35798)">
		<path fill-rule="evenodd" clip-rule="evenodd" d="M96.0847 76.9947C96.0847 84.2654 90.7854 90.6636 83.7314 91.334C76.0321 92.0664 69.2539 85.8025 69.2539 77.2818C69.2539 68.7611 76.0321 62.3524 83.7314 62.9194C90.7854 63.4387 96.0847 69.7233 96.0847 76.9947ZM83.7314 68.602C84.7076 68.641 85.4907 69.3591 85.4907 70.206V78.3855C85.4907 79.2324 84.7076 79.941 83.7314 79.968C82.7436 79.9951 81.9347 79.3159 81.9347 78.4507V70.0962C81.9347 69.231 82.7436 68.5623 83.7314 68.6012V68.602ZM81.9347 83.8471C81.9347 82.7894 82.7409 81.9012 83.7251 81.863H83.7367C84.7093 81.8248 85.4898 82.6336 85.4898 83.6689C85.4898 84.7043 84.7093 85.591 83.7367 85.6506H83.7251C82.7409 85.7118 81.9347 84.9039 81.9347 83.8463V83.8471Z" fill="white" fill-opacity="0.9" shape-rendering="crispEdges"/>
	</g>
	<defs>
		<filter id="filter0_d_2122_35798" x="11.4619" y="13.2847" width="52.7002" height="65.2769" filterUnits="userSpaceOnUse" color-interpolation-filters="sRGB">
			<feFlood flood-opacity="0" result="BackgroundImageFix"/>
			<feColorMatrix in="SourceAlpha" type="matrix" values="0 0 0 0 0 0 0 0 0 0 0 0 0 0 0 0 0 0 127 0" result="hardAlpha"/>
			<feOffset dy="4"/>
			<feGaussianBlur stdDeviation="5"/>
			<feComposite in2="hardAlpha" operator="out"/>
			<feColorMatrix type="matrix" values="0 0 0 0 0 0 0 0 0 0 0 0 0 0 0 0 0 0 0.05 0"/>
			<feBlend mode="normal" in2="BackgroundImageFix" result="effect1_dropShadow_2122_35798"/>
			<feBlend mode="normal" in="SourceGraphic" in2="effect1_dropShadow_2122_35798" result="shape"/>
		</filter>
		<filter id="filter1_d_2122_35798" x="59.2539" y="56.8845" width="46.8311" height="48.5076" filterUnits="userSpaceOnUse" color-interpolation-filters="sRGB">
			<feFlood flood-opacity="0" result="BackgroundImageFix"/>
			<feColorMatrix in="SourceAlpha" type="matrix" values="0 0 0 0 0 0 0 0 0 0 0 0 0 0 0 0 0 0 127 0" result="hardAlpha"/>
			<feOffset dy="4"/>
			<feGaussianBlur stdDeviation="5"/>
			<feComposite in2="hardAlpha" operator="out"/>
			<feColorMatrix type="matrix" values="0 0 0 0 0 0 0 0 0 0 0 0 0 0 0 0 0 0 0.05 0"/>
			<feBlend mode="normal" in2="BackgroundImageFix" result="effect1_dropShadow_2122_35798"/>
			<feBlend mode="normal" in="SourceGraphic" in2="effect1_dropShadow_2122_35798" result="shape"/>
		</filter>
	</defs>
</svg>
