<svg width="110" height="109" viewBox="0 0 110 109" fill="none" xmlns="http://www.w3.org/2000/svg">
	<path d="M5.53027 18.8162C5.53027 11.8303 11.4743 6.32111 18.4401 6.85077L58.1632 9.8712C64.4196 10.3469 69.2533 15.5622 69.2533 21.8367V65.5109C69.2533 71.946 64.1774 77.2356 57.7477 77.5007L18.0247 79.1386C11.2091 79.4196 5.53027 73.9701 5.53027 67.1488V18.8162Z" fill="#FAA72C" fill-opacity="0.78"/>
	<path d="M6.03027 18.8162C6.03027 12.1214 11.7266 6.84174 18.4022 7.34933L58.1253 10.3698C64.121 10.8257 68.7533 15.8236 68.7533 21.8367V65.5109C68.7533 71.6778 63.8889 76.747 57.7271 77.0011L18.0041 78.639C11.4725 78.9083 6.03027 73.6859 6.03027 67.1488V18.8162Z" stroke="white" stroke-opacity="0.18"/>
	<path d="M59.1924 60.0587C59.1924 55.6467 62.7645 52.0675 67.1765 52.0588L96.4534 52.0007C100.878 51.992 104.469 55.5763 104.469 60.0007V92.5207C104.469 96.6562 101.317 100.11 97.1992 100.487L67.9223 103.17C63.2354 103.599 59.1924 99.9095 59.1924 95.203V60.0587Z" fill="#C8C9CD" fill-opacity="0.68"/>
	<path d="M59.6924 60.0587C59.6924 55.9224 63.0412 52.567 67.1775 52.5588L96.4544 52.5007C100.602 52.4925 103.969 55.8528 103.969 60.0007V92.5207C103.969 96.3977 101.014 99.6357 97.1536 99.9894L67.8767 102.672C63.4827 103.074 59.6924 99.6154 59.6924 95.203V60.0587Z" stroke="white" stroke-opacity="0.4"/>
	<g filter="url(#filter0_d_1279_29143)">
		<path fill-rule="evenodd" clip-rule="evenodd" d="M96.0847 76.995C96.0847 84.2656 90.7854 90.6639 83.7314 91.3343C76.0321 92.0666 69.2539 85.8027 69.2539 77.282C69.2539 68.7613 76.0321 62.3527 83.7314 62.9197C90.7854 63.4389 96.0847 69.7235 96.0847 76.995ZM83.7314 68.6023C84.7076 68.6412 85.4907 69.3593 85.4907 70.2062V78.3858C85.4907 79.2327 84.7076 79.9412 83.7314 79.9683C82.7436 79.9953 81.9347 79.3162 81.9347 78.451V70.0965C81.9347 69.2313 82.7436 68.5625 83.7314 68.6015V68.6023ZM81.9347 83.8473C81.9347 82.7897 82.7409 81.9014 83.7251 81.8633H83.7367C84.7093 81.8251 85.4898 82.6338 85.4898 83.6692C85.4898 84.7046 84.7093 85.5912 83.7367 85.6509H83.7251C82.7409 85.7121 81.9347 84.9042 81.9347 83.8465V83.8473Z" fill="white" fill-opacity="0.9" shape-rendering="crispEdges"/>
	</g>
	<g filter="url(#filter1_d_1279_29143)">
		<path d="M56.0444 23.0657C56.0444 21.68 55.1256 20.5084 53.9842 20.4478C52.8427 20.3871 51.8979 21.4733 51.8979 22.8761V26.5329C47.215 21.1719 40.1693 18.8952 33.3612 20.7719C24.5671 23.1965 19.9881 32.0418 18.9635 41.7249C18.802 43.2566 19.7932 44.6234 21.1704 44.777C22.5365 44.9305 23.7652 43.8272 23.923 42.3164C24.7768 34.1232 28.411 27.7841 34.6326 25.9718C39.9577 24.4192 45.4109 26.1538 49.0173 30.1897L45.6893 30.1101C44.4829 30.0816 43.4973 31.2228 43.4973 32.6598C43.4973 34.0967 44.481 35.2701 45.6893 35.2815L53.9842 35.3554C54.8435 35.363 55.5767 34.7336 55.8866 33.8313C55.9887 33.5337 56.0463 33.2076 56.0463 32.8645V23.0676L56.0444 23.0657Z" fill="white" fill-opacity="0.9" shape-rendering="crispEdges"/>
		<path d="M20.7715 53.6582C20.7715 52.1264 21.8888 50.8469 23.2605 50.7995L32.6653 50.4791C33.9571 50.4355 34.9965 51.5938 34.9965 53.0667C34.9965 54.5397 33.9571 55.7851 32.6653 55.8477L29.0162 56.0278C32.9752 59.8817 38.6289 61.0646 43.8204 59.0191C49.5315 56.7671 52.6924 50.6497 53.4182 43.0954C53.5518 41.7078 54.5801 40.7069 55.7104 40.8604C56.8408 41.014 57.6315 42.2462 57.5016 43.6167C56.6737 52.335 52.8669 60.7158 45.0157 63.9328C38.4099 66.6398 31.0059 65.2825 25.7161 60.1926V64.1413C25.7161 65.6521 24.621 66.964 23.2605 67.0701C21.9 67.1763 20.7715 66.0237 20.7715 64.492V53.6582Z" fill="white" fill-opacity="0.9" shape-rendering="crispEdges"/>
	</g>
	<defs>
		<filter id="filter0_d_1279_29143" x="59.2539" y="56.8848" width="46.8306" height="48.5078" filterUnits="userSpaceOnUse" color-interpolation-filters="sRGB">
			<feFlood flood-opacity="0" result="BackgroundImageFix"/>
			<feColorMatrix in="SourceAlpha" type="matrix" values="0 0 0 0 0 0 0 0 0 0 0 0 0 0 0 0 0 0 127 0" result="hardAlpha"/>
			<feOffset dy="4"/>
			<feGaussianBlur stdDeviation="5"/>
			<feComposite in2="hardAlpha" operator="out"/>
			<feColorMatrix type="matrix" values="0 0 0 0 0 0 0 0 0 0 0 0 0 0 0 0 0 0 0.05 0"/>
			<feBlend mode="normal" in2="BackgroundImageFix" result="effect1_dropShadow_1279_29143"/>
			<feBlend mode="normal" in="SourceGraphic" in2="effect1_dropShadow_1279_29143" result="shape"/>
		</filter>
		<filter id="filter1_d_1279_29143" x="8.94629" y="14.123" width="58.5693" height="66.9536" filterUnits="userSpaceOnUse" color-interpolation-filters="sRGB">
			<feFlood flood-opacity="0" result="BackgroundImageFix"/>
			<feColorMatrix in="SourceAlpha" type="matrix" values="0 0 0 0 0 0 0 0 0 0 0 0 0 0 0 0 0 0 127 0" result="hardAlpha"/>
			<feOffset dy="4"/>
			<feGaussianBlur stdDeviation="5"/>
			<feComposite in2="hardAlpha" operator="out"/>
			<feColorMatrix type="matrix" values="0 0 0 0 0 0 0 0 0 0 0 0 0 0 0 0 0 0 0.05 0"/>
			<feBlend mode="normal" in2="BackgroundImageFix" result="effect1_dropShadow_1279_29143"/>
			<feBlend mode="normal" in="SourceGraphic" in2="effect1_dropShadow_1279_29143" result="shape"/>
		</filter>
	</defs>
</svg>
