<svg width="130" height="121" viewBox="0 0 130 121" fill="none" xmlns="http://www.w3.org/2000/svg">
	<g opacity="0.8" filter="url(#filter0_d_1392_2753)">
		<path fill-rule="evenodd" clip-rule="evenodd" d="M98.0709 107.57H31.7539C31.1864 107.57 30.6239 107.55 30.0669 107.51C15.0791 107.181 4.00173 95.3735 4.00098 80.8562C4.00533 73.7804 7.17341 67.4496 11.7816 61.9115C13.9844 59.2642 15.5797 57.5192 18.8009 55.9273C18.7436 55.2072 18.7144 54.4796 18.7144 53.7455C18.7192 46.2795 21.8021 39.1211 27.2852 33.845C32.7682 28.569 40.2022 25.6075 47.9516 25.6121C57.8785 25.6237 66.5367 30.7985 71.8039 38.0981C75.2717 37.2443 79.5597 36.9715 82.3648 36.9729C94.7563 36.9873 104.934 46.0877 106.114 57.7257C117.987 60.2195 126.011 70.0178 126.001 82.202C125.989 96.2431 114.168 107.618 99.5933 107.612C99.0823 107.612 98.5747 107.598 98.0709 107.57Z" fill="url(#paint0_linear_1392_2753)" shape-rendering="crispEdges"/>
	</g>
	<path d="M84.9989 79.21L44.0011 78.7899" stroke="#C3F0FF" stroke-linecap="round" stroke-linejoin="round"/>
	<g filter="url(#filter1_d_1392_2753)">
		<rect x="17" y="66" width="26.7495" height="26.7495" rx="4" fill="white"/>
	</g>
	<rect opacity="0.15" x="20.7004" y="69.7004" width="19.3486" height="19.3486" rx="3" fill="#0AE989"/>
	<path opacity="0.8" fill-rule="evenodd" clip-rule="evenodd" d="M30.2468 78.4613C31.5921 78.4613 32.6828 77.3709 32.6828 76.0257C32.6828 74.6806 31.5921 73.5901 30.2468 73.5901C28.9015 73.5901 27.8108 74.6806 27.8108 76.0257C27.8108 77.3709 28.9015 78.4613 30.2468 78.4613ZM30.296 85.1593C32.8518 85.1593 34.9237 85.1144 34.9237 83.4707C34.9237 81.1843 32.8518 79.3308 30.296 79.3308C27.7402 79.3308 25.6684 81.1843 25.6684 83.4707C25.6684 85.1144 27.7402 85.1593 30.296 85.1593Z" fill="#14CBC3"/>
	<g filter="url(#filter2_d_1392_2753)">
		<rect x="50.8302" y="66" width="26.7495" height="26.7495" rx="4" fill="white"/>
	</g>
	<rect opacity="0.4" x="54.5325" y="69.7024" width="19.3449" height="19.3449" rx="3" fill="#FFE1A6"/>
	<path fill-rule="evenodd" clip-rule="evenodd" d="M64.077 78.4615C65.4225 78.4615 66.5132 77.3709 66.5132 76.0257C66.5132 74.6804 65.4225 73.5898 64.077 73.5898C62.7316 73.5898 61.6409 74.6804 61.6409 76.0257C61.6409 77.3709 62.7316 78.4615 64.077 78.4615ZM64.1263 85.1599C66.6822 85.1599 68.7543 85.115 68.7543 83.4712C68.7543 81.1846 66.6822 79.331 64.1263 79.331C61.5703 79.331 59.4983 81.1846 59.4983 83.4712C59.4983 85.115 61.5703 85.1599 64.1263 85.1599Z" fill="#FFC34D"/>
	<g filter="url(#filter3_d_1392_2753)">
		<rect x="84.6604" y="66" width="26.7495" height="26.7495" rx="4" fill="white"/>
	</g>
	<rect opacity="0.4" x="88.3609" y="69.7004" width="19.3486" height="19.3486" rx="3" fill="#E2F1B3"/>
	<path opacity="0.8" fill-rule="evenodd" clip-rule="evenodd" d="M97.9073 78.4627C99.2505 78.4627 100.339 77.374 100.339 76.0309C100.339 74.6879 99.2505 73.5991 97.9073 73.5991C96.5641 73.5991 95.4752 74.6879 95.4752 76.0309C95.4752 77.374 96.5641 78.4627 97.9073 78.4627ZM97.9565 85.1501C100.508 85.1501 102.577 85.1053 102.577 83.4642C102.577 81.1814 100.508 79.3308 97.9565 79.3308C95.4047 79.3308 93.3361 81.1814 93.3361 83.4642C93.3361 85.1053 95.4047 85.1501 97.9565 85.1501Z" fill="#9DCF00"/>
	<g filter="url(#filter4_d_1392_2753)">
		<circle cx="63" cy="39" r="22" fill="white"/>
	</g>
	<circle cx="63" cy="39" r="17" fill="#FFCDCC"/>
	<circle cx="63" cy="39" r="13" fill="white"/>
	<circle cx="63" cy="39" r="9" fill="#FFCDCC"/>
	<circle cx="63" cy="39" r="5" fill="white"/>
	<path d="M79.1282 17L80.2699 21.7301L85 22.8718L78.0224 29.8494L73.2923 28.7077L72.1506 23.9776L79.1282 17Z" fill="#2FC6F6"/>
	<path d="M79.758 22.2576L63 39.0001" stroke="#6A737F" stroke-width="1.5" stroke-linecap="round" stroke-linejoin="round"/>
	<defs>
		<filter id="filter0_d_1392_2753" x="0.000976562" y="23.6121" width="130" height="90" filterUnits="userSpaceOnUse" color-interpolation-filters="sRGB">
			<feFlood flood-opacity="0" result="BackgroundImageFix"/>
			<feColorMatrix in="SourceAlpha" type="matrix" values="0 0 0 0 0 0 0 0 0 0 0 0 0 0 0 0 0 0 127 0" result="hardAlpha"/>
			<feOffset dy="2"/>
			<feGaussianBlur stdDeviation="2"/>
			<feComposite in2="hardAlpha" operator="out"/>
			<feColorMatrix type="matrix" values="0 0 0 0 0.025382 0 0 0 0 0.275095 0 0 0 0 0.358333 0 0 0 0.06 0"/>
			<feBlend mode="normal" in2="BackgroundImageFix" result="effect1_dropShadow_1392_2753"/>
			<feBlend mode="normal" in="SourceGraphic" in2="effect1_dropShadow_1392_2753" result="shape"/>
		</filter>
		<filter id="filter1_d_1392_2753" x="9.9256" y="61.2837" width="40.8983" height="40.8983" filterUnits="userSpaceOnUse" color-interpolation-filters="sRGB">
			<feFlood flood-opacity="0" result="BackgroundImageFix"/>
			<feColorMatrix in="SourceAlpha" type="matrix" values="0 0 0 0 0 0 0 0 0 0 0 0 0 0 0 0 0 0 127 0" result="hardAlpha"/>
			<feOffset dy="2.35813"/>
			<feGaussianBlur stdDeviation="3.5372"/>
			<feComposite in2="hardAlpha" operator="out"/>
			<feColorMatrix type="matrix" values="0 0 0 0 0.423529 0 0 0 0 0.423529 0 0 0 0 0.423529 0 0 0 0.12 0"/>
			<feBlend mode="normal" in2="BackgroundImageFix" result="effect1_dropShadow_1392_2753"/>
			<feBlend mode="normal" in="SourceGraphic" in2="effect1_dropShadow_1392_2753" result="shape"/>
		</filter>
		<filter id="filter2_d_1392_2753" x="43.7558" y="61.2837" width="40.8983" height="40.8983" filterUnits="userSpaceOnUse" color-interpolation-filters="sRGB">
			<feFlood flood-opacity="0" result="BackgroundImageFix"/>
			<feColorMatrix in="SourceAlpha" type="matrix" values="0 0 0 0 0 0 0 0 0 0 0 0 0 0 0 0 0 0 127 0" result="hardAlpha"/>
			<feOffset dy="2.35813"/>
			<feGaussianBlur stdDeviation="3.5372"/>
			<feComposite in2="hardAlpha" operator="out"/>
			<feColorMatrix type="matrix" values="0 0 0 0 0.423529 0 0 0 0 0.423529 0 0 0 0 0.423529 0 0 0 0.12 0"/>
			<feBlend mode="normal" in2="BackgroundImageFix" result="effect1_dropShadow_1392_2753"/>
			<feBlend mode="normal" in="SourceGraphic" in2="effect1_dropShadow_1392_2753" result="shape"/>
		</filter>
		<filter id="filter3_d_1392_2753" x="77.586" y="61.2837" width="40.8983" height="40.8983" filterUnits="userSpaceOnUse" color-interpolation-filters="sRGB">
			<feFlood flood-opacity="0" result="BackgroundImageFix"/>
			<feColorMatrix in="SourceAlpha" type="matrix" values="0 0 0 0 0 0 0 0 0 0 0 0 0 0 0 0 0 0 127 0" result="hardAlpha"/>
			<feOffset dy="2.35813"/>
			<feGaussianBlur stdDeviation="3.5372"/>
			<feComposite in2="hardAlpha" operator="out"/>
			<feColorMatrix type="matrix" values="0 0 0 0 0.423529 0 0 0 0 0.423529 0 0 0 0 0.423529 0 0 0 0.12 0"/>
			<feBlend mode="normal" in2="BackgroundImageFix" result="effect1_dropShadow_1392_2753"/>
			<feBlend mode="normal" in="SourceGraphic" in2="effect1_dropShadow_1392_2753" result="shape"/>
		</filter>
		<filter id="filter4_d_1392_2753" x="33.9256" y="12.2837" width="58.1488" height="58.1488" filterUnits="userSpaceOnUse" color-interpolation-filters="sRGB">
			<feFlood flood-opacity="0" result="BackgroundImageFix"/>
			<feColorMatrix in="SourceAlpha" type="matrix" values="0 0 0 0 0 0 0 0 0 0 0 0 0 0 0 0 0 0 127 0" result="hardAlpha"/>
			<feOffset dy="2.35813"/>
			<feGaussianBlur stdDeviation="3.5372"/>
			<feComposite in2="hardAlpha" operator="out"/>
			<feColorMatrix type="matrix" values="0 0 0 0 0.423529 0 0 0 0 0.423529 0 0 0 0 0.423529 0 0 0 0.12 0"/>
			<feBlend mode="normal" in2="BackgroundImageFix" result="effect1_dropShadow_1392_2753"/>
			<feBlend mode="normal" in="SourceGraphic" in2="effect1_dropShadow_1392_2753" result="shape"/>
		</filter>
		<linearGradient id="paint0_linear_1392_2753" x1="64.5177" y1="41.1155" x2="64.5177" y2="107.612" gradientUnits="userSpaceOnUse">
			<stop stop-color="white" stop-opacity="0.4"/>
			<stop offset="1" stop-color="white" stop-opacity="0.8"/>
		</linearGradient>
	</defs>
</svg>
