<svg width="57" height="58" viewBox="0 0 57 58" fill="none" xmlns="http://www.w3.org/2000/svg">
	<path d="M11.286 28.5205C12.1509 21.1952 15.984 14.8478 23.2217 12.82C25.1319 12.2848 27.0827 12.0651 28.9977 12.1399" stroke="#2FC6F6" stroke-width="2" stroke-linecap="round"/>
	<path d="M13.679 38.0185C14.6953 39.6434 15.975 41.132 17.4927 42.4094C22.6976 46.7906 29.0251 47.6791 36.7185 44.53" stroke="#2FC6F6" stroke-width="2" stroke-linecap="round"/>
	<path d="M18.2904 38.0276L12.8915 38.0276L12.8915 43.4346" stroke="#2FC6F6" stroke-width="2" stroke-linecap="round" stroke-linejoin="round"/>
	<path d="M11.1537 29.629C11.1537 21.905 15.9932 14.8477 23.2309 12.82C25.1411 12.2848 27.0918 12.0651 29.0069 12.1399" stroke="#2FC6F6" stroke-width="2" stroke-linecap="round"/>
	<path d="M25.6708 16.0388L29.1427 11.9012L24.9988 8.42409" stroke="#2FC6F6" stroke-width="2" stroke-linecap="round" stroke-linejoin="round"/>
	<path d="M43.1856 38.0229C44.208 36.4018 44.9931 34.6026 45.4847 32.6807C47.218 25.9049 43.267 17.4132 36.8125 13.9747" stroke="#2FC6F6" stroke-width="2" stroke-linecap="round"/>
	<path d="M40.9657 33.8691L42.9052 38.9087L47.9523 36.9663" stroke="#2FC6F6" stroke-width="2" stroke-linecap="round" stroke-linejoin="round"/>
	<path d="M33.2793 24.6839C32.4045 22.6643 30.6412 21.6646 28.4838 21.6646C25.5357 21.6646 23.5485 23.3022 23.7199 25.558C23.8778 27.6363 25.7432 28.8132 28.6513 29.1853C31.5594 29.5573 33.4834 30.7667 33.4834 33.108C33.4834 35.4493 31.7341 36.9559 28.4838 36.9559C25.0735 36.9559 23.7923 35.3371 23.3469 33.9482" stroke="#2FC6F6" stroke-width="2" stroke-linecap="round" stroke-linejoin="round"/>
	<path d="M28.5111 20.5561V20.1272" stroke="#2FC6F6" stroke-width="2" stroke-linecap="round" stroke-linejoin="round"/>
	<path d="M28.5083 38.5295V38.1006" stroke="#2FC6F6" stroke-width="2" stroke-linecap="round" stroke-linejoin="round"/>
</svg>
