<svg width="15" height="15" viewBox="0 0 15 15" fill="none" xmlns="http://www.w3.org/2000/svg">
<path fill-rule="evenodd" clip-rule="evenodd" d="M10.3886 7.04219C10.684 7.03588 10.9285 7.2716 10.9348 7.56869C10.9636 8.93377 9.96383 10.5366 8.02705 10.8014L8.02664 11.509L8.2584 11.5091C8.52463 11.5091 8.74046 11.7262 8.74046 11.994C8.74046 12.2618 8.52463 12.4788 8.2584 12.4788H6.64545C6.37922 12.4788 6.1634 12.2618 6.1634 11.994C6.1634 11.7262 6.37922 11.5091 6.64545 11.5091L6.87648 11.509L6.87644 10.8009C4.94251 10.5383 3.95389 8.97366 3.96892 7.57431C3.97211 7.27717 4.21419 7.03889 4.50962 7.04207C4.78536 7.04509 5.01011 7.25739 5.03626 7.52727L5.03877 7.58593C5.03577 7.86505 5.19078 8.40104 5.47687 8.81789C5.88761 9.41638 6.51905 9.7632 7.45762 9.7632C8.39099 9.7632 9.02018 9.40969 9.43167 8.79969C9.69441 8.41019 9.84746 7.91533 9.86381 7.64883L9.86514 7.59154C9.85887 7.29445 10.0932 7.0485 10.3886 7.04219ZM7.4519 2.60937C8.32576 2.60937 9.03417 3.2828 9.03417 4.11351V7.28438C9.03417 8.11509 8.32576 8.78852 7.4519 8.78852C6.57804 8.78852 5.86963 8.11509 5.86963 7.28438L5.86963 4.11351C5.86963 3.2828 6.57804 2.60938 7.4519 2.60937Z" fill="#EDEEF0"/>
</svg>
