<svg width="22" height="22" viewBox="0 0 22 22" fill="none" xmlns="http://www.w3.org/2000/svg">
<path fill-rule="evenodd" clip-rule="evenodd" d="M7.00008 7.66663C6.2637 7.66663 5.66675 8.26358 5.66675 8.99996V13C5.66675 13.7363 6.2637 14.3333 7.00008 14.3333H12.3334C13.0698 14.3333 13.6667 13.7363 13.6667 13V8.99996C13.6667 8.26358 13.0698 7.66663 12.3334 7.66663H7.00008ZM14.4872 9.50671C14.3934 9.55054 14.3334 9.64475 14.3334 9.74832V12.3917C14.3334 12.4998 14.3987 12.5972 14.4987 12.6384L16.632 13.5152C16.8075 13.5873 17.0001 13.4583 17.0001 13.2685V8.75197C17.0001 8.55684 16.7974 8.42778 16.6206 8.51036L14.4872 9.50671Z" fill="white"/>
</svg>
