<svg width="22" height="22" viewBox="0 0 22 22" fill="none" xmlns="http://www.w3.org/2000/svg">
<path fill-rule="evenodd" clip-rule="evenodd" d="M9.21364 11.0153V10.8414L11.13 12.7282C11.0745 12.7335 11.0183 12.7362 10.9614 12.7362C9.99614 12.7362 9.21364 11.9657 9.21364 11.0153ZM10.9683 13.8155C11.3827 13.8155 11.7471 13.7586 12.0667 13.6505L13.0399 14.6087C12.6339 14.8151 12.1704 14.9635 11.6504 15.0331L11.6499 15.8629L11.9276 15.8631C12.2465 15.8631 12.5051 16.1176 12.5051 16.4316C12.5051 16.7457 12.2465 17.0002 11.9276 17.0002H9.99535C9.67642 17.0002 9.41787 16.7457 9.41787 16.4316C9.41787 16.1176 9.67642 15.8631 9.99535 15.8631L10.2721 15.8629L10.2721 15.0325C7.95531 14.7245 6.771 12.8896 6.789 11.2486C6.79282 10.9001 7.08282 10.6207 7.43673 10.6244C7.76705 10.6279 8.03629 10.8769 8.06762 11.1934L8.07062 11.2622C8.06703 11.5895 8.25273 12.2181 8.59545 12.7069C9.0875 13.4088 9.84392 13.8155 10.9683 13.8155ZM13.8963 11.0251L15.0289 12.1403C15.1049 11.8391 15.1401 11.5358 15.1338 11.242C15.1263 10.8936 14.8333 10.6171 14.4795 10.6245C14.213 10.6301 13.9879 10.7951 13.8963 11.0251ZM9.40529 6.60324L12.7092 9.85626V7.38752C12.7092 6.43712 11.9267 5.66666 10.9614 5.66666C10.2831 5.66666 9.69496 6.04717 9.40529 6.60324ZM6.6927 6.14619C6.48036 6.35525 6.48036 6.69422 6.6927 6.90329L14.9386 15.0222C15.1509 15.2313 15.4952 15.2313 15.7075 15.0222C15.9199 14.8131 15.9199 14.4742 15.7075 14.2651L7.46164 6.14619C7.24931 5.93712 6.90504 5.93712 6.6927 6.14619Z" fill="#F1F4F6"/>
</svg>
