<svg width="22" height="22" viewBox="0 0 22 22" fill="none" xmlns="http://www.w3.org/2000/svg">
<path fill-rule="evenodd" clip-rule="evenodd" d="M14.3721 10.7569C14.7113 10.7497 14.9921 11.0204 14.9993 11.3615C15.0324 12.9291 13.8843 14.7697 11.6603 15.0737L11.6598 15.8863L11.9259 15.8865C12.2316 15.8865 12.4795 16.1357 12.4795 16.4432C12.4795 16.7507 12.2316 17 11.9259 17H10.0737C9.76801 17 9.52017 16.7507 9.52017 16.4432C9.52017 16.1357 9.76801 15.8865 10.0737 15.8865L10.339 15.8863L10.339 15.0732C8.11819 14.7716 6.98294 12.9749 7.00019 11.368C7.00386 11.0268 7.28184 10.7531 7.6211 10.7568C7.93773 10.7603 8.19582 11.0041 8.22585 11.314L8.22873 11.3813C8.22529 11.7018 8.40329 12.3173 8.73181 12.796C9.20348 13.4833 9.92857 13.8815 11.0064 13.8815C12.0782 13.8815 12.8007 13.4756 13.2732 12.7751C13.5749 12.3278 13.7507 11.7596 13.7694 11.4536L13.771 11.3878C13.7638 11.0466 14.0329 10.7642 14.3721 10.7569ZM10.9998 5.66663C12.0033 5.66663 12.8167 6.43993 12.8167 7.39386V11.0351C12.8167 11.989 12.0033 12.7623 10.9998 12.7623C9.99631 12.7623 9.18283 11.989 9.18283 11.0351V7.39386C9.18283 6.43993 9.99631 5.66663 10.9998 5.66663Z" fill="white"/>
</svg>
