<svg width="22" height="22" viewBox="0 0 22 22" fill="none" xmlns="http://www.w3.org/2000/svg">
<path opacity="0.5" fill-rule="evenodd" clip-rule="evenodd" d="M8.54268 11.0204V10.7812L11.1777 13.3757C11.1014 13.3829 11.0241 13.3866 10.9459 13.3866C9.61863 13.3866 8.54268 12.3272 8.54268 11.0204ZM10.9553 14.8707C11.5252 14.8707 12.0262 14.7924 12.4656 14.6437L13.8038 15.9613C13.2456 16.2451 12.6082 16.4491 11.8933 16.5448L11.8926 17.6858L12.2744 17.686C12.7129 17.686 13.0684 18.0361 13.0684 18.4678C13.0684 18.8996 12.7129 19.2496 12.2744 19.2496H9.61753C9.17901 19.2496 8.82351 18.8996 8.82351 18.4678C8.82351 18.0361 9.17901 17.686 9.61753 17.686L9.99808 17.6858L9.99801 16.5441C6.81248 16.1205 5.18405 13.5976 5.2088 11.3411C5.21406 10.862 5.61281 10.4778 6.09944 10.4829C6.55362 10.4878 6.92383 10.8301 6.96691 11.2653L6.97104 11.3599C6.9661 11.8099 7.22143 12.6742 7.69267 13.3464C8.36924 14.3115 9.40933 14.8707 10.9553 14.8707ZM14.9813 11.0338L16.5387 12.5672C16.6432 12.1531 16.6916 11.7361 16.6829 11.3321C16.6725 10.853 16.2697 10.4729 15.7832 10.4831C15.4167 10.4907 15.1073 10.7176 14.9813 11.0338ZM8.80621 4.95381L13.3491 9.42671V6.0322C13.3491 4.72539 12.2731 3.66602 10.9459 3.66602C10.0131 3.66602 9.20451 4.18922 8.80621 4.95381ZM5.07639 4.32536C4.78443 4.61283 4.78443 5.07891 5.0764 5.36637L16.4145 16.5299C16.7064 16.8173 17.1798 16.8173 17.4718 16.5299C17.7637 16.2424 17.7637 15.7763 17.4718 15.4889L6.13369 4.32536C5.84173 4.03789 5.36836 4.03789 5.07639 4.32536Z" fill="#F1F4F6"/>
</svg>
