<svg width="24" height="24" viewBox="0 0 24 24" fill="none" xmlns="http://www.w3.org/2000/svg">
<g opacity="0.5">
<path fill-rule="evenodd" clip-rule="evenodd" d="M4 9.7002V15.9631C4 17.0676 4.89543 17.9631 6 17.9631H9.63876L8.56658 19.2458C8.34891 19.5062 8.53408 19.9023 8.87349 19.9023H14.2021L10.1463 15.8465H6.56043C6.28428 15.8465 6.06042 15.6227 6.06042 15.3465L6.06042 11.7606L4 9.7002ZM14.2899 13.2105L12.6452 11.5658L16.0674 8.14355L12.8 8.14355C12.5238 8.14355 12.3 7.9197 12.3 7.64355V6.52734C12.3 6.2512 12.5238 6.02734 12.8 6.02734L17.9684 6.02734C19.073 6.02734 19.9684 6.92277 19.9684 8.02734V12.6504C19.9684 12.9265 19.7445 13.1504 19.4684 13.1504H18.408C18.1318 13.1504 17.908 12.9265 17.908 12.6504V9.59243L14.2899 13.2105ZM16.9259 15.8465L18.8421 17.7627C19.5088 17.4383 19.9684 16.7544 19.9684 15.9631V15.4209C19.9684 15.1448 19.7445 14.9209 19.4684 14.9209H18.3336C18.0985 14.9209 17.908 15.1115 17.908 15.3465C17.908 15.6227 17.6841 15.8465 17.408 15.8465H16.9259ZM9.22296 8.14355L7.10675 6.02734L9.44836 6.02734C9.72451 6.02734 9.94836 6.2512 9.94836 6.52734V7.64355C9.94836 7.9197 9.72451 8.14355 9.44836 8.14355H9.22296Z" fill="#F1F4F6"/>
<rect x="2.76953" y="6.17773" width="1.62" height="21.0537" rx="0.81" transform="rotate(-45 2.76953 6.17773)" fill="#F1F4F6"/>
</g>
</svg>
