<svg width="24" height="24" viewBox="0 0 24 24" fill="none" xmlns="http://www.w3.org/2000/svg">
<path d="M18.8491 12.3359L19.9227 11.1502C20.1451 10.9045 20.5245 10.8857 20.7702 11.1081C21.0158 11.3305 21.0346 11.7099 20.8122 11.9556L18.6944 14.2947C18.5806 14.4203 18.4191 14.492 18.2496 14.492C18.0801 14.492 17.9186 14.4203 17.8048 14.2947L15.687 11.9556C15.4646 11.7099 15.4834 11.3305 15.729 11.1081C15.9747 10.8857 16.3541 10.9045 16.5765 11.1502L17.6491 12.3348L17.6491 5.71231C17.6491 5.38093 17.9177 5.1123 18.2491 5.1123C18.5805 5.1123 18.8491 5.38093 18.8491 5.71231V12.3359Z" fill="#909090"/>
<path fill-rule="evenodd" clip-rule="evenodd" d="M13.9365 14.9195L15.2792 18.4314C15.3976 18.741 15.7444 18.896 16.0539 18.7776C16.3635 18.6593 16.5184 18.3124 16.4001 18.0029L11.7498 5.83979C11.3894 4.89726 10.0562 4.89678 9.69513 5.83904L5.03451 18.0025C4.91595 18.3119 5.07068 18.6589 5.38011 18.7775C5.68954 18.896 6.03651 18.7413 6.15507 18.4319L7.50087 14.9195H13.9365ZM13.4777 13.7195L10.7222 6.51237L7.96067 13.7195H13.4777Z" fill="#909090"/>
</svg>
