<svg width="24" height="24" viewBox="0 0 24 24" fill="none" xmlns="http://www.w3.org/2000/svg">
<path fill-rule="evenodd" clip-rule="evenodd" d="M13.9365 14.9197L15.2792 18.4316C15.3976 18.7412 15.7444 18.8961 16.0539 18.7778C16.3635 18.6595 16.5184 18.3126 16.4001 18.0031L11.7498 5.83998C11.3894 4.89746 10.0562 4.89697 9.69513 5.83923L5.03451 18.0027C4.91595 18.3121 5.07068 18.6591 5.38011 18.7777C5.68954 18.8962 6.03651 18.7415 6.15507 18.4321L7.50087 14.9197H13.9365ZM13.4777 13.7197L10.7222 6.51256L7.96067 13.7197H13.4777Z" fill="#909090"/>
<path d="M18.8504 7.32123L19.923 8.50589C20.1454 8.75153 20.5248 8.77037 20.7705 8.54796C21.0161 8.32556 21.035 7.94612 20.8125 7.70048L18.6947 5.36136C18.5809 5.23573 18.4194 5.16406 18.2499 5.16406C18.0804 5.16406 17.9189 5.23573 17.8051 5.36136L15.6873 7.70048C15.4649 7.94612 15.4837 8.32556 15.7294 8.54796C15.975 8.77037 16.3544 8.75153 16.5768 8.50589L17.6504 7.32018V13.9779C17.6504 14.3093 17.919 14.5779 18.2504 14.5779C18.5818 14.5779 18.8504 14.3093 18.8504 13.9779V7.32123Z" fill="#909090"/>
</svg>
