<svg width="24" height="24" viewBox="0 0 24 24" fill="none" xmlns="http://www.w3.org/2000/svg">
<path d="M13.2218 7.74822C13.3127 7.24603 13.6427 6.63745 14.1606 6.1536C14.6727 5.67506 15.322 5.36113 16.0238 5.36113C16.8109 5.36113 17.6633 5.5819 18.3067 6.10819C18.929 6.61727 19.42 7.46366 19.42 8.86288C19.42 10.1325 18.6339 10.9652 17.5966 11.9494C17.5441 11.9991 17.4909 12.0494 17.4369 12.1003C16.4932 12.9905 15.358 14.0614 15.2291 15.681C15.2028 16.0114 15.4493 16.3005 15.7796 16.3268C16.1099 16.3531 16.399 16.1066 16.4253 15.7763C16.5168 14.6275 17.3295 13.8566 18.3756 12.8644L18.4225 12.82C19.4242 11.8696 20.62 10.7085 20.62 8.86289C20.62 7.14686 19.9991 5.94237 19.0665 5.17939C18.1548 4.43362 17.0092 4.16113 16.0238 4.16113C14.9533 4.16113 14.0236 4.63926 13.3413 5.27679C12.6647 5.909 12.1847 6.74052 12.041 7.53442C11.9819 7.86049 12.1984 8.17268 12.5245 8.23172C12.8505 8.29076 13.1627 8.07429 13.2218 7.74822Z" fill="#828B95"/>
<path fill-rule="evenodd" clip-rule="evenodd" d="M8.46301 7.93347C8.20526 7.23702 7.22021 7.23702 6.96247 7.93347L5.9951 10.5474C5.8533 10.9306 5.55119 11.2327 5.16803 11.3745L2.55408 12.3419C1.85763 12.5996 1.85762 13.5847 2.55408 13.8424L5.16803 14.8098C5.55119 14.9516 5.8533 15.2537 5.9951 15.6368L6.96246 18.2508C7.22021 18.9472 8.20526 18.9472 8.46301 18.2508L9.43037 15.6368C9.57217 15.2537 9.87428 14.9516 10.2574 14.8098L12.8714 13.8424C13.5678 13.5847 13.5678 12.5996 12.8714 12.3419L10.2574 11.3745C9.87428 11.2327 9.57217 10.9306 9.43037 10.5474L8.46301 7.93347ZM7.1205 10.9639L7.71274 9.36363L8.30497 10.9639C8.56831 11.6755 9.12936 12.2366 9.84095 12.4999L11.4412 13.0921L9.84095 13.6844C9.12936 13.9477 8.56831 14.5088 8.30497 15.2203L7.71274 16.8206L7.1205 15.2203C6.85716 14.5088 6.29611 13.9477 5.58452 13.6844L3.98423 13.0921L5.58452 12.4999C6.29611 12.2366 6.85716 11.6755 7.1205 10.9639Z" fill="#828B95"/>
<path d="M14.832 18.8982C14.832 18.4059 15.2311 18.0068 15.7234 18.0068H15.8152C16.3075 18.0068 16.7065 18.4059 16.7065 18.8982C16.7065 19.3905 16.3075 19.7896 15.8152 19.7896H15.7234C15.2311 19.7896 14.832 19.3905 14.832 18.8982Z" fill="#828B95"/>
</svg>
