<svg width="24" height="24" viewBox="0 0 24 24" fill="none" xmlns="http://www.w3.org/2000/svg">
<path fill-rule="evenodd" clip-rule="evenodd" d="M11.8035 3.42859C11.5457 2.73214 10.5607 2.73213 10.3029 3.42859L8.69663 7.76898C8.55483 8.15214 8.25273 8.45425 7.86956 8.59605L3.52918 10.2023C2.83273 10.4601 2.83272 11.4451 3.52918 11.7029L7.86956 13.3092C8.25273 13.451 8.55483 13.7531 8.69663 14.1362L10.3029 18.4766C10.5607 19.1731 11.5457 19.1731 11.8035 18.4766L13.4097 14.1362C13.5515 13.7531 13.8536 13.451 14.2368 13.3092L18.5772 11.7029C19.2736 11.4451 19.2737 10.4601 18.5772 10.2023L14.2368 8.59605C13.8536 8.45425 13.5515 8.15214 13.4097 7.76898L11.8035 3.42859ZM9.82204 8.18546L11.0532 4.85874L12.2843 8.18546C12.5477 8.89706 13.1087 9.45811 13.8203 9.72145L17.147 10.9526L13.8203 12.1837C13.1087 12.4471 12.5477 13.0081 12.2843 13.7197L11.0532 17.0465L9.82204 13.7197C9.55869 13.0081 8.99764 12.4471 8.28605 12.1837L4.95933 10.9526L8.28605 9.72145C8.99764 9.45811 9.55869 8.89706 9.82204 8.18546ZM16.8635 16.2797C16.8901 16.1277 16.9762 15.941 17.1487 15.793C17.3138 15.6513 17.594 15.5145 18.0651 15.5145C18.3885 15.5145 18.7626 15.5987 19.0367 15.7855C19.2808 15.9518 19.4737 16.2135 19.4737 16.6883C19.4737 17.0378 19.2198 17.3023 18.6396 17.7726L18.5974 17.8068C18.3549 18.0031 18.0606 18.2413 17.8308 18.5163C17.5756 18.8219 17.3612 19.2164 17.3612 19.7188C17.3612 20.0501 17.6298 20.3188 17.9612 20.3188C18.2926 20.3188 18.5612 20.0501 18.5612 19.7188C18.5612 19.5857 18.6109 19.4543 18.7518 19.2857C18.9046 19.1027 19.1171 18.9303 19.3953 18.7048L19.4417 18.6672C19.9217 18.2792 20.6737 17.6713 20.6737 16.6883C20.6737 15.7985 20.2693 15.1733 19.7125 14.7938C19.1858 14.4349 18.5556 14.3145 18.0651 14.3145C17.3439 14.3145 16.7762 14.5315 16.3674 14.8822C15.9659 15.2266 15.7519 15.6708 15.6815 16.0726C15.6243 16.3989 15.8425 16.7099 16.1689 16.7671C16.4953 16.8243 16.8063 16.6061 16.8635 16.2797ZM17.3013 21.4211C17.3013 21.0591 17.5947 20.7656 17.9567 20.7656H18.0242C18.3862 20.7656 18.6796 21.0591 18.6796 21.4211C18.6796 21.7831 18.3862 22.0765 18.0242 22.0765H17.9567C17.5947 22.0765 17.3013 21.7831 17.3013 21.4211Z" fill="#828B95"/>
</svg>
