<svg width="24" height="24" viewBox="0 0 24 24" fill="none" xmlns="http://www.w3.org/2000/svg">
<path fill-rule="evenodd" clip-rule="evenodd" d="M15.5 5.46465H8.5C7.50589 5.46465 6.7 6.27054 6.7 7.26465V18.8581C6.7 18.9731 6.79322 19.0664 6.90822 19.0664C7.05229 19.0664 7.19261 19.0204 7.30881 18.9353L10.6987 16.4506C11.4737 15.8826 12.5276 15.8832 13.3019 16.4521L16.7725 19.002C16.8294 19.0438 16.8981 19.0664 16.9687 19.0664C17.1517 19.0664 17.3 18.918 17.3 18.735V7.26465C17.3 6.27054 16.4941 5.46465 15.5 5.46465ZM8.5 4.26465C6.84315 4.26465 5.5 5.60779 5.5 7.26465V18.8581C5.5 19.6359 6.13048 20.2664 6.90822 20.2664C7.30742 20.2664 7.69623 20.1391 8.01821 19.9031L11.4081 17.4185C11.7604 17.1603 12.2394 17.1606 12.5914 17.4191L16.062 19.9691C16.3248 20.1622 16.6425 20.2664 16.9687 20.2664C17.8144 20.2664 18.5 19.5808 18.5 18.735V7.26465C18.5 5.60779 17.1569 4.26465 15.5 4.26465H8.5Z" fill="#333333"/>
</svg>
