<svg width="24" height="24" viewBox="0 0 24 24" fill="none" xmlns="http://www.w3.org/2000/svg">
<path d="M18.4298 5.03937C18.674 4.81545 18.6905 4.43591 18.4666 4.19164C18.2427 3.94737 17.8632 3.93087 17.6189 4.15478L12.0243 9.28313L6.42976 4.15478C6.18548 3.93087 5.80594 3.94737 5.58203 4.19164C5.35811 4.43591 5.37461 4.81545 5.61889 5.03937L11.6189 10.5394C11.8483 10.7496 12.2004 10.7496 12.4298 10.5394L18.4298 5.03937Z" fill="#909090"/>
<path d="M17.6189 19.6927C17.8632 19.9166 18.2427 19.9001 18.4666 19.6558C18.6905 19.4116 18.674 19.032 18.4298 18.8081L12.4298 13.3081C12.2004 13.0978 11.8483 13.0978 11.6189 13.3081L5.61888 18.8081C5.37461 19.032 5.35811 19.4116 5.58203 19.6558C5.80594 19.9001 6.18548 19.9166 6.42976 19.6927L12.0243 14.5643L17.6189 19.6927Z" fill="#909090"/>
</svg>
