<svg width="24" height="24" viewBox="0 0 24 24" fill="none" xmlns="http://www.w3.org/2000/svg">
<path d="M17.3872 6.15471C17.5907 5.96812 17.6045 5.65183 17.4179 5.44827C17.2313 5.24471 16.915 5.23096 16.7115 5.41756L12.0244 9.71401L7.33738 5.41756C7.13382 5.23096 6.81753 5.24471 6.63094 5.44827C6.44434 5.65183 6.45809 5.96812 6.66165 6.15471L11.6866 10.7609C11.8777 10.9361 12.1711 10.9361 12.3623 10.7609L17.3872 6.15471Z" fill="#909090"/>
<path d="M16.7115 18.4269C16.915 18.6135 17.2313 18.5997 17.4179 18.3962C17.6045 18.1926 17.5907 17.8763 17.3872 17.6897L12.3623 13.0836C12.1711 12.9083 11.8777 12.9083 11.6866 13.0836L6.66165 17.6897C6.45809 17.8763 6.44434 18.1926 6.63094 18.3962C6.81753 18.5997 7.13382 18.6135 7.33738 18.4269L12.0244 14.1304L16.7115 18.4269Z" fill="#909090"/>
</svg>
