<svg width="24" height="24" viewBox="0 0 24 24" fill="none" xmlns="http://www.w3.org/2000/svg">
<path d="M17.4301 6.182C17.654 5.97675 17.6692 5.62883 17.4639 5.40492C17.2586 5.181 16.9107 5.16588 16.6868 5.37113L12.0242 9.64519L7.36159 5.37113C7.13768 5.16588 6.78977 5.181 6.58451 5.40492C6.37925 5.62883 6.39438 5.97674 6.6183 6.182L11.6526 10.7967C11.8628 10.9895 12.1856 10.9895 12.3959 10.7967L17.4301 6.182Z" fill="#909090"/>
<path d="M16.6868 18.4764C16.9107 18.6817 17.2586 18.6666 17.4639 18.4426C17.6692 18.2187 17.654 17.8708 17.4301 17.6656L12.3959 13.0508C12.1856 12.8581 11.8628 12.8581 11.6526 13.0508L6.6183 17.6656C6.39438 17.8708 6.37925 18.2187 6.58451 18.4426C6.78977 18.6666 7.13768 18.6817 7.36159 18.4764L12.0242 14.2024L16.6868 18.4764Z" fill="#909090"/>
</svg>
