<svg width="24" height="24" viewBox="0 0 24 24" fill="none" xmlns="http://www.w3.org/2000/svg">
<path fill-rule="evenodd" clip-rule="evenodd" d="M14.5185 4.90142C14.5616 4.95065 14.6029 5.00123 14.6424 5.05305C15.1189 5.67866 15.2869 6.42832 15.3047 7.0313C15.7746 7.17455 16.2147 7.42085 16.5677 7.77813L17.7527 6.78248C18.0064 6.56931 18.3849 6.60217 18.598 6.85587C18.8112 7.10957 18.7784 7.48805 18.5246 7.70122L17.2198 8.79757C17.6779 9.79414 18.0164 10.949 18.1213 12.0979H19.9071C20.2384 12.0979 20.5071 12.3665 20.5071 12.6979C20.5071 13.0293 20.2384 13.2979 19.9071 13.2979L18.1442 13.2979C18.0788 14.6399 17.7321 15.8687 17.1696 16.9045L18.7102 18.4245C18.9461 18.6572 18.9486 19.0371 18.7159 19.273C18.4832 19.5089 18.1033 19.5114 17.8674 19.2787L16.4962 17.9258C15.3875 19.3215 13.8044 20.1731 11.9999 20.1731C10.1954 20.1731 8.61236 19.3214 7.50365 17.9257L6.13236 19.2787C5.89647 19.5114 5.51658 19.5089 5.28385 19.273C5.05112 19.0371 5.05367 18.6572 5.28955 18.4245L6.83018 16.9044C6.26759 15.8684 5.92091 14.6394 5.85562 13.2971H4.09316C3.76179 13.2971 3.49316 13.0285 3.49316 12.6971C3.49316 12.3657 3.76179 12.0971 4.09316 12.0971H5.88132C5.9936 10.9574 6.35169 9.81548 6.81827 8.83022L5.47461 7.70122C5.22091 7.48805 5.18805 7.10957 5.40122 6.85587C5.61439 6.60217 5.99287 6.56931 6.24657 6.78248L7.46858 7.80927C7.81124 7.45486 8.23698 7.2054 8.69434 7.05466C8.7038 6.42421 8.89169 5.66185 9.3932 5.03425C9.43524 4.98164 9.4792 4.93034 9.52509 4.88047L9.12461 4.37189C8.9196 4.11154 8.96446 3.7343 9.2248 3.52929C9.48515 3.32429 9.86239 3.36915 10.0674 3.62949L10.5051 4.18531C10.9334 3.99799 11.441 3.89086 12.0321 3.89086C12.6208 3.89086 13.1228 3.99844 13.5441 4.18632L14.1025 3.5902C14.329 3.34836 14.7087 3.33597 14.9506 3.56251C15.1924 3.78905 15.2048 4.16875 14.9783 4.41058L14.5185 4.90142ZM9.90531 6.87917L14.093 6.87917C14.0547 6.50193 13.9312 6.09972 13.6878 5.78021C13.4081 5.41301 12.9233 5.09086 12.0321 5.09086C11.1363 5.09086 10.6275 5.41185 10.3307 5.78336C10.0745 6.10388 9.94272 6.50531 9.90531 6.87917ZM11.9999 18.9731C9.3561 18.9731 7.04435 16.5228 7.04435 12.8317C7.04435 11.5455 7.47447 10.143 8.0751 8.99836C8.37789 8.42132 9.03826 8.07917 9.80185 8.07917L14.2718 8.07917C15.0372 8.07917 15.6929 8.42195 15.9839 8.99685C16.5598 10.1349 16.9555 11.5381 16.9555 12.8317C16.9555 16.5228 14.6438 18.9731 11.9999 18.9731Z" fill="#828B95"/>
</svg>
