<svg width="24" height="24" viewBox="0 0 24 24" fill="none" xmlns="http://www.w3.org/2000/svg">
<path d="M7.67829 5.67782C8.28697 5.67782 8.78041 5.18438 8.78041 4.5757C8.78041 3.82499 7.79853 2.95605 7.67829 2.95605C7.55805 2.95605 6.57617 3.7889 6.57617 4.5757C6.57617 5.18438 7.06961 5.67782 7.67829 5.67782Z" fill="#828B95"/>
<path fill-rule="evenodd" clip-rule="evenodd" d="M11.8637 6.32227C12.195 6.32227 12.4637 6.59089 12.4637 6.92227V7.98047H15.2456V6.92324C15.2456 6.59187 15.5142 6.32324 15.8456 6.32324C16.177 6.32324 16.4456 6.59187 16.4456 6.92324V7.98047H16.9519C18.2773 7.98047 19.3519 9.05499 19.3519 10.3805V11.6938C19.3533 11.7108 19.3541 11.7281 19.3541 11.7455C19.3541 11.7762 19.3533 11.8066 19.3519 11.8368V16.548C19.3519 17.8735 18.2773 18.948 16.9519 18.948H6.7999C5.47442 18.948 4.3999 17.8735 4.3999 16.548V10.3805C4.3999 9.05499 5.47442 7.98047 6.7999 7.98047H7.05273V6.92324C7.05273 6.59187 7.32136 6.32324 7.65273 6.32324C7.98411 6.32324 8.25273 6.59187 8.25273 6.92324V7.98047H11.2637V6.92227C11.2637 6.59089 11.5323 6.32227 11.8637 6.32227ZM18.1519 11.7906V10.3805C18.1519 9.71773 17.6146 9.18047 16.9519 9.18047H6.7999C6.13716 9.18047 5.5999 9.71773 5.5999 10.3805V11.6294C5.60727 11.6669 5.61113 11.7058 5.61113 11.7455C5.61113 12.0829 5.99272 12.5498 6.72708 12.5498C7.46143 12.5498 7.84302 12.0829 7.84302 11.7455C7.84302 11.4141 8.11165 11.1455 8.44302 11.1455L8.45046 11.1456L8.45791 11.1455C8.78928 11.1455 9.05791 11.4141 9.05791 11.7455C9.05791 12.0829 9.43949 12.5498 10.1739 12.5498C10.8986 12.5498 11.2797 12.0951 11.2896 11.7589L11.2896 11.7455C11.2896 11.4141 11.5582 11.1455 11.8896 11.1455C12.2209 11.1455 12.4898 11.4141 12.4898 11.7455L12.4897 11.7589C12.4996 12.0951 12.8808 12.5498 13.6055 12.5498C14.3399 12.5498 14.7214 12.0829 14.7214 11.7455C14.7214 11.4141 14.9901 11.1455 15.3214 11.1455C15.6528 11.1455 15.9222 11.4141 15.9222 11.7455C15.9222 12.0829 16.3038 12.5498 17.0381 12.5498C17.7403 12.5498 18.1199 12.1229 18.1519 11.7906ZM5.5999 13.4948V16.548C5.5999 17.2108 6.13716 17.748 6.7999 17.748H16.9519C17.6146 17.748 18.1519 17.2108 18.1519 16.548V13.5012C17.8094 13.6624 17.4241 13.7498 17.0381 13.7498C16.4008 13.7498 15.7654 13.5116 15.3218 13.0961C14.8782 13.5116 14.2428 13.7498 13.6055 13.7498C12.9685 13.7498 12.3333 13.5118 11.8897 13.0965C11.4461 13.5118 10.8109 13.7498 10.1739 13.7498C9.53319 13.7498 8.89439 13.5091 8.45047 13.0894C8.00655 13.5091 7.36774 13.7498 6.72708 13.7498C6.33603 13.7498 5.94567 13.6601 5.5999 13.4948Z" fill="#828B95"/>
<path d="M12.966 4.5757C12.966 5.18438 12.4725 5.67782 11.8638 5.67782C11.2552 5.67782 10.7617 5.18438 10.7617 4.5757C10.7617 3.7889 11.7436 2.95605 11.8638 2.95605C11.9841 2.95605 12.966 3.82499 12.966 4.5757Z" fill="#828B95"/>
<path d="M15.8443 5.67782C16.453 5.67782 16.9464 5.18438 16.9464 4.5757C16.9464 3.82499 15.9645 2.95605 15.8443 2.95605C15.7241 2.95605 14.7422 3.7889 14.7422 4.5757C14.7422 5.18438 15.2356 5.67782 15.8443 5.67782Z" fill="#828B95"/>
</svg>
