<svg width="24" height="24" viewBox="0 0 24 24" fill="none" xmlns="http://www.w3.org/2000/svg">
<path fill-rule="evenodd" clip-rule="evenodd" d="M8.55195 3.71973C8.99378 3.71973 9.35195 4.0779 9.35195 4.51973V5.01465H14.6318V4.51973C14.6318 4.0779 14.99 3.71973 15.4318 3.71973C15.8737 3.71973 16.2318 4.0779 16.2318 4.51973V5.01465H17.3101C18.8012 5.01465 20.0101 6.22348 20.0101 7.71465V16.2988C20.0101 17.79 18.8012 18.9988 17.3101 18.9988H6.69365C5.20248 18.9988 3.99365 17.79 3.99365 16.2988V7.71465C3.99365 6.22348 5.20248 5.01465 6.69365 5.01465H7.75195V4.51973C7.75195 4.0779 8.11013 3.71973 8.55195 3.71973ZM14.6318 6.21465V6.94941C14.6318 7.39124 14.99 7.74941 15.4318 7.74941C15.8737 7.74941 16.2318 7.39124 16.2318 6.94941V6.21465H17.3101C18.1385 6.21465 18.8101 6.88622 18.8101 7.71465V16.2988C18.8101 17.1273 18.1385 17.7988 17.3101 17.7988H6.69365C5.86523 17.7988 5.19365 17.1273 5.19365 16.2988V7.71465C5.19365 6.88622 5.86523 6.21465 6.69365 6.21465H7.75195V6.94941C7.75195 7.39124 8.11013 7.74941 8.55195 7.74941C8.99378 7.74941 9.35195 7.39124 9.35195 6.94941V6.21465H14.6318Z" fill="#333333"/>
</svg>
