<svg width="24" height="24" viewBox="0 0 24 24" fill="none" xmlns="http://www.w3.org/2000/svg">
<path d="M13.1 10.0287C13.1 9.8106 12.9816 9.60966 12.7908 9.50393C12.6001 9.39819 12.3669 9.40431 12.182 9.51991L10.182 10.7699C9.90098 10.9455 9.81556 11.3157 9.99118 11.5967C10.1668 11.8777 10.537 11.9631 10.818 11.7875L11.9 11.1113V15.0287C11.9 15.3601 12.1686 15.6287 12.5 15.6287C12.8314 15.6287 13.1 15.3601 13.1 15.0287V10.0287Z" fill="#333333"/>
<path fill-rule="evenodd" clip-rule="evenodd" d="M9.35195 4.51973C9.35195 4.0779 8.99378 3.71973 8.55195 3.71973C8.11013 3.71973 7.75195 4.0779 7.75195 4.51973V5.01465H6.69365C5.20248 5.01465 3.99365 6.22348 3.99365 7.71465V16.2988C3.99365 17.79 5.20248 18.9988 6.69365 18.9988H17.3101C18.8012 18.9988 20.0101 17.79 20.0101 16.2988V7.71465C20.0101 6.22348 18.8012 5.01465 17.3101 5.01465H16.2318V4.51973C16.2318 4.0779 15.8737 3.71973 15.4318 3.71973C14.99 3.71973 14.6318 4.0779 14.6318 4.51973V5.01465H9.35195V4.51973ZM14.6318 6.94941V6.21465H9.35195V6.94941C9.35195 7.39124 8.99378 7.74941 8.55195 7.74941C8.11013 7.74941 7.75195 7.39124 7.75195 6.94941V6.21465H6.69365C5.86523 6.21465 5.19365 6.88622 5.19365 7.71465V16.2988C5.19365 17.1273 5.86523 17.7988 6.69365 17.7988H17.3101C18.1385 17.7988 18.8101 17.1273 18.8101 16.2988V7.71465C18.8101 6.88622 18.1385 6.21465 17.3101 6.21465H16.2318V6.94941C16.2318 7.39124 15.8737 7.74941 15.4318 7.74941C14.99 7.74941 14.6318 7.39124 14.6318 6.94941Z" fill="#333333"/>
</svg>
