<svg width="24" height="24" viewBox="0 0 24 24" fill="none" xmlns="http://www.w3.org/2000/svg">
<path d="M16.3412 11.1591C16.5755 11.3934 16.5755 11.7733 16.3412 12.0077L13.3724 14.9764C13.1381 15.2107 12.7582 15.2107 12.5239 14.9764L11.9301 14.3827C11.6958 14.1483 11.6958 13.7684 11.9301 13.5341C12.1644 13.2998 12.5443 13.2998 12.7787 13.5341L12.9481 13.7036L15.4926 11.1591C15.7269 10.9248 16.1068 10.9248 16.3412 11.1591Z" fill="#333333"/>
<path d="M14.7575 9.57613C14.9918 9.81044 14.9918 10.1903 14.7575 10.4247L10.4033 14.7788C10.169 15.0131 9.78912 15.0131 9.5548 14.7788L7.57564 12.7997C7.34132 12.5653 7.34132 12.1854 7.57564 11.9511C7.80995 11.7168 8.18985 11.7168 8.42417 11.9511L9.97907 13.506L13.909 9.57613C14.1433 9.34181 14.5232 9.34181 14.7575 9.57613Z" fill="#333333"/>
<path fill-rule="evenodd" clip-rule="evenodd" d="M9.35195 4.51973C9.35195 4.0779 8.99378 3.71973 8.55195 3.71973C8.11013 3.71973 7.75195 4.0779 7.75195 4.51973V5.01465H6.69365C5.20248 5.01465 3.99365 6.22348 3.99365 7.71465V16.2988C3.99365 17.79 5.20248 18.9988 6.69365 18.9988H17.3101C18.8012 18.9988 20.0101 17.79 20.0101 16.2988V7.71465C20.0101 6.22348 18.8012 5.01465 17.3101 5.01465H16.2318V4.51973C16.2318 4.0779 15.8737 3.71973 15.4318 3.71973C14.99 3.71973 14.6318 4.0779 14.6318 4.51973V5.01465H9.35195V4.51973ZM14.6318 6.21465H9.35195V6.94941C9.35195 7.39124 8.99378 7.74941 8.55195 7.74941C8.11013 7.74941 7.75195 7.39124 7.75195 6.94941V6.21465H6.69365C5.86523 6.21465 5.19365 6.88622 5.19365 7.71465V16.2988C5.19365 17.1273 5.86523 17.7988 6.69365 17.7988H17.3101C18.1385 17.7988 18.8101 17.1273 18.8101 16.2988V7.71465C18.8101 6.88622 18.1385 6.21465 17.3101 6.21465H16.2318V6.94941C16.2318 7.39124 15.8737 7.74941 15.4318 7.74941C14.99 7.74941 14.6318 7.39124 14.6318 6.94941V6.21465Z" fill="#333333"/>
</svg>
