<svg width="24" height="24" viewBox="0 0 24 24" fill="none" xmlns="http://www.w3.org/2000/svg">
<path d="M18.9999 15.3473C19.3313 15.3473 19.5999 15.6159 19.5999 15.9473C19.5999 16.2787 19.3313 16.5473 18.9999 16.5473H6.85654L9.29323 18.7535C9.53887 18.9759 9.55771 19.3553 9.3353 19.601C9.11289 19.8466 8.73346 19.8655 8.48782 19.6431L4.89719 16.3921C4.77157 16.2783 4.6999 16.1168 4.6999 15.9473C4.6999 15.7778 4.77157 15.6163 4.89719 15.5025L8.48782 12.2516C8.73346 12.0292 9.11289 12.048 9.3353 12.2936C9.55771 12.5393 9.53887 12.9187 9.29323 13.1411L6.85654 15.3473H18.9999Z" fill="#333333"/>
<path d="M19.1028 7.6072C19.2284 7.72094 19.3001 7.88251 19.3001 8.05197C19.3001 8.22144 19.2284 8.38301 19.1028 8.49675L15.5134 11.7466C15.2678 11.969 14.8884 11.9501 14.666 11.7045C14.4436 11.4589 14.4624 11.0794 14.708 10.857L17.1426 8.65278H4.9999C4.66853 8.65278 4.3999 8.38415 4.3999 8.05278C4.3999 7.72141 4.66853 7.45278 4.9999 7.45278H17.1443L14.708 5.24693C14.4624 5.02452 14.4436 4.64509 14.666 4.39945C14.8884 4.1538 15.2678 4.13497 15.5134 4.35737L19.1028 7.6072Z" fill="#333333"/>
</svg>
