<svg width="24" height="24" viewBox="0 0 24 24" fill="none" xmlns="http://www.w3.org/2000/svg">
<path d="M11.9999 3.99805C11.6685 3.99805 11.3999 4.26668 11.3999 4.59805V7.15849C11.3999 7.48986 11.6685 7.75849 11.9999 7.75849C12.3313 7.75849 12.5999 7.48986 12.5999 7.15849V5.22415C16.0752 5.52791 18.8013 8.44531 18.8013 11.9994C18.8013 15.7557 15.7562 18.8008 11.9999 18.8008C8.24362 18.8008 5.19854 15.7557 5.19854 11.9994C5.19854 10.4328 5.7275 8.99133 6.61693 7.84164C6.8197 7.57955 6.7716 7.20271 6.50951 6.99994C6.24741 6.79718 5.87057 6.84528 5.66781 7.10737C4.62148 8.45986 3.99854 10.1577 3.99854 11.9994C3.99854 16.4184 7.58087 20.0008 11.9999 20.0008C16.4189 20.0008 20.0013 16.4184 20.0013 11.9994C20.0013 7.58039 16.4189 3.99805 11.9999 3.99805Z" fill="#333333"/>
<path d="M9.203 8.54881C8.9687 8.31448 8.58881 8.31446 8.35448 8.54875C8.12015 8.78305 8.12012 9.16295 8.35442 9.39728L11.4908 12.5341C11.7251 12.7684 12.105 12.7684 12.3393 12.5341C12.5736 12.2998 12.5737 11.9199 12.3394 11.6856L9.203 8.54881Z" fill="#333333"/>
</svg>
