<svg width="24" height="24" viewBox="0 0 24 24" fill="none" xmlns="http://www.w3.org/2000/svg">
<path d="M14.9514 11.3955C15.1697 11.1461 15.1444 10.7671 14.895 10.5489C14.6456 10.3306 14.2666 10.3559 14.0484 10.6053L10.9707 14.1226L9.42417 12.5761C9.18985 12.3418 8.80995 12.3418 8.57564 12.5761C8.34132 12.8104 8.34132 13.1903 8.57564 13.4247L10.5756 15.4247C10.6931 15.5421 10.8539 15.6056 11.0199 15.6001C11.1858 15.5945 11.3421 15.5205 11.4514 15.3955L14.9514 11.3955Z" fill="#828B95"/>
<path fill-rule="evenodd" clip-rule="evenodd" d="M9.92833 4.91113C7.7613 4.91113 5.6458 6.70378 5.55089 8.97644C3.68161 9.84763 2.46869 11.6946 2.49103 13.7449C2.49289 16.6339 4.82546 18.9803 7.7088 18.9803C8.78738 18.9803 9.86591 18.9801 10.9444 18.98H10.9496C13.1047 18.9797 15.2598 18.9794 17.4148 18.9803L17.431 18.9801C19.7103 18.9194 21.5509 17.0946 21.5088 14.8468C21.5277 13.1457 20.4688 11.64 18.8924 11.0064C18.6376 8.51464 16.224 6.60994 13.7422 7.13929C12.9966 5.82261 11.5398 4.92859 9.93484 4.91117L9.92833 4.91113ZM6.75467 9.32877C6.6311 7.6426 8.22028 6.11307 9.92509 6.11113C11.2421 6.12678 12.4131 6.95373 12.8647 8.07627C12.9847 8.37461 13.3186 8.52528 13.6217 8.41789C15.5733 7.72649 17.7145 9.32153 17.7145 11.4411C17.7145 11.7081 17.891 11.943 18.1475 12.0173C19.4581 12.3972 20.3264 13.5578 20.3088 14.8409C20.3087 14.8479 20.3087 14.8549 20.3089 14.8619C20.3419 16.4104 19.0683 17.7321 17.4069 17.7803C15.2526 17.7794 13.0981 17.7797 10.9439 17.78C9.86549 17.7801 8.78698 17.7803 7.7088 17.7803C5.49225 17.7803 3.69102 15.9745 3.69102 13.7414L3.69098 13.7345C3.67171 12.0693 4.72638 10.5492 6.36682 9.93447C6.61619 9.84102 6.77413 9.59437 6.75467 9.32877Z" fill="#828B95"/>
</svg>
