<svg width="24" height="24" viewBox="0 0 24 24" fill="none" xmlns="http://www.w3.org/2000/svg">
<path d="M11.9973 16.1416C11.8382 16.1415 11.6856 16.0782 11.5731 15.9657L9.10687 13.4969C8.87267 13.2625 8.87287 12.8826 9.1073 12.6484C9.34173 12.4142 9.72163 12.4144 9.95583 12.6488L11.4001 14.0945L11.4001 10.2945C11.4001 9.96316 11.6687 9.69453 12.0001 9.69453C12.3315 9.69453 12.6001 9.96316 12.6001 10.2945L12.6001 14.0916L14.0448 12.6484C14.2792 12.4142 14.6591 12.4144 14.8933 12.6488C15.1275 12.8832 15.1273 13.2631 14.8929 13.4973L12.4217 15.9661C12.3091 16.0785 12.1565 16.1417 11.9973 16.1416Z" fill="#828B95"/>
<path fill-rule="evenodd" clip-rule="evenodd" d="M5.55089 8.97644C5.6458 6.70378 7.7613 4.91113 9.92833 4.91113H9.93484C11.5398 4.92855 12.9966 5.82261 13.7422 7.13929C16.224 6.60994 18.6376 8.51464 18.8924 11.0064C20.4688 11.64 21.5277 13.1457 21.5088 14.8468C21.5509 17.0946 19.7103 18.9194 17.431 18.9801L17.4148 18.9803C15.2598 18.9794 13.1048 18.9797 10.9497 18.98H10.9444C9.86591 18.9801 8.78738 18.9803 7.7088 18.9803C4.82546 18.9803 2.49289 16.6339 2.49103 13.7449C2.46869 11.6946 3.68161 9.84763 5.55089 8.97644ZM9.92509 6.11113C8.22028 6.11307 6.6311 7.6426 6.75467 9.32877C6.77413 9.59437 6.61619 9.84102 6.36682 9.93447C4.72638 10.5492 3.67171 12.0693 3.69098 13.7345L3.69107 13.7414C3.69107 15.9745 5.49225 17.7803 7.7088 17.7803C8.78692 17.7803 9.86517 17.7801 10.9435 17.78C13.0977 17.7797 15.2526 17.7794 17.4069 17.7803C19.0683 17.7321 20.3419 16.4104 20.3089 14.8619C20.3087 14.8549 20.3087 14.8479 20.3088 14.8409C20.3264 13.5578 19.4581 12.3972 18.1475 12.0173C17.891 11.943 17.7145 11.7081 17.7145 11.4411C17.7145 9.32153 15.5733 7.72649 13.6217 8.41789C13.3186 8.52528 12.9847 8.37461 12.8647 8.07627C12.4131 6.95373 11.2421 6.12678 9.92509 6.11113Z" fill="#828B95"/>
</svg>
