<svg width="24" height="24" viewBox="0 0 24 24" fill="none" xmlns="http://www.w3.org/2000/svg">
<path fill-rule="evenodd" clip-rule="evenodd" d="M3.9458 8.14629C3.9458 6.65512 5.15463 5.44629 6.6458 5.44629H17.3542C18.8454 5.44629 20.0542 6.65512 20.0542 8.14629V15.8537C20.0542 17.3449 18.8454 18.5537 17.3542 18.5537H6.6458C5.15463 18.5537 3.9458 17.3449 3.9458 15.8537V8.14629ZM14.6136 6.64629H17.3542C18.1826 6.64629 18.8542 7.31786 18.8542 8.14629V15.8537C18.8542 16.6821 18.1826 17.3537 17.3542 17.3537H14.6137L14.6136 6.64629ZM13.4136 6.64629H6.6458C5.81737 6.64629 5.1458 7.31786 5.1458 8.14629V15.8537C5.1458 16.6821 5.81737 17.3537 6.6458 17.3537H13.4137L13.4136 6.64629Z" fill="#909090"/>
</svg>
