<svg width="24" height="24" viewBox="0 0 24 24" fill="none" xmlns="http://www.w3.org/2000/svg">
<path d="M10.2816 3.40096C10.6375 3.33019 10.9553 3.61331 10.9553 3.97623C10.9553 4.27878 10.7313 4.53233 10.4352 4.59461C8.32308 5.03894 6.53544 6.36443 5.47469 8.16865C5.32367 8.42552 5.01895 8.55756 4.73461 8.46845C4.38331 8.35836 4.209 7.96219 4.39216 7.64284C5.63046 5.48377 7.76137 3.90204 10.2816 3.40096Z" fill="#828B95"/>
<path d="M13.0203 4.50071C12.7043 4.45811 12.4553 4.19706 12.4553 3.87819C12.4553 3.53337 12.7447 3.25689 13.0869 3.29921C16.0785 3.66914 18.6029 5.54664 19.8765 8.14804C20.0186 8.43828 19.8798 8.78173 19.5848 8.91371C19.2751 9.05229 18.9141 8.90461 18.7616 8.6015C17.6631 6.4182 15.5381 4.8401 13.0203 4.50071Z" fill="#828B95"/>
<path d="M19.8776 10.426C20.2311 10.2678 20.6417 10.4749 20.6915 10.8589C20.7398 11.2314 20.7647 11.6113 20.7647 11.9969C20.7647 14.467 19.7428 16.6984 18.0989 18.2915C17.8279 18.5541 17.3896 18.4725 17.2032 18.1444C17.06 17.8924 17.1164 17.5763 17.3223 17.3724C18.7069 16.0015 19.5647 14.0994 19.5647 11.9969C19.5647 11.692 19.5466 11.3913 19.5115 11.0958C19.4784 10.8163 19.6207 10.5409 19.8776 10.426Z" fill="#828B95"/>
<path d="M16.0226 19.1029C16.1864 19.3912 16.0862 19.7598 15.7872 19.9032C14.6409 20.4532 13.3566 20.7613 12.0003 20.7613C10.4782 20.7613 9.04682 20.3734 7.79952 19.6909C7.50686 19.5308 7.42736 19.1544 7.60965 18.875C7.78962 18.5992 8.15717 18.5221 8.44783 18.677C9.50702 19.2414 10.7163 19.5613 12.0003 19.5613C13.1413 19.5613 14.2233 19.3087 15.1935 18.8563C15.4937 18.7163 15.8589 18.8149 16.0226 19.1029Z" fill="#828B95"/>
<path d="M6.47725 17.8655C6.27229 18.1797 5.83327 18.2358 5.57797 17.961C4.12461 16.3967 3.23584 14.3006 3.23584 11.9969C3.23584 11.4077 3.29399 10.832 3.40487 10.2753C3.47143 9.94113 3.81832 9.75323 4.14347 9.85513C4.45148 9.95165 4.6259 10.2737 4.56627 10.5909C4.48063 11.0465 4.43584 11.5165 4.43584 11.9969C4.43584 13.9556 5.18031 15.7405 6.40172 17.0839C6.59797 17.2998 6.63666 17.6212 6.47725 17.8655Z" fill="#828B95"/>
<path fill-rule="evenodd" clip-rule="evenodd" d="M12.9406 7.15248C12.3798 6.74505 11.6205 6.74505 11.0597 7.15248L7.68424 9.60488C7.12346 10.0123 6.88881 10.7345 7.103 11.3937L8.39231 15.3618C8.60651 16.021 9.22084 16.4674 9.914 16.4674H14.0863C14.7794 16.4674 15.3938 16.021 15.608 15.3618L16.8973 11.3937C17.1115 10.7345 16.8768 10.0123 16.316 9.60488L12.9406 7.15248ZM11.765 8.1233C11.9052 8.02144 12.0951 8.02144 12.2352 8.1233L15.6107 10.5757C15.7509 10.6776 15.8095 10.8581 15.756 11.0229L14.4667 14.991C14.4131 15.1558 14.2596 15.2674 14.0863 15.2674H9.914C9.74071 15.2674 9.58712 15.1558 9.53358 14.991L8.24427 11.0229C8.19072 10.8581 8.24939 10.6776 8.38958 10.5757L11.765 8.1233Z" fill="#828B95"/>
</svg>
