<svg width="24" height="24" viewBox="0 0 24 24" fill="none" xmlns="http://www.w3.org/2000/svg">
<path d="M15.6899 6.25825C15.631 6.23895 15.5682 6.22852 15.5028 6.22852C15.1715 6.22852 14.9028 6.49714 14.9028 6.82852V17.1376C14.9028 17.4689 15.1715 17.7376 15.5028 17.7376C15.8342 17.7376 16.1028 17.4689 16.1028 17.1376V9.32934L17.2846 11.7584C17.5434 12.2905 18.2986 12.2788 18.5477 11.7503C18.9448 10.9077 19.2863 10.2219 19.6306 9.53057L19.668 9.45553C19.6932 9.40494 19.7184 9.35428 19.7437 9.30351V17.1376C19.7437 17.4689 20.0123 17.7376 20.3437 17.7376C20.675 17.7376 20.9437 17.4689 20.9437 17.1376V6.82852C20.9437 6.49714 20.675 6.22852 20.3437 6.22852C20.2872 6.22852 20.2325 6.23632 20.1807 6.25092C19.989 6.27998 19.815 6.4012 19.7267 6.58991C19.3065 7.48755 18.9503 8.20467 18.5938 8.92064L18.5553 8.998C18.3455 9.41918 18.1347 9.84244 17.9108 10.3025L16.1006 6.5818C16.0172 6.41026 15.8628 6.29637 15.6899 6.25825Z" fill="#333333"/>
<path d="M3.05371 9.33437C3.05371 7.62229 4.44163 6.23438 6.15371 6.23438H6.88418C7.21555 6.23438 7.48418 6.503 7.48418 6.83438C7.48418 7.16575 7.21555 7.43438 6.88418 7.43438H6.15371C5.10437 7.43438 4.25371 8.28503 4.25371 9.33437V14.6181C4.25371 15.6674 5.10437 16.5181 6.15371 16.5181H6.88418C7.21555 16.5181 7.48418 16.7867 7.48418 17.1181C7.48418 17.4494 7.21555 17.7181 6.88418 17.7181H6.15371C4.44163 17.7181 3.05371 16.3301 3.05371 14.6181V9.33437Z" fill="#333333"/>
<path fill-rule="evenodd" clip-rule="evenodd" d="M12.105 12.8602C12.8807 12.2762 13.3823 11.3477 13.3823 10.302V9.4462C13.3823 7.67889 11.9496 6.2462 10.1823 6.2462L9.15841 6.2462C8.82704 6.2462 8.55841 6.51483 8.55841 6.8462V6.99605C8.55756 7.00911 8.55713 7.02228 8.55713 7.03555V17.1406C8.55713 17.472 8.82576 17.7406 9.15713 17.7406C9.4885 17.7406 9.75713 17.472 9.75713 17.1406V13.502H10.1823C10.4715 13.502 10.7517 13.4636 11.0182 13.3917L12.223 17.3961C12.3185 17.7137 12.6546 17.8996 12.9738 17.8113C13.2929 17.723 13.4741 17.3939 13.3786 17.0764L12.132 12.9328C12.1244 12.9077 12.1154 12.8835 12.105 12.8602ZM9.75713 11.3485V8.55826C9.75798 8.5452 9.75841 8.53203 9.75841 8.51876V7.4462H10.1823C11.2869 7.4462 12.1823 8.34163 12.1823 9.4462V10.302C12.1823 11.4065 11.2869 12.302 10.1823 12.302H9.75841V11.388C9.75841 11.3747 9.75798 11.3616 9.75713 11.3485Z" fill="#333333"/>
</svg>
