<svg width="24" height="24" viewBox="0 0 24 24" fill="none" xmlns="http://www.w3.org/2000/svg">
<path fill-rule="evenodd" clip-rule="evenodd" d="M10.8086 4.85849C11.2599 3.96315 12.5207 3.96234 12.9731 4.85724L15.6955 10.2426C15.6985 10.2485 15.7025 10.2523 15.7025 10.2523C15.7041 10.2537 15.7065 10.2547 15.7065 10.2547L15.7074 10.2543L18.7302 8.69154C19.7375 8.17078 20.7248 9.16241 20.4531 10.1256L20.4429 10.1615L20.4363 10.1857C20.4341 10.1944 20.433 10.1994 20.433 10.1994L19.3609 17.2252C19.3458 17.3236 19.3156 17.4707 19.234 17.6204C18.9815 18.0838 18.497 18.3865 17.9551 18.3865H5.91543C5.36919 18.3865 4.8815 18.079 4.63069 17.6096C4.55447 17.467 4.52482 17.3277 4.50967 17.2344L3.36795 10.2C3.36795 10.2 3.36692 10.1951 3.36472 10.1868L3.35837 10.1639L3.34863 10.13C3.07265 9.16421 4.06301 8.16938 5.07153 8.6922L8.08292 10.2533L8.08389 10.2537C8.08389 10.2537 8.08624 10.2527 8.08787 10.2513C8.08787 10.2513 8.09188 10.2475 8.09487 10.2416L10.8086 4.85849ZM11.8872 5.38765C11.8872 5.38765 11.8837 5.39149 11.8801 5.39866L9.16641 10.7818C8.8651 11.3795 8.13707 11.6331 7.53063 11.3187L4.51924 9.75755L4.51779 9.75682L4.51533 9.75881C4.50832 9.7649 4.50358 9.77267 4.50156 9.77894C4.50069 9.78165 4.50031 9.78406 4.50026 9.78649C4.50022 9.78872 4.50039 9.7931 4.50244 9.80028C4.50334 9.80341 4.50446 9.80726 4.50578 9.81176C4.51638 9.84806 4.53922 9.92625 4.55228 10.0067L5.69417 17.0421C5.69529 17.049 5.69628 17.0543 5.69706 17.0581C5.74798 17.1421 5.83249 17.1865 5.91543 17.1865H17.9551C18.0371 17.1865 18.1206 17.1431 18.1717 17.061C18.1725 17.0567 18.1735 17.0512 18.1746 17.0441L19.2469 10.0175C19.2598 9.93268 19.2837 9.8502 19.2947 9.81202C19.2961 9.80727 19.2972 9.8032 19.2982 9.79991C19.3001 9.7929 19.3003 9.78862 19.3002 9.78642C19.3002 9.78403 19.2998 9.78161 19.2989 9.77888C19.2969 9.77256 19.2921 9.76479 19.2851 9.75872L19.2827 9.75678L19.2813 9.75751L16.2585 11.3202C15.6527 11.6334 14.9261 11.3804 14.6246 10.784L11.9021 5.39862C11.8985 5.39145 11.8951 5.38762 11.8951 5.38762C11.8951 5.38762 11.8935 5.38652 11.8911 5.38652C11.8888 5.38652 11.8872 5.38765 11.8872 5.38765Z" fill="#333333"/>
</svg>
