<svg width="24" height="24" viewBox="0 0 24 24" fill="none" xmlns="http://www.w3.org/2000/svg">
<path fill-rule="evenodd" clip-rule="evenodd" d="M6.87348 5.23741C8.21492 4.66294 10.0263 4.32227 11.9956 4.32227C13.965 4.32227 15.7764 4.66294 17.1178 5.23741C17.7875 5.52418 18.3677 5.88106 18.7893 6.30791C19.0862 6.60849 19.3183 6.9595 19.4309 7.35283C19.4816 7.44084 19.5105 7.54291 19.5105 7.65176V15.9242C19.5105 15.9653 19.5064 16.0055 19.4985 16.0443C19.4521 16.588 19.1755 17.0643 18.7893 17.4553C18.3677 17.8821 17.7875 18.239 17.1178 18.5258C15.7764 19.1002 13.965 19.4409 11.9956 19.4409C10.0263 19.4409 8.21492 19.1002 6.87348 18.5258C6.20383 18.239 5.62355 17.8821 5.20196 17.4553C4.82785 17.0765 4.55654 16.6176 4.49776 16.0949C4.48174 16.0408 4.47314 15.9835 4.47314 15.9242V7.65176C4.47314 7.53281 4.50776 7.42194 4.56746 7.32868C4.68251 6.94513 4.91118 6.60232 5.20196 6.30791C5.62355 5.88106 6.20383 5.52418 6.87348 5.23741ZM6.05573 7.15116C5.78055 7.42978 5.68584 7.67585 5.68584 7.88135C5.68584 8.08685 5.78055 8.33291 6.05573 8.61153C6.33345 8.89272 6.76509 9.17347 7.34587 9.42218C8.50528 9.91869 10.1488 10.2404 11.9956 10.2404C13.8425 10.2404 15.486 9.91869 16.6454 9.42218C17.2262 9.17347 17.6578 8.89272 17.9356 8.61153C18.2107 8.33291 18.3054 8.08685 18.3054 7.88135C18.3054 7.67585 18.2107 7.42978 17.9356 7.15116C17.6578 6.86998 17.2262 6.58923 16.6454 6.34051C15.486 5.844 13.8425 5.52227 11.9956 5.52227C10.1488 5.52227 8.50528 5.844 7.34587 6.34051C6.76509 6.58923 6.33345 6.86998 6.05573 7.15116ZM18.3105 15.8818V13.8648C17.9656 14.1162 17.5613 14.3368 17.1178 14.5268C15.7764 15.1012 13.965 15.4419 11.9956 15.4419C10.0263 15.4419 8.21492 15.1012 6.87348 14.5268C6.42673 14.3354 6.01976 14.1129 5.67314 13.8592L5.67314 15.8818H5.68584C5.68584 16.0873 5.78055 16.3334 6.05573 16.612C6.33345 16.8932 6.76509 17.174 7.34587 17.4227C8.50528 17.9192 10.1488 18.2409 11.9956 18.2409C13.8425 18.2409 15.486 17.9192 16.6454 17.4227C17.2262 17.174 17.6578 16.8932 17.9356 16.612C18.2107 16.3334 18.3054 16.0873 18.3054 15.8818H18.3105ZM18.3105 11.8828V9.86331C17.9656 10.1147 17.5613 10.3354 17.1178 10.5253C15.7764 11.0998 13.965 11.4404 11.9956 11.4404C10.0263 11.4404 8.21492 11.0998 6.87348 10.5253C6.42673 10.334 6.01976 10.1114 5.67314 9.85777L5.67314 11.8828H5.68584C5.68584 12.0883 5.78055 12.3344 6.05573 12.613C6.33345 12.8942 6.7651 13.1749 7.34587 13.4236C8.50528 13.9202 10.1488 14.2419 11.9956 14.2419C13.8425 14.2419 15.486 13.9202 16.6454 13.4236C17.2262 13.1749 17.6578 12.8942 17.9356 12.613C18.2107 12.3344 18.3054 12.0883 18.3054 11.8828H18.3105Z" fill="#828B95"/>
</svg>
