<svg width="24" height="24" viewBox="0 0 24 24" fill="none" xmlns="http://www.w3.org/2000/svg">
<path fill-rule="evenodd" clip-rule="evenodd" d="M14.4053 3.68848C14.7367 3.68846 15.0053 3.95708 15.0053 4.28845L15.0053 4.69867C17.1446 4.96855 18.8399 6.66351 19.1102 8.80257L19.5206 8.80255C19.852 8.80254 20.1207 9.07116 20.1207 9.40253C20.1207 9.7339 19.8521 10.0025 19.5207 10.0026L19.1104 10.0026C18.8406 12.1421 17.1452 13.8377 15.0057 14.1077L15.0057 14.518C15.0057 14.8494 14.7371 15.1181 14.4057 15.1181C14.0744 15.1181 13.8057 14.8495 13.8057 14.5181L13.8057 14.1077C11.6664 13.8375 9.97126 12.1422 9.70129 10.0029L9.2911 10.0029C8.95973 10.0029 8.69109 9.73432 8.69108 9.40295C8.69106 9.07158 8.95968 8.80294 9.29105 8.80293L9.70137 8.80291C9.97157 6.66401 11.6665 4.96906 13.8053 4.69879L13.8053 4.2885C13.8053 3.95713 14.0739 3.68849 14.4053 3.68848ZM10.9143 10.0029C11.1659 11.4784 12.3302 12.6429 13.8056 12.8947L13.8055 10.0028L10.9143 10.0029ZM13.8055 8.80276L10.9144 8.80287C11.1662 7.32772 12.3303 6.16369 13.8054 5.91181L13.8055 8.80276ZM15.0055 10.0027L15.0056 12.8947C16.4814 12.643 17.6459 11.4784 17.8974 10.0026L15.0055 10.0027ZM17.8972 8.80261L15.0055 8.80272L15.0054 5.91167C16.4809 6.16322 17.6452 7.3273 17.8972 8.80261Z" fill="#828B95"/>
<path fill-rule="evenodd" clip-rule="evenodd" d="M8.41285 6.23965C8.41285 5.90828 8.14422 5.63965 7.81285 5.63965H6.38223C4.94629 5.63965 3.78223 6.80371 3.78223 8.23965V15.6254C3.78223 17.0613 4.94629 18.2254 6.38223 18.2254H7.58877C7.75013 19.4526 8.7978 20.3797 10.0464 20.3797H14.0849C15.2999 20.3797 16.2891 19.423 16.3458 18.2254H17.5628C18.9987 18.2254 20.1628 17.0613 20.1628 15.6254V13.9777C20.1628 13.6463 19.8941 13.3777 19.5628 13.3777C19.2314 13.3777 18.9628 13.6463 18.9628 13.9777V15.6254C18.9628 16.3986 18.336 17.0254 17.5628 17.0254H6.38223C5.60903 17.0254 4.98223 16.3986 4.98223 15.6254V8.23965C4.98223 7.46645 5.60903 6.83965 6.38223 6.83965H7.81285C8.14422 6.83965 8.41285 6.57102 8.41285 6.23965ZM10.0464 19.1797C9.45668 19.1797 8.95387 18.7789 8.80918 18.2254H15.1428C15.0883 18.7607 14.636 19.1797 14.0849 19.1797H10.0464Z" fill="#828B95"/>
</svg>
