<svg width="24" height="24" viewBox="0 0 24 24" fill="none" xmlns="http://www.w3.org/2000/svg">
<path d="M19.4169 5.37988C19.7483 5.37988 20.0169 5.64851 20.0169 5.97988V12.5741C20.0173 12.5835 20.0176 12.593 20.0176 12.6026C20.0176 12.6121 20.0173 12.6216 20.0169 12.631V18.5639C20.0169 18.8953 19.7483 19.1639 19.4169 19.1639C19.0855 19.1639 18.8169 18.8953 18.8169 18.5639V13.2026H14.016C13.6846 13.2026 13.416 12.9339 13.416 12.6026V6.00723C13.416 5.67586 13.6846 5.40723 14.016 5.40723C14.3474 5.40723 14.616 5.67586 14.616 6.00723V12.0026H18.8169V5.97988C18.8169 5.64851 19.0855 5.37988 19.4169 5.37988Z" fill="#828B95"/>
<path d="M11.4294 9.29919C11.4294 8.23079 11.0747 7.35846 10.4891 6.71369C9.90967 6.07582 9.13263 5.69118 8.32745 5.53469C6.74848 5.2278 4.88006 5.77991 4.01271 7.30996C3.84929 7.59823 3.95051 7.9644 4.23878 8.12781C4.52706 8.29123 4.89322 8.19001 5.05664 7.90174C5.60515 6.93415 6.88408 6.47661 8.0985 6.71265C8.69001 6.82761 9.22117 7.10258 9.6008 7.52052C9.97417 7.93157 10.2294 8.51127 10.2294 9.29919C10.2294 9.93959 9.99402 10.5404 9.56604 11.1705C9.13191 11.8096 8.52822 12.4386 7.83328 13.1398C7.76032 13.2135 7.68642 13.2878 7.61177 13.3629C6.29761 14.6845 4.75088 16.24 3.97161 18.3571C3.90385 18.5411 3.93035 18.7467 4.04256 18.9076C4.15477 19.0684 4.33854 19.1643 4.53468 19.1643L10.8294 19.1642C11.1608 19.1642 11.4294 18.8956 11.4294 18.5642C11.4294 18.2328 11.1607 17.9642 10.8294 17.9642L5.45021 17.9643C6.19526 16.4933 7.36057 15.3194 8.50761 14.164L8.68562 13.9846C9.37188 13.2921 10.0532 12.589 10.5587 11.8448C11.0704 11.0915 11.4294 10.2576 11.4294 9.29919Z" fill="#828B95"/>
</svg>
