<svg width="24" height="24" viewBox="0 0 24 24" fill="none" xmlns="http://www.w3.org/2000/svg">
<path fill-rule="evenodd" clip-rule="evenodd" d="M5.25 6.5002C5.25 5.78223 5.83203 5.2002 6.55 5.2002C7.26797 5.2002 7.85 5.78223 7.85 6.5002C7.85 7.21817 7.26797 7.8002 6.55 7.8002C5.83203 7.8002 5.25 7.21817 5.25 6.5002ZM10.7515 6.5002C10.7515 5.78223 11.3335 5.2002 12.0515 5.2002C12.7694 5.2002 13.3515 5.78223 13.3515 6.5002C13.3515 7.21817 12.7694 7.8002 12.0515 7.8002C11.3335 7.8002 10.7515 7.21817 10.7515 6.5002ZM16.2534 6.5002C16.2534 5.78222 16.8354 5.2002 17.5534 5.2002C18.2714 5.2002 18.8534 5.78222 18.8534 6.5002C18.8534 7.21817 18.2714 7.8002 17.5534 7.8002C16.8354 7.8002 16.2534 7.21817 16.2534 6.5002ZM5.25 12.0002C5.25 11.2822 5.83203 10.7002 6.55 10.7002C7.26797 10.7002 7.85 11.2822 7.85 12.0002C7.85 12.7182 7.26797 13.3002 6.55 13.3002C5.83203 13.3002 5.25 12.7182 5.25 12.0002ZM10.7515 12.0002C10.7515 11.2822 11.3335 10.7002 12.0515 10.7002C12.7694 10.7002 13.3515 11.2822 13.3515 12.0002C13.3515 12.7182 12.7694 13.3002 12.0515 13.3002C11.3335 13.3002 10.7515 12.7182 10.7515 12.0002ZM16.2534 12.0002C16.2534 11.2822 16.8354 10.7002 17.5534 10.7002C18.2714 10.7002 18.8534 11.2822 18.8534 12.0002C18.8534 12.7182 18.2714 13.3002 17.5534 13.3002C16.8354 13.3002 16.2534 12.7182 16.2534 12.0002ZM5.25 17.5002C5.25 16.7822 5.83203 16.2002 6.55 16.2002C7.26797 16.2002 7.85 16.7822 7.85 17.5002C7.85 18.2182 7.26797 18.8002 6.55 18.8002C5.83203 18.8002 5.25 18.2182 5.25 17.5002ZM10.7515 17.5002C10.7515 16.7822 11.3335 16.2002 12.0515 16.2002C12.7694 16.2002 13.3515 16.7822 13.3515 17.5002C13.3515 18.2182 12.7694 18.8002 12.0515 18.8002C11.3335 18.8002 10.7515 18.2182 10.7515 17.5002ZM16.2534 17.5002C16.2534 16.7822 16.8354 16.2002 17.5534 16.2002C18.2714 16.2002 18.8534 16.7822 18.8534 17.5002C18.8534 18.2182 18.2714 18.8002 17.5534 18.8002C16.8354 18.8002 16.2534 18.2182 16.2534 17.5002Z" fill="#FAA72C"/>
</svg>
