<svg width="24" height="24" viewBox="0 0 24 24" fill="none" xmlns="http://www.w3.org/2000/svg">
<path fill-rule="evenodd" clip-rule="evenodd" d="M10.0257 10.6H12.8435C13.8998 9.86854 15.1741 9.42951 16.5491 9.40002H14.9552C14.5908 7.92753 13.947 6.53016 13.0538 5.28117C15.4265 5.65032 17.3933 7.24623 18.2852 9.40002H16.8454C17.9017 9.42268 18.8984 9.68697 19.7826 10.1398C18.9441 6.61866 15.7779 4 12 4C7.58174 4.00002 4 7.58173 4 12C4 16.1018 7.087 19.4826 11.0645 19.9459C10.7847 19.5287 10.55 19.0786 10.3674 18.6028C8.2562 18.0825 6.53315 16.5761 5.7148 14.6001H9.0448C9.26192 15.4776 9.57831 16.3284 9.98757 17.137C9.94298 16.823 9.91992 16.5021 9.91992 16.1758C9.91992 15.1868 10.1318 14.2472 10.5126 13.4001H10.0257C9.95324 12.9385 9.91088 12.4709 9.89962 12C9.91087 11.5291 9.95323 11.0616 10.0257 10.6ZM8.81249 13.4001C8.74744 12.9379 8.70942 12.4705 8.69931 12C8.70942 11.5295 8.74743 11.0622 8.81247 10.6H5.34426C5.24971 11.0518 5.2 11.5201 5.2 12C5.2 12.4799 5.24972 12.9482 5.34429 13.4001H8.81249ZM12 5.87179C11.2137 6.94385 10.6345 8.13937 10.2852 9.40002H13.7147C13.3654 8.13937 12.7862 6.94385 12 5.87179ZM9.04477 9.40002C9.4091 7.92753 10.0529 6.53017 10.9461 5.28118C8.57341 5.65035 6.60668 7.24625 5.71475 9.40002H9.04477Z" fill="#909090"/>
<path d="M13.5757 13.0758C13.81 12.8414 14.1899 12.8414 14.4243 13.0758L16.5 15.1515L18.5757 13.0758C18.81 12.8414 19.1899 12.8414 19.4243 13.0758C19.6586 13.3101 19.6586 13.69 19.4243 13.9243L17.3485 16L19.4243 18.0758C19.6586 18.3101 19.6586 18.69 19.4243 18.9243C19.1899 19.1586 18.81 19.1586 18.5757 18.9243L16.5 16.8486L14.4243 18.9243C14.1899 19.1586 13.81 19.1586 13.5757 18.9243C13.3414 18.69 13.3414 18.3101 13.5757 18.0758L15.6515 16L13.5757 13.9243C13.3414 13.69 13.3414 13.3101 13.5757 13.0758Z" fill="#909090"/>
</svg>
