<svg width="24" height="24" viewBox="0 0 24 24" fill="none" xmlns="http://www.w3.org/2000/svg">
<path fill-rule="evenodd" clip-rule="evenodd" d="M10.0257 10.6H12.8435C13.8998 9.86854 15.1741 9.42951 16.5491 9.40002H14.9552C14.5908 7.92753 13.947 6.53016 13.0538 5.28117C15.4265 5.65032 17.3933 7.24623 18.2852 9.40002H16.8454C17.9017 9.42268 18.8984 9.68697 19.7826 10.1398C18.9441 6.61866 15.7779 4 12 4C7.58174 4.00002 4 7.58173 4 12C4 16.1018 7.087 19.4826 11.0645 19.9459C10.7847 19.5287 10.55 19.0786 10.3674 18.6028C8.2562 18.0825 6.53315 16.5761 5.7148 14.6001H9.0448C9.26192 15.4776 9.57831 16.3284 9.98757 17.137C9.94298 16.823 9.91992 16.5021 9.91992 16.1758C9.91992 15.1868 10.1318 14.2472 10.5126 13.4001H10.0257C9.95324 12.9385 9.91088 12.4709 9.89962 12C9.91087 11.5291 9.95323 11.0616 10.0257 10.6ZM8.81249 13.4001C8.74744 12.9379 8.70942 12.4705 8.69931 12C8.70942 11.5295 8.74743 11.0622 8.81247 10.6H5.34426C5.24971 11.0518 5.2 11.5201 5.2 12C5.2 12.4799 5.24972 12.9482 5.34429 13.4001H8.81249ZM12 5.87179C11.2137 6.94385 10.6345 8.13937 10.2852 9.40002H13.7147C13.3654 8.13937 12.7862 6.94385 12 5.87179ZM9.04477 9.40002C9.4091 7.92753 10.0529 6.53017 10.9461 5.28118C8.57341 5.65035 6.60668 7.24625 5.71475 9.40002H9.04477Z" fill="#909090"/>
<path d="M20.4509 13.8958C20.6695 13.6468 20.6449 13.2677 20.3958 13.0491C20.1468 12.8305 19.7677 12.8551 19.5491 13.1041L15.7566 17.4243L13.6691 15.1596C13.4445 14.916 13.0649 14.9005 12.8212 15.1251C12.5776 15.3497 12.5621 15.7293 12.7867 15.9729L15.3263 18.728C15.4416 18.8531 15.6046 18.9234 15.7747 18.9213C15.9448 18.9193 16.1061 18.8451 16.2183 18.7172L20.4509 13.8958Z" fill="#909090"/>
</svg>
