<svg width="24" height="24" viewBox="0 0 24 24" fill="none" xmlns="http://www.w3.org/2000/svg">
<path d="M12.5496 7.28828C12.5496 6.98452 12.3034 6.73828 11.9996 6.73828C11.6959 6.73828 11.4496 6.98452 11.4496 7.28828L11.4496 14.4185C11.4496 14.7222 11.6959 14.9685 11.9996 14.9685C12.3034 14.9685 12.5496 14.7222 12.5496 14.4185L12.5496 7.28828Z" fill="black"/>
<path d="M12.6998 17.2149C12.6998 16.8283 12.3864 16.5149 11.9998 16.5149C11.6132 16.5149 11.2998 16.8283 11.2998 17.2149L11.2998 17.5372C11.2998 17.9237 11.6132 18.2372 11.9998 18.2372C12.3864 18.2372 12.6998 17.9237 12.6998 17.5372V17.2149Z" fill="black"/>
</svg>
