<svg width="24" height="24" viewBox="0 0 24 24" fill="none" xmlns="http://www.w3.org/2000/svg">
<path fill-rule="evenodd" clip-rule="evenodd" d="M17.3 9.82599V9.69521H14.7856C14.2583 9.69521 13.752 9.48658 13.3784 9.11444C13.0047 8.74221 12.7944 8.23687 12.7944 7.7095V5.20001L8.13158 5.20001C7.75707 5.20001 7.39463 5.35062 7.12491 5.62394C6.85465 5.8978 6.7 6.2726 6.7 6.66667V17.3334C6.7 17.7274 6.85464 18.1022 7.12487 18.376C7.39464 18.6494 7.75711 18.8 8.13158 18.8H10.9502C11.2158 19.24 11.5362 19.6432 11.9021 20H8.13158C7.43364 20 6.76429 19.719 6.27078 19.2189C5.77726 18.7189 5.5 18.0406 5.5 17.3334V6.66667C5.5 5.95943 5.77726 5.28115 6.27078 4.78106C6.76429 4.28096 7.43364 4.00001 8.13158 4.00001H13.5351C13.882 3.99914 14.2257 4.06781 14.5464 4.20206C14.867 4.3363 15.1583 4.53347 15.4035 4.78223L17.7281 7.13778C17.9736 7.38623 18.1682 7.68141 18.3006 8.00634C18.4331 8.33128 18.5008 8.67954 18.5 9.03112V10.2074C18.1191 10.0402 17.7174 9.91141 17.3 9.82599ZM17.1894 8.45934C17.1943 8.47124 17.199 8.4832 17.2035 8.49521H14.7856C14.575 8.49521 14.3735 8.41185 14.2253 8.26426C14.0772 8.11675 13.9944 7.91715 13.9944 7.7095V5.27535C14.0243 5.28554 14.0538 5.29675 14.083 5.30897C14.2563 5.38151 14.4152 5.48899 14.5494 5.62512L16.8745 7.98116C17.0088 8.11715 17.1161 8.27954 17.1894 8.45934Z" fill="#333333"/>
<path d="M8.3999 11.975C8.3999 11.6436 8.66853 11.375 8.9999 11.375H10.3192C10.6506 11.375 10.9192 11.6436 10.9192 11.975C10.9192 12.3064 10.6506 12.575 10.3192 12.575H8.9999C8.66853 12.575 8.3999 12.3064 8.3999 11.975Z" fill="#333333"/>
<path d="M8.3999 14.975C8.3999 14.6436 8.66853 14.375 8.9999 14.375H9.43008C9.76145 14.375 10.0301 14.6436 10.0301 14.975C10.0301 15.3064 9.76145 15.575 9.43008 15.575H8.9999C8.66853 15.575 8.3999 15.3064 8.3999 14.975Z" fill="#333333"/>
<path d="M16.6907 13.9545C16.6907 13.6231 16.4221 13.3545 16.0907 13.3545C15.7594 13.3545 15.4907 13.6231 15.4907 13.9545V15.9545C15.4907 16.1136 15.5539 16.2662 15.6665 16.3788C15.779 16.4913 15.9316 16.5545 16.0907 16.5545L18.0907 16.5545C18.4221 16.5545 18.6907 16.2859 18.6907 15.9545C18.6907 15.6231 18.4221 15.3545 18.0907 15.3545L16.6907 15.3545V13.9545Z" fill="#333333"/>
<path fill-rule="evenodd" clip-rule="evenodd" d="M11.4907 15.7045C11.4907 13.164 13.5502 11.1045 16.0907 11.1045C18.6312 11.1045 20.6907 13.164 20.6907 15.7045C20.6907 18.245 18.6312 20.3045 16.0907 20.3045C13.5502 20.3045 11.4907 18.245 11.4907 15.7045ZM16.0907 12.3045C14.213 12.3045 12.6907 13.8267 12.6907 15.7045C12.6907 17.5823 14.213 19.1045 16.0907 19.1045C17.9685 19.1045 19.4907 17.5823 19.4907 15.7045C19.4907 13.8267 17.9685 12.3045 16.0907 12.3045Z" fill="#333333"/>
</svg>
