<svg width="24" height="24" viewBox="0 0 24 24" fill="none" xmlns="http://www.w3.org/2000/svg">
<path d="M9.77301 5.17285C8.60336 5.17285 7.87453 5.30788 7.37091 5.4809C6.98932 5.61201 6.17015 5.92769 6.17286 6.41893L6.17285 6.42227V20.273C6.17285 20.6043 6.44148 20.873 6.77285 20.873C7.10422 20.873 7.37285 20.6043 7.37285 20.273L7.37285 14.4552C7.45857 14.4075 7.56435 14.3599 7.71636 14.3116C8.07122 14.1988 8.68442 14.0871 9.77301 14.0871C10.7847 14.0871 11.6333 14.3735 12.5786 14.6976L12.5822 14.6989C12.8957 14.8063 13.2369 14.6392 13.3443 14.3257C13.4517 14.0122 13.2846 13.671 12.9711 13.5636L12.9383 13.5524C12.0163 13.2362 10.9983 12.8871 9.77301 12.8871C8.62654 12.8871 7.88461 13.0021 7.37285 13.1617L7.37285 6.78685C7.47649 6.73131 7.5957 6.67252 7.76082 6.61579C8.10364 6.49801 8.69267 6.37285 9.77301 6.37285C10.7847 6.37285 11.6331 6.65917 12.5784 6.98328L12.6078 6.99334C13.5297 7.30948 14.5477 7.65857 15.773 7.65857C16.8584 7.65857 17.6357 7.51617 18.173 7.34979V11.8204C18.173 12.1518 18.4416 12.4204 18.773 12.4204C19.1044 12.4204 19.373 12.1518 19.373 11.8204V6.41571C19.373 6.18139 19.2366 5.96851 19.0237 5.8706C18.8154 5.77481 18.5713 5.80621 18.3942 5.95043L18.3904 5.95315C18.381 5.95975 18.3591 5.97459 18.323 5.99521C18.251 6.03636 18.1215 6.10123 17.9222 6.16957C17.5239 6.30612 16.8406 6.45857 15.773 6.45857C14.7613 6.45857 13.9129 6.17225 12.9676 5.84814L12.9383 5.83808C12.0163 5.52194 10.9983 5.17285 9.77301 5.17285Z" fill="#333333"/>
<path d="M15.3374 13.9306C15.5717 13.6963 15.9516 13.6963 16.1859 13.9306L17.7616 15.5064L19.3374 13.9306C19.5717 13.6963 19.9516 13.6963 20.1859 13.9306C20.4202 14.1649 20.4202 14.5448 20.1859 14.7791L18.6101 16.3549L20.1859 17.9306C20.4202 18.1649 20.4202 18.5448 20.1859 18.7791C19.9516 19.0135 19.5717 19.0135 19.3374 18.7791L17.7616 17.2034L16.1859 18.7791C15.9516 19.0135 15.5717 19.0135 15.3374 18.7791C15.103 18.5448 15.103 18.1649 15.3374 17.9306L16.9131 16.3549L15.3374 14.7791C15.103 14.5448 15.103 14.1649 15.3374 13.9306Z" fill="#333333"/>
</svg>
