<svg width="24" height="24" viewBox="0 0 24 24" fill="none" xmlns="http://www.w3.org/2000/svg">
<path fill-rule="evenodd" clip-rule="evenodd" d="M11.9995 9.27051C10.6676 9.27051 9.58789 10.3502 9.58789 11.6821C9.58789 13.0139 10.6676 14.0936 11.9995 14.0936C13.3313 14.0936 14.411 13.0139 14.411 11.6821C14.411 10.3502 13.3313 9.27051 11.9995 9.27051ZM10.7879 11.6821C10.7879 11.0129 11.3303 10.4705 11.9995 10.4705C12.6686 10.4705 13.211 11.0129 13.211 11.6821C13.211 12.3512 12.6686 12.8936 11.9995 12.8936C11.3303 12.8936 10.7879 12.3512 10.7879 11.6821Z" fill="#828B95"/>
<path fill-rule="evenodd" clip-rule="evenodd" d="M8.11079 6.46816C8.48995 4.66824 10.0866 3.31738 11.9992 3.31738C13.8685 3.31738 15.4359 4.6078 15.8599 6.34676L15.885 6.34668C18.0796 6.34668 19.8588 8.1258 19.8588 10.3205C19.8588 11.6727 19.1832 12.8664 18.153 13.5837C18.3151 14.0172 18.4036 14.4863 18.4036 14.9751C18.4036 17.1698 16.6245 18.9489 14.4298 18.9489C13.7699 18.9489 13.1472 18.7878 12.5994 18.503V19.9213C12.5994 20.2527 12.3308 20.5213 11.9994 20.5213C11.668 20.5213 11.3994 20.2527 11.3994 19.9213V18.4862C10.8699 18.7473 10.2738 18.8942 9.6437 18.8942C7.44904 18.8942 5.66992 17.1151 5.66992 14.9205C5.66992 14.4999 5.73544 14.0939 5.857 13.7126C4.82081 12.9961 4.14062 11.7989 4.14062 10.4419C4.14062 8.24848 5.91779 6.47011 8.11079 6.46816ZM11.9992 4.51738C10.5181 4.51738 9.3079 5.6784 9.22945 7.13952L9.19394 7.80087L8.53931 7.70041C8.40112 7.67921 8.25925 7.66816 8.1144 7.66816C6.58249 7.66816 5.34063 8.91002 5.34063 10.4419C5.34063 11.526 5.96238 12.4659 6.87149 12.9225L7.39878 13.1873L7.14279 13.719C6.9681 14.0818 6.86992 14.4888 6.86992 14.9205C6.86992 16.4524 8.11178 17.6942 9.6437 17.6942C10.4016 17.6942 11.0876 17.391 11.5888 16.8979L12.0193 16.4745L12.44 16.9076C12.9447 17.4272 13.6492 17.7489 14.4298 17.7489C15.9617 17.7489 17.2036 16.5071 17.2036 14.9751C17.2036 14.4877 17.0784 14.0312 16.8588 13.6344L16.555 13.0856L17.1168 12.8065C18.0319 12.352 18.6588 11.4089 18.6588 10.3205C18.6588 8.78854 17.4169 7.54668 15.885 7.54668C15.7374 7.54668 15.5929 7.55816 15.4522 7.58016L14.8188 7.67923L14.7618 7.0407C14.6356 5.62645 13.4466 4.51738 11.9992 4.51738Z" fill="#828B95"/>
</svg>
