<svg width="24" height="24" viewBox="0 0 24 24" fill="none" xmlns="http://www.w3.org/2000/svg">
<path fill-rule="evenodd" clip-rule="evenodd" d="M9.41712 5.15996C9.19924 5.15996 8.98806 5.24798 8.83063 5.40827C8.67285 5.56892 8.58232 5.78907 8.58232 6.02084C8.58232 6.25261 8.67285 6.47276 8.83063 6.63341C8.98805 6.7937 9.19924 6.88172 9.41712 6.88172H11.1949C11.126 6.70024 11.0397 6.50207 10.9338 6.306C10.5718 5.63589 10.0823 5.15996 9.41712 5.15996ZM7.56928 6.88379C7.44708 6.61532 7.38232 6.32115 7.38232 6.02084C7.38232 5.47771 7.59413 4.9547 7.9745 4.56742C8.35523 4.17976 8.87393 3.95996 9.41712 3.95996C10.7607 3.95996 11.5624 4.94492 11.9896 5.73568C11.993 5.74197 11.9964 5.74826 11.9997 5.75455C12.0031 5.74826 12.0065 5.74197 12.0099 5.73568C12.437 4.94492 13.2388 3.95996 14.5824 3.95996C15.1256 3.95996 15.6443 4.17977 16.025 4.56742C16.4054 4.9547 16.6172 5.47771 16.6172 6.02084C16.6172 6.32115 16.5524 6.61532 16.4302 6.88379H17.8988C18.7825 6.88379 19.4988 7.60013 19.4988 8.48379V10.4263C19.4988 11.092 19.0923 11.6628 18.5139 11.9038V17.8193C18.5139 18.9239 17.6185 19.8193 16.5139 19.8193H7.48633C6.38176 19.8193 5.48633 18.9239 5.48633 17.8193V11.9042C4.90747 11.6634 4.50049 11.0924 4.50049 10.4263V8.48379C4.50049 7.60013 5.21683 6.88379 6.10049 6.88379H7.56928ZM11.3994 8.08379H6.10049C5.87957 8.08379 5.70049 8.26288 5.70049 8.48379V10.4263C5.70049 10.6472 5.87957 10.8263 6.10049 10.8263H11.3994V8.08379ZM11.3994 12.0263H6.68633V17.8193C6.68633 18.2611 7.0445 18.6193 7.48633 18.6193H11.3994L11.3994 12.0263ZM12.5994 18.6193L12.5994 12.0263H17.3139V17.8193C17.3139 18.2611 16.9557 18.6193 16.5139 18.6193H12.5994ZM12.5994 10.8263V8.08379H17.8988C18.1197 8.08379 18.2988 8.26288 18.2988 8.48379V10.4263C18.2988 10.6472 18.1197 10.8263 17.8988 10.8263H12.5994ZM12.8046 6.88172H14.5824C14.8002 6.88172 15.0114 6.7937 15.1688 6.63341C15.3266 6.47276 15.4172 6.25261 15.4172 6.02084C15.4172 5.78907 15.3266 5.56892 15.1688 5.40827C15.0114 5.24798 14.8002 5.15996 14.5824 5.15996C13.9172 5.15996 13.4277 5.63589 13.0657 6.306C12.9598 6.50207 12.8735 6.70024 12.8046 6.88172Z" fill="#333333"/>
</svg>
