<svg width="24" height="24" viewBox="0 0 24 24" fill="none" xmlns="http://www.w3.org/2000/svg">
<path fill-rule="evenodd" clip-rule="evenodd" d="M12.526 9.47435C12.4206 9.28239 12.219 9.16309 12 9.16309C11.781 9.16309 11.5794 9.28239 11.474 9.47435L10.5157 11.2201L8.55922 11.5921C8.34409 11.633 8.16834 11.7879 8.10067 11.9961C8.033 12.2044 8.08417 12.433 8.23416 12.5925L9.5983 14.0434L9.34753 16.0191C9.31995 16.2363 9.41292 16.4513 9.59008 16.5801C9.76724 16.7088 10.0005 16.7307 10.1985 16.6374L12 15.7884L13.8015 16.6374C13.9995 16.7307 14.2328 16.7088 14.4099 16.5801C14.5871 16.4513 14.68 16.2363 14.6525 16.0191L14.4017 14.0434L15.7658 12.5925C15.9158 12.433 15.967 12.2044 15.8993 11.9961C15.8317 11.7879 15.6559 11.633 15.4408 11.5921L13.4843 11.2201L12.526 9.47435ZM11.4315 12.0454L12 11.0099L12.5685 12.0454C12.6547 12.2024 12.8065 12.3127 12.9824 12.3461L14.1429 12.5668L13.3337 13.4275C13.2111 13.558 13.1531 13.7364 13.1756 13.914L13.3244 15.086L12.2558 14.5823C12.0938 14.506 11.9062 14.506 11.7442 14.5823L10.6756 15.086L10.8244 13.914C10.8469 13.7364 10.7889 13.558 10.6663 13.4275L9.85708 12.5668L11.0176 12.3461C11.1935 12.3127 11.3453 12.2024 11.4315 12.0454Z" fill="#333333"/>
<path fill-rule="evenodd" clip-rule="evenodd" d="M13.1376 4.47765C12.5235 3.8512 11.4769 3.8512 10.8628 4.47765L4.42003 11.0496C3.95528 11.5236 3.89971 12.1652 4.1463 12.6735C4.38954 13.1749 4.91434 13.5311 5.55745 13.5311H5.85133V19.0347C5.85133 19.5704 6.28558 20.0047 6.82126 20.0047H17.1963C17.732 20.0047 18.1663 19.5704 18.1663 19.0347V13.5311H18.4429C19.086 13.5311 19.6108 13.1749 19.8541 12.6735C20.1007 12.1652 20.0451 11.5236 19.5804 11.0496L13.1376 4.47765ZM11.7197 5.31772C11.8633 5.17118 12.1371 5.17118 12.2807 5.31772L18.7235 11.8896C18.7751 11.9424 18.7916 11.9885 18.7967 12.0227C18.8021 12.0601 18.7966 12.104 18.7744 12.1498C18.7315 12.2382 18.6256 12.3311 18.4429 12.3311H17.5663C17.2349 12.3311 16.9663 12.5997 16.9663 12.9311V18.8047H7.05133V12.9311C7.05133 12.5997 6.78271 12.3311 6.45133 12.3311H5.55745C5.37477 12.3311 5.26887 12.2382 5.22597 12.1498C5.20379 12.104 5.19826 12.0601 5.20374 12.0227C5.20875 11.9885 5.22526 11.9424 5.27694 11.8896L11.7197 5.31772Z" fill="#333333"/>
</svg>
