<svg width="24" height="24" viewBox="0 0 24 24" fill="none" xmlns="http://www.w3.org/2000/svg">
<path fill-rule="evenodd" clip-rule="evenodd" d="M7.71209 3.07559C7.99463 2.31204 9.07457 2.31205 9.35711 3.07559L9.98546 4.77368C10.0462 4.93792 10.1757 5.0674 10.3399 5.12817L12.038 5.75653C12.8016 6.03906 12.8016 7.11901 12.038 7.40154L10.3399 8.02989C10.1757 8.09066 10.0462 8.22015 9.98546 8.38438L9.35711 10.0825C9.07457 10.846 7.99463 10.846 7.71209 10.0825L7.08374 8.38438C7.02297 8.22015 6.89348 8.09066 6.72925 8.02989L5.03115 7.40154C4.26761 7.119 4.26761 6.03906 5.03115 5.75653L6.72925 5.12817C6.89348 5.0674 7.02297 4.93792 7.08374 4.77368L7.71209 3.07559ZM8.5346 4.31064L8.20916 5.19013C8.02685 5.68282 7.63839 6.07128 7.14569 6.2536L6.26621 6.57903L7.14569 6.90447C7.63839 7.08679 8.02685 7.47524 8.20916 7.96794L8.5346 8.84742L8.86004 7.96794C9.04235 7.47524 9.43081 7.08679 9.92351 6.90447L10.803 6.57903L9.92351 6.2536C9.43081 6.07128 9.04235 5.68282 8.86004 5.19013L8.5346 4.31064Z" fill="#909090"/>
<path fill-rule="evenodd" clip-rule="evenodd" d="M18.9035 14.1781C18.621 13.4146 17.541 13.4146 17.2585 14.1781L17.0504 14.7404C16.9897 14.9046 16.8602 15.0341 16.6959 15.0949L16.1337 15.3029C15.3701 15.5854 15.3701 16.6654 16.1337 16.9479L16.6959 17.156C16.8602 17.2167 16.9897 17.3462 17.0504 17.5105L17.2585 18.0727C17.541 18.8363 18.621 18.8363 18.9035 18.0727L19.1115 17.5105C19.1723 17.3462 19.3018 17.2167 19.466 17.156L20.0283 16.9479C20.7918 16.6654 20.7918 15.5854 20.0283 15.3029L19.466 15.0949C19.3018 15.0341 19.1723 14.9046 19.1115 14.7404L18.9035 14.1781ZM17.3253 16.1254C17.6478 15.9559 17.9115 15.6922 18.081 15.3697C18.2505 15.6922 18.5142 15.9559 18.8367 16.1254C18.5142 16.2949 18.2505 16.5586 18.081 16.8811C17.9115 16.5586 17.6478 16.2949 17.3253 16.1254Z" fill="#909090"/>
<path fill-rule="evenodd" clip-rule="evenodd" d="M18.238 5.6941C17.6913 5.14737 16.8049 5.14736 16.2581 5.69409L5.54561 16.4065C4.99887 16.9533 4.99887 17.8397 5.5456 18.3864L6.6009 19.4417C7.14763 19.9885 8.03405 19.9885 8.58079 19.4417L19.2933 8.72929C19.8401 8.18256 19.8401 7.29613 19.2933 6.74939L18.238 5.6941ZM14.6585 8.99079L6.39413 17.2551C6.31603 17.3332 6.31603 17.4598 6.39413 17.5379L7.44942 18.5932C7.52753 18.6713 7.65416 18.6713 7.73227 18.5932L15.9966 10.3289L14.6585 8.99079ZM16.8451 9.4804L18.4448 7.88076C18.5229 7.80266 18.5229 7.67602 18.4448 7.59792L17.3895 6.54263C17.3114 6.46452 17.1848 6.46452 17.1067 6.54263L15.507 8.14227L16.8451 9.4804Z" fill="#909090"/>
</svg>
