<svg width="24" height="24" viewBox="0 0 24 24" fill="none" xmlns="http://www.w3.org/2000/svg">
<path fill-rule="evenodd" clip-rule="evenodd" d="M19.3412 5.37445C19.6031 5.0901 19.5849 4.64725 19.3005 4.38533C19.0162 4.12341 18.5733 4.1416 18.3114 4.42595L15.6374 7.329C15.6033 7.36595 15.574 7.40557 15.5494 7.44713L8.93569 7.49717C8.96898 7.32758 8.98643 7.1523 8.98643 6.97295C8.98643 5.47827 7.77475 4.2666 6.28008 4.2666C4.7854 4.2666 3.57373 5.47827 3.57373 6.97295C3.57373 7.77997 3.92696 8.50448 4.48724 9.00032L4.5095 9.03533C4.53459 9.0748 4.56357 9.11166 4.59601 9.14535L5.99129 10.5944L5.99347 10.5967L7.81304 12.5036L11.3041 16.0242C11.3016 16.0483 11.3003 16.0727 11.3003 16.0975V18.5635H8.28701C7.90041 18.5635 7.58701 18.8769 7.58701 19.2635C7.58701 19.6501 7.90041 19.9635 8.28701 19.9635H11.9229C11.9483 19.9663 11.9741 19.9677 12.0003 19.9677C12.0264 19.9677 12.0523 19.9663 12.0777 19.9635H15.7123C16.0989 19.9635 16.4123 19.6501 16.4123 19.2635C16.4123 18.8769 16.0989 18.5635 15.7123 18.5635H12.7003V16.0975C12.7003 16.0575 12.6969 16.0183 12.6905 15.9802L19.7813 8.60406C19.9764 8.40107 20.0309 8.10091 19.9196 7.84227C19.8083 7.58362 19.5529 7.41684 19.2713 7.41897L17.4452 7.43278L19.3412 5.37445ZM7.47207 7.50825L7.00534 7.51178H5.08968C5.0152 7.3475 4.97373 7.16507 4.97373 6.97295C4.97373 6.25147 5.5586 5.6666 6.28008 5.6666C7.00155 5.6666 7.58643 6.25147 7.58643 6.97295C7.58643 7.16369 7.54555 7.34488 7.47207 7.50825ZM6.96854 9.59095L7.00197 9.62567L7.00415 9.62794L8.81202 11.5225L11.971 14.7085L17.6207 8.8315L8.17727 8.90297C7.84611 9.22854 7.43153 9.46953 6.96854 9.59095Z" fill="#828B95"/>
</svg>
