<svg width="24" height="24" viewBox="0 0 24 24" fill="none" xmlns="http://www.w3.org/2000/svg">
<path d="M6.12451 6.32871C6.12451 5.00323 7.19903 3.92871 8.52451 3.92871H15.4756C16.8011 3.92871 17.8756 5.00323 17.8756 6.32871V9.19935C17.8756 9.53072 17.607 9.79935 17.2756 9.79935C16.9443 9.79935 16.6756 9.53072 16.6756 9.19935V6.32871C16.6756 5.66597 16.1384 5.12871 15.4756 5.12871H8.52451C7.86177 5.12871 7.32451 5.66597 7.32451 6.32871V17.6701C7.32451 18.3329 7.86177 18.8701 8.52451 18.8701H15.8922C16.2235 18.8701 16.4922 19.1387 16.4922 19.4701C16.4922 19.8015 16.2235 20.0701 15.8922 20.0701H8.52451C7.19903 20.0701 6.12451 18.9956 6.12451 17.6701V6.32871Z" fill="#828B95"/>
<path d="M9.5459 6.49941C9.5459 6.16804 9.81453 5.89941 10.1459 5.89941H13.8549C14.1863 5.89941 14.4549 6.16804 14.4549 6.49941C14.4549 6.83079 14.1863 7.09941 13.8549 7.09941H10.1459C9.81453 7.09941 9.5459 6.83079 9.5459 6.49941Z" fill="#828B95"/>
<path fill-rule="evenodd" clip-rule="evenodd" d="M14.3566 9.45449C14.0741 8.69095 12.9941 8.69095 12.7116 9.45449L12.0833 11.1526C12.0225 11.3168 11.893 11.4463 11.7288 11.5071L10.0307 12.1354C9.26712 12.418 9.26712 13.4979 10.0307 13.7804L11.7288 14.4088C11.893 14.4696 12.0225 14.5991 12.0833 14.7633L12.7116 16.4614C12.9941 17.2249 14.0741 17.2249 14.3566 16.4614L14.985 14.7633C15.0457 14.5991 15.1752 14.4696 15.3395 14.4088L17.0376 13.7804C17.8011 13.4979 17.8011 12.418 17.0376 12.1354L15.3395 11.5071C15.1752 11.4463 15.0457 11.3168 14.985 11.1526L14.3566 9.45449ZM13.2087 11.569L13.5341 10.6896L13.8595 11.569C14.0419 12.0617 14.4303 12.4502 14.923 12.6325L15.8025 12.9579L14.923 13.2834C14.4303 13.4657 14.0419 13.8542 13.8595 14.3468L13.5341 15.2263L13.2087 14.3468C13.0264 13.8542 12.6379 13.4657 12.1452 13.2834L11.2657 12.9579L12.1452 12.6325C12.6379 12.4502 13.0264 12.0617 13.2087 11.569Z" fill="#828B95"/>
<path d="M18.5423 15.4494C18.349 14.927 17.6102 14.927 17.4169 15.4494L17.2137 15.9984L16.6647 16.2015C16.1424 16.3948 16.1424 17.1337 16.6647 17.3269L17.2137 17.5301L17.4169 18.0791C17.6102 18.6015 18.349 18.6015 18.5423 18.0791L18.7454 17.5301L19.2944 17.3269C19.8168 17.1337 19.8168 16.3948 19.2944 16.2015L18.7454 15.9984L18.5423 15.4494Z" fill="#828B95"/>
</svg>
