<svg width="24" height="24" viewBox="0 0 24 24" fill="none" xmlns="http://www.w3.org/2000/svg">
<path d="M6 6.32871C6 5.00323 7.07452 3.92871 8.4 3.92871H14.9851C16.3105 3.92871 17.3851 5.00323 17.3851 6.32871V7.15325C17.3851 7.48462 17.1164 7.75325 16.7851 7.75325C16.4537 7.75325 16.1851 7.48462 16.1851 7.15325V6.32871C16.1851 5.66597 15.6478 5.12871 14.9851 5.12871H8.4C7.73726 5.12871 7.2 5.66597 7.2 6.32871V17.6701C7.2 18.3329 7.73726 18.8701 8.4 18.8701H14.3676C14.699 18.8701 14.9676 19.1387 14.9676 19.4701C14.9676 19.8015 14.699 20.0701 14.3676 20.0701H8.4C7.07452 20.0701 6 18.9956 6 17.6701V6.32871Z" fill="#828B95"/>
<path d="M9.13818 6.4998C9.13818 6.11321 9.45158 5.7998 9.83818 5.7998H13.5472C13.9338 5.7998 14.2472 6.11321 14.2472 6.4998C14.2472 6.8864 13.9338 7.1998 13.5472 7.1998H9.83818C9.45158 7.1998 9.13818 6.8864 9.13818 6.4998Z" fill="#828B95"/>
<path fill-rule="evenodd" clip-rule="evenodd" d="M11.6089 11.682C11.3389 11.412 10.9614 11.3093 10.6152 11.3882C10.256 11.4699 9.94275 11.7482 9.85877 12.1686C9.59446 13.4919 9.99217 14.9316 11.0313 15.9708C12.1523 17.0918 13.7398 17.4666 15.1449 17.0682L16.7457 18.669C17.5225 19.4459 18.782 19.4459 19.5588 18.669C20.3356 17.8922 20.3356 16.6327 19.5588 15.8559L17.9181 14.2152C18.2674 12.8378 17.8836 11.3029 16.7914 10.2107C15.7916 9.21093 14.4211 8.80498 13.1403 9.01094C12.7096 9.08021 12.4175 9.39127 12.3281 9.75524C12.2421 10.1055 12.3433 10.4906 12.618 10.7653L13.6619 11.8093C13.9278 12.0752 13.9278 12.5063 13.6619 12.7722C13.396 13.0381 12.9649 13.0381 12.6991 12.7722L11.6089 11.682ZM11.8799 15.1222C11.222 14.4644 10.9258 13.5921 10.9874 12.7575L11.8505 13.6207C12.585 14.3552 13.7759 14.3552 14.5105 13.6207C15.245 12.8862 15.245 11.6953 14.5105 10.9607L13.7098 10.1601C14.5037 10.1373 15.3196 10.436 15.9428 11.0593C16.7362 11.8526 17.0034 12.9577 16.7519 13.9321C16.6583 14.2945 16.7313 14.7255 17.0395 15.0337L18.7103 16.7044C19.0185 17.0126 19.0185 17.5123 18.7103 17.8205C18.4021 18.1287 17.9024 18.1287 17.5942 17.8205L15.9626 16.1889C15.6451 15.8714 15.1988 15.8039 14.8292 15.9104C13.8367 16.1964 12.6942 15.9366 11.8799 15.1222Z" fill="#828B95"/>
</svg>
