<svg width="24" height="24" viewBox="0 0 24 24" fill="none" xmlns="http://www.w3.org/2000/svg">
<path d="M9.95846 16.1674C10.295 16.3769 10.7467 16.5624 11.3334 16.6276L11.3335 17.1127C11.3335 17.4441 11.6022 17.7127 11.9336 17.7126C12.2649 17.7125 12.5335 17.4439 12.5335 17.1125L12.5334 16.605C13.0303 16.5378 13.5055 16.3929 13.8962 16.1325C14.5292 15.7106 14.8716 15.0292 14.7828 14.1439C14.7114 13.4318 14.2669 13.0032 13.7817 12.7421C13.3665 12.5187 12.8547 12.3819 12.4246 12.267L12.3122 12.2369C11.8156 12.1031 11.4331 11.987 11.1673 11.8161C10.9461 11.6739 10.8425 11.5217 10.8385 11.2552C10.8337 10.9383 10.9228 10.7615 11.0605 10.6467C11.2206 10.5131 11.5515 10.3752 12.2026 10.3752C12.6291 10.3752 13.0788 10.5364 13.3659 10.7327C13.6394 10.9197 14.0128 10.8496 14.1998 10.576C14.3869 10.3025 14.3167 9.9291 14.0432 9.74207C13.6484 9.47215 13.1043 9.25626 12.5338 9.19365V8.64883C12.5338 8.31746 12.2651 8.04883 11.9338 8.04883C11.6024 8.04883 11.3338 8.31746 11.3338 8.64883V9.25495C10.9255 9.33832 10.5736 9.4902 10.292 9.72508C9.80377 10.1322 9.62991 10.7 9.6386 11.2734C9.64983 12.014 10.0248 12.5083 10.5184 12.8256C10.9675 13.1142 11.5362 13.2706 12.0001 13.3956L12.0714 13.4148C12.5474 13.5428 12.9271 13.645 13.2131 13.7989C13.4801 13.9425 13.5702 14.0782 13.5888 14.2636C13.6351 14.7254 13.4791 14.9684 13.2307 15.134C12.9321 15.3329 12.4384 15.4523 11.7914 15.4523C11.209 15.4523 10.8292 15.2959 10.5925 15.1486C10.3968 15.0268 10.2973 14.9168 10.2162 14.8271C10.1941 14.8027 10.1734 14.7798 10.1524 14.7585C9.91988 14.5225 9.53999 14.5197 9.30394 14.7522C9.0689 14.9838 9.06511 15.3615 9.2947 15.5977L9.30399 15.608L9.31104 15.6159L9.34356 15.6521C9.37746 15.6896 9.42304 15.7385 9.48003 15.7938C9.59426 15.9047 9.75142 16.0386 9.95846 16.1674Z" fill="#828B95"/>
<path fill-rule="evenodd" clip-rule="evenodd" d="M8.70428 2.83203C8.52945 2.83203 8.36332 2.90829 8.24933 3.04085C8.13535 3.17342 8.08486 3.3491 8.11106 3.52196C8.24608 4.41263 8.75527 5.20525 9.37548 5.80552C8.06961 6.68613 6.83548 7.63957 5.89777 8.87319C4.81246 10.301 4.14739 12.071 4.14697 14.4699C4.14646 17.4577 6.82084 20.8113 11.9824 20.8105C17.1579 20.8098 19.8521 17.1612 19.8523 14.4701C19.8526 12.1855 19.1838 10.4337 18.0712 8.98846C17.105 7.73342 15.8192 6.72988 14.4107 5.80689C15.0316 5.26793 15.5541 4.52575 15.6808 3.50605C15.702 3.33533 15.649 3.16372 15.5351 3.0348C15.4212 2.90587 15.2574 2.83203 15.0854 2.83203H8.70428ZM13.0059 5.34029C13.563 5.01216 14.0388 4.59219 14.2984 4.03203H9.52525C9.7793 4.53594 10.2046 5.00032 10.6897 5.34029L13.0059 5.34029ZM5.34697 14.4701C5.34658 16.7077 7.39279 19.6112 11.9822 19.6105C16.5577 19.6099 18.6521 16.4376 18.6523 14.4699C18.6525 12.4479 18.0699 10.9539 17.1203 9.72047C16.1858 8.50646 14.8774 7.52012 13.3336 6.54029L10.4371 6.54029C9.00125 7.48601 7.75629 8.41116 6.85311 9.59936C5.9347 10.8076 5.34735 12.3195 5.34697 14.4701Z" fill="#828B95"/>
</svg>
