<svg width="24" height="24" viewBox="0 0 24 24" fill="none" xmlns="http://www.w3.org/2000/svg">
<path d="M8.13457 17.9006C7.72319 17.9006 7.41197 18.2832 7.60902 18.6444C8.05 19.4525 8.90741 20.0008 9.89289 20.0008H17.2112C18.6472 20.0008 19.8112 18.8367 19.8112 17.4008V10.0824C19.8112 9.09903 19.2653 8.24314 18.4599 7.80135C18.0986 7.60314 17.715 7.91461 17.715 8.32671C17.715 8.5973 17.8922 8.82938 18.101 9.00146C18.4126 9.25824 18.6112 9.64713 18.6112 10.0824V17.4008C18.6112 18.174 17.9844 18.8008 17.2112 18.8008H9.89289C9.45649 18.8008 9.06673 18.6011 8.80998 18.2882C8.63803 18.0786 8.40568 17.9006 8.13457 17.9006Z" fill="#828B95"/>
<path fill-rule="evenodd" clip-rule="evenodd" d="M6.64102 16.6385C5.20508 16.6385 4.04102 15.4744 4.04102 14.0385V6.72012C4.04102 5.28418 5.20508 4.12012 6.64102 4.12012H13.9594C15.3953 4.12012 16.5594 5.28418 16.5594 6.72012V14.0385C16.5594 15.4744 15.3953 16.6385 13.9594 16.6385H6.64102ZM5.24102 14.0385C5.24102 14.8117 5.86782 15.4385 6.64102 15.4385H13.9594C14.7326 15.4385 15.3594 14.8117 15.3594 14.0385V6.72012C15.3594 5.94692 14.7326 5.32012 13.9594 5.32012H6.64102C5.86782 5.32012 5.24102 5.94692 5.24102 6.72012V14.0385Z" fill="#828B95"/>
</svg>
