<svg width="24" height="24" viewBox="0 0 24 24" fill="none" xmlns="http://www.w3.org/2000/svg">
<path d="M7.65527 9.91855C7.65527 9.55957 7.94629 9.26855 8.30527 9.26855H14.2989C14.6579 9.26855 14.9489 9.55957 14.9489 9.91855C14.9489 10.2775 14.6579 10.5686 14.2989 10.5686H8.30527C7.94629 10.5686 7.65527 10.2775 7.65527 9.91855Z" fill="#333333"/>
<path d="M8.30527 12.5137C7.94629 12.5137 7.65527 12.8047 7.65527 13.1637C7.65527 13.5227 7.94629 13.8137 8.30527 13.8137H12.9972C13.3562 13.8137 13.6472 13.5227 13.6472 13.1637C13.6472 12.8047 13.3562 12.5137 12.9972 12.5137H8.30527Z" fill="#333333"/>
<path fill-rule="evenodd" clip-rule="evenodd" d="M7 5.00001C5.89543 5.00001 5 5.89544 5 7.00001V17C5 18.1046 5.89543 19 7 19H17C18.1046 19 19 18.1046 19 17V10.4308C19 9.76429 18.7338 9.12537 18.2607 8.65597L15.3063 5.72517C14.838 5.26065 14.2052 5 13.5456 5L7 5.00001ZM7 17.8H17C17.4418 17.8 17.8 17.4418 17.8 17V10.4308C17.8 10.0842 17.6616 9.75198 17.4155 9.50789L14.4612 6.57709C14.2177 6.33554 13.8886 6.2 13.5456 6.2L7 6.20001C6.55817 6.20001 6.2 6.55818 6.2 7.00001V17C6.2 17.4418 6.55817 17.8 7 17.8Z" fill="#333333"/>
</svg>
