<svg width="24" height="24" viewBox="0 0 24 24" fill="none" xmlns="http://www.w3.org/2000/svg">
<path fill-rule="evenodd" clip-rule="evenodd" d="M11.3225 5.34255C11.0326 5.43864 10.8166 5.5541 10.7142 5.62948C9.80843 6.29625 9.38078 7.71724 9.68747 9.11444C9.9845 10.4676 10.8482 11.3382 12.0818 11.3382C12.8607 11.3382 13.4379 11.0042 13.8571 10.4663C14.2981 9.90072 14.5674 9.09369 14.5878 8.24037C14.6083 7.386 14.3772 6.60245 13.9648 6.06237C13.5806 5.55917 12.994 5.2 12.0818 5.2C11.8818 5.2 11.6085 5.24774 11.3225 5.34255ZM10.0028 4.66308C7.20957 6.71928 8.13658 12.5382 12.0818 12.5382C16.8182 12.5382 17.2272 4 12.0818 4C11.3582 4 10.4667 4.32165 10.0028 4.66308ZM11.3259 14.0071C11.3676 14.3358 11.1348 14.6361 10.8061 14.6777C9.1125 14.8922 8.01608 15.5308 7.32149 16.3124C6.65679 17.0604 6.32149 17.9831 6.22211 18.9009H10.7833C11.1147 18.9009 11.3833 19.1695 11.3833 19.5009C11.3833 19.8322 11.1147 20.1009 10.7833 20.1009H6.0899C5.49683 20.1009 4.95881 19.6102 5.01193 18.9531C5.10643 17.7844 5.51603 16.5375 6.42451 15.5153C7.33908 14.4861 8.71671 13.7328 10.6553 13.4872C10.9841 13.4456 11.2843 13.6784 11.3259 14.0071ZM15.2604 12.9464C16.1824 12.515 17.2231 12.4075 18.2138 12.6414C19.0383 12.836 19.8897 13.2682 20.5389 13.998C21.1955 14.7363 21.6169 15.7483 21.6169 17.0395C21.6169 18.0187 20.8008 18.9063 19.7069 18.9063C19.1272 18.9063 18.7003 18.6952 18.4168 18.4702C18.0827 18.7556 17.6493 18.928 17.1753 18.928C16.1171 18.928 15.2612 18.0688 15.2612 17.0114C15.2612 15.954 16.1171 15.0947 17.1753 15.0947C18.2335 15.0947 19.0893 15.954 19.0893 17.0114C19.0893 17.1501 19.0746 17.2854 19.0466 17.4157C19.0701 17.4449 19.1066 17.4848 19.1567 17.5254C19.2618 17.6106 19.434 17.7063 19.7069 17.7063C20.1274 17.7063 20.4169 17.3667 20.4169 17.0395C20.4169 16.0265 20.0932 15.3026 19.6422 14.7955C19.1837 14.28 18.5646 13.9572 17.9381 13.8093C17.2105 13.6375 16.4462 13.7165 15.769 14.0333C15.0918 14.3502 14.5415 14.8864 14.2071 15.5551C13.8728 16.2238 13.774 16.9859 13.9268 17.7177C14.0796 18.4496 14.4751 19.1084 15.0491 19.5875C15.6231 20.0665 16.342 20.3377 17.0894 20.3571C17.5624 20.3694 18.0293 20.2804 18.4601 20.0996C18.7656 19.9714 19.1173 20.1151 19.2455 20.4207C19.3737 20.7262 19.23 21.0779 18.9245 21.2061C18.3381 21.4522 17.7023 21.5735 17.0582 21.5567C16.0406 21.5303 15.0617 21.161 14.2802 20.5088C13.4986 19.8565 12.9602 18.9595 12.7521 17.963C12.5441 16.9665 12.6786 15.929 13.1338 15.0185C13.5891 14.108 14.3384 13.3779 15.2604 12.9464ZM17.1753 16.2947C16.782 16.2947 16.4612 16.6145 16.4612 17.0114C16.4612 17.4083 16.782 17.728 17.1753 17.728C17.5685 17.728 17.8893 17.4083 17.8893 17.0114C17.8893 16.6145 17.5685 16.2947 17.1753 16.2947Z" fill="#333333"/>
</svg>
