<svg width="24" height="24" viewBox="0 0 24 24" fill="none" xmlns="http://www.w3.org/2000/svg">
<path d="M15.1126 9.97245H19.0258C19.3572 9.97245 19.6258 10.2411 19.6258 10.5724C19.6258 10.9038 19.3572 11.1724 19.0258 11.1724H13.6642C13.3328 11.1724 13.0642 10.9038 13.0642 10.5724V5.21077C13.0642 4.8794 13.3328 4.61077 13.6642 4.61077C13.9955 4.61077 14.2642 4.8794 14.2642 5.21077V9.12381L19.3168 4.07124C19.5511 3.83693 19.931 3.83693 20.1653 4.07124C20.3996 4.30556 20.3996 4.68546 20.1653 4.91977L15.1126 9.97245Z" fill="#333333"/>
<path fill-rule="evenodd" clip-rule="evenodd" d="M8.08766 16.355L7.93308 16.2004C7.92332 16.1906 7.91396 16.1806 7.90501 16.1704C5.04479 13.2481 4.07167 10.7456 4.10945 8.71281C4.14799 6.6394 5.23567 5.19419 6.14675 4.42732C6.69015 3.96993 7.42172 4.02073 7.9318 4.37121C8.02179 4.43304 8.0904 4.50134 8.13572 4.54957C8.77883 5.23396 9.26993 5.78771 9.65673 6.22409C10.0502 6.66796 10.3177 6.9694 10.5331 7.17661C10.5836 7.22519 10.6779 7.31741 10.7535 7.44596C10.9979 7.86117 11.0257 8.39302 10.7486 8.84159C10.4836 9.27065 10.0049 9.889 9.20717 10.4604C9.18512 10.4762 9.16783 10.4897 9.15419 10.5015C9.1459 10.5086 9.13968 10.5144 9.13515 10.519C9.11168 10.6281 9.11335 10.7983 9.17254 11.0383C9.23509 11.2919 9.35156 11.5817 9.51047 11.8862C9.82956 12.4977 10.2845 13.1017 10.682 13.4992L10.7889 13.606C11.1864 14.0035 11.7904 14.4585 12.4018 14.7776C12.7064 14.9365 12.9962 15.053 13.2497 15.1155C13.4898 15.1747 13.6599 15.1764 13.769 15.1529C13.7736 15.1484 13.7795 15.1422 13.7866 15.1339C13.7983 15.1202 13.8118 15.1029 13.8276 15.0809C14.399 14.2832 15.0174 13.8045 15.4465 13.5394C15.9466 13.2305 16.5443 13.3014 16.9744 13.6225C16.9922 13.6359 17.0094 13.6502 17.0257 13.6655C17.6284 14.2305 18.4548 15.0083 19.8396 16.3202C19.8598 16.3393 19.8787 16.3599 19.8961 16.3817C20.3065 16.8965 20.3934 17.6812 19.9077 18.2582C19.1337 19.1779 17.6716 20.2313 15.5893 20.2372C13.5499 20.2429 11.0394 19.2435 8.11747 16.3829C8.1073 16.374 8.09736 16.3647 8.08766 16.355ZM8.85931 15.4292C11.6898 18.2336 13.9482 19.0418 15.5859 19.0372C17.2385 19.0325 18.3883 18.2 18.9897 17.4855C19.0437 17.4213 19.0699 17.2919 18.9776 17.1565C17.64 15.8894 16.8294 15.1264 16.2366 14.5706C16.205 14.5513 16.1755 14.5434 16.1522 14.5417C16.1258 14.5399 16.1015 14.5453 16.0771 14.5604C15.7589 14.7569 15.2668 15.1325 14.8032 15.7797C14.694 15.932 14.4779 16.2026 14.1152 16.303C13.7342 16.4085 13.3295 16.3711 12.9624 16.2806C12.589 16.1885 12.2075 16.0297 11.8467 15.8414C11.1274 15.4661 10.4244 14.9386 9.94034 14.4545L9.8335 14.3477C9.34946 13.8637 8.82199 13.1607 8.44662 12.4414C8.25831 12.0805 8.09954 11.6991 8.00745 11.3256C7.91692 10.9586 7.87953 10.5539 7.98501 10.1729C8.08544 9.81014 8.35602 9.59402 8.50836 9.48489C9.1556 9.02126 9.53113 8.52914 9.72768 8.21096C9.74151 8.18856 9.74691 8.1668 9.74667 8.14412C9.74644 8.12266 9.74089 8.09546 9.72533 8.06547L9.7209 8.06085C9.71602 8.05585 9.70981 8.04971 9.70129 8.04152C9.4489 7.79878 9.15191 7.46369 8.7849 7.04961L8.75871 7.02006C8.37297 6.58487 7.89162 6.04216 7.26123 5.37132C7.25398 5.36361 7.24929 5.35898 7.24656 5.35641C7.10963 5.26535 6.9841 5.29102 6.91951 5.34538C6.19644 5.954 5.33969 7.09714 5.30925 8.73512C5.27911 10.3563 6.05592 12.5996 8.85931 15.4292Z" fill="#333333"/>
</svg>
