<svg width="24" height="24" viewBox="0 0 24 24" fill="none" xmlns="http://www.w3.org/2000/svg">
<path fill-rule="evenodd" clip-rule="evenodd" d="M8.08766 16.3544L7.93308 16.1998C7.92332 16.19 7.91396 16.18 7.90501 16.1698C5.04479 13.2475 4.07167 10.745 4.10945 8.71221C4.14799 6.6388 5.23567 5.19359 6.14675 4.42671C6.69015 3.96932 7.42172 4.02012 7.9318 4.3706C8.02179 4.43243 8.0904 4.50074 8.13572 4.54897C8.77883 5.23335 9.26993 5.78711 9.65673 6.22349C10.0502 6.66736 10.3177 6.96879 10.5331 7.17601C10.5836 7.22459 10.6779 7.31681 10.7535 7.44535C10.9979 7.86056 11.0257 8.39242 10.7486 8.84098C10.4836 9.27005 10.0049 9.8884 9.20717 10.4598C9.18512 10.4756 9.16783 10.4891 9.15419 10.5009C9.1459 10.508 9.13968 10.5138 9.13515 10.5184C9.11168 10.6275 9.11335 10.7977 9.17254 11.0377C9.23509 11.2913 9.35156 11.5811 9.51047 11.8856C9.82956 12.4971 10.2845 13.1011 10.682 13.4986L10.7889 13.6054C11.1864 14.0029 11.7904 14.4579 12.4018 14.777C12.7064 14.9359 12.9962 15.0524 13.2497 15.1149C13.4898 15.1741 13.6599 15.1758 13.769 15.1523C13.7736 15.1478 13.7795 15.1416 13.7866 15.1333C13.7983 15.1196 13.8118 15.1023 13.8276 15.0803C14.399 14.2826 15.0174 13.8039 15.4465 13.5388C15.9466 13.2299 16.5443 13.3008 16.9744 13.6219C16.9922 13.6353 17.0094 13.6496 17.0257 13.6649C17.6284 14.2299 18.4548 15.0076 19.8396 16.3196C19.8598 16.3387 19.8787 16.3593 19.8961 16.3811C20.3065 16.8959 20.3934 17.6806 19.9077 18.2576C19.1337 19.1773 17.6716 20.2307 15.5893 20.2366C13.5499 20.2423 11.0394 19.2429 8.11747 16.3822C8.1073 16.3734 8.09736 16.3641 8.08766 16.3544ZM8.85931 15.4286C11.6898 18.233 13.9482 19.0412 15.5859 19.0366C17.2385 19.0319 18.3883 18.1994 18.9897 17.4849C19.0437 17.4207 19.0699 17.2913 18.9776 17.1559C17.64 15.8888 16.8294 15.1258 16.2366 14.57C16.205 14.5507 16.1755 14.5428 16.1522 14.5411C16.1258 14.5393 16.1015 14.5447 16.0771 14.5598C15.7589 14.7563 15.2668 15.1318 14.8032 15.7791C14.694 15.9314 14.4779 16.202 14.1152 16.3024C13.7342 16.4079 13.3295 16.3705 12.9624 16.28C12.589 16.1879 12.2075 16.0291 11.8467 15.8408C11.1274 15.4655 10.4244 14.938 9.94034 14.4539L9.8335 14.3471C9.34946 13.8631 8.82199 13.1601 8.44662 12.4408C8.25831 12.0799 8.09954 11.6984 8.00745 11.325C7.91692 10.958 7.87953 10.5532 7.98501 10.1723C8.08544 9.80954 8.35602 9.59342 8.50836 9.48429C9.1556 9.02066 9.53113 8.52854 9.72768 8.21035C9.74151 8.18796 9.74691 8.16619 9.74667 8.14352C9.74644 8.12206 9.74089 8.09485 9.72533 8.06486L9.7209 8.06024C9.71602 8.05524 9.70981 8.0491 9.70129 8.04092C9.4489 7.79818 9.15191 7.46309 8.7849 7.04901L8.75871 7.01946C8.37297 6.58426 7.89162 6.04156 7.26123 5.37072C7.25398 5.363 7.24929 5.35837 7.24656 5.3558C7.10963 5.26474 6.9841 5.29041 6.91951 5.34478C6.19644 5.9534 5.33969 7.09653 5.30925 8.73451C5.27911 10.3557 6.05592 12.5989 8.85931 15.4286Z" fill="#333333"/>
<path d="M13.3605 10.9481C13.1261 10.7138 13.1261 10.3339 13.3605 10.0996L15.1028 8.35724L13.3605 6.6149C13.1262 6.38058 13.1262 6.00069 13.3605 5.76637C13.5948 5.53206 13.9747 5.53206 14.209 5.76637L15.9513 7.50871L17.6957 5.76439C17.93 5.53008 18.3099 5.53008 18.5442 5.7644C18.7785 5.99871 18.7785 6.37861 18.5442 6.61292L16.7999 8.35724L18.5442 10.1016C18.7785 10.3359 18.7785 10.7158 18.5442 10.9501C18.3099 11.1844 17.93 11.1844 17.6957 10.9501L15.9513 9.20577L14.209 10.9481C13.9747 11.1824 13.5948 11.1824 13.3605 10.9481Z" fill="#333333"/>
</svg>
