<svg width="24" height="24" viewBox="0 0 24 24" fill="none" xmlns="http://www.w3.org/2000/svg">
<path d="M9.35146 4.51973C9.35146 4.0779 8.99329 3.71973 8.55147 3.71973C8.10964 3.71973 7.75146 4.0779 7.75146 4.51973V5.01465H6.69365C5.20248 5.01465 3.99365 6.22348 3.99365 7.71465V16.2988C3.99365 17.79 5.20248 18.9988 6.69365 18.9988H10.304C10.6353 18.9988 10.904 18.7302 10.904 18.3988C10.904 18.0675 10.6353 17.7988 10.304 17.7988H6.69365C5.86522 17.7988 5.19365 17.1273 5.19365 16.2988V7.71465C5.19365 6.88622 5.86523 6.21465 6.69365 6.21465H7.75147V6.94941C7.75147 7.39124 8.10964 7.74941 8.55147 7.74941C8.99329 7.74941 9.35147 7.39124 9.35147 6.94941V6.21465H14.6318V6.94941C14.6318 7.39124 14.99 7.74941 15.4318 7.74941C15.8737 7.74941 16.2318 7.39124 16.2318 6.94941V6.21465H17.3101C18.1385 6.21465 18.8101 6.88622 18.8101 7.71465V9.1167C18.8101 9.44808 19.0787 9.7167 19.4101 9.7167C19.7414 9.7167 20.0101 9.44808 20.0101 9.1167V7.71465C20.0101 6.22348 18.8012 5.01465 17.3101 5.01465H16.2318V4.51973C16.2318 4.0779 15.8737 3.71973 15.4318 3.71973C14.99 3.71973 14.6318 4.0779 14.6318 4.51973V5.01465H9.35146V4.51973Z" fill="#333333"/>
<path fill-rule="evenodd" clip-rule="evenodd" d="M7.17383 10.1213C7.17383 9.67946 7.532 9.32129 7.97383 9.32129H8.78193C9.22376 9.32129 9.58193 9.67946 9.58193 10.1213V10.9674C9.58193 11.4092 9.22376 11.7674 8.78193 11.7674H7.97383C7.532 11.7674 7.17383 11.4092 7.17383 10.9674V10.1213Z" fill="#333333"/>
<path d="M16.5784 13.0238C16.5784 12.6925 16.3098 12.4238 15.9784 12.4238C15.647 12.4238 15.3784 12.6925 15.3784 13.0238V15.0238C15.3784 15.183 15.4416 15.3356 15.5542 15.4481C15.6667 15.5606 15.8193 15.6238 15.9784 15.6238L17.9784 15.6238C18.3098 15.6238 18.5784 15.3552 18.5784 15.0238C18.5784 14.6924 18.3098 14.4238 17.9784 14.4238L16.5784 14.4238V13.0238Z" fill="#333333"/>
<path fill-rule="evenodd" clip-rule="evenodd" d="M11.478 14.8246C11.478 12.2841 13.5375 10.2246 16.078 10.2246C18.6185 10.2246 20.678 12.2841 20.678 14.8246C20.678 17.3651 18.6185 19.4246 16.078 19.4246C13.5375 19.4246 11.478 17.3651 11.478 14.8246ZM16.078 11.4246C14.2003 11.4246 12.678 12.9468 12.678 14.8246C12.678 16.7024 14.2003 18.2246 16.078 18.2246C17.9558 18.2246 19.478 16.7024 19.478 14.8246C19.478 12.9468 17.9558 11.4246 16.078 11.4246Z" fill="#333333"/>
</svg>
