<svg width="24" height="24" viewBox="0 0 24 24" fill="none" xmlns="http://www.w3.org/2000/svg">
<path fill-rule="evenodd" clip-rule="evenodd" d="M6.15488 5.58301C5.10554 5.58301 4.25488 6.43367 4.25488 7.48301V8.72871C4.25488 9.2316 4.45025 9.68885 4.76924 10.0287C4.45025 10.3686 4.25488 10.8258 4.25488 11.3287V12.5744C4.25488 13.1164 4.48183 13.6054 4.84589 13.9516C4.48183 14.2977 4.25488 14.7867 4.25488 15.3287V16.5744C4.25488 17.6238 5.10554 18.4744 6.15488 18.4744H17.9953C19.0447 18.4744 19.8953 17.6238 19.8953 16.5744V15.3287C19.8953 14.2794 19.0447 13.4287 17.9953 13.4287H12.9257C13.0552 13.1719 13.1281 12.8817 13.1281 12.5744V11.3287C13.1281 11.0815 13.0809 10.8453 12.995 10.6287H16.2816C17.331 10.6287 18.1816 9.77805 18.1816 8.72871V7.48301C18.1816 6.43367 17.331 5.58301 16.2816 5.58301H6.15488ZM11.2281 10.6287H6.15488C5.76828 10.6287 5.45488 10.9421 5.45488 11.3287V12.5744C5.45488 12.961 5.76828 13.2744 6.15488 13.2744H11.2281C11.6147 13.2744 11.9281 12.961 11.9281 12.5744V11.3287C11.9281 10.9421 11.6147 10.6287 11.2281 10.6287ZM16.2816 9.42871C16.6682 9.42871 16.9816 9.11531 16.9816 8.72871V7.48301C16.9816 7.09641 16.6682 6.78301 16.2816 6.78301H6.15488C5.76828 6.78301 5.45488 7.09641 5.45488 7.48301V8.72871C5.45488 9.11531 5.76828 9.42871 6.15488 9.42871H16.2816ZM6.15488 14.6287C5.76828 14.6287 5.45488 14.9421 5.45488 15.3287V16.5744C5.45488 16.961 5.76828 17.2744 6.15488 17.2744H17.9953C18.3819 17.2744 18.6953 16.961 18.6953 16.5744V15.3287C18.6953 14.9421 18.3819 14.6287 17.9953 14.6287H6.15488Z" fill="#909090"/>
</svg>
