<svg width="24" height="24" viewBox="0 0 24 24" fill="none" xmlns="http://www.w3.org/2000/svg">
<path fill-rule="evenodd" clip-rule="evenodd" d="M10.8923 10.5549C10.0409 11.3461 10.0409 12.6939 10.8923 13.4851L16.3107 18.5201C17.3344 19.4712 18.9999 18.7453 18.9999 17.348L18.9999 6.69203C18.9999 5.2947 17.3344 4.56877 16.3107 5.51995L10.8923 10.5549ZM11.7092 12.606C11.3686 12.2896 11.3686 11.7504 11.7092 11.434L17.1276 6.39901C17.3835 6.16122 17.7999 6.3427 17.7999 6.69203L17.7999 17.348C17.7999 17.6973 17.3835 17.8788 17.1276 17.641L11.7092 12.606Z" fill="#333333"/>
<path d="M4.57217 13.4861C3.72073 12.6949 3.72073 11.3471 4.57217 10.5559L9.99058 5.52093C11.0142 4.56975 12.6797 5.29567 12.6797 6.69301V7.03992L11.4797 8.15499L11.4797 6.69301C11.4797 6.34368 11.0633 6.16219 10.8074 6.39999L5.38903 11.4349C5.04845 11.7514 5.04845 12.2905 5.38903 12.607L10.8074 17.642C11.0633 17.8798 11.4797 17.6983 11.4797 17.3489L11.4797 15.887L12.6797 17.002V17.3489C12.6797 18.7463 11.0142 19.4722 9.99058 18.521L4.57217 13.4861Z" fill="#333333"/>
</svg>
