<svg width="24" height="24" viewBox="0 0 24 24" fill="none" xmlns="http://www.w3.org/2000/svg">
<path d="M8.49594 5.02148L7.73737 5.02155C6.24629 5.02168 5.0376 6.23047 5.0376 7.72155V7.82902C5.0376 8.16039 5.30622 8.42902 5.6376 8.42902C5.96897 8.42902 6.2376 8.16039 6.2376 7.82902V7.72155C6.2376 6.89317 6.90909 6.22162 7.73747 6.22155L8.49604 6.22148C8.82742 6.22146 9.09602 5.9528 9.09599 5.62143C9.09597 5.29006 8.82731 5.02146 8.49594 5.02148Z" fill="#828B95"/>
<path d="M6.2376 16.2055C6.2376 15.8742 5.96897 15.6055 5.6376 15.6055C5.30622 15.6055 5.0376 15.8742 5.0376 16.2055V16.2293C5.0376 17.7206 6.24657 18.9294 7.73782 18.9293L8.49604 18.9292C8.82742 18.9292 9.09602 18.6606 9.09599 18.3292C9.09597 17.9978 8.82731 17.7292 8.49594 17.7292L7.73772 17.7293C6.90925 17.7294 6.2376 17.0578 6.2376 16.2293V16.2055Z" fill="#828B95"/>
<path d="M8.77832 8.4584C8.77832 8.12703 9.04695 7.8584 9.37832 7.8584H14.6217C14.9531 7.8584 15.2217 8.12703 15.2217 8.4584C15.2217 8.78977 14.9531 9.0584 14.6217 9.0584H12.6195V15.67C12.6195 16.0014 12.3508 16.27 12.0195 16.27C11.6881 16.27 11.4195 16.0014 11.4195 15.67V9.0584H9.37832C9.04695 9.0584 8.77832 8.78977 8.77832 8.4584Z" fill="#828B95"/>
<path d="M6.36341 12.5096L5.97017 12.9028C5.73585 13.1371 5.73585 13.517 5.97016 13.7513C6.20448 13.9856 6.58437 13.9856 6.81869 13.7513L8.07482 12.4952C8.42634 12.1437 8.4263 11.5738 8.07472 11.2223L6.85968 10.0077C6.62533 9.77342 6.24543 9.77349 6.01115 10.0078C5.77688 10.2422 5.77694 10.6221 6.0113 10.8564L6.46466 11.3096H3.34561C3.01423 11.3096 2.74561 11.5782 2.74561 11.9096C2.74561 12.2409 3.01423 12.5096 3.34561 12.5096L6.36341 12.5096Z" fill="#828B95"/>
<path d="M18.9741 7.72148C18.9741 6.23032 17.7653 5.02148 16.2741 5.02148H15.5079C15.1765 5.02148 14.9079 5.29011 14.9079 5.62148C14.9079 5.95286 15.1765 6.22148 15.5079 6.22148H16.2741C17.1025 6.22148 17.7741 6.89306 17.7741 7.72148V16.2292C17.7741 17.0577 17.1025 17.7292 16.2741 17.7292L15.5653 17.7292C15.2339 17.7292 14.9653 17.9979 14.9653 18.3292C14.9653 18.6606 15.2339 18.9292 15.5653 18.9292H16.2741C17.7653 18.9293 18.9741 17.7204 18.9741 16.2292V7.72148Z" fill="#828B95"/>
</svg>
