<svg width="24" height="24" viewBox="0 0 24 24" fill="none" xmlns="http://www.w3.org/2000/svg">
<path d="M9.61462 6.32225C9.08894 6.79641 8.81379 7.40543 8.72562 7.93443C8.67114 8.26129 8.36201 8.4821 8.03515 8.42763C7.70828 8.37315 7.48747 8.06401 7.54195 7.73715C7.66944 6.97222 8.0612 6.10739 8.81088 5.43118C9.56962 4.7468 10.6591 4.28809 12.1171 4.28809C13.1104 4.28809 14.3587 4.54782 15.3763 5.27699C16.4224 6.02662 17.1802 7.24388 17.1802 9.03252C17.1802 10.9313 15.7755 12.1285 14.6498 13.088L14.5821 13.1458C13.9981 13.6435 13.4768 14.0878 13.0894 14.5753C12.7051 15.059 12.4862 15.5456 12.4862 16.1127C12.4862 16.4441 12.2176 16.7127 11.8862 16.7127C11.5548 16.7127 11.2862 16.4441 11.2862 16.1127C11.2862 15.1951 11.654 14.4529 12.1499 13.8288C12.6116 13.2476 13.213 12.7355 13.7652 12.2652L13.844 12.1981C15.0608 11.1608 15.9802 10.3066 15.9802 9.03252C15.9802 7.63289 15.4107 6.77792 14.6773 6.25241C13.9154 5.70643 12.9321 5.48809 12.1171 5.48809C10.9255 5.48809 10.1312 5.85625 9.61462 6.32225Z" fill="#333333"/>
<path d="M11 19C11 18.4477 11.4477 18 12 18C12.5523 18 13 18.4477 13 19C13 19.5523 12.5523 20 12 20C11.4477 20 11 19.5523 11 19Z" fill="#333333"/>
</svg>
