<svg width="24" height="24" viewBox="0 0 24 24" fill="none" xmlns="http://www.w3.org/2000/svg">
<path d="M17.1331 7.80032C15.492 5.7797 12.6792 4.93221 10.0493 5.67812C7.37278 6.43721 5.89404 8.81949 5.55442 11.7314C5.51603 12.0606 5.21809 12.2963 4.88895 12.2579C4.55981 12.2195 4.32411 11.9216 4.3625 11.5924C4.73692 8.38209 6.42281 5.45931 9.72183 4.52365C12.6844 3.68342 15.8844 4.56668 17.8658 6.80915V5.21994C17.8658 4.88857 18.1344 4.61994 18.4658 4.61994C18.7972 4.61994 19.0658 4.88857 19.0658 5.21994L19.0658 8.44522L19.0655 8.46286C19.069 8.64001 18.9944 8.81698 18.8469 8.93832C18.5911 9.14892 18.213 9.11224 18.0024 8.8564L17.1356 7.80337L17.1331 7.80032Z" fill="#828B95"/>
<path d="M9.79775 15.3457C9.46638 15.3457 9.19775 15.6143 9.19775 15.9457C9.19775 16.2771 9.46638 16.5457 9.79775 16.5457H14.2023C14.5337 16.5457 14.8023 16.2771 14.8023 15.9457C14.8023 15.6143 14.5337 15.3457 14.2023 15.3457H9.79775Z" fill="#828B95"/>
<path d="M14.0943 18.274C11.4643 19.0199 8.65159 18.1724 7.01046 16.1518L7.00797 16.1488L6.14117 15.0958C5.93058 14.8399 5.55245 14.8032 5.29661 15.0138C5.14919 15.1352 5.07454 15.3121 5.07803 15.4893L5.07777 15.5069L5.07777 18.7322C5.07777 19.0636 5.3464 19.3322 5.67777 19.3322C6.00915 19.3322 6.27777 19.0636 6.27777 18.7322V17.143C8.25918 19.3855 11.4592 20.2687 14.4217 19.4285C17.7207 18.4928 19.4066 15.5701 19.7811 12.3597C19.8194 12.0306 19.5837 11.7326 19.2546 11.6942C18.9255 11.6559 18.6275 11.8916 18.5891 12.2207C18.2495 15.1327 16.7708 17.5149 14.0943 18.274Z" fill="#828B95"/>
<path d="M12.6289 7.7953C12.6073 7.48352 12.3476 7.2373 12.0303 7.2373C11.717 7.2373 11.4598 7.47743 11.4327 7.78368C11.0888 7.85685 10.775 7.99734 10.5184 8.20756C10.1088 8.54319 9.8744 9.03736 9.91716 9.60013C9.95699 10.1244 10.2229 10.5378 10.6226 10.8204C11.0016 11.0882 11.4864 11.2312 11.9985 11.2967C12.4065 11.3489 12.671 11.4525 12.8203 11.5659C12.9422 11.6585 13.0023 11.7644 13.0023 11.9418C13.0023 12.1486 12.9329 12.2716 12.8244 12.3576C12.6982 12.4578 12.4517 12.5584 12.0216 12.5584C11.5786 12.5584 11.3386 12.4543 11.2089 12.3608C11.0795 12.2676 11.0085 12.1477 10.9689 12.0242C10.8677 11.7087 10.5299 11.5349 10.2143 11.6361C9.89877 11.7372 9.725 12.0751 9.82618 12.3906C9.92739 12.7063 10.1293 13.0619 10.5072 13.3343C10.7592 13.516 11.0664 13.644 11.4317 13.7091C11.4588 14.0155 11.716 14.2557 12.0294 14.2557C12.344 14.2557 12.602 14.0136 12.6273 13.7055C12.9841 13.639 13.306 13.5074 13.5703 13.2977C13.9953 12.9605 14.2023 12.4752 14.2023 11.9418C14.2023 11.3788 13.9583 10.9234 13.5462 10.6104C13.1615 10.3182 12.6621 10.1718 12.1507 10.1063C11.7434 10.0542 11.4735 9.95227 11.3153 9.8404C11.1778 9.74322 11.1238 9.64199 11.1137 9.50921C11.1023 9.35873 11.155 9.2374 11.2789 9.13583C11.4151 9.02423 11.6607 8.92367 12.0216 8.92367C12.4952 8.92367 12.8173 9.12449 12.9872 9.51678C13.1189 9.82085 13.4722 9.96058 13.7763 9.82887C14.0803 9.69716 14.2201 9.34389 14.0884 9.03981C13.7951 8.36278 13.2621 7.95125 12.6289 7.7953Z" fill="#828B95"/>
</svg>
