<svg width="24" height="24" viewBox="0 0 24 24" fill="none" xmlns="http://www.w3.org/2000/svg">
<path d="M6.24209 6.26152C5.74503 6.26152 5.34209 6.66447 5.34209 7.16152V14.8373C5.34209 15.3344 5.74503 15.7373 6.24209 15.7373H17.7577C18.2548 15.7373 18.6577 15.3344 18.6577 14.8373V12.4378C18.6577 12.1064 18.9263 11.8378 19.2577 11.8378C19.5891 11.8378 19.8577 12.1064 19.8577 12.4378V14.8373C19.8577 15.9971 18.9175 16.9373 17.7577 16.9373H6.24209C5.08229 16.9373 4.14209 15.9971 4.14209 14.8373V7.16152C4.14209 6.00173 5.08229 5.06152 6.24209 5.06152H11.9999C12.3313 5.06152 12.5999 5.33015 12.5999 5.66152C12.5999 5.99289 12.3313 6.26152 11.9999 6.26152H6.24209Z" fill="#828B95"/>
<path d="M13.205 10.816C12.9707 11.0503 12.9707 11.4302 13.205 11.6645C13.4393 11.8988 13.8192 11.8988 14.0536 11.6645L18.6577 7.06034V8.98466C18.6577 9.31603 18.9263 9.58466 19.2577 9.58466C19.5891 9.58466 19.8577 9.31603 19.8577 8.98466V6.76152C19.8577 5.82264 19.0966 5.06152 18.1577 5.06152H15.6288C15.2974 5.06152 15.0288 5.33015 15.0288 5.66152C15.0288 5.99289 15.2974 6.26152 15.6288 6.26152H17.7595L13.205 10.816Z" fill="#828B95"/>
<path d="M7.9999 18.3994C7.66853 18.3994 7.3999 18.668 7.3999 18.9994C7.3999 19.3308 7.66853 19.5994 7.9999 19.5994H15.9999C16.3313 19.5994 16.5999 19.3308 16.5999 18.9994C16.5999 18.668 16.3313 18.3994 15.9999 18.3994H7.9999Z" fill="#828B95"/>
</svg>
