<svg width="24" height="24" viewBox="0 0 24 24" fill="none" xmlns="http://www.w3.org/2000/svg">
<path fill-rule="evenodd" clip-rule="evenodd" d="M8.80291 4.49942C8.52037 3.73587 7.44043 3.73587 7.15789 4.49941L6.52954 6.19751C6.46877 6.36174 6.33928 6.49123 6.17505 6.552L4.47695 7.18035C3.71341 7.46289 3.71341 8.54283 4.47695 8.82537L6.17505 9.45372C6.33928 9.51449 6.46877 9.64398 6.52954 9.80821L7.15789 11.5063C7.44043 12.2698 8.52037 12.2699 8.80291 11.5063L9.43126 9.80821C9.49203 9.64398 9.62152 9.51449 9.78575 9.45372L11.4838 8.82537C12.2474 8.54283 12.2474 7.46289 11.4838 7.18035L9.78575 6.552C9.62152 6.49123 9.49203 6.36174 9.43126 6.19751L8.80291 4.49942ZM7.65496 6.61396L7.9804 5.73447L8.30584 6.61396C8.48815 7.10665 8.87661 7.49511 9.36931 7.67742L10.2488 8.00286L9.36931 8.3283C8.87661 8.51061 8.48815 8.89907 8.30584 9.39177L7.9804 10.2713L7.65496 9.39177C7.47265 8.89907 7.08419 8.51061 6.59149 8.3283L5.71201 8.00286L6.5915 7.67742C7.08419 7.49511 7.47265 7.10665 7.65496 6.61396Z" fill="#828B95"/>
<path d="M12.1647 5.09638C12.2374 4.77309 12.5584 4.56996 12.8817 4.64269C14.0801 4.91227 15.1832 5.50116 16.074 6.34691C16.9648 7.19267 17.6101 8.26375 17.9414 9.44655C18.2728 10.6294 18.2778 11.8798 17.956 13.0652C17.6909 14.0419 17.212 14.9445 16.5572 15.7091L19.3268 18.4787C19.5611 18.7131 19.5611 19.093 19.3268 19.3273C19.0925 19.5616 18.7126 19.5616 18.4783 19.3273L15.6992 16.5483C14.896 17.2059 13.9509 17.6726 12.9352 17.9097C11.739 18.1889 10.4896 18.1392 9.31935 17.7658C8.14915 17.3924 7.10181 16.7093 6.28843 15.7888C5.47505 14.8684 4.92595 13.745 4.69937 12.5377C4.63824 12.212 4.85271 11.8984 5.1784 11.8373C5.50408 11.7762 5.81765 11.9907 5.87878 12.3163C6.06541 13.3107 6.51768 14.2361 7.18764 14.9942C7.8576 15.7524 8.72027 16.315 9.68413 16.6226C10.648 16.9302 11.6771 16.9711 12.6624 16.7411C13.6477 16.5111 14.5523 16.0188 15.2804 15.3162C16.0085 14.6137 16.5329 13.7273 16.7979 12.7508C17.063 11.7744 17.0588 10.7445 16.7859 9.77025C16.513 8.796 15.9815 7.91378 15.2478 7.21716C14.514 6.52053 13.6055 6.03548 12.6184 5.81343C12.2951 5.74071 12.092 5.41967 12.1647 5.09638Z" fill="#828B95"/>
<path d="M12.9836 10.9102C12.7581 10.3008 11.8961 10.3008 11.6706 10.9102L11.4834 11.4161L10.9776 11.6033C10.3682 11.8288 10.3681 12.6907 10.9776 12.9162L11.4834 13.1034L11.6706 13.6093C11.8961 14.2187 12.7581 14.2187 12.9836 13.6093L13.1708 13.1034L13.6767 12.9162C14.2861 12.6907 14.2861 11.8288 13.6767 11.6033L13.1708 11.4161L12.9836 10.9102Z" fill="#828B95"/>
</svg>
