<svg width="24" height="24" viewBox="0 0 24 24" fill="none" xmlns="http://www.w3.org/2000/svg">
<path fill-rule="evenodd" clip-rule="evenodd" d="M11.3057 8.89261C13.5926 8.40585 15.5876 10.4003 15.1011 12.6877C14.8441 13.8955 13.8954 14.8442 12.6876 15.1011C10.4003 15.5876 8.406 13.5927 8.89256 11.3059C9.01511 10.7299 9.35394 10.1894 9.77157 9.7717C10.1892 9.35404 10.7297 9.01518 11.3057 8.89261ZM14.0252 12.4588C14.346 10.9505 13.0426 9.64757 11.5347 9.96851C11.2134 10.0369 10.8546 10.2443 10.5494 10.5495C10.2442 10.8547 10.0368 11.2135 9.96847 11.5348C9.64766 13.0426 10.9506 14.3459 12.4588 14.0252C13.2417 13.8587 13.8586 13.2418 14.0252 12.4588Z" fill="#333333"/>
<path fill-rule="evenodd" clip-rule="evenodd" d="M11.3805 5.13067C11.8035 5.09364 12.2202 5.09495 12.6273 5.13174C13.2365 5.18678 13.6909 5.63142 13.8473 6.16194L13.9199 6.40828C13.9511 6.51424 14.0457 6.62506 14.2017 6.68987C14.3551 6.75357 14.4972 6.74256 14.5963 6.68859L14.8209 6.56623C15.3067 6.30164 15.9422 6.30865 16.4119 6.70011C16.7341 6.96864 17.0314 7.26599 17.2999 7.58821C17.6913 8.0579 17.6983 8.6934 17.4337 9.1791L17.3112 9.40404C17.2573 9.50304 17.2463 9.64498 17.3099 9.79826C17.3747 9.95426 17.4854 10.0488 17.5913 10.08L17.8376 10.1526C18.3682 10.309 18.8128 10.7634 18.8679 11.3726C18.9046 11.7798 18.9059 12.1965 18.8689 12.6196C18.8153 13.2308 18.3708 13.6901 17.8359 13.8478L17.6132 13.9134C17.5022 13.9461 17.3866 14.0459 17.3198 14.2097C17.2553 14.3679 17.2667 14.514 17.3224 14.6164L17.4465 14.8442C17.7105 15.3289 17.7045 15.9636 17.3137 16.4332C17.0477 16.7528 16.753 17.0475 16.4334 17.3135C15.9638 17.7044 15.329 17.7104 14.8444 17.4464L14.6166 17.3223C14.5142 17.2666 14.3681 17.2552 14.2098 17.3197C14.046 17.3865 13.9462 17.5021 13.9135 17.6131L13.8478 17.8359C13.6902 18.3708 13.2309 18.8153 12.6198 18.8688C12.1967 18.9059 11.78 18.9046 11.3728 18.8679C10.7636 18.8129 10.3091 18.3682 10.1528 17.8377L10.0801 17.5913C10.0489 17.4854 9.95439 17.3746 9.79837 17.3098C9.64507 17.2462 9.5031 17.2572 9.40408 17.3111L9.17906 17.4337C8.69336 17.6982 8.05785 17.6913 7.58816 17.2999C7.26597 17.0314 6.96866 16.7341 6.70015 16.412C6.30869 15.9423 6.30168 15.3067 6.56627 14.8209L6.68868 14.5962C6.74266 14.4971 6.75366 14.355 6.68996 14.2016C6.62514 14.0455 6.51431 13.951 6.40833 13.9197L6.16193 13.8471C5.6314 13.6907 5.18676 13.2363 5.13173 12.6271C5.09495 12.2201 5.09364 11.8034 5.13067 11.3804C5.18417 10.7692 5.62873 10.3099 6.16357 10.1523L6.42723 10.0746C6.5276 10.045 6.62768 9.96226 6.69184 9.81843C6.76146 9.66236 6.75063 9.51736 6.7016 9.42735L6.60384 9.24787C6.33255 8.74982 6.35054 8.10246 6.75342 7.63233C7.02282 7.31796 7.31811 7.02266 7.63249 6.75328C8.10262 6.35042 8.74996 6.33243 9.248 6.60371L9.42751 6.70149C9.51751 6.75051 9.66249 6.76135 9.81855 6.69173C9.96238 6.62758 10.0451 6.52751 10.0747 6.42714L10.1524 6.16357C10.31 5.62874 10.7693 5.18418 11.3805 5.13067ZM12.5283 6.22727C12.186 6.19634 11.8346 6.19513 11.4764 6.22648C11.3704 6.23577 11.2534 6.31879 11.2075 6.47457L11.1298 6.73814C10.9947 7.19632 10.6546 7.52327 10.2667 7.69632C9.86267 7.87652 9.34987 7.9118 8.90134 7.66748L8.72182 7.5697C8.57814 7.49144 8.433 7.51592 8.34824 7.58856C8.07671 7.82123 7.82137 8.07657 7.58868 8.3481C7.51605 8.43286 7.49156 8.578 7.56983 8.72169L7.66759 8.90117C7.91192 9.34972 7.87664 9.86255 7.69642 10.2666C7.52335 10.6545 7.1964 10.9946 6.73822 11.1297L6.47457 11.2074C6.31879 11.2533 6.23576 11.3703 6.22648 11.4764C6.19513 11.8345 6.19634 12.1859 6.22726 12.5281C6.23655 12.6309 6.31774 12.7462 6.47292 12.792L6.71933 12.8646C7.19782 13.0056 7.53697 13.3731 7.70584 13.7798C7.87604 14.1896 7.89242 14.6859 7.65467 15.1224L7.53226 15.3471C7.45489 15.4892 7.47893 15.6282 7.54515 15.7077C7.77107 15.9788 8.02126 16.2289 8.29235 16.4548C8.37179 16.521 8.51087 16.545 8.65289 16.4677L8.8779 16.3451C9.31425 16.1074 9.81042 16.1238 10.2202 16.2939C10.6268 16.4627 10.9942 16.8018 11.1353 17.2803L11.2079 17.5267C11.2536 17.6819 11.3689 17.763 11.4717 17.7723C11.8141 17.8032 12.1656 17.8044 12.5237 17.773C12.6298 17.7637 12.7468 17.6807 12.7927 17.5249L12.8584 17.3021C13.0023 16.8138 13.3798 16.4702 13.7945 16.3011C14.2065 16.1331 14.7043 16.1175 15.1428 16.3563L15.3706 16.4804C15.5125 16.5577 15.6509 16.5336 15.7297 16.4681C15.9978 16.2449 16.2451 15.9976 16.4682 15.7295C16.5337 15.6508 16.5578 15.5123 16.4805 15.3704L16.3564 15.1426C16.1176 14.7041 16.1332 14.2063 16.3012 13.7944C16.4703 13.3796 16.8139 13.0022 17.3022 12.8583L17.525 12.7926C17.6807 12.7467 17.7638 12.6297 17.773 12.5237C17.8044 12.1654 17.8032 11.8139 17.7723 11.4716C17.763 11.3688 17.6818 11.2535 17.5267 11.2077L17.2803 11.1351C16.8019 10.9941 16.4628 10.6267 16.294 10.2201C16.1239 9.81034 16.1075 9.31419 16.3452 8.87786L16.4677 8.65292C16.5451 8.51091 16.5211 8.37183 16.4549 8.29239C16.2289 8.02126 15.9788 7.77105 15.7077 7.54511C15.6282 7.47889 15.4891 7.45485 15.3471 7.53222L15.1225 7.65458C14.686 7.89232 14.1897 7.87594 13.7799 7.70575C13.3732 7.53688 13.0058 7.19775 12.8648 6.71928L12.7921 6.47293C12.7464 6.31775 12.6311 6.23656 12.5283 6.22727Z" fill="#333333"/>
</svg>
