<svg width="24" height="24" viewBox="0 0 24 24" fill="none" xmlns="http://www.w3.org/2000/svg">
<path fill-rule="evenodd" clip-rule="evenodd" d="M12.0503 5.20279C11.1712 5.85451 8.679 7.56859 6.023 8.13594C5.62711 11.8407 7.14777 14.6695 8.81428 16.6056C9.664 17.5927 10.5459 18.3398 11.2153 18.8397C11.5468 19.0873 11.8247 19.2731 12.0186 19.3964C12.2091 19.27 12.4813 19.0803 12.8062 18.8286C13.4645 18.3186 14.3329 17.5585 15.1729 16.5599C16.8206 14.6012 18.335 11.7576 17.9921 8.08428C16.8946 7.85782 15.5956 7.25239 14.499 6.66229C13.4527 6.0993 12.5336 5.51833 12.0503 5.20279ZM12.0257 20.1019C12.3268 20.6209 12.3271 20.6208 12.3274 20.6206L12.328 20.6202L12.3299 20.6191L12.3357 20.6157L12.3552 20.6041C12.3717 20.5942 12.395 20.5801 12.4246 20.5618C12.4839 20.5251 12.5686 20.4715 12.6749 20.4011C12.8874 20.2603 13.1866 20.0519 13.5412 19.7772C14.2493 19.2286 15.184 18.4108 16.0912 17.3324C17.9057 15.1754 19.6346 11.9419 19.1624 7.73473C19.1146 7.30908 18.7808 7.00212 18.3989 6.93956C17.4732 6.78794 16.2275 6.22972 15.0676 5.60557C13.9262 4.99134 12.9368 4.35172 12.5431 4.0906C12.2205 3.87662 11.7972 3.88867 11.4873 4.12491C10.7955 4.65216 8.21429 6.50188 5.58734 6.99972C5.2109 7.07106 4.90685 7.37735 4.85705 7.77394C4.32346 12.0225 6.06335 15.2491 7.9048 17.3884C8.82491 18.4573 9.77613 19.2627 10.4973 19.8012C10.8584 20.0709 11.1634 20.2748 11.3801 20.4124C11.4885 20.4813 11.5749 20.5336 11.6354 20.5694C11.6657 20.5872 11.6895 20.601 11.7063 20.6106L11.7262 20.6219L11.7321 20.6252L11.7341 20.6263L11.7348 20.6267C11.7351 20.6268 11.7353 20.627 12.0257 20.1019ZM12.0257 20.1019L11.7353 20.627C11.9198 20.7291 12.1444 20.7267 12.3268 20.6209L12.0257 20.1019Z" fill="black"/>
</svg>
