<svg width="20" height="20" viewBox="0 0 20 20" fill="none" xmlns="http://www.w3.org/2000/svg">
<g clip-path="url(#clip0_24722_16332)">
<path d="M10.5793 6.88926C10.5793 6.53027 10.2883 6.23926 9.9293 6.23926C9.57031 6.23926 9.2793 6.53027 9.2793 6.88926V10.2394C9.2793 10.5984 9.57031 10.8894 9.9293 10.8894H12.7556C13.1146 10.8894 13.4056 10.5984 13.4056 10.2394C13.4056 9.88042 13.1146 9.58941 12.7556 9.58941H10.5793V6.88926Z" fill="#A7A7A7"/>
<path fill-rule="evenodd" clip-rule="evenodd" d="M10.0002 16.8148C13.6821 16.8148 16.6668 13.83 16.6668 10.1481C16.6668 6.46622 13.6821 3.48145 10.0002 3.48145C6.31827 3.48145 3.3335 6.46622 3.3335 10.1481C3.3335 13.83 6.31827 16.8148 10.0002 16.8148ZM15.3668 10.1481C15.3668 13.112 12.9641 15.5148 10.0002 15.5148C7.03624 15.5148 4.6335 13.112 4.6335 10.1481C4.6335 7.18419 7.03624 4.78145 10.0002 4.78145C12.9641 4.78145 15.3668 7.18419 15.3668 10.1481Z" fill="#A7A7A7"/>
</g>
<defs>
<clipPath id="clip0_24722_16332">
<rect width="20" height="20" fill="white"/>
</clipPath>
</defs>
</svg>
