<svg width="20" height="20" viewBox="0 0 20 20" fill="none" xmlns="http://www.w3.org/2000/svg">
<path d="M9.53463 8.23924C9.53463 8.95655 8.95313 9.53805 8.23582 9.53805C7.51851 9.53805 6.93701 8.95655 6.93701 8.23924C6.93701 7.52193 7.51851 6.94043 8.23582 6.94043C8.95313 6.94043 9.53463 7.52193 9.53463 8.23924Z" fill="#A8ADB4"/>
<path d="M8.23582 13.0605C8.95313 13.0605 9.53463 12.479 9.53463 11.7617C9.53463 11.0444 8.95313 10.4629 8.23582 10.4629C7.51851 10.4629 6.93701 11.0444 6.93701 11.7617C6.93701 12.479 7.51851 13.0605 8.23582 13.0605Z" fill="#A8ADB4"/>
<path d="M13.063 8.23924C13.063 8.95655 12.4815 9.53805 11.7641 9.53805C11.0468 9.53805 10.4653 8.95655 10.4653 8.23924C10.4653 7.52193 11.0468 6.94043 11.7641 6.94043C12.4815 6.94043 13.063 7.52193 13.063 8.23924Z" fill="#A8ADB4"/>
<path d="M11.7641 13.0605C12.4815 13.0605 13.063 12.479 13.063 11.7617C13.063 11.0444 12.4815 10.4629 11.7641 10.4629C11.0468 10.4629 10.4653 11.0444 10.4653 11.7617C10.4653 12.479 11.0468 13.0605 11.7641 13.0605Z" fill="#A8ADB4"/>
<path fill-rule="evenodd" clip-rule="evenodd" d="M10.0002 16.6663C13.6821 16.6663 16.6668 13.6816 16.6668 9.99967C16.6668 6.31778 13.6821 3.33301 10.0002 3.33301C6.31826 3.33301 3.3335 6.31778 3.3335 9.99967C3.3335 13.6816 6.31826 16.6663 10.0002 16.6663ZM10.0002 15.3663C12.9641 15.3663 15.3668 12.9636 15.3668 9.99967C15.3668 7.03575 12.9641 4.63301 10.0002 4.63301C7.03623 4.63301 4.6335 7.03575 4.6335 9.99967C4.6335 12.9636 7.03623 15.3663 10.0002 15.3663Z" fill="#A8ADB4"/>
</svg>
