<svg width="20" height="20" viewBox="0 0 20 20" fill="none" xmlns="http://www.w3.org/2000/svg">
<path fill-rule="evenodd" clip-rule="evenodd" d="M10.0002 15.3663C12.9641 15.3663 15.3668 12.9636 15.3668 9.99967C15.3668 7.03575 12.9641 4.63301 10.0002 4.63301C7.03623 4.63301 4.6335 7.03575 4.6335 9.99967C4.6335 12.9636 7.03623 15.3663 10.0002 15.3663ZM10.0002 16.6663C13.6821 16.6663 16.6668 13.6816 16.6668 9.99967C16.6668 6.31778 13.6821 3.33301 10.0002 3.33301C6.31826 3.33301 3.3335 6.31778 3.3335 9.99967C3.3335 13.6816 6.31826 16.6663 10.0002 16.6663Z" fill="#A7A7A7"/>
<path fill-rule="evenodd" clip-rule="evenodd" d="M14.3795 6.13706C14.6333 6.39091 14.6333 6.80246 14.3795 7.0563L6.54018 14.8955C6.28634 15.1493 5.87478 15.1493 5.62094 14.8955C5.3671 14.6416 5.36711 14.2301 5.62095 13.9762L13.4603 6.13706C13.7141 5.88322 14.1257 5.88322 14.3795 6.13706Z" fill="#A7A7A7"/>
</svg>
