<svg width="20" height="20" viewBox="0 0 20 20" fill="none" xmlns="http://www.w3.org/2000/svg">
<path fill-rule="evenodd" clip-rule="evenodd" d="M10 4.59004C7.01023 4.59004 4.62275 6.93119 4.62275 9.77517C4.62275 11.3022 5.30702 12.6788 6.40566 13.6317C6.62731 13.8239 6.77701 14.1098 6.78059 14.4324C6.78443 14.7792 6.77913 15.1127 6.76983 15.4098C7.01571 15.2613 7.2939 15.0871 7.59026 14.8906C7.86089 14.7112 8.18995 14.6686 8.48714 14.7524C8.96618 14.8876 9.47371 14.9603 10 14.9603C12.9898 14.9603 15.3773 12.6191 15.3773 9.77517C15.3773 6.93119 12.9898 4.59004 10 4.59004ZM3.32275 9.77517C3.32275 6.17384 6.33229 3.29004 10 3.29004C13.6678 3.29004 16.6773 6.17384 16.6773 9.77517C16.6773 13.3765 13.6678 16.2603 10 16.2603C9.38667 16.2603 8.79158 16.1798 8.22583 16.0287C7.77022 16.328 7.35941 16.5755 7.03992 16.7601C6.2759 17.2015 5.41607 16.5789 5.45425 15.7789C5.47056 15.4373 5.48413 15.0068 5.48153 14.5501C4.15825 13.3683 3.32275 11.6683 3.32275 9.77517Z" fill="#A8ADB4"/>
<path fill-rule="evenodd" clip-rule="evenodd" d="M10.9536 9.1691L9.8915 8.08463C9.64743 7.83543 9.24523 7.83775 9.00456 8.09096C8.69218 8.41961 8.22823 8.90852 8.15332 8.99229L8.15263 8.99307C7.9258 9.2494 7.68993 9.50842 7.45284 9.76878C7.15434 10.0966 6.8539 10.4265 6.56713 10.7559C6.35674 10.9975 6.64264 11.3373 6.9157 11.1853C7.43107 10.8984 8.35527 10.3819 9.07384 9.96952C9.28757 10.1806 9.84552 10.7227 10.1978 11.0646C10.4493 11.3087 10.8534 11.294 11.0863 11.0319C11.1697 10.938 11.2529 10.8443 11.3359 10.7507C11.5146 10.5493 11.693 10.3482 11.873 10.1469L11.8737 10.1461C11.9677 10.0398 12.0617 9.93352 12.1557 9.82724C12.5725 9.35589 12.9889 8.88499 13.4085 8.41702C13.6151 8.18655 13.348 7.81705 13.0589 7.97966C12.4668 8.31262 11.4352 8.89349 10.9536 9.1691Z" fill="#A8ADB4"/>
</svg>
