<svg width="20" height="20" viewBox="0 0 20 20" fill="none" xmlns="http://www.w3.org/2000/svg">
<path d="M11.3491 5.6861C11.0926 5.5838 10.8017 5.7088 10.6994 5.9653C10.5971 6.22179 10.7221 6.51265 10.9786 6.61495C11.8805 6.97463 12.3916 7.55038 12.7695 8.41464C12.8802 8.66765 13.1749 8.78307 13.428 8.67243C13.681 8.56179 13.7964 8.26699 13.6857 8.01399C13.2218 6.95313 12.5368 6.15981 11.3491 5.6861Z" fill="#A8ADB4"/>
<path d="M10.8422 7.0279C10.5857 6.9256 10.2949 7.0506 10.1926 7.30709C10.0903 7.56359 10.2153 7.85445 10.4718 7.95675C10.9293 8.13923 11.1861 8.42389 11.3851 8.87883C11.4957 9.13184 11.7905 9.24725 12.0435 9.13661C12.2965 9.02597 12.4119 8.73118 12.3013 8.47817C12.0164 7.82664 11.5857 7.32441 10.8422 7.0279Z" fill="#A8ADB4"/>
<path d="M8.00794 11.1053C6.88488 9.95923 6.49852 8.99573 6.5 8.22503C6.50151 7.44407 6.90107 6.90581 7.24139 6.62149C7.45245 6.44516 7.73856 6.48729 7.92408 6.63661C7.93117 6.64231 7.93785 6.64849 7.9441 6.6551C8.33241 7.06635 8.67989 7.44853 8.84414 7.63042C8.92116 7.71572 9.00497 7.83295 9.03249 7.98264C9.04003 8.02365 9.04622 8.07372 9.04432 8.12554C9.04249 8.17524 9.03271 8.2433 8.99406 8.30723C8.89673 8.46826 8.71928 8.70018 8.41957 8.91174C8.40152 8.92448 8.39185 8.93334 8.38692 8.93898C8.38543 8.94555 8.38418 8.95262 8.38321 8.9602C8.37717 9.00696 8.38145 9.0731 8.40443 9.15937C8.43152 9.26106 8.48004 9.37637 8.54465 9.49666C8.67424 9.73794 8.85658 9.97728 9.01574 10.1364L9.05766 10.1784C9.20044 10.3211 9.40859 10.4834 9.62554 10.6093C9.84875 10.7388 10.0518 10.8126 10.1906 10.8137C10.2169 10.8139 10.2485 10.8031 10.2772 10.7782C10.2793 10.7763 10.2824 10.7734 10.2824 10.7734L10.2847 10.7712C10.4957 10.4735 10.7264 10.297 10.8869 10.2C11.0696 10.0896 11.2856 10.1228 11.4394 10.2391C11.4451 10.2434 11.4505 10.248 11.4557 10.2529C11.6918 10.4748 12.0157 10.7804 12.5584 11.2957C12.5649 11.3018 12.5709 11.3084 12.5765 11.3153C12.7258 11.5008 12.7679 11.787 12.5916 11.998C11.2965 13.5482 9.19272 12.2682 8.08875 11.1861C8.0852 11.183 8.08173 11.1798 8.07835 11.1764L8.01769 11.1157C8.01535 11.1134 8.01307 11.111 8.01086 11.1086L8.00794 11.1053Z" fill="#A8ADB4"/>
<path fill-rule="evenodd" clip-rule="evenodd" d="M10.0296 3.18083C10.0199 3.18061 10.0101 3.18061 10.0003 3.18083L7.7484 3.23156C5.22172 3.28848 3.20312 5.35306 3.20312 7.88038V11.0538C3.20312 12.9932 4.41159 14.649 6.11578 15.3115V16.219C6.11578 17.2887 7.41609 17.8166 8.16183 17.0497L9.55148 15.6205H12.2308C14.7529 15.6205 16.7975 13.5759 16.7975 11.0538V7.87996C16.7975 5.35284 14.7792 3.28834 12.2527 3.23115L10.0296 3.18083ZM7.77767 4.53123L10.0149 4.48083L12.2233 4.53082C14.0434 4.57202 15.4975 6.05935 15.4975 7.87996V11.0538C15.4975 12.8579 14.0349 14.3205 12.2308 14.3205H9.27688C9.10133 14.3205 8.93324 14.3915 8.81086 14.5173L7.41578 15.9521V14.8406C7.41578 14.5456 7.21714 14.2876 6.93196 14.2122C5.53335 13.8424 4.50312 12.5676 4.50312 11.0538V7.88038C4.50312 6.05962 5.95738 4.57224 7.77767 4.53123Z" fill="#A8ADB4"/>
</svg>
