<svg width="20" height="20" viewBox="0 0 20 20" fill="none" xmlns="http://www.w3.org/2000/svg">
<path d="M11.5665 13.2049C12.0065 13.0213 12.3432 12.766 12.5725 12.4393C12.8023 12.1131 12.9176 11.7446 12.917 11.3349C12.917 10.9946 12.8506 10.7055 12.7173 10.4687C12.585 10.2323 12.3996 10.0366 12.1624 9.88315C11.927 9.7292 11.6421 9.59998 11.3083 9.49282C10.9739 9.38621 10.6017 9.28839 10.1913 9.20083C9.8641 9.12462 9.6287 9.06707 9.48682 9.02726C9.34659 8.98844 9.20705 8.93449 9.06986 8.86473C8.93273 8.79605 8.82604 8.71457 8.74936 8.62053C8.67384 8.52736 8.63632 8.41841 8.63594 8.28919C8.63645 8.08298 8.74608 7.90698 8.97539 7.75528C9.2033 7.60598 9.50526 7.52964 9.88265 7.52964C10.2905 7.52878 10.5837 7.59977 10.7613 7.73614C10.9438 7.8751 11.1007 8.06937 11.2318 8.31873C11.3354 8.49744 11.4312 8.62567 11.5225 8.70621C11.6162 8.78946 11.7512 8.82879 11.9235 8.82879C12.1145 8.82941 12.2781 8.76139 12.4059 8.62798C12.5338 8.49475 12.5995 8.34274 12.5995 8.17513C12.5995 7.99486 12.5485 7.81012 12.4474 7.62098C12.3461 7.43241 12.1863 7.2527 11.9691 7.08232C11.7505 6.91157 11.4771 6.77549 11.1492 6.67237C10.8203 6.57001 10.4318 6.51855 9.9826 6.51855C9.42094 6.51855 8.93067 6.59597 8.51423 6.75073C8.09633 6.90555 7.77582 7.12781 7.5543 7.41819C7.33267 7.70776 7.22196 8.04047 7.22196 8.41252C7.22196 8.80268 7.32683 9.1321 7.53714 9.39713C7.74701 9.65957 8.03018 9.86734 8.38574 10.0193C8.74083 10.1708 9.17932 10.3026 9.70362 10.4159C10.0941 10.4973 10.4056 10.5746 10.6377 10.6475C10.8689 10.7196 11.0551 10.823 11.1994 10.9587C11.3423 11.0928 11.412 11.2646 11.412 11.4811C11.412 11.7524 11.2828 11.977 11.0136 12.1616C10.7458 12.3445 10.3959 12.4372 9.96291 12.4372C9.64654 12.4372 9.39371 12.3916 9.20373 12.3006C9.01164 12.2097 8.86333 12.0937 8.75794 11.9547C8.6519 11.8139 8.55225 11.6375 8.46049 11.4265C8.38394 11.2443 8.29034 11.1063 8.17877 11.0114C8.06635 10.9164 7.92827 10.8685 7.76751 10.8685C7.57127 10.8685 7.405 10.9294 7.27591 11.0511C7.14815 11.172 7.08252 11.3201 7.08252 11.4905C7.08252 11.7793 7.18867 12.0755 7.39803 12.378C7.60695 12.6802 7.87871 12.9226 8.21285 13.1033C8.68422 13.3556 9.2814 13.4805 10.0027 13.4805C10.6045 13.4805 11.1256 13.389 11.5665 13.2049Z" fill="#A8ADB4"/>
<path fill-rule="evenodd" clip-rule="evenodd" d="M16.0609 10.9833C16.1117 10.6624 16.1384 10.3341 16.1384 9.99908C16.1384 6.51659 13.3153 3.6937 9.83269 3.6937C9.49851 3.6937 9.16929 3.72122 8.8487 3.77137C8.26796 3.41204 7.58254 3.2041 6.84798 3.2041C4.7436 3.2041 3.0376 4.90984 3.0376 7.01441C3.0376 7.74879 3.24567 8.43363 3.60484 9.01552C3.55514 9.33693 3.52778 9.66415 3.52778 9.99921C3.52778 13.4819 6.35073 16.304 9.83256 16.304C10.167 16.304 10.4963 16.2782 10.8169 16.2276C11.3982 16.5862 12.0831 16.7948 12.8175 16.7948C14.9224 16.7948 16.6282 15.0886 16.6282 12.9841C16.6284 12.2494 16.4205 11.5647 16.0609 10.9833ZM14.7769 10.7803L14.7016 11.2567L14.9552 11.6669C15.1918 12.0495 15.3284 12.4984 15.3282 12.9838C15.3282 14.3704 14.2044 15.4948 12.8175 15.4948C12.3327 15.4948 11.883 15.3579 11.4994 15.1212L11.0897 14.8685L10.6143 14.9435C10.3618 14.9833 10.1003 15.004 9.83256 15.004C7.06857 15.004 4.82778 12.7639 4.82778 9.99921C4.82778 9.73541 4.84928 9.47473 4.88957 9.2142L4.96282 8.74055L4.71108 8.3327C4.47427 7.94906 4.3376 7.49955 4.3376 7.01441C4.3376 5.62789 5.46149 4.5041 6.84798 4.5041C7.33387 4.5041 7.78339 4.64095 8.16468 4.87686L8.57402 5.13014L9.04959 5.05575C9.30782 5.01536 9.5698 4.9937 9.83269 4.9937C12.5974 4.9937 14.8384 7.23462 14.8384 9.99908C14.8384 10.2648 14.8172 10.5252 14.7769 10.7803Z" fill="#A8ADB4"/>
</svg>
