<svg width="20" height="20" viewBox="0 0 20 20" fill="none" xmlns="http://www.w3.org/2000/svg">
<path d="M6.25684 8.11582C6.25684 7.75684 6.54785 7.46582 6.90684 7.46582H12.8111C13.1701 7.46582 13.4611 7.75684 13.4611 8.11582C13.4611 8.47481 13.1701 8.76582 12.8111 8.76582H6.90684C6.54785 8.76582 6.25684 8.47481 6.25684 8.11582Z" fill="#A7A7A7"/>
<path d="M6.90684 9.71582C6.54785 9.71582 6.25684 10.0068 6.25684 10.3658C6.25684 10.7248 6.54785 11.0158 6.90684 11.0158H11.4053C11.7643 11.0158 12.0553 10.7248 12.0553 10.3658C12.0553 10.0068 11.7643 9.71582 11.4053 9.71582H6.90684Z" fill="#A7A7A7"/>
<path fill-rule="evenodd" clip-rule="evenodd" d="M9.03037 14.9902L7.59521 16.4254C6.71874 17.3019 5.2201 16.6811 5.2201 15.4416V14.5626C4.22134 14.0757 3.5332 13.0504 3.5332 11.8645V7.18067C3.5332 5.52381 4.87635 4.18066 6.5332 4.18066H13.4663C15.1231 4.18066 16.4663 5.52381 16.4663 7.18066V11.8645C16.4663 13.5214 15.1231 14.8645 13.4663 14.8645H9.14271C9.10842 14.9076 9.071 14.9496 9.03037 14.9902ZM6.5201 13.7502V15.4416C6.5201 15.4643 6.52333 15.4763 6.52477 15.4808C6.52632 15.4856 6.52815 15.4891 6.53061 15.4926C6.53633 15.5007 6.55077 15.5153 6.57647 15.5259C6.60216 15.5366 6.62267 15.5365 6.63244 15.5348C6.63665 15.5341 6.64043 15.5329 6.64496 15.5305C6.64916 15.5284 6.65991 15.5222 6.67598 15.5061L8.11112 14.071C8.11737 14.0647 8.12199 14.0594 8.12536 14.0552L8.5157 13.5645H13.4663C14.4052 13.5645 15.1663 12.8034 15.1663 11.8645V7.18066C15.1663 6.24178 14.4052 5.48066 13.4663 5.48066H6.5332C5.59432 5.48066 4.8332 6.24178 4.8332 7.18067V11.8645C4.8332 12.5346 5.22078 13.1167 5.78984 13.3941L6.5201 13.7502Z" fill="#A7A7A7"/>
</svg>
