<svg width="20" height="20" viewBox="0 0 20 20" fill="none" xmlns="http://www.w3.org/2000/svg">
<path fill-rule="evenodd" clip-rule="evenodd" d="M3.1084 9.75935C3.1084 6.47826 6.35539 4.04395 10.0509 4.04395C13.7464 4.04395 16.9934 6.47826 16.9934 9.75935C16.9934 13.0404 13.7464 15.4747 10.0509 15.4747C9.52236 15.4747 9.00686 15.4262 8.51088 15.3341C7.47843 15.9132 6.47389 16.3744 5.79413 16.6666C4.90368 17.0494 4.11713 16.1489 4.40693 15.3414C4.57936 14.861 4.7828 14.2384 4.92872 13.622C3.81696 12.623 3.1084 11.2717 3.1084 9.75935ZM10.0509 5.34395C6.79588 5.34395 4.4084 7.44535 4.4084 9.75935C4.4084 10.8789 4.94682 11.9269 5.88458 12.7314C6.15991 12.9676 6.32115 13.3518 6.23241 13.7528C6.11839 14.268 5.96611 14.7848 5.81817 15.2349C6.43136 14.957 7.18656 14.5901 7.94899 14.1585C8.17298 14.0317 8.43141 13.9939 8.67542 14.042C9.11497 14.1286 9.57563 14.1747 10.0509 14.1747C13.3059 14.1747 15.6934 12.0733 15.6934 9.75935C15.6934 7.44535 13.3059 5.34395 10.0509 5.34395Z" fill="#A7A7A7"/>
</svg>
