<svg width="24" height="24" viewBox="0 0 24 24" fill="none" xmlns="http://www.w3.org/2000/svg">
<path d="M10.3499 18.4944L10.3567 18.4945L10.595 18.5091C10.7528 18.5186 10.9792 18.5323 11.2534 18.5488C11.8018 18.5817 12.5416 18.6255 13.3069 18.6694C14.8264 18.7564 16.4774 18.8454 16.9024 18.8454C17.5361 18.8454 18.017 18.4191 18.2899 17.9886C18.4852 17.6806 18.6264 17.2897 18.6308 16.9096C18.7854 16.8004 18.9085 16.6598 19.0028 16.5155C19.169 16.2612 19.2714 15.9596 19.322 15.6717C19.3725 15.384 19.3768 15.0782 19.3196 14.8068C19.3058 14.7414 19.2868 14.6707 19.2606 14.5989C19.588 14.2837 19.7692 13.8447 19.8434 13.4519C19.8981 13.1622 19.9036 12.8606 19.8542 12.5845C19.8371 12.489 19.8124 12.3912 19.7782 12.2953C19.9692 12.1277 20.1077 11.9338 20.202 11.7199C20.3471 11.3908 20.3718 11.0489 20.3744 10.765C20.377 10.4728 20.3442 10.0624 20.1704 9.70757C20.0804 9.52381 19.9457 9.34092 19.7459 9.20472C19.5426 9.06611 19.3 8.99511 19.0292 8.99511H15.5804C15.475 8.99511 15.3625 8.99843 15.2641 9.00134C15.2166 9.00274 15.1724 9.00405 15.1339 9.00483C15.1113 9.00529 15.0901 9.0056 15.0702 9.00575L15.0748 8.99481C15.1481 8.81778 15.2467 8.57705 15.3473 8.32314C15.4477 8.06993 15.5514 7.8003 15.6344 7.56641C15.7113 7.34939 15.7878 7.11638 15.8106 6.96149L15.8107 6.96048C15.8699 6.5515 15.8825 6.36225 15.8825 6.25513V5.47149C15.8825 5.10164 15.7535 4.73716 15.4661 4.45014C15.2022 4.18658 14.8539 4.02449 14.4946 4.01964C14.1236 4.01463 13.7578 4.1811 13.5279 4.53341C12.5953 5.96226 11.5666 7.09085 10.7706 7.8622C10.373 8.24745 10.0346 8.54242 9.79712 8.74001C9.6784 8.83878 9.58497 8.91313 9.52206 8.96218C9.4906 8.9867 9.46679 9.00489 9.45126 9.01663L9.43427 9.0294L9.43006 9.03253C9.40878 9.04818 9.38883 9.06558 9.37044 9.08455C9.10771 9.35559 8.95996 9.72213 8.95996 10.1009V17.0489C8.95996 17.3719 9.03946 17.6458 9.18326 17.8682C9.32559 18.0883 9.51308 18.2304 9.68826 18.3207C9.86128 18.4099 10.0288 18.4521 10.1492 18.4728C10.2105 18.4834 10.2627 18.4888 10.3015 18.4917C10.3209 18.4931 10.3372 18.4939 10.3499 18.4944Z" fill="#909090"/>
<path d="M5.16794 9.13867C4.31285 9.13867 3.63694 9.86345 3.69653 10.7165L4.15356 17.2589C4.20755 18.0318 4.85024 18.6311 5.62497 18.6311H6.29908C7.1137 18.6311 7.77408 17.9708 7.77408 17.1561V10.6137C7.77408 9.79905 7.1137 9.13867 6.29908 9.13867H5.16794Z" fill="#909090"/>
</svg>
