<svg width="24" height="24" viewBox="0 0 24 24" fill="none" xmlns="http://www.w3.org/2000/svg">
<path d="M15.5029 5.82812C15.6113 5.82812 15.7156 5.84536 15.8133 5.87724C16.0862 5.94845 16.3274 6.13402 16.4605 6.40748L17.9128 9.39272C18.0086 9.19945 18.103 9.00994 18.197 8.82113L18.2359 8.74302C18.5923 8.02736 18.9466 7.31394 19.3646 6.42101C19.5057 6.1196 19.7779 5.9215 20.0814 5.86288C20.165 5.84022 20.253 5.82812 20.3438 5.82812C20.896 5.82812 21.3438 6.27584 21.3438 6.82812V17.1372C21.3438 17.6894 20.896 18.1372 20.3438 18.1372C19.7915 18.1372 19.3438 17.6894 19.3438 17.1372V11.0155C19.205 11.3007 19.0614 11.5996 18.9097 11.9215C18.5184 12.7516 17.332 12.7705 16.9251 11.9341L16.5029 11.0664V17.1372C16.5029 17.6894 16.0552 18.1372 15.5029 18.1372C14.9506 18.1372 14.5029 17.6894 14.5029 17.1372V6.82812C14.5029 6.27584 14.9506 5.82812 15.5029 5.82812Z" fill="#828B95"/>
<path d="M2.65381 9.33398C2.65381 7.40098 4.22081 5.83398 6.15381 5.83398H6.7959C7.34818 5.83398 7.7959 6.2817 7.7959 6.83398C7.7959 7.38627 7.34818 7.83398 6.7959 7.83398H6.15381C5.32538 7.83398 4.65381 8.50556 4.65381 9.33398V14.6177C4.65381 15.4461 5.32538 16.1177 6.15381 16.1177H6.7959C7.34818 16.1177 7.7959 16.5654 7.7959 17.1177C7.7959 17.6699 7.34818 18.1177 6.7959 18.1177H6.15381C4.22081 18.1177 2.65381 16.5507 2.65381 14.6177V9.33398Z" fill="#828B95"/>
<path fill-rule="evenodd" clip-rule="evenodd" d="M10.1822 13.9023C10.3724 13.9023 10.5591 13.8876 10.7413 13.8592L11.8375 17.503C11.9968 18.0323 12.557 18.342 13.0889 18.1949C13.6207 18.0477 13.9228 17.4993 13.7636 16.97L12.5685 12.9979C13.313 12.3383 13.7822 11.3751 13.7822 10.3023V9.44659C13.7822 7.45836 12.1705 5.84659 10.1822 5.84659L9.15831 5.84659C8.60603 5.84659 8.15831 6.2943 8.15831 6.84659V6.98818C8.15759 7.00375 8.15723 7.01941 8.15723 7.03516V17.1403C8.15723 17.6925 8.60494 18.1403 9.15723 18.1403C9.70951 18.1403 10.1572 17.6925 10.1572 17.1403V13.9023H10.1822ZM10.1572 11.3414C10.1579 11.357 10.1583 11.3727 10.1583 11.3884V11.9023H10.1822C11.0659 11.9023 11.7822 11.186 11.7822 10.3023V9.44659C11.7822 8.56293 11.0659 7.84659 10.1822 7.84659H10.1583V8.51915C10.1583 8.53489 10.1579 8.55055 10.1572 8.56612V11.3414Z" fill="#828B95"/>
</svg>
