<svg width="24" height="24" viewBox="0 0 24 24" fill="none" xmlns="http://www.w3.org/2000/svg">
<path fill-rule="evenodd" clip-rule="evenodd" d="M19.2313 6.53585C20.0494 7.33188 20.5771 8.49243 20.6787 10.0139C20.826 12.2189 19.7028 14.1934 18.1982 15.8643C16.6871 17.5423 14.7034 19.0123 12.9305 20.2215C12.3818 20.5957 11.6621 20.6145 11.0947 20.2589C9.16614 19.0503 7.17511 17.5736 5.69239 15.8802C4.21276 14.1903 3.17482 12.2084 3.3214 10.0139C3.42283 8.49547 3.9419 7.33576 4.75062 6.53915C5.55565 5.74618 6.59093 5.3691 7.62554 5.30927C9.22345 5.21686 10.9532 5.88438 11.986 7.1221C12.9964 5.87777 14.7352 5.21616 16.3341 5.30829C17.3737 5.3682 18.4179 5.74435 19.2313 6.53585Z" fill="#909090"/>
</svg>
