<svg width="24" height="24" viewBox="0 0 24 24" fill="none" xmlns="http://www.w3.org/2000/svg">
<path fill-rule="evenodd" clip-rule="evenodd" d="M6.25732 5.31934C5.15275 5.31934 4.25732 6.21477 4.25732 7.31934V15.8486H4.15361C3.76701 15.8486 3.45361 16.162 3.45361 16.5486C3.45361 16.9352 3.76701 17.2486 4.15361 17.2486L11.3438 17.2488V17.4153L9.16925 19.4597C8.88758 19.7245 8.87393 20.1675 9.13874 20.4492C9.40355 20.7309 9.84656 20.7445 10.1282 20.4797L12.0888 18.6364L13.9593 20.3954C14.2409 20.6603 14.6839 20.6467 14.9487 20.365C15.2136 20.0834 15.2 19.6404 14.9183 19.3755L12.7437 17.3306V17.2488L19.8685 17.2486C20.2551 17.2486 20.5685 16.9352 20.5685 16.5486C20.5685 16.162 20.2551 15.8486 19.8685 15.8486H19.7433V7.31934C19.7433 6.21477 18.8478 5.31934 17.7433 5.31934H6.25732ZM7.80293 8.39453C7.3611 8.39453 7.00293 8.7527 7.00293 9.19453V9.85918C7.00293 10.301 7.3611 10.6592 7.80293 10.6592H10.3465C10.7883 10.6592 11.1465 10.301 11.1465 9.85918V9.19453C11.1465 8.7527 10.7883 8.39453 10.3465 8.39453H7.80293ZM7.80293 11.5312C7.3611 11.5312 7.00293 11.8894 7.00293 12.3312V13.0359C7.00293 13.4777 7.3611 13.8359 7.80293 13.8359H10.3465C10.7883 13.8359 11.1465 13.4777 11.1465 13.0359V12.3313C11.1465 11.8894 10.7883 11.5312 10.3465 11.5312H7.80293ZM12.7759 11.041C12.7759 9.84476 13.7456 8.875 14.9419 8.875C16.1382 8.875 17.1079 9.84476 17.1079 11.041C17.1079 12.2373 16.1382 13.207 14.9419 13.207C13.7456 13.207 12.7759 12.2373 12.7759 11.041Z" fill="#828B95"/>
</svg>
