<svg width="24" height="24" viewBox="0 0 24 24" fill="none" xmlns="http://www.w3.org/2000/svg">
<path d="M14.5476 3.53211C15.1029 3.69919 15.4176 4.28481 15.2505 4.84011L10.7599 19.7649C10.5928 20.3202 10.0072 20.6349 9.45185 20.4679C8.89654 20.3008 8.58182 19.7152 8.74891 19.1599L13.2396 4.23505C13.4066 3.67974 13.9923 3.36503 14.5476 3.53211Z" fill="#828B95"/>
<path d="M8.18343 6.78307C8.62525 7.11444 8.7148 7.74124 8.38343 8.18307L5.521 11.9996L8.38343 15.8162C8.7148 16.258 8.62525 16.8848 8.18343 17.2162C7.7416 17.5476 7.1148 17.458 6.78343 17.0162L3.471 12.5996C3.20433 12.2441 3.20433 11.7552 3.471 11.3996L6.78343 6.98307C7.1148 6.54124 7.7416 6.4517 8.18343 6.78307Z" fill="#828B95"/>
<path d="M17.2166 6.98307C16.8852 6.54124 16.2584 6.4517 15.8166 6.78307C15.3747 7.11444 15.2852 7.74124 15.6166 8.18307L18.479 11.9996L15.6166 15.8162C15.2852 16.258 15.3747 16.8848 15.8166 17.2162C16.2584 17.5476 16.8852 17.458 17.2166 17.0162L20.529 12.5996C20.7957 12.2441 20.7957 11.7552 20.529 11.3996L17.2166 6.98307Z" fill="#828B95"/>
</svg>
