<svg width="24" height="24" viewBox="0 0 24 24" fill="none" xmlns="http://www.w3.org/2000/svg">
<path fill-rule="evenodd" clip-rule="evenodd" d="M10.6337 18.5028C10.8478 18.6522 10.9464 18.9305 10.8573 19.1897C10.7497 19.5031 10.4083 19.6698 10.0949 19.5621C7.36496 18.6242 5.3999 16.2916 5.3999 13.3697C5.3999 11.3084 6.53278 9.20485 7.91703 7.49123C9.3096 5.76732 11.0412 4.33316 12.4033 3.61905C13.0219 3.29473 13.5894 3.83915 13.5719 4.36953C13.5217 5.89003 14.5269 7.00931 15.8175 8.44636L15.887 8.52377C17.1494 9.92982 18.5999 11.5991 18.5999 14.0728C18.5999 16.0602 17.351 17.4466 16.2144 18.2973C15.639 18.728 15.0672 19.0415 14.641 19.2472C14.4271 19.3505 14.2478 19.4275 14.1202 19.4794C14.0564 19.5053 14.0054 19.525 13.9694 19.5386C13.9513 19.5454 13.937 19.5506 13.9267 19.5544L13.9142 19.5589L13.9103 19.5603L13.9089 19.5607C13.9089 19.5607 13.9086 19.5609 13.8893 19.5064L13.9079 19.5611C13.5951 19.6705 13.2529 19.5055 13.1435 19.1927C13.0515 18.9296 13.1536 18.6455 13.3747 18.4969C13.3944 18.4763 13.4158 18.4569 13.439 18.4389L13.4448 18.4342C13.4509 18.4292 13.4616 18.4204 13.4761 18.4079C13.5052 18.383 13.5494 18.3436 13.6038 18.2909C13.7133 18.1848 13.8605 18.0279 14.0073 17.8288C14.3051 17.4248 14.5723 16.8872 14.5723 16.2683C14.5723 15.4927 14.1427 14.886 13.5203 14.0431L13.5048 14.0222C13.0116 13.3544 12.4249 12.5601 12.1739 11.5163C10.7695 12.533 9.42803 13.8382 9.42803 15.7396C9.42803 16.5876 9.84977 17.5013 10.6337 18.5028Z" fill="#828B95"/>
</svg>
