<svg width="24" height="24" viewBox="0 0 24 24" fill="none" xmlns="http://www.w3.org/2000/svg">
<path fill-rule="evenodd" clip-rule="evenodd" d="M10.0229 5.45104C10.9146 3.95252 13.0844 3.95252 13.976 5.45104L19.73 15.1211C20.7216 16.7875 19.5207 18.8994 17.5816 18.8994H6.41741C4.47826 18.8994 3.27739 16.7875 4.26898 15.1211L10.0229 5.45104ZM11.9999 7.92748C11.5304 7.92748 11.1499 8.30804 11.1499 8.77748V12.8924C11.1499 13.3619 11.5304 13.7424 11.9999 13.7424C12.4693 13.7424 12.8499 13.3619 12.8499 12.8924V8.77748C12.8499 8.30804 12.4693 7.92748 11.9999 7.92748ZM11.0499 15.464C11.0499 14.9393 11.4752 14.514 11.9999 14.514C12.5245 14.514 12.9499 14.9393 12.9499 15.464V15.5338C12.9499 16.0584 12.5245 16.4838 11.9999 16.4838C11.4752 16.4838 11.0499 16.0584 11.0499 15.5338V15.464Z" fill="#909090"/>
</svg>
