<svg width="24" height="24" viewBox="0 0 24 24" fill="none" xmlns="http://www.w3.org/2000/svg">
<path fill-rule="evenodd" clip-rule="evenodd" d="M17.8609 4.47751L18.2763 5.86684L19.6031 6.23408C20.1944 6.39773 20.389 7.1386 19.9545 7.5717L18.0203 9.49968C17.8152 9.70407 17.5157 9.78172 17.2372 9.70271L15.915 9.32767L13.7952 11.4475C13.8547 11.6303 13.8868 11.8255 13.8868 12.0281C13.8868 13.0641 13.047 13.9039 12.011 13.9039C10.9751 13.9039 10.1353 13.0641 10.1353 12.0281C10.1353 10.9922 10.9751 10.1523 12.011 10.1523C12.2535 10.1523 12.4852 10.1983 12.6979 10.2821L14.7694 8.21053L14.3737 6.88288C14.2896 6.60088 14.3672 6.29549 14.5756 6.08775L16.5296 4.14006C16.9582 3.71289 17.6875 3.89777 17.8609 4.47751Z" fill="#909090"/>
<path d="M8.64753 6.47946C9.76121 5.80433 11.0523 5.47993 12.3528 5.54844C12.794 5.57168 13.1705 5.23285 13.1938 4.79163C13.217 4.35042 12.8782 3.9739 12.437 3.95066C10.8158 3.86525 9.20638 4.26964 7.8181 5.11123C6.42982 5.95282 5.3269 7.19266 4.65276 8.66952C3.97862 10.1464 3.76446 11.7919 4.03813 13.3921C4.31181 14.9924 5.06065 16.4732 6.18727 17.6421C7.3139 18.811 8.76617 19.6138 10.3552 19.9462C11.9443 20.2786 13.5966 20.1252 15.0973 19.5059C16.5979 18.8865 17.8775 17.83 18.7697 16.4736C19.6618 15.1173 20.1251 13.5239 20.0995 11.9006C20.0925 11.4589 19.7287 11.1064 19.2869 11.1134C18.8452 11.1204 18.4927 11.4842 18.4997 11.9259C18.5203 13.2281 18.1486 14.5063 17.4329 15.5944C16.7172 16.6825 15.6907 17.53 14.4869 18.0269C13.283 18.5237 11.9576 18.6468 10.6828 18.3801C9.40808 18.1135 8.24306 17.4694 7.33928 16.5317C6.4355 15.594 5.83478 14.4061 5.61524 13.1224C5.39569 11.8387 5.56749 10.5187 6.10829 9.33393C6.64908 8.14918 7.53385 7.15458 8.64753 6.47946Z" fill="#909090"/>
<path d="M10.1651 8.80634C10.8172 8.43267 11.5674 8.26566 12.3165 8.32739C12.7568 8.36368 13.1432 8.03614 13.1795 7.59581C13.2158 7.15547 12.8882 6.76909 12.4479 6.7328C11.3761 6.64447 10.3027 6.88343 9.36964 7.41809C8.43655 7.95275 7.68766 8.75795 7.22192 9.72729C6.75618 10.6966 6.59552 11.7845 6.76118 12.847C6.92683 13.9096 7.411 14.8969 8.14971 15.6785C8.88841 16.46 9.84687 16.9991 10.8984 17.2243C11.95 17.4496 13.0452 17.3505 14.0392 16.9401C15.0332 16.5297 15.8793 15.8273 16.4657 14.9259C17.0521 14.0244 17.3511 12.9662 17.3233 11.8911C17.3119 11.4495 16.9446 11.1007 16.5029 11.1121C16.0612 11.1235 15.7124 11.4908 15.7239 11.9325C15.7433 12.6838 15.5343 13.4234 15.1245 14.0534C14.7147 14.6835 14.1233 15.1743 13.4286 15.4612C12.7339 15.748 11.9685 15.8173 11.2336 15.6598C10.4986 15.5024 9.82878 15.1257 9.31251 14.5794C8.79624 14.0332 8.45786 13.3432 8.34208 12.6006C8.22631 11.8579 8.33859 11.0977 8.66409 10.4202C8.98959 9.74275 9.51299 9.18001 10.1651 8.80634Z" fill="#909090"/>
</svg>
