<svg width="24" height="24" viewBox="0 0 24 24" fill="none" xmlns="http://www.w3.org/2000/svg">
<path fill-rule="evenodd" clip-rule="evenodd" d="M5.50322 4.94531C4.01205 4.94531 2.80322 6.14843 2.80322 7.63254V14.5071C2.80322 15.9912 4.01205 17.1943 5.50322 17.1943H16.2669C17.7581 17.1943 18.9669 15.9912 18.9669 14.5071V7.63254C18.9669 6.14843 17.7581 4.94531 16.2669 4.94531H5.50322ZM4.88113 13.5501C5.57403 13.218 6.46308 13.0684 7.20022 13.0684C7.93736 13.0684 8.71835 13.2097 9.41125 13.5417C10.1311 13.8867 10.7155 14.5196 10.8493 15.412C10.9273 15.9323 10.6712 16.1124 10.2019 16.1124H5.7312L5.73827 16.1018C5.73827 16.1018 4.57818 16.2123 4.18068 15.209C3.86378 14.4092 4.2495 14.0101 4.2495 14.0101L4.24301 14.0109C4.43634 13.8289 4.65328 13.6702 4.88113 13.5501ZM6.22953 8.69628C4.9672 9.60433 5.38614 12.1741 7.16903 12.1741C9.30953 12.1741 9.49433 8.40345 7.16905 8.40345C6.84204 8.40345 6.43914 8.5455 6.22953 8.69628ZM11.2183 8.32246C10.8317 8.32246 10.5183 8.63586 10.5183 9.02246C10.5183 9.40906 10.8317 9.72246 11.2183 9.72246H15.5133C15.8999 9.72246 16.2133 9.40906 16.2133 9.02246C16.2133 8.63586 15.8999 8.32246 15.5133 8.32246H11.2183ZM10.5183 11.6436C10.5183 11.257 10.8317 10.9436 11.2183 10.9436H14.0672C14.4538 10.9436 14.7672 11.257 14.7672 11.6436C14.7672 12.0302 14.4538 12.3436 14.0672 12.3436H11.2183C10.8317 12.3436 10.5183 12.0302 10.5183 11.6436Z" fill="#909090"/>
<path d="M8.57699 19.2952C7.58494 19.2952 6.71785 18.7601 6.24854 17.9629H17.7275C17.9178 17.9629 18.1018 17.9363 18.2762 17.8867C19.0821 17.8039 19.7107 17.123 19.7107 16.2952V16.2237C19.7218 16.1384 19.7275 16.0513 19.7275 15.9629V7.92969C20.5528 8.39162 21.1107 9.27431 21.1107 10.2873V16.2952C21.1107 17.952 19.7675 19.2952 18.1107 19.2952H8.57699Z" fill="#909090"/>
</svg>
