<svg width="24" height="24" viewBox="0 0 24 24" fill="none" xmlns="http://www.w3.org/2000/svg">
<path d="M5.03726 8.08923C4.79262 7.84459 4.38017 7.9176 4.2697 8.24546C3.52088 10.4679 4.06451 13.063 5.88155 14.8801C7.63682 16.6353 10.1182 17.2023 12.2883 16.5638C12.6345 16.4619 13.016 16.5341 13.2712 16.7893L16.3808 19.8989C17.0838 20.6018 18.2235 20.6018 18.9264 19.8989L19.8594 18.966C20.5623 18.263 20.5623 17.1233 19.8594 16.4204L16.6855 13.2465C16.437 12.998 16.3616 12.629 16.4521 12.2894C17.0202 10.1567 16.4393 7.75032 14.7253 6.03633C12.9594 4.27047 10.4586 3.7073 8.2793 4.36429C7.94217 4.46592 7.86117 4.88605 8.11015 5.13503L11.2449 8.26979C11.6354 8.66031 11.6354 9.29348 11.2449 9.684L9.64557 11.2833C9.25505 11.6739 8.62188 11.6739 8.23136 11.2833L5.03726 8.08923Z" fill="#8E8E8E"/>
</svg>
