<svg width="24" height="24" viewBox="0 0 24 24" fill="none" xmlns="http://www.w3.org/2000/svg">
<path fill-rule="evenodd" clip-rule="evenodd" d="M7.38094 7.19969C8.99344 5.58719 11.2402 5.95232 12.1265 6.81467C12.755 7.42624 13.561 8.23778 14.3747 9.05841C14.4258 9.10989 14.4768 9.16141 14.5279 9.21291C15.2868 9.97832 16.0423 10.7403 16.6419 11.3284C17.0362 11.7151 17.6693 11.7089 18.056 11.3146C18.4428 10.9203 18.4366 10.2872 18.0423 9.90046C17.4531 9.32265 16.7071 8.57026 15.9441 7.80069C15.8944 7.75058 15.8447 7.7004 15.7949 7.65019C14.9845 6.83289 14.1651 6.00775 13.5212 5.38125C11.8627 3.76748 8.36428 3.38792 5.96673 5.78547C3.57589 8.17629 3.95464 11.6025 5.54747 13.1953C6.49751 14.1454 9.45258 17.0095 11.0004 18.5097C11.4141 18.9107 11.7273 19.2143 11.8747 19.3577C12.4463 19.9139 13.4374 20.2808 14.3967 20.3631C15.387 20.4479 16.6017 20.2509 17.5196 19.3577C19.1858 17.7365 19.1192 15.1778 17.7039 13.8006C17.2069 13.317 15.7467 11.8977 14.367 10.5567C14.0176 10.2171 13.6733 9.8825 13.3512 9.56938C12.4009 8.64579 11.6428 7.90901 11.5112 7.7809C11.1754 7.4542 10.6345 7.17412 10.0343 7.09672C9.38926 7.01353 8.62631 7.16227 7.99053 7.7809C7.36878 8.38587 7.17727 9.13584 7.19276 9.75778C7.20042 10.0654 7.25803 10.3557 7.34723 10.607C7.42936 10.8384 7.56628 11.1153 7.78814 11.3311C8.06528 11.6008 11.7564 15.2772 12.1168 15.6375C12.5073 16.0281 13.1404 16.0281 13.531 15.6375C13.9215 15.247 13.9215 14.6139 13.531 14.2233C13.1904 13.8828 9.77635 10.4822 9.23664 9.95045C9.23519 9.94671 9.23363 9.94254 9.23199 9.93792C9.21257 9.88322 9.19448 9.80174 9.19214 9.70799C9.18764 9.52727 9.23898 9.35667 9.38527 9.21432C9.46266 9.13902 9.52852 9.10771 9.57992 9.09239C9.63541 9.07586 9.70124 9.07033 9.77854 9.0803C9.85775 9.09051 9.9385 9.11591 10.0094 9.1498C10.076 9.18161 10.1105 9.20959 10.1158 9.2139C10.1162 9.21421 10.1165 9.21447 10.1158 9.2139C10.2481 9.34255 11.0089 10.0819 11.9608 11.007C12.282 11.3192 12.625 11.6526 12.973 11.9909C14.353 13.3322 15.8127 14.7509 16.3092 15.2341C16.881 15.7904 17.0211 17.0523 16.1249 17.9243C15.7616 18.2778 15.2051 18.425 14.5675 18.3704C13.8989 18.3131 13.4056 18.0567 13.2695 17.9243C13.1165 17.7755 12.7954 17.4642 12.3733 17.0551C10.8196 15.5492 7.89843 12.7179 6.96169 11.7811C6.15931 10.9787 5.76171 8.8189 7.38094 7.19969Z" fill="#909090"/>
</svg>
