<svg width="24" height="24" viewBox="0 0 24 24" fill="none" xmlns="http://www.w3.org/2000/svg">
<path d="M9.35146 4.51973C9.35146 4.0779 8.99329 3.71973 8.55147 3.71973C8.10964 3.71973 7.75146 4.0779 7.75146 4.51973V5.01466L6.69365 5.01466C5.20248 5.01467 3.99365 6.2235 3.99365 7.71467V16.2988C3.99365 17.79 5.20248 18.9988 6.69365 18.9988H15.1705C15.5019 18.9988 15.7705 18.7302 15.7705 18.3988C15.7705 18.0675 15.5019 17.7988 15.1705 17.7988H6.69365C5.86523 17.7988 5.19365 17.1273 5.19365 16.2988V7.71467C5.19365 6.88624 5.86522 6.21467 6.69365 6.21466L7.75147 6.21466V6.94941C7.75147 7.39124 8.10964 7.74941 8.55147 7.74941C8.99329 7.74941 9.35147 7.39124 9.35147 6.94941V6.21466L15.1705 6.21465C15.5019 6.21465 15.7705 5.94602 15.7705 5.61465C15.7705 5.28328 15.5019 5.01465 15.1705 5.01465L9.35146 5.01466V4.51973Z" fill="#333333"/>
<path fill-rule="evenodd" clip-rule="evenodd" d="M11.654 9.32129C11.2122 9.32129 10.854 9.67946 10.854 10.1213V10.9674C10.854 11.4092 11.2122 11.7674 11.654 11.7674H12.4621C12.9039 11.7674 13.2621 11.4092 13.2621 10.9674V10.1213C13.2621 9.67946 12.9039 9.32129 12.4621 9.32129H11.654ZM12.054 10.5213V10.5674H12.0621V10.5213H12.054Z" fill="#333333"/>
<path fill-rule="evenodd" clip-rule="evenodd" d="M7.17383 10.1213C7.17383 9.67946 7.532 9.32129 7.97383 9.32129H8.78193C9.22376 9.32129 9.58193 9.67946 9.58193 10.1213V10.9674C9.58193 11.4092 9.22376 11.7674 8.78193 11.7674H7.97383C7.532 11.7674 7.17383 11.4092 7.17383 10.9674V10.1213ZM8.37383 10.5674V10.5213H8.38193V10.5674H8.37383Z" fill="#333333"/>
<path fill-rule="evenodd" clip-rule="evenodd" d="M7.97383 13.1455C7.532 13.1455 7.17383 13.5037 7.17383 13.9455V14.7916C7.17383 15.2334 7.532 15.5916 7.97383 15.5916H8.78193C9.22376 15.5916 9.58193 15.2334 9.58193 14.7916V13.9455C9.58193 13.5037 9.22376 13.1455 8.78193 13.1455H7.97383ZM8.37383 14.3455V14.3916H8.38193V14.3455H8.37383Z" fill="#333333"/>
<path d="M18.1313 17.292C18.4626 17.292 18.7312 17.0234 18.7312 16.692L18.7313 9.0788L19.707 10.0545C19.9413 10.2889 20.3212 10.2889 20.5555 10.0545C20.7898 9.82022 20.7898 9.44032 20.5555 9.20601L18.5748 7.22526C18.465 7.10489 18.307 7.02936 18.1312 7.02936C17.9555 7.02936 17.7975 7.10489 17.6878 7.22524L15.707 9.20601C15.4727 9.44032 15.4727 9.82022 15.707 10.0545C15.9413 10.2889 16.3212 10.2889 16.5555 10.0545L17.5313 9.0788L17.5312 16.692C17.5312 17.0234 17.7999 17.292 18.1313 17.292Z" fill="#333333"/>
</svg>
