<svg width="24" height="24" viewBox="0 0 24 24" fill="none" xmlns="http://www.w3.org/2000/svg">
<path fill-rule="evenodd" clip-rule="evenodd" d="M13.6696 6.4596C13.6696 6.21835 13.3993 6.07577 13.2002 6.21202L8.90235 9.15298C8.80236 9.2214 8.68399 9.25795 8.56283 9.25781C7.70857 9.25682 6.98792 9.25713 6.22469 9.25746C6.10847 9.25751 5.99125 9.25756 5.87243 9.25761C5.70644 9.25767 5.5721 9.39224 5.5721 9.55781L5.57207 14.432C5.57207 14.5975 5.70641 14.7321 5.87238 14.7322C5.99109 14.7322 6.1082 14.7323 6.22432 14.7323C6.98767 14.7326 7.70844 14.7329 8.56285 14.732C8.68214 14.7318 8.79877 14.7673 8.89782 14.8337L13.2025 17.7221C13.4018 17.8558 13.6696 17.713 13.6696 17.4729V6.4596ZM12.5225 5.22168C13.5181 4.54047 14.8696 5.25332 14.8696 6.4596V17.4729C14.8696 18.673 13.5304 19.3872 12.5339 18.7185L8.38116 15.9322C7.60447 15.9329 6.93199 15.9326 6.22367 15.9323C6.10759 15.9323 5.99055 15.9322 5.87193 15.9322C5.04379 15.9318 4.37206 15.2605 4.37207 14.432L4.3721 9.5578C4.37211 8.72926 5.04383 8.05793 5.87196 8.05761C5.99071 8.05756 6.10788 8.05751 6.22409 8.05746C6.93134 8.05715 7.60289 8.05686 8.37817 8.05761L12.5225 5.22168Z" fill="#333333"/>
<path fill-rule="evenodd" clip-rule="evenodd" d="M17.8392 6.16499C18.0506 5.90981 18.4288 5.87432 18.684 6.08572C20.5503 7.63178 21.6275 9.75564 21.6275 12.0003C21.6275 14.2449 20.5502 16.3687 18.684 17.9148C18.4289 18.1262 18.0506 18.0908 17.8392 17.8356C17.6278 17.5804 17.6633 17.2022 17.9185 16.9908C19.5433 15.6446 20.4275 13.8459 20.4275 12.0003C20.4275 10.1546 19.5433 8.35586 17.9185 7.0098C17.6633 6.7984 17.6278 6.42017 17.8392 6.16499Z" fill="#333333"/>
<path fill-rule="evenodd" clip-rule="evenodd" d="M16.1879 8.31498C16.3993 8.0598 16.7775 8.02431 17.0327 8.23571C18.2107 9.2116 18.9012 10.5621 18.9012 12.0004C18.9012 13.4386 18.2106 14.7891 17.0327 15.765C16.7775 15.9764 16.3993 15.9409 16.1879 15.6858C15.9765 15.4306 16.0119 15.0524 16.2671 14.841C17.2037 14.065 17.7012 13.0396 17.7012 12.0004C17.7012 10.9611 17.2037 9.93568 16.2671 9.1598C16.0119 8.9484 15.9765 8.57016 16.1879 8.31498Z" fill="#333333"/>
</svg>
