<svg width="24" height="24" viewBox="0 0 24 24" fill="none" xmlns="http://www.w3.org/2000/svg">
<path fill-rule="evenodd" clip-rule="evenodd" d="M4.67236 7.58398C4.67236 6.47941 5.56779 5.58398 6.67236 5.58398H15.6264C16.2944 5.58398 16.9183 5.9175 17.2894 6.47295L20.3142 11.0005C20.7185 11.6058 20.7185 12.395 20.3142 13.0003L17.2894 17.5278C16.9183 18.0833 16.2944 18.4168 15.6264 18.4168H6.67236C5.56779 18.4168 4.67236 17.5214 4.67236 16.4168V7.58398ZM6.67236 6.78398C6.23054 6.78398 5.87236 7.14216 5.87236 7.58398V16.4168C5.87236 16.8586 6.23054 17.2168 6.67236 17.2168H15.6264C15.8936 17.2168 16.1432 17.0834 16.2916 16.8612L19.3164 12.3337C19.4512 12.1319 19.4512 11.8688 19.3164 11.6671L16.2916 7.13957C16.1432 6.91739 15.8936 6.78398 15.6264 6.78398H6.67236Z" fill="#333333"/>
</svg>
