<svg width="24" height="24" viewBox="0 0 24 24" fill="none" xmlns="http://www.w3.org/2000/svg">
<path fill-rule="evenodd" clip-rule="evenodd" d="M11.9999 7.89941C10.5745 7.89941 9.41895 9.05495 9.41895 10.4804C9.41895 11.9058 10.5745 13.0613 11.9999 13.0613C13.4253 13.0613 14.5809 11.9058 14.5809 10.4804C14.5809 9.05495 13.4253 7.89941 11.9999 7.89941ZM10.6189 10.4804C10.6189 9.71769 11.2372 9.09941 11.9999 9.09941C12.7626 9.09941 13.3809 9.71769 13.3809 10.4804C13.3809 11.2431 12.7626 11.8613 11.9999 11.8613C11.2372 11.8613 10.6189 11.2431 10.6189 10.4804Z" fill="#828B95"/>
<path fill-rule="evenodd" clip-rule="evenodd" d="M6.7361 17.4365H6.19951C4.98449 17.4365 3.99951 16.4516 3.99951 15.2365V8.76153C3.99951 7.5465 4.98448 6.56152 6.19951 6.56152H6.73392C6.83343 5.16097 8.00116 4.05566 9.42705 4.05566H14.572C15.9979 4.05566 17.1656 5.16097 17.2651 6.56152H17.8C19.015 6.56152 20 7.5465 20 8.76153V15.2365C20 16.4516 19.015 17.4365 17.8 17.4365H17.2629C17.1497 18.8235 15.9882 19.9139 14.572 19.9139H9.42705C8.01086 19.9139 6.84932 18.8235 6.7361 17.4365ZM6.72705 7.76152H6.19951C5.64723 7.76152 5.19951 8.20924 5.19951 8.76153V15.2365C5.19951 15.7888 5.64723 16.2365 6.19951 16.2365H6.72705V7.76152ZM17.272 16.2365V7.76152H17.8C18.3523 7.76152 18.8 8.20924 18.8 8.76153V15.2365C18.8 15.7888 18.3523 16.2365 17.8 16.2365H17.272ZM7.92705 6.75566C7.92705 5.92724 8.59862 5.25566 9.42705 5.25566H14.572C15.4004 5.25566 16.072 5.92724 16.072 6.75566V17.2139C16.072 18.0423 15.4004 18.7139 14.572 18.7139H9.42705C8.59862 18.7139 7.92705 18.0423 7.92705 17.2139V6.75566Z" fill="#828B95"/>
</svg>
