<svg width="24" height="24" viewBox="0 0 24 24" fill="none" xmlns="http://www.w3.org/2000/svg">
<path fill-rule="evenodd" clip-rule="evenodd" d="M4 9.29707H3.43643C3.10506 9.29707 2.83643 9.5657 2.83643 9.89707C2.83643 10.2284 3.10505 10.4971 3.43643 10.4971H4V16.2502C4 17.7414 5.20883 18.9502 6.7 18.9502H17.3C18.7912 18.9502 20 17.7414 20 16.2502V10.4971H20.5635C20.8948 10.4971 21.1635 10.2284 21.1635 9.89707C21.1635 9.5657 20.8948 9.29707 20.5635 9.29707H20V7.7498C20 6.25864 18.7912 5.0498 17.3 5.0498H6.7C5.20883 5.0498 4 6.25864 4 7.7498V9.29707ZM10.0994 6.2498H13.8247V9.29707L10.0994 9.29707V6.2498ZM8.89941 9.29707V6.2498H6.7C5.87157 6.2498 5.2 6.92138 5.2 7.7498V9.29707L8.89941 9.29707ZM5.2 10.4971L8.89941 10.4971V17.7502H6.7C5.87157 17.7502 5.2 17.0786 5.2 16.2502V10.4971ZM18.8 9.29707V7.7498C18.8 6.92138 18.1284 6.2498 17.3 6.2498H15.0247V9.29707L18.8 9.29707ZM13.8247 10.4971V17.7502H10.0994V10.4971L13.8247 10.4971ZM15.0247 10.4971L18.8 10.4971V16.2502C18.8 17.0786 18.1284 17.7502 17.3 17.7502H15.0247V10.4971Z" fill="#909090"/>
</svg>
