<svg width="24" height="24" viewBox="0 0 24 24" fill="none" xmlns="http://www.w3.org/2000/svg">
<path fill-rule="evenodd" clip-rule="evenodd" d="M8.18202 8.28591L8.33661 8.13132C8.34637 8.12156 8.35639 8.1122 8.36663 8.10325C11.2889 5.24303 13.7914 4.26991 15.8242 4.30769C17.8976 4.34623 19.3428 5.43391 20.1097 6.345C20.5671 6.88839 20.5163 7.61997 20.1658 8.13004C20.104 8.22003 20.0357 8.28864 19.9874 8.33396C19.303 8.97707 18.7493 9.46818 18.3129 9.85497C17.869 10.2484 17.5676 10.5159 17.3604 10.7314C17.3118 10.7819 17.2196 10.8761 17.091 10.9518C16.6758 11.1961 16.144 11.2239 15.6954 10.9469C15.2663 10.6818 14.648 10.2031 14.0766 9.40541C14.0608 9.38336 14.0473 9.36607 14.0355 9.35244C14.0284 9.34414 14.0225 9.33793 14.018 9.3334C13.9089 9.30992 13.7387 9.31159 13.4987 9.37079C13.2451 9.43333 12.9553 9.5498 12.6508 9.70871C12.0393 10.0278 11.4353 10.4828 11.0378 10.8803L10.931 10.9871C10.5335 11.3846 10.0785 11.9886 9.75942 12.6001C9.6005 12.9046 9.48403 13.1944 9.42149 13.448C9.3623 13.688 9.36062 13.8582 9.3841 13.9673C9.38863 13.9718 9.39484 13.9777 9.40314 13.9848C9.41678 13.9966 9.43406 14.0101 9.45611 14.0259C10.2538 14.5973 10.7325 15.2156 10.9976 15.6447C11.3065 16.1448 11.2356 16.7426 10.9145 17.1726C10.9011 17.1905 10.8868 17.2076 10.8715 17.2239C10.3065 17.8266 9.52874 18.653 8.21684 20.0378C8.19766 20.0581 8.17711 20.0769 8.15531 20.0943C7.64049 20.5048 6.85578 20.5917 6.27877 20.106C5.35912 19.3319 4.30569 17.8698 4.29983 15.7875C4.29409 13.7481 5.29348 11.2376 8.15414 8.31572C8.16304 8.30554 8.17233 8.2956 8.18202 8.28591ZM9.10779 9.05755C6.3034 11.8881 5.49521 14.1464 5.49982 15.7841C5.50448 17.4368 6.33702 18.5865 7.05152 19.1879C7.11571 19.2419 7.24514 19.2682 7.38049 19.1758C8.64757 17.8382 9.41063 17.0276 9.96637 16.4349C9.98565 16.4033 9.99363 16.3738 9.99527 16.3504C9.99713 16.3241 9.99169 16.2997 9.97662 16.2753C9.78008 15.9571 9.40454 15.465 8.75731 15.0014C8.60496 14.8923 8.33439 14.6762 8.23395 14.3134C8.12847 13.9324 8.16587 13.5277 8.2564 13.1607C8.34849 12.7872 8.50725 12.4057 8.69557 12.0449C9.07093 11.3256 9.59841 10.6226 10.0824 10.1386L10.1893 10.0317C10.6733 9.54771 11.3763 9.02023 12.0956 8.64487C12.4564 8.45655 12.8379 8.29779 13.2114 8.2057C13.5784 8.11516 13.9831 8.07777 14.3641 8.18325C14.7269 8.28369 14.943 8.55426 15.0521 8.70661C15.5157 9.35384 16.0079 9.72938 16.326 9.92592C16.3484 9.93975 16.3702 9.94515 16.3929 9.94491C16.4143 9.94468 16.4415 9.93913 16.4715 9.92358C16.4715 9.92358 16.4744 9.92089 16.4761 9.91914C16.4811 9.91426 16.4873 9.90805 16.4955 9.89954C16.7382 9.64715 17.0733 9.35015 17.4874 8.98314L17.5169 8.95695C17.9521 8.57121 18.4948 8.08986 19.1657 7.45948C19.1734 7.45222 19.178 7.44753 19.1806 7.4448C19.2716 7.30788 19.246 7.18234 19.1916 7.11775C18.583 6.39469 17.4399 5.53793 15.8019 5.50749C14.1807 5.47736 11.9374 6.25416 9.10779 9.05755Z" fill="#333333"/>
</svg>
