<svg width="24" height="24" viewBox="0 0 24 24" fill="none" xmlns="http://www.w3.org/2000/svg">
<path d="M10.3627 2.3916C10.0313 2.3916 9.7627 2.66023 9.7627 2.9916C9.7627 3.32297 10.0313 3.5916 10.3627 3.5916H13.6372C13.9686 3.5916 14.2372 3.32297 14.2372 2.9916C14.2372 2.66023 13.9686 2.3916 13.6372 2.3916H10.3627Z" fill="#333333"/>
<path d="M12.4876 8.24551C12.4876 7.91414 12.219 7.64551 11.8876 7.64551C11.5562 7.64551 11.2876 7.91414 11.2876 8.24551V12.3489C11.2876 12.5081 11.3508 12.6607 11.4633 12.7732C11.5759 12.8857 11.7285 12.9489 11.8876 12.9489L15.3406 12.9489C15.672 12.9489 15.9406 12.6803 15.9406 12.3489C15.9406 12.0175 15.672 11.7489 15.3406 11.7489L12.4876 11.7489V8.24551Z" fill="#333333"/>
<path d="M19.2964 9.81965C19.5548 10.5893 19.6948 11.4133 19.6948 12.27C19.6948 16.5197 16.2497 19.9648 12 19.9648C7.75025 19.9648 4.30518 16.5197 4.30518 12.27C4.30518 8.02027 7.75025 4.5752 12 4.5752C12.9324 4.5752 13.826 4.74103 14.6531 5.04481C14.5021 5.41288 14.4098 5.81124 14.3879 6.22824C13.6487 5.93586 12.8431 5.7752 12 5.7752C8.41299 5.7752 5.50518 8.68301 5.50518 12.27C5.50518 15.857 8.41299 18.7648 12 18.7648C15.5869 18.7648 18.4948 15.857 18.4948 12.27C18.4948 11.4909 18.3576 10.7438 18.106 10.0516C18.5242 10.0411 18.9248 9.96 19.2964 9.81965Z" fill="#333333"/>
<path fill-rule="evenodd" clip-rule="evenodd" d="M20.6678 6.42254C20.6678 7.88829 19.4796 9.07652 18.0138 9.07652C16.5481 9.07652 15.3599 7.88829 15.3599 6.42254C15.3599 4.95678 16.5481 3.76855 18.0138 3.76855C19.4796 3.76855 20.6678 4.95678 20.6678 6.42254ZM19.4678 6.42254C19.4678 7.22555 18.8169 7.87652 18.0138 7.87652C17.2108 7.87652 16.5599 7.22555 16.5599 6.42254C16.5599 5.61953 17.2108 4.96855 18.0138 4.96855C18.8169 4.96855 19.4678 5.61953 19.4678 6.42254Z" fill="#333333"/>
</svg>
