<svg width="24" height="24" viewBox="0 0 24 24" fill="none" xmlns="http://www.w3.org/2000/svg">
<path d="M16.3369 10.4285C16.5405 10.6151 16.8568 10.6014 17.0434 10.3978C17.23 10.1942 17.2162 9.87796 17.0126 9.69137L12.362 5.4283C12.1709 5.25307 11.8775 5.25307 11.6863 5.4283L7.03568 9.69137C6.83212 9.87796 6.81837 10.1942 7.00496 10.3978C7.19156 10.6014 7.50784 10.6151 7.7114 10.4285L12.0242 6.47516L16.3369 10.4285Z" fill="#909090"/>
<path d="M17.0126 14.31C17.2162 14.1234 17.23 13.8071 17.0434 13.6035C16.8568 13.4 16.5405 13.3862 16.3369 13.5728L12.0242 17.5262L7.7114 13.5728C7.50784 13.3862 7.19156 13.4 7.00496 13.6035C6.81837 13.8071 6.83212 14.1234 7.03568 14.31L11.6863 18.5731C11.8775 18.7483 12.1709 18.7483 12.362 18.5731L17.0126 14.31Z" fill="#909090"/>
</svg>
