<svg width="24" height="24" viewBox="0 0 24 24" fill="none" xmlns="http://www.w3.org/2000/svg">
<path d="M17.6189 9.93975C17.8632 10.1637 18.2427 10.1472 18.4666 9.9029C18.6905 9.65862 18.674 9.27908 18.4298 9.05517L12.4298 3.55517C12.2004 3.34489 11.8483 3.34489 11.6189 3.55517L5.61888 9.05517C5.37461 9.27908 5.35811 9.65862 5.58203 9.9029C5.80594 10.1472 6.18548 10.1637 6.42976 9.93975L12.0243 4.8114L17.6189 9.93975Z" fill="#909090"/>
<path d="M18.4298 14.9466C18.674 14.7227 18.6905 14.3431 18.4666 14.0989C18.2427 13.8546 17.8632 13.8381 17.6189 14.062L12.0243 19.1904L6.42976 14.062C6.18548 13.8381 5.80594 13.8546 5.58203 14.0989C5.35811 14.3431 5.37461 14.7227 5.61889 14.9466L11.6189 20.4466C11.8483 20.6569 12.2004 20.6569 12.4298 20.4466L18.4298 14.9466Z" fill="#909090"/>
</svg>
