<svg width="24" height="24" viewBox="0 0 24 24" fill="none" xmlns="http://www.w3.org/2000/svg">
<path d="M7.49991 8.90039C7.16854 8.90039 6.89991 9.16902 6.89991 9.50039C6.89991 9.83176 7.16854 10.1004 7.49991 10.1004L16.4999 10.1004C16.8313 10.1004 17.0999 9.83176 17.0999 9.50039C17.0999 9.16902 16.8313 8.90039 16.4999 8.90039H7.49991Z" fill="#909090"/>
<path fill-rule="evenodd" clip-rule="evenodd" d="M6.8999 5.15039C5.24305 5.15039 3.8999 6.49354 3.8999 8.15039V15.8504C3.8999 17.5072 5.24305 18.8504 6.8999 18.8504H17.0999C18.7568 18.8504 20.0999 17.5072 20.0999 15.8504V8.15039C20.0999 6.49354 18.7568 5.15039 17.0999 5.15039H6.8999ZM5.0999 8.15039C5.0999 7.15628 5.90579 6.35039 6.8999 6.35039H17.0999C18.094 6.35039 18.8999 7.15628 18.8999 8.15039V15.8504C18.8999 16.8445 18.094 17.6504 17.0999 17.6504H6.8999C5.90579 17.6504 5.0999 16.8445 5.0999 15.8504V8.15039Z" fill="#909090"/>
</svg>
