<svg width="24" height="24" viewBox="0 0 24 24" fill="none" xmlns="http://www.w3.org/2000/svg">
<path fill-rule="evenodd" clip-rule="evenodd" d="M15.6116 5.6084H19.1755C19.5069 5.6084 19.7755 5.87703 19.7755 6.2084C19.7755 6.53977 19.5069 6.8084 19.1755 6.8084L4.82559 6.8084C4.49422 6.8084 4.22559 6.53977 4.22559 6.2084C4.22559 5.87703 4.49422 5.6084 4.82559 5.6084H8.36574L8.60597 4.47496C8.86063 3.27348 9.92129 2.41406 11.1495 2.41406H12.8056C14.0159 2.41406 15.0661 3.24916 15.3387 4.42834L15.6116 5.6084ZM9.77989 4.72378L9.59442 5.59883H14.3777L14.1696 4.69867C14.0228 4.06373 13.4573 3.61406 12.8056 3.61406H11.1495C10.4881 3.61406 9.91702 4.07682 9.77989 4.72378Z" fill="#333333"/>
<path d="M10.996 11.7055C10.996 11.3741 10.7274 11.1055 10.396 11.1055C10.0647 11.1055 9.79604 11.3741 9.79604 11.7055V16.1045C9.79604 16.4358 10.0647 16.7045 10.396 16.7045C10.7274 16.7045 10.996 16.4358 10.996 16.1045V11.7055Z" fill="#333333"/>
<path d="M13.6104 11.1055C13.9418 11.1055 14.2104 11.3741 14.2104 11.7055V16.1045C14.2104 16.4358 13.9418 16.7045 13.6104 16.7045C13.279 16.7045 13.0104 16.4358 13.0104 16.1045V11.7055C13.0104 11.3741 13.279 11.1055 13.6104 11.1055Z" fill="#333333"/>
<path fill-rule="evenodd" clip-rule="evenodd" d="M6.36595 8.12988C5.77676 8.12988 5.31528 8.6367 5.37032 9.22331L6.21276 18.2005C6.3092 19.2282 7.17184 20.0137 8.20401 20.0137H15.7485C16.7757 20.0137 17.6359 19.2355 17.7385 18.2135L18.6406 9.2298C18.6997 8.64097 18.2374 8.12988 17.6456 8.12988H6.36595ZM6.5856 9.32988L7.40751 18.0884C7.44609 18.4995 7.79114 18.8137 8.20401 18.8137H15.7485C16.1594 18.8137 16.5035 18.5024 16.5445 18.0936L17.4245 9.32988H6.5856Z" fill="#333333"/>
</svg>
