<svg width="24" height="24" viewBox="0 0 24 24" fill="none" xmlns="http://www.w3.org/2000/svg">
<path fill-rule="evenodd" clip-rule="evenodd" d="M15.6116 5.6084H19.175C19.5064 5.6084 19.775 5.87703 19.775 6.2084C19.775 6.53977 19.5064 6.8084 19.175 6.8084L4.8251 6.8084C4.49373 6.8084 4.2251 6.53977 4.2251 6.2084C4.2251 5.87703 4.49373 5.6084 4.8251 5.6084H8.36574L8.60597 4.47496C8.86063 3.27348 9.92129 2.41406 11.1495 2.41406H12.8056C14.0159 2.41406 15.0661 3.24916 15.3387 4.42834L15.6116 5.6084ZM9.77989 4.72378L9.59442 5.59883H14.3777L14.1696 4.69867C14.0228 4.06373 13.4573 3.61406 12.8056 3.61406H11.1495C10.4881 3.61406 9.91702 4.07682 9.77989 4.72378Z" fill="#828B95"/>
<path d="M6.86031 8.25586C6.09437 8.25586 5.49444 8.91472 5.566 9.67732L6.38804 18.4372C6.46519 19.2593 7.1553 19.8877 7.98104 19.8877H10.7115C11.0428 19.8877 11.3115 19.6191 11.3115 19.2877C11.3115 18.9563 11.0428 18.6877 10.7115 18.6877H7.98104C7.77461 18.6877 7.60208 18.5306 7.58279 18.3251L6.76075 9.5652C6.75524 9.50654 6.80139 9.45586 6.86031 9.45586H17.2643C17.2358 9.78233 17.4751 10.072 17.8021 10.1048C18.1318 10.138 18.426 9.89751 18.4591 9.5678C18.5296 8.86547 17.9781 8.25586 17.2723 8.25586H6.86031Z" fill="#828B95"/>
<path d="M10.396 11.1045C10.7274 11.1045 10.996 11.3731 10.996 11.7045V16.1035C10.996 16.4349 10.7274 16.7035 10.396 16.7035C10.0647 16.7035 9.79604 16.4349 9.79604 16.1035V11.7045C9.79604 11.3731 10.0647 11.1045 10.396 11.1045Z" fill="#828B95"/>
<path d="M17.6 14.2504C17.6 13.919 17.3314 13.6504 17 13.6504C16.6687 13.6504 16.4 13.919 16.4 14.2504V16.2504C16.4 16.5818 16.6687 16.8504 17 16.8504H18.5693C18.9006 16.8504 19.1693 16.5818 19.1693 16.2504C19.1693 15.919 18.9006 15.6504 18.5693 15.6504H17.6V14.2504Z" fill="#828B95"/>
<path fill-rule="evenodd" clip-rule="evenodd" d="M12.4 16.0004C12.4 13.4599 14.4595 11.4004 17 11.4004C19.5406 11.4004 21.6 13.4599 21.6 16.0004C21.6 18.5409 19.5406 20.6004 17 20.6004C14.4595 20.6004 12.4 18.5409 12.4 16.0004ZM17 12.6004C15.1223 12.6004 13.6 14.1226 13.6 16.0004C13.6 17.8782 15.1223 19.4004 17 19.4004C18.8778 19.4004 20.4 17.8782 20.4 16.0004C20.4 14.1226 18.8778 12.6004 17 12.6004Z" fill="#828B95"/>
</svg>
