<svg width="24" height="24" viewBox="0 0 24 24" fill="none" xmlns="http://www.w3.org/2000/svg">
<path fill-rule="evenodd" clip-rule="evenodd" d="M5.55089 8.60925C5.6458 6.33659 7.7613 4.54395 9.92833 4.54395H9.93484C11.5399 4.56137 12.9968 5.45557 13.7424 6.77243C15.0583 6.49349 16.3581 6.90208 17.3164 7.70344C17.5707 7.91601 17.6044 8.29441 17.3919 8.54862C17.1793 8.80282 16.8009 8.83658 16.5467 8.62402C15.7439 7.95275 14.6592 7.68314 13.6217 8.0507C13.3186 8.15809 12.9847 8.00742 12.8647 7.70908C12.4131 6.58654 11.2421 5.75959 9.92509 5.74395C8.22028 5.74588 6.6311 7.27541 6.75467 8.96159C6.77413 9.22718 6.61619 9.47383 6.36682 9.56728C4.72638 10.182 3.67171 11.7021 3.69098 13.3673L3.69107 13.3743C3.69107 15.6073 5.49225 17.4131 7.7088 17.4131L7.88444 17.4131L7.88532 17.4126L7.89129 17.4125L7.89317 17.4125L7.90027 17.4125L8.81972 17.4129L8.82894 17.4129L8.83241 17.4129L8.83429 17.413L9.01044 17.4131C9.34181 17.4132 9.61033 17.682 9.61019 18.0133C9.61005 18.3447 9.34131 18.6132 9.00994 18.6131L8.76642 18.613C8.64649 18.613 8.3338 18.6131 7.7088 18.6131C4.82546 18.6131 2.49289 16.2667 2.49103 13.3777C2.46869 11.3274 3.68161 9.48044 5.55089 8.60925Z" fill="#828B95"/>
<path fill-rule="evenodd" clip-rule="evenodd" d="M12.8921 10.8933C13.737 10.5314 14.8625 10.3223 16.0741 10.3223C17.2858 10.3223 18.4112 10.5314 19.2561 10.8933C19.6775 11.0737 20.0569 11.304 20.3396 11.5903C20.5335 11.7866 20.6951 12.024 20.7787 12.297C20.8199 12.3784 20.8431 12.4704 20.8431 12.5678V17.5554C20.8431 17.5907 20.84 17.6253 20.8342 17.659C20.7976 18.0518 20.5971 18.385 20.3396 18.6458C20.0569 18.932 19.6775 19.1623 19.2561 19.3428C18.4112 19.7046 17.2858 19.9138 16.0741 19.9138C14.8625 19.9138 13.737 19.7046 12.8921 19.3428C12.4707 19.1623 12.0914 18.932 11.8086 18.6458C11.5613 18.3954 11.3667 18.0782 11.3192 17.7055C11.3069 17.6575 11.3003 17.6072 11.3003 17.5554V12.5678C11.3003 12.4613 11.328 12.3613 11.3767 12.2746C11.4621 12.011 11.62 11.7812 11.8086 11.5903C12.0914 11.304 12.4707 11.0737 12.8921 10.8933ZM12.6624 12.4335C12.526 12.5716 12.5081 12.6631 12.5081 12.7063C12.5081 12.7496 12.526 12.8411 12.6624 12.9792C12.8013 13.1198 13.032 13.2739 13.3645 13.4163C14.0274 13.7002 14.985 13.8904 16.0741 13.8904C17.1633 13.8904 18.1209 13.7002 18.7837 13.4163C19.1163 13.2739 19.347 13.1198 19.4859 12.9792C19.6222 12.8411 19.6401 12.7496 19.6401 12.7063C19.6401 12.6631 19.6222 12.5716 19.4859 12.4335C19.347 12.2929 19.1163 12.1388 18.7837 11.9964C18.1209 11.7125 17.1633 11.5223 16.0741 11.5223C14.985 11.5223 14.0274 11.7125 13.3645 11.9964C13.032 12.1388 12.8013 12.2929 12.6624 12.4335ZM12.5003 17.4326C12.5054 17.4642 12.5081 17.4966 12.5081 17.5297C12.5081 17.573 12.526 17.6645 12.6624 17.8025C12.8013 17.9431 13.032 18.0973 13.3645 18.2397C14.0274 18.5235 14.985 18.7138 16.0741 18.7138C17.1633 18.7138 18.1209 18.5235 18.7837 18.2397C19.1163 18.0973 19.347 17.9431 19.4859 17.8025C19.6222 17.6645 19.6401 17.573 19.6401 17.5297C19.6401 17.5096 19.6411 17.4897 19.6431 17.4701V16.7455C19.5195 16.813 19.3899 16.8753 19.2561 16.9326C18.4112 17.2944 17.2858 17.5036 16.0741 17.5036C14.8625 17.5036 13.737 17.2944 12.8921 16.9326C12.7565 16.8746 12.6253 16.8114 12.5003 16.7428V17.4326ZM12.5003 15.0225C12.5054 15.0541 12.5081 15.0865 12.5081 15.1195C12.5081 15.1628 12.526 15.2543 12.6624 15.3923C12.8013 15.533 13.032 15.6871 13.3645 15.8295C14.0274 16.1134 14.985 16.3036 16.0741 16.3036C17.1633 16.3036 18.1209 16.1134 18.7837 15.8295C19.1163 15.6871 19.347 15.533 19.4859 15.3923C19.6222 15.2543 19.6401 15.1628 19.6401 15.1195C19.6401 15.0994 19.6411 15.0796 19.6431 15.06V14.3323C19.5195 14.3998 19.3899 14.4621 19.2561 14.5194C18.4112 14.8813 17.2858 15.0904 16.0741 15.0904C14.8625 15.0904 13.737 14.8813 12.8921 14.5194C12.7565 14.4614 12.6253 14.3982 12.5003 14.3296V15.0225Z" fill="#828B95"/>
</svg>
