<svg width="18" height="18" viewBox="0 0 18 18" fill="none" xmlns="http://www.w3.org/2000/svg">
	<path d="M9.03295 6.74165C8.42243 6.74165 8.09925 7.10115 7.9703 7.48393C7.87774 7.75871 7.57996 7.90642 7.30518 7.81386C7.0304 7.7213 6.88268 7.42351 6.97524 7.14873C7.21783 6.42859 7.88372 5.69165 9.03295 5.69165C9.42488 5.69165 9.91715 5.80691 10.3237 6.12653C10.751 6.46239 11.0402 6.9914 11.0402 7.71366C11.0402 8.51964 10.4872 9.03402 10.1255 9.3705L10.0937 9.40007C9.6596 9.80479 9.48129 10.0039 9.48129 10.2711C9.48129 10.561 9.24624 10.7961 8.95629 10.7961C8.66634 10.7961 8.43129 10.561 8.43129 10.2711C8.43129 9.50782 8.97124 9.00826 9.32163 8.68408L9.37772 8.63206C9.79708 8.2411 9.99016 8.01941 9.99016 7.71366C9.99016 7.30022 9.83853 7.08072 9.67479 6.952C9.4904 6.80704 9.24158 6.74165 9.03295 6.74165Z" fill="#A8ADB4"/>
	<path d="M9.5251 11.8329C9.52509 11.5429 9.29004 11.3079 9.00009 11.3079C8.71014 11.3079 8.47509 11.5429 8.4751 11.8329L8.4751 11.8874C8.4751 12.1773 8.71016 12.4124 9.00011 12.4124C9.29006 12.4124 9.5251 12.1773 9.5251 11.8874L9.5251 11.8329Z" fill="#A8ADB4"/>
	<path fill-rule="evenodd" clip-rule="evenodd" d="M2.85156 9.00015C2.85156 5.60424 5.60449 2.85132 9.00039 2.85132C12.3963 2.85132 15.1492 5.60424 15.1492 9.00015C15.1492 12.3961 12.3963 15.149 9.00039 15.149C5.60449 15.149 2.85156 12.3961 2.85156 9.00015ZM9.00039 4.05132C6.26723 4.05132 4.05156 6.26698 4.05156 9.00015C4.05156 11.7333 6.26723 13.949 9.00039 13.949C11.7336 13.949 13.9492 11.7333 13.9492 9.00015C13.9492 6.26698 11.7336 4.05132 9.00039 4.05132Z" fill="#A8ADB4"/>
</svg>