<svg width="16" height="16" viewBox="0 0 16 16" fill="none" xmlns="http://www.w3.org/2000/svg">
<path d="M7.49071 6.8123H8.61332C8.83943 6.8123 9.02272 6.99439 9.02272 7.21901V8.33425C9.02272 8.55887 8.83943 8.74096 8.61332 8.74096H7.49071C7.2646 8.74096 7.08131 8.55887 7.08131 8.33425V7.21901C7.08131 6.99439 7.2646 6.8123 7.49071 6.8123Z" fill="#2FC6F6"/>
<path d="M5.70208 6.81252H4.57947C4.35336 6.81252 4.17007 6.99461 4.17007 7.21923V8.33447C4.17007 8.55909 4.35336 8.74118 4.57947 8.74118H5.70208C5.92818 8.74118 6.11148 8.55909 6.11148 8.33447V7.21923C6.11148 6.99461 5.92818 6.81252 5.70208 6.81252Z" fill="#2FC6F6"/>
<path d="M5.70113 9.70531H4.57852C4.35242 9.70531 4.16912 9.8874 4.16912 10.112V11.2273C4.16912 11.4519 4.35242 11.634 4.57852 11.634H5.70113C5.92724 11.634 6.11054 11.4519 6.11054 11.2273V10.112C6.11054 9.8874 5.92724 9.70531 5.70113 9.70531Z" fill="#2FC6F6"/>
<path d="M8.61332 9.70531H7.49071C7.2646 9.70531 7.08131 9.8874 7.08131 10.112V11.2273C7.08131 11.4519 7.2646 11.634 7.49071 11.634H8.61332C8.83943 11.634 9.02272 11.4519 9.02272 11.2273V10.112C9.02272 9.8874 8.83943 9.70531 8.61332 9.70531Z" fill="#2FC6F6"/>
<path d="M10.4029 6.8123H11.5255C11.7516 6.8123 11.9349 6.99439 11.9349 7.21901V8.33425C11.9349 8.55887 11.7516 8.74096 11.5255 8.74096H10.4029C10.1768 8.74096 9.99349 8.55887 9.99349 8.33425V7.21901C9.99349 6.99439 10.1768 6.8123 10.4029 6.8123Z" fill="#2FC6F6"/>
<path fill-rule="evenodd" clip-rule="evenodd" d="M12.6486 2.19096V1.65941H13.8308C14.9103 1.72745 15.7467 2.66403 15.7272 3.78558V14.4164C15.7272 15.0032 15.2685 15.4794 14.701 15.4794H1.30482C0.738359 15.4794 0.278619 15.0032 0.278619 14.4164V3.78558C0.274514 3.7303 0.272461 3.67608 0.272461 3.62186C0.274514 2.53539 1.12627 1.65729 2.17505 1.65941H3.35724V2.19096C3.35724 3.07119 4.04582 3.78558 4.89654 3.78558C5.74727 3.78558 6.43585 3.07119 6.43585 2.19096V1.65941H9.56997V2.19096C9.56997 3.07119 10.2596 3.78558 11.1093 3.78558C11.959 3.78558 12.6486 3.07119 12.6486 2.19096ZM13.6748 13.3533H2.33106V4.90894H13.6748V13.3533Z" fill="#2FC6F6"/>
<path d="M5.65071 0.811067V1.98045C5.65071 2.41206 5.31308 2.76182 4.89644 2.76182C4.4798 2.76182 4.14218 2.41206 4.14218 1.98045V0.811067L4.14771 0.709542C4.19329 0.322012 4.51469 0.0224136 4.90157 0.0243779C5.31821 0.0275775 5.65275 0.379457 5.65071 0.811067Z" fill="#2FC6F6"/>
<path d="M11.8215 0.839745V1.94854C11.8215 2.3557 11.5024 2.68631 11.1083 2.68631C10.7142 2.68525 10.3971 2.35463 10.3971 1.94747V0.839745C10.3971 0.431523 10.7163 0.101967 11.1093 0.101967C11.5024 0.101967 11.8215 0.431523 11.8215 0.839745Z" fill="#2FC6F6"/>
</svg>
