<svg width="218" height="178" viewBox="0 0 218 178" fill="none" xmlns="http://www.w3.org/2000/svg">
	<style>
		@keyframes empty_animation_grid {
			0% {}
			7.142857143% {}
			14.28571429% {}
			21.42857143% {}
			28.57142857% {}
			35.71428572% {}
			42.85714286% {}
			50% {}
			57.14285714% {}
			64.28571429% {}
			71.42857143% {}
			78.57142857% {}
			85.71428572% {}
			92.85714286% {}
			100% {}
		}

		@keyframes top_element_animation {
			0% {
				opacity: 0;
			}
			7.142857143% {
				opacity: 1;
			}
			14.28571429% {
				-webkit-transform: translateY(0);
				transform: translateY(0);
			}
			21.42857143% {
				-webkit-transform: translateY(-30px);
				transform: translateY(100);
			}
			71.42857143% {
				opacity: 1;
			}
			78.57142857% {
				opacity: 0;
			}
			100% {
				opacity: 0;
				-webkit-transform: translateY(-30px);
				transform: translateY(100);
			}
		}

		#humanresources-start-state__animation__top-element {
			animation: top_element_animation 5.2s ease-in-out infinite;
		}

		@keyframes connectors_animation {
			0% { opacity: 0; }
			28.57142857% { opacity: 0; }
			35.71428572% { opacity: 1; }
			71.42857143% { opacity: 1; }
			78.57142857% { opacity: 0; }
			100% { opacity: 0; }
		}

		#humanresources-start-state__animation__connectors {
			animation: connectors_animation 5.2s ease-in-out infinite;
		}

		@keyframes bottom_elements_animation {
			0% { opacity: 0; }
			42.85714286% { opacity: 0; }
			50% { opacity: 1; }
			71.42857143% { opacity: 1; }
			78.57142857% { opacity: 0; }
			100% { opacity: 0; }
		}

		#humanresources-start-state__animation__bottom-left-element {
			animation: bottom_elements_animation 5.2s ease-in-out infinite;
		}

		#humanresources-start-state__animation__bottom-right-element {
			animation: bottom_elements_animation 5.2s ease-in-out infinite;
		}
	</style>
	<path fill-rule="evenodd" clip-rule="evenodd"
		  d="M156.909 5.08173C158.238 5.08173 159.315 4.0047 159.315 2.67612C159.315 1.34754 158.238 0.270508 156.909 0.270508C155.58 0.270508 154.503 1.34754 154.503 2.67612C154.503 4.0047 155.58 5.08173 156.909 5.08173ZM38.2039 25.8624C41.0841 25.8624 43.4189 23.5275 43.4189 20.6474C43.4189 17.7672 41.0841 15.4324 38.2039 15.4324C35.3237 15.4324 32.9889 17.7672 32.9889 20.6474C32.9889 23.5275 35.3237 25.8624 38.2039 25.8624ZM38.2039 22.9547C39.4782 22.9547 40.5112 21.9217 40.5112 20.6474C40.5112 19.3731 39.4782 18.34 38.2039 18.34C36.9296 18.34 35.8965 19.3731 35.8965 20.6474C35.8965 21.9217 36.9296 22.9547 38.2039 22.9547ZM11.7102 76.7733C15.5894 76.7733 18.7341 73.6286 18.7341 69.7494C18.7341 65.8702 15.5894 62.7255 11.7102 62.7255C7.83099 62.7255 4.68628 65.8702 4.68628 69.7494C4.68628 73.6286 7.83099 76.7733 11.7102 76.7733ZM11.7102 73.1075C13.5648 73.1075 15.0683 71.604 15.0683 69.7494C15.0683 67.8947 13.5648 66.3912 11.7102 66.3912C9.85555 66.3912 8.35206 67.8947 8.35206 69.7494C8.35206 71.604 9.85555 73.1075 11.7102 73.1075ZM190.039 165.155C192.801 165.155 195.04 162.916 195.04 160.154C195.04 157.393 192.801 155.154 190.039 155.154C187.278 155.154 185.039 157.393 185.039 160.154C185.039 162.916 187.278 165.155 190.039 165.155ZM190.039 162.553C191.364 162.553 192.438 161.479 192.438 160.154C192.438 158.83 191.364 157.756 190.039 157.756C188.715 157.756 187.641 158.83 187.641 160.154C187.641 161.479 188.715 162.553 190.039 162.553ZM110 178C157.496 178 196 139.496 196 91.9998C196 44.5033 157.496 5.99976 110 5.99976C62.5035 5.99976 24 44.5033 24 91.9998C24 139.496 62.5035 178 110 178ZM23.9588 171.988H7.24022C7.09716 171.988 6.95534 171.983 6.81493 171.972C3.03648 171.884 0.000190901 168.709 0 164.805C0.00109851 162.902 0.737676 161.077 2.04769 159.733C2.71919 159.043 3.51317 158.509 4.37699 158.152C4.36254 157.958 4.35518 157.763 4.35518 157.565C4.35637 155.558 5.13359 153.633 6.51587 152.214C7.89815 150.795 9.77226 149.999 11.7259 150C14.2285 150.003 16.438 151.289 17.7658 153.252C18.3964 153.022 19.0752 152.898 19.7823 152.898C22.9062 152.902 25.472 155.349 25.7694 158.479C28.7627 159.149 31.0026 161.89 31 165.166C30.9969 168.942 28.0168 172.001 24.3426 172C24.2138 172 24.0858 171.996 23.9588 171.988ZM201.138 38.992H213.003C213.093 38.9971 213.184 38.9997 213.275 38.9998C215.883 39.0008 217.998 36.9152 218 34.3407C218.002 32.1067 216.412 30.2382 214.288 29.7809C214.077 27.6471 212.256 25.9785 210.039 25.9758C209.537 25.9756 209.055 26.0606 208.608 26.2172C207.666 24.8788 206.098 24.0019 204.322 23.9998C202.935 23.9989 201.605 24.5419 200.624 25.5093C199.643 26.4767 199.092 27.7892 199.091 29.1581C199.091 29.2928 199.096 29.4262 199.106 29.5582C198.493 29.8015 197.93 30.1658 197.453 30.6358C196.524 31.5526 196.001 32.7966 196 34.0939C196 36.7558 198.155 38.9208 200.836 38.981C200.936 38.9883 201.037 38.992 201.138 38.992Z"
		  fill="#E5F9FF"/>
	<g id="humanresources-start-state__animation__top-element">
		<g filter="url(#filter0_d_11326_116032)">
			<path d="M72.9229 83.4953C72.9229 80.4603 75.3832 78 78.4181 78H138.28C141.315 78 143.775 80.4603 143.775 83.4953V96.8273C143.775 99.8622 141.315 102.323 138.28 102.323H78.4181C75.3832 102.323 72.9229 99.8622 72.9229 96.8273V83.4953Z" fill="white"/>
		</g>
		<path fill-rule="evenodd" clip-rule="evenodd" d="M138.28 78.9159H78.4181C75.889 78.9159 73.8387 80.9661 73.8387 83.4953V96.8273C73.8387 99.3564 75.889 101.407 78.4181 101.407H138.28C140.809 101.407 142.86 99.3564 142.86 96.8273V83.4953C142.86 80.9661 140.809 78.9159 138.28 78.9159ZM78.4181 78C75.3832 78 72.9229 80.4603 72.9229 83.4953V96.8273C72.9229 99.8622 75.3832 102.323 78.4181 102.323H138.28C141.315 102.323 143.775 99.8622 143.775 96.8273V83.4953C143.775 80.4603 141.315 78 138.28 78H78.4181Z" fill="#1EC6FA"/>
		<circle opacity="0.3" cx="84.9358" cy="90.1609" r="5.66821" fill="#2FC6F6"/>
		<path opacity="0.3" d="M94.7881 87.394C94.7881 86.519 95.2547 85.8096 95.8303 85.8096H113.895C114.471 85.8096 114.937 86.519 114.937 87.394C114.937 88.2691 114.471 88.9785 113.895 88.9785H95.8303C95.2547 88.9785 94.7881 88.2691 94.7881 87.394Z" fill="#2FC6F6"/>
		<path opacity="0.3" d="M94.7881 92.909C94.7881 92.0329 95.4983 91.3228 96.3743 91.3228H123.869C124.745 91.3228 125.456 92.0329 125.456 92.909C125.456 93.7851 124.745 94.4953 123.869 94.4953H96.3743C95.4983 94.4953 94.7881 93.7851 94.7881 92.909Z" fill="#2FC6F6"/>
	</g>
	<g id="humanresources-start-state__animation__bottom-left-element">
		<g filter="url(#filter1_d_11326_116242)">
			<path
				d="M33.54 106.173C33.54 103.138 36.0004 100.678 39.0353 100.678H98.8974C101.932 100.678 104.393 103.138 104.393 106.173V119.505C104.393 122.54 101.932 125 98.8974 125H39.0353C36.0004 125 33.54 122.54 33.54 119.505V106.173Z"
				fill="white"/>
		</g>
		<path fill-rule="evenodd" clip-rule="evenodd"
			  d="M98.8974 101.594H39.0353C36.5062 101.594 34.4559 103.644 34.4559 106.173V119.505C34.4559 122.034 36.5062 124.084 39.0353 124.084H98.8974C101.427 124.084 103.477 122.034 103.477 119.505V106.173C103.477 103.644 101.427 101.594 98.8974 101.594ZM39.0353 100.678C36.0004 100.678 33.54 103.138 33.54 106.173V119.505C33.54 122.54 36.0004 125 39.0353 125H98.8974C101.932 125 104.393 122.54 104.393 119.505V106.173C104.393 103.138 101.932 100.678 98.8974 100.678H39.0353Z"
			  fill="#1EC6FA"/>
		<circle opacity="0.3" cx="45.553" cy="112.839" r="5.66821" fill="#2FC6F6"/>
		<path opacity="0.3"
			  d="M55.4043 110.072C55.4043 109.197 55.8709 108.487 56.4465 108.487H74.5114C75.087 108.487 75.5536 109.197 75.5536 110.072C75.5536 110.947 75.087 111.656 74.5114 111.656H56.4465C55.8709 111.656 55.4043 110.947 55.4043 110.072Z"
			  fill="#2FC6F6"/>
		<path opacity="0.3"
			  d="M55.4043 115.586C55.4043 114.71 56.1145 114 56.9906 114H84.4856C85.3617 114 86.0719 114.71 86.0719 115.586C86.0719 116.462 85.3617 117.173 84.4856 117.173H56.9905C56.1145 117.173 55.4043 116.462 55.4043 115.586Z"
			  fill="#2FC6F6"/>
	</g>
	<g id="humanresources-start-state__animation__bottom-right-element">
		<g filter="url(#filter2_d_11326_116242)">
			<path
				d="M115.968 106.173C115.968 103.138 118.428 100.678 121.463 100.678H181.325C184.36 100.678 186.82 103.138 186.82 106.173V119.505C186.82 122.54 184.36 125 181.325 125H121.463C118.428 125 115.968 122.54 115.968 119.505V106.173Z"
				fill="white"/>
		</g>
		<path fill-rule="evenodd" clip-rule="evenodd"
			  d="M181.325 101.594H121.463C118.934 101.594 116.884 103.644 116.884 106.173V119.505C116.884 122.034 118.934 124.084 121.463 124.084H181.325C183.854 124.084 185.905 122.034 185.905 119.505V106.173C185.905 103.644 183.854 101.594 181.325 101.594ZM121.463 100.678C118.428 100.678 115.968 103.138 115.968 106.173V119.505C115.968 122.54 118.428 125 121.463 125H181.325C184.36 125 186.82 122.54 186.82 119.505V106.173C186.82 103.138 184.36 100.678 181.325 100.678H121.463Z"
			  fill="#1EC6FA"/>
		<circle opacity="0.3" cx="127.982" cy="112.839" r="5.66821" fill="#2FC6F6"/>
		<path opacity="0.3"
			  d="M137.833 110.072C137.833 109.197 138.3 108.487 138.875 108.487H156.94C157.516 108.487 157.982 109.197 157.982 110.072C157.982 110.947 157.516 111.656 156.94 111.656H138.875C138.3 111.656 137.833 110.947 137.833 110.072Z"
			  fill="#2FC6F6"/>
		<path opacity="0.3"
			  d="M137.833 115.586C137.833 114.71 138.543 114 139.419 114H166.914C167.79 114 168.501 114.71 168.501 115.586C168.501 116.462 167.79 117.173 166.914 117.173H139.419C138.543 117.173 137.833 116.462 137.833 115.586Z"
			  fill="#2FC6F6"/>
	</g>
	<path id="humanresources-start-state__animation__connectors"
		  fill-rule="evenodd" clip-rule="evenodd"
		  d="M109.557 82.3491C109.557 84.6254 111.402 86.4706 113.678 86.4706H147.566C150.348 86.4706 152.603 88.7259 152.603 91.5079V100.906H151.687V91.5079C151.687 89.2317 149.842 87.3865 147.566 87.3865H113.678C111.646 87.3865 109.895 86.1833 109.099 84.4506C108.302 86.1833 106.552 87.3865 104.52 87.3865H70.6321C68.3558 87.3865 66.5106 89.2317 66.5106 91.5079V100.906H65.5947V91.5079C65.5947 88.7259 67.85 86.4706 70.6321 86.4706H104.52C106.796 86.4706 108.641 84.6254 108.641 82.3491V71.5981H109.557V82.3491Z"
		  fill="#2FC6F6"/>
	<defs>
		<filter id="filter0_d_11326_116242" x="70.1752" y="45.7278" width="76.3478" height="29.818"
				filterUnits="userSpaceOnUse" color-interpolation-filters="sRGB">
			<feFlood flood-opacity="0" result="BackgroundImageFix"/>
			<feColorMatrix in="SourceAlpha" type="matrix" values="0 0 0 0 0 0 0 0 0 0 0 0 0 0 0 0 0 0 127 0"
						   result="hardAlpha"/>
			<feOffset dy="0.915878"/>
			<feGaussianBlur stdDeviation="1.37382"/>
			<feComposite in2="hardAlpha" operator="out"/>
			<feColorMatrix type="matrix" values="0 0 0 0 0 0 0 0 0 0.294033 0 0 0 0 0.3875 0 0 0 0.09 0"/>
			<feBlend mode="normal" in2="BackgroundImageFix" result="effect1_dropShadow_11326_116242"/>
			<feBlend mode="normal" in="SourceGraphic" in2="effect1_dropShadow_11326_116242" result="shape"/>
		</filter>
		<filter id="filter1_d_11326_116242" x="30.7924" y="98.846" width="76.3478" height="29.818"
				filterUnits="userSpaceOnUse" color-interpolation-filters="sRGB">
			<feFlood flood-opacity="0" result="BackgroundImageFix"/>
			<feColorMatrix in="SourceAlpha" type="matrix" values="0 0 0 0 0 0 0 0 0 0 0 0 0 0 0 0 0 0 127 0"
						   result="hardAlpha"/>
			<feOffset dy="0.915878"/>
			<feGaussianBlur stdDeviation="1.37382"/>
			<feComposite in2="hardAlpha" operator="out"/>
			<feColorMatrix type="matrix" values="0 0 0 0 0 0 0 0 0 0.294033 0 0 0 0 0.3875 0 0 0 0.09 0"/>
			<feBlend mode="normal" in2="BackgroundImageFix" result="effect1_dropShadow_11326_116242"/>
			<feBlend mode="normal" in="SourceGraphic" in2="effect1_dropShadow_11326_116242" result="shape"/>
		</filter>
		<filter id="filter2_d_11326_116242" x="113.22" y="98.846" width="76.3478" height="29.818"
				filterUnits="userSpaceOnUse" color-interpolation-filters="sRGB">
			<feFlood flood-opacity="0" result="BackgroundImageFix"/>
			<feColorMatrix in="SourceAlpha" type="matrix" values="0 0 0 0 0 0 0 0 0 0 0 0 0 0 0 0 0 0 127 0"
						   result="hardAlpha"/>
			<feOffset dy="0.915878"/>
			<feGaussianBlur stdDeviation="1.37382"/>
			<feComposite in2="hardAlpha" operator="out"/>
			<feColorMatrix type="matrix" values="0 0 0 0 0 0 0 0 0 0.294033 0 0 0 0 0.3875 0 0 0 0.09 0"/>
			<feBlend mode="normal" in2="BackgroundImageFix" result="effect1_dropShadow_11326_116242"/>
			<feBlend mode="normal" in="SourceGraphic" in2="effect1_dropShadow_11326_116242" result="shape"/>
		</filter>
	</defs>
</svg>
