<svg width="109" height="108" viewBox="0 0 109 108" fill="none" xmlns="http://www.w3.org/2000/svg">
	<mask id="path-1-inside-1_11011_48061" fill="white">
		<path fill-rule="evenodd" clip-rule="evenodd" d="M76.3272 74.3843C80.5905 74.1785 83.9414 70.6619 83.9414 66.3936V20.795C83.9414 16.6315 80.7479 13.164 76.5985 12.822L13.6844 7.63695C9.02282 7.25276 5.02734 10.9325 5.02734 15.6099V69.4315C5.02734 74.0013 8.84873 77.6426 13.4132 77.4222L18.5003 77.1766V87.7583C18.5003 89.5684 20.713 90.4474 21.9551 89.1308L33.6997 76.6815V76.4427L76.3272 74.3843Z"/>
	</mask>
	<path fill-rule="evenodd" clip-rule="evenodd" d="M76.3272 74.3843C80.5905 74.1785 83.9414 70.6619 83.9414 66.3936V20.795C83.9414 16.6315 80.7479 13.164 76.5985 12.822L13.6844 7.63695C9.02282 7.25276 5.02734 10.9325 5.02734 15.6099V69.4315C5.02734 74.0013 8.84873 77.6426 13.4132 77.4222L18.5003 77.1766V87.7583C18.5003 89.5684 20.713 90.4474 21.9551 89.1308L33.6997 76.6815V76.4427L76.3272 74.3843Z" fill="white"/>
	<path d="M76.3272 74.3843L76.279 73.3855L76.3272 74.3843ZM76.5985 12.822L76.6806 11.8254L76.5985 12.822ZM13.6844 7.63695L13.6023 8.63357L13.6844 7.63695ZM13.4132 77.4222L13.4614 78.4211L13.4132 77.4222ZM18.5003 77.1766H19.5003V76.1271L18.4521 76.1778L18.5003 77.1766ZM21.9551 89.1308L21.2277 88.4445L21.9551 89.1308ZM33.6997 76.6815L34.4271 77.3677L34.6997 77.0788V76.6815H33.6997ZM33.6997 76.4427L33.6514 75.4438L32.6997 75.4898V76.4427H33.6997ZM82.9414 66.3936C82.9414 70.1284 80.0094 73.2054 76.279 73.3855L76.3754 75.3831C81.1717 75.1516 84.9414 71.1954 84.9414 66.3936H82.9414ZM82.9414 20.795V66.3936H84.9414V20.795H82.9414ZM76.5163 13.8187C80.1471 14.1179 82.9414 17.1519 82.9414 20.795H84.9414C84.9414 16.111 81.3487 12.2101 76.6806 11.8254L76.5163 13.8187ZM13.6023 8.63357L76.5163 13.8187L76.6806 11.8254L13.7666 6.64033L13.6023 8.63357ZM6.02734 15.6099C6.02734 11.5172 9.52338 8.2974 13.6023 8.63357L13.7666 6.64033C8.52226 6.20811 4.02734 10.3478 4.02734 15.6099H6.02734ZM6.02734 69.4315V15.6099H4.02734V69.4315H6.02734ZM13.365 76.4234C9.37106 76.6162 6.02734 73.4301 6.02734 69.4315H4.02734C4.02734 74.5725 8.32641 78.669 13.4614 78.4211L13.365 76.4234ZM18.4521 76.1778L13.365 76.4234L13.4614 78.4211L18.5485 78.1754L18.4521 76.1778ZM19.5003 87.7583V77.1766H17.5003V87.7583H19.5003ZM21.2277 88.4445C20.6067 89.1028 19.5003 88.6633 19.5003 87.7583H17.5003C17.5003 90.4734 20.8194 91.7919 22.6825 89.817L21.2277 88.4445ZM32.9723 75.9953L21.2277 88.4445L22.6825 89.817L34.4271 77.3677L32.9723 75.9953ZM32.6997 76.4427V76.6815H34.6997V76.4427H32.6997ZM76.279 73.3855L33.6514 75.4438L33.7479 77.4415L76.3754 75.3831L76.279 73.3855Z" fill="#DFE0E3" mask="url(#path-1-inside-1_11011_48061)"/>
	<path d="M71.6646 29.6328C71.6646 31.6006 70.0291 33.1741 68.0628 33.0981L24.3716 31.41C22.3399 31.3315 20.7334 29.6616 20.7334 27.6285C20.7334 25.4595 22.5527 23.7344 24.7185 23.8495L68.3807 26.1697C70.2219 26.2676 71.6646 27.789 71.6646 29.6328Z" fill="#EBEBEB" stroke="#DFE0E3" stroke-linecap="round" stroke-linejoin="round"/>
	<path d="M32.4449 42.6415C32.4449 44.7312 30.7397 46.4194 28.65 46.3985L24.483 46.3567C22.4061 46.3359 20.7334 44.6464 20.7334 42.5694C20.7334 40.4411 22.4864 38.7306 24.6141 38.7829L28.78 38.8854C30.8185 38.9355 32.4449 40.6024 32.4449 42.6415Z" fill="#EBEBEB" stroke="#DFE0E3" stroke-linecap="round" stroke-linejoin="round"/>
	<mask id="path-5-inside-2_11011_48061" fill="white">
		<path fill-rule="evenodd" clip-rule="evenodd" d="M93.8837 93.6594C99.0272 93.1831 102.962 88.8676 102.962 83.702V50.6486C102.962 45.22 98.6304 40.7828 93.2034 40.6516L50.8033 39.626C45.1874 39.4902 40.5615 44.0056 40.5615 49.6231V87.6284C40.5615 93.5154 45.6217 98.1286 51.4836 97.5857L55.8849 97.1782V105.273C55.8849 107.101 58.1347 107.971 59.3646 106.618L69.0592 95.9582L93.8837 93.6594Z"/>
	</mask>
	<path fill-rule="evenodd" clip-rule="evenodd" d="M93.8837 93.6594C99.0272 93.1831 102.962 88.8676 102.962 83.702V50.6486C102.962 45.22 98.6304 40.7828 93.2034 40.6516L50.8033 39.626C45.1874 39.4902 40.5615 44.0056 40.5615 49.6231V87.6284C40.5615 93.5154 45.6217 98.1286 51.4836 97.5857L55.8849 97.1782V105.273C55.8849 107.101 58.1347 107.971 59.3646 106.618L69.0592 95.9582L93.8837 93.6594Z" fill="#C8C9CD" fill-opacity="0.68"/>
	<path d="M93.8837 93.6594L93.7914 92.6636L93.8837 93.6594ZM93.2034 40.6516L93.1792 41.6513L93.2034 40.6516ZM50.8033 39.626L50.7791 40.6257L50.8033 39.626ZM51.4836 97.5857L51.3914 96.59H51.3914L51.4836 97.5857ZM55.8849 97.1782H56.8849V96.0813L55.7927 96.1824L55.8849 97.1782ZM59.3646 106.618L60.1044 107.291L59.3646 106.618ZM69.0592 95.9582L68.9669 94.9625L68.5805 94.9982L68.3193 95.2854L69.0592 95.9582ZM101.962 83.702C101.962 88.351 98.4207 92.235 93.7914 92.6636L93.9759 94.6551C99.6338 94.1312 103.962 89.3841 103.962 83.702H101.962ZM101.962 50.6486V83.702H103.962V50.6486H101.962ZM93.1792 41.6513C98.0635 41.7694 101.962 45.7629 101.962 50.6486H103.962C103.962 44.6771 99.1973 39.7962 93.2276 39.6519L93.1792 41.6513ZM50.7791 40.6257L93.1792 41.6513L93.2276 39.6519L50.8275 38.6263L50.7791 40.6257ZM41.5615 49.6231C41.5615 44.5673 45.7248 40.5035 50.7791 40.6257L50.8275 38.6263C44.65 38.4769 39.5615 43.4438 39.5615 49.6231H41.5615ZM41.5615 87.6284V49.6231H39.5615V87.6284H41.5615ZM51.3914 96.59C46.1157 97.0786 41.5615 92.9267 41.5615 87.6284H39.5615C39.5615 94.1041 45.1277 99.1786 51.5758 98.5815L51.3914 96.59ZM55.7927 96.1824L51.3914 96.59L51.5758 98.5815L55.9771 98.1739L55.7927 96.1824ZM56.8849 105.273V97.1782H54.8849V105.273H56.8849ZM58.6247 105.946C58.0098 106.622 56.8849 106.187 56.8849 105.273H54.8849C54.8849 108.015 58.2597 109.32 60.1044 107.291L58.6247 105.946ZM68.3193 95.2854L58.6247 105.946L60.1044 107.291L69.799 96.631L68.3193 95.2854ZM93.7914 92.6636L68.9669 94.9625L69.1514 96.9539L93.9759 94.6551L93.7914 92.6636Z" fill="white" fill-opacity="0.4" mask="url(#path-5-inside-2_11011_48061)"/>
	<g filter="url(#filter0_d_11011_48061)">
		<path fill-rule="evenodd" clip-rule="evenodd" d="M72.1796 81.2022C74.2881 81.0709 75.9311 79.3226 75.9311 77.2099V53.5982C75.9311 51.3958 74.1506 49.6077 71.9482 49.5983L53.816 49.5205C51.6002 49.511 49.7988 51.3047 49.7988 53.5205V78.3386C49.7988 80.6454 51.7449 82.4741 54.0473 82.3308L72.1796 81.2022ZM65.7981 73.6953C65.7981 74.2291 65.3788 74.6688 64.8456 74.6942L61.2459 74.8656C60.6756 74.8928 60.1983 74.4377 60.1983 73.8668V69.8383C60.1983 69.2722 59.7288 68.819 59.1631 68.8389L55.3672 68.9727C54.8014 68.9926 54.332 68.5394 54.332 67.9733V64.2873C54.332 63.7442 54.7654 63.3004 55.3083 63.2876L59.222 63.1948C59.7649 63.182 60.1983 62.7382 60.1983 62.1951V57.3548C60.1983 56.8062 60.6403 56.3601 61.1888 56.3549L64.7886 56.3206C65.3445 56.3153 65.7981 56.7645 65.7981 57.3205V62.0151C65.7981 62.5766 66.2604 63.0281 66.8218 63.0148L70.6409 62.9243C71.2023 62.911 71.6646 63.3625 71.6646 63.924V67.4331C71.6646 67.9717 71.238 68.4135 70.6998 68.4325L66.7629 68.5712C66.2246 68.5901 65.7981 69.032 65.7981 69.5706V73.6953Z" fill="white" fill-opacity="0.9" shape-rendering="crispEdges"/>
	</g>
	<defs>
		<filter id="filter0_d_11011_48061" x="39.7988" y="43.5205" width="46.1318" height="52.8174" filterUnits="userSpaceOnUse" color-interpolation-filters="sRGB">
			<feFlood flood-opacity="0" result="BackgroundImageFix"/>
			<feColorMatrix in="SourceAlpha" type="matrix" values="0 0 0 0 0 0 0 0 0 0 0 0 0 0 0 0 0 0 127 0" result="hardAlpha"/>
			<feOffset dy="4"/>
			<feGaussianBlur stdDeviation="5"/>
			<feComposite in2="hardAlpha" operator="out"/>
			<feColorMatrix type="matrix" values="0 0 0 0 0 0 0 0 0 0 0 0 0 0 0 0 0 0 0.05 0"/>
			<feBlend mode="normal" in2="BackgroundImageFix" result="effect1_dropShadow_11011_48061"/>
			<feBlend mode="normal" in="SourceGraphic" in2="effect1_dropShadow_11011_48061" result="shape"/>
		</filter>
	</defs>
</svg>
