<svg width="121" height="120" viewBox="0 0 121 120" fill="none" xmlns="http://www.w3.org/2000/svg">
	<path d="M99.1847 84.1549C99.1847 88.8712 95.6294 92.8289 90.9401 93.3328L17.0617 101.271C11.6048 101.857 6.84473 97.5814 6.84473 92.0931V22.3379C6.84473 16.9386 11.4585 12.692 16.8393 13.1387L90.7177 19.2727C95.5031 19.6701 99.1847 23.67 99.1847 28.4719V84.1549Z" fill="#1BCE7B" fill-opacity="0.78"/>
	<path d="M98.6291 84.1549C98.6291 88.5873 95.2878 92.3069 90.8807 92.7804L17.0023 100.719C11.8739 101.27 7.40028 97.2511 7.40028 92.0931V22.3379C7.40028 17.2636 11.7364 13.2725 16.7933 13.6924L90.6718 19.8264C95.1692 20.1998 98.6291 23.959 98.6291 28.4719V84.1549Z" stroke="white" stroke-opacity="0.18" stroke-width="1.11111"/>
	<mask id="mask0_1253_39834" style="mask-type:alpha" maskUnits="userSpaceOnUse" x="6" y="13" width="94" height="88">
		<path d="M99.1955 83.7225C99.1955 88.4416 95.6361 92.4008 90.9436 92.9012L16.8639 100.802C11.4095 101.383 6.6543 97.1082 6.6543 91.6229V22.332C6.6543 16.935 11.2644 12.6891 16.6432 13.1324L90.7229 19.2371C95.5107 19.6317 99.1955 23.6326 99.1955 28.4367V83.7225Z" fill="white"/>
	</mask>
	<g mask="url(#mask0_1253_39834)">
		<path d="M54.2981 -4.7742L98.2821 20.0559L59.8759 58.0569C59.2447 58.6815 58.2347 58.7015 57.5792 58.1024L7.70115 12.5117L54.2981 -4.7742Z" stroke="white" stroke-opacity="0.18" stroke-width="1.11111"/>
	</g>
	<path d="M115.883 89.5799C115.883 94.2672 112.37 98.2104 107.714 98.7494L89.6957 100.836C84.2137 101.47 79.4033 97.1846 79.4033 91.666V66.1612C79.4033 61.1295 83.4332 57.0247 88.4641 56.932L106.483 56.6002C111.646 56.5051 115.883 60.6649 115.883 65.8294V89.5799Z" fill="#FAA72C" fill-opacity="0.78"/>
	<path d="M115.328 89.5799C115.328 93.9851 112.026 97.6909 107.65 98.1976L89.6318 100.284C84.4797 100.88 79.9589 96.8525 79.9589 91.666V66.1612C79.9589 61.4323 83.7462 57.5746 88.4744 57.4875L106.493 57.1557C111.346 57.0663 115.328 60.9757 115.328 65.8294V89.5799Z" stroke="white" stroke-opacity="0.18" stroke-width="1.11111"/>
	<g filter="url(#filter0_d_1253_39834)">
		<path fill-rule="evenodd" clip-rule="evenodd" d="M96.5039 80.3045C96.5039 81.6782 97.9173 82.7505 99.5735 82.6359V82.6336C101.058 82.5325 102.204 81.5028 102.204 80.273V66.7434C102.204 65.4215 100.889 64.3671 99.2889 64.4053C97.7406 64.4435 96.5039 65.4957 96.5039 66.7749V80.3045ZM96.5039 89.14C96.5039 90.6933 97.9663 91.909 99.6471 91.7559V91.7536C101.1 91.6208 102.204 90.4997 102.204 89.158V88.6965C102.204 87.1611 100.771 85.9499 99.1049 86.0783C97.6326 86.1931 96.5039 87.3209 96.5039 88.6784V89.14Z" fill="white" fill-opacity="0.9" shape-rendering="crispEdges"/>
	</g>
	<g filter="url(#filter1_d_1253_39834)">
		<path fill-rule="evenodd" clip-rule="evenodd" d="M44.5962 70.6415C44.5962 70.641 44.5956 70.6408 44.5953 70.6412L38.6838 77.7858C35.3777 81.7847 29.944 82.0323 26.5539 78.2694C26.4671 78.1744 26.3859 78.0765 26.3048 77.9786C25.5769 77.0775 25.7477 75.6409 26.4839 74.6937C26.6211 74.5181 26.7611 74.3396 26.901 74.1697C27.6653 73.2341 28.8522 73.7552 29.6277 74.6189C31.3101 76.5017 34.0312 76.3981 35.6912 74.4058L41.654 67.2601C43.2805 65.3082 43.2805 62.2046 41.654 60.3218C40.0219 58.4303 37.3457 58.4619 35.6912 60.411L34.2439 62.1183C33.8212 62.6192 33.1802 62.7718 32.6007 62.5933C31.1926 62.1586 30.2716 59.7488 31.3073 58.5368L32.6707 56.9447C36.0048 53.0465 41.3433 53.0235 44.5962 56.8238C47.818 60.5891 47.8183 66.7465 44.5971 70.6419C44.5968 70.6422 44.5962 70.642 44.5962 70.6415ZM29.7243 82.7419C29.7248 82.7414 29.7244 82.7405 29.7237 82.7405C29.1589 82.7498 28.6082 83.0174 28.1972 83.4862L26.5539 85.3604C24.8491 87.4045 22.0552 87.5513 20.328 85.6713C18.5924 83.7798 18.5924 80.564 20.328 78.5199L26.5539 71.1842C28.2532 69.1833 30.9938 69.1085 32.6707 71C33.4349 71.8637 34.6051 72.379 35.3525 71.4577C35.5121 71.2591 35.6688 71.0575 35.8256 70.856C36.5003 69.975 36.6598 68.6478 35.9992 67.7899C35.9012 67.6603 35.7976 67.5365 35.6884 67.4127C32.3543 63.6125 26.873 63.7219 23.4522 67.7208L17.173 75.0593C13.6598 79.1706 13.6598 85.631 17.173 89.4227C20.6555 93.1769 26.2264 92.84 29.6221 88.7403L31.1702 86.869C32.4854 85.2804 31.5907 82.7193 29.7249 82.7434C29.7242 82.7434 29.7237 82.7425 29.7243 82.7419Z" fill="white" fill-opacity="0.9" shape-rendering="crispEdges"/>
	</g>
	<defs>
		<filter id="filter0_d_1253_39834" x="85.3928" y="57.7376" width="27.9224" height="49.5865" filterUnits="userSpaceOnUse" color-interpolation-filters="sRGB">
			<feFlood flood-opacity="0" result="BackgroundImageFix"/>
			<feColorMatrix in="SourceAlpha" type="matrix" values="0 0 0 0 0 0 0 0 0 0 0 0 0 0 0 0 0 0 127 0" result="hardAlpha"/>
			<feOffset dy="4.44444"/>
			<feGaussianBlur stdDeviation="5.55556"/>
			<feComposite in2="hardAlpha" operator="out"/>
			<feColorMatrix type="matrix" values="0 0 0 0 0 0 0 0 0 0 0 0 0 0 0 0 0 0 0.05 0"/>
			<feBlend mode="normal" in2="BackgroundImageFix" result="effect1_dropShadow_1253_39834"/>
			<feBlend mode="normal" in="SourceGraphic" in2="effect1_dropShadow_1253_39834" result="shape"/>
		</filter>
		<filter id="filter1_d_1253_39834" x="3.42698" y="47.3304" width="54.6968" height="60.2642" filterUnits="userSpaceOnUse" color-interpolation-filters="sRGB">
			<feFlood flood-opacity="0" result="BackgroundImageFix"/>
			<feColorMatrix in="SourceAlpha" type="matrix" values="0 0 0 0 0 0 0 0 0 0 0 0 0 0 0 0 0 0 127 0" result="hardAlpha"/>
			<feOffset dy="4.44444"/>
			<feGaussianBlur stdDeviation="5.55556"/>
			<feComposite in2="hardAlpha" operator="out"/>
			<feColorMatrix type="matrix" values="0 0 0 0 0 0 0 0 0 0 0 0 0 0 0 0 0 0 0.05 0"/>
			<feBlend mode="normal" in2="BackgroundImageFix" result="effect1_dropShadow_1253_39834"/>
			<feBlend mode="normal" in="SourceGraphic" in2="effect1_dropShadow_1253_39834" result="shape"/>
		</filter>
	</defs>
</svg>
