<svg width="121" height="120" viewBox="0 0 121 120" fill="none" xmlns="http://www.w3.org/2000/svg">
	<path d="M99.1847 84.1554C99.1847 88.8717 95.6294 92.8294 90.9401 93.3333L17.0617 101.272C11.6048 101.858 6.84473 97.5819 6.84473 92.0936V22.3383C6.84473 16.9391 11.4585 12.6925 16.8393 13.1392L90.7177 19.2732C95.5031 19.6706 99.1847 23.6705 99.1847 28.4724V84.1554Z" fill="#1BCE7B" fill-opacity="0.78"/>
	<path d="M98.6291 84.1554C98.6291 88.5878 95.2878 92.3074 90.8807 92.7809L17.0023 100.719C11.8739 101.27 7.40028 97.2516 7.40028 92.0936V22.3383C7.40028 17.264 11.7364 13.273 16.7933 13.6929L90.6718 19.8269C95.1692 20.2003 98.6291 23.9595 98.6291 28.4724V84.1554Z" stroke="white" stroke-opacity="0.18" stroke-width="1.11111"/>
	<mask id="mask0_1307_30175" style="mask-type:alpha" maskUnits="userSpaceOnUse" x="6" y="13" width="94" height="88">
		<path d="M99.1955 83.7225C99.1955 88.4416 95.6361 92.4008 90.9436 92.9012L16.8639 100.802C11.4095 101.383 6.6543 97.1082 6.6543 91.6229V22.332C6.6543 16.935 11.2644 12.6891 16.6432 13.1324L90.7229 19.2371C95.5107 19.6317 99.1955 23.6326 99.1955 28.4367V83.7225Z" fill="white"/>
	</mask>
	<g mask="url(#mask0_1307_30175)">
		<path d="M54.2981 -4.7742L98.2821 20.0559L59.8759 58.0569C59.2447 58.6815 58.2347 58.7015 57.5792 58.1024L7.70115 12.5117L54.2981 -4.7742Z" stroke="white" stroke-opacity="0.18" stroke-width="1.11111"/>
	</g>
	<path d="M115.883 89.5794C115.883 94.2667 112.37 98.2099 107.714 98.749L89.6957 100.835C84.2137 101.47 79.4033 97.1842 79.4033 91.6655V66.1607C79.4033 61.129 83.4332 57.0242 88.4641 56.9315L106.483 56.5997C111.646 56.5047 115.883 60.6644 115.883 65.8289V89.5794Z" fill="#FAA72C" fill-opacity="0.78"/>
	<path d="M115.328 89.5794C115.328 93.9846 112.026 97.6905 107.65 98.1971L89.6318 100.283C84.4797 100.88 79.9589 96.852 79.9589 91.6655V66.1607C79.9589 61.4318 83.7462 57.5741 88.4744 57.487L106.493 57.1552C111.346 57.0658 115.328 60.9753 115.328 65.8289V89.5794Z" stroke="white" stroke-opacity="0.18" stroke-width="1.11111"/>
	<g filter="url(#filter0_d_1307_30175)">
		<path fill-rule="evenodd" clip-rule="evenodd" d="M96.5039 80.305C96.5039 81.6786 97.9173 82.751 99.5735 82.6364V82.6341C101.058 82.533 102.204 81.5033 102.204 80.2735V66.7439C102.204 65.422 100.889 64.3676 99.2889 64.4058C97.7406 64.444 96.5039 65.4962 96.5039 66.7754V80.305ZM96.5039 89.1403C96.5039 90.6937 97.9663 91.9093 99.6471 91.7563V91.754C101.1 91.6212 102.204 90.5001 102.204 89.1583V88.6968C102.204 87.1615 100.771 85.9503 99.1049 86.0786C97.6326 86.1934 96.5039 87.3213 96.5039 88.6788V89.1403Z" fill="white" fill-opacity="0.9" shape-rendering="crispEdges"/>
	</g>
	<g filter="url(#filter1_d_1307_30175)">
		<path d="M23.5313 90.469C23.5334 90.4685 23.5339 90.4657 23.532 90.4646C21.0967 89.0153 19.2089 86.8011 17.8863 83.8193C16.5539 80.8251 15.8848 77.2435 15.8848 73.0899C15.8848 68.6439 16.5863 64.7154 17.9895 61.3175C19.3838 57.9351 21.347 55.3317 23.8644 53.502C26.3641 51.6905 29.25 50.7821 32.5132 50.7692C35.7911 50.7563 38.6122 51.4964 40.9851 52.9845C43.3375 54.4596 45.1238 56.5454 46.356 59.2394C47.5823 61.9231 48.1925 65.07 48.1925 68.6853C48.1925 71.475 47.8387 73.931 47.1342 76.0504C46.4267 78.1777 45.4422 79.8391 44.1805 81.0373C42.913 82.2407 41.4804 82.8929 39.8768 82.9912C39.019 83.043 38.1995 82.7609 37.4154 82.1398C36.6407 81.5261 36.0415 80.6599 35.6207 79.541C35.6116 79.5168 35.5878 79.5013 35.562 79.5029C35.5398 79.5044 35.5204 79.5183 35.5118 79.5388C34.9853 80.7856 34.2648 81.7605 33.3445 82.4633C32.413 83.1749 31.4137 83.5631 30.3436 83.6278C28.3539 83.7495 26.7297 82.9369 25.4798 81.1823C24.224 79.4199 23.5932 76.9381 23.5932 73.7343C23.5932 70.7142 23.9558 68.1211 24.6809 65.9602C25.4032 63.8045 26.4054 62.1689 27.6788 61.0484C28.9464 59.933 30.3849 59.3636 31.9885 59.3326C32.8669 59.3171 33.6363 59.5215 34.2966 59.9511C34.598 60.146 34.8742 60.3727 35.1255 60.631C35.4353 60.9493 36.0598 60.8192 36.1315 60.3808C36.1683 60.1558 36.3604 59.9891 36.5884 59.9844L37.8255 59.9591C39.0254 59.9345 39.9653 60.9845 39.8084 62.1743L38.1169 74.9998C38.0904 75.1757 38.0786 75.4397 38.0786 75.7917C38.0786 76.4593 38.1906 76.9692 38.4117 77.3263C38.6328 77.6834 38.9394 77.8516 39.3285 77.8309C40.4693 77.7714 41.3654 76.9329 42.0227 75.3129C42.6772 73.698 43.0044 71.5553 43.0044 68.8768C43.0044 64.6352 42.1495 61.5168 40.4339 59.5137C38.7065 57.4978 36.0741 56.5118 32.5044 56.5635C29.079 56.6127 26.3936 58.0464 24.4717 60.8802C22.5379 63.732 21.5651 67.7277 21.5651 72.8544C21.5651 77.4376 22.4819 80.9157 24.3066 83.2733C26.1195 85.6179 28.687 86.6738 31.9826 86.4564C33.4571 86.3584 34.8313 86.1139 36.1061 85.7235C37.8287 85.1961 39.9062 86.3504 39.9062 88.1519C39.9062 88.8073 39.6283 89.4404 39.0971 89.8243C37.1551 91.228 34.7876 92.0406 31.9826 92.2533C28.7689 92.499 25.9466 91.91 23.5306 90.4733C23.5287 90.4722 23.5292 90.4694 23.5313 90.469ZM32.9907 76.6728C32.9907 76.672 32.9909 76.6712 32.9914 76.6704C33.5216 75.6895 33.9194 74.0284 34.1846 71.6872C34.2907 70.7996 34.3438 69.899 34.3438 68.9803C34.3438 67.3577 34.1522 66.1439 33.769 65.3443C33.3828 64.542 32.861 64.1487 32.1948 64.1694C31.1012 64.2004 30.2375 65.0234 29.6067 66.6434C28.9729 68.266 28.6575 70.5072 28.6575 73.359C28.6575 74.9998 28.8668 76.229 29.2824 77.0442C29.6981 77.8594 30.2699 78.2476 30.9921 78.2113C31.7936 78.17 32.4596 77.6579 32.9901 76.6753C32.9905 76.6745 32.9907 76.6737 32.9907 76.6728Z" fill="white" fill-opacity="0.9" shape-rendering="crispEdges"/>
	</g>
	<defs>
		<filter id="filter0_d_1307_30175" x="86.5039" y="58.4048" width="25.7002" height="47.3643" filterUnits="userSpaceOnUse" color-interpolation-filters="sRGB">
			<feFlood flood-opacity="0" result="BackgroundImageFix"/>
			<feColorMatrix in="SourceAlpha" type="matrix" values="0 0 0 0 0 0 0 0 0 0 0 0 0 0 0 0 0 0 127 0" result="hardAlpha"/>
			<feOffset dy="4"/>
			<feGaussianBlur stdDeviation="5"/>
			<feComposite in2="hardAlpha" operator="out"/>
			<feColorMatrix type="matrix" values="0 0 0 0 0 0 0 0 0 0 0 0 0 0 0 0 0 0 0.05 0"/>
			<feBlend mode="normal" in2="BackgroundImageFix" result="effect1_dropShadow_1307_30175"/>
			<feBlend mode="normal" in="SourceGraphic" in2="effect1_dropShadow_1307_30175" result="shape"/>
		</filter>
		<filter id="filter1_d_1307_30175" x="5.88477" y="44.769" width="52.3076" height="61.5386" filterUnits="userSpaceOnUse" color-interpolation-filters="sRGB">
			<feFlood flood-opacity="0" result="BackgroundImageFix"/>
			<feColorMatrix in="SourceAlpha" type="matrix" values="0 0 0 0 0 0 0 0 0 0 0 0 0 0 0 0 0 0 127 0" result="hardAlpha"/>
			<feOffset dy="4"/>
			<feGaussianBlur stdDeviation="5"/>
			<feComposite in2="hardAlpha" operator="out"/>
			<feColorMatrix type="matrix" values="0 0 0 0 0 0 0 0 0 0 0 0 0 0 0 0 0 0 0.05 0"/>
			<feBlend mode="normal" in2="BackgroundImageFix" result="effect1_dropShadow_1307_30175"/>
			<feBlend mode="normal" in="SourceGraphic" in2="effect1_dropShadow_1307_30175" result="shape"/>
		</filter>
	</defs>
</svg>
