<svg width="16" height="16" viewBox="0 0 16 16" fill="none" xmlns="http://www.w3.org/2000/svg">
	<g opacity="0.79">
		<path d="M10.5974 3.43622C10.4153 3.25376 10.4157 2.95828 10.5981 2.77625C10.7806 2.59422 11.0761 2.59457 11.2581 2.77702L13.037 4.56012L13.0416 4.56466C13.133 4.65583 13.1787 4.77545 13.1787 4.89507C13.1787 5.0147 13.133 5.13432 13.0416 5.22549L13.037 5.23003L11.2581 7.01312C11.0761 7.19558 10.7806 7.19593 10.5981 7.0139C10.4157 6.83187 10.4153 6.53639 10.5974 6.35393L11.587 5.362L4.62129 5.36198C4.14264 5.36198 3.75462 5.75 3.75462 6.22864L3.75462 7.04568C3.75462 7.30342 3.54569 7.51235 3.28796 7.51235C3.03022 7.51235 2.82129 7.30342 2.82129 7.04568V6.22864C2.82129 5.23453 3.62718 4.42864 4.62129 4.42865L11.5875 4.42866L10.5974 3.43622Z" fill="#F7F1FE"/>
		<path d="M12.8812 8.95558C12.8812 8.69785 12.6723 8.48891 12.4145 8.48891C12.1568 8.48891 11.9479 8.69784 11.9479 8.95558L11.9479 9.83815C11.9479 10.3168 11.5598 10.7048 11.0812 10.7048L4.41307 10.7048L5.40263 9.71291C5.58466 9.53045 5.58432 9.23497 5.40186 9.05294C5.2194 8.87091 4.92392 8.87126 4.74189 9.05372L2.96299 10.8368C2.96144 10.8383 2.95989 10.8398 2.95836 10.8414C2.86698 10.9325 2.82128 11.0521 2.82129 11.1718C2.82128 11.2914 2.86698 11.411 2.95836 11.5022C2.95989 11.5037 2.96142 11.5052 2.96297 11.5067L4.74189 13.2898C4.92392 13.4723 5.2194 13.4726 5.40186 13.2906C5.58432 13.1086 5.58466 12.8131 5.40263 12.6306L4.41246 11.6381L11.0812 11.6381C12.0753 11.6381 12.8812 10.8323 12.8812 9.83815L12.8812 8.95558Z" fill="#F7F1FE"/>
	</g>
</svg>