<svg width="20" height="20" viewBox="0 0 20 20" fill="none" xmlns="http://www.w3.org/2000/svg">
	<g opacity="0.7">
		<path fill-rule="evenodd" clip-rule="evenodd" d="M9.29108 6.82561C11.6271 6.32842 13.6652 8.3659 13.1682 10.7024C12.9057 11.9364 11.9364 12.9057 10.7023 13.1682C8.36593 13.6651 6.3286 11.6271 6.82559 9.29123C6.95107 8.70154 7.29754 8.14945 7.72343 7.72353C8.14932 7.29762 8.70138 6.95111 9.29108 6.82561ZM12.0271 10.4597C12.3483 8.94953 11.0437 7.64538 9.53395 7.96672C9.21442 8.03472 8.85503 8.24183 8.54841 8.54847C8.24179 8.8551 8.0347 9.2145 7.96671 9.53403C7.6455 11.0437 8.94958 12.3482 10.4596 12.027C11.2431 11.8604 11.8604 11.2431 12.0271 10.4597Z" fill="white"/>
		<path fill-rule="evenodd" clip-rule="evenodd" d="M9.25506 3.02361C9.76419 2.97094 10.2648 2.97296 10.7514 3.02489C11.307 3.08417 11.7233 3.48847 11.8669 3.97555L11.99 4.39326C12.0073 4.45205 12.0623 4.52285 12.1666 4.56451C12.215 4.5838 12.263 4.60372 12.3107 4.62426C12.4138 4.66869 12.5028 4.65754 12.5567 4.6282L12.9384 4.42025C13.3844 4.17735 13.9645 4.18594 14.3992 4.53644C14.7907 4.85212 15.1476 5.20901 15.4633 5.60055C15.8137 6.03527 15.8223 6.61532 15.5794 7.06126L15.3714 7.44322C15.342 7.49708 15.3309 7.58605 15.3753 7.68921C15.3958 7.73681 15.4157 7.78473 15.4349 7.83297C15.4766 7.93732 15.5474 7.9923 15.6062 8.00963L16.024 8.13279C16.5111 8.27636 16.9154 8.6927 16.9747 9.24825C17.0266 9.73487 17.0286 10.2355 16.976 10.7446C16.9183 11.3019 16.5142 11.7228 16.0231 11.8675L15.6205 11.9862C15.5612 12.0036 15.4895 12.0596 15.4479 12.1662C15.427 12.2198 15.4054 12.2731 15.3829 12.3259C15.339 12.4294 15.3503 12.5181 15.3795 12.5717L15.5922 12.9622C15.8346 13.4072 15.8269 13.9865 15.477 14.4212C15.164 14.8101 14.8097 15.1644 14.4208 15.4774C13.9861 15.8272 13.4068 15.8349 12.9619 15.5925L12.5714 15.3798C12.5179 15.3507 12.4291 15.3393 12.3256 15.3833C12.2728 15.4057 12.2195 15.4274 12.1658 15.4483C12.0593 15.4899 12.0033 15.5616 11.9858 15.6209L11.8673 16.0231C11.7225 16.5142 11.3017 16.9183 10.7443 16.976C10.2351 17.0286 9.73438 17.0266 9.24768 16.9746C8.69218 16.9153 8.27589 16.511 8.13233 16.0239L8.00931 15.6066C7.99198 15.5478 7.937 15.477 7.83265 15.4353C7.78438 15.416 7.73644 15.3962 7.68882 15.3757C7.58565 15.3312 7.49669 15.3424 7.44282 15.3717L7.06142 15.5795C6.6155 15.8224 6.03545 15.8138 5.60074 15.4633C5.20909 15.1476 4.8521 14.7906 4.53635 14.399C4.18587 13.9643 4.17729 13.3842 4.42019 12.9383L4.62783 12.5571C4.65718 12.5032 4.66833 12.4142 4.6239 12.311C4.60336 12.2633 4.58343 12.2153 4.56412 12.1669C4.52247 12.0626 4.45166 12.0076 4.39288 11.9903L3.97564 11.8673C3.4886 11.7238 3.08432 11.3075 3.02499 10.752C2.97301 10.2653 2.97095 9.76462 3.02359 9.25539C3.0812 8.69807 3.48538 8.27721 3.97644 8.13247L4.39778 8.00828C4.45499 7.99141 4.52754 7.93706 4.5743 7.82924C4.59124 7.79016 4.60869 7.75123 4.62661 7.71247C4.67639 7.60483 4.66538 7.51188 4.6354 7.45684L4.45687 7.12909C4.20791 6.67203 4.22615 6.08075 4.58814 5.64585C4.90658 5.26328 5.26283 4.907 5.64538 4.58852C6.08028 4.22646 6.67161 4.2082 7.12871 4.45718L7.45652 4.63574C7.51156 4.66572 7.60451 4.67673 7.71215 4.62696C7.7509 4.60904 7.78981 4.5916 7.82888 4.57467C7.93671 4.52791 7.99107 4.45535 8.00793 4.39814L8.13223 3.97644C8.27696 3.48542 8.69777 3.08126 9.25506 3.02361ZM10.6276 4.18497C10.222 4.14168 9.80311 4.13981 9.3751 4.18408C9.33561 4.18817 9.27619 4.22184 9.2513 4.30629L9.127 4.72799C8.99659 5.17044 8.66308 5.48457 8.29299 5.64504C8.2626 5.65822 8.2322 5.67184 8.20182 5.68589C7.81153 5.86637 7.32517 5.89271 6.89845 5.66028L6.57064 5.48172C6.49295 5.4394 6.42495 5.45757 6.39183 5.48514C6.06382 5.75821 5.75786 6.06419 5.48482 6.39222C5.45725 6.42535 5.43909 6.49334 5.48141 6.57102L5.65993 6.89878C5.89237 7.3255 5.86602 7.81187 5.68553 8.20217C5.67148 8.23256 5.65785 8.26296 5.64467 8.29337C5.48419 8.66345 5.17006 8.99694 4.72762 9.12735L4.30628 9.25154C4.22182 9.27643 4.18815 9.33586 4.18407 9.37535C4.13982 9.80344 4.14173 10.2224 4.18506 10.6281C4.189 10.665 4.22112 10.7234 4.30548 10.7483L4.72272 10.8712C5.17221 11.0037 5.49284 11.3466 5.64764 11.7344C5.66307 11.7731 5.67901 11.8115 5.69543 11.8496C5.86077 12.2335 5.87673 12.7032 5.65237 13.1151L5.44472 13.4963C5.40268 13.5735 5.42119 13.6377 5.4446 13.6667C5.70812 13.9936 6.00611 14.2916 6.33298 14.5551C6.36201 14.5785 6.42617 14.597 6.50335 14.555L6.88476 14.3472C7.2966 14.1229 7.76623 14.1388 8.15015 14.3041C8.18822 14.3205 8.22655 14.3364 8.26513 14.3518C8.65294 14.5066 8.99588 14.8272 9.12838 15.2767L9.2514 15.6941C9.27627 15.7785 9.33469 15.8106 9.37155 15.8145C9.77727 15.8578 10.1962 15.8597 10.6244 15.8155C10.6639 15.8114 10.7233 15.7777 10.7482 15.6933L10.8667 15.2911C11.0007 14.8365 11.3496 14.5143 11.7422 14.3613C11.785 14.3446 11.8274 14.3274 11.8695 14.3095C12.252 14.147 12.7193 14.1319 13.1295 14.3553L13.5199 14.568C13.5971 14.61 13.6608 14.5914 13.6893 14.5685C14.0129 14.3081 14.3077 14.0133 14.5682 13.6897C14.5911 13.6612 14.6097 13.5975 14.5677 13.5203L14.3549 13.1298C14.1315 12.7196 14.1466 12.2523 14.3091 11.8698C14.327 11.8277 14.3443 11.7853 14.3609 11.7426C14.5139 11.3499 14.8361 11.0011 15.2907 10.8671L15.6933 10.7484C15.7777 10.7235 15.8114 10.6641 15.8155 10.6246C15.8598 10.1966 15.8579 9.77767 15.8146 9.37202C15.8107 9.33516 15.7785 9.27673 15.6942 9.25186L15.2763 9.1287C14.8268 8.99621 14.5062 8.65327 14.3514 8.26546C14.336 8.2269 14.3201 8.18859 14.3037 8.15054C14.1384 7.76662 14.1225 7.29699 14.3468 6.88515L14.5549 6.50319C14.5969 6.42601 14.5784 6.36184 14.555 6.33282C14.2916 6.00603 13.9937 5.70813 13.6669 5.44466C13.6379 5.42126 13.5737 5.40274 13.4965 5.44479L13.1148 5.65273C12.7029 5.87709 12.2332 5.86114 11.8492 5.69579C11.8111 5.67937 11.7727 5.66345 11.7341 5.64802C11.3463 5.49322 11.0034 5.17259 10.8709 4.72311L10.7478 4.30539C10.7229 4.22102 10.6645 4.1889 10.6276 4.18497Z" fill="white"/>
	</g>
</svg>