<svg width="25" height="24" viewBox="0 0 25 24" fill="none" xmlns="http://www.w3.org/2000/svg">
	<path fill-rule="evenodd" clip-rule="evenodd" d="M6.85662 3.86542C7.24322 3.86542 7.55662 4.17882 7.55662 4.56542V5.25018H8.24152C8.62812 5.25018 8.94152 5.56358 8.94152 5.95018C8.94152 6.33678 8.62812 6.65018 8.24152 6.65018H7.55662V7.33607C7.55662 7.72267 7.24322 8.03607 6.85662 8.03607C6.47002 8.03607 6.15662 7.72267 6.15662 7.33607V6.65018H5.47087C5.08427 6.65018 4.77087 6.33678 4.77087 5.95018C4.77087 5.56358 5.08427 5.25018 5.47087 5.25018H6.15662V4.56542C6.15662 4.17882 6.47002 3.86542 6.85662 3.86542ZM11.7628 4.90227C12.0527 4.11876 13.1609 4.11876 13.4509 4.90227L14.9578 8.97405C15.0894 9.32985 15.37 9.61037 15.7258 9.74205L19.7975 11.2489C20.5811 11.5389 20.5811 12.6471 19.7975 12.937L15.7258 14.4439C15.37 14.5756 15.0894 14.8561 14.9578 15.2119L13.4509 19.2837C13.1609 20.0672 12.0527 20.0672 11.7628 19.2837L10.2559 15.2119C10.1242 14.8561 9.8437 14.5756 9.48791 14.4439L5.41613 12.937C4.63261 12.6471 4.63261 11.5389 5.41613 11.2489L9.48791 9.74205C9.8437 9.61037 10.1242 9.32985 10.2559 8.97405L11.7628 4.90227ZM12.6068 6.65525L11.5689 9.45996C11.2954 10.1989 10.7128 10.7815 9.97381 11.055L7.16911 12.093L9.97381 13.1309C10.7128 13.4044 11.2954 13.987 11.5689 14.726L12.6068 17.5307L13.6448 14.726C13.9183 13.987 14.5009 13.4044 15.2399 13.1309L18.0446 12.093L15.2399 11.055C14.5009 10.7815 13.9183 10.1989 13.6448 9.45996L12.6068 6.65525ZM17.8844 16.5334C18.271 16.5334 18.5844 16.8468 18.5844 17.2334V17.9162H19.2658C19.6524 17.9162 19.9658 18.2296 19.9658 18.6162C19.9658 19.0028 19.6524 19.3162 19.2658 19.3162H18.5844V19.9976C18.5844 20.3842 18.271 20.6976 17.8844 20.6976C17.4978 20.6976 17.1844 20.3842 17.1844 19.9976V19.3162H16.5016C16.115 19.3162 15.8016 19.0028 15.8016 18.6162C15.8016 18.2296 16.115 17.9162 16.5016 17.9162H17.1844V17.2334C17.1844 16.8468 17.4978 16.5334 17.8844 16.5334Z" fill="white"/>
</svg>