<svg width="104" height="64" viewBox="0 0 104 64" fill="none" xmlns="http://www.w3.org/2000/svg">
	<g clip-path="url(#clip0_1_6)">
		<path d="M51.778 17.5643C51.0604 17.2824 50.1218 17.198 49.1004 17.198H43.4134V15.3943H53.1859V12.2941H39.4106V25.7094H48.7415C50.039 25.7094 51.0049 25.5967 51.7229 25.3146C53.2412 24.7228 54.2626 23.2855 54.2626 21.3973C54.2626 19.4809 53.2964 18.1562 51.778 17.5643ZM49.7904 22.2146C49.5697 22.2992 49.266 22.3272 48.8794 22.3272H43.4134V20.1853H48.8794C49.3212 20.1853 49.6799 20.2137 49.9561 20.3545C50.2873 20.5236 50.453 20.8336 50.453 21.228C50.453 21.6227 50.2598 22.0455 49.7904 22.2146Z" fill="#333333"/>
		<path d="M65.486 12.2941H59.6336L54.2505 25.7094H58.7779L59.5232 23.7647H65.5963L66.3694 25.7094H70.8692L65.486 12.2941ZM60.5169 20.8053L62.4219 15.3943H62.7255L64.6302 20.8053H60.5169Z" fill="#333333"/>
		<path d="M76.0212 20.7211V25.7095H72.0186V12.2941H76.0212V17.1981H82.4534V12.2941H86.4563V25.7095H82.4534V20.7211H76.0212Z" fill="#333333"/>
		<path d="M92.792 20.6366V25.7095H88.7891V12.2941H92.792V17.3391H93.8961L98.7272 12.2941H103.751L97.3467 18.7199L104 25.7095H98.6718L93.8961 20.6366H92.792Z" fill="#333333"/>
		<path d="M0 4.47058H31.7474V19.6537C31.7474 23.8325 29.5638 27.6941 26.0193 29.7836L15.8738 35.7647L5.72817 29.7836C2.18353 27.6941 3.63865e-06 23.8325 3.63865e-06 19.6537L0 4.47058Z" fill="#FFDD2D"/>
		<path fill-rule="evenodd" clip-rule="evenodd" d="M8.75781 12.2941V17.3321C9.43261 16.5542 10.6595 16.0277 12.0624 16.0277H13.5868V21.8843C13.5868 23.4424 13.1721 24.9681 12.5569 25.7183H19.188C18.5741 24.9674 18.1604 23.4436 18.1604 21.8873V16.0277H19.6849C21.0877 16.0277 22.3146 16.5542 22.9894 17.3321V12.2941H8.75781Z" fill="#333333"/>
		<path d="M51.778 17.5643C51.0604 17.2824 50.1218 17.198 49.1004 17.198H43.4134V15.3943H53.1859V12.2941H39.4106V25.7094H48.7415C50.039 25.7094 51.0049 25.5967 51.7229 25.3146C53.2412 24.7228 54.2626 23.2855 54.2626 21.3973C54.2626 19.4809 53.2964 18.1562 51.778 17.5643ZM49.7904 22.2146C49.5697 22.2992 49.266 22.3272 48.8794 22.3272H43.4134V20.1853H48.8794C49.3212 20.1853 49.6799 20.2137 49.9561 20.3545C50.2873 20.5236 50.453 20.8336 50.453 21.228C50.453 21.6227 50.2598 22.0455 49.7904 22.2146Z" fill="#333333"/>
		<path d="M65.486 12.2941H59.6336L54.2505 25.7094H58.7779L59.5232 23.7647H65.5963L66.3694 25.7094H70.8692L65.486 12.2941ZM60.5169 20.8053L62.4219 15.3943H62.7255L64.6302 20.8053H60.5169Z" fill="#333333"/>
		<path d="M76.0212 20.7211V25.7095H72.0186V12.2941H76.0212V17.1981H82.4534V12.2941H86.4563V25.7095H82.4534V20.7211H76.0212Z" fill="#333333"/>
		<path d="M92.792 20.6366V25.7095H88.7891V12.2941H92.792V17.3391H93.8961L98.7272 12.2941H103.751L97.3467 18.7199L104 25.7095H98.6718L93.8961 20.6366H92.792Z" fill="#333333"/>
		<path d="M0 4.47058H31.7474V19.6537C31.7474 23.8325 29.5638 27.6941 26.0193 29.7836L15.8738 35.7647L5.72817 29.7836C2.18353 27.6941 3.63865e-06 23.8325 3.63865e-06 19.6537L0 4.47058Z" fill="white"/>
		<path fill-rule="evenodd" clip-rule="evenodd" d="M8.75781 12.2941V17.3321C9.43261 16.5542 10.6595 16.0277 12.0624 16.0277H13.5868V21.8843C13.5868 23.4424 13.1721 24.9681 12.5569 25.7183H19.188C18.5741 24.9674 18.1604 23.4436 18.1604 21.8873V16.0277H19.6849C21.0877 16.0277 22.3146 16.5542 22.9894 17.3321V12.2941H8.75781Z" fill="#333333"/>
	</g>
	<g clip-path="url(#clip1_1_6)">
		<path d="M51.6654 51.2143H49.1447L47.3608 54.2056H46.4426L46.4132 47.732H44.0269V59.4235H46.4132L46.4426 56.2146H47.3549L49.7237 59.4235H52.3674L49.2791 55.1711L51.6654 51.2143Z" fill="#333333"/>
		<path d="M69.7264 55.065C69.2417 54.7657 68.7161 54.531 68.1647 54.3675L67.6382 54.1777L67.498 54.1275C67.1705 54.0103 66.8254 53.8875 66.8136 53.5694C66.8107 53.4752 66.8324 53.3818 66.8776 53.2979C66.9225 53.2139 66.9891 53.1422 67.071 53.0895C67.2438 52.9759 67.4463 52.9102 67.6558 52.8997C68.1127 52.8696 68.5658 52.9985 68.9309 53.2625L68.9952 53.3015L70.2702 51.9008L70.2059 51.8506C70.0472 51.7155 69.8749 51.5959 69.6912 51.4934C69.3623 51.3139 69.0048 51.1875 68.6327 51.1195C68.0966 51.0107 67.5426 51.0107 67.0067 51.1195C66.4885 51.1849 65.9969 51.3772 65.5797 51.6776C65.3126 51.8768 65.0896 52.1243 64.9229 52.4058C64.7565 52.6873 64.6497 52.9974 64.6086 53.3183C64.5355 53.8974 64.6896 54.4819 65.0415 54.959C65.5086 55.4527 66.1196 55.8025 66.796 55.9635L66.9014 55.997L67.1411 56.0751C68.0068 56.3542 68.2524 56.4658 68.3927 56.6332C68.4581 56.7174 68.4948 56.8187 68.4981 56.9234C68.4981 57.3196 67.9892 57.4815 67.6441 57.5819C67.4029 57.6252 67.1549 57.6207 66.9155 57.5689C66.676 57.5171 66.4503 57.419 66.2523 57.2806C65.9315 57.076 65.6571 56.8122 65.445 56.5049C65.3106 56.6388 63.9886 57.8833 64.012 57.9056L64.0531 57.9614C64.6899 58.7223 65.5823 59.2505 66.5797 59.457C66.8075 59.4991 67.0381 59.5271 67.2699 59.5408H67.5097C68.2976 59.5565 69.0694 59.3273 69.7088 58.8878C70.1414 58.5959 70.473 58.188 70.6623 57.7159C70.7773 57.3989 70.8178 57.0617 70.7814 56.7281C70.745 56.3945 70.6326 56.0725 70.4516 55.785C70.2667 55.4982 70.0193 55.2526 69.7264 55.065Z" fill="#333333"/>
		<path d="M77.4355 55.065C76.9528 54.7656 76.4296 54.5309 75.8799 54.3674L75.3476 54.1776L75.2132 54.1274C74.8798 54.0102 74.5406 53.8874 74.523 53.5693C74.5245 53.4753 74.5491 53.3829 74.5949 53.2996C74.6407 53.2162 74.7061 53.1443 74.7862 53.0894C74.9591 52.9757 75.1615 52.9101 75.3711 52.8997C75.828 52.8706 76.2805 52.9993 76.6461 53.2624L76.7045 53.3015L77.9796 51.9007L77.9212 51.8505C77.7613 51.7142 77.5869 51.5944 77.4006 51.4933C77.0737 51.314 76.718 51.1877 76.3477 51.1194C75.8098 51.0105 75.254 51.0105 74.7161 51.1194C74.1984 51.1868 73.7072 51.3789 73.2887 51.6775C73.0202 51.8748 72.7951 52.1209 72.6264 52.4015C72.458 52.6821 72.3491 52.9918 72.3062 53.3126C72.2297 53.892 72.384 54.4776 72.7391 54.9534C73.2063 55.4471 73.8172 55.7968 74.4936 55.9579L74.5931 55.9914L74.8329 56.0695C75.7044 56.3485 75.9501 56.4602 76.0903 56.6276C76.1578 56.7104 76.193 56.813 76.1898 56.9178C76.1898 57.314 75.6868 57.4758 75.3417 57.5763C75.0996 57.6196 74.8505 57.6153 74.6101 57.5635C74.3698 57.5116 74.143 57.4134 73.944 57.2749C73.6259 57.0674 73.3521 56.8041 73.1367 56.4992C73.0082 56.6331 71.6862 57.8776 71.7038 57.9L71.7504 57.9558C72.3875 58.7166 73.2799 59.2448 74.2774 59.4514C74.5051 59.4938 74.7357 59.5218 74.9676 59.5351H75.2073C75.9952 59.5508 76.767 59.3217 77.4065 58.8822C77.839 58.5903 78.1706 58.1824 78.3599 57.7102C78.4746 57.3933 78.5154 57.0561 78.479 56.7225C78.4426 56.3888 78.3303 56.0669 78.1492 55.7793C77.9667 55.496 77.7234 55.2526 77.4355 55.065Z" fill="#333333"/>
		<path d="M59.5025 51.2144V52.018H59.3974C58.7442 51.3939 57.8591 51.041 56.935 51.0358C56.3684 51.0251 55.8055 51.1284 55.2838 51.339C54.7617 51.5496 54.2919 51.8627 53.9051 52.258C53.1251 53.0914 52.707 54.1768 52.7354 55.2938C52.7052 56.4296 53.1225 57.5348 53.9051 58.3911C54.2828 58.7867 54.745 59.1 55.2609 59.31C55.7765 59.5199 56.3335 59.6214 56.894 59.6077C57.8195 59.5911 58.7095 59.2653 59.4088 58.6869H59.5025V59.4068H61.9824V51.2144H59.5025ZM59.6254 55.3385C59.6504 55.9987 59.4191 56.6445 58.976 57.1522C58.7638 57.3791 58.5018 57.5586 58.2086 57.6782C57.9158 57.7978 57.5985 57.8545 57.2801 57.8442C56.9711 57.8492 56.6648 57.7875 56.3842 57.6638C56.1037 57.5401 55.856 57.3576 55.66 57.1299C55.2221 56.6116 54.9977 55.9588 55.0282 55.2938C55.0082 54.6489 55.2371 54.0194 55.6714 53.5248C55.8716 53.3005 56.121 53.1211 56.4021 52.9996C56.6832 52.878 56.989 52.8172 57.2974 52.8216C57.6141 52.8122 57.9287 52.8699 58.2189 52.9905C58.5091 53.1111 58.7679 53.2917 58.976 53.5192C59.4191 54.0292 59.6501 54.6766 59.6254 55.3385Z" fill="#333333"/>
		<path d="M86.4776 51.2143V52.018H86.3722C85.7204 51.3953 84.838 51.0424 83.9157 51.0358C83.3485 51.0257 82.785 51.1293 82.2621 51.3398C81.7395 51.5503 81.2685 51.8631 80.8802 52.2579C80.1002 53.0914 79.6821 54.1768 79.7105 55.2938C79.6803 56.4296 80.0976 57.5348 80.8802 58.3911C81.2579 58.7866 81.7201 59.1 82.2357 59.3099C82.7516 59.5198 83.3086 59.6214 83.869 59.6077C84.7946 59.5911 85.6844 59.2653 86.3839 58.6869H86.4776V59.4068H88.9575V51.2143H86.4776ZM86.6005 55.3385C86.6281 55.9991 86.3966 56.6458 85.9511 57.1522C85.7389 57.3791 85.4769 57.5586 85.1837 57.6782C84.8906 57.7978 84.5736 57.8545 84.2549 57.8442C83.9459 57.8492 83.6399 57.7875 83.3593 57.6638C83.0788 57.5401 82.8311 57.3576 82.6348 57.1299C82.1972 56.6116 81.9725 55.9588 82.0033 55.2938C81.9833 54.6489 82.2122 54.0194 82.6465 53.5248C82.8467 53.3005 83.0961 53.1211 83.3772 52.9995C83.6583 52.878 83.9641 52.8172 84.2725 52.8216C84.5892 52.8122 84.9038 52.8699 85.194 52.9905C85.4842 53.1111 85.7427 53.2917 85.9511 53.5192C86.3966 54.0278 86.6278 54.6762 86.6005 55.3385Z" fill="#333333"/>
		<path d="M27.7369 46.36C22.5885 46.36 18.4932 50.3234 18.4932 55.18C18.4932 60.0924 22.647 64 27.7369 64C32.8269 64 36.9807 60.0366 36.9807 55.18C36.9807 50.3234 32.8269 46.36 27.7369 46.36ZM27.7369 58.4177C25.8648 58.4177 24.2852 56.9105 24.2852 55.1242C24.2852 53.3378 25.8648 51.8306 27.7369 51.8306C29.6091 51.8306 31.1887 53.3378 31.1887 55.1242C31.1302 56.9663 29.6091 58.4177 27.7369 58.4177Z" fill="#333333"/>
		<path d="M18.4344 48.872V61.7113H15.1581L10.9458 48.872H18.4344Z" fill="#333333"/>
	</g>
	<defs>
		<clipPath id="clip0_1_6">
			<rect width="104" height="38" fill="white"/>
		</clipPath>
		<clipPath id="clip1_1_6">
			<rect width="78.0586" height="17.64" fill="white" transform="translate(10.9458 46.36)"/>
		</clipPath>
	</defs>
</svg>
