<svg width="20" height="20" viewBox="0 0 20 20" fill="none" xmlns="http://www.w3.org/2000/svg">
<g id="Icon">
<g id="Union">
<path d="M13.326 8.05005H12.651C12.2829 8.05005 11.9844 8.34853 11.9844 8.71671V9.42505C11.9844 9.79324 12.2829 10.0917 12.651 10.0917H13.326C13.6942 10.0917 13.9927 9.79324 13.9927 9.42505V8.71671C13.9927 8.34853 13.6942 8.05005 13.326 8.05005Z" fill="#F6F8FA"/>
<path d="M9.71769 8.05005H10.3927C10.7609 8.05005 11.0594 8.34853 11.0594 8.71671V9.42505C11.0594 9.79324 10.7609 10.0917 10.3927 10.0917H9.71769C9.3495 10.0917 9.05103 9.79324 9.05103 9.42505V8.71671C9.05103 8.34853 9.3495 8.05005 9.71769 8.05005Z" fill="#F6F8FA"/>
<path d="M7.32629 8.05005H6.65129C6.2831 8.05005 5.98462 8.34853 5.98462 8.71671V9.42505C5.98462 9.79324 6.2831 10.0917 6.65129 10.0917H7.32629C7.69448 10.0917 7.99295 9.79324 7.99295 9.42505V8.71671C7.99295 8.34853 7.69448 8.05005 7.32629 8.05005Z" fill="#F6F8FA"/>
<path d="M6.65129 11.2166H7.32629C7.69448 11.2166 7.99295 11.515 7.99295 11.8832V12.5916C7.99295 12.9597 7.69448 13.2582 7.32629 13.2582H6.65129C6.2831 13.2582 5.98462 12.9597 5.98462 12.5916V11.8832C5.98462 11.515 6.2831 11.2166 6.65129 11.2166Z" fill="#F6F8FA"/>
<path fill-rule="evenodd" clip-rule="evenodd" d="M14.4261 4.28358H13.5595V3.92524C13.5595 3.55024 13.2595 3.25024 12.8845 3.25024C12.5095 3.25024 12.2095 3.55024 12.2095 3.92524V4.28358H7.82614V3.92524C7.82614 3.55024 7.52614 3.25024 7.15114 3.25024C6.77614 3.25024 6.47614 3.55024 6.47614 3.92524V4.28358H5.60114C4.34281 4.28358 3.33447 5.29191 3.33447 6.53358V13.8252C3.33447 15.0669 4.34281 16.0752 5.58447 16.0752H14.4261C15.6678 16.0752 16.6761 15.0669 16.6761 13.8252V6.53358C16.6761 5.29191 15.6678 4.28358 14.4261 4.28358ZM15.6761 13.8336C15.6761 14.5252 15.1178 15.0836 14.4261 15.0836H5.58447C4.89281 15.0836 4.33447 14.5252 4.33447 13.8336V6.53358C4.33447 5.84191 4.89281 5.28358 5.58447 5.28358H6.45947V6.05858C6.45947 6.43358 6.75947 6.73358 7.13447 6.73358C7.50947 6.73358 7.80947 6.43358 7.80947 6.05858V5.28358H12.1928V6.05858C12.1928 6.43358 12.4928 6.73358 12.8678 6.73358C13.2428 6.73358 13.5428 6.43358 13.5428 6.05858V5.28358H14.4095C15.1011 5.28358 15.6595 5.84191 15.6595 6.53358V13.8252L15.6761 13.8336Z" fill="#F6F8FA"/>
</g>
</g>
</svg>
