<svg width="20" height="20" viewBox="0 0 20 20" fill="none" xmlns="http://www.w3.org/2000/svg">
<g id="Icon">
<g id="Icon_2">
<path fill-rule="evenodd" clip-rule="evenodd" d="M10.0007 15.6666C13.1303 15.6666 15.6673 13.1295 15.6673 9.99992C15.6673 6.87031 13.1303 4.33325 10.0007 4.33325C6.87104 4.33325 4.33398 6.87031 4.33398 9.99992C4.33398 13.1295 6.87104 15.6666 10.0007 15.6666ZM16.6673 9.99992C16.6673 13.6818 13.6825 16.6666 10.0007 16.6666C6.31876 16.6666 3.33398 13.6818 3.33398 9.99992C3.33398 6.31802 6.31876 3.33325 10.0007 3.33325C13.6825 3.33325 16.6673 6.31802 16.6673 9.99992Z" fill="white"/>
<path fill-rule="evenodd" clip-rule="evenodd" d="M9.92975 6.17201C10.2059 6.17201 10.4297 6.39587 10.4297 6.67201V9.59153L12.8072 9.59151C13.0834 9.59151 13.3072 9.81537 13.3072 10.0915C13.3072 10.3677 13.0834 10.5915 12.8072 10.5915L9.92975 10.5915C9.79714 10.5915 9.66997 10.5389 9.5762 10.4451C9.48243 10.3513 9.42975 10.2241 9.42975 10.0915V6.67201C9.42975 6.39587 9.65361 6.17201 9.92975 6.17201Z" fill="white"/>
</g>
</g>
</svg>
