<svg width="20" height="20" viewBox="0 0 20 20" fill="none" xmlns="http://www.w3.org/2000/svg">
<g id="Icon">
<path id="Icon_2" fill-rule="evenodd" clip-rule="evenodd" d="M5.48438 4.17749C5.48438 3.90135 5.70823 3.67749 5.98438 3.67749H14.1663C14.4425 3.67749 14.6663 3.90135 14.6663 4.17749C14.6663 4.45363 14.4425 4.67749 14.1663 4.67749H13.955V6.91488C13.955 7.05256 13.9137 7.17188 13.875 7.25723C13.8344 7.34685 13.7816 7.43191 13.7268 7.50921C13.6174 7.6635 13.4717 7.82611 13.3127 7.98621C12.9926 8.30844 12.5725 8.66626 12.1544 8.9962C11.7345 9.32751 11.3053 9.63964 10.9612 9.87085C10.9184 9.89958 10.8766 9.92731 10.836 9.95386C10.8766 9.98041 10.9184 10.0081 10.9612 10.0369C11.3053 10.2681 11.7345 10.5802 12.1544 10.9115C12.5725 11.2415 12.9926 11.5993 13.3127 11.9215C13.4717 12.0816 13.6174 12.2442 13.7268 12.3985C13.7816 12.4758 13.8344 12.5609 13.875 12.6505C13.9137 12.7358 13.955 12.8552 13.955 12.9928V15.2302H14.1663C14.4425 15.2302 14.6663 15.4541 14.6663 15.7302C14.6663 16.0064 14.4425 16.2302 14.1663 16.2302H5.98438C5.70823 16.2302 5.48438 16.0064 5.48438 15.7302C5.48438 15.4541 5.70823 15.2302 5.98438 15.2302H6.12109V12.9928C6.12109 12.746 6.23875 12.5261 6.3395 12.3729C6.45048 12.2043 6.59854 12.0324 6.75972 11.8666C7.08352 11.5336 7.50731 11.1775 7.92697 10.8553C8.34878 10.5314 8.77947 10.2316 9.12452 10.011C9.15516 9.99144 9.18531 9.97237 9.21487 9.95386C9.18531 9.93535 9.15516 9.91627 9.12452 9.89668C8.77947 9.6761 8.34878 9.37635 7.92697 9.05243C7.50731 8.73017 7.08352 8.37414 6.75972 8.04111C6.59854 7.87533 6.45048 7.70343 6.3395 7.53477C6.23875 7.38165 6.12109 7.16174 6.12109 6.91488V4.67749H5.98438C5.70823 4.67749 5.48438 4.45363 5.48438 4.17749ZM7.12109 4.67749V6.88881C7.12585 6.90032 7.13956 6.93142 7.17487 6.98509C7.23748 7.08024 7.33798 7.20133 7.47671 7.34401C7.75272 7.62791 8.13414 7.95068 8.53603 8.2593C8.93577 8.56627 9.34298 8.84947 9.66313 9.05413C9.81245 9.14958 9.93806 9.22489 10.0323 9.27673C10.1269 9.22173 10.2531 9.14184 10.4035 9.04083C10.7246 8.82506 11.1332 8.52813 11.5349 8.21117C11.9383 7.89284 12.3234 7.56315 12.6032 7.2815C12.7441 7.13966 12.8469 7.02123 12.9111 6.93075C12.9325 6.9005 12.9465 6.87783 12.955 6.86234V4.67749H7.12109ZM7.12109 15.2302H12.955V13.0454C12.9465 13.0299 12.9325 13.0072 12.9111 12.977C12.8469 12.8865 12.7441 12.7681 12.6032 12.6262C12.3234 12.3446 11.9383 12.0149 11.5349 11.6965C11.1332 11.3796 10.7246 11.0827 10.4035 10.8669C10.2531 10.7659 10.1269 10.686 10.0323 10.631C9.93806 10.6828 9.81245 10.7581 9.66313 10.8536C9.34298 11.0582 8.93577 11.3414 8.53603 11.6484C8.13414 11.957 7.75272 12.2798 7.47671 12.5637C7.33798 12.7064 7.23748 12.8275 7.17487 12.9226C7.13956 12.9763 7.12585 13.0074 7.12109 13.0189V15.2302Z" fill="white"/>
</g>
</svg>
